<svg xmlns="http://www.w3.org/2000/svg" viewBox="0 0 80.34 80.34"><defs><style>.cls-1{fill:#e8414e;}.cls-2{fill:#fff;}</style></defs><g id="Layer_2" data-name="Layer 2"><g id="_14" data-name="14"><circle class="cls-1" cx="40.17" cy="40.17" r="40.17" transform="translate(-1.66 1.73) rotate(-2.41)"/><path class="cls-2" d="M57.88,35c-3-3.33-7.09-1.33-10.32,1.09-.24-.69-.48-1.39-.73-2.09a7.37,7.37,0,0,0,1.9-4.31.64.64,0,0,0,0-.25.61.61,0,0,0,0-.24,7.25,7.25,0,0,0-1.24-3.57,2.86,2.86,0,0,0,1.72-2,.69.69,0,0,0,0-.2.74.74,0,0,0,0-.21c-.59-3-6.64-2.9-8.79-2.93-1.86,0-8.82,0-8.82,3.14a2.36,2.36,0,0,0,1.62,2.07,7.22,7.22,0,0,0-1.34,3.89,6,6,0,0,0,2.31,5c-.23.66-.47,1.32-.71,2-3.22-2.4-7.32-4.54-10.62-1.67-4,3.53,2.67,8.66,7.07,11.62l-4.3,12A.78.78,0,0,0,25.82,60h29a.78.78,0,0,0,.74-1L51.06,46.11q2-1.56,3.89-3.22C56.9,41.18,60.32,37.78,57.88,35ZM35.59,22.41a20.63,20.63,0,0,1,4.83-.49c1.23,0,6.48-.08,7.23,1.58a2,2,0,0,1-1.27.94,9.7,9.7,0,0,0-11.93-.16,6.79,6.79,0,0,1-.87-.39C32.47,23.3,35.41,22.46,35.59,22.41Zm8.72,2.48c-1.24.16-2.46.18-3,.2a20.11,20.11,0,0,1-5.28-.33A8.85,8.85,0,0,1,44.31,24.89ZM33.43,29.48A4.84,4.84,0,0,1,34.5,26a24.72,24.72,0,0,0,5,.6,24.4,24.4,0,0,0,6.44-.42,5.38,5.38,0,0,1,1.3,3.26C46.79,37.08,33.85,37.08,33.43,29.48Zm7.81,14.24a3.59,3.59,0,0,0-1,.7,2.73,2.73,0,0,0-.87-.62l.72-7h.48C40.83,39.1,41,41.41,41.24,43.72ZM25.65,41a5.59,5.59,0,0,1-2.34-3.63c-.16-1.89,2.32-2.65,3.7-2.4a13.91,13.91,0,0,1,4.76,2.3c.39.25.77.52,1.15.8-.8,2.25-1.61,4.51-2.41,6.77C28.84,43.58,27.21,42.31,25.65,41Zm4.68,17.45H27.27q4.13-11.51,8.23-23a11,11,0,0,0,1.09.54q-3.12,11.22-6.25,22.44S30.34,58.41,30.33,58.42Zm6.05,0H31.93q3.06-11,6.13-22l.56.13-.72,7a2.62,2.62,0,0,0-2,2.13A3.28,3.28,0,0,0,37.35,49C37,52.14,36.7,55.28,36.38,58.42Zm1.55,0L38.8,50a12.48,12.48,0,0,0,1.27.58.6.6,0,0,0,.7-.13c.31-.14.65-.32,1-.52.25,2.85.5,5.69.76,8.54Zm2.33-9.48a7.74,7.74,0,0,1-2.2-1.39,1.67,1.67,0,0,1-.43-2.19c.45-.85,1.64,0,1.86.56a.79.79,0,0,0,1.42.18,3.14,3.14,0,0,1,1-1c.6-.39,1.17.28,1.37.81s-.23.93-.49,1.23A7.7,7.7,0,0,1,40.26,48.94Zm3.82,9.48-.84-9.53c1-.85,1.78-1.91,1.52-3.13a3,3,0,0,0-2-2.23c-.21-2.28-.41-4.55-.61-6.83,0,0,0,0,0-.05.24,0,.48-.1.71-.16l5.61,21.93Zm9.66,0H50a.79.79,0,0,0,0-.3L44.32,36s0,0,0,0a8.69,8.69,0,0,0,1.28-.77Zm-3.2-13.78q-1.2-3.47-2.42-6.92l.08-.07A18.4,18.4,0,0,1,52.82,35a3.18,3.18,0,0,1,2.68.06c2.67,1.19,1.34,3.73-.09,5.27A38.61,38.61,0,0,1,50.54,44.64Z"/></g></g></svg>