<svg xmlns="http://www.w3.org/2000/svg" viewBox="0 0 80.34 80.34"><defs><style>.cls-1{fill:#e8414e;}.cls-2{fill:#fff;}</style></defs><g id="Layer_2" data-name="Layer 2"><g id="_19" data-name="19"><path class="cls-1" d="M80.34,40.17A40.17,40.17,0,1,1,40.17,0,40.18,40.18,0,0,1,80.34,40.17Z"/><path class="cls-2" d="M56.59,52.6c-1-.58-1.69-2.25-2.22-3.23a20.53,20.53,0,0,1-2-8.2c-.42-4.53-.43-10.07-3.7-13.59a10.64,10.64,0,0,0,.1-2c-.06-1.69-.79-3.52-2.71-3.51a6,6,0,0,0-3,1A3.21,3.21,0,0,0,40.17,21a3.07,3.07,0,0,0-2.92,2.09,5.13,5.13,0,0,0-3.53-1c-1.63.35-2,2.08-2.15,3.52a8.23,8.23,0,0,0,.08,2c-3.1,3.32-3.2,8.46-3.52,12.78s-1.22,9-4.53,12.29A.78.78,0,0,0,24.15,54H34.89a5.4,5.4,0,0,0,5.28,5.26c2.94.16,5.2-2.51,5.28-5.26H56.2A.78.78,0,0,0,56.59,52.6ZM44.25,24.35c.64-.37,2-1.17,2.57-.33a4.21,4.21,0,0,1,.42,2.35c0,.38-.09,2.28-.8,2.18a20.88,20.88,0,0,1-2.7-.67c-.92-.27-1.83-.56-2.74-.86,0-.15,0-.31,0-.46A25.26,25.26,0,0,1,44.25,24.35Zm-.65,9.13L42.34,34c-.4-1.76-.81-3.53-1.21-5.29L42,29ZM41.75,24l-.62.48a5.9,5.9,0,0,0-1,.77L40,25.12a.88.88,0,0,0-.15-.12c-.35-.28-.77-.61-1.22-.95C38.61,22.21,41.67,22.19,41.75,24ZM33.17,25.1a2.15,2.15,0,0,1,.64-1.4c.54-.4,1.85.42,2.29.65a20.81,20.81,0,0,1,3.22,2.2v0l0,.45a23.29,23.29,0,0,1-5.7,1.54C32.9,28.18,33.09,25.7,33.17,25.1Zm6,3.6c-.41,1.76-.81,3.53-1.22,5.29l-1.25-.51c.54-1.49,1.07-3,1.61-4.48Zm-7,.6a2.08,2.08,0,0,0,.8.7.7.7,0,0,0,.4.12.74.74,0,0,0,.26,0l.57-.06a7,7,0,0,0,1.65-.32l.58-.15L35,33.71a.78.78,0,0,0,.54.95l2.78,1.13a.78.78,0,0,0,.95-.54l.87-3.81c.29,1.27.59,2.54.88,3.81a.78.78,0,0,0,1,.54l2.78-1.13a.79.79,0,0,0,.54-.95l-1.5-4.16a8.12,8.12,0,0,0,2.31.49l.22,0a1.64,1.64,0,0,0,1.74-.8c2.59,3.39,2.57,8.49,2.91,13H29.52C29.88,37.82,29.59,32.74,32.26,29.3ZM29.15,45.16c.09-.44.16-.89.22-1.34H51.14c.08.69.17,1.36.29,2a19.72,19.72,0,0,0,.88,3.08H28A19,19,0,0,0,29.15,45.16Zm11,12.59A3.71,3.71,0,0,1,36.45,54H43.9A3.81,3.81,0,0,1,40.17,57.75Zm4.47-5.26H25.84a16.31,16.31,0,0,0,1.36-2.06H53a11.35,11.35,0,0,0,1.27,2.06Z"/></g></g></svg>