<svg xmlns="http://www.w3.org/2000/svg" viewBox="0 0 80.34 80.34"><defs><style>.cls-1{fill:#e8414e;}.cls-2{fill:#fff;}</style></defs><g id="Layer_2" data-name="Layer 2"><g id="_23" data-name="23"><path class="cls-1" d="M80.34,40.17A40.17,40.17,0,1,1,40.17,0,40.17,40.17,0,0,1,80.34,40.17Z"/><path class="cls-2" d="M40.17,20.84c-6.87-.2-12.41,5.57-12.62,12.24-.18,6,4.45,10.61,9.92,11.89V58.74a.78.78,0,0,0,.77.77H42.1a.71.71,0,0,0,.53-.21l0,0,0,0a.73.73,0,0,0,.21-.52V45.1a12.74,12.74,0,0,0,9.91-12A12.63,12.63,0,0,0,40.17,20.84Zm10.54,9.21c-2.17,2.47-5.59,4.29-8.49,3.27,3.29-1.37,4.79-5,4.86-8.57A11.28,11.28,0,0,1,50.71,30.05ZM40.17,22.38a10.22,10.22,0,0,1,5.35,1.32c.18,2.73-.25,5.62-2.57,7.4a6.54,6.54,0,0,1-1.17.69c1.32-3.24-.1-6.76-2.51-9.35Q39.72,22.4,40.17,22.38Zm-2.74.41c2.32,2.18,4,5.45,3,8.24-1.35-3.35-5-4.87-8.6-5A12,12,0,0,1,37.43,22.79ZM29.1,33.08a9.55,9.55,0,0,1,1.5-5.43c2.79-.2,5.76.2,7.57,2.56a6.29,6.29,0,0,1,.69,1.18c-3.38-1.38-7,.23-9.67,2.81A10.35,10.35,0,0,1,29.1,33.08ZM29.6,36c2.18-2.47,5.6-4.3,8.5-3.28-3.32,1.38-4.81,5-4.86,8.66A11.26,11.26,0,0,1,29.6,36Zm5.2,6.44c-.19-2.76.22-5.7,2.56-7.5a7,7,0,0,1,1.18-.69c-1.34,3.28.14,6.85,2.6,9.45-.32,0-.64.06-1,.07A10.3,10.3,0,0,1,34.8,42.46ZM41.33,58H39V45.25c.39,0,.78.07,1.16.08a9,9,0,0,0,1.16,0ZM43,43.37c-2.39-2.18-4.1-5.51-3.11-8.34,1.35,3.36,5,4.89,8.66,4.95A11.34,11.34,0,0,1,43,43.37Zm-.85-7.52a5.79,5.79,0,0,1-.69-1.18c3.38,1.38,7.06-.23,9.67-2.81.06.4.1.81.12,1.22a11.07,11.07,0,0,1-1.55,5.33C46.92,38.61,44,38.21,42.15,35.85Z"/></g></g></svg>