<svg xmlns="http://www.w3.org/2000/svg" viewBox="0 0 80.34 80.34"><defs><style>.cls-1{fill:#e8414e;}.cls-2{fill:#fff;}</style></defs><g id="Layer_2" data-name="Layer 2"><g id="_11" data-name="11"><path class="cls-1" d="M80.34,40.17A40.17,40.17,0,1,1,40.17,0,40.17,40.17,0,0,1,80.34,40.17Z"/><path class="cls-2" d="M40,38.62c0-3-1.75-3-4.2-3-1.64,0-5.14-.65-6.2,1-1.32,2.14-.56,6.23-.56,8.61V55.84c0,2.72.74,3.74,3.64,3.74,2.54,0,7.75,1.06,7.32-3ZM38.4,56.39v.18c.22,2.07-7.82,2.31-7.82,0V44.47a2.52,2.52,0,0,0,1.39.24c1-.12,2.2-2.4,2.63-1,.71,2.33,1.17,4.74,3.8,5.41Zm0-13.69v4.76a4,4,0,0,1-2-2.89c-.26-1-.26-2-1.08-2.75a1.73,1.73,0,0,0-1.81-.25c-1,.61-1.65,2.32-2.86.94l0,0v-.23c0-1.37-.61-5.38,1.7-5.09a44.2,44.2,0,0,0,5.52,0C38.82,37.17,38.4,42.09,38.4,42.7Z"/><path class="cls-2" d="M51.37,50c0-1.59.75-5.78-.88-6.85-1.34-.86-3.67-.38-5.2-.38-1.36,0-3.45-.35-4.32,1-1.24,2-.56,5.6-.56,7.84a53.42,53.42,0,0,0,0,6.07c.37,3.09,4.84,2.09,6.93,2.09s4.29-.27,4-3Zm-8,8.25c-1.88,0-1.4-2.32-1.4-3.45,0-.68-.15-2.51-.18-4.46a2.32,2.32,0,0,0,1.63.44,2.69,2.69,0,0,0,1.5-.71c.38-.34,1.1-1.4,1.31-.44.46,2.18,1.11,5.06,3.56,5.71v1.46C50,58.92,44.65,58.22,43.38,58.22ZM49.8,46.45v7.2c-2-.95-1.19-4.08-2.5-5.57a1.65,1.65,0,0,0-2.25-.33c-.54.32-.91,1-1.42,1.32s-1.38-.36-1.72-.79l-.07-.07c.13-2.21.58-4.07,1.84-3.91a27.18,27.18,0,0,0,3.61,0h2C50,44.3,49.8,46,49.8,46.45Z"/><path class="cls-2" d="M32.77,34.19A.77.77,0,0,0,34,34.1a.67.67,0,0,0,0-.9c-1-1.86-.4-3.5.85-4.89,1.44,1.33,1.37,3.07.56,4.82a.79.79,0,0,0,1.23.95c5.09-4.14,2.69-9.82-1.54-13.45a.79.79,0,0,0-1-.12c-2.34,1.71-4.3,4-4.75,6.94C29,30.21,30.82,32.51,32.77,34.19Zm-1.76-7c.31-2,1.91-3.78,3.49-5,2.55,2.37,4.32,5.45,3,8.34a5.11,5.11,0,0,0-2.33-4,.79.79,0,0,0-1,.13A6.67,6.67,0,0,0,32,31,5,5,0,0,1,31,27.23Z"/><path class="cls-2" d="M44.17,41a.78.78,0,0,0,1.22-.1.66.66,0,0,0,0-.89c-1-1.86-.4-3.5.85-4.89,1.44,1.32,1.37,3.07.56,4.82a.79.79,0,0,0,1.23,1C53.13,36.71,50.73,31,46.5,27.4a.79.79,0,0,0-1-.12c-2.34,1.71-4.3,4-4.75,6.94C40.38,37,42.22,39.28,44.17,41Zm-1.76-7c.31-2,1.91-3.78,3.5-5,2.54,2.37,4.3,5.45,3,8.33a5.08,5.08,0,0,0-2.33-3.95.77.77,0,0,0-.95.12,6.67,6.67,0,0,0-2.28,4.33A5.06,5.06,0,0,1,42.41,34Z"/></g></g></svg>