<svg xmlns="http://www.w3.org/2000/svg" viewBox="0 0 80.34 80.34"><defs><style>.cls-1{fill:#e8414e;}.cls-2{fill:#fff;}</style></defs><g id="Layer_2" data-name="Layer 2"><g id="_3" data-name="3"><path class="cls-1" d="M80.34,40.17A40.17,40.17,0,1,1,40.17,0,40.17,40.17,0,0,1,80.34,40.17Z"/><path class="cls-2" d="M48.82,22.25c-4.25-2-9.09-2.27-12.37,1.45-2.06,2.34-2.91,5.44-3.8,8.36-1.3,4.33-2.56,8.67-3.82,13-1,3.39-2.52,7.07-2.9,10.6-.39,3.69,4.2,5.15,6.53,2.52C33.84,56.63,34.24,54,34.83,52c.88-2.87,1.76-5.75,2.54-8.64S39.08,37.78,40,35c.42-1.32.85-2.64,1.24-4,.79-2.63,3-3.16,4.93-1.27a2.78,2.78,0,0,1,.43,2.79.63.63,0,0,0-.1.4C45.9,35,44.57,37.43,44.91,39c.28,1.29,1.84,2.13,3,2.37,4.31.93,5.52-3.85,6.19-7.25C55.14,29,53.69,24.52,48.82,22.25Zm3.31,4.87a6.7,6.7,0,0,1,.77,2.31l-4.74,2.24A3.58,3.58,0,0,0,47,28.46l4.5-2.23A7.62,7.62,0,0,1,52.13,27.12ZM36.7,26c1.88-3.13,4.59-3.95,8-3.37l-8.35,4ZM29.1,58l2.49-1.19A2.07,2.07,0,0,1,29.1,58Zm3.26-3.14a.84.84,0,0,0-.43.08L27.58,57l-.06,0-.06-.1c-.38-.94.25-2.36.55-3.36L33.53,51Zm2-6.67-.28.91h0L28.55,51.6l1.11-4,5.71-2.73C35,46,34.72,47.06,34.4,48.14ZM36,42.92l-5.74,2.75c.42-1.45.83-2.9,1.26-4.35h0l5.79-2.74Q36.62,40.75,36,42.92Zm1.93-6.34-5.83,2.76,1.25-4.19.21-.06,5.67-2.74C38.76,33.76,38.33,35.17,37.9,36.58Zm7.73-9.15a4.7,4.7,0,0,0-3.44-.12,4.23,4.23,0,0,0-2.4,3.05l-5.87,2.83.9-2.94c.15-.47.32-.94.5-1.4L47,23.18a10.57,10.57,0,0,1,3.42,1.88Zm5.61,10.68c-.68,1.45-1.19,2.16-2.9,1.79A2.46,2.46,0,0,1,47,39.23l4.78-2.35C51.61,37.31,51.43,37.73,51.24,38.11Zm1.21-3.26-.16.06L46.5,37.75a16.06,16.06,0,0,1,1.18-4.13v0L53,31.08A15.15,15.15,0,0,1,52.45,34.85Z"/></g></g></svg>