<svg xmlns="http://www.w3.org/2000/svg" viewBox="0 0 80.34 80.34"><defs><style>.cls-1{fill:#e8414e;}.cls-2{fill:#fff;}</style></defs><g id="Layer_2" data-name="Layer 2"><g id="_22" data-name="22"><circle class="cls-1" cx="40.17" cy="40.17" r="40.17" transform="translate(-0.73 79.59) rotate(-88.94)"/><path class="cls-2" d="M57.87,56.11c-.51-1.86-3.48-1.9-5.24-1.8A45.57,45.57,0,0,1,50.8,44.23c6.08-3.15,1.43-15.75-1-20.37A.66.66,0,0,0,49,23.5h-.09L40.8,25a.71.71,0,0,0-.34.2c-.09-1.22-.21-2.29-.33-3.13a.76.76,0,0,0-.54-.54L31.48,20h-.09a.67.67,0,0,0-.79.36c-2.71,5.13-7.12,16.6-1,20.1a46.34,46.34,0,0,1-1.85,10.35c-1.79-.11-4.26-.05-5.17,1.61-1.29,2.39,4.53,3.73,5.77,3.93,1.66.27,6.11,1.26,7.21-.62,1.2-2-2.11-3.53-3.93-4.13A36,36,0,0,1,34,41.48c3.35-.14,5.09-2.81,5.94-6.21.43,4.75,2.08,9.16,6.58,9.64,1.47,3,1.91,6.89,2.28,10.2-1.8.57-4.86,1.9-4,3.94s5.46,1,7.08.84S58.55,58.58,57.87,56.11ZM32.26,41.53A30.58,30.58,0,0,0,31,46.21c-.41,2-.72,4-.95,6a.76.76,0,0,0,.57.74c.74.2,5.06,2,2.46,2.25a20.74,20.74,0,0,1-4.16-.27,13.42,13.42,0,0,1-2.5-.61c-.3-.09-3.27-1.06-1.71-1.64a8.81,8.81,0,0,1,3.62-.24.78.78,0,0,0,.74-.57A44.57,44.57,0,0,0,31.1,41.12a10.47,10.47,0,0,0,1.22.26Zm5.21-4.41c-1.22,2.53-3.57,3.22-6.17,2.47-2.95-.85-3.4-4-3.22-6.64a30.17,30.17,0,0,1,3.61-11.31l5.53,1,1.4.26.07,0c0,.26.06.58.08.79C39.2,28.06,39.41,33.12,37.47,37.12Zm5.62,3.8c-2.25-3.78-1.87-9.23-1.5-13.45,0-.35.07-.7.11-1l1.06-.2,5.93-1.1A33,33,0,0,1,52.27,36c.31,2.61,0,5.47-2.54,6.84A4.84,4.84,0,0,1,43.09,40.92Zm9.07,17.36a21.37,21.37,0,0,1-4.3.39c-3.38,0,.78-2,1.93-2.26a.78.78,0,0,0,.57-.75c-.23-2-.56-4-1-6A34.42,34.42,0,0,0,48.13,45l0-.08a8.46,8.46,0,0,0,1.2-.17,44.73,44.73,0,0,0,2,10.57.79.79,0,0,0,.75.57,13.18,13.18,0,0,1,3.14.11C57.85,56.46,53,58.1,52.16,58.28Z"/></g></g></svg>