<svg xmlns="http://www.w3.org/2000/svg" viewBox="0 0 80.34 80.34"><defs><style>.cls-1{fill:#e8414e;}.cls-2{fill:#fff;}</style></defs><g id="Layer_2" data-name="Layer 2"><g id="_17" data-name="17"><path class="cls-1" d="M80.34,40.17A40.17,40.17,0,1,1,40.17,0,40.18,40.18,0,0,1,80.34,40.17Z"/><path class="cls-2" d="M55,31.84a.73.73,0,0,0-.22,0l-.19,0a8.58,8.58,0,0,0-3.47,1,11.93,11.93,0,0,0-8.25-10.74c-5.34-1.81-11.07,1-13.75,5.69C19.68,26.61,14,38.12,21.13,44.8c4,3.75,11.78,2.44,16.8,2.44H54.6c3.88,0,7.63-3,7.83-7A7.84,7.84,0,0,0,55,31.84Zm4,12.33c-1.61,1.61-3.78,1.6-5.86,1.6H28a8.5,8.5,0,0,1-8.75-8.35c-.2-5.34,5.06-9,10-8.18a.75.75,0,0,0,.83-.34,10.45,10.45,0,0,1,12.31-5.43c4.68,1.28,7.42,6,7.19,10.64a.74.74,0,0,0,1.11.63,7.21,7.21,0,0,1,4-1.46A6.31,6.31,0,0,1,58.93,44.17Z"/><path class="cls-2" d="M30.13,55.74l-2.5-1.44,2-1.45c.76-.55,0-1.82-.74-1.27s-1.4,1-2.09,1.51V50.61a.74.74,0,0,0-1.47,0V53l-2.42-1.39a.74.74,0,0,0-.74,1.27l2.75,1.59-2.27,1.62c-.76.55,0,1.82.74,1.27l1.94-1.39v2.19a.74.74,0,0,0,1.47,0V55.52L29.39,57A.74.74,0,0,0,30.13,55.74Z"/><path class="cls-2" d="M42.5,55.74,40,54.3l2-1.45c.76-.55,0-1.82-.74-1.27l-2.1,1.51V50.61a.73.73,0,0,0-1.46,0V53L35.3,51.58a.74.74,0,0,0-.74,1.27l2.74,1.59L35,56.06c-.76.55,0,1.82.74,1.27l1.94-1.39v2.19a.73.73,0,0,0,1.46,0V55.52L41.76,57A.74.74,0,0,0,42.5,55.74Z"/><path class="cls-2" d="M54.87,55.74l-2.5-1.44,2-1.45c.76-.55,0-1.82-.74-1.27l-2.1,1.51V50.61a.74.74,0,0,0-1.47,0V53l-2.41-1.39a.74.74,0,0,0-.74,1.27l2.74,1.59-2.26,1.62c-.76.55,0,1.82.74,1.27l1.93-1.39v2.19a.74.74,0,0,0,1.47,0V55.52L54.13,57A.74.74,0,0,0,54.87,55.74Z"/></g></g></svg>