<svg xmlns="http://www.w3.org/2000/svg" viewBox="0 0 80.34 80.34"><defs><style>.cls-1{fill:#e8414e;}.cls-2{fill:#fff;}</style></defs><g id="Layer_2" data-name="Layer 2"><g id="_10" data-name="10"><path class="cls-1" d="M80.34,40.17A40.17,40.17,0,1,1,40.17,0,40.18,40.18,0,0,1,80.34,40.17Z"/><path class="cls-2" d="M55.54,37.8c4.31-.85,4.19-6.27.85-8.29-2.21-1.33-6.12-.26-8.89.62.82-2.75.69-5.55-1.72-7.62a10.3,10.3,0,0,0-5.27-2.18.69.69,0,0,0-.36,0,.72.72,0,0,0-.33.05,10.59,10.59,0,0,0-5,2c-2.62,2.08-2.79,5-1.9,7.85-2.72-.83-5.83-1.57-8.51-.91-3.78.95-3.81,6.43-.78,8.11,1.72,1,4.07.61,5.95.88,3.77.55,1.79,4.5.61,6.52s-2.67,3.94-4.05,5.87c-.81,1.13-2.22,2.7-2.27,4.19-.15,4.45,4.51,6.57,8,4.18s5.88-6.52,7.93-10c.54-.91,1.53,1.46,1.78,1.86A46.86,46.86,0,0,0,46.12,57c2.83,3.16,7.46,4.9,9.84.26,1.07-2.09,0-4.3-1.42-6.28l-.47-.64c-.83-1.09-1.71-2.1-2.32-3-1.35-1.93-3.1-4.24-3.3-6.66C48.19,37.45,53.5,38.2,55.54,37.8Zm-27-5.21.82,1.17-1,.35a.78.78,0,0,0-.46,1.14c.31.52.62,1,.92,1.56-2.4-.16-5,0-5.74-2.35-.48-1.45.87-3.42,2.24-3.76a10.65,10.65,0,0,1,4.2.29l.13,0-.79.51A.78.78,0,0,0,28.51,32.59Zm28.8.71c.8,2.72-2.16,3.12-4.52,3.28l.74-1.25a.77.77,0,0,0-.46-1.13l-1-.35.81-1.18a.77.77,0,0,0-.27-1.05l-1.33-.86C53.9,30.29,56.5,30.53,57.31,33.3ZM26,56.92c-1.22-1.84.22-3.71,1.39-5.24h.2l1.8-.18V53a.78.78,0,0,0,.78.77l1.76-.16c-.09.41-.18.83-.28,1.24s.22,1,.75,1l.9-.1C31.23,57.92,28.15,60.22,26,56.92ZM52,53.05V51.59l1,.1a7.17,7.17,0,0,1,1.85,3.64,3.44,3.44,0,0,1-4.08,3.22c-1.46-.28-2.76-1.75-3.76-2.88l2,.22c.53.06.84-.54.75-1s-.19-.83-.28-1.25l1.76.17A.78.78,0,0,0,52,53.05Zm-.24-3L51.23,50a.78.78,0,0,0-.77.78v1.47l-2-.19a.78.78,0,0,0-.75,1L48,54.23l-1.33-.15a.6.6,0,0,0-.66.36,49.45,49.45,0,0,1-3.55-5.1c-.5-.81-.92-2-1.93-2.23s-1.82.79-2.3,1.6A52.41,52.41,0,0,1,34.64,54l-1.3.15.27-1.23a.78.78,0,0,0-.75-1l-2,.18V50.65a.77.77,0,0,0-.77-.77L28.57,50c2.12-2.76,5.33-6.56,4.82-9.94a3.35,3.35,0,0,0-2.76-3,.94.94,0,0,0-.1-.28l-.89-1.5,1.11-.37a.79.79,0,0,0,.46-1.14l-.95-1.37,1.26-.81a.53.53,0,0,0,.14-.11c.8.2,1.59.43,2.37.68s1.13-.57.88-1.14c-1.32-2.94-1.45-6,1.48-7.86a10.6,10.6,0,0,1,3.76-1.34h0a10.42,10.42,0,0,1,3.46,1.09c3.25,1.67,3.24,5,2,8-.25.57.15,1.36.87,1.13s1.91-.62,3-.92a.77.77,0,0,0,.35.53l1.26.81c-.32.46-.64.91-1,1.37A.78.78,0,0,0,50.6,35l1.11.37-.79,1.34-.11,0c-1.83.26-3.19,1-3.78,2.79C45.94,42.94,49.72,47.32,51.77,50Z"/><path class="cls-2" d="M38.19,27.18a1.08,1.08,0,1,0-1.08-1.08A1.07,1.07,0,0,0,38.19,27.18Z"/><path class="cls-2" d="M42.39,27.18a1.08,1.08,0,1,0-1.07-1.08A1.08,1.08,0,0,0,42.39,27.18Z"/><path class="cls-2" d="M43.3,28.56C42.07,29.88,40.51,31,38.72,30a4.15,4.15,0,0,1-1.41-1.32c-.54-.84-1.88-.06-1.34.78a5.69,5.69,0,0,0,2.61,2.17c2.26.87,4.29-.39,5.82-2C45.08,28.93,44,27.83,43.3,28.56Z"/><path class="cls-2" d="M40.5,34.6a2.06,2.06,0,0,0,0,4.12,2,2,0,0,0,2-1.75.75.75,0,0,0,0-.31.71.71,0,0,0,0-.3A2.1,2.1,0,0,0,40.5,34.6ZM40,36.66c0-.67,1-.66,1,0A.52.52,0,0,1,40,36.66Z"/><path class="cls-2" d="M40.5,40.18a2.06,2.06,0,0,0,0,4.12,2,2,0,0,0,2-1.75.75.75,0,0,0,0-.31.68.68,0,0,0,0-.3A2.1,2.1,0,0,0,40.5,40.18ZM40,42.24c0-.67,1-.66,1,0A.52.52,0,0,1,40,42.24Z"/></g></g></svg>