<svg xmlns="http://www.w3.org/2000/svg" viewBox="0 0 80.34 80.34"><defs><style>.cls-1{fill:#e8414e;}.cls-2{fill:#fff;}</style></defs><g id="Layer_2" data-name="Layer 2"><g id="_18" data-name="18"><path class="cls-1" d="M80.34,40.17A40.17,40.17,0,1,1,40.17,0,40.18,40.18,0,0,1,80.34,40.17Z"/><path class="cls-2" d="M62,24.2a3.38,3.38,0,0,1-2.19.79,7.94,7.94,0,0,0,.66-3.1c0-1-1.51-1-1.55,0-.15,4.62-3.66,5-7.14,5.81a7.75,7.75,0,0,0,1.18-5.48c-.2-1-1.69-.56-1.49.41.42,2-.77,4.22-2,5.72l-.64.26c-.42.18-.82.39-1.22.6A4.4,4.4,0,0,1,46,25.1c.09-1-1.45-1-1.55,0a6,6,0,0,0,1.71,5,17.7,17.7,0,0,0-3.39,3,9.55,9.55,0,0,0-2.6-.43,8.25,8.25,0,0,0-2.68.34,18.1,18.1,0,0,0-3.31-2.87,6.06,6.06,0,0,0,1.71-5c-.1-1-1.64-1-1.55,0a4.4,4.4,0,0,1-1.54,4.11c-.4-.21-.8-.42-1.22-.6l-.64-.26c-1.25-1.5-2.44-3.7-2-5.72.2-1-1.29-1.39-1.49-.41a7.75,7.75,0,0,0,1.18,5.48c-3.49-.79-7-1.19-7.15-5.81,0-1-1.58-1-1.54,0a7.94,7.94,0,0,0,.66,3.1,3.38,3.38,0,0,1-2.19-.79c-.74-.67-1.84.42-1.09,1.09a5,5,0,0,0,4.25,1.16,9.33,9.33,0,0,0,4.88,2.35,4,4,0,0,1-4.28.26c-.87-.49-1.65.85-.78,1.33a5.75,5.75,0,0,0,6.93-1.13A16.7,16.7,0,0,1,36,33.56,9.14,9.14,0,0,0,34,35L30.38,33.1c-1.47-.76-2.13-1.11-3.53.06-2,1.66-1.05,4.9.83,6.18a9.7,9.7,0,0,0,2.71,1.25A44.72,44.72,0,0,0,28.08,48c-3.39,14.67,27.62,15.48,23.81-.91a53.11,53.11,0,0,0-2.08-6.46,11.25,11.25,0,0,0,2.57-1.1,4.17,4.17,0,0,0,1.29-6.18C52.55,32,51.52,32.3,50.2,33L46.2,35a9.53,9.53,0,0,0-1.93-1.38A16.75,16.75,0,0,1,52,29.26,5.77,5.77,0,0,0,59,30.39c.87-.48.09-1.82-.78-1.33a4,4,0,0,1-4.28-.26,9.25,9.25,0,0,0,4.88-2.35A5,5,0,0,0,63,25.29C63.79,24.62,62.69,23.53,62,24.2ZM29.66,38.69c-1.81-.77-3.66-3.7-1.14-4.81l.41.21,2.36,1.21,1.67.86a17,17,0,0,0-1.91,3A10.32,10.32,0,0,1,29.66,38.69Zm19.09-3.23,2.46-1.26.61-.32A2.05,2.05,0,0,1,53,35.6c.13,1.43-.9,2.34-2,2.94a9,9,0,0,1-1.82.68,16.12,16.12,0,0,0-1.89-3Zm1.65,12c1.63,7-4.83,10.33-10.9,10.21a12.31,12.31,0,0,1-8.19-3.14c-2.68-2.55-1.83-6.06-.92-9.17,1.52-5.22,4-11.45,10.41-11.25S49.09,42.68,50.4,47.5Z"/><path class="cls-2" d="M38.19,43.68a1.84,1.84,0,1,0-1.84,1.84A1.84,1.84,0,0,0,38.19,43.68Z"/><path class="cls-2" d="M44,45.52a1.84,1.84,0,1,0-1.84-1.84A1.84,1.84,0,0,0,44,45.52Z"/><path class="cls-2" d="M40.17,50.81c-1.42,0-2.58.4-2.58,1.66s1.16,1.65,2.58,1.65,2.58-.39,2.58-1.65S41.59,50.81,40.17,50.81Z"/></g></g></svg>