<svg xmlns="http://www.w3.org/2000/svg" viewBox="0 0 80.34 80.34"><defs><style>.cls-1{fill:#e8414e;}.cls-2{fill:#fff;}</style></defs><g id="Layer_2" data-name="Layer 2"><g id="_13" data-name="13"><path class="cls-1" d="M80.34,40.17A40.17,40.17,0,1,1,40.17,0,40.17,40.17,0,0,1,80.34,40.17Z"/><path class="cls-2" d="M43.91,31.74l3-.8a.82.82,0,0,0,.19-1.48l-10.4-6a.74.74,0,0,0-.55-.09.73.73,0,0,0-.56.38l-6,10.41a.81.81,0,0,0,.91,1.18l2.63-.71c1.81,7.51,4,15,6.28,22.37a.83.83,0,0,0,1,.56l.47-.13,1.38,5.11a.81.81,0,0,0,1.56-.43Q43.1,59.59,42.4,57l6.87-1.86a.82.82,0,0,0,.56-1C47.91,46.69,45.87,39.22,43.91,31.74Zm-12,1.57q2.29-4,4.6-8l8,4.6Zm2.78.91,1.39-.37c-.38.42-.76.85-1.15,1.27ZM35.47,37,39,33.07l3.36-.91c.13.5.25,1,.38,1.5l-6.36,6.61C36.06,39.17,35.76,38.07,35.47,37Zm1.39,5.12,6.33-6.58c.27,1.1.56,2.19.85,3.29l-6.3,6.51C37.45,44.23,37.15,43.16,36.86,42.09Zm2.31,8.4c-.31-1.12-.63-2.25-.94-3.38l6.29-6.49L45.43,44Q42.31,47.24,39.17,50.49Zm1.38,4.79c-.3-1-.59-2-.87-3l6.24-6.48.87,3.2Zm2.31,0,4.41-4.43c.27,1,.54,2,.8,3Z"/><path class="cls-2" d="M24.46,29.36l-5.55.53c-1,.1-1,1.72,0,1.62L24.46,31C25.49,30.87,25.5,29.26,24.46,29.36Z"/><path class="cls-2" d="M25.73,36.46l-3.49,4.36c-.65.8.49,2,1.14,1.14,1.16-1.45,2.33-2.9,3.49-4.36C27.52,36.8,26.38,35.65,25.73,36.46Z"/><path class="cls-2" d="M54.6,36.88l-4.81-2.83A.8.8,0,0,0,49,35.44l4.81,2.84A.81.81,0,0,0,54.6,36.88Z"/><path class="cls-2" d="M48.58,27.76,54,26.41a.8.8,0,0,0-.43-1.55L48.15,26.2C47.14,26.45,47.57,28,48.58,27.76Z"/></g></g></svg>