<svg xmlns="http://www.w3.org/2000/svg" viewBox="0 0 80.34 80.34"><defs><style>.cls-1{fill:#e8414e;}.cls-2{fill:#fff;}</style></defs><g id="Layer_2" data-name="Layer 2"><g id="_7" data-name="7"><path class="cls-1" d="M80.34,40.17A40.17,40.17,0,1,1,40.17,0,40.18,40.18,0,0,1,80.34,40.17Z"/><path class="cls-2" d="M58.48,35.48c0-3.31-.79-5.71-4.5-5.71H50.79c1.9-1,2.74-2.67,1-5.46-1.32-2.14-4.21-1.93-6.16-1-1.5.72-2.24,2.31-3.27,3.52a15,15,0,0,1-2.16,2.05A21.18,21.18,0,0,1,38,26.84c-1.17-1.26-1.75-2.61-3.26-3.52-1.85-1.12-4.93-1-6.16,1-1.72,2.79-.87,4.47,1,5.46H29a.66.66,0,0,0-.46,0H26.2c-3.95,0-4.78,3.75-4.15,7.09a2.89,2.89,0,0,0,2.69,2.47v6.44c0,2.81-.36,5.9.09,8.69.5,3.06,3,3.26,5.63,3.26H46a.5.5,0,0,0,.21,0h4.17c3.52,0,5.23-1.1,5.32-4.76,0-4.52.28-9.15.15-13.7C57.53,38.89,58.42,37.88,58.48,35.48Zm-15-7.55c1.67-1.78,2.66-4.2,5.58-3.71a2.73,2.73,0,0,1,2,3.07c-.18,1.27-1.87,1.69-2.89,1.95a21.82,21.82,0,0,1-6.47.4A20.42,20.42,0,0,0,43.48,27.93ZM26.31,45.65l6.57-6.2h5.21l-11.8,11.2v-5S26.3,45.66,26.31,45.65Zm0-2.1v-4.1h4.34ZM37.76,37.9l6.86-6.59h6.14L43.91,37.8l-.09.1H37.76Zm3-6.59h1.66l-6.83,6.56,0,0H29.36l7-6.59Zm-11.15-3.5c-1-1.38.51-3.21,1.8-3.59,2.67-.8,4.18,2.07,5.57,3.71a15.35,15.35,0,0,0,1.72,1.7,27,27,0,0,1-6.41-.39A4.23,4.23,0,0,1,29.58,27.81Zm-3,3.5h.19l-3.25,3.07C23.6,32.35,24.39,31.31,26.58,31.31Zm-1.95,6.48a1.34,1.34,0,0,1-1.09-1.3L29,31.31h5.1l-7,6.56,0,0h-.27A14.88,14.88,0,0,1,24.63,37.79ZM29.11,56a1.77,1.77,0,0,0-.14.17c-1.27-.19-2.3-.63-2.56-1.58a7,7,0,0,1-.17-1.76l14.1-13.37h6Zm25-3c-.06,2.65-1.11,3.22-3.61,3.22H48l6.14-5.87Zm0-9.24v4.45l-8.37,8H39.44L54.15,42.12Zm0-3.74L37.25,56.14s0,0,0,0h-2.6c-.8,0-2.18.13-3.59.12L48.56,39.45h5.59ZM52.41,37.9H46.05l7-6.59h1.08a2.41,2.41,0,0,1,2.76,2.37Zm2.26,0,2.25-2.14C56.8,37.45,56,37.81,54.67,37.88Z"/></g></g></svg>