<svg xmlns="http://www.w3.org/2000/svg" viewBox="0 0 80.34 80.34"><defs><style>.cls-1{fill:#e8414e;}.cls-2{fill:#fff;}</style></defs><g id="Layer_2" data-name="Layer 2"><g id="_2" data-name="2"><path class="cls-1" d="M80.34,40.17A40.17,40.17,0,1,1,40.17,0,40.17,40.17,0,0,1,80.34,40.17Z"/><path class="cls-2" d="M53.28,37.16c.86-5.11,1.55-11.58-3.3-14.83S40.2,21,36.55,24.75a10.9,10.9,0,0,0-2.43-2.24c-3.81-2.54-9.21-1.19-12,2.12-2.91,3.46-2.94,8.48-2.46,12.71a33,33,0,0,0,4.46,13.77,5.69,5.69,0,0,0-.55,5.25c.87,2.49,3.76,3,6.05,3.26a22.22,22.22,0,0,0,8.64-.95c3,.84,6.72,1.22,9.35,0,3.22-1.52,3.67-4.83,2.14-7.71.64-.61,2.27-2.26,2.53-2.55A15.74,15.74,0,0,1,56.6,45.3c1.89-1,4.14-2.65,4.29-5C61.17,35.47,56.52,35.9,53.28,37.16ZM21.61,39.78c-.85-4.16-1.17-8.92.81-12.82a7.9,7.9,0,0,1,10.92-3.11c4.26,2.39,4.75,8.18,5.5,12.42a.78.78,0,0,0,1.29.35c1.38-1.52,6.13-5.68,6.73-.86.31,2.5-2.46,4.57-3.82,6.35-1.51,2-2.17,4.43-3.23,6.66a3,3,0,0,0-.53.23c-4.23,2.35-9.23,3.18-13.78,1.41A31.1,31.1,0,0,1,21.61,39.78ZM32.37,58.19a17.08,17.08,0,0,1-5.27-.64c-1.8-.46-2.28-1.8-2.37-3.35,0-.35.09-2.32,1-2a16.37,16.37,0,0,0,7.65.5,19,19,0,0,0,4.83-1.48c2-.82,3.1-1.48,3.76,1.15C42.2,56.87,35.8,58,32.37,58.19Zm8.42-.71a5.52,5.52,0,0,0,2.74-5.23h0a20.63,20.63,0,0,0,5-.25C51.19,57.25,45.35,58,40.79,57.48ZM59.23,40.66c-.56,2.58-4.32,3.68-6.23,5.06-1.5,1.08-3.64,2.82-4.53,4.71a19.7,19.7,0,0,1-5.44.25,3.65,3.65,0,0,0-1.56-1.84c.58-1.33,1.07-2.72,1.7-4,1.38-2.85,5.08-5,5.21-8.42.08-2.13-.77-3.74-2.88-4.33s-4,.91-5.43,2.36A24.27,24.27,0,0,0,37.45,26c3-3.25,6.9-5.19,11.28-2.7,5.13,2.94,3.61,10.27,2.8,14.92a.78.78,0,0,0,1.13.87C54.6,38.1,60.25,36,59.23,40.66Z"/></g></g></svg>