<svg xmlns="http://www.w3.org/2000/svg" viewBox="0 0 80.34 80.34"><defs><style>.cls-1{fill:#e8414e;}.cls-2{fill:#fff;}</style></defs><g id="Layer_2" data-name="Layer 2"><g id="_20" data-name="20"><path class="cls-1" d="M80.34,40.17A40.17,40.17,0,1,1,40.17,0,40.18,40.18,0,0,1,80.34,40.17Z"/><path class="cls-2" d="M56.65,51.58c-.36-2.14-2.12-2.94-4-3.23a.64.64,0,0,0-.2-.3c-3.95-3.54-4.8-9.4-4.49-14.58,3.14-.16,5.38-3,5.63-6a.78.78,0,0,0,0-.22.66.66,0,0,0,0-.21c-.6-7.51-11.16-7.73-12.33-.64-.75.27-1.47.62-1.88.79-8.07,3.5-12,12.7-11.75,21.17a6.48,6.48,0,0,0-1.63.53c-3.16,1.55-3,6.38-.65,8.61,2.6,2.44,8.39,1.39,11.56,1.39,4.87,0,10.07.53,14.9-.12C55.61,58.24,57.29,55.35,56.65,51.58Zm-9.3-29.11c2.7-.15,4.64,2.28,4.77,4.77-.33,6.15-9.21,6.15-9.55,0C42.43,24.54,44.86,22.6,47.35,22.47ZM41,28.11l.16-.07a6.3,6.3,0,0,0,5.35,5.32s0,.1,0,.15c-.26,5.05.51,10.82,4,14.68-.59,0-1.14,0-1.64,0H33.69c-1.42,0-3.07-.14-4.65,0C28.91,39.89,32.82,31,41,28.11ZM55.15,54.73c-.83,3.8-7.4,2.7-10.13,2.7H33.9c-3.83,0-8.65.68-8.84-4.47-.13-3.6,4.1-3.31,6.61-3.31H48.86C52.5,49.61,56.19,49.89,55.15,54.73Z"/></g></g></svg>