<svg xmlns="http://www.w3.org/2000/svg" viewBox="0 0 80.34 80.34"><defs><style>.cls-1{fill:#e8414e;}.cls-2{fill:#fff;}</style></defs><g id="Layer_2" data-name="Layer 2"><g id="_16" data-name="16"><circle class="cls-1" cx="40.17" cy="40.17" r="40.17" transform="translate(-0.9 79.42) rotate(-88.7)"/><path class="cls-2" d="M31.5,32.88c-.66-3.63-1.07-6-1.23-7.16a14,14,0,0,0-.39-2.15,1.27,1.27,0,0,0-1.52-.86l-.26,0,1.31,8.87L27.49,32c0-.11,0-.24-.07-.36l-.11-1-.87-5.11a17.85,17.85,0,0,1-.17-1.86v-.1l-.07-.07a1.11,1.11,0,0,0-.52-.29A1.41,1.41,0,0,0,25,23.2a.64.64,0,0,0-.58.8c.75,5.49,1.55,10.21,2.36,14s1.35,4.35,1.81,4.35h.07a.73.73,0,0,0,.55-.4,1,1,0,0,0,.11-.62c-.13-1-.4-2.4-.79-4.25s-.63-3.07-.76-4a3,3,0,0,1,.78-.23,6.64,6.64,0,0,1,1,0c.5,2.61,1,5.49,1.39,8.56.12.85.61,1,.89,1H32a.89.89,0,0,0,.68-.5,1.39,1.39,0,0,0,.15-.8C32.62,39.27,32.16,36.51,31.5,32.88Z"/><path class="cls-2" d="M36.4,41.57a2.22,2.22,0,0,0,1.18.35l.3,0A2,2,0,0,0,39.23,41a3.87,3.87,0,0,0,.71-1.54A4.57,4.57,0,0,0,40,37.81a6.58,6.58,0,0,1,0-1.46v0L39.74,33l-.2-1.44c-.09-.62-.22-1.48-.41-2.61a18.86,18.86,0,0,0-.4-1.93c-.13-.43-.3-1-.5-1.69a6.53,6.53,0,0,0-.72-1.67,13.64,13.64,0,0,0-.85-1.16,2.54,2.54,0,0,0-1.19-.87A3.23,3.23,0,0,0,34,21.5a2.1,2.1,0,0,0-1.49,1,4,4,0,0,0-.41.95,8.33,8.33,0,0,0-.2,1.09,11.55,11.55,0,0,0,0,1.23c0,.45,0,.88.06,1.27s.08.82.14,1.31l.17,1.24c.05.34.11.72.18,1.15s.14.93.22,1.53.24,1.45.49,2.52c.16.71.34,1.38.53,2a17.56,17.56,0,0,0,.71,1.94,10.4,10.4,0,0,0,.91,1.68A4,4,0,0,0,36.4,41.57ZM34.81,34.4a26.51,26.51,0,0,1-.75-3.54v-.1L33.84,29c-.05-.46-.08-.87-.11-1.24s0-.82-.06-1.29a8.07,8.07,0,0,1,0-1.23,7.81,7.81,0,0,1,.15-1,2,2,0,0,1,.26-.69.53.53,0,0,1,.39-.23h.07a1,1,0,0,1,.53.2,2.51,2.51,0,0,1,.69.82,11.9,11.9,0,0,1,.61,1.29,11,11,0,0,1,.52,1.59c.17.62.31,1.18.43,1.69s.23,1.05.33,1.62.17,1,.22,1.34.11.8.2,1.47.16,1.84.23,3.5a10.92,10.92,0,0,1-.16,2.35c-.07.3-.22.81-.5.85s-.59-.16-.91-.61a7.9,7.9,0,0,1-1-1.93C35.47,36.69,35.15,35.65,34.81,34.4Z"/><path class="cls-2" d="M49.83,25.42a1.14,1.14,0,0,0-1-1.19l-.25-.06-1.69,7.39-1.57-.25a2.56,2.56,0,0,1,0-.27l.21-.79L46.49,26c.13-.53.28-1,.44-1.51l0-.1,0-.09a1.08,1.08,0,0,0-.33-.4,1.3,1.3,0,0,0-.49-.26l-.19,0a.58.58,0,0,0-.57.5c-1.09,4.56-1.92,8.53-2.45,11.79s-.31,3.94.17,4.05a.66.66,0,0,0,.6-.15,1,1,0,0,0,.29-.48c.19-.8.42-2,.68-3.6s.44-2.57.62-3.34a2.43,2.43,0,0,1,.64.06,6,6,0,0,1,.79.26c-.41,2.2-.92,4.6-1.53,7.14a1.12,1.12,0,0,0,0,.71.73.73,0,0,0,.53.42l.18,0a.8.8,0,0,0,.54-.21,1.2,1.2,0,0,0,.38-.61c.36-1.51.84-3.82,1.44-6.89s1-5.07,1.23-6A13.14,13.14,0,0,0,49.83,25.42Z"/><path class="cls-2" d="M55.81,27.82a11.47,11.47,0,0,0-.31-1.18,2.38,2.38,0,0,0-.68-1.07A2.76,2.76,0,0,0,53.64,25a1.78,1.78,0,0,0-1.52.35,3.09,3.09,0,0,0-.62.63,5.9,5.9,0,0,0-.49.8,7.47,7.47,0,0,0-.41,1c-.14.36-.25.7-.35,1s-.19.67-.29,1.08l-.46,2c-.08.35-.18.78-.3,1.27s-.25,1.22-.39,2.14c-.09.6-.15,1.19-.2,1.74a16.84,16.84,0,0,0,0,1.75,9.18,9.18,0,0,0,.2,1.62,3.4,3.4,0,0,0,.58,1.26,1.84,1.84,0,0,0,1.09.73,1.49,1.49,0,0,0,.36,0,1.91,1.91,0,0,0,1-.31,3.38,3.38,0,0,0,1.05-1,3.91,3.91,0,0,0,.58-1.32,5.66,5.66,0,0,1,.41-1.16l.85-2.72.29-1.2c.13-.52.29-1.25.48-2.18a15.72,15.72,0,0,0,.28-1.65l.12-1.48A5.37,5.37,0,0,0,55.81,27.82Zm-1.63,2.61c-.06.54-.12,1-.18,1.46s-.14.89-.24,1.38-.18.86-.24,1.12-.16.66-.29,1.22-.44,1.49-.9,2.82a8.12,8.12,0,0,1-.84,1.79c-.21.33-.42.51-.61.51s-.39-.3-.5-.74a6.57,6.57,0,0,1-.19-1.81c0-.71.07-1.62.19-2.71a22.48,22.48,0,0,1,.5-3l.4-1.55c.1-.37.2-.71.29-1s.22-.65.35-1a8,8,0,0,1,.4-.95c.14-.27.28-.53.43-.76a1.65,1.65,0,0,1,.4-.45.51.51,0,0,1,.23-.07l.12,0a.67.67,0,0,1,.39.32,2,2,0,0,1,.28.84,11.26,11.26,0,0,1,.09,1.2A10.33,10.33,0,0,1,54.18,30.43Z"/><path class="cls-2" d="M40.06,45.6a11.33,11.33,0,0,0-.18-1.73,1.08,1.08,0,0,0-1.2-.82l-.26,0,.49,7.06-1.44.2a1.79,1.79,0,0,1,0-.23l0-.77-.37-4.07a14.64,14.64,0,0,1,0-1.47v-.1L37,43.61a1,1,0,0,0-.42-.27,1.13,1.13,0,0,0-.46-.1H36a.56.56,0,0,0-.56.65c.25,4.37.59,8.14,1,11.2.44,3.31.87,3.59,1.26,3.59h0a.63.63,0,0,0,.51-.3.9.9,0,0,0,.13-.52c0-.77-.17-1.91-.36-3.4s-.3-2.41-.35-3.14a2,2,0,0,1,.57-.11,4.87,4.87,0,0,1,.76,0c.23,2.07.42,4.35.56,6.78,0,.79.55.88.76.88h.06a.76.76,0,0,0,.6-.38,1.09,1.09,0,0,0,.18-.65c-.09-1.45-.28-3.65-.58-6.55S40.11,46.49,40.06,45.6Zm.26,13h0Z"/><path class="cls-2" d="M47,50.75c0-.5-.09-1.19-.17-2.08a12,12,0,0,0-.2-1.55c-.07-.34-.17-.8-.29-1.36a5.15,5.15,0,0,0-.46-1.38c-.17-.31-.38-.64-.6-1a2.21,2.21,0,0,0-.91-.77,2.57,2.57,0,0,0-1.21-.19,1.68,1.68,0,0,0-1.27.73,3,3,0,0,0-.39.74,6.28,6.28,0,0,0-.23.85c-.05.28-.08.61-.11,1s0,.7,0,1,0,.65,0,1l.13,1.91c0,.33.05.74.08,1.21s.1,1.16.23,2c.09.56.19,1.1.3,1.61a14.3,14.3,0,0,0,.44,1.57A7.58,7.58,0,0,0,43,57.51a3.08,3.08,0,0,0,.86,1,1.79,1.79,0,0,0,1.07.36H45a1.69,1.69,0,0,0,1.15-.61,3.13,3.13,0,0,0,.67-1.19A3.86,3.86,0,0,0,47,55.71a4.73,4.73,0,0,1,0-1.14v-.13l0-2.54Zm-1.39,4.07a7.46,7.46,0,0,1-.27,1.83c-.11.37-.25.59-.41.6s-.47-.28-.61-.51a6.39,6.39,0,0,1-.66-1.57c-.18-.63-.37-1.47-.57-2.47a22,22,0,0,1-.36-2.82l-.06-1.49c0-.36,0-.69,0-1s0-.65,0-1a6.54,6.54,0,0,1,.09-1c0-.28.11-.54.18-.79a1.55,1.55,0,0,1,.24-.5.37.37,0,0,1,.29-.14l0-.26V44a.67.67,0,0,1,.4.18,1.77,1.77,0,0,1,.47.67,9,9,0,0,1,.4,1,10.12,10.12,0,0,1,.32,1.29c.09.49.16.94.23,1.34s.11.84.16,1.3l.09,1.07c0,.24,0,.63.07,1.16S45.66,53.51,45.61,54.82Z"/></g></g></svg>