<svg xmlns="http://www.w3.org/2000/svg" viewBox="0 0 80.34 80.34"><defs><style>.cls-1{fill:#e8414e;}.cls-2{fill:#fff;}</style></defs><g id="Layer_2" data-name="Layer 2"><g id="_9" data-name="9"><circle class="cls-1" cx="40.17" cy="40.17" r="40.17"/><path class="cls-2" d="M62.43,38.4a14.14,14.14,0,0,1-7.26.63,21.22,21.22,0,0,1-3.65-1.16c-.68-.26-2.2-1.47-3.08-1-.71.34-.6.7-.92,1.45a6.84,6.84,0,0,1-3,3.27,7.88,7.88,0,0,1-4.61.66A4,4,0,0,0,37.86,40c.26-1.49.88-3.29.23-4.52a.77.77,0,0,0-.87-.36c-1.48.36-2.95.85-4.18-.38-1.58-1.59-1.84-5.3-1.84-7.34a.79.79,0,0,0-.78-.77c-.6,0-.78.26-1.33.66a6.05,6.05,0,0,1-5.46.84,15.65,15.65,0,0,1-3.81-1.86c-.67-.4-1.27-1.11-2.09-1.11a.78.78,0,0,0-.77.77,8.45,8.45,0,0,0,1.1,3q1,2.41,1.78,4.91a16.29,16.29,0,0,1,.79,3.57c.11,1.29-.9,2-.9,3.09a.78.78,0,0,0,.77.77c4.7.32,7.33,4.62,6.43,9.15a.78.78,0,0,0,.74,1H28a.79.79,0,0,0,.75-.57c.09-.27.9-.53,1.83-.76,0,.21-.06.42-.07.63A4.55,4.55,0,0,0,35,55.2c2.29.13,3.93-1.79,4.33-3.85a4.67,4.67,0,0,0,2.32.79,3.55,3.55,0,0,0,1-.09c1,.46,2.18.33,3.21.78S48.29,55,49.56,55a.78.78,0,0,0,.77-.77c0-3.5,3-4.48,6.05-4.56,1.08,0,3.27-.2,3.84.08a.79.79,0,0,0,.94-.12l.18-.18a.76.76,0,0,0,.2-.75c-1.12-3.48-.81-6.15,1.64-9C63.65,39.15,63.22,38.14,62.43,38.4ZM40.25,43.78h.09l-.1,0A.06.06,0,0,0,40.25,43.78Zm-9,4.5a11.65,11.65,0,0,0-2.63.79c.2-4.5-2.47-8.41-6.95-9.26l.19-.3a5.21,5.21,0,0,0,.34-1.83,9.64,9.64,0,0,0-.4-2.67,37.14,37.14,0,0,0-1.35-4.27c-.37-1-1.24-2.38-1.68-3.61.84.53,1.87,1.36,2.38,1.62a12.67,12.67,0,0,0,3.24,1.11,7.5,7.5,0,0,0,3-.11,9.87,9.87,0,0,0,2.27-1.31A13.08,13.08,0,0,0,32,35.8c1.23,1.55,3.16,1.35,4.87,1,0,.71-.39,1.8-.46,2.31,0,.15,0,.32-.06.49h0a3.66,3.66,0,0,0-3.41,2.1,96.08,96.08,0,0,0-6.65-7.31.77.77,0,0,0-1.09,1.09,97.15,97.15,0,0,1,7.19,8,2.28,2.28,0,0,0,0,.26,3.63,3.63,0,0,0,1,2.67A4.47,4.47,0,0,0,31.24,48.28Zm.85,2.35c-.2-3.89,5.57-3.87,5.77,0A2.89,2.89,0,1,1,32.09,50.63Zm1.73-6.93c-.17-3.3,4.71-3.28,4.88,0A2.44,2.44,0,1,1,33.82,43.7Zm5.23,4.18c-.18-3.49,5-3.47,5.17,0A2.59,2.59,0,1,1,39.05,47.88Zm20.3-4a21.85,21.85,0,0,0,.54,4.13,20.3,20.3,0,0,0-5.88.26,5.79,5.79,0,0,0-5.14,4.82c-.75-.49-1.79-1.4-2.26-1.65a5.25,5.25,0,0,0-2.09-.6,4.91,4.91,0,0,0,1.22-2.79,1.5,1.5,0,0,0,0-.22.75.75,0,0,0,0-.22,4.29,4.29,0,0,0-.14-.81,53.3,53.3,0,0,1,8-2.34c1-.21.56-1.7-.41-1.49A53.62,53.62,0,0,0,45,45.44a4.15,4.15,0,0,0-2.6-1.73,8.34,8.34,0,0,0,6.18-4.05c1-1.59.09-1.34,1.75-.64a25,25,0,0,0,5.12,1.62,13.35,13.35,0,0,0,5.27-.16A9.32,9.32,0,0,0,59.35,43.93Z"/></g></g></svg>