<svg xmlns="http://www.w3.org/2000/svg" viewBox="0 0 80.34 80.34"><defs><style>.cls-1{fill:#e8414e;}.cls-2{fill:#fff;}</style></defs><g id="Layer_2" data-name="Layer 2"><g id="_24" data-name="24"><path class="cls-1" d="M80.34,40.17A40.17,40.17,0,1,1,40.17,0,40.16,40.16,0,0,1,80.34,40.17Z"/><path class="cls-2" d="M45.35,28.46V24.3a.76.76,0,0,0,0-.21.49.49,0,0,0,0-.12v-.1a.74.74,0,0,0-.08-.3c-.39-1-1.69-1.36-3-1.5a5.29,5.29,0,0,0,.55-1.3,2.54,2.54,0,0,0-2.62-3.1,2.33,2.33,0,0,0-2.44,2.83,5.85,5.85,0,0,0,.6,1.54c-1.55.13-3.39.56-3.39,1.88a1.35,1.35,0,0,0,0,.29.28.28,0,0,0,0,.09V28a.65.65,0,0,0,0,.34A15.15,15.15,0,0,0,25.64,42c-.2,8.06,6.78,14.34,14.53,14.53C48.23,56.69,54.5,49.71,54.7,42A14.73,14.73,0,0,0,45.35,28.46Zm-5.41-9.21a1.27,1.27,0,0,1,1.21.3c.41.39.17,1,0,1.45a5.13,5.13,0,0,1-.62,1h-.31c-.14-.23-.28-.46-.41-.69C39.35,20.55,38.81,19.56,39.94,19.25Zm-2.46,4.54a9.13,9.13,0,0,1,1.88-.24l.2.26a.91.91,0,0,0,.17.17.75.75,0,0,0,1,0l.42-.42a6.53,6.53,0,0,1,2.43.37,10,10,0,0,1-2.81.39A9.84,9.84,0,0,1,37,23.92,3.76,3.76,0,0,1,37.48,23.79Zm-.92,1.67a13,13,0,0,0,2.95.38,11.93,11.93,0,0,0,4.3-.37V28a.4.4,0,0,1-.17.18h0c-1,.64-5.82.65-6.9,0l0,0h0a.4.4,0,0,1-.12-.1Zm-.49,4.26h.42a12.52,12.52,0,0,0,3.67.41,11.33,11.33,0,0,0,3.67-.41h.82a13.1,13.1,0,0,1,6.9,6.17l-2.61-2.08a.78.78,0,0,0-1.09,0L44.91,37.4l-4.13-3.59a.79.79,0,0,0-1.1,0L36,37.42c-1.2-1.21-2.41-2.41-3.61-3.61a.77.77,0,0,0-1.09,0l-2.75,2.35A13.5,13.5,0,0,1,36.07,29.72Zm4.1,25.22A12.5,12.5,0,0,1,29.37,49l2.4-2,3.64,3.64a.78.78,0,0,0,1.09,0L40.26,47l4.2,3.64a.76.76,0,0,0,1.09,0L48.48,47l2.41,2.13A13.21,13.21,0,0,1,40.17,54.94Zm11.52-7.15-2.75-2.42a.77.77,0,0,0-1.09,0L44.91,49l-4.13-3.59a.78.78,0,0,0-1.1,0L36,49l-3.61-3.6a.77.77,0,0,0-1.09,0L28.6,47.63A13.82,13.82,0,0,1,27.4,44l4.31-2.87,3.7,3.69a.77.77,0,0,0,1.09,0l3.76-3.64,4.2,3.64a.76.76,0,0,0,1.09,0l3-3.66,4.35,2.9,0,0A13.53,13.53,0,0,1,51.69,47.79Zm-2.9-8.33a.77.77,0,0,0-.94.13l-2.94,3.59-4.13-3.59a.79.79,0,0,0-1.1,0L36,43.19l-3.61-3.6a.77.77,0,0,0-.94-.13l-4.21,2.82c0-.11,0-.22,0-.33a11.67,11.67,0,0,1,.33-3.09.75.75,0,0,0,.44-.19l3.81-3.27,3.64,3.65a.78.78,0,0,0,1.09,0l3.76-3.65,4.2,3.65a.78.78,0,0,0,1.09,0c1-1.21,2-2.42,3-3.62l3.74,3a.76.76,0,0,0,.38.17A13.46,13.46,0,0,1,53.15,42c0,.14,0,.28,0,.42Z"/></g></g></svg>