<svg xmlns="http://www.w3.org/2000/svg" viewBox="0 0 80.34 80.34"><defs><style>.cls-1{fill:#e8414e;}.cls-2{fill:#fff;}</style></defs><g id="Layer_2" data-name="Layer 2"><g id="_4" data-name="4"><path class="cls-1" d="M80.34,40.17A40.17,40.17,0,1,1,40.17,0,40.17,40.17,0,0,1,80.34,40.17Z"/><path class="cls-2" d="M45.35,28.46V24.31a.78.78,0,0,0,0-.22.49.49,0,0,0,0-.12v-.1a.74.74,0,0,0-.08-.3c-.39-1-1.69-1.36-3-1.49a5.53,5.53,0,0,0,.55-1.31,2.54,2.54,0,0,0-2.62-3.1,2.33,2.33,0,0,0-2.44,2.83,5.72,5.72,0,0,0,.6,1.54c-1.55.13-3.39.56-3.39,1.88a1.29,1.29,0,0,0,0,.29s0,.06,0,.1V28a.78.78,0,0,0,0,.34A15.14,15.14,0,0,0,25.64,42c-.2,8.06,6.78,14.33,14.53,14.52C48.23,56.69,54.5,49.71,54.7,42A14.73,14.73,0,0,0,45.35,28.46Zm-5.41-9.21a1.27,1.27,0,0,1,1.21.3c.41.39.17,1,0,1.46a5.43,5.43,0,0,1-.63,1h-.3c-.14-.23-.28-.45-.41-.69C39.35,20.55,38.81,19.57,39.94,19.25Zm-2.46,4.54a9.13,9.13,0,0,1,1.88-.24c.07.09.13.18.2.26a.91.91,0,0,0,.17.17.75.75,0,0,0,1,0l.42-.43a6.65,6.65,0,0,1,2.42.37,9.91,9.91,0,0,1-2.8.39A9.84,9.84,0,0,1,37,23.92,3.76,3.76,0,0,1,37.48,23.79Zm-.92,1.67a13.13,13.13,0,0,0,2.95.39,12.19,12.19,0,0,0,4.3-.38V28a.4.4,0,0,1-.17.18s0,0,0,0c-1,.65-5.89.65-6.92,0h0a.4.4,0,0,1-.12-.1Zm3.61,29.48c-7.21.18-12.81-6-13-13a12.78,12.78,0,0,1,8.88-12.23h.42a12.83,12.83,0,0,0,3.67.4,11,11,0,0,0,3.67-.4h.82A13.49,13.49,0,0,1,53.15,42,13.16,13.16,0,0,1,40.17,54.94Z"/><path class="cls-2" d="M48.36,36.19l-2.79,1.64c0-.46,0-.93,0-1.39,0-1-1.52-1-1.55,0,0,.77,0,1.54-.07,2.31l-3.06,1.79V37.19l1.85-1.25c.82-.56.05-1.9-.78-1.34-.35.25-.71.49-1.07.73V32.45a.77.77,0,0,0-1.54,0v3.09l-1.2-.7a.78.78,0,0,0-.78,1.34l2,1.15v3.31L36,38.6c-.05-.69-.09-1.38-.14-2.07-.07-1-1.62-1-1.55,0,0,.37.05.73.08,1.09L32,36.19a.77.77,0,0,0-.78,1.33l2.59,1.55-1.3.62c-.9.43-.12,1.76.78,1.34l2.1-1,3.2,1.91-3.29,1.93L33,43c-.93-.35-1.33,1.14-.41,1.49l1,.39-2.24,1.32a.78.78,0,0,0,.78,1.34l2.49-1.47,0,1.5c0,1,1.51,1,1.55,0,0-.81,0-1.62.08-2.43l3.21-1.88v3.87l-2,1.34c-.82.55-.05,1.89.78,1.33L39.4,49v2.44a.77.77,0,0,0,1.54,0V48.93l1.07.62a.77.77,0,0,0,.78-1.33l-1.85-1.09V43.37l3.24,1.94.15,2.16c.07,1,1.62,1,1.55,0l-.09-1.19,2.33,1.4a.77.77,0,0,0,.78-1.33l-2.42-1.46,1.21-.58c.9-.42.12-1.76-.78-1.33l-2,1-3.3-2,3.18-1.87,2.42.92c.93.36,1.33-1.14.41-1.49l-1.13-.43,2.67-1.57A.77.77,0,0,0,48.36,36.19Z"/></g></g></svg>