<svg xmlns="http://www.w3.org/2000/svg" viewBox="0 0 80.34 80.34"><defs><style>.cls-1{fill:#e8414e;}.cls-2{fill:#fff;}</style></defs><g id="Layer_2" data-name="Layer 2"><g id="_1" data-name="1"><circle class="cls-1" cx="40.17" cy="40.17" r="40.17"/><path class="cls-2" d="M51.7,24.55a4.15,4.15,0,0,0,3.08,1.62,3.74,3.74,0,0,0,3.71-3.49,1.52,1.52,0,0,0,0-.23,1.64,1.64,0,0,0,0-.23,3.8,3.8,0,0,0-3.71-3.49,3.22,3.22,0,0,0-2.49,1c-1.87-1.79-6.28-1.7-8.51-1.8-7.44-.36-13,3.87-16.18,10.2h-.11c-3,0-3.26,4.22-3.22,6.52a7.68,7.68,0,0,0-1.77,2.58A8.73,8.73,0,0,0,22,42a13.15,13.15,0,0,0,.87,2.47,7.1,7.1,0,0,0-.42,1.08c-.92,3,.52,5.84,2.76,7.8,1.07.93,1.72.7,2.13,1.93A11.29,11.29,0,0,0,29,58.54,8.29,8.29,0,0,0,32.22,61a6.7,6.7,0,0,0,1.91.53c.46.05,2.73-.23,2.81-.19a8.65,8.65,0,0,0,7.25.57,7.29,7.29,0,0,0,2-1.15c.42-.35,1.67-2,2-2.1a12,12,0,0,0,2.87-1.12,6.14,6.14,0,0,0,3.42-6.69c2.42-1.9,3.16-4.66,1.5-7.23,2.43-2.85,1.59-6.07-.71-8.46a.62.62,0,0,0,0-.23c-.12-2.48-1.09-6.33-3.83-6.78-.62-1.07-1.06-2.22-.12-3.29A3.22,3.22,0,0,1,51.7,24.55ZM57,22.45a2.18,2.18,0,0,1-4.36,0C52.45,19.64,56.81,19.65,57,22.45ZM54.47,43a.77.77,0,0,0,0,1.09c1.71,2.12.85,4.35-1.21,5.75a.8.8,0,0,0-.36.87c.75,3.17-1.31,5.13-4.08,6.14-2.39.88-3.51,3.19-6.14,3.91a7,7,0,0,1-4-.33c-.4-.14-.91-.55-1.35-.55-1.95,0-3.36.32-5.18-.66a7.21,7.21,0,0,1-2.64-2.81c-.39-.67-.62-2.53-1.32-2.94-2.91-1.68-5.27-4.27-4.19-7.78.1-.34.44-.77.3-1.14a9.89,9.89,0,0,1-.62-6,6.16,6.16,0,0,1,1.89-3h1.24c-.78,2.78-1.14,6,.17,8.54,2.2,4.31,6.45,2.2,10.09,1a4.06,4.06,0,0,0,2.63,1.17A3.21,3.21,0,0,0,42.39,45c1.64.76,3.13,2,5.11,1.88a6.5,6.5,0,0,0,4.74-3c1.43-2,1.16-5.43.1-8.12h1.3C55.91,37.68,57,40.51,54.47,43Zm-11.2-.64a3.61,3.61,0,0,0-7.22.23,3.17,3.17,0,0,0,.16,1.16c-3.16,1.22-6.79,2.82-8.28-1.25-.76-2.07-.22-4.76.45-6.94l22.29.11c1.19,2.58,1.36,6.14-.35,8.1-2.27,2.6-4.8,1-7.2-.23a3.55,3.55,0,0,0,.15-.72.85.85,0,0,0,0-.23A.8.8,0,0,0,43.27,42.38Zm-1.52.23a2.08,2.08,0,0,1-4.15,0C37.45,39.93,41.61,39.94,41.75,42.61Zm9.91-12.95a8.6,8.6,0,0,1,.67.8,7.72,7.72,0,0,1,1.39,3.7L25.81,34a9,9,0,0,1,.82-3.87c.39-.78,1.14-.49,2-.49h23Zm-.57-6.6c-1.82,1.59-2.08,3.18-1.3,5.05H29.34a25.14,25.14,0,0,1,2.5-3.66c3.26-4,7.67-5.2,12.71-5,.58,0,5.31.39,6.82,1.6a4.33,4.33,0,0,0-.31,1.36A3.08,3.08,0,0,0,51.09,23.06Z"/><path class="cls-2" d="M34,38.77a2.15,2.15,0,0,1-2.69.11c-.78-.6-1.88.48-1.09,1.09a3.72,3.72,0,0,0,4.87-.11C35.86,39.19,34.76,38.1,34,38.77Z"/><path class="cls-2" d="M49.27,40c.79-.61-.31-1.69-1.09-1.09a2.15,2.15,0,0,1-2.69-.11c-.73-.67-1.83.42-1.09,1.09A3.72,3.72,0,0,0,49.27,40Z"/></g></g></svg>