<svg xmlns="http://www.w3.org/2000/svg" viewBox="0 0 80.34 80.34"><defs><style>.cls-1{fill:#e8414e;}.cls-2{fill:#fff;}</style></defs><g id="Layer_2" data-name="Layer 2"><g id="_6" data-name="6"><path class="cls-1" d="M80.34,40.17A40.17,40.17,0,1,1,40.17,0,40.18,40.18,0,0,1,80.34,40.17Z"/><path class="cls-2" d="M60.07,50.17V22.62a.71.71,0,0,0-.21-.52s0,0,0,0l0,0a.73.73,0,0,0-.53-.2h-16a.78.78,0,0,0-.77.77v4.9a.78.78,0,0,0,.77.77h2.11c0,.63.06,1.28.08,1.94a.89.89,0,0,0,0,.73c0,2.17-.26,4.29-2.11,5.59-2.88,2-6.61.41-9.24,2.91-2.89,2.75-2.35,7.15-2.35,10.71a.78.78,0,0,0,.77.77H36.9a.13.13,0,0,0,0,.06v5.88H33.27c-3.18,0-6.35.2-9.17-1.62-5.36-3.46-1.34-12.18,4.41-12.18a.77.77,0,0,0,0-1.54c-5.53,0-8.72,5-8.18,10.15.58,5.61,7,7.05,11.67,6.77,9-.55,18.24,0,27.29,0a.78.78,0,0,0,0-1.55h-4V50.94h4A.78.78,0,0,0,60.07,50.17ZM33.35,49.4c0-.8,0-1.66,0-2.53H51.6a10.75,10.75,0,0,0-.38,2.53ZM53.72,51v5.88H38.44V51s0,0,0-.06H53.72Zm4.8-1.6H52.77c0-.24,0-.48,0-.71a5.5,5.5,0,0,1,3.09-4.75,6.21,6.21,0,0,1,2.15-.56h.47Zm0-7.59a8.61,8.61,0,0,0-3.59.89,6,6,0,0,0-2.81,2.82.67.67,0,0,0-.5-.19H33.42c.28-3.09,1.36-5.87,5.28-6,3-.07,6.08-1.1,7.63-3.77a5,5,0,0,0,.54-1.39h3.92a.78.78,0,0,0,0-1.55h-3.7c0-.43,0-.87,0-1.32h3.68a.77.77,0,0,0,0-1.54H47c0-.52-.06-1-.08-1.51H58.52Zm0-15.06H44.07V23.39H58.52Z"/></g></g></svg>