<svg xmlns="http://www.w3.org/2000/svg" viewBox="0 0 80.34 80.34"><defs><style>.cls-1{fill:#e8414e;}.cls-2{fill:#fff;}</style></defs><g id="Layer_2" data-name="Layer 2"><g id="_25" data-name="25"><path class="cls-1" d="M80.34,40.17A40.17,40.17,0,1,1,40.17,0,40.18,40.18,0,0,1,80.34,40.17Z"/><path class="cls-2" d="M62.65,24.54c-3.22,0-7.56.39-10.33,0-4.29-.59-5.12,3.39-6,6.63s-2.22,6.1-5,8.08c-2.56,1.85-5.75,2.23-8.82,2.11l-3-9.74c-.61-3-3.28-4.45-5.74-2.14-1.17,1.09-.47,3-.06,4.27.64,1.94,1.23,3.88,1.81,5.84.76,2.54,1.21,5.47,2.5,7.82s3.31,2.69,5.52,2.77l-1.59,4.23H25.65c-3.75,0-8.54.92-11.64-1.11-4.4-2.89-2.44-10.1,2.92-9.81,2.7.14,3.8,3.06,2.67,5.32A2.66,2.66,0,0,1,16.79,50c-2-.32-2-3.64.27-3.52.93,0,.93-1.41,0-1.45-3.33-.16-4.22,4.13-1.73,5.94s5.82-.49,6.08-3.14c.79-8-10.92-7.08-11.22.33-.22,5.34,4.08,7.71,8.65,7.71H56.89c1.91,0,3.65.1,5.22-1.19s2-3.53,2-5.31a.73.73,0,0,0-1.45,0,7.31,7.31,0,0,1-.91,3.45c-.84,1.53-2.42,1.61-4,1.61h-5c-.52-1.4-1.05-2.8-1.58-4.2a7.06,7.06,0,0,0,3.17-.63,7.83,7.83,0,0,0,3.76-4.13c.65-1.58,1.27-3.17,1.9-4.75.52-1.27,1-3,2.19-3.84a34.15,34.15,0,0,1,5.41-3c1.9-.94,2.35-3.36,2.45-5.28C70.36,24.41,65.6,24.54,62.65,24.54ZM51.31,54.41H33.44C34,53,34.51,51.6,35,50.19H49.72Zm12-19.88a7.47,7.47,0,0,0-3.5,3.23c-1.54,3-2.08,6.67-4.26,9.24-1.81,2.12-4.29,1.73-6.73,1.73H36.39c-3.06,0-6.61.38-7.67-3.26Q27.43,41,26.1,36.63c-.44-1.46-.94-2.9-1.38-4.36-.51-1.71,1.5-3.68,2.78-1.81A4.47,4.47,0,0,1,28.08,32a.43.43,0,0,0,.05.16q1.56,5,3.14,10.09a.74.74,0,0,0,.69.53c5.2.28,10.24-1.11,13.33-5.57A22.23,22.23,0,0,0,48,30.35c.58-2.11,1.31-4.88,4.09-4.39a19.25,19.25,0,0,0,3.31,0h7.24c2.3,0,5.92-.51,6.05,2.63C68.85,32.32,66,33.09,63.33,34.53Z"/></g></g></svg>