<svg xmlns="http://www.w3.org/2000/svg" viewBox="0 0 80.34 80.34"><defs><style>.cls-1{fill:#e8414e;}.cls-2{fill:#fff;}</style></defs><g id="Layer_2" data-name="Layer 2"><g id="_21" data-name="21"><path class="cls-1" d="M80.34,40.17A40.17,40.17,0,1,1,40.17,0,40.17,40.17,0,0,1,80.34,40.17Z"/><path class="cls-2" d="M56.34,47.4l-3-1.82.77-.36a2,2,0,0,0,1.14-2.28A2.41,2.41,0,0,0,53,41.06a2.36,2.36,0,0,0-1,.23l-.16.08a2.41,2.41,0,0,0-.56-.63l-.92-.45a1.37,1.37,0,0,0-.28,0L48.44,40a1.42,1.42,0,0,0,.12-.25l.78.29a2,2,0,0,0,2.54-1l.64.24a2.11,2.11,0,0,0,.8.16,2,2,0,0,0,2-1.79A2.3,2.3,0,0,0,53.85,35l-.38-.15,3.29-1.94a2.12,2.12,0,0,0,1-2.44,2.28,2.28,0,0,0-2.15-1.74,2.22,2.22,0,0,0-1.12.32l-3.71,2.18,0-1a2.07,2.07,0,0,0-.57-1.56,2.26,2.26,0,0,0-1.61-.65,2.21,2.21,0,0,0-2.29,2.16v.31a2.44,2.44,0,0,0-.9.29,2.4,2.4,0,0,0-.21-.69l.13-.09a2.25,2.25,0,0,0,.9-2.57,2.2,2.2,0,0,0-2-1.63,2.08,2.08,0,0,0-1.19.39l-.62.41V23.08a2.24,2.24,0,0,0-4.47,0v4.1L37,26.66a2.22,2.22,0,0,0-1.12-.32,2.28,2.28,0,0,0-2.15,1.74,2.12,2.12,0,0,0,1,2.44l.29.17a1.86,1.86,0,0,0-.15.56,2.45,2.45,0,0,0-1.68-.58l0-.29a2.28,2.28,0,0,0-2.34-2.13,2.19,2.19,0,0,0-1.62.67,2,2,0,0,0-.52,1.57l0,.35-2.93-1.75a2.18,2.18,0,0,0-1.14-.33,2.26,2.26,0,0,0-2.12,1.71,2.15,2.15,0,0,0,1,2.47l3.3,2-.92.44a2,2,0,0,0-1.15,2.27,2.42,2.42,0,0,0,2.29,1.88,2.22,2.22,0,0,0,1-.23l.48-.23a2.43,2.43,0,0,0,1.14,1l-.22.38a2,2,0,0,0-.69.49,2.33,2.33,0,0,0-.44.72l-.84-.32a2.33,2.33,0,0,0-.8-.16,2.07,2.07,0,0,0-2,1.79,2.32,2.32,0,0,0,1.45,2.64l.16.06-2.54,1.49a2.13,2.13,0,0,0-1,2.45A2.26,2.26,0,0,0,25,51.29,2.18,2.18,0,0,0,26.08,51l3.17-1.86,0,1.17a2.1,2.1,0,0,0,.57,1.56,2.3,2.3,0,0,0,3.91-1.51v-.46A2.4,2.4,0,0,0,35,49.55a.62.62,0,0,0,0,.13,2.54,2.54,0,0,0,.29,1.21l-.49.33a2.24,2.24,0,0,0-.9,2.56,2.2,2.2,0,0,0,2,1.64A2.08,2.08,0,0,0,37.08,55l.85-.57v2.8a2.24,2.24,0,0,0,4.47,0v-3l.66.39a2.23,2.23,0,0,0,1.13.32,2.29,2.29,0,0,0,2.14-1.74,2.14,2.14,0,0,0-1-2.45l-.19-.11a2.3,2.3,0,0,0,.38-1.19,1.92,1.92,0,0,0,0-.24,2.35,2.35,0,0,0,1.28.51l0,.48a2.28,2.28,0,0,0,2.34,2.12,2.19,2.19,0,0,0,1.61-.66,2,2,0,0,0,.52-1.58l0-.52,2.81,1.68a2.2,2.2,0,0,0,1.14.33h0a2.27,2.27,0,0,0,2.13-1.71A2.15,2.15,0,0,0,56.34,47.4Zm-.5,2.05a.67.67,0,0,1-1,.48L49.5,46.71l.25,3.5a.51.51,0,0,1-.11.41.7.7,0,0,1-.48.17.76.76,0,0,1-.8-.7l-.16-2.21-.92.28a.69.69,0,0,1-.25,0,.76.76,0,0,1-.8-.69L46,44.82l-1.12.81a.65.65,0,0,1-.8,0l-.26-.2-.17-2.22-2.83-1.7v3.19l1.67,1,.35.25v.29a.86.86,0,0,1-.38.67l-1,.68,2.19,1.29a.56.56,0,0,1,.33.53.86.86,0,0,1-.45.71l-1.29.63,2.31,1.36a.57.57,0,0,1,.3.7.68.68,0,0,1-1,.49l-3-1.74v5.71a.7.7,0,0,1-1.39,0V51.55l-3.25,2.2a.61.61,0,0,1-.33.12.77.77,0,0,1-.29-1.37l2.1-1.42-.87-.65a.89.89,0,0,1-.34-.71.65.65,0,0,1,.32-.56l2-1.37L38,47.14a.9.9,0,0,1-.33-.72l0-.34,1.81-1.23V41.31l-2.56,1.5-.09,2.73-.31.16a.91.91,0,0,1-.82,0L34.56,45l-.08,2.64a.69.69,0,0,1-.75.67.84.84,0,0,1-.39-.1l-1.11-.63-.09,2.68a.68.68,0,0,1-.74.67.73.73,0,0,1-.51-.18.6.6,0,0,1-.14-.44l.14-4-5.6,3.28a.68.68,0,0,1-1-.48.57.57,0,0,1,.3-.71l5.31-3.13-3.17-1.2a.8.8,0,0,1-.48-.92c0-.05.11-.52.46-.52a.79.79,0,0,1,.24,0l2.92,1.12-.13-1.25a.94.94,0,0,1,.19-.67.35.35,0,0,1,.28-.13.89.89,0,0,1,.29.07l2.69,1,.07-1a.77.77,0,0,1,0-.15.81.81,0,0,1,.6-.53h.18l1.73.66,2.1-1.24.51-.3.22-.14-2.07-1.24-.38-.2-1.73.82a1,1,0,0,1-.37.1H34l-.09,0a.59.59,0,0,1-.46-.31.8.8,0,0,1-.06-.56l.41-1.6-2.91,1.38a.67.67,0,0,1-.33.08.87.87,0,0,1-.79-.73l-.13-1.06-2.2,1a.82.82,0,0,1-1.12-.6c-.06-.25,0-.41.3-.54l3.53-1.67-5.78-3.47a.61.61,0,0,1-.3-.73.67.67,0,0,1,1-.48l5.47,3.29-.23-3.32a.5.5,0,0,1,.1-.41.66.66,0,0,1,.49-.17.75.75,0,0,1,.79.69l.18,2.5,1.09-.68a.78.78,0,0,1,.39-.1.76.76,0,0,1,.8.69l.22,3.17,1.14-.88a.64.64,0,0,1,.85,0l.25.21.14,2,2.74,1.64V36.35l-1.54-.9-.4-.29.08-.39A.84.84,0,0,1,38,34.2l1.28-.64-2.56-1.49a.56.56,0,0,1-.31-.43A.83.83,0,0,1,36.7,31l.7-.71-1.84-1.07a.58.58,0,0,1-.3-.71.69.69,0,0,1,1-.49l3.21,1.88V23.08a.7.7,0,0,1,1.39,0v6.5l3-2a.63.63,0,0,1,.33-.13.78.78,0,0,1,.29,1.38l-1.62,1.09.75.66a.9.9,0,0,1,.29.71.66.66,0,0,1-.32.53l-2.32,1.56,1.14.61a.84.84,0,0,1,.39.6l.08.45-2,1.38v2.51l2.68-1.58.07-2,.32-.17a.87.87,0,0,1,.77,0l1.09.56.09-2.9a.69.69,0,0,1,.74-.66,1,1,0,0,1,.25,0l1,.28.07-2.1a.75.75,0,0,1,1.25-.48.54.54,0,0,1,.14.43L49.16,34l6.12-3.6a.69.69,0,0,1,1,.49.58.58,0,0,1-.3.71l-6.07,3.57,3.39,1.29a.8.8,0,0,1,.48.91c0,.06-.11.52-.46.52a.62.62,0,0,1-.25,0l-2.39-.91-.07,1c0,.24-.16.63-.47.63a.57.57,0,0,1-.24,0l-3.06-1.17.31,1.4a.65.65,0,0,1,0,.31.78.78,0,0,1-.6.52h0l-2.56-1L41.36,40.2l.2.13-.25,0,.42.06L44.36,42,46,41.24a1.18,1.18,0,0,1,.37-.09h.19a.59.59,0,0,1,.45.31.64.64,0,0,1,.08.33l0,1.19,2.38-1.13a.83.83,0,0,1,1.12.66l.12,1.07,1.89-.89a.82.82,0,0,1,1.11.59.43.43,0,0,1-.29.54l-3.38,1.6,5.49,3.3A.59.59,0,0,1,55.84,49.45ZM44.7,47.72a1.59,1.59,0,0,0-.27-.18l-.32-.19,0-.06a2.24,2.24,0,0,0,.52,0l0,.3S44.7,47.69,44.7,47.72ZM36,47.83a.49.49,0,0,0,0-.12v-.36h.24a2.72,2.72,0,0,0,.11.25ZM35.7,33.21l.28.19.15.09a2.8,2.8,0,0,0-.41,0Zm8.63-.06v.31h-.27L44,33.38Z"/></g></g></svg>