<svg xmlns="http://www.w3.org/2000/svg" viewBox="0 0 80.34 80.34"><defs><style>.cls-1{fill:#e8414e;}.cls-2{fill:#fff;}</style></defs><g id="Layer_2" data-name="Layer 2"><g id="_5" data-name="5"><circle class="cls-1" cx="40.17" cy="40.17" r="40.17" transform="translate(-0.05 80.29) rotate(-89.93)"/><path class="cls-2" d="M40,37.91A1,1,0,1,0,41,39,1,1,0,0,0,40,37.91Z"/><path class="cls-2" d="M40,47.63A1.06,1.06,0,1,0,41,48.69,1.06,1.06,0,0,0,40,47.63Z"/><path class="cls-2" d="M40,42.77a1,1,0,1,0,1.05,1A1,1,0,0,0,40,42.77Z"/><path class="cls-2" d="M37.8,27.35a.93.93,0,1,0-.93-.93A.93.93,0,0,0,37.8,27.35Z"/><path class="cls-2" d="M42.8,27.35a.93.93,0,1,0-.93-.93A.93.93,0,0,0,42.8,27.35Z"/><path class="cls-2" d="M57.46,34.74,55.11,34l.57-2.34c.24-1-1.25-1.38-1.49-.41s-.46,1.86-.68,2.78c-.93.57-1.83,1.18-2.8,1.69-.2.11-.41.21-.62.31A13.22,13.22,0,0,0,46.65,32a8.88,8.88,0,0,0,1.36-4,1.52,1.52,0,0,0,0-.23,1.64,1.64,0,0,0,0-.22A7.89,7.89,0,0,0,40.3,20c-4.36-.22-7.52,3.69-7.72,7.72A6.64,6.64,0,0,0,33.86,32a15.17,15.17,0,0,0-3.35,4.15L30,35.91a29.26,29.26,0,0,1-3.15-1.86c-.23-.93-.45-1.86-.68-2.79s-1.73-.55-1.49.41L25.23,34l-2.35.73a.77.77,0,0,0,.41,1.49l2.76-.85c.93.56,1.83,1.17,2.8,1.69l.95.47A20.92,20.92,0,0,0,28.31,42c-1.68,7.64.11,15.8,8.53,18S52.71,56.53,52.92,48a27.29,27.29,0,0,0-2.15-10.63l.37-.17a27.7,27.7,0,0,0,3.15-1.86l2.76.85A.77.77,0,0,0,57.46,34.74ZM40.3,21.51c3.49-.17,6,2.95,6.18,6.18-.4,8-12,8-12.36,0C33.94,24.21,37.07,21.68,40.3,21.51ZM51.37,48c-.19,8-7.27,12.15-14.73,10.24s-8.11-10.12-6.71-16.5a18.09,18.09,0,0,1,1.2-3.62c.46.21.92.43,1.36.67.87.48,1.65-.85.78-1.33-.47-.26-.94-.5-1.42-.73a12.32,12.32,0,0,1,3.07-3.59,8.76,8.76,0,0,0,5.38,2.24,6.89,6.89,0,0,0,5.49-2.35,11.16,11.16,0,0,1,3,3.59c-.58.27-1.15.53-1.71.84-.87.48-.09,1.81.78,1.33q.78-.42,1.59-.81A27.19,27.19,0,0,1,51.37,48Z"/><path class="cls-2" d="M40.62,31l1-2.9a2.06,2.06,0,0,0-2.63,0s.65,2.18,1,2.94S40.62,31,40.62,31Z"/></g></g></svg>