<svg xmlns="http://www.w3.org/2000/svg" viewBox="0 0 80.34 80.34"><defs><style>.cls-1{fill:#e8414e;}.cls-2{fill:#fff;}</style></defs><g id="Layer_2" data-name="Layer 2"><g id="_12" data-name="12"><path class="cls-1" d="M80.34,40.17A40.17,40.17,0,1,1,40.17,0,40.17,40.17,0,0,1,80.34,40.17Z"/><path class="cls-2" d="M56.83,26.73c1.47-1.42,4-4.9,1.63-6.42-1.23-.78-2.35.49-2.61,1.59A17.76,17.76,0,0,0,55.42,25c-.29-.07-.57-.11-.84-.15a67.25,67.25,0,0,0-8.75-.35c-1.35,0-11.1-.91-11.1,1.79A1.25,1.25,0,0,0,35,27c.13,1.57.27,3.21.35,4.86a.81.81,0,0,0,0,.89A28.91,28.91,0,0,1,34.84,40c-1.13,5-8.51,4.57-11.87,7.46-2.71,2.32-2.58,6.18-.64,8.91,2.49,3.5,6.64,3.83,10.57,3.91a104.36,104.36,0,0,0,14.58-.51h.14L49,59.52c4.55-.68,7.68-2.64,8.26-7.48s-.23-9.72-.32-14.5C56.86,33.94,56.84,30.33,56.83,26.73Zm.89-5.06c.56.46-.2,1.64-.64,2.28C57.17,23.26,57.46,21.45,57.72,21.67ZM37.61,26.34c.65-.08,1.32-.11,2-.15,2.08-.13,4.17-.12,6.25-.12,1.82,0,3.65,0,5.47.08.34,0,2.59,0,3.61.2a26.53,26.53,0,0,1-2.84.43,51.16,51.16,0,0,1-5.25.3c-2.93.07-6.7.28-9.64-.67Zm7.22,2.29a53,53,0,0,0,8.82-.52,12,12,0,0,0,1.65-.33c0,1.47,0,2.94,0,4.41l-1.59,1.55L52.47,32.2a.77.77,0,0,0-1.09,0l-1.67,1.73-1.52-1.8a.77.77,0,0,0-1.09,0l-1.34,1.71L44.2,32.23a.78.78,0,0,0-1.09,0l-1.56,1.56c-.52-.58-1-1.15-1.57-1.72a.77.77,0,0,0-1.09,0l-1.12,1.32c-.32-.41-.63-.82-1-1.22,0-1.41-.14-2.81-.24-4.2C39.22,28.81,43.87,28.61,44.83,28.63ZM46.7,58.31a99.37,99.37,0,0,1-13.8.37c-4-.06-8.56-.55-10.21-4.91-2.14-5.66,5.3-7,8.84-8.46a7.54,7.54,0,0,0,5-6.41,34.15,34.15,0,0,0,.27-4.19l.35.44a.75.75,0,0,0,1.09,0l1.17-1.37c.51.56,1,1.12,1.52,1.67a.78.78,0,0,0,1.1,0l1.57-1.57,1.62,1.67a.76.76,0,0,0,1.09,0l1.3-1.65,1.46,1.72a.78.78,0,0,0,1.1,0l1.66-1.72,1.26,1.52a.78.78,0,0,0,1.1,0l1.15-1.12q.12,5.87.38,11.71C49.14,45.79,46.13,52.38,46.7,58.31Zm8.15-3.46c-1.15,2.37-3.94,2.79-6.27,3.19l-.37.05c-.52-5.08,2-10.72,7.66-10.53l0,0v.15A14.64,14.64,0,0,1,54.85,54.85Z"/></g></g></svg>