<svg xmlns="http://www.w3.org/2000/svg" viewBox="0 0 80.34 80.34"><defs><style>.cls-1{fill:#e8414e;}.cls-2{fill:#fff;}</style></defs><g id="Layer_2" data-name="Layer 2"><g id="_15" data-name="15"><path class="cls-1" d="M80.34,40.17A40.17,40.17,0,1,1,40.17,0,40.17,40.17,0,0,1,80.34,40.17Z"/><path class="cls-2" d="M30.26,29.94c.69.73,1.78-.37,1.1-1.09L27.67,25c-.68-.72-1.77.37-1.09,1.09Z"/><path class="cls-2" d="M25.23,45.74l-5,1.88c-.93.35-.53,1.85.41,1.49l5-1.88C26.56,46.88,26.16,45.39,25.23,45.74Z"/><path class="cls-2" d="M50.07,29.94l3.69-3.88c.68-.72-.41-1.81-1.1-1.09q-1.83,2-3.68,3.88C48.29,29.57,49.38,30.67,50.07,29.94Z"/><path class="cls-2" d="M60.11,46.59l-5-1.88c-.94-.35-1.33,1.14-.41,1.49l5,1.88C60.64,48.44,61,46.94,60.11,46.59Z"/><path class="cls-2" d="M50.31,46.86c-.05-.44-.11-.88-.16-1.33a2.59,2.59,0,0,1,0-.44l7.95-8.7c.35-.38.28-1.2-.34-1.29l-11.3-1.59,0-.06-.56-1c-.66-1.19-1.32-2.38-2-3.57q-1.48-2.68-3-5.37a.79.79,0,0,0-1.34,0q-2.84,4.88-5.66,9.75L22.74,35.53a.78.78,0,0,0-.34,1.29L30,45.13a1.16,1.16,0,0,1,0,.17c0,.39-.07.78-.1,1.17-.13,1.38-.25,2.76-.38,4.14L29,56.36c-.06.64.69.89,1.16.67l10.08-4.71h0l1.06.51,3.74,1.79,5.19,2.49c.47.23,1.24,0,1.16-.67-.23-1.93-.45-3.86-.68-5.79Zm-3.77-13.2c.05.06.06.09,0,0ZM45.41,53.07c-1.32-.63-3.61-2.38-5.13-2.38S36.46,52.4,35.12,53L30.7,55.1c.13-1.5.26-3,.4-4.49.15-1.66.94-4.32.49-6-.4-1.45-2.82-3.19-3.8-4.25l-3.35-3.64,10.08-2h0l.06,0h0a.65.65,0,0,0,.42-.45l5.09-8.75,2.34,4.2c.85,1.52,1.63,3.85,2.87,5.09.92.92,4.21.74,5.39.91L56,36.4l-7.23,7.91c-.83.91.22,4.28.34,5.32q.33,2.76.65,5.52Z"/><path class="cls-2" d="M47.41,41.52l2.06-2.26c.35-.38.28-1.2-.34-1.29l-5.5-.78a2.54,2.54,0,0,1-.22-.34l-1.08-1.93-1.44-2.59a.79.79,0,0,0-1.34,0l-2.76,4.75-5.44,1.1A.78.78,0,0,0,31,39.47l3.66,4a2.75,2.75,0,0,1,0,.59c-.06.61-.11,1.22-.17,1.82-.09,1.05-.18,2.1-.28,3.15-.06.63.69.89,1.16.66l4.85-2.26.36.16,1.65.78,2.84,1.37c.46.22,1.24,0,1.16-.67-.22-1.84-.43-3.68-.65-5.52a2.91,2.91,0,0,1,.26-.33Zm-3.29,1.33c-.39.67.1,2.12.18,2.82s.17,1.39.25,2.09L43,47c-.74-.35-1.91-1.24-2.77-1.24a7.09,7.09,0,0,0-2.33,1l-2,1c.06-.62.11-1.25.17-1.88s.54-2.31.13-3a18.34,18.34,0,0,0-3.08-3.45l4.34-.88h0l.06,0h.06A.65.65,0,0,0,38,38l2.14-3.69a15,15,0,0,0,2.39,4.1c.55.55,2.08.44,2.77.54l2,.28A19,19,0,0,0,44.12,42.85Z"/></g></g></svg>