<svg xmlns="http://www.w3.org/2000/svg" viewBox="0 0 80.34 80.34"><defs><style>.cls-1{fill:#e8414e;}.cls-2{fill:#fff;}</style></defs><g id="Layer_2" data-name="Layer 2"><g id="_8" data-name="8"><path class="cls-1" d="M80.34,40.17A40.17,40.17,0,1,1,40.17,0,40.18,40.18,0,0,1,80.34,40.17Z"/><path class="cls-2" d="M55.33,53.11c-1.82-2.18-3.64-4.35-5.45-6.53H53a.78.78,0,0,0,.55-1.32Q50.13,41.63,46.7,38h1.16a.78.78,0,0,0,.54-1.32c-1.69-2.1-3.39-4.21-5.09-6.3.53.13,1.21-.35,1-.94l-1.12-2.76L45.2,25.4A.78.78,0,0,0,44.81,24H42A10.11,10.11,0,0,1,41,21.33a.79.79,0,0,0-1.58,0A10.38,10.38,0,0,1,38.31,24H35.52a.78.78,0,0,0-.39,1.44l2,1.27-1.05,2.59a.59.59,0,0,0-.06.14v0a.61.61,0,0,0,.34.85.68.68,0,0,0,.61.1l-5.07,6.29A.78.78,0,0,0,32.48,38h1.16q-3.43,3.63-6.88,7.27a.78.78,0,0,0,.55,1.32h3.15L25,53.11a.78.78,0,0,0,.54,1.32h7.24V59a.78.78,0,0,0,.77.77h12a.78.78,0,0,0,.77-.77V54.43h8.46A.78.78,0,0,0,55.33,53.11ZM38.79,25.51a.8.8,0,0,0,.75-.57c.16-.39.39-.84.62-1.3.23.46.47.91.63,1.3a.8.8,0,0,0,.74.57h.57l-.3.18a.77.77,0,0,0-.35.87L42,27.81,40.55,27a.78.78,0,0,0-.78,0l-1.4.83c.17-.42.34-.83.5-1.25a.75.75,0,0,0-.35-.87l-.3-.18Zm6,32.69h-1V55.78a.78.78,0,0,0-1.55,0V58.2H41V56.61a.78.78,0,0,0-1.55,0V58.2H36.9V56a.78.78,0,0,0-1.55,0V58.2h-1V54.43H44.77Zm.78-5.32H27.2l5.46-6.53A.78.78,0,0,0,32.11,45h-3Q32.55,41.4,36,37.76a.77.77,0,0,0-.55-1.31H34.09l6.06-7.52c2.06,2.48,4.08,5,6.1,7.52H44.9a.77.77,0,0,0-.54,1.31Q47.8,41.41,51.24,45h-3a.78.78,0,0,0-.55,1.32l5.46,6.53Z"/></g></g></svg>