<svg xmlns="http://www.w3.org/2000/svg" xmlns:xlink="http://www.w3.org/1999/xlink" x="0px" y="0px" width="64px" height="64px" viewBox="0 0 64 64" stroke-width="2"><g stroke-width="2" transform="translate(0.5, 0.5)"><path fill-rule="evenodd" clip-rule="evenodd" fill="none" stroke="#000000" stroke-width="2" stroke-linecap="square" stroke-miterlimit="10" d=" M54.198,47.342l-12.566-3.59C40.074,43.307,39,41.883,39,40.263c0-1.346,1.299-2.314,2.583-1.907C43.395,38.932,45.799,39.145,49,39 c-4.167-5.25-0.46-9.223-0.121-17.821c0.344-8.712-2.751-17.653-11.005-16.507C34.969,1.851,27.008,0.116,21,5.89 C17.417,9.333,14.917,15.167,15.281,22c0.237,4.448,1.335,8.25-2.281,15c2.871,1.762,6.152,2.412,9.36,1.321 c1.247-0.424,2.64,0.445,2.64,1.942c0,1.62-1.074,3.044-2.632,3.489l-12.566,3.59C6.368,48.323,4,51.463,4,55.034V62h56v-6.966 C60,51.463,57.632,48.323,54.198,47.342z" stroke-linejoin="miter"></path></g></svg>