<svg xmlns="http://www.w3.org/2000/svg" xmlns:xlink="http://www.w3.org/1999/xlink" x="0px" y="0px" width="64px" height="64px" viewBox="0 0 64 64" stroke-width="1"><g stroke-width="1" transform="translate(0.5, 0.5)"><path d="M7,4H57a5,5,0,0,1,5,5V40a5,5,0,0,1-5,5H34L16,59V45H7a5,5,0,0,1-5-5V9A5,5,0,0,1,7,4Z" fill="none" stroke="#444444" stroke-linecap="square" stroke-miterlimit="10" stroke-width="1" stroke-linejoin="miter"></path><line data-color="color-2" x1="10" y1="34" x2="28" y2="34" fill="none" stroke="#444444" stroke-linecap="square" stroke-miterlimit="10" stroke-width="1" stroke-linejoin="miter"></line><line data-color="color-2" x1="36" y1="34" x2="54" y2="34" fill="none" stroke="#444444" stroke-linecap="square" stroke-miterlimit="10" stroke-width="1" stroke-linejoin="miter"></line><line data-color="color-2" x1="10" y1="26" x2="41" y2="26" fill="none" stroke="#444444" stroke-linecap="square" stroke-miterlimit="10" stroke-width="1" stroke-linejoin="miter"></line><line data-color="color-2" x1="49" y1="26" x2="54" y2="26" fill="none" stroke="#444444" stroke-linecap="square" stroke-miterlimit="10" stroke-width="1" stroke-linejoin="miter"></line></g></svg>