<svg xmlns="http://www.w3.org/2000/svg" xmlns:xlink="http://www.w3.org/1999/xlink" x="0px" y="0px" width="64px" height="64px" viewBox="0 0 64 64"><g stroke-width="1" transform="translate(0.5, 0.5)"><path data-cap="butt" data-color="color-2" fill="none" stroke="#444444" stroke-width="1" stroke-miterlimit="10" d="M25,33.618V41L9.802,45.342
	C6.368,46.323,4,49.463,4,53.034V62h56v-8.966c0-3.572-2.368-6.711-5.802-7.692L39,41v-7.382" stroke-linejoin="miter" stroke-linecap="butt"></path>
<path fill="none" stroke="#444444" stroke-width="1" stroke-linecap="square" stroke-miterlimit="10" d="M32,36L32,36
	c-7.732,0-14-8.268-14-16v-4c0-7.732,6.268-14,14-14h0c7.732,0,14,6.268,14,14v4C46,27.732,39.732,36,32,36z" stroke-linejoin="miter"></path></g></svg>