<svg xmlns="http://www.w3.org/2000/svg" viewBox="0 0 61.31 65.43"><g id="Layer_2" data-name="Layer 2"><g id="_14" data-name="14"><path d="M59.91,24.24C55,18.73,48.2,22,42.87,26c-.4-1.15-.8-2.3-1.21-3.45a12.22,12.22,0,0,0,3.14-7.12,1.08,1.08,0,0,0,.05-.41,1.36,1.36,0,0,0,0-.41,12,12,0,0,0-2.07-5.9,4.69,4.69,0,0,0,2.85-3.22,1.31,1.31,0,0,0,0-.34,1.27,1.27,0,0,0,0-.33c-1-5-11-4.79-14.52-4.85C28,0,16.5,0,16.5,5.19c0,1.6,1.1,2.68,2.68,3.43A11.85,11.85,0,0,0,17,15.06a9.84,9.84,0,0,0,3.81,8.27l-1.17,3.28c-5.32-4-12.1-7.51-17.55-2.76C-4.62,29.67,6.47,38.15,13.73,43Q10.19,53,6.63,62.91a1.29,1.29,0,0,0,.31,2.52H54.87a1.3,1.3,0,0,0,1.24-1.62q-3.73-10.64-7.46-21.28C50.83,40.8,53,39,55.07,37.21,58.3,34.39,63.94,28.77,59.91,24.24ZM2.8,28c-.26-3.12,3.84-4.38,6.12-4,2.82.52,5.48,2.27,7.86,3.8.64.42,1.28.87,1.91,1.32q-2,5.6-4,11.18c-2.76-2-5.45-4.11-8-6.34C4.82,32.43,3,30.63,2.8,28ZM23,24.83a17.53,17.53,0,0,0,1.79.89L14.42,62.8a.2.2,0,0,0,0,.07H9.35Q16.15,43.85,23,24.83Zm-3.43-9.77a8,8,0,0,1,1.76-5.69,41.43,41.43,0,0,0,8.24,1,40.75,40.75,0,0,0,10.63-.7,8.91,8.91,0,0,1,2.15,5.4C41.6,27.61,20.22,27.61,19.52,15.06Zm18-7.59c-2.06.26-4.07.29-4.88.33a33.57,33.57,0,0,1-8.73-.55A14.63,14.63,0,0,1,37.5,7.47Zm6.87,55.4H37.12q-.7-7.87-1.39-15.76C37.4,45.72,38.67,44,38.25,42a4.93,4.93,0,0,0-3.31-3.68L34,27a.19.19,0,0,0,0-.08,11.67,11.67,0,0,0,1.17-.27Zm-27.32,0L27.16,26.55l.93.22q-.59,5.81-1.18,11.61a4.32,4.32,0,0,0-3.35,3.52c-.51,2.19.72,4,2.43,5.4L24.4,62.87ZM35.71,42.24c.28.74-.37,1.54-.81,2a12.83,12.83,0,0,1-4.1,2.92,12.88,12.88,0,0,1-3.63-2.31,2.76,2.76,0,0,1-.71-3.61c.74-1.41,2.7,0,3.08.92a1.29,1.29,0,0,0,2.33.3,5.36,5.36,0,0,1,1.58-1.6C34.44,40.27,35.38,41.37,35.71,42.24Zm-3.29-3.65a5.85,5.85,0,0,0-1.57,1.14,4.65,4.65,0,0,0-1.43-1q.6-5.8,1.19-11.6l.3,0h.5Q31.9,32.85,32.42,38.59Zm-4,10.28a21.1,21.1,0,0,0,2.1,1,1,1,0,0,0,1.17-.22c.5-.24,1.07-.53,1.66-.86q.61,7.05,1.24,14.11H27Zm18.52,14a1.19,1.19,0,0,0,0-.49L37.52,25.79s0,0,0-.06a14.74,14.74,0,0,0,2.12-1.28q6.72,19.21,13.46,38.42ZM43.79,28.66l.14-.11a30.87,30.87,0,0,1,7.63-4.35,5.28,5.28,0,0,1,4.43.11c4.41,2,2.21,6.16-.15,8.7a63.59,63.59,0,0,1-8,7.09Q45.79,34.39,43.79,28.66ZM23.1,3.37a33.82,33.82,0,0,1,8-.81c2,0,10.7-.13,11.94,2.61a3.39,3.39,0,0,1-2.09,1.56C35.71,2.11,26.57,2,21.21,6.46a13.24,13.24,0,0,1-1.44-.65C17.93,4.84,22.79,3.45,23.1,3.37Z"/></g></g></svg>