<svg xmlns="http://www.w3.org/2000/svg" viewBox="0 0 41.71 63.91"><g id="Layer_2" data-name="Layer 2"><g id="_23" data-name="23"><path d="M41.71,20.25C41.35,8.73,32.22.34,20.86,0S.35,9.23,0,20.25C-.3,30.16,7.36,37.76,16.39,39.89V62.63a1.29,1.29,0,0,0,1.28,1.28h6.38a1.19,1.19,0,0,0,.86-.34l0,0,0,0a1.16,1.16,0,0,0,.35-.87V40.1A21,21,0,0,0,41.71,20.25ZM22.77,61.36H18.94v-21c.64.07,1.28.12,1.92.14s1.28,0,1.91,0ZM2.56,20.25a15.74,15.74,0,0,1,2.48-9c4.61-.33,9.52.33,12.5,4.23a9.8,9.8,0,0,1,1.15,1.95c-5.58-2.28-11.66.37-16,4.64A16.12,16.12,0,0,1,2.56,20.25Zm36.59,0a18.14,18.14,0,0,1-2.55,8.8c-4.6.33-9.49-.34-12.47-4.23A10.3,10.3,0,0,1,23,22.87c5.59,2.28,11.67-.38,16-4.65A17,17,0,0,1,39.15,20.25Zm-14.91.39c5.44-2.27,7.92-8.24,8-14.17a18.71,18.71,0,0,1,6,8.76C34.68,19.31,29,22.32,24.24,20.64ZM29.7,4.73C30,9.26,29.28,14,25.46,17a10.09,10.09,0,0,1-1.95,1.15c2.19-5.36-.17-11.17-4.14-15.44.5-.06,1-.09,1.49-.11A17.18,17.18,0,0,1,29.7,4.73ZM16.32,3.23c3.85,3.61,6.57,9,5,13.62-2.22-5.52-8.24-8-14.21-8.17A19.92,19.92,0,0,1,16.32,3.23Zm1.11,16.45C12,22,9.48,28,9.4,34a18.62,18.62,0,0,1-6-8.89C7,21,12.64,18,17.43,19.68ZM12,35.75c-.32-4.57.36-9.43,4.23-12.4a10.26,10.26,0,0,1,2-1.14c-2.22,5.43.22,11.32,4.28,15.61-.52,0-1.05.1-1.59.12A17.06,17.06,0,0,1,12,35.75Zm13.53,1.49c-3.93-3.61-6.76-9.09-5.13-13.77C22.63,29,28.7,31.54,34.7,31.64A18.61,18.61,0,0,1,25.52,37.24Z"/></g></g></svg>