<svg xmlns="http://www.w3.org/2000/svg" viewBox="0 0 58.69 66.65"><g id="Layer_2" data-name="Layer 2"><g id="_22" data-name="22"><path d="M58.59,59.66c-.84-3.08-5.75-3.13-8.66-3a76.26,76.26,0,0,1-3-16.67C57,34.83,49.27,14,45.23,6.38a1.11,1.11,0,0,0-1.29-.6h-.15L30.39,8.3a1.1,1.1,0,0,0-.57.32c-.14-2-.35-3.78-.55-5.18a1.2,1.2,0,0,0-.89-.89L15,.05h-.15a1.09,1.09,0,0,0-1.29.6C9.05,9.11,1.78,28.06,11.9,33.85A77.07,77.07,0,0,1,8.84,51c-3-.17-7-.09-8.53,2.66-2.14,3.94,7.47,6.17,9.52,6.5,2.74.44,10.09,2.08,11.91-1,2-3.4-3.48-5.84-6.49-6.83.65-5.58,1.55-11.59,3.81-16.77,5.54-.24,8.43-4.64,9.82-10.26.71,7.84,3.43,15.13,10.88,15.92,2.42,5,3.15,11.39,3.76,16.85-3,1-8,3.15-6.62,6.52s9,1.72,11.7,1.38C51.06,65.59,59.71,63.74,58.59,59.66Zm-9.43,3.59a35.26,35.26,0,0,1-7.1.64c-5.59.08,1.29-3.22,3.18-3.73a1.28,1.28,0,0,0,.94-1.24c-.38-3.31-.92-6.6-1.58-9.86a54.28,54.28,0,0,0-2.1-7.74,1.12,1.12,0,0,0,0-.13,11.9,11.9,0,0,0,2-.29,73.28,73.28,0,0,0,3.35,17.47,1.29,1.29,0,0,0,1.23.94,21.53,21.53,0,0,1,5.2.19C58.56,60.24,50.55,62.94,49.16,63.25ZM31.69,12.34c0-.58.12-1.16.19-1.73l1.75-.33,9.8-1.83a54.65,54.65,0,0,1,5.9,17.94c.53,4.3,0,9-4.18,11.29a8,8,0,0,1-11-3.11C30.45,28.32,31.08,19.31,31.69,12.34ZM17.6,58.12a33.77,33.77,0,0,1-6.88-.44,22.61,22.61,0,0,1-4.13-1C6.1,56.52,1.18,54.93,3.77,54a14.85,14.85,0,0,1,6-.4A1.27,1.27,0,0,0,11,52.63a74.12,74.12,0,0,0,3.38-17.74,16.17,16.17,0,0,0,2,.42c0,.09-.07.18-.1.26a49.46,49.46,0,0,0-2.1,7.74c-.69,3.25-1.21,6.56-1.58,9.87a1.27,1.27,0,0,0,.94,1.23C14.75,54.74,21.89,57.75,17.6,58.12ZM14.69,32.37C9.82,31,9.07,25.71,9.36,21.4c.44-6.38,3-13,6-18.7l9.12,1.71,2.32.43.12,0c.05.44.11,1,.14,1.31.71,7.15,1.05,15.5-2.15,22.11C22.86,32.47,19,33.61,14.69,32.37Z"/></g></g></svg>