<svg xmlns="http://www.w3.org/2000/svg" viewBox="0 0 73.58 61.72"><g id="Layer_2" data-name="Layer 2"><g id="_17" data-name="17"><path d="M61.23,17.09a1.05,1.05,0,0,0-.36,0,1.17,1.17,0,0,0-.33,0,14.09,14.09,0,0,0-5.72,1.58A19.68,19.68,0,0,0,41.18.92c-8.82-3-18.29,1.63-22.71,9.4C2.93,8.46-6.51,27.46,5.33,38.51c6.64,6.19,19.47,4,27.77,4H60.63c6.42,0,12.62-4.93,12.94-11.63A13,13,0,0,0,61.23,17.09Zm-27.35,23H16.69A14,14,0,0,1,2.24,26.32c-.33-8.83,8.37-15,16.58-13.52a1.25,1.25,0,0,0,1.37-.56,17.28,17.28,0,0,1,20.34-9c7.74,2.13,12.26,9.9,11.88,17.58a1.22,1.22,0,0,0,1.82,1.05,11.82,11.82,0,0,1,6.64-2.41,10.42,10.42,0,0,1,6.92,18c-2.66,2.66-6.24,2.65-9.69,2.65Z"/><path d="M20.21,56.59,16.08,54.2l3.33-2.39c1.26-.91.05-3-1.22-2.1L14.73,52.2V48.11a1.22,1.22,0,0,0-2.43,0V52l-4-2.31a1.22,1.22,0,0,0-1.23,2.1l4.54,2.62L7.88,57.12c-1.26.9,0,3,1.22,2.09l3.2-2.29v3.62a1.22,1.22,0,0,0,2.43,0V56.22L19,58.68A1.21,1.21,0,0,0,20.21,56.59Z"/><path d="M40.64,56.59,36.52,54.2l3.33-2.39c1.26-.91,0-3-1.22-2.1L35.16,52.2V48.11a1.21,1.21,0,0,0-2.42,0V52l-4-2.31a1.22,1.22,0,0,0-1.23,2.1l4.54,2.62-3.75,2.69c-1.25.9,0,3,1.23,2.09l3.2-2.29v3.62a1.21,1.21,0,0,0,2.42,0V56.22l4.26,2.46A1.21,1.21,0,0,0,40.64,56.59Z"/><path d="M61.08,56.59,57,54.2l3.34-2.39c1.26-.91.05-3-1.23-2.1L55.6,52.2V48.11a1.22,1.22,0,0,0-2.43,0V52l-4-2.31A1.21,1.21,0,0,0,48,51.81l4.53,2.62-3.74,2.69c-1.26.9,0,3,1.22,2.09l3.2-2.29v3.62a1.22,1.22,0,0,0,2.43,0V56.22l4.26,2.46A1.21,1.21,0,0,0,61.08,56.59Z"/></g></g></svg>