<svg xmlns="http://www.w3.org/2000/svg" viewBox="0 0 60.89 65.7"><g id="Layer_2" data-name="Layer 2"><g id="_13" data-name="13"><path d="M42.58,13.8,40,14.51,40.62,17l.45-.47c1.2-1.24,3.08.65,1.89,1.88-.52.55-1.05,1.09-1.57,1.63.46,1.82.94,3.63,1.41,5.44l.44-.45c1.2-1.23,3.08.65,1.89,1.89L43.6,28.49l1.5,5.56c.14-.13.27-.27.4-.41,1.2-1.24,3.08.65,1.88,1.89l-1.46,1.52c.48,1.76,1,3.53,1.43,5.29L37,52.7c-.49-1.64-1-3.28-1.45-4.93l-.32.34c-1.2,1.24-3.08-.65-1.89-1.89l1.38-1.42c-.52-1.86-1-3.73-1.55-5.59l-.3.3c-1.19,1.24-3.07-.65-1.88-1.88l1.36-1.4c-.48-1.78-1-3.55-1.45-5.32,0,0,0,0-.05.05-1.19,1.24-3.08-.65-1.88-1.89l1.11-1.16c-.5-1.82-1-3.64-1.49-5.46l-.3.34c-1.15,1.28-3-.61-1.88-1.89l1.35-1.5-.4-1.48-2.66.72c3,12.4,6.66,24.77,10.37,37a1.24,1.24,0,0,0,.69.81,1.23,1.23,0,0,0,1,.12l.78-.21,2.28,8.44A1.33,1.33,0,0,0,42.38,64L40.1,55.61l11.34-3.07a1.36,1.36,0,0,0,.93-1.64C49.2,38.51,45.82,26.18,42.58,13.8Zm6.88,36.52-8.61,2.33,7.29-7.33Q48.82,47.81,49.46,50.32Z"/><path d="M29,29.07c-1.2,1.24.69,3.13,1.88,1.89,0,0,0,0,.05-.05L41.39,20c.52-.54,1-1.08,1.57-1.63,1.19-1.23-.69-3.12-1.89-1.88l-.45.47L30.12,27.91Z"/><path d="M31,37.63c-1.19,1.23.69,3.12,1.88,1.88l.3-.3Q38.4,33.84,43.6,28.49l1.53-1.58c1.19-1.24-.69-3.12-1.89-1.89l-.44.45q-5.19,5.38-10.41,10.76Z"/><path d="M33.38,46.22c-1.19,1.24.69,3.13,1.89,1.89l.32-.34C39,44.2,42.47,40.62,45.92,37.05l1.46-1.52c1.2-1.24-.68-3.13-1.88-1.89-.13.14-.26.28-.4.41L34.76,44.8Z"/><path d="M27.4,17.92l2.31-.63L27.8,19.4l-1.35,1.5c-1.15,1.28.73,3.17,1.88,1.89l.3-.34L34.45,16,40,14.51l2.59-.71,4.88-1.32a1.34,1.34,0,0,0,.32-2.43L30.59.18a1.25,1.25,0,0,0-.9-.15,1.21,1.21,0,0,0-.93.63L18.9,17.86a1.34,1.34,0,0,0,1.5,1.95l4.34-1.17Zm3-14.77Q37,7,43.66,10.75L22.81,16.4Z"/><path d="M10.46,9.87l-9.18.89c-1.7.16-1.71,2.83,0,2.66l9.18-.88C12.15,12.37,12.17,9.7,10.46,9.87Z"/><path d="M12.55,21.62,6.78,28.81c-1.07,1.32.8,3.22,1.88,1.88l5.77-7.19C15.5,22.18,13.63,20.28,12.55,21.62Z"/><path d="M60.25,22.31l-7.94-4.68A1.33,1.33,0,0,0,51,19.93l7.95,4.68A1.33,1.33,0,0,0,60.25,22.31Z"/><path d="M50.3,7.23l9-2.22c1.67-.41,1-3-.71-2.57L49.59,4.66C47.93,5.07,48.63,7.64,50.3,7.23Z"/></g></g></svg>