<svg xmlns="http://www.w3.org/2000/svg" viewBox="0 0 60.51 58.04"><g id="Layer_2" data-name="Layer 2"><g id="_7" data-name="7"><g id="Illustration"><path d="M60.51,21.27c0-5.47-1.31-9.43-7.44-9.43H47.8c3.13-1.64,4.53-4.41,1.7-9-2.17-3.54-7-3.19-10.18-1.64C36.84,2.37,35.62,5,33.93,7a24.43,24.43,0,0,1-3.58,3.38A35,35,0,0,1,26.74,7c-1.94-2.09-2.9-4.32-5.39-5.82C18.28-.67,13.21-.51,11.16,2.82c-2.82,4.61-1.43,7.38,1.71,9H11.74a1.19,1.19,0,0,0-.77,0H7.18C.65,11.84-.73,18,.31,23.55c.52,2.73,2.3,3.73,4.45,4.09V38.28c0,4.63-.6,9.75.15,14.35.83,5.07,4.93,5.4,9.3,5.4H39.89a1,1,0,0,0,.34,0h6.9c5.81,0,8.64-1.82,8.78-7.88,0-7.46.46-15.11.26-22.63C58.94,26.9,60.41,25.23,60.51,21.27ZM8.11,14.39,2.74,19.46c.14-3.36,1.44-5.07,5.06-5.07ZM2.77,22.94l9.06-8.55h8.42L8.72,25.22l-.05.06H8.23a24.73,24.73,0,0,1-3.65-.19A2.21,2.21,0,0,1,2.77,22.94Zm10-14.34c-1.65-2.28.85-5.3,3-5.94,4.43-1.31,6.92,3.44,9.22,6.14a23.49,23.49,0,0,0,2.84,2.8A44.24,44.24,0,0,1,17.18,11,7,7,0,0,1,12.75,8.6Zm23,.2c2.75-3,4.39-6.94,9.21-6.14,2.29.38,3.61,2.92,3.32,5.07s-3.09,2.8-4.78,3.24a36.21,36.21,0,0,1-10.68.66A37.31,37.31,0,0,0,35.73,8.8ZM50.48,25.28H40l11.5-10.89h1.79c3.23,0,4.24,1.63,4.56,3.91ZM7.31,38.11l0,0L18.21,27.83h8.61L7.31,46.34ZM31.18,14.39h2.74L22.64,25.22l-.05.06H12.39L24,14.39ZM36.44,25.1a1.19,1.19,0,0,0-.15.18h-10L37.6,14.39H47.75ZM9.64,27.83H14.5L7.31,34.61V27.83C8.1,27.84,8.88,27.83,9.64,27.83ZM7.24,49.92,30.53,27.83h9.9L12,55.17a1.42,1.42,0,0,0-.22.28C9.66,55.13,8,54.4,7.52,52.84A10.9,10.9,0,0,1,7.24,49.92Zm46.12-15v7.35L39.52,55.48H29L53.36,32.24ZM43.21,55.48l10.15-9.71v4.38c-.1,4.39-1.84,5.33-6,5.33ZM53.36,28.71,25.42,55.41l-.06.07H21.07c-1.32,0-3.61.2-5.94.2l29-27.85h9.24Zm.86-3.47,3.71-3.53C57.73,24.53,56.4,25.12,54.22,25.24Z"/></g></g></g></svg>