<svg xmlns="http://www.w3.org/2000/svg" viewBox="0 0 68.5 64.55"><g id="Layer_2" data-name="Layer 2"><g id="_2" data-name="2"><g id="Illustration"><path d="M55.91,27.31c1.42-8.44,2.56-19.14-5.44-24.51C42.31-2.68,34.3.54,28.26,6.8a17.63,17.63,0,0,0-4-3.7C18-1.1,9,1.13,4.44,6.6c-4.8,5.71-4.85,14-4.06,21,.86,7.66,3.11,16.08,7.37,22.75A9.39,9.39,0,0,0,6.85,59c1.42,4.12,6.2,5,10,5.39a36.9,36.9,0,0,0,14.28-1.56c4.87,1.38,11.1,2,15.45,0,5.32-2.51,6-8,3.52-12.75,1.07-1,3.76-3.72,4.19-4.2a25.69,25.69,0,0,1,7.11-5.11c3.13-1.7,6.85-4.38,7.09-8.34C69,24.51,61.27,25.22,55.91,27.31ZM21.36,62.05A27.81,27.81,0,0,1,12.66,61c-3-.76-3.77-3-3.92-5.54,0-.57.15-3.83,1.69-3.31A27,27,0,0,0,23.07,53a32.91,32.91,0,0,0,8-2.45c3.23-1.35,5.12-2.45,6.2,1.9C37.61,59.87,27,61.67,21.36,62.05ZM4.93,10.45C8.3,3.82,16.62,1.75,23,5.31c7,4,7.85,13.52,9.09,20.53a1.28,1.28,0,0,0,2.13.56C36.46,23.9,44.31,17,45.3,25c.52,4.13-4,7.54-6.3,10.5-2.51,3.29-3.58,7.32-5.35,11a5.16,5.16,0,0,0-.88.39c-7,3.87-15.24,5.25-22.76,2.32C6.62,44,4.8,37.59,3.58,31.63,2.18,24.75,1.65,16.89,4.93,10.45ZM39.8,52.24a0,0,0,0,0,0,0,35,35,0,0,0,8.33-.41c4.33,8.68-5.32,9.94-12.85,9.06A9.11,9.11,0,0,0,39.8,52.24Zm8.16-3a32.73,32.73,0,0,1-9,.4,6.13,6.13,0,0,0-2.59-3c1-2.2,1.78-4.49,2.82-6.63,2.28-4.71,8.4-8.27,8.61-13.91.13-3.52-1.28-6.18-4.77-7.16-3.31-.92-6.54,1.51-9,3.9-.86-4.88-1.88-9.79-4.33-13.88,5-5.36,11.4-8.57,18.63-4.45,8.48,4.85,6,17,4.63,24.65a1.29,1.29,0,0,0,1.87,1.44c3.21-1.71,12.54-5.15,10.86,2.53-.93,4.25-7.14,6.08-10.29,8.35C53,43.23,49.43,46.1,48,49.23Z"/></g></g></g></svg>