<svg xmlns="http://www.w3.org/2000/svg" viewBox="0 0 54.9 62.59"><g id="Layer_2" data-name="Layer 2"><g id="_20" data-name="20"><path d="M54.68,50.15c-.6-3.54-3.49-4.86-6.68-5.34a1.15,1.15,0,0,0-.33-.5c-6.52-5.84-7.93-15.52-7.41-24.09,5.19-.26,8.88-5,9.31-9.93a1.31,1.31,0,0,0,0-.35,1.34,1.34,0,0,0,0-.36c-1-12.41-18.45-12.76-20.39-1.06-1.24.45-2.43,1-3.09,1.31-13.33,5.79-19.76,21-19.42,35A10.88,10.88,0,0,0,4,45.68C-1.25,48.25-1,56.23,2.9,59.91,7.21,64,16.76,62.22,22,62.22c8.05,0,16.65.87,24.62-.21C53,61.15,55.74,56.37,54.68,50.15Zm-2.49,5.2C50.84,61.64,40,59.81,35.47,59.81H17.09c-6.33,0-14.29,1.13-14.6-7.38C2.27,46.48,9.26,47,13.42,47H41.81C47.83,46.9,53.92,47.36,52.19,55.35Zm-23.4-44,.27-.1c.43,4.62,4.42,8,8.83,8.79,0,.08,0,.16,0,.25-.43,8.33.84,17.87,6.63,24.25-1,0-1.88,0-2.7,0H16.75c-2.35,0-5.08-.23-7.68-.06C8.84,30.84,15.31,16.19,28.79,11.36ZM39.31,2.05C43.77,1.81,47,5.82,47.2,9.94,46.65,20.1,32,20.1,31.42,9.94,31.18,5.47,35.2,2.27,39.31,2.05Z"/></g></g></svg>