<svg xmlns="http://www.w3.org/2000/svg" viewBox="0 0 76.7 49.71"><g id="Layer_2" data-name="Layer 2"><g id="_9" data-name="9"><g id="Illustration"><path d="M75.13,21.93a23.22,23.22,0,0,1-12,1,34.46,34.46,0,0,1-6-1.91C56,20.62,53.47,18.63,52,19.33c-1.17.57-1,1.16-1.53,2.41a11.17,11.17,0,0,1-4.9,5.39A13,13,0,0,1,38,28.23a6.65,6.65,0,0,0-3.43-3.71c.44-2.46,1.46-5.43.39-7.46a1.28,1.28,0,0,0-1.44-.59c-2.44.59-4.88,1.39-6.91-.64C24,13.21,23.52,7.07,23.52,3.7a1.29,1.29,0,0,0-1.28-1.27c-1,0-1.29.43-2.19,1.1A10,10,0,0,1,11,4.9a25.33,25.33,0,0,1-6.3-3.06C3.62,1.18,2.62,0,1.28,0A1.29,1.29,0,0,0,0,1.28C0,3,1.18,4.6,1.81,6.16c1.09,2.67,2.08,5.38,2.95,8.13a27,27,0,0,1,1.3,5.9c.18,2.13-1.49,3.3-1.49,5.09a1.31,1.31,0,0,0,1.28,1.28c7.77.52,12.11,7.63,10.62,15.11a1.29,1.29,0,0,0,1.23,1.62h.61a1.3,1.3,0,0,0,1.23-.94c.16-.45,1.49-.88,3-1.25a7.21,7.21,0,0,0-.13,1c-.22,4.17,3.41,7.34,7.32,7.56s6.5-3,7.16-6.37a7.71,7.71,0,0,0,3.83,1.31,5.86,5.86,0,0,0,1.64-.15c1.67.76,3.59.54,5.3,1.28,1.95.85,4.06,3.6,6.16,3.6a1.29,1.29,0,0,0,1.28-1.28c0-5.79,5-7.41,10-7.53,1.79-.05,5.41-.34,6.35.13a1.3,1.3,0,0,0,1.55-.2l.31-.31a1.26,1.26,0,0,0,.32-1.24c-1.85-5.73-1.33-10.14,2.72-14.87C77.15,23.17,76.44,21.5,75.13,21.93ZM49,43.57a8.7,8.7,0,0,0-3.45-1,8.21,8.21,0,0,0,2-4.61,1.4,1.4,0,0,0,0-.37,1.37,1.37,0,0,0,0-.36,8.33,8.33,0,0,0-.23-1.34A86,86,0,0,1,60.47,32c1.61-.34.93-2.8-.67-2.47a89.5,89.5,0,0,0-13.52,4A6.86,6.86,0,0,0,42,30.71,13.79,13.79,0,0,0,52.2,24c1.58-2.63.14-2.21,2.89-1.05a42,42,0,0,0,8.46,2.68,22,22,0,0,0,8.71-.27A15.19,15.19,0,0,0,70,31.06a36.38,36.38,0,0,0,.89,6.84c-3-.58-7.13.07-9.72.43a9.52,9.52,0,0,0-8.48,8C51.49,45.48,49.76,44,49,43.57ZM25,42.14c-.33-6.43,9.2-6.39,9.54,0A4.77,4.77,0,1,1,25,42.14ZM7.77,24.26l.31-.5a8.41,8.41,0,0,0,.55-3A15.34,15.34,0,0,0,8,16.33,59.69,59.69,0,0,0,5.74,9.27c-.6-1.64-2-3.94-2.76-6C4.37,4.18,6.07,5.56,6.9,6a21.18,21.18,0,0,0,5.35,1.84,12.39,12.39,0,0,0,5-.19c1.12-.22,2.59-1.46,3.76-2.16.2,4.23,1.16,8.89,3.76,12.16,2,2.57,5.22,2.24,8,1.62-.08,1.18-.65,3-.75,3.82,0,.25-.07.53-.11.82h-.06a6.07,6.07,0,0,0-5.64,3.47,161.29,161.29,0,0,0-11-12.09,1.28,1.28,0,0,0-1.81,1.81,161.88,161.88,0,0,1,11.89,13.2,2.71,2.71,0,0,0,0,.41,6.08,6.08,0,0,0,1.6,4.42,7.36,7.36,0,0,0-3.31,3.15,19.31,19.31,0,0,0-4.35,1.31C19.57,32.12,15.16,25.66,7.77,24.26ZM36.5,37.59c-.3-5.77,8.24-5.72,8.54,0A4.27,4.27,0,1,1,36.5,37.59Zm2-6.7v-.07h.16Zm-2.54-.21a4,4,0,1,1-8.07,0C27.58,25.23,35.65,25.27,35.93,30.68Z"/></g></g></g></svg>