<svg xmlns="http://www.w3.org/2000/svg" viewBox="0 0 48.02 64.14"><g id="Layer_2" data-name="Layer 2"><g id="_24" data-name="24"><path d="M32.57,17.84V11a1,1,0,0,0-.06-.36,1.25,1.25,0,0,0,0-.19v-.17a1,1,0,0,0-.15-.5c-.64-1.66-2.78-2.25-4.87-2.47a8.83,8.83,0,0,0,.9-2.16C29.15,2.28,26.82,0,24.09,0a3.86,3.86,0,0,0-4,4.68,9.36,9.36,0,0,0,1,2.54c-2.57.22-5.6.92-5.6,3.11a1.86,1.86,0,0,0,.06.48.78.78,0,0,0,0,.16v6.08a1.17,1.17,0,0,0,0,.56A25,25,0,0,0,0,40.13c-.34,13.32,11.19,23.68,24,24,13.32.34,23.68-11.19,24-24A24.32,24.32,0,0,0,32.57,17.84ZM23.63,2.61a2.15,2.15,0,0,1,2,.5c.68.65.28,1.71-.06,2.4a9,9,0,0,1-1,1.63H24c-.24-.38-.47-.75-.68-1.13C22.66,4.76,21.77,3.14,23.63,2.61Zm-4.06,7.51a14.1,14.1,0,0,1,3.11-.4c.1.15.21.29.32.43a1.28,1.28,0,0,0,.29.28,1.23,1.23,0,0,0,1.71,0c.24-.23.47-.47.7-.71a11,11,0,0,1,4,.62c-1,.55-4.18.61-4.63.64a16.41,16.41,0,0,1-6.3-.63A6.69,6.69,0,0,1,19.57,10.12ZM18,12.88a22.33,22.33,0,0,0,4.88.63,20.07,20.07,0,0,0,7.1-.62v4.18a.63.63,0,0,1-.27.3h-.1l.07,0c-1.71,1.07-9.75,1.07-11.45,0l0,0h-.07a.85.85,0,0,1-.2-.17Zm-.81,7h.69a20.79,20.79,0,0,0,6.07.67,18.62,18.62,0,0,0,6.07-.67h1.35a21.65,21.65,0,0,1,11.4,10.21L38.5,26.67a1.29,1.29,0,0,0-1.8,0L31.84,32.6,25,26.67a1.31,1.31,0,0,0-1.81,0l-6.14,6c-2-2-4-4-6-6a1.3,1.3,0,0,0-1.8,0L4.77,30.56A22.21,22.21,0,0,1,17.23,19.92ZM24,61.58A20.6,20.6,0,0,1,6.17,51.77l4-3.37,6,6a1.29,1.29,0,0,0,1.8,0l6.21-6,6.93,6a1.3,1.3,0,0,0,1.81,0c1.61-2,3.23-4,4.84-5.92q2,1.76,4,3.52A21.81,21.81,0,0,1,24,61.58Zm19-11.8-4.54-4a1.29,1.29,0,0,0-1.8,0L31.84,51.7,25,45.76a1.32,1.32,0,0,0-1.81,0l-6.14,6-6-6a1.3,1.3,0,0,0-1.8,0L4.89,49.52a23.18,23.18,0,0,1-2-6L10,38.76q3,3.06,6.11,6.11a1.28,1.28,0,0,0,1.8,0l6.21-6,6.93,6a1.29,1.29,0,0,0,1.81,0l5-6,7.2,4.8.05,0A22.15,22.15,0,0,1,43,49.78ZM38.24,36a1.24,1.24,0,0,0-1.54.2l-4.86,5.93L25,36.22a1.31,1.31,0,0,0-1.81,0l-6.14,6-6-6A1.26,1.26,0,0,0,9.56,36l-7,4.64c0-.17,0-.35,0-.53A20,20,0,0,1,3.1,35a1.31,1.31,0,0,0,.74-.32l6.29-5.39,6,6a1.28,1.28,0,0,0,1.8,0l6.21-6,6.93,6a1.29,1.29,0,0,0,1.81,0l4.89-6L44,34.29a1.5,1.5,0,0,0,.64.28,22,22,0,0,1,.86,5.56c0,.23,0,.45,0,.68Z"/></g></g></svg>