<svg xmlns="http://www.w3.org/2000/svg" viewBox="0 0 48.02 64.14"><g id="Layer_2" data-name="Layer 2"><g id="_4" data-name="4"><path d="M32.57,17.84V11a1.15,1.15,0,0,0-.06-.37,1,1,0,0,0,0-.18v-.17a1,1,0,0,0-.15-.5c-.64-1.66-2.78-2.25-4.87-2.47a9.23,9.23,0,0,0,.9-2.16C29.15,2.28,26.82,0,24.09,0a3.86,3.86,0,0,0-4,4.68,9.36,9.36,0,0,0,1,2.54c-2.57.22-5.6.92-5.6,3.11a1.86,1.86,0,0,0,.06.48.78.78,0,0,0,0,.16v6.08a1.17,1.17,0,0,0,0,.56A25,25,0,0,0,0,40.13c-.34,13.31,11.19,23.68,24,24,13.32.34,23.68-11.19,24-24A24.32,24.32,0,0,0,32.57,17.84ZM23.63,2.61a2.15,2.15,0,0,1,2,.5c.67.65.27,1.71-.07,2.4a9.36,9.36,0,0,1-1,1.63H24c-.24-.38-.47-.75-.68-1.14C22.66,4.76,21.76,3.13,23.63,2.61Zm-4.06,7.5a14.63,14.63,0,0,1,3.11-.39c.1.15.21.29.31.43a1.58,1.58,0,0,0,.3.28,1.22,1.22,0,0,0,1.71,0c.24-.22.47-.46.7-.7a11,11,0,0,1,4,.61c-1,.56-4.18.62-4.63.64a16.26,16.26,0,0,1-6.31-.62A7.44,7.44,0,0,1,19.57,10.11ZM24,61.58c-11.91.3-21.16-10-21.45-21.45C2.32,30.64,8.8,22.85,17.23,19.92h.69a20.79,20.79,0,0,0,6.07.67,18.62,18.62,0,0,0,6.07-.67h1.35A22.31,22.31,0,0,1,45.46,40.13,21.75,21.75,0,0,1,24,61.58Z"/><path d="M37.55,30.59,32.93,33.3c0-.76,0-1.52.08-2.28.05-1.65-2.5-1.64-2.55,0-.05,1.27-.09,2.54-.13,3.81l-5,3V32.25l3.06-2.07c1.35-.91.08-3.13-1.29-2.2l-1.77,1.19V24.42a1.28,1.28,0,0,0-2.55,0v5.11c-.67-.38-1.33-.77-2-1.16a1.28,1.28,0,0,0-1.28,2.21l3.27,1.91V38l-5.63-3.38-.24-3.4c-.12-1.64-2.67-1.65-2.56,0,0,.6.09,1.2.13,1.8l-4-2.38A1.28,1.28,0,0,0,9.19,32.8l4.27,2.56-2.15,1c-1.49.71-.19,2.91,1.29,2.21l3.48-1.65,5.28,3.17-5.42,3.18-3.8-1.45c-1.54-.58-2.2,1.88-.68,2.47l1.67.63L9.41,47.13a1.28,1.28,0,0,0,1.29,2.2l4.12-2.42c0,.82-.05,1.65-.08,2.48-.05,1.64,2.5,1.64,2.55,0,.05-1.34.09-2.68.14-4l5.31-3.12v6.4c-1.1.73-2.18,1.47-3.27,2.21-1.36.91-.08,3.13,1.28,2.2l2-1.34v4a1.28,1.28,0,0,0,2.55,0V51.64l1.77,1a1.28,1.28,0,0,0,1.29-2.21l-3.06-1.79V42.46l5.34,3.21c.09,1.19.17,2.38.26,3.57.11,1.63,2.66,1.65,2.55,0,0-.65-.09-1.31-.14-2l3.85,2.32a1.28,1.28,0,0,0,1.29-2.21l-4-2.4,2-1c1.49-.7.19-2.9-1.29-2.2L31.81,43.4l-5.45-3.27L31.62,37l4,1.52c1.54.59,2.2-1.88.68-2.46l-1.87-.71,4.41-2.59A1.28,1.28,0,0,0,37.55,30.59Z"/></g></g></svg>