<svg xmlns="http://www.w3.org/2000/svg" viewBox="0 0 65.76 60.54"><g id="Layer_2" data-name="Layer 2"><g id="_6" data-name="6"><g id="Illustration"><path d="M65.76,46.79V1.28a1.16,1.16,0,0,0-.35-.87l0,0,0,0A1.19,1.19,0,0,0,64.48,0H38.05a1.29,1.29,0,0,0-1.27,1.28V9.37a1.29,1.29,0,0,0,1.27,1.28h3.49c0,1,.1,2.11.14,3.19a1.4,1.4,0,0,0,0,1.2c0,3.59-.44,7.11-3.5,9.25C33.46,27.61,27.3,25,23,29.1c-4.79,4.55-3.9,11.81-3.9,17.69a1.29,1.29,0,0,0,1.28,1.28h7.13s0,.06,0,.1v9.72h-6c-5.26,0-10.5.32-15.16-2.69-8.85-5.71-2.2-20.12,7.3-20.11a1.28,1.28,0,0,0,0-2.56C4.47,32.53-.79,40.77.1,49.31c1,9.27,11.55,11.64,19.28,11.17,14.93-.9,30.14,0,45.1,0a1.28,1.28,0,0,0,0-2.55H57.81V48.17a.31.31,0,0,0,0-.1h6.68A1.29,1.29,0,0,0,65.76,46.79ZM43.06,22.73A8.59,8.59,0,0,0,44,20.42h6.48a1.28,1.28,0,0,0,0-2.55H44.32c0-.72,0-1.45,0-2.18h6.08a1.28,1.28,0,0,0,0-2.55H44.24c-.05-.86-.11-1.7-.14-2.49H63.2V33a14,14,0,0,0-5.93,1.45,10,10,0,0,0-4.64,4.66,1.2,1.2,0,0,0-.83-.3H21.73c.46-5.1,2.25-9.71,8.72-9.85C35.34,28.84,40.5,27.13,43.06,22.73ZM39.33,2.55H63.2V8.09H39.33ZM21.59,41.35H51.76a17.09,17.09,0,0,0-.62,4.17H21.6C21.59,44.2,21.56,42.78,21.59,41.35Zm32.18,3c.35-3.4,1.82-6.28,5.09-7.85a10.52,10.52,0,0,1,3.57-.93c.26,0,.52,0,.77,0v10H53.7C53.71,45.12,53.73,44.73,53.77,44.35Zm1.49,3.82v9.72H30V48.17a.31.31,0,0,0,0-.1H55.27S55.26,48.13,55.26,48.17Z"/></g></g></g></svg>