<svg xmlns="http://www.w3.org/2000/svg" viewBox="0 0 105.9 55.39"><g id="Layer_2" data-name="Layer 2"><g id="_25" data-name="25"><path d="M41.07,52.84l2.82-7.44c-.91,0-1.82,0-2.72,0l-2.82,7.46Z"/><path d="M69.81,45.4q1.41,3.72,2.81,7.44h2.72q-1.4-3.71-2.8-7.41C71.63,45.44,70.72,45.42,69.81,45.4Z"/><path d="M92.64.1C87,.1,79.29.79,74.4.11c-7.57-1.06-9,6-10.66,11.7S59.83,22.58,55,26.08C50.45,29.35,44.83,30,39.41,29.81l-5.35-17.2C33,7.25,28.26,4.75,23.92,8.82c-2.06,1.93-.82,5.35-.1,7.55C24.94,19.78,26,23.22,27,26.67c1.34,4.49,2.14,9.66,4.42,13.81,2.16,3.94,5.85,4.76,9.74,4.9.9,0,1.81,0,2.72,0l2.39,0h22l1.56,0c.91,0,1.82,0,2.73,0a12.57,12.57,0,0,0,5.61-1.11A13.85,13.85,0,0,0,84.78,37c1.14-2.79,2.25-5.59,3.37-8.38.9-2.25,1.82-5.27,3.85-6.78,2.87-2.15,6.36-3.64,9.56-5.22,3.36-1.66,4.15-6,4.32-9.33C106.26-.14,97.85.1,92.64.1Zm1.21,17.64c-2.77,1.52-4.73,2.89-6.19,5.7C84.94,28.66,84,35.23,80.13,39.75,77,43.5,72.57,42.82,68.25,42.82h-22c-5.41,0-11.67.66-13.54-5.76q-2.28-7.82-4.63-15.6c-.78-2.58-1.67-5.13-2.44-7.71-.91-3,2.65-6.5,4.9-3.2a7.47,7.47,0,0,1,1,2.74,1.87,1.87,0,0,0,.08.28l5.55,17.81a1.31,1.31,0,0,0,1.23.94c9.18.51,18.07-1.95,23.53-9.82,2.47-3.57,3.68-8,4.81-12.14,1-3.72,2.3-8.61,7.21-7.75a34.62,34.62,0,0,0,5.85.05H92.64c4.06,0,10.46-.9,10.69,4.65C103.6,13.83,98.51,15.19,93.85,17.74Z"/><path d="M72.62,52.84H27.31c-6.62,0-15.08,1.64-20.55-2C-1,45.77,2.45,33.05,11.91,33.56c4.77.25,6.71,5.41,4.72,9.39-.9,1.79-3.16,2.37-5,2.07-3.51-.56-3.52-6.42.48-6.22,1.65.08,1.64-2.48,0-2.56C6.27,36,4.7,43.54,9.09,46.73s10.28-.85,10.74-5.53C21.23,27,.55,28.7,0,41.78c-.38,9.42,7.2,13.61,15.27,13.61H82.47c3.37,0,6.44.17,9.23-2.1,2.56-2.08,3.51-6.23,3.55-9.39a1.28,1.28,0,0,0-2.55,0A13.2,13.2,0,0,1,91.1,50c-1.49,2.71-4.29,2.84-7,2.84H72.62Z"/></g></g></svg>