<svg xmlns="http://www.w3.org/2000/svg" viewBox="0 0 58.93 66.79"><g id="Layer_2" data-name="Layer 2"><g id="_5" data-name="5"><g id="Illustration"><path d="M29.15,29.66a1.74,1.74,0,1,0,1.74,1.73A1.73,1.73,0,0,0,29.15,29.66Z"/><path d="M29.15,45.73a1.74,1.74,0,1,0,1.74,1.73A1.73,1.73,0,0,0,29.15,45.73Z"/><path d="M29.15,37.69a1.74,1.74,0,1,0,1.74,1.74A1.74,1.74,0,0,0,29.15,37.69Z"/><path d="M25.56,12.21A1.54,1.54,0,1,0,24,10.67,1.53,1.53,0,0,0,25.56,12.21Z"/><path d="M33.81,12.21a1.54,1.54,0,1,0-1.54-1.54A1.54,1.54,0,0,0,33.81,12.21Z"/><path d="M29.18,18.17c.57,1.2,1.07-.07,1.07-.07l1.61-4.8a3.43,3.43,0,0,0-4.35,0S28.59,16.9,29.18,18.17Z"/><path d="M58,24.42l-3.9-1.2c.32-1.29.64-2.58,1-3.87.39-1.59-2.07-2.27-2.46-.67s-.75,3.06-1.13,4.59c-1.53.93-3,1.95-4.61,2.79-.34.18-.69.35-1,.51a22,22,0,0,0-5.68-6.76,14.46,14.46,0,0,0,2.23-6.66,1.5,1.5,0,0,0,0-.37,1.37,1.37,0,0,0,0-.36A13,13,0,0,0,29.68,0c-7.2-.36-12.42,6.11-12.76,12.77a11,11,0,0,0,2.13,7.12,25,25,0,0,0-5.54,6.85l-.88-.4a48.58,48.58,0,0,1-5.2-3.07c-.38-1.54-.75-3.07-1.13-4.6s-2.85-.92-2.46.67c.32,1.29.63,2.58,1,3.87l-3.9,1.2a1.28,1.28,0,0,0,.68,2.46l4.57-1.41c1.54.94,3,2,4.62,2.8.51.27,1,.53,1.57.78a35.07,35.07,0,0,0-2.46,7.3C7.09,49,10.05,62.46,24,66c13.7,3.52,26.21-5.61,26.56-19.64A45,45,0,0,0,47,28.83l.6-.27a48.8,48.8,0,0,0,5.21-3.08l4.56,1.4A1.28,1.28,0,0,0,58,24.42ZM42.16,31.19c.86-.48,1.74-.92,2.62-1.34A45,45,0,0,1,48,46.39c-.33,13.25-12,20.08-24.34,16.92-12.56-3.22-13.41-16.72-11.1-27.26a30.2,30.2,0,0,1,2-6c.76.35,1.51.71,2.25,1.12,1.44.79,2.73-1.42,1.29-2.21-.78-.42-1.56-.82-2.36-1.2a20.4,20.4,0,0,1,5.08-5.94,14.44,14.44,0,0,0,8.89,3.7,11.35,11.35,0,0,0,9.07-3.88,18.15,18.15,0,0,1,4.94,5.94c-.95.43-1.9.88-2.82,1.38C39.42,29.77,40.71,32,42.16,31.19ZM29.68,2.57c5.76-.29,10,4.87,10.21,10.21-.66,13.16-19.75,13.16-20.42,0C19.18,7,24.35,2.84,29.68,2.57Z"/></g></g></g></svg>