<svg xmlns="http://www.w3.org/2000/svg" viewBox="0 0 63.68 66.42"><g id="Layer_2" data-name="Layer 2"><g id="_12" data-name="12"><g id="Illustration"><path d="M59.37,11C61.79,8.67,66,2.92,62.06.4,60-.89,58.18,1.2,57.74,3A29.3,29.3,0,0,0,57,8.17c-.47-.11-.94-.18-1.39-.24a110.58,110.58,0,0,0-14.45-.57c-2.23,0-18.33-1.51-18.33,3a2,2,0,0,0,.37,1.15c.21,2.59.45,5.3.58,8A1.37,1.37,0,0,0,23.87,21,47.52,47.52,0,0,1,23,32.85C21.17,41.16,9,40.41,3.42,45.17-1,49-.85,55.39,2.36,59.89c4.12,5.79,11,6.34,17.47,6.46a173,173,0,0,0,24.09-.83l.22,0c.76-.1,1.52-.19,2.27-.3,7.51-1.12,12.69-4.38,13.65-12.37s-.38-16.06-.53-23.95C59.42,22.91,59.38,17,59.37,11ZM17.57,41.71c4.9-2,7.64-5.38,8.33-10.6a58.41,58.41,0,0,0,.46-6.92l.57.73a1.25,1.25,0,0,0,1.8,0l1.93-2.26,2.52,2.76a1.3,1.3,0,0,0,1.81,0l2.6-2.6,2.67,2.76a1.27,1.27,0,0,0,1.81,0l2.15-2.73,2.41,2.84a1.28,1.28,0,0,0,1.81,0l2.76-2.84c.69.84,1.38,1.68,2.08,2.51a1.27,1.27,0,0,0,1.8,0L57,23.52q.21,9.68.64,19.34c-10.95-.36-15.94,10.53-15,20.32-7.53.93-15.26.75-22.8.62C13.14,63.69,5.68,62.89,3,55.68-.58,46.33,11.71,44.14,17.57,41.71ZM60.84,2.65c.92.76-.34,2.7-1.06,3.76C59.94,5.26,60.41,2.29,60.84,2.65Zm-4.65,7.73a37.58,37.58,0,0,1-4.68.7,84,84,0,0,1-8.68.51c-4.85.11-11.07.46-15.93-1.12.24,0,.47-.08.71-.1,1.08-.15,2.17-.19,3.26-.26,3.43-.21,6.88-.19,10.32-.2,3,0,6,0,9.05.14C50.79,10.07,54.51,10.11,56.19,10.38ZM39.54,14.14a85.67,85.67,0,0,0,14.58-.86,19.71,19.71,0,0,0,2.72-.54c0,2.43,0,4.87.07,7.29l-2.63,2.56-2.11-2.54a1.26,1.26,0,0,0-1.8,0L47.6,22.9c-.84-1-1.67-2-2.51-3a1.26,1.26,0,0,0-1.8,0l-2.22,2.81L38.5,20.1a1.28,1.28,0,0,0-1.8,0c-.86.86-1.72,1.71-2.57,2.57-.87-1-1.73-1.9-2.6-2.84a1.26,1.26,0,0,0-1.8,0L27.87,22l-1.56-2c-.09-2.33-.23-4.65-.4-6.93C30.27,14.44,37.94,14.11,39.54,14.14Zm5.59,48.68c-.86-8.39,3.32-17.71,12.66-17.4l-.06.08c0,.09,0,.17,0,.25.18,3.94.1,8.1-1.65,11.72-1.9,3.92-6.51,4.61-10.36,5.26Z"/></g></g></g></svg>