<svg xmlns="http://www.w3.org/2000/svg" viewBox="0 0 67.63 56.25"><g id="Layer_2" data-name="Layer 2"><g id="_15" data-name="15"><path d="M17.45,11.23c1.14,1.19,2.94-.62,1.81-1.81L13.17,3c-1.13-1.2-2.94.61-1.8,1.8Z"/><path d="M9.13,37.33.87,40.44c-1.53.58-.87,3.05.67,2.47l8.27-3.12C11.34,39.22,10.67,36.75,9.13,37.33Z"/><path d="M50.18,11.23l6.09-6.41c1.13-1.19-.67-3-1.81-1.8l-6.08,6.4C47.24,10.61,49.05,12.42,50.18,11.23Z"/><path d="M66.77,38.74,58.5,35.63c-1.54-.58-2.2,1.89-.68,2.46l8.27,3.11C67.63,41.78,68.3,39.32,66.77,38.74Z"/><path d="M50.57,39.19c-.09-.74-.17-1.47-.26-2.2a3.35,3.35,0,0,1,0-.73L63.42,21.88c.57-.63.45-2-.56-2.13L44.18,17.12a.46.46,0,0,1,0-.1c-.31-.54-.62-1.09-.92-1.64L39.92,9.5,35,.62a1.29,1.29,0,0,0-2.21,0L23.4,16.73,5,20.46a1.28,1.28,0,0,0-.56,2.13L17.08,36.32c0,.07,0,.16,0,.28l-.18,1.93c-.2,2.28-.41,4.56-.61,6.84-.28,3.17-.57,6.34-.85,9.51-.09,1,1.13,1.47,1.92,1.1L34,48.2h0l1.75.84,6.17,3,8.59,4.11c.76.37,2,0,1.92-1.1l-1.14-9.57C51.06,43.36,50.82,41.27,50.57,39.19ZM60,21.9,48,35c-1.37,1.49.35,7.06.56,8.79l1.08,9.11-7.16-3.43c-2.18-1-6-3.92-8.47-3.92s-6.32,2.82-8.54,3.86l-7.3,3.41.66-7.42c.25-2.74,1.55-7.14.81-9.84-.66-2.39-4.66-5.27-6.28-7l-5.53-6L24.49,19.1h.07l.1,0,.09,0a1,1,0,0,0,.69-.73q4.2-7.23,8.4-14.46l3.88,6.94c1.4,2.51,2.69,6.35,4.75,8.41,1.51,1.51,6.94,1.22,8.91,1.5ZM44.34,17.38c.09.09.1.14,0,0ZM33.58,48Z"/><path d="M39.17,22.64c-.59-1.06-1.18-2.13-1.78-3.19L35,15.18a1.28,1.28,0,0,0-2.2,0L28.24,23l-9,1.83A1.29,1.29,0,0,0,18.68,27l6.06,6.58a5.44,5.44,0,0,1,0,1l-.27,3c-.15,1.73-.31,3.46-.46,5.19-.1,1.06,1.13,1.47,1.92,1.11l8-3.74a5.69,5.69,0,0,1,.61.25l2.72,1.31L42,43.92c.77.37,2-.05,1.92-1.11l-1.08-9.12a3.8,3.8,0,0,1,.43-.53l2.55-2.8,3.42-3.74c.58-.63.46-2-.56-2.13l-9.1-1.28A6.27,6.27,0,0,1,39.17,22.64Zm1.48,14.57c.14,1.15.27,2.31.41,3.46l-2.51-1.21c-1.22-.58-3.16-2.05-4.58-2.05-1.2,0-2.81,1.19-3.85,1.67l-3.37,1.58c.09-1,.18-2.07.28-3.11.11-1.23.89-3.83.21-5a29.68,29.68,0,0,0-5.09-5.69l7.17-1.46h.08l.1,0,.08,0a1,1,0,0,0,.7-.74l3.54-6.09c1.13,2.39,2.29,5.11,4,6.77.9.9,3.43.73,4.57.89l3.28.46a31,31,0,0,0-5.27,5.93C39.71,33.65,40.51,36.07,40.65,37.21Zm-7,2.81Zm9.06-6.19c0,.09-.05.09,0,0ZM39.65,23.35c.05,0,.05,0,0,0Z"/></g></g></svg>