<svg xmlns="http://www.w3.org/2000/svg" viewBox="0 0 50.77 64.68"><g id="Layer_2" data-name="Layer 2"><g id="_8" data-name="8"><g id="Illustration"><path d="M50.43,53.72l-9-10.79h5.21a1.29,1.29,0,0,0,.91-2.18l-11.37-12h1.92a1.29,1.29,0,0,0,.9-2.18q-4.2-5.22-8.41-10.42c.87.23,2-.58,1.59-1.55L30.31,10l3.38-2.1a1.29,1.29,0,0,0-.64-2.38H28.44c-.71-1.48-1.76-3.47-1.76-4.35A1.12,1.12,0,0,0,25.39,0a1.15,1.15,0,0,0-1.33,1.2c0,.88-1,2.87-1.75,4.35H17.7a1.29,1.29,0,0,0-.65,2.38L20.43,10l-1.74,4.27a1.09,1.09,0,0,0-.09.23l0,.05a1,1,0,0,0,.57,1.4,1.11,1.11,0,0,0,1,.17l-8.38,10.4a1.29,1.29,0,0,0,.9,2.18H14.6l-11.37,12a1.29,1.29,0,0,0,.91,2.18H9.35l-9,10.79a1.29,1.29,0,0,0,.9,2.18h12v7.5a1.29,1.29,0,0,0,1.27,1.28h19.8a1.29,1.29,0,0,0,1.28-1.28V55.9h14A1.29,1.29,0,0,0,50.43,53.72ZM28.76,58.14v4h-2V59.51a1.28,1.28,0,0,0-2.55,0v2.61H20V58.48a1.28,1.28,0,0,0-2.55,0v3.64H15.75V55.9H33v6.22H31.31v-4A1.28,1.28,0,0,0,28.76,58.14Zm5.51-4.79H4l9-10.8a1.28,1.28,0,0,0-.9-2.17h-5l11.37-12a1.28,1.28,0,0,0-.91-2.17H15.34l10-12.43c3.4,4.11,6.74,8.27,10.08,12.43H33.21a1.28,1.28,0,0,0-.9,2.17q5.67,6,11.36,12h-5a1.28,1.28,0,0,0-.9,2.17l9,10.8ZM27.5,9.86l.84,2.05c-.78-.45-1.55-.91-2.32-1.37a1.29,1.29,0,0,0-1.29,0l-2.32,1.37c.28-.68.56-1.37.83-2.05a1.27,1.27,0,0,0-.58-1.44l-.49-.31h.94a1.31,1.31,0,0,0,1.23-.94c.27-.64.65-1.38,1-2.15.38.77.77,1.51,1,2.15a1.31,1.31,0,0,0,1.23.94h.95l-.5.31A1.27,1.27,0,0,0,27.5,9.86Z"/></g></g></g></svg>