<svg preserveAspectRatio="none" xmlns="http://www.w3.org/2000/svg" viewBox="0 0 45.66 82.22"><defs><style>.cls-1{fill:#8e24aa;}</style></defs><g id="Layer_2" data-name="Layer 2"><g id="objects"><path class="cls-1" d="M22.83,82.22a1.9,1.9,0,0,1-1.34-.56l-7.27-7.27a1.9,1.9,0,0,1,2.69-2.69l5.92,5.92,5.93-5.92a1.9,1.9,0,0,1,2.69,2.69l-7.27,7.27A1.91,1.91,0,0,1,22.83,82.22Z"/><path class="cls-1" d="M22.83,79.47a1.9,1.9,0,0,1-1.9-1.9V44.38a1.91,1.91,0,0,1,3.81,0V77.57A1.91,1.91,0,0,1,22.83,79.47Z"/><path class="cls-1" d="M22.83,45.66A22.83,22.83,0,1,1,45.66,22.83,22.85,22.85,0,0,1,22.83,45.66Zm0-41.85a19,19,0,1,0,19,19A19,19,0,0,0,22.83,3.81Z"/></g></g></svg>