<svg preserveAspectRatio="none" xmlns="http://www.w3.org/2000/svg" viewBox="0 0 55.84 79.21"><defs><style>.cls-1{fill:#ef5350;}</style></defs><g id="Layer_2" data-name="Layer 2"><g id="objects"><path class="cls-1" d="M27.92,79.21a1.93,1.93,0,0,1-1.35-.56l-7.26-7.27A1.9,1.9,0,0,1,22,68.69l5.92,5.92,5.92-5.92a1.9,1.9,0,0,1,2.69,2.69l-7.26,7.27A1.93,1.93,0,0,1,27.92,79.21Z"/><path class="cls-1" d="M27.92,43a3.34,3.34,0,0,1-2.78-1.47L.58,5.24A3.35,3.35,0,0,1,3.36,0H52.48a3.35,3.35,0,0,1,2.78,5.24L30.7,41.56A3.33,3.33,0,0,1,27.92,43ZM4.2,3.81,27.92,38.89,51.64,3.81Z"/><path class="cls-1" d="M27.92,76.46a1.9,1.9,0,0,1-1.9-1.9V41.38a1.9,1.9,0,1,1,3.8,0V74.56A1.9,1.9,0,0,1,27.92,76.46Z"/></g></g></svg>