<svg preserveAspectRatio="none" xmlns="http://www.w3.org/2000/svg" xmlns:xlink="http://www.w3.org/1999/xlink" viewBox="0 0 32.15 47.83"><defs><style>.cls-1{fill:url(#radial-gradient);}.cls-2{fill:#00b33b;}.cls-3{fill:#008c2f;}.cls-4{fill:#6f9;}.cls-5{fill:#fff;}.cls-6{fill:#ccc;}.cls-7{fill:#6b6b6b;}</style><radialGradient id="radial-gradient" cx="19.69" cy="11.35" r="24.85" gradientUnits="userSpaceOnUse"><stop offset="0" stop-color="#ff5f00"/><stop offset="0.33" stop-color="#ff6300"/><stop offset="0.67" stop-color="#ff7000"/><stop offset="1" stop-color="#ff8300"/></radialGradient></defs><g id="Layer_2" data-name="Layer 2"><g id="Layer_1-2" data-name="Layer 1"><path class="cls-1" d="M32.15,16.08a16.08,16.08,0,1,0-30,8L15.49,47.49a.68.68,0,0,0,.59.34.67.67,0,0,0,.58-.34L30.05,24A16.06,16.06,0,0,0,32.15,16.08Z"/><path class="cls-2" d="M32.15,16.08a16.08,16.08,0,1,0-30,8L15.49,47.49a.68.68,0,0,0,.59.34.67.67,0,0,0,.58-.34L30.05,24A16.06,16.06,0,0,0,32.15,16.08Z"/><path class="cls-3" d="M16.08,46.38C16,46.3,7,30.92,2,22.67A15.3,15.3,0,0,1,.14,18.22a16.12,16.12,0,0,0,2,5.82C6.4,31.55,15.32,47.18,15.49,47.49a.68.68,0,0,0,.58.34h0a.67.67,0,0,0,.58-.34L30,24C27.69,27.74,16.15,46.3,16.08,46.38Z"/><circle class="cls-3" cx="16.08" cy="16.08" r="13.31"/><path class="cls-2" d="M24.9,7.26a12.47,12.47,0,1,1-17.64,0A12.49,12.49,0,0,1,24.9,7.26Z"/><path class="cls-4" d="M31.63,15.87A15.34,15.34,0,0,0,5,5.45,15.34,15.34,0,0,1,26.71,27.12,15.3,15.3,0,0,0,31.63,15.87Z"/><path class="cls-5" d="M16.08,28.2A12.12,12.12,0,1,1,28.2,16.08,12.14,12.14,0,0,1,16.08,28.2Z"/><path class="cls-6" d="M16.08,4A12.1,12.1,0,0,0,7.15,7.89,12.11,12.11,0,0,1,24.26,25,12.11,12.11,0,0,0,16.08,4Z"/><path class="cls-7" d="M19.12,20.59a6,6,0,0,0-1.88.28,3.75,3.75,0,0,1,2.41-.81c1.07-1.13,1.39-2.92,1.75-5a5.41,5.41,0,0,0-1.34-.85v-2c0-.4-.66-.76-1.67-1l-.5-1.1c-.1-.22-.87-.4-1.81-.4s-1.72.18-1.82.4l-.49,1.1c-1,.22-1.67.58-1.67,1v2a5.41,5.41,0,0,0-1.34.85c.36,2.05.67,3.84,1.74,5a3.8,3.8,0,0,1,2.42.81A6,6,0,0,0,13,20.59c-1.74,0-3.16.63-3.25,1.43a6.91,6.91,0,0,1,2.66-.48,5.89,5.89,0,0,1,3.27.83l.37-6.22.37,6.22a5.84,5.84,0,0,1,3.27-.83,6.86,6.86,0,0,1,2.65.48C22.28,21.22,20.86,20.59,19.12,20.59Zm-3-8.91c.51,0,1,0,1.37.07v1.61c-.43-.1-.88-.21-1.37-.31-.49.1-.95.21-1.37.31V11.75C15.11,11.71,15.57,11.68,16.08,11.68ZM19.44,14c-.41-.16-.87-.3-1.37-.44V11.85a3,3,0,0,1,1.37.49Zm-6.72-1.63a3,3,0,0,1,1.37-.49v1.68a13.08,13.08,0,0,0-1.37.44Z"/></g></g></svg>