<svg preserveAspectRatio="none" xmlns="http://www.w3.org/2000/svg" xmlns:xlink="http://www.w3.org/1999/xlink" viewBox="0 0 32.15 47.83"><defs><style>.cls-1{fill:url(#radial-gradient);}.cls-2{fill:#c7703e;}.cls-3{fill:#a15d36;}.cls-4{fill:#e9af8d;}.cls-5{fill:#fff;}.cls-6{fill:#d2d2d2;}.cls-7{fill:#6b6b6b;}</style><radialGradient id="radial-gradient" cx="19.69" cy="11.35" r="24.85" gradientUnits="userSpaceOnUse"><stop offset="0" stop-color="#4169da"/><stop offset="0.44" stop-color="#4165da"/><stop offset="0.89" stop-color="#4158da"/><stop offset="1" stop-color="#4154da"/></radialGradient></defs><g id="Layer_2" data-name="Layer 2"><g id="Layer_1-2" data-name="Layer 1"><path class="cls-1" d="M32.15,16.08a16.08,16.08,0,1,0-30,8L15.49,47.49a.68.68,0,0,0,.59.34.67.67,0,0,0,.58-.34L30.05,24A16.06,16.06,0,0,0,32.15,16.08Z"/><path class="cls-2" d="M32.15,16.08a16.08,16.08,0,1,0-30,8L15.49,47.49a.68.68,0,0,0,.59.34.67.67,0,0,0,.58-.34L30.05,24A16.06,16.06,0,0,0,32.15,16.08Z"/><path class="cls-3" d="M16.08,46.38C16,46.3,7,30.92,2,22.67A15.3,15.3,0,0,1,.14,18.22a16.12,16.12,0,0,0,2,5.82C6.4,31.55,15.32,47.18,15.49,47.49a.68.68,0,0,0,.58.34h0a.67.67,0,0,0,.58-.34L30,24C27.69,27.74,16.15,46.3,16.08,46.38Z"/><path class="cls-3" d="M25.49,6.67a13.31,13.31,0,1,1-18.82,0A13.32,13.32,0,0,1,25.49,6.67Z"/><path class="cls-2" d="M24.9,7.26a12.47,12.47,0,1,1-17.64,0A12.49,12.49,0,0,1,24.9,7.26Z"/><path class="cls-4" d="M31.63,15.87A15.34,15.34,0,0,0,5,5.45,15.34,15.34,0,0,1,26.71,27.13,15.34,15.34,0,0,0,31.63,15.87Z"/><path class="cls-5" d="M16.08,28.2A12.12,12.12,0,1,1,28.2,16.08,12.14,12.14,0,0,1,16.08,28.2Z"/><path class="cls-6" d="M16.08,4A12.1,12.1,0,0,0,7.15,7.89,12.11,12.11,0,0,1,24.26,25,12.11,12.11,0,0,0,16.08,4Z"/><path class="cls-7" d="M22.37,17.17V16.6A.64.64,0,0,0,22,16l-1.07-.47v0c0-.39-.21-.72-.47-.72s-.33.15-.42.37l-.51-.23c0-.47-.26-.85-.58-.85a.58.58,0,0,0-.48.39L17.33,14c.05-.94.08-1.77.08-2.39,0-.9-.85-1.82-1.33-1.82s-1.34.92-1.34,1.82c0,.62,0,1.45.08,2.39l-1.13.49a.57.57,0,0,0-.48-.39c-.31,0-.57.38-.57.85l-.52.23a.49.49,0,0,0-.41-.37c-.27,0-.48.33-.48.72v0L10.16,16a.64.64,0,0,0-.38.58v.57l5.22-.6c.12,1.46.27,2.89.46,4L13.7,21.87v.5l2-.47h0c.1.31.21.48.32.48s.21-.17.32-.48h0l2,.47v-.5L16.7,20.54c.18-1.08.34-2.51.46-4Zm-5.6-5.37a.84.84,0,0,0-.69-.5.85.85,0,0,0-.7.5,0,0,0,0,1-.06,0s0,0,0-.06V11.6c0-.56.39-1.14.8-1.18s.8.62.8,1.18a1,1,0,0,1,0,.17s0,.06,0,.06A0,0,0,0,1,16.77,11.8Z"/></g></g></svg>