<svg preserveAspectRatio="none" xmlns="http://www.w3.org/2000/svg" xmlns:xlink="http://www.w3.org/1999/xlink" viewBox="0 0 32.15 47.83"><defs><style>.cls-1{fill:url(#radial-gradient);}.cls-2{fill:#d90048;}.cls-3{fill:#b3003c;}.cls-4{fill:#db5882;}.cls-5{fill:#fff;}.cls-6{fill:#ccc;}.cls-7{fill:#6b6b6b;}</style><radialGradient id="radial-gradient" cx="19.69" cy="11.35" r="24.85" gradientUnits="userSpaceOnUse"><stop offset="0" stop-color="#ff5f00"/><stop offset="0.33" stop-color="#ff6300"/><stop offset="0.67" stop-color="#ff7000"/><stop offset="1" stop-color="#ff8300"/></radialGradient></defs><g id="Layer_2" data-name="Layer 2"><g id="Layer_1-2" data-name="Layer 1"><path class="cls-1" d="M32.15,16.08a16.08,16.08,0,1,0-30,8L15.49,47.49a.67.67,0,0,0,1.17,0L30.05,24A16.06,16.06,0,0,0,32.15,16.08Z"/><path class="cls-2" d="M32.15,16.08a16.08,16.08,0,1,0-30,8L15.49,47.49a.67.67,0,0,0,1.17,0L30.05,24A16.06,16.06,0,0,0,32.15,16.08Z"/><path class="cls-3" d="M16.08,46.38C16,46.3,7,30.92,2,22.67A15.3,15.3,0,0,1,.14,18.22a16.12,16.12,0,0,0,2,5.82C6.4,31.55,15.32,47.18,15.49,47.49a.68.68,0,0,0,.59.34h0a.67.67,0,0,0,.58-.34L30,24C27.69,27.74,16.15,46.3,16.08,46.38Z"/><circle class="cls-3" cx="16.08" cy="16.08" r="13.31"/><path class="cls-2" d="M24.9,7.26a12.47,12.47,0,1,1-17.64,0A12.49,12.49,0,0,1,24.9,7.26Z"/><path class="cls-4" d="M31.63,15.87A15.34,15.34,0,0,0,5,5.45,15.34,15.34,0,0,1,26.71,27.12,15.3,15.3,0,0,0,31.63,15.87Z"/><path class="cls-5" d="M16.08,28.2A12.12,12.12,0,1,1,28.2,16.08,12.14,12.14,0,0,1,16.08,28.2Z"/><path class="cls-6" d="M16.08,4A12.1,12.1,0,0,0,7.15,7.89,12.11,12.11,0,0,1,24.26,25,12.11,12.11,0,0,0,16.08,4Z"/><path class="cls-7" d="M22.23,13a.6.6,0,0,0-.42-.22L13,12.09l-.35-1.8a.61.61,0,0,0-.59-.51H10.4a.63.63,0,0,0,0,1.25h1.14l.34,1.75v0L12.69,17a1.75,1.75,0,0,0-.54.44,1.8,1.8,0,0,0-.39,1.47,1.73,1.73,0,0,0,1.7,1.54h5.91a1,1,0,0,0-.94.95.95.95,0,0,0,1.89,0,1,1,0,0,0-.94-.95h.91a.62.62,0,0,0,0-1.24H13.46a.53.53,0,0,1-.5-.5.56.56,0,0,1,.12-.47.64.64,0,0,1,.38-.21h7.93a.62.62,0,0,0,.61-.57l.37-4A.68.68,0,0,0,22.23,13Zm-9,.37,2.43.19.08,1.36-2.23-.09Zm.66,3.46-.26-1.38,2.15.09.07,1.29Zm4.65,0H16.47l-.08-1.27,2.19.09Zm.05-1.8-2.24-.09-.08-1.33,2.36.18Zm2.25,1.8H19.15l0-1.16,1.74.07ZM21,15.1,19.21,15l0-1.22,1.85.14Zm-7.63,6.33a.95.95,0,1,0,1-.95A.95.95,0,0,0,13.36,21.43Z"/></g></g></svg>