<svg preserveAspectRatio="none" xmlns="http://www.w3.org/2000/svg" xmlns:xlink="http://www.w3.org/1999/xlink" viewBox="0 0 32.15 47.83"><defs><style>.cls-1{fill:url(#radial-gradient);}.cls-2{fill:#0bf;}.cls-3{fill:#008dbf;}.cls-4{fill:#7adbff;}.cls-5{fill:#fff;}.cls-6{fill:#ccc;}.cls-7{fill:#6b6b6b;}</style><radialGradient id="radial-gradient" cx="19.69" cy="11.35" r="24.85" gradientUnits="userSpaceOnUse"><stop offset="0" stop-color="#ff5f00"/><stop offset="0.33" stop-color="#ff6300"/><stop offset="0.67" stop-color="#ff7000"/><stop offset="1" stop-color="#ff8300"/></radialGradient></defs><g id="Layer_2" data-name="Layer 2"><g id="Layer_1-2" data-name="Layer 1"><path class="cls-1" d="M32.15,16.08a16.08,16.08,0,1,0-30,8L15.49,47.49a.68.68,0,0,0,.59.34.67.67,0,0,0,.58-.34L30.05,24A16.06,16.06,0,0,0,32.15,16.08Z"/><path class="cls-2" d="M32.15,16.08a16.08,16.08,0,1,0-30,8L15.49,47.49a.68.68,0,0,0,.59.34.67.67,0,0,0,.58-.34L30.05,24A16.06,16.06,0,0,0,32.15,16.08Z"/><path class="cls-3" d="M16.08,46.38C16,46.3,7,30.92,2,22.67A15.3,15.3,0,0,1,.14,18.22a16.12,16.12,0,0,0,2,5.82C6.4,31.55,15.32,47.18,15.49,47.49a.68.68,0,0,0,.58.34h0a.67.67,0,0,0,.58-.34L30,24C27.69,27.74,16.15,46.3,16.08,46.38Z"/><path class="cls-3" d="M25.49,6.67a13.31,13.31,0,1,1-18.82,0A13.32,13.32,0,0,1,25.49,6.67Z"/><path class="cls-2" d="M24.9,7.26a12.47,12.47,0,1,1-17.64,0A12.49,12.49,0,0,1,24.9,7.26Z"/><path class="cls-4" d="M31.63,15.87A15.34,15.34,0,0,0,5,5.45,15.34,15.34,0,0,1,26.71,27.12,15.3,15.3,0,0,0,31.63,15.87Z"/><path class="cls-5" d="M16.08,28.2A12.12,12.12,0,1,1,28.2,16.08,12.14,12.14,0,0,1,16.08,28.2Z"/><path class="cls-6" d="M16.08,4A12.1,12.1,0,0,0,7.15,7.89,12.11,12.11,0,0,1,24.26,25,12.11,12.11,0,0,0,16.08,4Z"/><path class="cls-7" d="M21.07,16.87a2.07,2.07,0,0,1-.45-1.55c.34-1.41,1.53-2.1-1.28-4a.2.2,0,0,0-.24.31,9.47,9.47,0,0,1,1.11,1.22,1.08,1.08,0,0,0-.11.18.83.83,0,0,0,0,1,.67.67,0,0,0,.19.23c0,.11-.09.23-.13.34-.82,2.21.79,2.74.85,3.78a1,1,0,0,1-2,0A2.87,2.87,0,0,1,19.38,17c.49-1.17.11-2.16-1.48-2.31V11.05a1.27,1.27,0,0,0-1.26-1.27H12.36a1.26,1.26,0,0,0-1.26,1.27V21.74h-.38a.25.25,0,0,0-.25.25v.13a.25.25,0,0,0,.25.25h7.55a.26.26,0,0,0,.26-.25V22a.26.26,0,0,0-.26-.25H17.9V15.36c.37,0,.77.09.94.47.31,1-1,1.89-.31,3.22a1.66,1.66,0,0,0,3.15-.58C21.68,18,21.64,17.77,21.07,16.87Zm-.64-2.94a.77.77,0,0,1-.1-.94,1.07,1.07,0,0,1,.21.65Zm-8.7-2.88a.63.63,0,0,1,.63-.63h4.28a.63.63,0,0,1,.63.63V13a.64.64,0,0,1-.63.64H12.36a.64.64,0,0,1-.63-.64Z"/></g></g></svg>