<svg preserveAspectRatio="none" xmlns="http://www.w3.org/2000/svg" xmlns:xlink="http://www.w3.org/1999/xlink" viewBox="0 0 32.15 47.83"><defs><style>.cls-1{fill:url(#radial-gradient);}.cls-2{fill:#ff9d00;}.cls-3{fill:#cc7e00;}.cls-4{fill:#ffc466;}.cls-5{fill:#fff;}.cls-6{fill:#ccc;}.cls-7{fill:#6b6b6b;}</style><radialGradient id="radial-gradient" cx="19.69" cy="11.35" r="24.85" gradientUnits="userSpaceOnUse"><stop offset="0" stop-color="#ff5f00"/><stop offset="0.33" stop-color="#ff6300"/><stop offset="0.67" stop-color="#ff7000"/><stop offset="1" stop-color="#ff8300"/></radialGradient></defs><g id="Layer_2" data-name="Layer 2"><g id="Layer_1-2" data-name="Layer 1"><path class="cls-1" d="M32.15,16.08a16.08,16.08,0,1,0-30,8L15.49,47.49a.67.67,0,0,0,1.17,0L30.05,24A16.06,16.06,0,0,0,32.15,16.08Z"/><path class="cls-2" d="M32.15,16.08a16.08,16.08,0,1,0-30,8L15.49,47.49a.67.67,0,0,0,1.17,0L30.05,24A16.06,16.06,0,0,0,32.15,16.08Z"/><path class="cls-3" d="M16.08,46.38C16,46.3,7,30.92,2,22.67A15.3,15.3,0,0,1,.14,18.22a16.12,16.12,0,0,0,2,5.82C6.4,31.55,15.32,47.18,15.49,47.49a.68.68,0,0,0,.59.34h0a.67.67,0,0,0,.58-.34L30,24C27.69,27.74,16.15,46.3,16.08,46.38Z"/><circle class="cls-3" cx="16.08" cy="16.08" r="13.31"/><path class="cls-2" d="M24.9,7.26a12.47,12.47,0,1,1-17.64,0A12.49,12.49,0,0,1,24.9,7.26Z"/><path class="cls-4" d="M31.63,15.87A15.34,15.34,0,0,0,5,5.45,15.34,15.34,0,0,1,26.71,27.12,15.3,15.3,0,0,0,31.63,15.87Z"/><path class="cls-5" d="M16.08,28.2A12.12,12.12,0,1,1,28.2,16.08,12.14,12.14,0,0,1,16.08,28.2Z"/><path class="cls-6" d="M16.08,4A12.1,12.1,0,0,0,7.15,7.89,12.11,12.11,0,0,1,24.26,25,12.11,12.11,0,0,0,16.08,4Z"/><path class="cls-7" d="M22.37,12.34l-.94-.1V11h-.32a30.69,30.69,0,0,0-3.6.19,4.59,4.59,0,0,0-1.43.33,4.76,4.76,0,0,0-1.44-.33A30.56,30.56,0,0,0,11,11h-.31v1.29l-1,.1V21.2l5.42-.56a1.39,1.39,0,0,0,1.75,0l5.42.56Zm-6-.33a16.34,16.34,0,0,1,4.41-.43v6.93a30.25,30.25,0,0,0-3.29.18,7.3,7.3,0,0,0-1.12.21Zm-5-.43a16.3,16.3,0,0,1,4.4.43V18.9a7.3,7.3,0,0,0-1.12-.21,30.06,30.06,0,0,0-3.28-.18ZM11,19.13a25.68,25.68,0,0,1,4,.26l-4,.42Zm10.07.68-4-.42a25.68,25.68,0,0,1,4-.26Z"/></g></g></svg>