<svg preserveAspectRatio="none" xmlns="http://www.w3.org/2000/svg" xmlns:xlink="http://www.w3.org/1999/xlink" viewBox="0 0 32.15 47.83"><defs><style>.cls-1{fill:url(#radial-gradient);}.cls-2{fill:#3cb9bd;}.cls-3{fill:#369ea1;}.cls-4{fill:#7ec8cc;}.cls-5{fill:#fff;}.cls-6{fill:#d2d2d2;}.cls-7{fill:#6b6b6b;}</style><radialGradient id="radial-gradient" cx="19.69" cy="11.35" r="24.85" gradientUnits="userSpaceOnUse"><stop offset="0" stop-color="#4169da"/><stop offset="0.44" stop-color="#4165da"/><stop offset="0.89" stop-color="#4158da"/><stop offset="1" stop-color="#4154da"/></radialGradient></defs><g id="Layer_2" data-name="Layer 2"><g id="Layer_1-2" data-name="Layer 1"><path class="cls-1" d="M32.15,16.08a16.08,16.08,0,1,0-30,8L15.49,47.49a.67.67,0,0,0,1.17,0L30.05,24A16.06,16.06,0,0,0,32.15,16.08Z"/><path class="cls-2" d="M32.15,16.08a16.08,16.08,0,1,0-30,8L15.49,47.49a.67.67,0,0,0,1.17,0L30.05,24A16.06,16.06,0,0,0,32.15,16.08Z"/><path class="cls-3" d="M16.08,46.38C16,46.3,7,30.92,2,22.67A15.3,15.3,0,0,1,.14,18.22a16.12,16.12,0,0,0,2,5.82C6.4,31.55,15.32,47.18,15.49,47.49a.68.68,0,0,0,.59.34h0a.67.67,0,0,0,.58-.34L30,24C27.69,27.74,16.15,46.3,16.08,46.38Z"/><circle class="cls-3" cx="16.08" cy="16.08" r="13.31"/><path class="cls-2" d="M24.9,7.26a12.47,12.47,0,1,1-17.64,0A12.49,12.49,0,0,1,24.9,7.26Z"/><path class="cls-4" d="M31.63,15.87A15.34,15.34,0,0,0,5,5.45,15.34,15.34,0,0,1,26.71,27.13,15.34,15.34,0,0,0,31.63,15.87Z"/><path class="cls-5" d="M16.08,28.2A12.12,12.12,0,1,1,28.2,16.08,12.14,12.14,0,0,1,16.08,28.2Z"/><path class="cls-6" d="M16.08,4A12.1,12.1,0,0,0,7.15,7.89,12.11,12.11,0,0,1,24.26,25,12.11,12.11,0,0,0,16.08,4Z"/><path class="cls-7" d="M15.38,9.78a.21.21,0,0,0-.2.19l0,2.65a.32.32,0,0,1-.32.31.33.33,0,0,1-.33-.31L14.45,10a.21.21,0,0,0-.2-.19.21.21,0,0,0-.2.19L14,12.62a.34.34,0,0,1-.33.31.33.33,0,0,1-.33-.31l0-2.65a.2.2,0,0,0-.2-.19.2.2,0,0,0-.19.19,28.1,28.1,0,0,0-.11,3.76,1.25,1.25,0,0,0,.79,1l.1.07a.41.41,0,0,1,.16.4,45,45,0,0,0-.49,6c0,.59.56,1.19.88,1.19s.88-.6.88-1.19a45,45,0,0,0-.49-6,.39.39,0,0,1,.16-.4l.09-.07a1.28,1.28,0,0,0,.8-1A28.1,28.1,0,0,0,15.58,10,.21.21,0,0,0,15.38,9.78Zm2.31,2.45a10.76,10.76,0,0,0-.25,4.2c.11.35.58.52.87.63a.26.26,0,0,1,.16.28c-.25,1.57-.85,2.69-.85,3.84,0,.59.56,1.19.88,1.19s.88-.6.88-1.19V10C19.38,9.45,18.36,10,17.69,12.23Z"/></g></g></svg>