<svg preserveAspectRatio="none" xmlns="http://www.w3.org/2000/svg" xmlns:xlink="http://www.w3.org/1999/xlink" viewBox="0 0 32.15 47.83"><defs><style>.cls-1{fill:url(#radial-gradient);}.cls-2{fill:#00e6e6;}.cls-3{fill:#00b3b3;}.cls-4{fill:#6ff;}.cls-5{fill:#fff;}.cls-6{fill:#ccc;}.cls-7{fill:#6b6b6b;}</style><radialGradient id="radial-gradient" cx="19.69" cy="11.35" r="24.85" gradientUnits="userSpaceOnUse"><stop offset="0" stop-color="#ff5f00"/><stop offset="0.33" stop-color="#ff6300"/><stop offset="0.67" stop-color="#ff7000"/><stop offset="1" stop-color="#ff8300"/></radialGradient></defs><g id="Layer_2" data-name="Layer 2"><g id="Layer_1-2" data-name="Layer 1"><path class="cls-1" d="M32.15,16.08a16.08,16.08,0,1,0-30,8L15.49,47.49a.68.68,0,0,0,.59.34.67.67,0,0,0,.58-.34L30.05,24A16.06,16.06,0,0,0,32.15,16.08Z"/><path class="cls-2" d="M32.15,16.08a16.08,16.08,0,1,0-30,8L15.49,47.49a.68.68,0,0,0,.59.34.67.67,0,0,0,.58-.34L30.05,24A16.06,16.06,0,0,0,32.15,16.08Z"/><path class="cls-3" d="M16.08,46.38C16,46.3,7,30.92,2,22.67A15.3,15.3,0,0,1,.14,18.22a16.12,16.12,0,0,0,2,5.82C6.4,31.55,15.32,47.18,15.49,47.49a.68.68,0,0,0,.58.34h0a.67.67,0,0,0,.58-.34L30,24C27.69,27.74,16.15,46.3,16.08,46.38Z"/><path class="cls-3" d="M25.49,6.67a13.31,13.31,0,1,1-18.82,0A13.32,13.32,0,0,1,25.49,6.67Z"/><path class="cls-2" d="M24.9,7.26a12.47,12.47,0,1,1-17.64,0A12.49,12.49,0,0,1,24.9,7.26Z"/><path class="cls-4" d="M31.63,15.87A15.34,15.34,0,0,0,5,5.45,15.34,15.34,0,0,1,26.71,27.12,15.3,15.3,0,0,0,31.63,15.87Z"/><path class="cls-5" d="M16.08,28.2A12.12,12.12,0,1,1,28.2,16.08,12.14,12.14,0,0,1,16.08,28.2Z"/><path class="cls-6" d="M16.08,4A12.1,12.1,0,0,0,7.15,7.89,12.11,12.11,0,0,1,24.26,25,12.11,12.11,0,0,0,16.08,4Z"/><path class="cls-7" d="M15.06,12.22A1.22,1.22,0,1,0,13.84,11,1.22,1.22,0,0,0,15.06,12.22Zm6.45,8.36L19.2,16.91a.62.62,0,0,0-.54-.3H16V15.43H18a.64.64,0,0,0,.64-.64.64.64,0,0,0-.64-.64H16v-1a1,1,0,1,0-1.92,0v1a4.11,4.11,0,1,0,4.66,4.42l1.67,2.65a.63.63,0,0,0,.54.31.7.7,0,0,0,.34-.1A.65.65,0,0,0,21.51,20.58Zm-4-2.32a2.83,2.83,0,1,1-3.39-2.77v1.45a1,1,0,0,0,1.09.95h2.3Z"/></g></g></svg>