<svg preserveAspectRatio="none" xmlns="http://www.w3.org/2000/svg" xmlns:xlink="http://www.w3.org/1999/xlink" viewBox="0 0 32.15 47.83"><defs><style>.cls-1{fill:url(#radial-gradient);}.cls-2{fill:#565656;}.cls-3{fill:#333;}.cls-4{fill:gray;}.cls-5{fill:#fff;}.cls-6{fill:#ccc;}.cls-7{fill:#6b6b6b;}</style><radialGradient id="radial-gradient" cx="19.69" cy="11.35" r="24.85" gradientUnits="userSpaceOnUse"><stop offset="0" stop-color="#ff5f00"/><stop offset="0.33" stop-color="#ff6300"/><stop offset="0.67" stop-color="#ff7000"/><stop offset="1" stop-color="#ff8300"/></radialGradient></defs><g id="Layer_2" data-name="Layer 2"><g id="Layer_1-2" data-name="Layer 1"><path class="cls-1" d="M32.15,16.08a16.08,16.08,0,1,0-30,8L15.49,47.49a.67.67,0,0,0,1.17,0L30.05,24A16.06,16.06,0,0,0,32.15,16.08Z"/><path class="cls-2" d="M32.15,16.08a16.08,16.08,0,1,0-30,8L15.49,47.49a.67.67,0,0,0,1.17,0L30.05,24A16.06,16.06,0,0,0,32.15,16.08Z"/><path class="cls-3" d="M16.08,46.38C16,46.3,7,30.92,2,22.67A15.3,15.3,0,0,1,.14,18.22a16.12,16.12,0,0,0,2,5.82c4.28,7.51,13.21,23.14,13.38,23.45a.67.67,0,0,0,.58.34h0a.67.67,0,0,0,.58-.34L30,24C27.69,27.74,16.15,46.3,16.08,46.38Z"/><circle class="cls-3" cx="16.08" cy="16.08" r="13.31"/><circle class="cls-2" cx="16.08" cy="16.08" r="12.47"/><path class="cls-4" d="M31.63,15.87A15.34,15.34,0,0,0,5,5.45,15.33,15.33,0,0,1,26.7,27.12,15.27,15.27,0,0,0,31.63,15.87Z"/><path class="cls-5" d="M16.08,28.2A12.12,12.12,0,1,1,28.2,16.08,12.13,12.13,0,0,1,16.08,28.2Z"/><path class="cls-6" d="M16.08,4A12.08,12.08,0,0,0,7.15,7.89,12.11,12.11,0,0,1,24.26,25,12.11,12.11,0,0,0,16.08,4Z"/><path class="cls-7" d="M18.78,9.78c-3.67,0-3.66,1.29-3.57,3.08a4.52,4.52,0,0,1,.85.24,1.43,1.43,0,0,1,1-.52,1.21,1.21,0,0,1,1.32.85c0,.42-.54.18-1.22.24l-.17,0a3.17,3.17,0,0,1,.64,2.47,1.9,1.9,0,0,1,1.19-.45,2,2,0,0,1,1.69,1.09c.24.58-.29-.12-1.69-.12a3.93,3.93,0,0,0-1.22.19c0,.31,0,.63,0,.95a4,4,0,0,1,0,.6,2.61,2.61,0,0,0,1.23.39c1.35,0,3.71-1.95,3.55-4.51S23.38,9.78,18.78,9.78Zm2.91,3.86c0,.43-.57.09-1.25,0s-1.26.18-1.23-.24a1.21,1.21,0,0,1,1.32-.85C21.22,12.64,21.73,13.22,21.69,13.64Zm-8.32-.3c-4.59,0-3.4,2-3.55,4.52s2.2,4.51,3.55,4.51,3.71-2,3.56-4.51S18,13.34,13.37,13.34Zm-3,3.65a1.28,1.28,0,0,1,2.47.22c0,.42-.56.08-1.24,0S10.37,17.42,10.41,17Zm4.53,2.6A1.85,1.85,0,0,1,13.37,21a1.85,1.85,0,0,1-1.56-1.37c-.23-.73.27.15,1.56.15S15.17,18.86,14.94,19.59Zm.18-2.36c-.69.06-1.22.4-1.25,0A1.28,1.28,0,0,1,16.34,17C16.38,17.42,15.8,17.18,15.12,17.23Z"/></g></g></svg>