<svg preserveAspectRatio="none" xmlns="http://www.w3.org/2000/svg" xmlns:xlink="http://www.w3.org/1999/xlink" viewBox="0 0 32.15 47.83"><defs><style>.cls-1{fill:url(#radial-gradient);}.cls-2{fill:#ff3700;}.cls-3{fill:#bd2900;}.cls-4{fill:#ff8766;}.cls-5{fill:#fff;}.cls-6{fill:#ccc;}.cls-7{fill:#6b6b6b;}</style><radialGradient id="radial-gradient" cx="19.69" cy="11.35" r="24.85" gradientUnits="userSpaceOnUse"><stop offset="0" stop-color="#ff3700"/><stop offset="1" stop-color="#ff3700"/></radialGradient></defs><g id="Layer_2" data-name="Layer 2"><g id="Layer_1-2" data-name="Layer 1"><path class="cls-1" d="M32.15,16.08a16.08,16.08,0,1,0-30,8L15.49,47.49a.68.68,0,0,0,.59.34.67.67,0,0,0,.58-.34L30.05,24A16.06,16.06,0,0,0,32.15,16.08Z"/><path class="cls-2" d="M32.15,16.08a16.08,16.08,0,1,0-30,8L15.49,47.49a.68.68,0,0,0,.59.34.67.67,0,0,0,.58-.34L30.05,24A16.06,16.06,0,0,0,32.15,16.08Z"/><path class="cls-3" d="M16.08,46.38C16,46.3,7,30.92,2,22.67A15.3,15.3,0,0,1,.14,18.22a16.12,16.12,0,0,0,2,5.82c4.28,7.51,13.21,23.14,13.38,23.45a.68.68,0,0,0,.58.34h0a.67.67,0,0,0,.58-.34L30,24C27.69,27.74,16.15,46.3,16.08,46.38Z"/><path class="cls-3" d="M25.49,6.67a13.31,13.31,0,1,1-18.82,0A13.32,13.32,0,0,1,25.49,6.67Z"/><path class="cls-2" d="M24.9,7.26a12.47,12.47,0,1,1-17.64,0A12.49,12.49,0,0,1,24.9,7.26Z"/><path class="cls-4" d="M31.63,15.87A15.34,15.34,0,0,0,5,5.45,15.34,15.34,0,0,1,26.71,27.12,15.3,15.3,0,0,0,31.63,15.87Z"/><path class="cls-5" d="M16.08,28.2A12.12,12.12,0,1,1,28.2,16.08,12.13,12.13,0,0,1,16.08,28.2Z"/><path class="cls-6" d="M16.08,4A12.08,12.08,0,0,0,7.15,7.89,12.11,12.11,0,0,1,24.26,25,12.11,12.11,0,0,0,16.08,4Z"/><path class="cls-7" d="M10,17.33H21.11V16.08a1.25,1.25,0,0,0-1.26-1.26H11a1.26,1.26,0,0,0-1.26,1.26v1A.26.26,0,0,0,10,17.33Zm9.52-2.87a4,4,0,0,0,1.55-2.35,3.9,3.9,0,0,0-2.81.17,3.93,3.93,0,0,0-1.55,2.35A4,4,0,0,0,19.56,14.46Zm2.56-2.79h-.76a.25.25,0,0,0-.25.25v6H10a.26.26,0,0,0-.26.26v1h0v1a.26.26,0,0,0,.26.25h.75a.25.25,0,0,0,.25-.25v-1H21.11v1a.25.25,0,0,0,.25.25h.76a.25.25,0,0,0,.25-.25V11.92A.25.25,0,0,0,22.12,11.67Z"/></g></g></svg>