<svg preserveAspectRatio="none" xmlns="http://www.w3.org/2000/svg" xmlns:xlink="http://www.w3.org/1999/xlink" viewBox="0 0 32.15 47.83"><defs><style>.cls-1{fill:url(#radial-gradient);}.cls-2{fill:#bf00e6;}.cls-3{fill:#9500b3;}.cls-4{fill:#c6f;}.cls-5{fill:#fff;}.cls-6{fill:#ccc;}.cls-7{fill:#6b6b6b;}</style><radialGradient id="radial-gradient" cx="19.69" cy="11.35" r="24.85" gradientUnits="userSpaceOnUse"><stop offset="0" stop-color="#ff5f00"/><stop offset="0.33" stop-color="#ff6300"/><stop offset="0.67" stop-color="#ff7000"/><stop offset="1" stop-color="#ff8300"/></radialGradient></defs><g id="Layer_2" data-name="Layer 2"><g id="Layer_1-2" data-name="Layer 1"><path class="cls-1" d="M32.15,16.08a16.08,16.08,0,1,0-30,8L15.49,47.49a.67.67,0,0,0,1.17,0L30.05,24A16.06,16.06,0,0,0,32.15,16.08Z"/><path class="cls-2" d="M32.15,16.08a16.08,16.08,0,1,0-30,8L15.49,47.49a.67.67,0,0,0,1.17,0L30.05,24A16.06,16.06,0,0,0,32.15,16.08Z"/><path class="cls-3" d="M16.08,46.38C16,46.3,7,30.92,2,22.67A15.3,15.3,0,0,1,.14,18.22a16.12,16.12,0,0,0,2,5.82c4.28,7.51,13.21,23.14,13.38,23.45a.67.67,0,0,0,.58.34h0a.67.67,0,0,0,.58-.34L30,24C27.69,27.74,16.15,46.3,16.08,46.38Z"/><path class="cls-3" d="M25.49,6.67a13.31,13.31,0,1,1-18.82,0A13.32,13.32,0,0,1,25.49,6.67Z"/><circle class="cls-2" cx="16.08" cy="16.08" r="12.47"/><path class="cls-4" d="M31.63,15.87A15.34,15.34,0,0,0,5,5.45,15.33,15.33,0,0,1,26.7,27.12,15.27,15.27,0,0,0,31.63,15.87Z"/><path class="cls-5" d="M16.08,28.2A12.12,12.12,0,1,1,28.2,16.08,12.13,12.13,0,0,1,16.08,28.2Z"/><path class="cls-6" d="M16.08,4A12.08,12.08,0,0,0,7.15,7.89,12.11,12.11,0,0,1,24.26,25,12.11,12.11,0,0,0,16.08,4Z"/><path class="cls-7" d="M20.54,12c.27-.12.49-.25.59-.28a.76.76,0,0,0-.08-.26.83.83,0,0,1,.21.21,2.22,2.22,0,0,1,.45-.07.83.83,0,0,0-.08-.12.71.71,0,0,1,.17.11l-.07-.11a.91.91,0,0,1,.16.11,1.06,1.06,0,0,1,.48.09A2,2,0,0,0,19.91,11s.07-.11.11-.15a.51.51,0,0,0-.18-.09.71.71,0,0,1,.25,0l-.15-.07h.24a.54.54,0,0,1,.49-.13.89.89,0,0,0-1.32,0,1.11,1.11,0,0,0-1.51-.63.72.72,0,0,1,.33.15h.1l-.06,0,0,0h.14l-.09.05a3,3,0,0,1,.39.86,2.08,2.08,0,0,0-3,.08,1.22,1.22,0,0,1,.51,0,.51.51,0,0,1,.18-.09l-.08.1a.51.51,0,0,1,.18-.09.44.44,0,0,0-.08.11,2.79,2.79,0,0,1,.48.15.66.66,0,0,1,.23-.2.62.62,0,0,0-.09.26l.38.22a2.51,2.51,0,0,0-1.83,2.1,1.68,1.68,0,0,1,.47-.42,1.3,1.3,0,0,1,.1-.27,1.12,1.12,0,0,0,0,.2,3.24,3.24,0,0,1,.55-.19.85.85,0,0,1,.1-.34.9.9,0,0,0,.06.31,7.65,7.65,0,0,1,.94-.09,1.47,1.47,0,0,1,.18-.49,1.89,1.89,0,0,0,0,.47,2.28,2.28,0,0,0,.69-.14,33.9,33.9,0,0,0-.9,6.57,4,4,0,0,1-2,.65,4.59,4.59,0,0,1-2.06-.73,26.62,26.62,0,0,0-.82-5.08,1.88,1.88,0,0,0,.7.1,1.31,1.31,0,0,0,0-.42,1.45,1.45,0,0,1,.2.42,8.36,8.36,0,0,1,.86,0,1.17,1.17,0,0,0,0-.29.86.86,0,0,1,.12.31,2.17,2.17,0,0,1,.5.13,1,1,0,0,0,0-.18.89.89,0,0,1,.1.23,1.92,1.92,0,0,1,.47.35A2.25,2.25,0,0,0,14,13l.33-.23a.77.77,0,0,0-.1-.23.55.55,0,0,1,.22.16,2.49,2.49,0,0,1,.42-.17l-.08-.1a.67.67,0,0,1,.17.08l-.08-.09a.44.44,0,0,1,.17.07,1.08,1.08,0,0,1,.47,0,1.89,1.89,0,0,0-2.59,0,2.14,2.14,0,0,1,.34-.6l-.08-.05h.13l0,0,0,0h.08a.66.66,0,0,1,.32-.13,1,1,0,0,0-1.52.85.81.81,0,0,0-1.47.06.5.5,0,0,1,.46,0,1,1,0,0,1,.21-.07.38.38,0,0,0-.11.11.63.63,0,0,1,.22-.08.55.55,0,0,0-.13.14l.2.14a1.7,1.7,0,0,0-1.8,1,1.07,1.07,0,0,1,.39-.17.4.4,0,0,1,.11-.12.49.49,0,0,0,0,.11.49.49,0,0,1,.12-.13.3.3,0,0,0,0,.11,1.86,1.86,0,0,1,.38,0,.8.8,0,0,1,.14-.22.47.47,0,0,0,0,.23l.34.08A2.22,2.22,0,0,0,10,16.13a1.9,1.9,0,0,1,.3-.5,1.12,1.12,0,0,1,0-.24.53.53,0,0,0,.05.15,4.12,4.12,0,0,1,.4-.33.86.86,0,0,1,0-.31,1.08,1.08,0,0,0,.11.24c.11-.07.45-.16.79-.33,0-.1,0-.21,0-.32a1.36,1.36,0,0,0,.13.24,2.16,2.16,0,0,1-.05-.46.89.89,0,0,0,.25.37,1.56,1.56,0,0,0,.41-.4,43,43,0,0,1,.51,8.13h.87c0-1,0-2-.09-2.84.6.63,1,1.43,1.95,1.43,1.18.05,1.61-.93,2.09-1.41q-.06,1.29-.06,2.82h.9a51.07,51.07,0,0,1,.62-9.62,1.75,1.75,0,0,0,.58.5,1,1,0,0,0,.25-.46,2.48,2.48,0,0,1,0,.55,1.34,1.34,0,0,0,.12-.3,1.64,1.64,0,0,1,0,.38c.43.17.83.25,1,.32a1,1,0,0,0,.1-.29.82.82,0,0,1,.05.36,3,3,0,0,1,.51.36,1.05,1.05,0,0,0,.05-.19,1,1,0,0,1,0,.28,2.1,2.1,0,0,1,.4.56A2.61,2.61,0,0,0,20.54,12Zm-8.08,1.67v0h0Z"/></g></g></svg>