<svg xmlns="http://www.w3.org/2000/svg" xmlns:xlink="http://www.w3.org/1999/xlink" x="0px" y="0px" width="64px" height="64px" viewBox="0 0 64 64" stroke-width="2"><g stroke-width="2" transform="translate(0.5, 0.5)"><path fill="none" stroke="#000000" stroke-width="2" stroke-linecap="square" stroke-miterlimit="10" d="M26,40.025 c-10.027,0.257-16.736,2.412-20.454,4.061C3.379,45.048,2,47.196,2,49.567V60h26" stroke-linejoin="miter"></path> <path fill="none" stroke="#000000" stroke-width="2" stroke-linecap="square" stroke-miterlimit="10" d="M14,16 c0-7.732,6.268-14,14-14s14,6.268,14,14s-6.268,16-14,16S14,23.732,14,16z" stroke-linejoin="miter"></path> <polygon data-color="color-2" fill="none" stroke="#000000" stroke-width="2" stroke-linecap="square" stroke-miterlimit="10" points=" 47,35.273 51.017,43.412 60,44.718 53.5,51.054 55.034,60 47,55.776 38.966,60 40.5,51.054 34,44.718 42.983,43.412 " stroke-linejoin="miter"></polygon></g></svg>