<svg xmlns="http://www.w3.org/2000/svg" viewBox="0 0 149.07 219.85"><defs><style>.cls-1{fill:#ec1b23;}.cls-1,.cls-2,.cls-3,.cls-4,.cls-6{fill-rule:evenodd;}.cls-2{fill:#db0204;}.cls-3{fill:#ffb600;}.cls-4{fill:#ffeb00;}.cls-5{fill:#fbba2c;}.cls-6{fill:#fa981d;}</style></defs><g id="Layer_2" data-name="Layer 2"><g id="Layer_1-2" data-name="Layer 1"><polygon class="cls-1" points="5.59 200.65 34.08 189.26 47.93 217.9 95.06 89.05 52.71 71.79 5.59 200.65"/><path class="cls-2" d="M75,143.81c-3.48,7-7.59,23.29-11.07,30.26-1-14.37,0-34.35-1-48.72C67.48,132.75,70.55,136.41,75,143.81Z"/><path class="cls-1" d="M149.07,202.36c-9.63-3.84-27.58-8.65-37.21-12.5-4.68,9.68-1,20.31-5.7,30C74.16,180.31,61.57,136,58.41,89.28l42.91-17.49C107.18,118.67,120.12,163.18,149.07,202.36Z"/><path class="cls-3" d="M69.81,4.69c4.76-.27,9.42-5.82,14.76-4.48C90.91,1.52,93,8.63,97.48,11c4.4,1.82,11-1.15,15.23,2.37,5.15,3.93,4,11.25,7,15.32,3.18,3.55,10.42,3.74,12.7,8.75,2.93,5.78-1.31,11.85-.39,16.82,1.32,4.58,7.77,7.88,7.65,13.39.14,6.48-6.33,10.1-7.65,15-.79,4.7,3.58,10.47,1.09,15.39-2.69,5.89-10.09,6.36-13.4,10.18-2.75,3.89-1.32,11-5.7,14.33-5,4.14-11.84,1.35-16.48,3.36-4.17,2.31-6,9.32-11.35,10.44-6.29,1.57-11.27-3.92-16.32-4.13-4.76.27-9.41,5.82-14.75,4.48-6.35-1.31-8.45-8.42-12.91-10.79-4.4-1.82-11,1.15-15.24-2.37C21.76,119.59,23,112.27,20,108.2c-3.18-3.55-10.42-3.74-12.71-8.75-2.93-5.77,1.32-11.85.39-16.82C6.33,78.05-.11,74.75,0,69.24c-.13-6.47,6.33-10.1,7.65-15,.8-4.7-3.57-10.47-1.08-15.38C9.26,33,16.66,32.52,20,28.69c2.75-3.89,1.32-11,5.69-14.33,5-4.14,11.85-1.35,16.49-3.36,4.17-2.31,6-9.32,11.35-10.44C59.79-1,64.76,4.48,69.81,4.69Zm.09,15.72a48.81,48.81,0,1,0,48.81,48.81A48.81,48.81,0,0,0,69.9,20.41Z"/><path class="cls-4" d="M69.81,10.15c4.35-.24,8.61-5.31,13.49-4.09,5.81,1.2,7.72,7.69,11.8,9.87,4,1.66,10.07-1.06,13.94,2.16,4.7,3.6,3.61,10.28,6.35,14,2.9,3.25,9.52,3.41,11.61,8,2.68,5.29-1.2,10.84-.36,15.38,1.21,4.19,7.1,7.21,7,12.25.12,5.92-5.79,9.23-7,13.7-.72,4.29,3.27,9.57,1,14.06-2.47,5.39-9.23,5.82-12.25,9.31-2.52,3.56-1.21,10-5.21,13.1-4.56,3.79-10.83,1.24-15.08,3.07-3.81,2.12-5.44,8.53-10.37,9.55-5.75,1.44-10.3-3.59-14.92-3.77-4.35.24-8.6,5.31-13.49,4.09-5.8-1.2-7.72-7.69-11.8-9.87-4-1.66-10.06,1.06-13.93-2.16-4.71-3.6-3.62-10.28-6.35-14-2.91-3.25-9.52-3.41-11.62-8C9.94,91.51,13.83,86,13,81.42c-1.21-4.19-7.1-7.21-7-12.24-.13-5.93,5.78-9.24,7-13.71.73-4.29-3.27-9.57-1-14.06C14.45,36,21.21,35.6,24.24,32.1c2.52-3.55,1.21-10,5.21-13.1,4.55-3.79,10.83-1.24,15.07-3.07C48.33,13.82,50,7.4,54.9,6.38,60.65,4.94,65.19,10,69.81,10.15Zm.08,14.37a44.63,44.63,0,1,0,44.63,44.63A44.63,44.63,0,0,0,69.89,24.52Z"/><circle class="cls-5" cx="69.81" cy="68.45" r="45.85" transform="translate(-13.8 17.77) rotate(-13.22)"/><path class="cls-3" d="M69.81,22.59a45.86,45.86,0,0,1,31.88,78.81A45.85,45.85,0,0,0,35.24,38.33,45.75,45.75,0,0,1,69.81,22.59Z"/><path class="cls-4" d="M64.46,98.86a6.83,6.83,0,0,1,2.17,3.59,7.1,7.1,0,0,1-4-1.29,6.83,6.83,0,0,1-2.17-3.59A7.1,7.1,0,0,1,64.46,98.86Z"/><path class="cls-4" d="M62.38,102.37a7.08,7.08,0,0,1,4.25.08,6.85,6.85,0,0,1-3.25,2.68,7,7,0,0,1-4.24-.08A6.86,6.86,0,0,1,62.38,102.37Z"/><path class="cls-4" d="M57.77,97.05a6.78,6.78,0,0,1,1.65,3.85,7,7,0,0,1-3.82-1.83A6.81,6.81,0,0,1,54,95.22,7,7,0,0,1,57.77,97.05Z"/><path class="cls-4" d="M55.23,100.24a7,7,0,0,1,4.19.66,7,7,0,0,1-3.6,2.22,7,7,0,0,1-4.18-.66A6.91,6.91,0,0,1,55.23,100.24Z"/><path class="cls-4" d="M52.51,94.45a6.79,6.79,0,0,1,1,4A6.92,6.92,0,0,1,50,96.1a6.75,6.75,0,0,1-1-4A7,7,0,0,1,52.51,94.45Z"/><path class="cls-4" d="M49.49,97.2a7,7,0,0,1,4,1.3,7,7,0,0,1-3.91,1.63,6.94,6.94,0,0,1-4-1.3A7,7,0,0,1,49.49,97.2Z"/><path class="cls-4" d="M47.59,90.48a6.75,6.75,0,0,1,0,4.18,6.85,6.85,0,0,1-2.78-3.16,6.73,6.73,0,0,1,0-4.17A6.86,6.86,0,0,1,47.59,90.48Z"/><path class="cls-4" d="M44,92.43a7,7,0,0,1,3.59,2.23,7.07,7.07,0,0,1-4.19.65,7,7,0,0,1-3.59-2.23A7.07,7.07,0,0,1,44,92.43Z"/><path class="cls-4" d="M43.87,85.89a6.74,6.74,0,0,1-1,4,5.86,5.86,0,0,1-.93-7.76A6.79,6.79,0,0,1,43.87,85.89Z"/><path class="cls-4" d="M39.9,87a6.92,6.92,0,0,1,3,3,7.11,7.11,0,0,1-4.23-.33,6.85,6.85,0,0,1-3-3A7.06,7.06,0,0,1,39.9,87Z"/><path class="cls-4" d="M40.7,80.11a6.78,6.78,0,0,1-1.81,3.77,5.86,5.86,0,0,1,.66-7.79A6.73,6.73,0,0,1,40.7,80.11Z"/><path class="cls-4" d="M36.59,80.37a6.84,6.84,0,0,1,2.3,3.51,7,7,0,0,1-4.08-1.16,6.78,6.78,0,0,1-2.29-3.51A7,7,0,0,1,36.59,80.37Z"/><path class="cls-4" d="M39.07,74.59A6.87,6.87,0,0,1,36.66,78a6.73,6.73,0,0,1-.49-4.15,6.89,6.89,0,0,1,2.4-3.44A6.75,6.75,0,0,1,39.07,74.59Z"/><path class="cls-4" d="M35,74.21A6.81,6.81,0,0,1,36.66,78a7,7,0,0,1-3.83-1.78,6.78,6.78,0,0,1-1.7-3.83A7,7,0,0,1,35,74.21Z"/><path class="cls-4" d="M38.89,68.45a6.94,6.94,0,0,1-3.18,2.77,6.7,6.7,0,0,1,.54-4.14,6.94,6.94,0,0,1,3.18-2.77A6.78,6.78,0,0,1,38.89,68.45Z"/><path class="cls-4" d="M35,67.1a6.74,6.74,0,0,1,.7,4.12,7,7,0,0,1-3.29-2.65,6.7,6.7,0,0,1-.7-4.11A6.93,6.93,0,0,1,35,67.1Z"/><path class="cls-4" d="M40,62.25a6.93,6.93,0,0,1-3.75,2,6.82,6.82,0,0,1,1.52-3.9,7,7,0,0,1,3.75-1.95A6.74,6.74,0,0,1,40,62.25Z"/><path class="cls-4" d="M36.53,60a6.67,6.67,0,0,1-.3,4.16,6.9,6.9,0,0,1-2.56-3.32,6.79,6.79,0,0,1,.3-4.17A6.83,6.83,0,0,1,36.53,60Z"/><path class="cls-4" d="M42.23,57.15a7,7,0,0,1-4.1,1.06,6.74,6.74,0,0,1,2.37-3.45,7.07,7.07,0,0,1,4.11-1.07A6.84,6.84,0,0,1,42.23,57.15Z"/><path class="cls-4" d="M39.38,54.22a6.76,6.76,0,0,1-1.25,4A6.78,6.78,0,0,1,36.4,54.4a6.74,6.74,0,0,1,1.26-4A6.8,6.8,0,0,1,39.38,54.22Z"/><path class="cls-4" d="M45,52.54a7.11,7.11,0,0,1-4.23.41,6.92,6.92,0,0,1,2.91-3.05,7,7,0,0,1,4.22-.4A6.88,6.88,0,0,1,45,52.54Z"/><path class="cls-4" d="M42.69,49.21A6.76,6.76,0,0,1,40.81,53a6.78,6.78,0,0,1-1.08-4,6.76,6.76,0,0,1,1.88-3.74A6.78,6.78,0,0,1,42.69,49.21Z"/><path class="cls-4" d="M76.35,98.57a6.83,6.83,0,0,0-2.17,3.59,7.06,7.06,0,0,0,4-1.29,6.76,6.76,0,0,0,2.17-3.59A7.06,7.06,0,0,0,76.35,98.57Z"/><path class="cls-4" d="M78.42,102.08a7,7,0,0,0-4.24.08,6.85,6.85,0,0,0,3.25,2.68,7,7,0,0,0,4.24-.08A6.85,6.85,0,0,0,78.42,102.08Z"/><path class="cls-4" d="M82.19,97.05a6.78,6.78,0,0,0-1.65,3.85,7,7,0,0,0,3.82-1.83A6.81,6.81,0,0,0,86,95.22,7,7,0,0,0,82.19,97.05Z"/><path class="cls-4" d="M84.73,100.24a7,7,0,0,0-4.19.66,7,7,0,0,0,3.59,2.22,7,7,0,0,0,4.19-.66A6.91,6.91,0,0,0,84.73,100.24Z"/><path class="cls-4" d="M87.44,94.23a6.75,6.75,0,0,0-1,4,6.93,6.93,0,0,0,3.47-2.39,6.78,6.78,0,0,0,1-4.06A7,7,0,0,0,87.44,94.23Z"/><path class="cls-4" d="M90.47,97a7,7,0,0,0-4,1.3,6.07,6.07,0,0,0,7.93.33A7,7,0,0,0,90.47,97Z"/><path class="cls-4" d="M92.19,90.37a6.73,6.73,0,0,0,0,4.17A6.86,6.86,0,0,0,95,91.39a6.75,6.75,0,0,0,0-4.18A6.85,6.85,0,0,0,92.19,90.37Z"/><path class="cls-4" d="M95.8,92.32a6.91,6.91,0,0,0-3.59,2.22,7,7,0,0,0,4.19.65A6.91,6.91,0,0,0,100,93,7,7,0,0,0,95.8,92.32Z"/><path class="cls-4" d="M96.11,85.47a6.79,6.79,0,0,0,1,4,5.88,5.88,0,0,0,.93-7.76A6.84,6.84,0,0,0,96.11,85.47Z"/><path class="cls-4" d="M100.09,86.53a6.85,6.85,0,0,0-3,3,7.06,7.06,0,0,0,4.23-.34,6.86,6.86,0,0,0,3-3A7,7,0,0,0,100.09,86.53Z"/><path class="cls-4" d="M98.92,80a6.83,6.83,0,0,0,1.82,3.77,6.74,6.74,0,0,0,1.16-4A6.88,6.88,0,0,0,100.08,76,6.78,6.78,0,0,0,98.92,80Z"/><path class="cls-4" d="M103,80.26a6.78,6.78,0,0,0-2.29,3.51,7.09,7.09,0,0,0,4.08-1.15,6.87,6.87,0,0,0,2.29-3.52A7,7,0,0,0,103,80.26Z"/><path class="cls-4" d="M100.56,74.48a6.89,6.89,0,0,0,2.4,3.44,6.78,6.78,0,0,0,.5-4.15,6.89,6.89,0,0,0-2.4-3.44A6.7,6.7,0,0,0,100.56,74.48Z"/><path class="cls-4" d="M104.66,74.09a6.78,6.78,0,0,0-1.7,3.83,7,7,0,0,0,3.84-1.78,6.76,6.76,0,0,0,1.7-3.82A7,7,0,0,0,104.66,74.09Z"/><path class="cls-4" d="M100.71,68.54a6.88,6.88,0,0,0,3.18,2.76,6.78,6.78,0,0,0-.54-4.14,7,7,0,0,0-3.18-2.76A6.7,6.7,0,0,0,100.71,68.54Z"/><path class="cls-4" d="M104.59,67.19a6.7,6.7,0,0,0-.7,4.11,6.88,6.88,0,0,0,3.28-2.64,6.75,6.75,0,0,0,.71-4.11A6.89,6.89,0,0,0,104.59,67.19Z"/><path class="cls-4" d="M99.56,62.33a7,7,0,0,0,3.75,2,6.75,6.75,0,0,0-1.51-3.9,7,7,0,0,0-3.75-2A6.73,6.73,0,0,0,99.56,62.33Z"/><path class="cls-4" d="M103,60.12a6.79,6.79,0,0,0,.3,4.17A6.83,6.83,0,0,0,105.87,61a6.67,6.67,0,0,0-.3-4.16A6.84,6.84,0,0,0,103,60.12Z"/><path class="cls-4" d="M97.38,57.32a7,7,0,0,0,4.1,1.06,6.79,6.79,0,0,0-2.38-3.45A7,7,0,0,0,95,53.87,6.83,6.83,0,0,0,97.38,57.32Z"/><path class="cls-4" d="M100.23,54.39a6.76,6.76,0,0,0,1.25,4,6.78,6.78,0,0,0,1.73-3.81,6.74,6.74,0,0,0-1.26-4A6.8,6.8,0,0,0,100.23,54.39Z"/><path class="cls-4" d="M94.41,52.74a7,7,0,0,0,4.22.41,6.88,6.88,0,0,0-2.9-3,7.11,7.11,0,0,0-4.23-.41A6.86,6.86,0,0,0,94.41,52.74Z"/><path class="cls-4" d="M96.75,49.41a6.79,6.79,0,0,0,1.88,3.74,6.74,6.74,0,0,0,1.09-4,6.79,6.79,0,0,0-1.88-3.74A6.71,6.71,0,0,0,96.75,49.41Z"/><path class="cls-4" d="M92.83,46.16a2.86,2.86,0,0,1-.31.27l-.11.07a31.14,31.14,0,0,1,11.21,23.74c0,17.63-15.19,32-33.85,32s-33.86-14.34-33.86-32A31,31,0,0,1,46.22,47.3a4.08,4.08,0,0,1-.54-.22A31.52,31.52,0,0,0,35.37,70.24c0,17.91,15.43,32.49,34.4,32.49s34.4-14.58,34.4-32.49A31.64,31.64,0,0,0,92.83,46.16Z"/><path class="cls-4" d="M49.59,48.46a7.06,7.06,0,0,1-4.19-.61A6.89,6.89,0,0,1,49,45.59a7.09,7.09,0,0,1,4.2.61A6.89,6.89,0,0,1,49.59,48.46Z"/><path class="cls-4" d="M48.14,44.67a6.87,6.87,0,0,1-2.74,3.18,6.73,6.73,0,0,1-.07-4.18,6.92,6.92,0,0,1,2.75-3.18A6.77,6.77,0,0,1,48.14,44.67Z"/><path class="cls-4" d="M90.09,48.46a7.06,7.06,0,0,0,4.19-.61,6.89,6.89,0,0,0-3.56-2.26,7.09,7.09,0,0,0-4.2.61A6.89,6.89,0,0,0,90.09,48.46Z"/><path class="cls-4" d="M91.54,44.67a6.87,6.87,0,0,0,2.74,3.18,6.69,6.69,0,0,0,.06-4.18,6.87,6.87,0,0,0-2.74-3.18A6.69,6.69,0,0,0,91.54,44.67Z"/><polygon class="cls-4" points="59.19 40.03 55.51 38.98 52.15 40.81 52.02 36.98 49.23 34.35 52.83 33.04 54.47 29.58 56.83 32.6 60.63 33.09 58.49 36.27 59.19 40.03"/><polygon class="cls-4" points="83.69 40.36 86.86 42.51 87.37 38.72 90.4 36.37 86.94 34.71 85.64 31.11 83 33.88 79.17 34 81 37.37 79.92 41.05 83.69 40.36"/><polygon class="cls-4" points="72.95 39.51 69.47 37.9 65.87 39.2 66.33 35.4 63.97 32.37 67.73 31.63 69.88 28.45 71.75 31.8 75.43 32.87 72.83 35.68 72.95 39.51"/><path class="cls-6" d="M68.72,46.67C70.31,46,73.15,57,75.36,62.13c5.56.44,16.08-.25,16.69,1.33,1.09,1.31-8.44,7.39-12.65,11.09,1.29,5.43,5.21,15.21,3.89,16.28-.91,1.44-9.64-5.74-14.46-8.61C64.07,85.14,56,91.88,54.55,91,52.9,90.54,57,80,58.27,74.55,54,70.92,45.11,65.3,45.55,63.67c-.11-1.7,11.17-1,16.76-1.54C64.44,57,67,46.76,68.72,46.67Z"/><path class="cls-4" d="M69.82,45.58C71.4,45,74.24,55.89,76.45,61c5.57.44,16.08-.26,16.69,1.32,1.09,1.32-8.43,7.4-12.65,11.1,1.3,5.42,5.21,15.21,3.9,16.28-.92,1.44-9.64-5.74-14.46-8.61C65.17,84,57.07,90.79,55.64,89.87c-1.65-.43,2.48-10.94,3.72-16.41-4.24-3.63-13.16-9.25-12.72-10.89-.11-1.7,11.17-1,16.76-1.53C65.54,55.89,68.12,45.67,69.82,45.58Z"/></g></g></svg>