<svg xmlns="http://www.w3.org/2000/svg" viewBox="0 0 61.31 65.43"><defs><style>.cls-1{fill:none;}.cls-2{fill:#e8414e;}.cls-3{fill:#addadb;}.cls-4{fill:#fdd59d;}</style></defs><g id="Layer_2" data-name="Layer 2"><g id="_14" data-name="14"><path class="cls-1" d="M19.77,5.81a13.24,13.24,0,0,0,1.44.65c5.37-4.43,14.5-4.35,19.71.27A3.39,3.39,0,0,0,43,5.17C41.77,2.43,33.1,2.53,31.07,2.56a33.82,33.82,0,0,0-8,.81C22.79,3.45,17.93,4.84,19.77,5.81Z"/><path class="cls-2" d="M18.69,29.19c-.63-.45-1.27-.9-1.91-1.32-2.38-1.53-5-3.28-7.86-3.8-2.28-.41-6.38.85-6.12,4,.22,2.59,2,4.39,3.86,6,2.58,2.23,5.27,4.33,8,6.34Q16.68,34.78,18.69,29.19Z"/><path class="cls-2" d="M55.84,33c2.36-2.54,4.56-6.73.15-8.7a5.28,5.28,0,0,0-4.43-.11,30.87,30.87,0,0,0-7.63,4.35l-.14.11q2,5.72,4,11.44A63.59,63.59,0,0,0,55.84,33Z"/><path d="M59.91,24.24C55,18.73,48.2,22,42.87,26l-1.2-3.45a12.35,12.35,0,0,0,3.14-7.12,1.33,1.33,0,0,0,0-.41,1.36,1.36,0,0,0,0-.41,12,12,0,0,0-2.06-5.9A4.73,4.73,0,0,0,45.6,5.53a1.88,1.88,0,0,0,0-.33,1.94,1.94,0,0,0,0-.34c-1-5-11-4.79-14.53-4.85C28,0,16.5,0,16.5,5.2c0,1.59,1.1,2.67,2.68,3.42A11.85,11.85,0,0,0,17,15.06a9.84,9.84,0,0,0,3.81,8.27l-1.17,3.28c-5.32-4-12.1-7.51-17.55-2.76C-4.62,29.67,6.47,38.15,13.73,43Q10.19,53,6.63,62.91a1.29,1.29,0,0,0,.31,2.52H54.88a1.29,1.29,0,0,0,1.23-1.62q-3.73-10.64-7.46-21.28C50.83,40.8,53,39,55.07,37.21,58.3,34.39,64,28.77,59.91,24.24ZM2.8,28c-.26-3.12,3.84-4.38,6.12-4,2.82.52,5.48,2.27,7.86,3.8.64.42,1.28.87,1.91,1.32q-2,5.6-4,11.18c-2.76-2-5.45-4.11-8-6.34C4.82,32.43,3,30.63,2.8,28ZM23,24.83a17.53,17.53,0,0,0,1.79.89L14.42,62.8a.2.2,0,0,0,0,.07H9.35Q16.15,43.85,23,24.83Zm-3.43-9.77a8,8,0,0,1,1.76-5.69,41.51,41.51,0,0,0,8.24,1,40.75,40.75,0,0,0,10.63-.7,8.85,8.85,0,0,1,2.15,5.4C41.6,27.61,20.22,27.61,19.52,15.06Zm18-7.59c-2.06.26-4.07.29-4.88.33a33.14,33.14,0,0,1-8.73-.55A14.63,14.63,0,0,1,37.5,7.47Zm6.87,55.4H37.12Q36.43,55,35.73,47.11C37.4,45.72,38.67,44,38.25,42A4.92,4.92,0,0,0,35,38.27Q34.44,32.61,34,27a.19.19,0,0,0,0-.08,11.06,11.06,0,0,0,1.17-.27Zm-27.32,0q5.06-18.15,10.12-36.32l.93.22q-.6,5.81-1.19,11.61a4.32,4.32,0,0,0-3.35,3.52c-.51,2.19.72,4,2.43,5.4L24.4,62.87ZM35.71,42.24c.28.74-.37,1.54-.81,2a12.72,12.72,0,0,1-4.1,2.92,12.88,12.88,0,0,1-3.63-2.31,2.75,2.75,0,0,1-.7-3.61c.73-1.41,2.69,0,3.07.92a1.29,1.29,0,0,0,2.34.3,5.13,5.13,0,0,1,1.58-1.6C34.44,40.27,35.38,41.37,35.71,42.24Zm-3.29-3.65a5.85,5.85,0,0,0-1.57,1.14,4.73,4.73,0,0,0-1.42-1q.59-5.8,1.18-11.6l.3,0h.5Q31.92,32.85,32.42,38.59Zm-4,10.28a21.1,21.1,0,0,0,2.1,1,1,1,0,0,0,1.17-.22c.51-.24,1.07-.53,1.66-.86q.61,7.05,1.25,14.11H27Zm18.52,14a1.19,1.19,0,0,0,0-.49L37.52,25.79s0,0,0-.06a14.74,14.74,0,0,0,2.12-1.28q6.72,19.21,13.46,38.42ZM43.79,28.66l.14-.11a30.87,30.87,0,0,1,7.63-4.35,5.28,5.28,0,0,1,4.43.11c4.41,2,2.21,6.16-.15,8.7a63.59,63.59,0,0,1-8,7.09Q45.79,34.39,43.79,28.66ZM23.1,3.37a33.82,33.82,0,0,1,8-.81c2,0,10.7-.13,11.94,2.61a3.39,3.39,0,0,1-2.09,1.56C35.71,2.11,26.58,2,21.21,6.46a13.24,13.24,0,0,1-1.44-.65C17.93,4.84,22.79,3.45,23.1,3.37Z"/><path class="cls-3" d="M30.61,27.11Q30,32.9,29.43,38.71a4.73,4.73,0,0,1,1.42,1,5.85,5.85,0,0,1,1.57-1.14q-.51-5.75-1-11.47h-.5Z"/><path class="cls-3" d="M33.93,26.9A.19.19,0,0,1,34,27q.49,5.64,1,11.29A4.92,4.92,0,0,1,38.25,42c.42,2-.85,3.77-2.52,5.16q.69,7.89,1.39,15.76h7.25L35.1,26.63A11.06,11.06,0,0,1,33.93,26.9Z"/><path class="cls-3" d="M33.32,48.76c-.59.33-1.15.62-1.66.86a1,1,0,0,1-1.17.22,21.1,21.1,0,0,1-2.1-1L27,62.87h7.62Q33.94,55.82,33.32,48.76Z"/><path class="cls-3" d="M9.35,62.87h5.06a.2.2,0,0,1,0-.07L24.74,25.72A17.53,17.53,0,0,1,23,24.83Q16.14,43.85,9.35,62.87Z"/><path class="cls-3" d="M23.56,41.9a4.32,4.32,0,0,1,3.35-3.52q.59-5.81,1.19-11.61l-.93-.22Q22.1,44.71,17.05,62.87H24.4L26,47.3C24.28,45.91,23.05,44.09,23.56,41.9Z"/><path class="cls-3" d="M39.62,24.45a14.74,14.74,0,0,1-2.12,1.28s0,0,0,.06l9.36,36.59a1.19,1.19,0,0,1,0,.49h6.17Q46.35,43.67,39.62,24.45Z"/><path class="cls-4" d="M23.89,7.25a33.14,33.14,0,0,0,8.73.55c.81,0,2.82-.07,4.88-.33A14.63,14.63,0,0,0,23.89,7.25Z"/><path class="cls-4" d="M42.3,15.06a8.85,8.85,0,0,0-2.15-5.4,40.75,40.75,0,0,1-10.63.7,41.51,41.51,0,0,1-8.24-1,8,8,0,0,0-1.76,5.69C20.22,27.61,41.6,27.61,42.3,15.06Z"/><path class="cls-2" d="M33.46,40.91a5.13,5.13,0,0,0-1.58,1.6,1.29,1.29,0,0,1-2.34-.3c-.38-1-2.34-2.33-3.07-.92a2.75,2.75,0,0,0,.7,3.61,12.88,12.88,0,0,0,3.63,2.31,12.72,12.72,0,0,0,4.1-2.92c.44-.51,1.09-1.31.81-2S34.44,40.27,33.46,40.91Z"/></g></g></svg>