<svg xmlns="http://www.w3.org/2000/svg" viewBox="0 0 55.48 63.23"><defs><style>.cls-1{fill:#b9895f;}.cls-2{fill:#e8414e;}.cls-3{fill:#fed371;}</style></defs><g id="Layer_2" data-name="Layer 2"><g id="_19" data-name="19"><g id="Illustration"><path class="cls-1" d="M28,54.54H21.6c.19,3.22,2.57,6.32,6.14,6.13a6.27,6.27,0,0,0,6.16-6.13Z"/><path class="cls-2" d="M45.64,35.09c-.57-7.43-.53-15.86-4.81-21.46A2.74,2.74,0,0,1,38,15l-.36-.06a14.2,14.2,0,0,1-3.82-.82c.82,2.29,1.65,4.58,2.47,6.88a1.29,1.29,0,0,1-.89,1.57l-4.59,1.85a1.27,1.27,0,0,1-1.57-.89q-.72-3.14-1.45-6.29L26.3,23.48a1.28,1.28,0,0,1-1.57.89l-4.59-1.85A1.29,1.29,0,0,1,19.25,21q1.21-3.42,2.45-6.84l-.95.26a11.39,11.39,0,0,1-2.72.52l-.94.1a1.58,1.58,0,0,1-.44,0,1.13,1.13,0,0,1-.66-.21,3.4,3.4,0,0,1-1.32-1.15c-4.4,5.68-3.94,14.07-4.52,21.43Z"/><path class="cls-2" d="M48.9,48.58H6.3A25.38,25.38,0,0,1,4.06,52H51A19.47,19.47,0,0,1,48.9,48.58Z"/><path class="cls-3" d="M47.81,46a31,31,0,0,1-1.46-5.08c-.2-1-.36-2.16-.48-3.3h-36q-.15,1.14-.36,2.22a31.89,31.89,0,0,1-2,6.16Z"/><path d="M54.87,52.16c-1.61-1-2.79-3.73-3.67-5.35-2.29-4.22-2.88-8.81-3.31-13.53-.69-7.49-.71-16.65-6.11-22.46A16.45,16.45,0,0,0,42,7.56c-.1-2.79-1.31-5.81-4.48-5.8A9.93,9.93,0,0,0,32.56,3.4,5.29,5.29,0,0,0,27.74,0a5.07,5.07,0,0,0-4.83,3.45c-1.9-1.18-4-2-5.83-1.66-2.68.57-3.34,3.44-3.55,5.8a13.7,13.7,0,0,0,.13,3.33C8.54,16.42,8.38,24.91,7.84,32c-.55,7.33-2,14.89-7.47,20.32a1.29,1.29,0,0,0,.9,2.18H19a8.9,8.9,0,0,0,8.72,8.68c4.87.26,8.6-4.13,8.72-8.68H54.22A1.29,1.29,0,0,0,54.87,52.16ZM27.74,60.67c-3.57.19-5.95-2.91-6.14-6.13H33.9A6.27,6.27,0,0,1,27.74,60.67ZM17.23,4.41c.89-.66,3.06.7,3.78,1.07a33.91,33.91,0,0,1,5.33,3.64v0c0,.25,0,.5,0,.74-3,1.07-6.27,2.32-9.41,2.55-1.24-.65-.93-4.74-.79-5.73A3.48,3.48,0,0,1,17.23,4.41Zm13.12.48c-.35.26-.69.53-1,.79A10,10,0,0,0,27.67,7l-.27-.21c-.08-.06-.15-.13-.24-.19-.58-.45-1.27-1-2-1.56C25.17,1.94,30.22,1.9,30.35,4.89Zm8.38,0a7,7,0,0,1,.69,3.89c0,.63-.14,3.76-1.32,3.59a31.22,31.22,0,0,1-4.46-1.1c-1.52-.44-3-.92-4.53-1.42,0-.26,0-.51,0-.76a39.55,39.55,0,0,1,5.33-3.65C35.55,4.87,37.78,3.55,38.73,4.93Zm-14,8.23,1.42-.49-2,8.74-2.07-.84Q23.41,16.87,24.75,13.16Zm6,0,2.67,7.44-2.07.84-2-8.75ZM16,14.81a1.13,1.13,0,0,0,.66.21,1.58,1.58,0,0,0,.44,0l.94-.1a11.39,11.39,0,0,0,2.72-.52l.95-.26Q20.47,17.53,19.25,21a1.29,1.29,0,0,0,.89,1.57l4.59,1.85a1.28,1.28,0,0,0,1.57-.89l1.44-6.29q.74,3.15,1.45,6.29a1.27,1.27,0,0,0,1.57.89l4.59-1.85A1.29,1.29,0,0,0,36.24,21c-.82-2.3-1.65-4.59-2.47-6.88a14.2,14.2,0,0,0,3.82.82L38,15a2.74,2.74,0,0,0,2.88-1.32c4.28,5.6,4.24,14,4.81,21.46H10.15c.58-7.36.12-15.75,4.52-21.43A3.4,3.4,0,0,0,16,14.81ZM35.13,52H4.06A25.38,25.38,0,0,0,6.3,48.57H48.9A19.47,19.47,0,0,0,51,52ZM9.53,39.86q.21-1.08.36-2.22h36c.12,1.14.28,2.25.48,3.3A31,31,0,0,0,47.81,46H7.57A31.89,31.89,0,0,0,9.53,39.86Z"/><path class="cls-1" d="M27.4,6.74l.27.21a10,10,0,0,1,1.66-1.27c.33-.26.67-.53,1-.79-.13-3-5.18-2.95-5.21.1.75.56,1.44,1.11,2,1.56C27.25,6.61,27.32,6.68,27.4,6.74Z"/><path class="cls-3" d="M26.17,12.67l-1.42.49q-1.34,3.71-2.66,7.41l2.07.84Z"/><path class="cls-3" d="M33.4,20.57l-2.67-7.44-1.41-.47,2,8.75Z"/><path class="cls-3" d="M17,12.45c3.14-.23,6.39-1.48,9.41-2.55,0-.24,0-.49,0-.74v0A33.91,33.91,0,0,0,21,5.48c-.72-.37-2.89-1.73-3.78-1.07a3.48,3.48,0,0,0-1.05,2.31C16,7.71,15.73,11.8,17,12.45Z"/><path class="cls-3" d="M34.48,5.48a39.55,39.55,0,0,0-5.33,3.65c0,.25,0,.5,0,.76,1.5.5,3,1,4.53,1.42a31.22,31.22,0,0,0,4.46,1.1c1.18.17,1.31-3,1.32-3.59a7,7,0,0,0-.69-3.89C37.78,3.55,35.55,4.87,34.48,5.48Z"/></g></g></g></svg>