<svg xmlns="http://www.w3.org/2000/svg" viewBox="0 0 41.71 63.91"><defs><style>.cls-1{fill:#887557;}.cls-2{fill:#fff;}.cls-3{fill:#e8414e;}</style></defs><g id="Layer_2" data-name="Layer 2"><g id="_23" data-name="23"><path class="cls-1" d="M20.86,40.49c-.64,0-1.28-.07-1.92-.14v21h3.83V40.45C22.14,40.49,21.5,40.51,20.86,40.49Z"/><path class="cls-2" d="M23,22.87a10.3,10.3,0,0,0,1.15,1.95c3,3.89,7.87,4.56,12.47,4.23a18,18,0,0,0,2.55-8.8,17,17,0,0,0-.18-2C34.65,22.49,28.57,25.15,23,22.87Z"/><path class="cls-2" d="M18.69,17.45a9.8,9.8,0,0,0-1.15-1.95c-3-3.9-7.89-4.56-12.5-4.23a15.74,15.74,0,0,0-2.48,9c0,.62.07,1.23.15,1.84C7,17.82,13.11,15.17,18.69,17.45Z"/><path class="cls-2" d="M19.38,2.67c4,4.27,6.32,10.08,4.13,15.44A9.8,9.8,0,0,0,25.46,17C29.28,14,30,9.26,29.7,4.73a17.18,17.18,0,0,0-8.84-2.17C20.36,2.58,19.87,2.61,19.38,2.67Z"/><path class="cls-3" d="M9.4,34c.08-6,2.56-12,8-14.31C12.64,18,7,21,3.39,25.1A18.62,18.62,0,0,0,9.4,34Z"/><path class="cls-3" d="M20.39,23.47c-1.63,4.67,1.2,10.16,5.13,13.77a18.61,18.61,0,0,0,9.18-5.6C28.7,31.54,22.63,29,20.39,23.47Z"/><path class="cls-3" d="M32.28,6.47c-.12,5.93-2.6,11.9-8,14.17,4.79,1.68,10.44-1.33,14-5.41A18.76,18.76,0,0,0,32.28,6.47Z"/><path class="cls-3" d="M21.28,16.85c1.61-4.61-1.11-10-5-13.62A19.92,19.92,0,0,0,7.07,8.68C13,8.81,19.06,11.33,21.28,16.85Z"/><path class="cls-2" d="M20.86,37.94c.54,0,1.07-.07,1.59-.12-4.06-4.29-6.5-10.18-4.28-15.61a10.26,10.26,0,0,0-2,1.14c-3.87,3-4.55,7.83-4.24,12.4A17.15,17.15,0,0,0,20.86,37.94Z"/><path d="M41.71,20.25C41.35,8.73,32.22.34,20.86,0S.35,9.23,0,20.25C-.3,30.16,7.36,37.76,16.39,39.89V62.63a1.29,1.29,0,0,0,1.28,1.28h6.38a1.23,1.23,0,0,0,.87-.34l0,0,0,0a1.16,1.16,0,0,0,.35-.87V40.1A21,21,0,0,0,41.71,20.25ZM22.77,61.36H18.94v-21c.64.07,1.28.12,1.92.14s1.28,0,1.91,0ZM2.56,20.25a15.74,15.74,0,0,1,2.48-9c4.61-.33,9.52.33,12.5,4.23a9.8,9.8,0,0,1,1.15,1.95c-5.58-2.28-11.66.37-16,4.64C2.63,21.48,2.58,20.87,2.56,20.25Zm36.59,0a18,18,0,0,1-2.55,8.8c-4.6.33-9.49-.34-12.47-4.23A10.3,10.3,0,0,1,23,22.87c5.59,2.28,11.67-.38,16-4.65A17,17,0,0,1,39.15,20.25Zm-14.91.39c5.44-2.27,7.92-8.24,8-14.17a18.76,18.76,0,0,1,6,8.76C34.68,19.31,29,22.32,24.24,20.64ZM29.7,4.73C30,9.26,29.28,14,25.46,17a9.8,9.8,0,0,1-1.95,1.15c2.19-5.36-.17-11.17-4.13-15.44.49-.06,1-.09,1.48-.11A17.18,17.18,0,0,1,29.7,4.73ZM16.32,3.23c3.85,3.61,6.57,9,5,13.62-2.22-5.52-8.24-8-14.21-8.17A19.92,19.92,0,0,1,16.32,3.23Zm1.11,16.45C12,22,9.48,28,9.4,34a18.62,18.62,0,0,1-6-8.89C7,21,12.64,18,17.43,19.68ZM12,35.75c-.31-4.57.37-9.43,4.24-12.4a10.26,10.26,0,0,1,2-1.14c-2.22,5.43.22,11.32,4.28,15.61-.52,0-1.05.1-1.59.12A17.15,17.15,0,0,1,12,35.75Zm13.54,1.49c-3.93-3.61-6.76-9.1-5.13-13.77C22.63,29,28.7,31.54,34.7,31.64A18.61,18.61,0,0,1,25.52,37.24Z"/></g></g></svg>