<svg xmlns="http://www.w3.org/2000/svg" viewBox="0 0 37.59 65.34"><defs><style>.cls-1{fill:#fff;}.cls-2{fill:#fed371;}</style></defs><g id="Layer_2" data-name="Layer 2"><g id="_11" data-name="11"><g id="Illustration"><path class="cls-1" d="M15.88,59.77a1.5,1.5,0,0,1,0-.3v-12c-4.35-1.11-5.11-5.09-6.29-9C8.88,36.22,6.9,40,5.25,40.17A4,4,0,0,1,3,39.77v20C3,63.58,16.23,63.19,15.88,59.77Z"/><path class="cls-1" d="M3,36.54C5,38.81,6.08,36,7.72,35a2.86,2.86,0,0,1,3,.4c1.36,1.18,1.35,2.93,1.78,4.56.56,2.12,1.5,3.92,3.38,4.77V36.86c0-1,.68-9.14-1-9.14-3,0-6.2.38-9.13,0C2,27.23,3,33.86,3,36.12v.38Z"/><path d="M18.47,30.1c0-5-2.89-5-6.95-5C8.82,25.13,3,24,1.29,26.86-.9,30.4.36,37.14.36,41.08V58.57c0,4.49,1.21,6.17,6,6.17,4.18,0,12.79,1.76,12.09-5ZM3,59.74v-20a4,4,0,0,0,2.29.4c1.65-.19,3.63-4,4.34-1.62,1.18,3.86,1.94,7.84,6.29,9v12a1.5,1.5,0,0,0,0,.3C16.23,63.19,3,63.58,3,59.74Zm2.8-32c2.93.38,6.17,0,9.13,0,1.67,0,1,8.12,1,9.14v7.86C14,43.87,13.06,42.07,12.5,40c-.43-1.63-.42-3.38-1.78-4.56a2.86,2.86,0,0,0-3-.4C6.08,36,5,38.81,3,36.54l0,0v-.38C3,33.86,2,27.23,5.76,27.72Z"/><path class="cls-1" d="M21.55,46a.63.63,0,0,1,.11.12c.57.72,1.78,2.09,2.85,1.31.85-.62,1.45-1.66,2.35-2.18a2.73,2.73,0,0,1,3.72.54c2.16,2.47.74,7.63,4.13,9.2V43.05c0-.68.25-3.55-.79-3.55H30.56a47.57,47.57,0,0,1-6,0C22.52,39.23,21.77,42.3,21.55,46Z"/><path class="cls-1" d="M34.71,60.11a1.5,1.5,0,0,1,0-.3V57.69c-4.06-1.08-5.12-5.84-5.89-9.44-.34-1.58-1.53.17-2.15.74a4.69,4.69,0,0,1-2.49,1.17,3.86,3.86,0,0,1-2.69-.73c0,3.21.3,6.24.3,7.37,0,1.86-.79,5.69,2.3,5.69C26.2,62.49,35.08,63.65,34.71,60.11Z"/><path d="M37.31,48.87c0-2.64,1.24-9.56-1.47-11.32-2.2-1.43-6.06-.64-8.58-.64-2.26,0-5.71-.57-7.14,1.74-2.05,3.31-.92,9.25-.92,13,0,3.28-.34,6.77.05,10,.61,5.1,8,3.44,11.44,3.44s7.09-.44,6.62-5ZM21.79,56.8c0-1.13-.26-4.16-.3-7.37a3.86,3.86,0,0,0,2.69.73A4.69,4.69,0,0,0,26.67,49c.62-.57,1.81-2.32,2.15-.74.77,3.6,1.83,8.36,5.89,9.44v2.12a1.5,1.5,0,0,0,0,.3c.37,3.54-8.51,2.38-10.62,2.38C21,62.49,21.79,58.66,21.79,56.8Zm2.8-17.3a47.57,47.57,0,0,0,6,0h3.36c1,0,.79,2.87.79,3.55V54.94c-3.39-1.57-2-6.73-4.13-9.2a2.73,2.73,0,0,0-3.72-.54c-.9.52-1.5,1.56-2.35,2.18-1.07.78-2.28-.59-2.85-1.31a.63.63,0,0,0-.11-.12C21.77,42.3,22.52,39.23,24.59,39.5Z"/><path class="cls-2" d="M5.22,17.57A11,11,0,0,1,9,10.41a1.3,1.3,0,0,1,1.57-.2,8.42,8.42,0,0,1,3.84,6.54C16.56,12,13.64,6.89,9.44,3,6.81,5,4.17,7.94,3.66,11.29A8.3,8.3,0,0,0,5.22,17.57Z"/><path d="M6.57,22.79a1.27,1.27,0,0,0,2-.16,1.09,1.09,0,0,0,0-1.47C7,18.08,7.93,15.37,10,13.07c2.37,2.2,2.26,5.07.92,8a1.3,1.3,0,0,0,2,1.56C21.37,15.76,17.41,6.39,10.42.39A1.3,1.3,0,0,0,8.85.19C5,3,1.74,6.78,1,11.66.31,16.21,3.35,20,6.57,22.79ZM9.44,3c4.2,3.91,7.12,9,5,13.77a8.42,8.42,0,0,0-3.84-6.54,1.3,1.3,0,0,0-1.57.2,11,11,0,0,0-3.77,7.16,8.3,8.3,0,0,1-1.56-6.28C4.17,7.94,6.81,5,9.44,3Z"/><path class="cls-2" d="M24.05,28.76a11.07,11.07,0,0,1,3.77-7.16,1.29,1.29,0,0,1,1.57-.2,8.39,8.39,0,0,1,3.85,6.53c2.15-4.76-.76-9.86-5-13.77-2.62,2.06-5.26,5-5.77,8.31A8.37,8.37,0,0,0,24.05,28.76Z"/><path d="M25.41,34a1.27,1.27,0,0,0,2-.15,1.09,1.09,0,0,0,0-1.48c-1.65-3.08-.67-5.78,1.41-8.08,2.37,2.19,2.26,5.08.92,8a1.3,1.3,0,0,0,2,1.57c8.41-6.85,4.45-16.22-2.54-22.22a1.3,1.3,0,0,0-1.57-.21c-3.87,2.83-7.11,6.6-7.85,11.47C19.14,27.39,22.18,31.2,25.41,34Zm2.86-19.81c4.21,3.91,7.12,9,5,13.77a8.39,8.39,0,0,0-3.85-6.53,1.29,1.29,0,0,0-1.57.2,11.07,11.07,0,0,0-3.77,7.16,8.37,8.37,0,0,1-1.55-6.29C23,19.13,25.65,16.22,28.27,14.16Z"/></g></g></g></svg>