<svg xmlns="http://www.w3.org/2000/svg" viewBox="0 0 47.13 63.97"><defs><style>.cls-1{fill:#fff;}.cls-2{fill:#e8414e;}</style></defs><g id="Layer_2" data-name="Layer 2"><g id="_3" data-name="3"><g id="Illustration"><path class="cls-1" d="M12.25,23.7c-.7,2.3-1.38,4.6-2.06,6.91l9.62-4.56c.71-2.33,1.42-4.66,2.15-7l-9.37,4.52A1.67,1.67,0,0,1,12.25,23.7Z"/><path class="cls-2" d="M9.22,33.88q-1.05,3.6-2.08,7.2l9.48-4.55q1.08-3.6,2.18-7.19L9.25,33.87Z"/><path class="cls-1" d="M4.37,50.87l9.16-4.2h0c.15-.5.31-1,.46-1.51.53-1.78,1.07-3.55,1.6-5.32L6.2,44.35Z"/><path class="cls-1" d="M17.84,8.53c-.22.37-.42.74-.62,1.12L31,3C25.42,2,20.93,3.35,17.84,8.53Z"/><path class="cls-2" d="M2.57,59.62a1.51,1.51,0,0,0,.09.18l.11-.06L10,56.31a1.32,1.32,0,0,1,.71-.13C11.3,54.09,12,52,12.59,49.9L3.47,54.08C3,55.73,1.94,58.07,2.57,59.62Z"/><path class="cls-1" d="M9.39,59.39l-4.11,2C7.23,61.94,8.54,60.84,9.39,59.39Z"/><path class="cls-1" d="M43.33,10.43a11.5,11.5,0,0,0-1-1.48l-7.44,3.68a5.92,5.92,0,0,1,1.86,5.31l7.83-3.7A11.35,11.35,0,0,0,43.33,10.43Z"/><path class="cls-2" d="M36,21.16C35.34,23.11,34.06,25.81,34,28l9.57-4.7a1.25,1.25,0,0,1,.25-.09A25.62,25.62,0,0,0,44.79,17L36,21.13Z"/><path class="cls-1" d="M37.07,31.54c2.82.61,3.66-.57,4.79-2.95.3-.64.6-1.32.88-2l-7.9,3.88A4,4,0,0,0,37.07,31.54Z"/><path class="cls-2" d="M34.86,3.92,15.54,13.29c-.29.75-.57,1.52-.81,2.3-.51,1.62-1,3.24-1.49,4.86l9.7-4.68c.7-2.16,1.71-4.25,4-5a7.82,7.82,0,0,1,5.69.19L40.51,7A17,17,0,0,0,34.86,3.92Z"/><path d="M37.86,2.37c-7-3.28-15-3.74-20.43,2.39-3.42,3.87-4.83,9-6.29,13.83C9,25.74,6.9,32.91,4.82,40.08,3.2,45.69.66,51.76,0,57.6-.61,63.7,7,66.1,10.83,61.76c2.28-2.58,2.93-7,3.91-10.17,1.46-4.74,2.9-9.48,4.2-14.27s2.82-9.29,4.3-13.9c.71-2.19,1.41-4.38,2.07-6.58,1.3-4.35,4.9-5.22,8.13-2.1,1.14,1.09,1.16,2.74.72,4.6a1.19,1.19,0,0,1,.48-.39l2.13-1a5.92,5.92,0,0,0-1.86-5.31l-1.44.7c-1.46.73-2.76-1.47-1.28-2.2l.4-.2a7.82,7.82,0,0,0-5.69-.19c-2.25.78-3.26,2.87-4,5l.21-.1c1.47-.71,2.77,1.49,1.29,2.2L22,19.07c-.73,2.32-1.44,4.65-2.15,7L20,26c1.48-.7,2.78,1.5,1.29,2.2L18.8,29.34q-1.1,3.58-2.18,7.19l.14-.07c1.48-.71,2.77,1.49,1.29,2.21l-2.42,1.16c-.53,1.77-1.07,3.54-1.6,5.32-.15.51-.31,1-.46,1.51C15,46,16.3,48.2,14.82,48.88l-2.23,1C12,52,11.3,54.09,10.66,56.18c1.12.11,1.82,1.74.58,2.33l-1.85.88c-.85,1.45-2.16,2.55-4.11,2l-1.22.58c-1.44.69-2.7-1.38-1.4-2.14a1.51,1.51,0,0,1-.09-.18c-.63-1.55.41-3.89.9-5.54l0,0C2,54.78.65,52.58,2.14,51.89l2.23-1L6.2,44.35l-.06,0c-1.48.71-2.77-1.49-1.29-2.2l2.29-1.1q1-3.6,2.08-7.2c-1.47.66-2.74-1.51-1.26-2.21l2.23-1.06c.68-2.31,1.36-4.61,2.06-6.91C10.93,24,9.93,22,11.3,21.38l1.94-.93c.5-1.62,1-3.24,1.49-4.86.24-.78.52-1.55.81-2.3l-.25.12c-1.48.72-2.77-1.48-1.29-2.2l3.22-1.56c.2-.38.4-.75.62-1.12C20.93,3.35,25.42,2,31,3l2.6-1.26c1.48-.71,2.77,1.49,1.29,2.2l0,0A17,17,0,0,1,40.51,7l.93-.46c1.47-.72,2.77,1.48,1.29,2.21L42.35,9a11.5,11.5,0,0,1,1,1.48,11.35,11.35,0,0,1,1.27,3.81l.15-.07c1.47-.7,2.77,1.5,1.28,2.2L44.79,17a25.62,25.62,0,0,1-.94,6.24c1.36-.38,2.43,1.61,1,2.3l-2.14,1.05c-.28.72-.58,1.4-.88,2-1.13,2.38-2,3.56-4.79,2.95a4,4,0,0,1-2.23-1.11l-1.1.54c-1.47.72-2.76-1.48-1.29-2.2L34,28c0-2.18,1.31-4.88,1.94-6.83v0l0,0A1.38,1.38,0,0,1,34,20c-1,3.45-3.15,7.46-2.59,10.08.46,2.13,3,3.52,5,3.92,7.12,1.54,9.12-6.35,10.23-12C48.3,13.56,45.9,6.12,37.86,2.37Z"/><path d="M34.91,3.89c1.48-.71.19-2.91-1.29-2.2L31,3l-13.8,6.7L14,11.21c-1.48.72-.19,2.92,1.29,2.2l.25-.12L34.86,3.92Z"/><path d="M11.3,21.38c-1.37.66-.37,2.58.95,2.32a1.67,1.67,0,0,0,.34-.11L22,19.07l2.48-1.2c1.48-.71.18-2.91-1.29-2.2l-.21.1-9.7,4.68Z"/><path d="M8,31.67c-1.48.7-.21,2.87,1.26,2.21h0l9.55-4.53,2.44-1.16c1.49-.7.19-2.9-1.29-2.2l-.14.07-9.62,4.56Z"/><path d="M4.85,42.18c-1.48.71-.19,2.91,1.29,2.2l.06,0,9.43-4.52,2.42-1.16c1.48-.72.19-2.92-1.29-2.21l-.14.07L7.14,41.08Z"/><path d="M4.37,50.87l-2.23,1C.65,52.58,2,54.78,3.43,54.1l0,0,9.12-4.18,2.23-1c1.48-.68.22-2.84-1.25-2.22h0Z"/><path d="M10,56.31,2.77,59.74l-.11.06c-1.3.76,0,2.83,1.4,2.14l1.22-.58,4.11-2,1.85-.88c1.24-.59.54-2.22-.58-2.33A1.32,1.32,0,0,0,10,56.31Z"/><path d="M42.73,8.77c1.48-.73.18-2.93-1.29-2.21L40.51,7l-7.92,3.91-.4.2c-1.48.73-.18,2.93,1.28,2.2l1.44-.7L42.35,9Z"/><path d="M35.93,21.15l0,0L44.79,17,46,16.37c1.49-.7.19-2.9-1.28-2.2l-.15.07-7.83,3.7-2.13,1a1.19,1.19,0,0,0-.48.39A1,1,0,0,0,34,20,1.38,1.38,0,0,0,35.93,21.15Z"/><path d="M34,28l-1.58.78c-1.47.72-.18,2.92,1.29,2.2l1.1-.54,7.9-3.88,2.14-1.05c1.4-.69.33-2.68-1-2.3a1.25,1.25,0,0,0-.25.09Z"/></g></g></g></svg>