<svg xmlns="http://www.w3.org/2000/svg" viewBox="0 0 61.7 65.71"><defs><style>.cls-1{fill:#887557;}.cls-2{fill:#fdd59d;}</style></defs><g id="Layer_2" data-name="Layer 2"><g id="_10" data-name="10"><path class="cls-1" d="M19.42,58.52l-1.49.17a1.29,1.29,0,0,1-1.23-1.62c.15-.69.3-1.37.46-2.06l-2.92.27A1.28,1.28,0,0,1,13,54V51.58l-3,.3a1.84,1.84,0,0,1-.34,0c-1.94,2.54-4.32,5.62-2.29,8.66C11,66,16.09,62.19,19.42,58.52Z"/><path class="cls-1" d="M30.55,27.06a.85.85,0,0,0,1.7,0C32.19,26,30.49,26,30.55,27.06Z"/><path class="cls-1" d="M12,27.3l-1.53-2.58a1.29,1.29,0,0,1,.77-1.87l1.72-.58-1.35-1.94A1.29,1.29,0,0,1,12,18.58l1.3-.84-.22,0c-2.13-.39-4.77-1-6.94-.49S1.7,21,2.48,23.43C3.75,27.28,8,27,12,27.3Z"/><path class="cls-2" d="M31.46,44.32c1.67.46,2.37,2.36,3.19,3.68a80.37,80.37,0,0,0,5.86,8.44,1,1,0,0,1,1.1-.59l2.2.24-.45-2a1.28,1.28,0,0,1,1.23-1.61l3.26.3V50.32A1.28,1.28,0,0,1,49.13,49l.88.09c-3.38-4.46-9.63-11.7-7.82-17.35,1-3,3.22-4.17,6.24-4.61l.18,0,1.31-2.22-1.84-.61a1.29,1.29,0,0,1-.76-1.88c.52-.75,1-1.5,1.57-2.26l-2.08-1.33a1.22,1.22,0,0,1-.57-.88c-1.85.49-3.59,1.08-5,1.53-1.18.37-1.84-.94-1.44-1.88,2.14-5,2.16-10.5-3.22-13.26a17,17,0,0,0-5.71-1.8h-.06a17.52,17.52,0,0,0-6.2,2.21c-4.85,3.12-4.64,8.13-2.46,13,.42.94-.27,2.25-1.44,1.88s-2.6-.79-3.91-1.13a1.59,1.59,0,0,1-.24.2L14.48,20c.52.76,1,1.51,1.57,2.26a1.29,1.29,0,0,1-.76,1.88l-1.84.61,1.47,2.48a1.43,1.43,0,0,1,.17.46,5.5,5.5,0,0,1,4.55,5c.86,5.59-4.45,11.86-8,16.43l2.56-.26a1.28,1.28,0,0,1,1.28,1.28v2.43l3.26-.31A1.29,1.29,0,0,1,20,53.92l-.45,2,2.16-.24a88,88,0,0,0,6-8.75C28.46,45.63,29.6,43.81,31.46,44.32ZM34.52,7.84a1.78,1.78,0,1,1-1.77,1.77A1.78,1.78,0,0,1,34.52,7.84Zm-7,0A1.78,1.78,0,1,1,25.8,9.61,1.78,1.78,0,0,1,27.57,7.84Zm-3.65,7.38c-.9-1.38,1.31-2.66,2.2-1.29a6.78,6.78,0,0,0,2.34,2.18c2.95,1.6,5.53-.26,7.57-2.43,1.13-1.21,2.93.6,1.81,1.8-2.53,2.69-5.87,4.77-9.61,3.34A9.24,9.24,0,0,1,23.92,15.22ZM34.81,27.06a1.21,1.21,0,0,1-.08.52,3.36,3.36,0,0,1-3.33,2.88,3.41,3.41,0,0,1,0-6.81,3.47,3.47,0,0,1,3.34,2.91A1.29,1.29,0,0,1,34.81,27.06ZM28,36.28a3.39,3.39,0,0,1,6.74-.5,1.29,1.29,0,0,1,.07.5,1.24,1.24,0,0,1-.08.52,3.37,3.37,0,0,1-3.33,2.88A3.43,3.43,0,0,1,28,36.28Z"/><path class="cls-1" d="M32.25,36.28c-.06-1.1-1.76-1.1-1.7,0A.85.85,0,0,0,32.25,36.28Z"/><path class="cls-1" d="M49.14,17.31l2.19,1.41a1.29,1.29,0,0,1,.46,1.75l-1.35,2,1.72.57a1.3,1.3,0,0,1,.77,1.88c-.41.68-.82,1.37-1.22,2.06,3.9-.26,8.78-.93,7.47-5.43S53.53,16.53,49.14,17.31Z"/><path class="cls-1" d="M55.17,57.91c-.07-2.06-1.61-4.18-3.05-6l-1.71-.17v2.43a1.28,1.28,0,0,1-1.28,1.27l-2.91-.27.45,2.06a1.29,1.29,0,0,1-1.23,1.62l-3.21-.36c1.64,1.86,3.78,4.29,6.2,4.76C51.56,63.82,55.29,61.42,55.17,57.91Z"/><path d="M53.82,49.59C52.44,47.78,51,46.11,50,44.68c-2.23-3.17-5.12-7-5.44-11-.44-5.33,8.33-4.09,11.71-4.75,7.12-1.4,6.92-10.36,1.4-13.7C54,13,47.54,14.82,43,16.27c1.36-4.54,1.14-9.17-2.84-12.6A17,17,0,0,0,31.41.08,1.08,1.08,0,0,0,30.83,0a1.05,1.05,0,0,0-.55.08,17.58,17.58,0,0,0-8.21,3.34c-4.33,3.43-4.61,8.26-3.13,13C14.44,15,9.3,13.8,4.88,14.9c-6.25,1.56-6.29,10.62-1.3,13.4,2.84,1.58,6.74,1,9.84,1.45,6.23.91,3,7.43,1,10.78S10,47,7.73,50.23C6.4,52.09,4.07,54.69,4,57.14,3.73,64.5,11.43,68,17.2,64.05S26.91,53.28,30.31,47.5c.89-1.51,2.52,2.41,2.94,3.08a76.28,76.28,0,0,0,7.44,10C45.35,65.81,53,68.69,56.94,61c1.78-3.45,0-7.1-2.35-10.39ZM48.43,63.23c-2.42-.47-4.56-2.9-6.2-4.76l3.21.36a1.29,1.29,0,0,0,1.23-1.62l-.45-2.06,2.91.27a1.28,1.28,0,0,0,1.28-1.27V51.72l1.71.17c1.44,1.84,3,4,3.05,6C55.29,61.42,51.56,63.82,48.43,63.23ZM7.36,60.53c-2-3,.35-6.12,2.29-8.66a1.84,1.84,0,0,0,.34,0l3-.3V54a1.28,1.28,0,0,0,1.28,1.27L17.16,55c-.16.69-.31,1.37-.46,2.06a1.29,1.29,0,0,0,1.23,1.62l1.49-.17C16.09,62.19,11,66,7.36,60.53ZM6.18,17.21c2.17-.54,4.81.1,6.94.49l.22,0-1.3.84a1.29,1.29,0,0,0-.46,1.75l1.35,1.94-1.72.58a1.29,1.29,0,0,0-.77,1.87L12,27.3c-4-.26-8.22,0-9.49-3.87C1.7,21,3.92,17.77,6.18,17.21ZM27.67,47a88,88,0,0,1-6,8.75L19.56,56l.45-2a1.29,1.29,0,0,0-1.23-1.62l-3.26.31V50.18a1.28,1.28,0,0,0-1.28-1.28l-2.56.26c3.51-4.57,8.82-10.84,8-16.43a5.5,5.5,0,0,0-4.55-5,1.43,1.43,0,0,0-.17-.46l-1.47-2.48,1.84-.61a1.29,1.29,0,0,0,.76-1.88c-.52-.75-1.05-1.5-1.57-2.26l2.08-1.33a1.59,1.59,0,0,0,.24-.2c1.31.34,2.62.72,3.91,1.13s1.86-.94,1.44-1.88c-2.18-4.86-2.39-9.87,2.46-13a17.52,17.52,0,0,1,6.2-2.21h.06a17,17,0,0,1,5.71,1.8C42,7.12,41.94,12.61,39.8,17.62c-.4.94.26,2.25,1.44,1.88,1.41-.45,3.15-1,5-1.53a1.22,1.22,0,0,0,.57.88l2.08,1.33c-.52.76-1,1.51-1.57,2.26a1.29,1.29,0,0,0,.76,1.88l1.84.61-1.31,2.22-.18,0c-3,.44-5.27,1.59-6.24,4.61C40.38,37.43,46.63,44.67,50,49.13L49.13,49a1.28,1.28,0,0,0-1.28,1.28v2.43l-3.26-.3a1.28,1.28,0,0,0-1.23,1.61l.45,2-2.2-.24a1,1,0,0,0-1.1.59A80.37,80.37,0,0,1,34.65,48c-.82-1.32-1.52-3.22-3.19-3.68C29.6,43.81,28.46,45.63,27.67,47Zm24-20c.4-.69.81-1.38,1.22-2.06A1.3,1.3,0,0,0,52.16,23l-1.72-.57,1.35-2a1.29,1.29,0,0,0-.46-1.75l-2.19-1.41c4.39-.78,8.7-.38,10,4.19S55.61,26.67,51.71,26.93Z"/><path d="M27.57,11.39A1.78,1.78,0,1,0,25.8,9.61,1.78,1.78,0,0,0,27.57,11.39Z"/><path d="M34.52,11.39a1.78,1.78,0,1,0-1.77-1.78A1.78,1.78,0,0,0,34.52,11.39Z"/><path d="M37.84,15.48c1.12-1.2-.68-3-1.81-1.8-2,2.17-4.62,4-7.57,2.43a6.78,6.78,0,0,1-2.34-2.18c-.89-1.37-3.1-.09-2.2,1.29a9.24,9.24,0,0,0,4.31,3.6C32,20.25,35.31,18.17,37.84,15.48Z"/><path d="M31.4,23.65a3.41,3.41,0,0,0,0,6.81,3.36,3.36,0,0,0,3.33-2.88,1.21,1.21,0,0,0,.08-.52,1.29,1.29,0,0,0-.07-.5A3.47,3.47,0,0,0,31.4,23.65Zm-.85,3.41c-.06-1.1,1.64-1.1,1.7,0A.85.85,0,0,1,30.55,27.06Z"/><path d="M34.73,36.8a1.24,1.24,0,0,0,.08-.52,1.29,1.29,0,0,0-.07-.5,3.39,3.39,0,0,0-6.74.5,3.43,3.43,0,0,0,3.4,3.4A3.37,3.37,0,0,0,34.73,36.8Zm-4.18-.52c-.06-1.1,1.64-1.1,1.7,0A.85.85,0,0,1,30.55,36.28Z"/></g></g></svg>