<svg xmlns="http://www.w3.org/2000/svg" viewBox="0 0 76.41 62.87"><defs><style>.cls-1{fill:#887557;}.cls-2{fill:#1d1d1b;}</style></defs><g id="Layer_2" data-name="Layer 2"><g id="_18" data-name="18"><path d="M74.19,5a5.48,5.48,0,0,1-3.61,1.31,13.07,13.07,0,0,0,1.08-5.12c.06-1.64-2.49-1.64-2.55,0-.25,7.63-6,8.3-11.8,9.6a12.85,12.85,0,0,0,1.95-9c-.33-1.62-2.79-.93-2.46.68.69,3.34-1.28,7-3.34,9.45-.36.13-.72.27-1.07.42-.68.31-1.35.64-2,1-2.13-1.46-2.79-4.34-2.55-6.8.16-1.64-2.4-1.62-2.55,0a10,10,0,0,0,2.81,8.21,29.14,29.14,0,0,0-5.58,4.88,16.06,16.06,0,0,0-4.31-.71,13.74,13.74,0,0,0-4.43.56,29,29,0,0,0-5.46-4.73,10,10,0,0,0,2.82-8.21c-.16-1.62-2.71-1.64-2.55,0,.24,2.46-.42,5.34-2.56,6.8-.66-.36-1.32-.69-2-1-.35-.15-.71-.29-1.07-.42-2.06-2.48-4-6.11-3.34-9.45.33-1.61-2.13-2.3-2.46-.68a12.85,12.85,0,0,0,2,9.05c-5.76-1.3-11.55-2-11.81-9.6,0-1.64-2.6-1.64-2.55,0A13.2,13.2,0,0,0,5.83,6.35,5.53,5.53,0,0,1,2.21,5C1,3.94-.82,5.74.41,6.85a8.26,8.26,0,0,0,7,1.91c1.86,2,4.61,3.11,8.06,3.9a6.66,6.66,0,0,1-7.07.42,1.28,1.28,0,0,0-1.29,2.2,9.51,9.51,0,0,0,11.45-1.87,27.59,27.59,0,0,1,12.68,7.11,15.13,15.13,0,0,0-3.19,2.34l-6-3.1c-2.44-1.26-3.53-1.84-5.84.1-3.25,2.73-1.74,8.09,1.38,10.21A16.24,16.24,0,0,0,22,32.13a73.52,73.52,0,0,0-3.81,12.25C12.62,68.61,63.86,70,57.57,42.87a87.5,87.5,0,0,0-3.44-10.68,17.71,17.71,0,0,0,4.24-1.81c3.56-2.12,4.85-6.92,2.14-10.22-1.86-2.27-3.55-1.73-5.73-.61L48.16,23A15.19,15.19,0,0,0,45,20.67a27.33,27.33,0,0,1,12.82-7.26,9.52,9.52,0,0,0,11.46,1.87c1.43-.8.14-3-1.29-2.2a6.65,6.65,0,0,1-7.07-.42c3.45-.78,6.2-1.92,8.06-3.9a8.27,8.27,0,0,0,7-1.91C77.22,5.74,75.41,3.94,74.19,5Zm-18.1,23.7a14.53,14.53,0,0,1-3,1.13,27,27,0,0,0-3.12-5l2.42-1.25,4-2.08,1-.52a3.37,3.37,0,0,1,2,2.84C59.67,26.24,58,27.74,56.09,28.74Zm-1,14.81c2.69,11.57-8,17.07-18,16.87a20.34,20.34,0,0,1-13.52-5.19c-4.43-4.21-3-10-1.53-15.16,2.52-8.63,6.65-18.92,17.21-18.57S53,35.59,55.11,43.55ZM19,21l.67.35,3.9,2,2.76,1.42a27.87,27.87,0,0,0-3.15,5A18,18,0,0,1,20.83,29C17.85,27.72,14.79,22.88,19,21Z"/><path class="cls-1" d="M26.29,24.81l-2.76-1.42-3.9-2L19,21c-4.17,1.84-1.11,6.68,1.87,7.94a18,18,0,0,0,2.31.79A27.87,27.87,0,0,1,26.29,24.81Z"/><path class="cls-1" d="M57.45,21l-1,.52-4,2.08L50,24.89a27,27,0,0,1,3.12,5,14.53,14.53,0,0,0,3-1.13c1.88-1,3.58-2.5,3.35-4.86A3.37,3.37,0,0,0,57.45,21Z"/><path class="cls-1" d="M39.25,21.5C28.69,21.15,24.56,31.44,22,40.07c-1.51,5.15-2.9,11,1.53,15.16a20.34,20.34,0,0,0,13.52,5.19c10,.2,20.71-5.3,18-16.87C53,35.59,49.71,21.83,39.25,21.5ZM28.85,37.24a3,3,0,1,1,3,3A3,3,0,0,1,28.85,37.24ZM38.2,54.49c-2.35,0-4.26-.76-4.26-2.74S35.85,49,38.2,49s4.26.62,4.26,2.74S40.56,54.49,38.2,54.49Zm6.32-14.21a3,3,0,1,1,3-3A3,3,0,0,1,44.52,40.28Z"/><path class="cls-2" d="M34.93,37.24a3,3,0,1,0-3,3A3,3,0,0,0,34.93,37.24Z"/><path class="cls-2" d="M44.52,34.2a3,3,0,1,0,3,3A3,3,0,0,0,44.52,34.2Z"/><path d="M38.2,49c-2.35,0-4.26.67-4.26,2.74s1.91,2.74,4.26,2.74,4.26-.64,4.26-2.74S40.56,49,38.2,49Z"/></g></g></svg>