<svg xmlns="http://www.w3.org/2000/svg" viewBox="0 0 60.51 58.04"><defs><style>.cls-1{fill:#e8414e;}.cls-2{fill:#70bab5;}</style></defs><g id="Layer_2" data-name="Layer 2"><g id="_7" data-name="7"><g id="Illustration"><path class="cls-1" d="M11.75,55.45a1.18,1.18,0,0,1,.23-.28L40.43,27.83h-9.9L7.24,49.92a10.9,10.9,0,0,0,.28,2.92C8,54.4,9.66,55.13,11.75,55.45Z"/><path class="cls-1" d="M14.5,27.83H9.65c-.77,0-1.55,0-2.34,0v6.78Z"/><path class="cls-2" d="M18.21,27.83,7.35,38.08l0,0v8.23L26.82,27.83Z"/><path class="cls-1" d="M39.52,55.48,53.36,42.24v-10L29,55.48Z"/><path class="cls-2" d="M53.36,50.15V45.77L43.21,55.48H47.4C51.52,55.48,53.26,54.54,53.36,50.15Z"/><path class="cls-2" d="M45.5,27.83H44.12l-29,27.85c2.33,0,4.62-.2,5.94-.2h4.29l.06-.07,27.94-26.7v-.89H45.5Z"/><path class="cls-2" d="M26.27,25.28h10c.05-.06.09-.12.15-.18L47.75,14.39H37.6Z"/><path class="cls-2" d="M57.93,21.71l-3.71,3.53C56.4,25.12,57.73,24.53,57.93,21.71Z"/><path class="cls-1" d="M53.25,14.39H51.46L40,25.28H50.48l7.33-7C57.49,16,56.48,14.39,53.25,14.39Z"/><path class="cls-1" d="M2.74,19.46l5.37-5.07h-.3C4.18,14.39,2.88,16.1,2.74,19.46Z"/><path class="cls-2" d="M8.23,25.28h.44l.05-.06L20.25,14.39H11.83L2.77,22.94a2.21,2.21,0,0,0,1.81,2.15A24.73,24.73,0,0,0,8.23,25.28Z"/><path class="cls-1" d="M12.39,25.28h10.2l.05-.06L33.92,14.39H24Z"/><path d="M60.51,21.27c0-5.47-1.31-9.43-7.44-9.43H47.8c3.13-1.64,4.53-4.41,1.7-9-2.17-3.54-7-3.19-10.18-1.64C36.84,2.37,35.62,5,33.93,7a24.43,24.43,0,0,1-3.58,3.38A35,35,0,0,1,26.74,7c-1.94-2.09-2.9-4.32-5.39-5.82C18.28-.67,13.21-.51,11.16,2.82c-2.82,4.61-1.43,7.38,1.71,9H11.74a1.19,1.19,0,0,0-.77,0H7.18C.65,11.84-.73,18,.31,23.55c.52,2.73,2.3,3.73,4.45,4.09V38.28c0,4.63-.6,9.75.15,14.35.83,5.07,4.93,5.4,9.3,5.4H39.89a1,1,0,0,0,.34,0h6.9c5.81,0,8.64-1.82,8.78-7.88,0-7.46.46-15.11.26-22.63C58.94,26.9,60.41,25.23,60.51,21.27ZM8.11,14.39,2.74,19.46c.14-3.36,1.44-5.07,5.07-5.07ZM2.77,22.94l9.06-8.55h8.42L8.72,25.22l-.05.06H8.23a24.73,24.73,0,0,1-3.65-.19A2.21,2.21,0,0,1,2.77,22.94Zm10-14.34c-1.65-2.28.85-5.3,3-5.94,4.43-1.31,6.92,3.44,9.22,6.14a23.49,23.49,0,0,0,2.84,2.8A44.24,44.24,0,0,1,17.18,11,7,7,0,0,1,12.75,8.6Zm23,.2c2.75-3,4.39-6.94,9.21-6.14,2.29.38,3.61,2.92,3.32,5.07s-3.09,2.8-4.78,3.24a36.19,36.19,0,0,1-10.68.66A37.31,37.31,0,0,0,35.73,8.8ZM50.48,25.28H40L51.46,14.39h1.79c3.23,0,4.24,1.63,4.56,3.91ZM7.31,38.11l0,0L18.21,27.83h8.61L7.31,46.34ZM31.18,14.39h2.74L22.64,25.22l-.05.06H12.39L24,14.39ZM36.44,25.1c-.06.06-.1.12-.15.18h-10L37.6,14.39H47.75ZM9.65,27.83H14.5L7.31,34.61V27.83C8.1,27.84,8.88,27.83,9.65,27.83ZM7.24,49.92,30.53,27.83h9.9L12,55.17a1.18,1.18,0,0,0-.23.28C9.66,55.13,8,54.4,7.52,52.84A10.9,10.9,0,0,1,7.24,49.92Zm46.12-15v7.35L39.52,55.48H29L53.36,32.24ZM43.21,55.48l10.15-9.71v4.38c-.1,4.39-1.84,5.33-6,5.33ZM53.36,28.71,25.42,55.41l-.06.07H21.07c-1.32,0-3.61.2-5.94.2l29-27.85h9.24Zm.86-3.47,3.71-3.53C57.73,24.53,56.4,25.12,54.22,25.24Z"/></g></g></g></svg>