<svg xmlns="http://www.w3.org/2000/svg" viewBox="0 0 68.5 64.55"><defs><style>.cls-1{fill:#addadb;}.cls-2{fill:#84a7a8;}</style></defs><g id="Layer_2" data-name="Layer 2"><g id="_2" data-name="2"><g id="Illustration"><path class="cls-1" d="M65.75,33.09c1.69-7.68-7.65-4.24-10.86-2.53A1.29,1.29,0,0,1,53,29.12c1.35-7.68,3.85-19.8-4.63-24.65C41.17.35,34.76,3.56,29.76,8.92c2.46,4.09,3.47,9,4.33,13.88,2.42-2.39,5.65-4.82,9-3.9,3.5,1,4.9,3.64,4.77,7.16-.21,5.64-6.33,9.2-8.61,13.91-1,2.14-1.84,4.43-2.81,6.63a6.11,6.11,0,0,1,2.58,3,32.73,32.73,0,0,0,9-.4c1.47-3.13,5-6,7.5-7.79C58.61,39.17,64.82,37.34,65.75,33.09Z"/><path d="M55.91,27.31c1.42-8.44,2.56-19.14-5.44-24.51C42.31-2.68,34.3.54,28.27,6.8a17.9,17.9,0,0,0-4-3.7C18-1.1,9,1.13,4.44,6.6c-4.8,5.71-4.85,14-4.06,21,.86,7.66,3.11,16.08,7.37,22.75A9.38,9.38,0,0,0,6.85,59c1.42,4.12,6.2,5,10,5.39a36.9,36.9,0,0,0,14.28-1.56c4.88,1.38,11.1,2,15.45,0,5.32-2.51,6-8,3.52-12.75,1.07-1,3.76-3.72,4.19-4.2a25.69,25.69,0,0,1,7.11-5.11c3.13-1.7,6.86-4.38,7.09-8.34C69,24.51,61.27,25.22,55.91,27.31ZM21.36,62.05A27.81,27.81,0,0,1,12.66,61c-3-.76-3.77-3-3.92-5.54,0-.57.14-3.83,1.68-3.31A27.09,27.09,0,0,0,23.07,53a32.91,32.91,0,0,0,8-2.45c3.23-1.35,5.12-2.45,6.2,1.9C37.61,59.87,27,61.67,21.36,62.05ZM4.93,10.45C8.3,3.82,16.62,1.75,23,5.31c7.05,4,7.85,13.52,9.09,20.53a1.28,1.28,0,0,0,2.13.56C36.47,23.9,44.31,17,45.31,25c.51,4.13-4.06,7.54-6.31,10.5-2.51,3.29-3.58,7.32-5.35,11a6,6,0,0,0-.88.39c-7,3.87-15.24,5.25-22.77,2.32C6.62,44,4.8,37.59,3.58,31.63,2.18,24.75,1.65,16.89,4.93,10.45ZM39.8,52.24v0a35,35,0,0,0,8.33-.41c4.33,8.68-5.33,9.94-12.86,9.06A9.11,9.11,0,0,0,39.8,52.24Zm8.16-3a32.73,32.73,0,0,1-9,.4,6.11,6.11,0,0,0-2.58-3c1-2.2,1.77-4.49,2.81-6.63,2.28-4.71,8.4-8.27,8.61-13.91.13-3.52-1.27-6.18-4.77-7.16-3.31-.92-6.54,1.51-9,3.9-.86-4.88-1.87-9.79-4.33-13.88,5-5.36,11.41-8.57,18.63-4.45,8.48,4.85,6,17,4.63,24.65a1.29,1.29,0,0,0,1.87,1.44c3.21-1.71,12.55-5.15,10.86,2.53-.93,4.25-7.14,6.08-10.29,8.35C53,43.23,49.43,46.1,48,49.23Z"/><path class="cls-2" d="M48.13,51.81a35,35,0,0,1-8.33.41v0a9.11,9.11,0,0,1-4.53,8.63C42.8,61.75,52.46,60.49,48.13,51.81Z"/><path class="cls-1" d="M10,49.19c7.53,2.93,15.8,1.55,22.77-2.32a6,6,0,0,1,.88-.39c1.77-3.67,2.84-7.7,5.35-11,2.25-3,6.82-6.37,6.31-10.5-1-8-8.84-1.09-11.13,1.41a1.28,1.28,0,0,1-2.13-.56c-1.24-7-2-16.58-9.09-20.53-6.34-3.56-14.66-1.49-18,5.14-3.28,6.44-2.75,14.3-1.35,21.18C4.8,37.59,6.62,44,10,49.19Z"/><path class="cls-2" d="M37.25,52.42c-1.08-4.35-3-3.25-6.2-1.9a32.91,32.91,0,0,1-8,2.45,27.09,27.09,0,0,1-12.65-.83c-1.54-.52-1.71,2.74-1.68,3.31.15,2.57.95,4.78,3.92,5.54a27.81,27.81,0,0,0,8.7,1.06C27,61.67,37.61,59.87,37.25,52.42Z"/></g></g></g></svg>