<svg xmlns="http://www.w3.org/2000/svg" viewBox="0 0 54.9 62.59"><defs><style>.cls-1{fill:#e8414e;}.cls-2{fill:#fff;}</style></defs><g id="Layer_2" data-name="Layer 2"><g id="_20" data-name="20"><path class="cls-1" d="M16.75,44.56H41.82c.81,0,1.73,0,2.69,0-5.79-6.38-7.06-15.92-6.63-24.25,0-.09,0-.17,0-.25-4.41-.8-8.4-4.17-8.83-8.79l-.27.1C15.31,16.19,8.84,30.84,9.07,44.5,11.67,44.33,14.4,44.56,16.75,44.56Z"/><path class="cls-2" d="M31.42,9.94C32,20.1,46.65,20.1,47.2,9.94,47,5.82,43.78,1.81,39.31,2.05,35.2,2.27,31.18,5.47,31.42,9.94Z"/><path class="cls-2" d="M41.82,47H13.42c-4.16,0-11.15-.48-10.93,5.47.31,8.51,8.27,7.38,14.6,7.38H35.47c4.5,0,15.37,1.83,16.73-4.46C53.92,47.36,47.83,46.9,41.82,47Z"/><path d="M54.68,50.15c-.59-3.54-3.49-4.86-6.67-5.34a1.18,1.18,0,0,0-.34-.5c-6.52-5.84-7.93-15.52-7.41-24.09,5.19-.26,8.88-5,9.31-9.93a1.31,1.31,0,0,0,0-.35,1.34,1.34,0,0,0,0-.36c-1-12.41-18.45-12.76-20.39-1.06-1.23.45-2.42,1-3.09,1.31-13.33,5.79-19.76,21-19.42,35A10.88,10.88,0,0,0,4,45.68C-1.25,48.25-1,56.23,2.9,59.91,7.21,64,16.76,62.22,22,62.22c8.05,0,16.65.87,24.62-.21C53,61.15,55.74,56.37,54.68,50.15Zm-2.48,5.2C50.84,61.64,40,59.81,35.47,59.81H17.09c-6.33,0-14.29,1.13-14.6-7.38C2.27,46.48,9.26,47,13.42,47h28.4C47.83,46.9,53.92,47.36,52.2,55.35Zm-23.41-44,.27-.1c.43,4.62,4.42,8,8.83,8.79,0,.08,0,.16,0,.25-.43,8.33.84,17.87,6.63,24.25-1,0-1.88,0-2.69,0H16.75c-2.35,0-5.08-.23-7.68-.06C8.84,30.84,15.31,16.19,28.79,11.36ZM39.31,2.05C43.78,1.81,47,5.82,47.2,9.94,46.65,20.1,32,20.1,31.42,9.94,31.18,5.47,35.2,2.27,39.31,2.05Z"/></g></g></svg>