<svg xmlns="http://www.w3.org/2000/svg" viewBox="0 0 51.96 61.82"><defs><style>.cls-1{fill:#1d1d1b;}</style></defs><g id="Layer_2" data-name="Layer 2"><g id="_16" data-name="16"><path class="cls-1" d="M11.65,18.85c-1.09-6-1.77-10-2-11.81A24.92,24.92,0,0,0,9,3.49,2.1,2.1,0,0,0,6.46,2.06L6,2.11,8.21,16.76,5,17.44c0-.19-.08-.39-.11-.6l-.17-1.58L3.29,6.82C3.14,5.75,3.05,4.71,3,3.74V3.57l-.11-.11A2.18,2.18,0,0,0,2,3a2.45,2.45,0,0,0-1-.11A1.06,1.06,0,0,0,0,4.19c1.24,9.07,2.56,16.88,3.9,23.2s2.23,7.19,3,7.19H7a1.16,1.16,0,0,0,.92-.65,1.72,1.72,0,0,0,.18-1c-.22-1.58-.66-4-1.31-7-.61-2.85-1-5.07-1.25-6.58a4.08,4.08,0,0,1,1.28-.37,10.11,10.11,0,0,1,1.69-.1c.83,4.32,1.6,9.08,2.3,14.15.19,1.4,1,1.61,1.47,1.61a1.1,1.1,0,0,0,.25,0,1.42,1.42,0,0,0,1.11-.81,2.07,2.07,0,0,0,.25-1.32C13.5,29.42,12.74,24.85,11.65,18.85Z"/><path class="cls-1" d="M19.75,33.22a3.71,3.71,0,0,0,1.95.58,2.7,2.7,0,0,0,.49,0,3.27,3.27,0,0,0,2.23-1.41,6.56,6.56,0,0,0,1.19-2.55A7.87,7.87,0,0,0,25.72,27a11.07,11.07,0,0,1-.07-2.42v-.05l-.38-5.5-.33-2.38c-.14-1-.37-2.45-.68-4.32a31.78,31.78,0,0,0-.66-3.18c-.21-.71-.49-1.64-.83-2.8a10.57,10.57,0,0,0-1.18-2.76c-.41-.63-.89-1.27-1.41-1.92a4.47,4.47,0,0,0-2-1.44,5.51,5.51,0,0,0-2.5-.19,3.46,3.46,0,0,0-2.46,1.69,5.71,5.71,0,0,0-.67,1.57,10.09,10.09,0,0,0-.34,1.79,18.17,18.17,0,0,0-.07,2c0,.75.05,1.46.11,2.1s.12,1.36.22,2.17l.28,2.05c.09.56.19,1.19.3,1.9s.23,1.54.36,2.52.4,2.4.81,4.18c.27,1.16.57,2.27.88,3.3a29.76,29.76,0,0,0,1.18,3.2,17.5,17.5,0,0,0,1.5,2.79A6.71,6.71,0,0,0,19.75,33.22Zm.59-3.58a13.55,13.55,0,0,1-1.64-3.19c-.48-1.3-1-3-1.58-5.08a45.36,45.36,0,0,1-1.23-5.84l0-.17c-.08-.71-.19-1.68-.34-2.93-.07-.75-.13-1.44-.18-2S15.28,9,15.25,8.25a13.27,13.27,0,0,1,0-2,16.76,16.76,0,0,1,.24-1.69A3.06,3.06,0,0,1,16,3.4.88.88,0,0,1,16.62,3h.11a1.6,1.6,0,0,1,.88.34A4.11,4.11,0,0,1,18.74,4.7a20.07,20.07,0,0,1,1,2.13,22.1,22.1,0,0,1,.87,2.64c.27,1,.5,1.94.7,2.78s.37,1.73.54,2.69.29,1.7.36,2.21.19,1.31.34,2.42.27,3,.37,5.79a16.77,16.77,0,0,1-.26,3.88c-.11.5-.36,1.35-.82,1.41S20.88,30.37,20.34,29.64Z"/><path class="cls-1" d="M41.94,6.54a1.87,1.87,0,0,0-1.6-2l-.42-.1L37.13,16.69l-2.59-.42c0-.15.05-.29.08-.44L35,14.52l1.45-7.08c.22-.89.46-1.74.73-2.51l.05-.16-.06-.15A1.89,1.89,0,0,0,36.59,4a2.1,2.1,0,0,0-.82-.43,1.53,1.53,0,0,0-.3,0,.94.94,0,0,0-.94.83c-1.81,7.53-3.17,14.08-4.05,19.48s-.51,6.51.28,6.68a1,1,0,0,0,1-.25,1.5,1.5,0,0,0,.49-.79c.31-1.32.69-3.32,1.12-5.94.39-2.4.73-4.26,1-5.52a4,4,0,0,1,1.06.1,9.86,9.86,0,0,1,1.3.43c-.67,3.63-1.52,7.6-2.53,11.8a1.82,1.82,0,0,0,0,1.17,1.24,1.24,0,0,0,.87.69l.31,0a1.37,1.37,0,0,0,.89-.35,1.83,1.83,0,0,0,.62-1c.6-2.49,1.4-6.32,2.38-11.38s1.67-8.38,2-9.92A22.05,22.05,0,0,0,41.94,6.54Z"/><path class="cls-1" d="M51.83,10.5a18.46,18.46,0,0,0-.53-1.95,3.75,3.75,0,0,0-1.12-1.77,4.56,4.56,0,0,0-1.94-.93,3,3,0,0,0-2.51.58,5.42,5.42,0,0,0-1,1.05,9.94,9.94,0,0,0-.81,1.32,14.37,14.37,0,0,0-.68,1.58c-.22.6-.41,1.17-.57,1.69s-.32,1.12-.49,1.78l-.75,3.29c-.13.59-.3,1.29-.5,2.1s-.42,2-.64,3.54c-.15,1-.25,2-.33,2.88a27.53,27.53,0,0,0,0,2.89,14.41,14.41,0,0,0,.33,2.67,5.64,5.64,0,0,0,.95,2.09A3.15,3.15,0,0,0,43,34.52a2.82,2.82,0,0,0,2.24-.44,5.6,5.6,0,0,0,1.73-1.66,6.75,6.75,0,0,0,1-2.18,9.21,9.21,0,0,1,.68-1.92L50,23.82l.47-2c.21-.86.47-2.06.8-3.61a25.88,25.88,0,0,0,.45-2.72c0-.62.12-1.44.21-2.45A9.33,9.33,0,0,0,51.83,10.5Zm-2.57,2a18.2,18.2,0,0,1-.13,2.34q-.15,1.32-.3,2.4c-.1.71-.23,1.48-.4,2.29s-.29,1.43-.39,1.85l-.48,2c-.23.9-.72,2.47-1.48,4.67a14.16,14.16,0,0,1-1.4,3c-.35.53-.7.84-1,.83s-.63-.5-.82-1.22a10.78,10.78,0,0,1-.31-3c0-1.17.12-2.68.31-4.48a37.77,37.77,0,0,1,.82-5l.67-2.55c.17-.61.33-1.17.48-1.66s.37-1.08.58-1.71a14.63,14.63,0,0,1,.65-1.58c.23-.45.47-.86.71-1.24a2.35,2.35,0,0,1,.67-.74.68.68,0,0,1,.38-.12l.2,0a1.21,1.21,0,0,1,.64.54,3.34,3.34,0,0,1,.46,1.39A15.3,15.3,0,0,1,49.26,12.48Z"/><path class="cls-1" d="M25.8,39.88A18.33,18.33,0,0,0,25.5,37a1.76,1.76,0,0,0-2-1.34l-.42,0,.81,11.67-2.38.32c0-.12,0-.25,0-.38l0-1.26-.62-6.73c-.05-.85-.06-1.67,0-2.44v-.16l-.1-.13a1.76,1.76,0,0,0-.69-.45,2,2,0,0,0-.76-.16h-.09a.94.94,0,0,0-.93,1.08c.43,7.21,1,13.44,1.66,18.51.73,5.46,1.43,5.92,2.09,5.92h0a1,1,0,0,0,.84-.5,1.54,1.54,0,0,0,.22-.86c-.08-1.26-.28-3.15-.61-5.61-.3-2.24-.49-4-.58-5.19a3.48,3.48,0,0,1,.95-.19,8.87,8.87,0,0,1,1.25,0c.38,3.42.7,7.19.93,11.2.08,1.31.9,1.45,1.26,1.45h.09a1.23,1.23,0,0,0,1-.61,1.7,1.7,0,0,0,.29-1.08c-.14-2.39-.46-6-.95-10.82S25.88,41.35,25.8,39.88Zm.43,21.5Z"/><path class="cls-1" d="M37.26,48.4Q37.19,47.16,37,45c-.1-1.09-.21-2-.33-2.55s-.28-1.33-.48-2.25a8.75,8.75,0,0,0-.76-2.28c-.29-.51-.63-1-1-1.6A3.67,3.67,0,0,0,32.92,35a4.38,4.38,0,0,0-2-.3,2.77,2.77,0,0,0-2.1,1.2,4.72,4.72,0,0,0-.64,1.23,10,10,0,0,0-.38,1.4,15.55,15.55,0,0,0-.18,1.6c0,.6-.05,1.16-.05,1.67s0,1.08.05,1.73l.22,3.14q.06.84.12,2c0,.79.17,1.92.39,3.34.14.94.3,1.83.49,2.67a23.08,23.08,0,0,0,.73,2.59,13.62,13.62,0,0,0,1,2.31A5.37,5.37,0,0,0,32,61.19a2.93,2.93,0,0,0,1.77.6H34a2.72,2.72,0,0,0,1.9-1,5.26,5.26,0,0,0,1.1-2,6,6,0,0,0,.27-2.22,8.33,8.33,0,0,1,.09-1.89v-.21l0-4.2ZM31.49,36.81v.43a1.1,1.1,0,0,1,.67.3,3,3,0,0,1,.78,1.1,17.13,17.13,0,0,1,.67,1.72,17.43,17.43,0,0,1,.51,2.12c.15.82.28,1.56.38,2.23s.19,1.39.26,2.15.13,1.36.15,1.76.07,1.05.12,1.93,0,2.4-.06,4.57a14,14,0,0,1-.44,3c-.19.62-.43,1-.69,1s-.77-.46-1-.85a10.17,10.17,0,0,1-1.08-2.58c-.3-1.05-.62-2.43-.94-4.09A36.88,36.88,0,0,1,30.2,47l-.09-2.46c0-.6,0-1.14,0-1.62s0-1.07.05-1.68a13.31,13.31,0,0,1,.16-1.59,11.31,11.31,0,0,1,.3-1.3,2.35,2.35,0,0,1,.39-.84.62.62,0,0,1,.47-.22l0-.43Z"/></g></g></svg>