<svg xmlns="http://www.w3.org/2000/svg" viewBox="0 0 76.7 49.71"><defs><style>.cls-1{fill:#fff;}.cls-2{fill:#57996f;}.cls-3{fill:#e8414e;}</style></defs><g id="Layer_2" data-name="Layer 2"><g id="_9" data-name="9"><g id="Illustration"><path class="cls-1" d="M38.47,30.89l.16-.06h-.16Z"/><path class="cls-2" d="M61.21,38.33c2.59-.36,6.7-1,9.72-.43A36.38,36.38,0,0,1,70,31.06a15.19,15.19,0,0,1,2.22-5.69,22,22,0,0,1-8.7.27A41.92,41.92,0,0,1,55.09,23C52.34,21.8,53.78,21.38,52.2,24A13.77,13.77,0,0,1,42,30.71a6.86,6.86,0,0,1,4.29,2.85,89.5,89.5,0,0,1,13.52-4c1.6-.33,2.29,2.13.68,2.47a85.79,85.79,0,0,0-13.16,3.86,8.33,8.33,0,0,1,.23,1.34,1.37,1.37,0,0,1,0,.36,1.4,1.4,0,0,1,0,.37,8.14,8.14,0,0,1-2,4.61,8.7,8.7,0,0,1,3.45,1c.78.4,2.5,1.91,3.74,2.72A9.53,9.53,0,0,1,61.21,38.33Z"/><path d="M75.13,21.93a23.22,23.22,0,0,1-12,1,34.46,34.46,0,0,1-6-1.91C56,20.62,53.47,18.63,52,19.33c-1.17.57-1,1.16-1.53,2.41a11.17,11.17,0,0,1-4.9,5.39A13,13,0,0,1,38,28.23a6.65,6.65,0,0,0-3.43-3.71c.44-2.46,1.46-5.43.39-7.46a1.28,1.28,0,0,0-1.44-.59c-2.44.59-4.88,1.39-6.91-.64C24,13.21,23.52,7.07,23.52,3.7a1.29,1.29,0,0,0-1.28-1.27c-1,0-1.29.43-2.19,1.1A10,10,0,0,1,11,4.9a25.33,25.33,0,0,1-6.3-3.06C3.62,1.18,2.63,0,1.28,0A1.29,1.29,0,0,0,0,1.28C0,3,1.18,4.6,1.81,6.16c1.09,2.67,2.08,5.38,2.95,8.13a27,27,0,0,1,1.3,5.9c.18,2.13-1.49,3.3-1.49,5.09a1.31,1.31,0,0,0,1.28,1.28c7.77.52,12.11,7.63,10.62,15.11a1.3,1.3,0,0,0,1.23,1.62h.61a1.3,1.3,0,0,0,1.23-.94c.16-.45,1.49-.88,3-1.25a9,9,0,0,0-.13,1c-.22,4.17,3.41,7.34,7.32,7.56s6.5-3,7.16-6.37a7.71,7.71,0,0,0,3.84,1.31,5.83,5.83,0,0,0,1.63-.15c1.67.76,3.59.54,5.3,1.28,1.95.85,4.06,3.6,6.16,3.6a1.29,1.29,0,0,0,1.28-1.28c0-5.79,5-7.41,10-7.53,1.79-.05,5.41-.34,6.35.13a1.3,1.3,0,0,0,1.55-.2l.31-.31a1.29,1.29,0,0,0,.33-1.24c-1.86-5.73-1.34-10.14,2.71-14.87C77.15,23.17,76.44,21.5,75.13,21.93ZM49,43.57a8.7,8.7,0,0,0-3.45-1,8.14,8.14,0,0,0,2-4.61,1.4,1.4,0,0,0,0-.37,1.37,1.37,0,0,0,0-.36,8.33,8.33,0,0,0-.23-1.34A85.79,85.79,0,0,1,60.48,32c1.61-.34.92-2.8-.68-2.47a89.5,89.5,0,0,0-13.52,4A6.86,6.86,0,0,0,42,30.71,13.77,13.77,0,0,0,52.2,24c1.58-2.63.14-2.21,2.89-1.05a41.92,41.92,0,0,0,8.47,2.68,22,22,0,0,0,8.7-.27A15.19,15.19,0,0,0,70,31.06a36.38,36.38,0,0,0,.89,6.84c-3-.58-7.13.07-9.72.43a9.53,9.53,0,0,0-8.48,8C51.49,45.48,49.77,44,49,43.57ZM25,42.14c-.33-6.43,9.21-6.39,9.54,0A4.77,4.77,0,1,1,25,42.14ZM7.77,24.26l.31-.5a8.41,8.41,0,0,0,.55-3A15.34,15.34,0,0,0,8,16.33,59.69,59.69,0,0,0,5.74,9.27c-.59-1.64-2-3.94-2.76-6C4.37,4.18,6.07,5.56,6.9,6a21.18,21.18,0,0,0,5.35,1.84,12.39,12.39,0,0,0,5-.19c1.12-.22,2.59-1.46,3.76-2.16.2,4.23,1.16,8.89,3.76,12.16,2,2.57,5.22,2.24,8,1.62-.08,1.18-.64,3-.75,3.82,0,.25-.07.53-.11.82h-.06a6.07,6.07,0,0,0-5.64,3.47,161.29,161.29,0,0,0-11-12.09,1.28,1.28,0,0,0-1.81,1.81,161.88,161.88,0,0,1,11.89,13.2,2.71,2.71,0,0,0,0,.41,6.08,6.08,0,0,0,1.6,4.42,7.36,7.36,0,0,0-3.31,3.15,19.31,19.31,0,0,0-4.35,1.31C19.57,32.12,15.16,25.66,7.77,24.26ZM36.5,37.59c-.3-5.77,8.24-5.72,8.54,0A4.27,4.27,0,1,1,36.5,37.59Zm2-6.7v-.07h.16Zm-2.54-.21a4,4,0,1,1-8.07,0C27.58,25.23,35.65,25.27,35.93,30.68Z"/><path class="cls-2" d="M23.6,38.25a7.36,7.36,0,0,1,3.31-3.15,6.08,6.08,0,0,1-1.6-4.42,2.71,2.71,0,0,1,0-.41,161.88,161.88,0,0,0-11.89-13.2,1.28,1.28,0,0,1,1.81-1.81,161.29,161.29,0,0,1,11,12.09,6.07,6.07,0,0,1,5.64-3.47H32c0-.29.08-.57.11-.82.11-.85.67-2.64.75-3.82-2.82.62-6,.95-8-1.62C22.17,14.36,21.21,9.7,21,5.47c-1.17.7-2.64,1.94-3.76,2.16a12.39,12.39,0,0,1-5,.19A21.18,21.18,0,0,1,6.9,6C6.07,5.56,4.37,4.18,3,3.31c.72,2,2.17,4.32,2.76,6A59.69,59.69,0,0,1,8,16.33a15.34,15.34,0,0,1,.65,4.41,8.41,8.41,0,0,1-.55,3l-.31.5c7.39,1.4,11.8,7.86,11.48,15.3A19.31,19.31,0,0,1,23.6,38.25Z"/><path class="cls-3" d="M27.86,30.68a4,4,0,1,0,8.07,0C35.65,25.27,27.58,25.23,27.86,30.68Z"/><path class="cls-3" d="M36.5,37.59a4.27,4.27,0,1,0,8.54,0C44.74,31.87,36.2,31.82,36.5,37.59Z"/><path class="cls-3" d="M25,42.14a4.77,4.77,0,1,0,9.54,0C34.21,35.75,24.67,35.71,25,42.14Z"/></g></g></g></svg>