<svg xmlns="http://www.w3.org/2000/svg" viewBox="0 0 48.02 64.14"><defs><style>.cls-1{fill:none;}.cls-2{fill:#57996f;}.cls-3{fill:#e8414e;}</style></defs><g id="Layer_2" data-name="Layer 2"><g id="_4" data-name="4"><path class="cls-1" d="M24,7.14h.5a9.36,9.36,0,0,0,1-1.63c.34-.69.74-1.75.07-2.4a2.15,2.15,0,0,0-2-.5c-1.87.52-1,2.15-.28,3.39C23.56,6.39,23.79,6.76,24,7.14Z"/><path class="cls-2" d="M31.41,19.91H30.06a18.62,18.62,0,0,1-6.07.67,20.79,20.79,0,0,1-6.07-.67h-.69C8.8,22.85,2.32,30.64,2.56,40.13,2.85,51.59,12.1,61.88,24,61.58A21.75,21.75,0,0,0,45.46,40.13,22.3,22.3,0,0,0,31.41,19.91ZM38.83,32.8l-4.41,2.59,1.87.71c1.52.58.86,3-.68,2.46l-4-1.52-5.26,3.09,5.45,3.27,3.34-1.58c1.48-.7,2.78,1.5,1.29,2.2l-2,1,4,2.4a1.28,1.28,0,0,1-1.29,2.21L33.3,47.27c.05.66.09,1.32.14,2,.12,1.65-2.44,1.63-2.55,0-.09-1.19-.17-2.38-.26-3.57l-5.34-3.21v6.22l3.06,1.79a1.28,1.28,0,0,1-1.29,2.21l-1.77-1v4.12a1.28,1.28,0,0,1-2.55,0v-4l-2,1.34c-1.36.93-2.64-1.29-1.28-2.2l3.27-2.21v-6.4l-5.31,3.12c-.05,1.33-.09,2.67-.14,4-.05,1.64-2.6,1.64-2.55,0,0-.83.06-1.66.08-2.48L10.7,49.33a1.28,1.28,0,0,1-1.29-2.2l3.72-2.19-1.67-.63c-1.52-.59-.86-3.05.68-2.47l3.8,1.45,5.42-3.18-5.28-3.17L12.6,38.59c-1.48.7-2.77-1.5-1.29-2.21l2.15-1L9.19,32.8a1.28,1.28,0,0,1,1.29-2.21l4,2.38c0-.6-.08-1.2-.13-1.8-.11-1.65,2.44-1.64,2.56,0l.24,3.4L22.74,38V32.49l-3.28-1.91a1.28,1.28,0,0,1,1.29-2.21c.66.39,1.32.78,2,1.16V24.42a1.28,1.28,0,0,1,2.55,0v4.75L27.06,28c1.37-.93,2.64,1.29,1.29,2.2l-3.06,2.07V37.8l5-3c0-1.27.08-2.54.13-3.81.05-1.64,2.6-1.65,2.55,0,0,.76,0,1.52-.08,2.28q2.31-1.35,4.61-2.71A1.28,1.28,0,0,1,38.83,32.8Z"/><path class="cls-1" d="M24,7.14h.5a9.36,9.36,0,0,0,1-1.63c.34-.69.74-1.75.07-2.4a2.15,2.15,0,0,0-2-.5c-1.87.52-1,2.15-.28,3.39C23.56,6.39,23.79,6.76,24,7.14Z"/><path class="cls-1" d="M25.07,11c.45,0,3.59-.08,4.63-.64a11,11,0,0,0-4-.61c-.23.24-.46.48-.7.7a1.22,1.22,0,0,1-1.71,0,1.58,1.58,0,0,1-.3-.28c-.1-.14-.21-.28-.31-.43a14.71,14.71,0,0,0-3.11.39,7.44,7.44,0,0,0-.81.22A16.28,16.28,0,0,0,25.07,11Z"/><path class="cls-1" d="M31.41,19.91H30.06a18.62,18.62,0,0,1-6.07.67,20.79,20.79,0,0,1-6.07-.67h-.69C8.8,22.85,2.32,30.64,2.56,40.13,2.85,51.59,12.1,61.88,24,61.58A21.75,21.75,0,0,0,45.46,40.13,22.3,22.3,0,0,0,31.41,19.91Z"/><path d="M32.57,17.84V11a1.15,1.15,0,0,0-.06-.37,1,1,0,0,0,0-.18v-.17a1,1,0,0,0-.15-.5c-.64-1.66-2.78-2.25-4.87-2.47a8.83,8.83,0,0,0,.9-2.16C29.15,2.28,26.82,0,24.09,0a3.86,3.86,0,0,0-4,4.68,9.36,9.36,0,0,0,1,2.54c-2.57.22-5.6.92-5.6,3.11a1.86,1.86,0,0,0,.06.48.78.78,0,0,0,0,.16v6.08a1.17,1.17,0,0,0,0,.56A25,25,0,0,0,0,40.13c-.34,13.31,11.19,23.68,24,24,13.32.34,23.68-11.19,24-24A24.32,24.32,0,0,0,32.57,17.84ZM23.63,2.61a2.15,2.15,0,0,1,2,.5c.67.65.27,1.71-.07,2.4a9.36,9.36,0,0,1-1,1.63H24c-.24-.38-.47-.75-.68-1.14C22.66,4.76,21.76,3.13,23.63,2.61Zm-4.06,7.5a14.71,14.71,0,0,1,3.11-.39c.1.15.21.29.31.43a1.58,1.58,0,0,0,.3.28,1.22,1.22,0,0,0,1.71,0c.24-.22.47-.46.7-.7a11,11,0,0,1,4,.61c-1,.56-4.18.62-4.63.64a16.28,16.28,0,0,1-6.31-.62A7.44,7.44,0,0,1,19.57,10.11ZM24,61.58c-11.91.3-21.16-10-21.45-21.45C2.32,30.64,8.8,22.85,17.23,19.92h.69a20.79,20.79,0,0,0,6.07.67,18.62,18.62,0,0,0,6.07-.67h1.35A22.3,22.3,0,0,1,45.46,40.13,21.75,21.75,0,0,1,24,61.58Z"/><path class="cls-3" d="M25.07,11c.45,0,3.59-.08,4.63-.64a11,11,0,0,0-4-.61c-.23.24-.46.48-.7.7a1.22,1.22,0,0,1-1.71,0,1.58,1.58,0,0,1-.3-.28c-.1-.14-.21-.28-.31-.43a14.71,14.71,0,0,0-3.11.39,7.44,7.44,0,0,0-.81.22A16.28,16.28,0,0,0,25.07,11Z"/><path class="cls-3" d="M22.92,13.51A22.33,22.33,0,0,1,18,12.88V17.2a.85.85,0,0,0,.2.17h.11l-.08,0c1.7,1.07,9.74,1.07,11.45,0l-.08,0h.11a.63.63,0,0,0,.27-.3V12.89A20,20,0,0,1,22.92,13.51Z"/><path d="M37.54,30.59Q35.24,32,32.93,33.3c0-.76,0-1.52.08-2.28.05-1.65-2.5-1.64-2.55,0-.05,1.27-.09,2.54-.13,3.81l-5,3V32.25l3.06-2.07c1.35-.91.08-3.13-1.29-2.2l-1.77,1.19V24.42a1.28,1.28,0,0,0-2.55,0v5.11c-.67-.38-1.33-.77-2-1.16a1.28,1.28,0,0,0-1.29,2.21l3.28,1.91V38l-5.63-3.38-.24-3.4c-.12-1.64-2.67-1.65-2.56,0,0,.6.09,1.2.13,1.8l-4-2.38A1.28,1.28,0,0,0,9.19,32.8l4.27,2.56-2.15,1c-1.48.71-.19,2.91,1.29,2.21l3.48-1.65,5.28,3.17-5.42,3.18-3.8-1.45c-1.54-.58-2.2,1.88-.68,2.47l1.67.63L9.41,47.13a1.28,1.28,0,0,0,1.29,2.2l4.12-2.42c0,.82-.05,1.65-.08,2.48-.05,1.64,2.5,1.64,2.55,0,.05-1.34.09-2.68.14-4l5.31-3.12v6.4l-3.27,2.21c-1.36.91-.08,3.13,1.28,2.2l2-1.34v4a1.28,1.28,0,0,0,2.55,0V51.64l1.77,1a1.28,1.28,0,0,0,1.29-2.21l-3.06-1.79V42.46l5.34,3.21c.09,1.19.17,2.38.26,3.57.11,1.63,2.67,1.65,2.55,0,0-.65-.09-1.31-.14-2l3.85,2.32a1.28,1.28,0,0,0,1.29-2.21l-4-2.4,2-1c1.49-.7.19-2.9-1.29-2.2L31.81,43.4l-5.45-3.27L31.62,37l4,1.52c1.54.59,2.2-1.88.68-2.46l-1.87-.71,4.41-2.59A1.28,1.28,0,0,0,37.54,30.59Z"/></g></g></svg>