<svg xmlns="http://www.w3.org/2000/svg" viewBox="0 0 60.61 73.64"><defs><style>.cls-1{fill:#e8414e;}.cls-2{fill:#fff;}.cls-3{fill:#f9dec5;}</style></defs><g id="Layer_2" data-name="Layer 2"><g id="_1" data-name="1"><g id="Illustration"><path class="cls-1" d="M16.55,10.84a41.73,41.73,0,0,0-4.13,6.06H46.2c-1.29-3.1-.86-5.72,2.15-8.35a4.82,4.82,0,0,1-.05-1,6.89,6.89,0,0,1,.51-2.24c-2.5-2-10.31-2.61-11.27-2.65C29.22,2.25,21.93,4.21,16.55,10.84Z"/><path class="cls-2" d="M50.85,7.54a3.6,3.6,0,0,0,7.2,0C57.81,2.92,50.6,2.9,50.85,7.54Z"/><path class="cls-2" d="M53.93,43.33a1.3,1.3,0,0,1,0-1.8c4.14-4.14,2.39-8.82-1.37-12.09H50.41c1.76,4.46,2.2,10-.16,13.42-1.77,2.54-4.59,4.83-7.83,5S36.68,46,34,44.72a5.36,5.36,0,0,1-4.5,2.11,6.74,6.74,0,0,1-4.35-1.92c-6,2.06-13,5.54-16.67-1.58-2.17-4.24-1.56-9.52-.28-14.11h-2A10.11,10.11,0,0,0,3,34.12c-.88,3.45-.2,6.69,1,10,.22.6-.33,1.33-.5,1.89-1.79,5.8,2.12,10.08,6.91,12.86,1.18.68,1.55,3.75,2.2,4.85A11.85,11.85,0,0,0,17,68.33c3,1.62,5.34,1.09,8.57,1.09.73,0,1.56.68,2.23.91a11.63,11.63,0,0,0,6.65.54c4.35-1.18,6.19-5,10.16-6.45,4.57-1.67,8-4.91,6.74-10.15a1.31,1.31,0,0,1,.58-1.44C55.33,50.52,56.76,46.84,53.93,43.33Z"/><path d="M55.3,28.56a1.21,1.21,0,0,0,.06-.38C55.16,24.09,53.56,17.72,49,17c-1-1.76-1.76-3.66-.21-5.43.17-.19.35-.36.53-.53a6.93,6.93,0,0,0,5.1,2.69c3.34.18,5.78-2.72,6.12-5.78a1.14,1.14,0,0,0,0-.38,1.08,1.08,0,0,0,0-.37,6.27,6.27,0,0,0-6.12-5.78A5.4,5.4,0,0,0,50.33,3C47.24.06,40,.21,36.26,0,24-.55,14.71,6.43,9.54,16.9H9.35C4.46,16.9,4,23.87,4,27.66A13.29,13.29,0,0,0,1.1,31.94a14.35,14.35,0,0,0-.89,7.91c.09.51,1.3,4.33,1.42,4.08A12.32,12.32,0,0,0,1,45.71c-1.53,5,.85,9.65,4.56,12.89C7.28,60.14,8.34,59.76,9,61.79a18.55,18.55,0,0,0,2.9,5.38,13.59,13.59,0,0,0,5.24,4.08,11,11,0,0,0,3.17.87c.75.09,4.51-.38,4.63-.3a14.32,14.32,0,0,0,12,.94,12.11,12.11,0,0,0,3.35-1.91c.7-.56,2.76-3.35,3.29-3.47a20,20,0,0,0,4.73-1.84A10.13,10.13,0,0,0,54,54.48c4-3.14,5.23-7.69,2.48-11.94C60.48,37.82,59.08,32.51,55.3,28.56ZM51.93,52.83a1.31,1.31,0,0,0-.58,1.44c1.22,5.24-2.17,8.48-6.74,10.15-4,1.44-5.81,5.27-10.16,6.45a11.63,11.63,0,0,1-6.65-.54c-.67-.23-1.5-.91-2.23-.91-3.23,0-5.56.53-8.57-1.09a11.85,11.85,0,0,1-4.35-4.64c-.65-1.1-1-4.17-2.2-4.85C5.66,56.06,1.75,51.78,3.54,46c.17-.56.72-1.29.5-1.89-1.23-3.28-1.91-6.52-1-10a10.11,10.11,0,0,1,3.12-4.91H8.18c-1.28,4.59-1.89,9.87.28,14.11C12.1,50.45,19.13,47,25.13,44.91a6.74,6.74,0,0,0,4.35,1.92A5.36,5.36,0,0,0,34,44.72c2.7,1.25,5.17,3.26,8.44,3.11s6.06-2.44,7.83-5c2.36-3.37,1.92-9,.16-13.42h2.15c3.76,3.27,5.51,8,1.37,12.09a1.3,1.3,0,0,0,0,1.8C56.76,46.84,55.33,50.52,51.93,52.83ZM11.23,19.45H49.29a11.68,11.68,0,0,1,1.11,1.33,12.69,12.69,0,0,1,2.29,6.11l-46.1-.24a14.65,14.65,0,0,1,1.34-6.38C8.58,19,9.82,19.45,11.23,19.45ZM37.54,2.65c1,0,8.77.65,11.27,2.65a6.89,6.89,0,0,0-.51,2.24,4.82,4.82,0,0,0,.05,1c-3,2.63-3.44,5.25-2.15,8.35H12.42a41.73,41.73,0,0,1,4.13-6.06C21.93,4.21,29.22,2.25,37.54,2.65ZM50.85,7.54c-.25-4.64,7-4.62,7.2,0A3.6,3.6,0,0,1,50.85,7.54ZM26.05,40.85c-.24-4.43,6.63-4.41,6.87,0A3.44,3.44,0,0,1,26.05,40.85Zm9.38.38a1.17,1.17,0,0,0,0-.38,1.54,1.54,0,0,0,0-.38,6.12,6.12,0,0,0-6-5.61c-3.37-.18-5.81,2.88-6,6a4.89,4.89,0,0,0,.27,1.92c-5.23,2-11.23,4.66-13.7-2.07-1.24-3.42-.34-7.86.75-11.47l36.84.19c2,4.25,2.25,10.14-.59,13.38-3.75,4.29-7.92,1.72-11.88-.37A7.08,7.08,0,0,0,35.43,41.23Z"/><path class="cls-3" d="M47.07,42.8c2.84-3.24,2.56-9.13.59-13.38l-36.84-.19c-1.09,3.61-2,8.05-.75,11.47,2.47,6.73,8.47,4.09,13.7,2.07a4.89,4.89,0,0,1-.27-1.92c.17-3.11,2.61-6.17,6-6a6.12,6.12,0,0,1,6,5.61,1.54,1.54,0,0,1,0,.38,1.17,1.17,0,0,1,0,.38,7.08,7.08,0,0,1-.24,1.2C39.15,44.52,43.32,47.09,47.07,42.8ZM22,36.3a6.16,6.16,0,0,1-8,.2c-1.3-1,.52-2.81,1.8-1.81a3.55,3.55,0,0,0,4.45-.19C21.37,33.4,23.18,35.2,22,36.3Zm15.33,0c-1.22-1.1.59-2.9,1.81-1.8a3.54,3.54,0,0,0,4.44.19c1.28-1,3.1.8,1.81,1.81A6.18,6.18,0,0,1,37.29,36.3Z"/><path class="cls-2" d="M6.59,26.65l46.1.24a12.69,12.69,0,0,0-2.29-6.11,11.68,11.68,0,0,0-1.11-1.33H11.23c-1.41,0-2.65-.47-3.3.82A14.65,14.65,0,0,0,6.59,26.65Z"/><path d="M20.16,34.5a3.55,3.55,0,0,1-4.45.19c-1.28-1-3.1.8-1.8,1.81A6.16,6.16,0,0,0,22,36.3C23.18,35.2,21.37,33.4,20.16,34.5Z"/><path d="M43.54,34.69a3.54,3.54,0,0,1-4.44-.19c-1.22-1.1-3,.7-1.81,1.8a6.18,6.18,0,0,0,8.06.2C46.64,35.49,44.82,33.69,43.54,34.69Z"/><path class="cls-1" d="M32.92,40.85c-.24-4.41-7.11-4.43-6.87,0A3.44,3.44,0,0,0,32.92,40.85Z"/></g></g></g></svg>