<svg xmlns="http://www.w3.org/2000/svg" viewBox="0 0 65.76 60.54"><defs><style>.cls-1,.cls-2{fill:none;}.cls-2{stroke:#000;stroke-linecap:round;stroke-linejoin:round;stroke-width:0;}.cls-3{fill:#e8414e;}.cls-4{fill:#f8b26e;}.cls-5{fill:#b2d3da;}</style></defs><g id="Layer_2" data-name="Layer 2"><g id="_6" data-name="6"><g id="Illustration"><path class="cls-1" d="M30,48.17v9.72H55.26V48.17s0-.07,0-.1H30A.31.31,0,0,1,30,48.17Z"/><path class="cls-2" d="M65.41.41l0,0"/><path d="M65.76,46.79V1.28a1.16,1.16,0,0,0-.35-.87l0,0,0,0A1.23,1.23,0,0,0,64.48,0H38.05a1.29,1.29,0,0,0-1.27,1.28V9.37a1.29,1.29,0,0,0,1.27,1.28h3.49c0,1,.1,2.11.14,3.19a1.4,1.4,0,0,0,0,1.2c0,3.59-.44,7.11-3.5,9.25C33.46,27.61,27.3,25,23,29.1c-4.79,4.55-3.9,11.81-3.9,17.69a1.29,1.29,0,0,0,1.28,1.28h7.13s0,.06,0,.1v9.72h-6c-5.26,0-10.5.32-15.16-2.69-8.85-5.71-2.2-20.12,7.3-20.11a1.28,1.28,0,0,0,0-2.56C4.47,32.53-.79,40.77.1,49.31c1,9.27,11.55,11.64,19.28,11.17,14.93-.9,30.14,0,45.1,0a1.28,1.28,0,0,0,0-2.55H57.81V48.17a.31.31,0,0,0,0-.1h6.68A1.29,1.29,0,0,0,65.76,46.79ZM43.06,22.73A8.59,8.59,0,0,0,44,20.42h6.48a1.28,1.28,0,0,0,0-2.55H44.32c0-.72,0-1.45,0-2.18h6.08a1.28,1.28,0,0,0,0-2.55H44.24c-.05-.86-.11-1.7-.14-2.49H63.2V33a14,14,0,0,0-5.93,1.45,10,10,0,0,0-4.64,4.66,1.2,1.2,0,0,0-.83-.3H21.73c.46-5.1,2.25-9.71,8.72-9.85C35.34,28.84,40.5,27.13,43.06,22.73ZM39.33,2.55H63.2V8.09H39.33ZM21.59,41.35H51.76a17.09,17.09,0,0,0-.62,4.17H21.6C21.59,44.2,21.56,42.78,21.59,41.35Zm32.18,3c.35-3.4,1.82-6.28,5.09-7.85a10.52,10.52,0,0,1,3.57-.93c.26,0,.52,0,.77,0v10H53.7C53.71,45.12,53.73,44.73,53.77,44.35Zm1.49,3.82v9.72H30V48.17a.31.31,0,0,0,0-.1H55.27S55.26,48.13,55.26,48.17Z"/><path class="cls-2" d="M65.35.34l0,0"/><path class="cls-3" d="M63.2,8.09V2.55H39.33V8.09H63.2Z"/><path class="cls-3" d="M21.73,38.8H51.8a1.2,1.2,0,0,1,.83.3,10,10,0,0,1,4.64-4.66A14,14,0,0,1,63.2,33V10.65H44.1c0,.79.09,1.63.14,2.49h6.19a1.28,1.28,0,0,1,0,2.55H44.35c0,.73,0,1.46,0,2.18h6.11a1.28,1.28,0,0,1,0,2.55H44a8.59,8.59,0,0,1-.89,2.31c-2.56,4.4-7.72,6.11-12.61,6.22C24,29.09,22.19,33.7,21.73,38.8Z"/><path class="cls-4" d="M51.76,41.35H21.59c0,1.43,0,2.85,0,4.17H51.14A17.09,17.09,0,0,1,51.76,41.35Z"/><path class="cls-5" d="M63.2,35.55c-.25,0-.51,0-.77,0a10.52,10.52,0,0,0-3.57.93c-3.27,1.57-4.74,4.45-5.09,7.85,0,.38-.06.77-.07,1.17h9.5Z"/></g></g></g></svg>