<svg xmlns="http://www.w3.org/2000/svg" viewBox="0 0 58.93 66.79"><defs><style>.cls-1{fill:#fff;}.cls-2{fill:#f49d63;}</style></defs><g id="Layer_2" data-name="Layer 2"><g id="_5" data-name="5"><g id="Illustration"><path class="cls-1" d="M40.87,29c.92-.5,1.87-.95,2.82-1.38a18.15,18.15,0,0,0-4.94-5.94,11.34,11.34,0,0,1-9.07,3.88,14.44,14.44,0,0,1-8.89-3.7,20.4,20.4,0,0,0-5.08,5.94c.8.38,1.58.78,2.36,1.2,1.44.79.15,3-1.29,2.21-.74-.41-1.49-.77-2.25-1.12a30.2,30.2,0,0,0-2,6c-2.31,10.54-1.46,24,11.1,27.26C36,66.47,47.65,59.64,48,46.39a44.84,44.84,0,0,0-3.2-16.54c-.88.42-1.76.86-2.62,1.34C40.71,32,39.43,29.77,40.87,29ZM29.15,49.2a1.74,1.74,0,1,1,1.74-1.74A1.73,1.73,0,0,1,29.15,49.2Zm0-8a1.74,1.74,0,1,1,1.74-1.74A1.73,1.73,0,0,1,29.15,41.17Zm0-8a1.74,1.74,0,1,1,1.74-1.74A1.73,1.73,0,0,1,29.15,33.13Z"/><path class="cls-1" d="M39.9,12.78c-.27-5.34-4.45-10.5-10.22-10.21C24.35,2.84,19.18,7,19.47,12.78,20.14,25.94,39.23,25.94,39.9,12.78ZM33.81,9.14a1.54,1.54,0,1,1-1.54,1.53A1.53,1.53,0,0,1,33.81,9.14Zm-2,4.16-1.61,4.8s-.5,1.27-1.06.07-1.68-4.87-1.68-4.87A3.44,3.44,0,0,1,31.86,13.3Zm-6.3-4.16A1.54,1.54,0,1,1,24,10.67,1.53,1.53,0,0,1,25.56,9.14Z"/><path d="M29.15,29.66a1.74,1.74,0,1,0,1.74,1.73A1.72,1.72,0,0,0,29.15,29.66Z"/><path d="M29.15,45.73a1.74,1.74,0,1,0,1.74,1.73A1.72,1.72,0,0,0,29.15,45.73Z"/><path d="M29.15,37.69a1.74,1.74,0,1,0,1.74,1.74A1.73,1.73,0,0,0,29.15,37.69Z"/><path d="M25.56,12.21A1.54,1.54,0,1,0,24,10.67,1.54,1.54,0,0,0,25.56,12.21Z"/><path d="M33.81,12.21a1.54,1.54,0,1,0-1.54-1.54A1.54,1.54,0,0,0,33.81,12.21Z"/><path class="cls-2" d="M29.19,18.17c.56,1.2,1.06-.07,1.06-.07l1.61-4.8a3.44,3.44,0,0,0-4.35,0S28.59,16.9,29.19,18.17Z"/><path d="M58,24.42l-3.89-1.2c.31-1.29.63-2.58.94-3.87a1.28,1.28,0,0,0-2.46-.67c-.37,1.53-.75,3.06-1.12,4.59-1.54.93-3,1.95-4.62,2.79-.34.18-.68.35-1,.51a22,22,0,0,0-5.68-6.76,14.46,14.46,0,0,0,2.23-6.66,1.14,1.14,0,0,0,0-.37,1.38,1.38,0,0,0,0-.36A13,13,0,0,0,29.68,0c-7.2-.36-12.42,6.11-12.76,12.77a11,11,0,0,0,2.13,7.12,25,25,0,0,0-5.54,6.85l-.88-.4a48.58,48.58,0,0,1-5.2-3.07c-.38-1.54-.75-3.07-1.13-4.6s-2.85-.92-2.46.67c.32,1.29.63,2.58,1,3.87l-3.9,1.2a1.28,1.28,0,0,0,.68,2.46l4.57-1.41c1.54.94,3,2,4.62,2.8.51.27,1,.53,1.57.78a35.07,35.07,0,0,0-2.46,7.3C7.09,49,10.05,62.46,24,66c13.7,3.52,26.22-5.61,26.56-19.64A45,45,0,0,0,47,28.83l.6-.27a47.83,47.83,0,0,0,5.21-3.08l4.56,1.4A1.28,1.28,0,0,0,58,24.42ZM42.16,31.19c.86-.48,1.74-.92,2.62-1.34A44.84,44.84,0,0,1,48,46.39c-.33,13.25-12,20.08-24.34,16.92-12.56-3.22-13.41-16.72-11.1-27.26a30.2,30.2,0,0,1,2-6c.76.35,1.51.71,2.25,1.12,1.44.79,2.73-1.42,1.29-2.21-.78-.42-1.56-.82-2.36-1.2a20.4,20.4,0,0,1,5.08-5.94,14.44,14.44,0,0,0,8.89,3.7,11.34,11.34,0,0,0,9.07-3.88,18.15,18.15,0,0,1,4.94,5.94c-.95.43-1.9.88-2.82,1.38C39.43,29.77,40.71,32,42.16,31.19ZM29.68,2.57c5.77-.29,10,4.87,10.22,10.21-.67,13.16-19.76,13.16-20.43,0C19.18,7,24.35,2.84,29.68,2.57Z"/></g></g></g></svg>