<svg xmlns="http://www.w3.org/2000/svg" viewBox="0 0 58.42 63.72"><defs><style>.cls-1{fill:none;}.cls-2{fill:#fff;}</style></defs><g id="Layer_2" data-name="Layer 2"><g id="_21" data-name="21"><path class="cls-1" d="M36.65,43.67a3.58,3.58,0,0,1-.87,0l-.05.1.51.3a5.27,5.27,0,0,1,.46.31c0-.05,0-.11,0-.17Z"/><path class="cls-1" d="M22.54,20.83l-.25-.15a4.87,4.87,0,0,1-.47-.32l0,.47A3.86,3.86,0,0,1,22.54,20.83Z"/><path class="cls-1" d="M22.76,43.71h-.39l0,.6a1.48,1.48,0,0,1,0,.21l.61-.41A3,3,0,0,1,22.76,43.71Z"/><path class="cls-1" d="M35.61,20.8a3.4,3.4,0,0,1,.45,0l0-.5-.56.37C35.55,20.7,35.59,20.75,35.61,20.8Z"/><path class="cls-2" d="M55.1,47.2a1,1,0,0,0-.49-1.2l-9.08-5.46,5.58-2.64a.73.73,0,0,0,.5-.9,1.36,1.36,0,0,0-1.85-1L46.65,37.5l-.21-1.77a1.36,1.36,0,0,0-1.85-1.09L40.66,36.5l0-2a1.05,1.05,0,0,0-.13-.54,1,1,0,0,0-.75-.51l-.16,0-.15,0a1.66,1.66,0,0,0-.6.15L36.14,34.9l-4.35-2.61-.7-.1.42-.07-.34-.2,4.27-2.51L39.67,31h.07a1.34,1.34,0,0,0,1-.87,1.1,1.1,0,0,0,0-.51l-.5-2.3,5,1.92a1.13,1.13,0,0,0,.41.09c.51,0,.74-.64.77-1l.12-1.72,4,1.5a1.13,1.13,0,0,0,.41.09c.58,0,.73-.77.75-.86a1.3,1.3,0,0,0-.79-1.51l-5.59-2.14,10-5.89a1,1,0,0,0,.49-1.17,1.12,1.12,0,0,0-1.64-.81l-10.12,6,.2-6.22a.92.92,0,0,0-.22-.71,1.2,1.2,0,0,0-.84-.31A1.14,1.14,0,0,0,42,15.56L41.86,19l-1.58-.46a1.4,1.4,0,0,0-.41-.06,1.14,1.14,0,0,0-1.22,1.1l-.15,4.78-1.8-.92a1.45,1.45,0,0,0-1.27,0l-.54.28-.11,3.38-4.43,2.61V25.6l3.36-2.27-.13-.76a1.46,1.46,0,0,0-.66-1l-1.87-1L34.88,18a1.09,1.09,0,0,0,.53-.87A1.52,1.52,0,0,0,34.93,16l-1.24-1.09,2.67-1.81a1.15,1.15,0,0,0,.47-1.37,1.16,1.16,0,0,0-.94-.89,1,1,0,0,0-.55.2l-5,3.38V3.62a1.15,1.15,0,0,0-2.29,0V14.85l-5.31-3.11a1.13,1.13,0,0,0-1.65.81,1,1,0,0,0,.49,1.17l3,1.77-1.15,1.17a1.4,1.4,0,0,0-.41,1.11,1,1,0,0,0,.52.71L27.81,21,25.69,22a1.43,1.43,0,0,0-.71.94l-.14.64.67.48,2.55,1.5v4.49l-4.53-2.72L23.3,24l-.41-.36a1.06,1.06,0,0,0-1.41,0L19.6,25.08l-.37-5.23a1.33,1.33,0,0,0-2-1L15.47,20l-.3-4.13a1.25,1.25,0,0,0-1.32-1.15,1.07,1.07,0,0,0-.79.29.81.81,0,0,0-.18.68l.39,5.48-9-5.43a1.1,1.1,0,0,0-1.62.78,1,1,0,0,0,.49,1.21l9.55,5.73L6.8,26.23a.73.73,0,0,0-.49.9,1.36,1.36,0,0,0,1.84,1l3.64-1.73L12,28.13a1.44,1.44,0,0,0,1.29,1.21,1.32,1.32,0,0,0,.56-.14l4.8-2.27L18,29.56a1.29,1.29,0,0,0,.09.94,1,1,0,0,0,.76.51L19,31h.15a1.77,1.77,0,0,0,.61-.16l2.86-1.36.63.33,3.42,2.06-.38.22h0l-.83.5-3.46,2-2.86-1.09h-.08l-.16,0h-.07a1.31,1.31,0,0,0-1,.87,1.23,1.23,0,0,0-.05.25l-.11,1.72-4.44-1.7a1.47,1.47,0,0,0-.48-.11.57.57,0,0,0-.46.21,1.5,1.5,0,0,0-.31,1.1l.21,2.07L7.39,36.1A1.13,1.13,0,0,0,7,36c-.58,0-.74.77-.75.86A1.3,1.3,0,0,0,7,38.38l5.24,2L3.48,45.54A.94.94,0,0,0,3,46.71a1.11,1.11,0,0,0,1.64.8l9.24-5.43-.22,6.58a.94.94,0,0,0,.23.71,1.18,1.18,0,0,0,.84.31,1.13,1.13,0,0,0,1.22-1.11l.15-4.43,1.84,1a1.36,1.36,0,0,0,.65.16,1.13,1.13,0,0,0,1.22-1.1l.14-4.37L21.81,41a1.52,1.52,0,0,0,1.35,0l.51-.28.16-4.5,4.23-2.48v5.84l-3,2,0,.57a1.46,1.46,0,0,0,.55,1.19L27,44.45l-3.36,2.27a1.12,1.12,0,0,0-.53.92,1.51,1.51,0,0,0,.57,1.18l1.44,1.07-3.46,2.34a1.16,1.16,0,0,0-.47,1.38,1.15,1.15,0,0,0,.93.89,1,1,0,0,0,.55-.2l5.38-3.63v9.44a1.15,1.15,0,0,0,2.29,0V50.67l4.93,2.88a1.12,1.12,0,0,0,1.64-.81,1,1,0,0,0-.49-1.17l-3.82-2.24,2.13-1a1.44,1.44,0,0,0,.75-1.18.94.94,0,0,0-.54-.88l-3.63-2.12L33.05,43a1.47,1.47,0,0,0,.63-1.1v-.49L33.11,41l-2.76-1.62V34.1L35,36.9l.28,3.67.43.34a1.08,1.08,0,0,0,1.33,0l1.85-1.33L39.23,44a1.25,1.25,0,0,0,1.31,1.14,1.31,1.31,0,0,0,.41-.06l1.53-.46.26,3.65a1.27,1.27,0,0,0,1.32,1.15,1.1,1.1,0,0,0,.8-.29.84.84,0,0,0,.18-.68l-.41-5.77L53.48,48A1.1,1.1,0,0,0,55.1,47.2Z"/><path d="M46,32.05A3.55,3.55,0,0,0,45.5,32l-2.62-.45a3.36,3.36,0,0,0,.2-.43l1.29.5A3.32,3.32,0,0,0,48.57,30l1,.4a3.63,3.63,0,0,0,1.32.25,3.4,3.4,0,0,0,3.26-3,3.84,3.84,0,0,0-2.39-4.36l-.63-.24,5.44-3.2a3.51,3.51,0,0,0,1.66-4A3.75,3.75,0,0,0,54.75,13a3.69,3.69,0,0,0-1.87.53l-6.12,3.6.06-1.58a3.46,3.46,0,0,0-1-2.58A3.7,3.7,0,0,0,43.2,11.9a3.65,3.65,0,0,0-3.78,3.57l0,.52a3.94,3.94,0,0,0-1.48.47,4.18,4.18,0,0,0-.35-1.14l.22-.15a3.71,3.71,0,0,0,1.48-4.24,3.63,3.63,0,0,0-3.38-2.7,3.5,3.5,0,0,0-2,.64l-1,.69V3.62a3.7,3.7,0,0,0-7.39,0V10.4L24,9.54A3.65,3.65,0,0,0,22.18,9a3.75,3.75,0,0,0-3.54,2.87,3.5,3.5,0,0,0,1.67,4l.47.28a4.18,4.18,0,0,0-.25.92,4.09,4.09,0,0,0-2.78-1l0-.47a3.77,3.77,0,0,0-3.87-3.52,3.62,3.62,0,0,0-2.66,1.1,3.38,3.38,0,0,0-.86,2.6l0,.58-4.84-2.9A3.62,3.62,0,0,0,3.65,13,3.75,3.75,0,0,0,.14,15.84a3.56,3.56,0,0,0,1.64,4.08L7.24,23.2l-1.53.72a3.29,3.29,0,0,0-1.89,3.77,4,4,0,0,0,3.78,3.1,3.75,3.75,0,0,0,1.65-.38l.8-.38a4.13,4.13,0,0,0,1.87,1.59l-.36.62a3.16,3.16,0,0,0-1.14.82,3.68,3.68,0,0,0-.72,1.19l-1.4-.54A3.67,3.67,0,0,0,7,33.46a3.4,3.4,0,0,0-3.26,2.95A3.83,3.83,0,0,0,6.1,40.76l.28.11L2.19,43.33A3.52,3.52,0,0,0,.52,47.38a3.76,3.76,0,0,0,3.54,2.86,3.53,3.53,0,0,0,1.86-.53l5.25-3.08-.07,1.94A3.45,3.45,0,0,0,12,51.15a3.76,3.76,0,0,0,2.68,1.08,3.65,3.65,0,0,0,3.78-3.57l0-.77a4.12,4.12,0,0,0,2.06-.52c0,.07,0,.14,0,.21a4,4,0,0,0,.48,2l-.81.55a3.7,3.7,0,0,0-1.48,4.23,3.61,3.61,0,0,0,3.37,2.7,3.52,3.52,0,0,0,2-.63l1.4-1v4.64a3.7,3.7,0,0,0,7.39,0v-5l1.09.63a3.62,3.62,0,0,0,1.86.53,3.77,3.77,0,0,0,3.54-2.87,3.52,3.52,0,0,0-1.67-4l-.31-.19a4.06,4.06,0,0,0,.63-2c0-.13,0-.26,0-.39a4.05,4.05,0,0,0,2.11.84l.06.78A3.76,3.76,0,0,0,44.06,52a3.62,3.62,0,0,0,2.67-1.1,3.38,3.38,0,0,0,.86-2.6l-.07-.87,4.65,2.79a3.61,3.61,0,0,0,1.88.54h0a3.75,3.75,0,0,0,3.51-2.84,3.53,3.53,0,0,0-1.63-4.07l-5-3,1.28-.61a3.28,3.28,0,0,0,1.89-3.76,4,4,0,0,0-3.78-3.11,3.73,3.73,0,0,0-1.65.39l-.26.12a4,4,0,0,0-.93-1ZM53.48,48l-8.85-5.32L45,48.44a.84.84,0,0,1-.18.68,1.1,1.1,0,0,1-.8.29,1.27,1.27,0,0,1-1.32-1.15l-.26-3.65L41,45.07a1.31,1.31,0,0,1-.41.06A1.25,1.25,0,0,1,39.23,44l-.32-4.44-1.85,1.33a1.08,1.08,0,0,1-1.33,0l-.43-.34L35,36.9l-4.67-2.8v5.26L33.11,41l.58.41v.49a1.47,1.47,0,0,1-.63,1.1l-1.73,1.13L35,46.23a.94.94,0,0,1,.54.88,1.44,1.44,0,0,1-.75,1.18l-2.13,1,3.82,2.24a1,1,0,0,1,.49,1.17,1.12,1.12,0,0,1-1.64.81l-4.93-2.88v9.44a1.15,1.15,0,0,1-2.29,0V50.67L22.68,54.3a1,1,0,0,1-.55.2,1.15,1.15,0,0,1-.93-.89,1.16,1.16,0,0,1,.47-1.38l3.46-2.34-1.44-1.07a1.51,1.51,0,0,1-.57-1.18,1.12,1.12,0,0,1,.53-.92L27,44.45l-1.43-1.07A1.46,1.46,0,0,1,25,42.19l0-.57,3-2V33.75l-4.23,2.48-.16,4.5-.51.28a1.52,1.52,0,0,1-1.35,0l-1.87-1.13-.14,4.37a1.13,1.13,0,0,1-1.22,1.1,1.36,1.36,0,0,1-.65-.16l-1.84-1-.15,4.43a1.13,1.13,0,0,1-1.22,1.11,1.18,1.18,0,0,1-.84-.31.94.94,0,0,1-.23-.71l.22-6.58L4.63,47.51A1.11,1.11,0,0,1,3,46.71a.94.94,0,0,1,.49-1.17l8.77-5.16L7,38.38a1.3,1.3,0,0,1-.78-1.51c0-.09.17-.86.75-.86a1.13,1.13,0,0,1,.41.09l4.82,1.84L12,35.87a1.5,1.5,0,0,1,.31-1.1.57.57,0,0,1,.46-.21,1.47,1.47,0,0,1,.48.11l4.44,1.7.11-1.72a1.23,1.23,0,0,1,.05-.25,1.31,1.31,0,0,1,1-.87h.07l.16,0h.08L22,34.65l3.46-2,.83-.5h0l.38-.22-3.42-2.06-.63-.33-2.86,1.36a1.77,1.77,0,0,1-.61.16H19l-.15,0a1,1,0,0,1-.76-.51,1.29,1.29,0,0,1-.09-.94l.67-2.63-4.8,2.27a1.32,1.32,0,0,1-.56.14A1.44,1.44,0,0,1,12,28.13l-.23-1.75L8.15,28.11a1.36,1.36,0,0,1-1.84-1,.73.73,0,0,1,.49-.9l5.84-2.77L3.09,17.73a1,1,0,0,1-.49-1.21,1.1,1.1,0,0,1,1.62-.78l9.05,5.43-.39-5.48a.81.81,0,0,1,.18-.68,1.07,1.07,0,0,1,.79-.29,1.25,1.25,0,0,1,1.32,1.15l.3,4.13,1.79-1.12a1.33,1.33,0,0,1,2,1l.37,5.23,1.88-1.44a1.06,1.06,0,0,1,1.41,0l.41.36.23,3.34,4.53,2.72V25.56l-2.55-1.5-.67-.48.14-.64a1.43,1.43,0,0,1,.71-.94L27.81,21l-4.23-2.47a1,1,0,0,1-.52-.71,1.4,1.4,0,0,1,.41-1.11l1.15-1.17-3-1.77a1,1,0,0,1-.49-1.17,1.13,1.13,0,0,1,1.65-.81l5.31,3.11V3.62a1.15,1.15,0,0,1,2.29,0V14.37l5-3.38a1,1,0,0,1,.55-.2,1.16,1.16,0,0,1,.94.89,1.15,1.15,0,0,1-.47,1.37l-2.67,1.81L34.93,16a1.52,1.52,0,0,1,.48,1.17,1.09,1.09,0,0,1-.53.87l-3.83,2.59,1.87,1a1.46,1.46,0,0,1,.66,1l.13.76L30.35,25.6v4.15l4.43-2.61.11-3.38.54-.28a1.45,1.45,0,0,1,1.27,0l1.8.92.15-4.78a1.14,1.14,0,0,1,1.22-1.1,1.4,1.4,0,0,1,.41.06l1.58.46L42,15.56a1.14,1.14,0,0,1,1.23-1.11,1.2,1.2,0,0,1,.84.31.92.92,0,0,1,.22.71l-.2,6.22,10.12-6a1.12,1.12,0,0,1,1.64.81,1,1,0,0,1-.49,1.17l-10,5.89,5.59,2.14a1.3,1.3,0,0,1,.79,1.51c0,.09-.17.86-.75.86a1.13,1.13,0,0,1-.41-.09l-4-1.5-.12,1.72c0,.4-.26,1-.77,1a1.13,1.13,0,0,1-.41-.09l-5-1.92.5,2.3a1.1,1.1,0,0,1,0,.51,1.34,1.34,0,0,1-1,.87h-.07l-4.23-1.56-4.27,2.51.34.2-.42.07.7.1,4.35,2.61,2.68-1.27a1.66,1.66,0,0,1,.6-.15l.15,0,.16,0a1,1,0,0,1,.75.51,1.05,1.05,0,0,1,.13.54l0,2,3.93-1.86a1.36,1.36,0,0,1,1.85,1.09l.21,1.77L49.76,36a1.36,1.36,0,0,1,1.85,1,.73.73,0,0,1-.5.9l-5.58,2.64L54.61,46a1,1,0,0,1,.49,1.2A1.1,1.1,0,0,1,53.48,48ZM36.24,44l-.51-.3.05-.1a3.58,3.58,0,0,0,.87,0l0,.5c0,.06,0,.12,0,.17A5.27,5.27,0,0,0,36.24,44Zm-13.9.5a1.48,1.48,0,0,0,0-.21l0-.6h.39a3,3,0,0,0,.19.41Zm-.05-23.85.25.15a3.86,3.86,0,0,0-.68,0l0-.47A4.87,4.87,0,0,0,22.29,20.68Zm13.79-.41,0,.5a3.4,3.4,0,0,0-.45,0c0-.05-.06-.1-.09-.16Z"/></g></g></svg>