<svg xmlns="http://www.w3.org/2000/svg" viewBox="0 0 63.68 66.42"><defs><style>.cls-1{fill:#e8414e;}.cls-2{fill:#fff;}</style></defs><g id="Layer_2" data-name="Layer 2"><g id="_12" data-name="12"><g id="Illustration"><path class="cls-1" d="M19.82,63.8c7.55.13,15.28.31,22.81-.62-1-9.79,4-20.68,15-20.32Q57.2,33.18,57,23.52l-1.9,1.84a1.27,1.27,0,0,1-1.8,0c-.7-.83-1.39-1.67-2.08-2.51l-2.76,2.84a1.28,1.28,0,0,1-1.81,0l-2.41-2.84-2.15,2.73a1.27,1.27,0,0,1-1.81,0l-2.67-2.76L35,25.42a1.3,1.3,0,0,1-1.81,0l-2.52-2.76-1.93,2.26a1.25,1.25,0,0,1-1.8,0l-.57-.73a58.41,58.41,0,0,1-.46,6.92c-.69,5.22-3.43,8.57-8.33,10.6C11.71,44.14-.58,46.33,3,55.68,5.68,62.89,13.14,63.69,19.82,63.8Z"/><path class="cls-2" d="M56.09,57.47c1.75-3.62,1.83-7.78,1.65-11.72,0-.08,0-.16,0-.25l.06-.08c-9.34-.31-13.52,9-12.66,17.4l.6-.09C49.58,62.08,54.19,61.39,56.09,57.47Z"/><path class="cls-2" d="M27.87,22l1.86-2.18a1.26,1.26,0,0,1,1.8,0c.87.94,1.73,1.89,2.6,2.84C35,21.81,35.84,21,36.7,20.1a1.28,1.28,0,0,1,1.8,0l2.57,2.65,2.21-2.81a1.27,1.27,0,0,1,1.81,0c.84,1,1.67,2,2.51,3l2.77-2.85a1.26,1.26,0,0,1,1.8,0l2.11,2.54L56.91,20c0-2.42-.06-4.86-.07-7.29a19.71,19.71,0,0,1-2.72.54,85.67,85.67,0,0,1-14.58.86c-1.6,0-9.27.3-13.63-1.08.17,2.28.31,4.6.4,6.93Z"/><path d="M59.37,11C61.79,8.67,66,2.92,62.06.4,60-.89,58.18,1.2,57.74,3A29.3,29.3,0,0,0,57,8.17c-.47-.11-.94-.18-1.39-.24a110.58,110.58,0,0,0-14.45-.57c-2.23,0-18.33-1.51-18.33,3a2,2,0,0,0,.37,1.15c.21,2.59.45,5.3.58,8A1.37,1.37,0,0,0,23.87,21,47.52,47.52,0,0,1,23,32.85C21.17,41.16,9,40.41,3.42,45.17-1,49-.85,55.39,2.36,59.89c4.12,5.79,11,6.34,17.46,6.46a173.11,173.11,0,0,0,24.1-.83l.22,0c.76-.1,1.52-.19,2.27-.3,7.51-1.12,12.69-4.38,13.65-12.37s-.38-16.06-.53-23.95C59.42,22.91,59.38,17,59.37,11ZM17.57,41.71c4.9-2,7.64-5.38,8.33-10.6a58.41,58.41,0,0,0,.46-6.92l.57.73a1.25,1.25,0,0,0,1.8,0l1.93-2.26,2.52,2.76a1.3,1.3,0,0,0,1.81,0l2.6-2.6,2.67,2.76a1.27,1.27,0,0,0,1.81,0l2.15-2.73,2.41,2.84a1.28,1.28,0,0,0,1.81,0l2.76-2.84c.69.84,1.38,1.68,2.08,2.51a1.27,1.27,0,0,0,1.8,0L57,23.52q.21,9.68.64,19.34c-10.95-.36-15.94,10.53-15,20.32-7.53.93-15.26.75-22.81.62C13.14,63.69,5.68,62.89,3,55.68-.58,46.33,11.71,44.14,17.57,41.71ZM60.84,2.65c.92.76-.34,2.7-1.06,3.76C59.94,5.26,60.41,2.29,60.84,2.65Zm-4.65,7.73a37.58,37.58,0,0,1-4.68.7,84,84,0,0,1-8.68.51c-4.85.11-11.07.46-15.93-1.12.24,0,.47-.08.71-.1,1.08-.15,2.17-.19,3.26-.26,3.43-.21,6.88-.19,10.32-.2,3,0,6,0,9.05.14C50.78,10.07,54.51,10.11,56.19,10.38ZM39.54,14.14a85.67,85.67,0,0,0,14.58-.86,19.71,19.71,0,0,0,2.72-.54c0,2.43,0,4.87.07,7.29l-2.63,2.56-2.11-2.54a1.26,1.26,0,0,0-1.8,0L47.6,22.9c-.84-1-1.67-2-2.51-3a1.27,1.27,0,0,0-1.81,0l-2.21,2.81L38.5,20.1a1.28,1.28,0,0,0-1.8,0c-.86.86-1.72,1.71-2.57,2.57-.87-1-1.73-1.9-2.6-2.84a1.26,1.26,0,0,0-1.8,0L27.87,22l-1.56-2c-.09-2.33-.23-4.65-.4-6.93C30.27,14.44,37.94,14.11,39.54,14.14Zm5.59,48.68c-.86-8.39,3.32-17.71,12.66-17.4l-.06.08c0,.09,0,.17,0,.25.18,3.94.1,8.1-1.65,11.72-1.9,3.92-6.51,4.61-10.36,5.26Z"/><path class="cls-1" d="M41.19,9.91c-3.44,0-6.89,0-10.32.2-1.09.07-2.18.11-3.26.26-.24,0-.47.06-.71.1C31.76,12.05,38,11.7,42.83,11.59a84,84,0,0,0,8.68-.51,37.58,37.58,0,0,0,4.68-.7c-1.68-.27-5.41-.31-5.95-.33C47.22,10,44.2,9.91,41.19,9.91Z"/><path class="cls-1" d="M60.84,2.65c-.43-.36-.9,2.61-1.06,3.76C60.5,5.35,61.76,3.41,60.84,2.65Z"/></g></g></g></svg>