<svg xmlns="http://www.w3.org/2000/svg" id="Layer_1" data-name="Layer 1" viewBox="0 0 95.94 89.82"><title>AsimovMarketingIcon-bt-omar bahaa</title><path d="M0,40.17C0,31.61,0,23.05.07,14.49A12.83,12.83,0,0,1,1.25,9.7,17.09,17.09,0,0,1,4.18,4.82a11.9,11.9,0,0,1,6.53-3.71A37.93,37.93,0,0,1,22.63.16c8.46,1,16.91.26,25.36.44S64.86.65,73.3.63c4.64,0,9.28-.09,13.91-.1,2.91,0,5.88,2.45,6.85,5.53a25.74,25.74,0,0,1,1.36,8.81,79.51,79.51,0,0,0,0,12.82c.54,4.43,0,8.83.45,13.23,0,.27.1.61,0,.82-.87,1.5-.47,3.13-.48,4.7,0,4.84.33,9.71-.1,14.51a16.69,16.69,0,0,1-3.22,9.19c-2.32,3-5.35,4.45-8.65,5.69a8.79,8.79,0,0,1-1.87.28c-1.09.15-2.19.33-3.28.41-.79.07-1.59,0-2.39,0L61,76.56c-1.43,0-1.57.24-1.56,1.73,0,2.13.36,4.27-.5,6.38a8.83,8.83,0,0,1-7.61,5.12c-4.68-.05-9.36.13-14-.06A7.87,7.87,0,0,1,33.63,88a1.59,1.59,0,0,1-.26-2.52,9.41,9.41,0,0,1,2.34-2.13,2.19,2.19,0,0,0,1.39-2.46,17.89,17.89,0,0,1,0-2.64c0-1.38-.25-1.73-1.63-1.74q-6.6,0-13.2,0c-3.75,0-7.52.23-11.27,0-3.52-.19-7-.91-9.19-4.16a4.22,4.22,0,0,1-.64-1.27,25.48,25.48,0,0,1-1.1-6.63c.06-8.12,0-16.24,0-24.35ZM47.7,4.3v.06c-10.8,0-21.59,0-32.39,0a11.33,11.33,0,0,0-4.4.84c-2.73,1.23-5.19,2.95-6,6.1a17.13,17.13,0,0,0-.46,4.1c0,15.67,0,31.35-.11,47a14,14,0,0,0,1.52,5.82c.92,2.16,2.79,2.84,4.85,2.85,12.76,0,25.52,0,38.27,0a6,6,0,0,1,1.17.2,14.24,14.24,0,0,0,2.55.46c4.92,0,9.84-.14,14.75,0,3,.1,6-.65,8.87.56a.69.69,0,0,0,.47,0c1.36-.56,3-.86,4-1.77,2.81-2.37,4.61-5.18,4.55-9.25-.21-15.35-.13-30.71-.15-46.07a40.55,40.55,0,0,1,.1-4.55A6,6,0,0,0,84,6.46,4.62,4.62,0,0,0,80.21,4.3ZM46.47,84.23H51a1.66,1.66,0,0,0,1.87-1.6,5.89,5.89,0,0,1,.15-.82c.59-1.93.26-2.36-1.8-2.35-2.52,0-5,.13-7.54,0-1.71-.11-2.64.37-3.22,2-.64,1.83-.18,2.72,1.8,2.75C43.68,84.25,45.08,84.23,46.47,84.23Z"></path><path d="M44.6,60.14c-10,0-20-.11-30,.06a7.7,7.7,0,0,1-6.79-3.45,7,7,0,0,1-.92-3,15.16,15.16,0,0,1,0-2.52q0-17.32,0-34.67A10.35,10.35,0,0,1,7.4,13.1c1-2.7,3.13-3.63,5.95-4,2-.25,4-.16,6-.53,5.61-1.08,11.25-.67,16.82-.38,7.17.38,14.32.37,21.49.42,4.6,0,9.2-.2,13.79,0a56.68,56.68,0,0,1,5.94.74c2.46.34,4.41,3.52,4.29,6,0,.83,0,1.68,0,2.52,0,11.48,0,23,0,34.43,0,1.61.2,3.17-.86,4.58-1.43,1.88-3,3.28-5.59,3.27C65,60.11,54.8,60.14,44.6,60.14ZM40.89,11.8v0c-7.31,0-14.63,0-21.94,0a3.88,3.88,0,0,0-2.39,1c-1.7,1.63-1.18,4.09-2,6.09-.08.19.09.47.1.7a2.08,2.08,0,0,1,0,1.06,7.08,7.08,0,0,0-.56,4.08,4.52,4.52,0,0,1-.32,1.25,7.34,7.34,0,0,0-.3,1.51c0,4.44-.07,8.88,0,13.31.07,2.52-.6,5.1.52,7.56a2,2,0,0,1,0,.95,4,4,0,0,0,3.13,4.07c.51.08,1,.24,1.51.35a17,17,0,0,0,3.72.82c9.63,0,19.26,0,28.9-.08a6.91,6.91,0,0,1,1.16.21,24.9,24.9,0,0,0,2.56.44c3.75.23,7.48-.35,11.29.55,2.76.65,5.81.26,8.71,0,1.71-.14,3.52-.72,3.83-2.92a28.24,28.24,0,0,0,.32-3.42q.06-16.32,0-32.62c0-1.83-2.08-4.46-3.65-4.55-4.23-.23-8.47,0-12.73-.35C55.55,11.41,48.21,11.8,40.89,11.8Z"></path><path d="M42.57,66.68c0-2.1.44-2.48,2.55-2.44a2.47,2.47,0,0,1,2.07,2.35c-.07,1.16-1.53,2.22-3,2.19S42.53,68.43,42.57,66.68Z"></path><path d="M34.84,16c3.52,0,7.1-.43,10.53.11,4.68.74,9.31.25,14,.42,3.24.11,6.48,0,9.71-.06,1.4,0,3.06,2,3,3.61,0,2.08.12,4.16,0,6.23a7.39,7.39,0,0,1-2.06,5,1.9,1.9,0,0,1-.9.55,37.17,37.17,0,0,1-4.56.5c-6.75.06-13.51,0-20.26,0-1.93,0-2.91-.91-2.75-2.85a42.63,42.63,0,0,0,.44-4.33A7.76,7.76,0,0,0,41.05,22c-.55-1.05-1.64-1.14-2.82-1.12-4.15.09-8.31.06-12.47,0a4,4,0,0,0-4.41,4.34c0,1.32,0,2.64.08,4a2.68,2.68,0,0,1-1.3,2.41c-.68.51-1.4.2-1.73-.77a8.51,8.51,0,0,1-.76-4,25.85,25.85,0,0,0,0-4.31,5.13,5.13,0,0,1,3.09-5.22A11.06,11.06,0,0,1,26.33,16c2.83.14,5.67,0,8.51,0Z"></path><path d="M23.38,32.69c0-2.16,0-4.31,0-6.47s1-3,3.09-2.9c1.92.07,3.84.08,5.75.06a4.16,4.16,0,0,0,1.27-.32c3.21-1.1,6,.71,6.12,4.11.12,4,.09,8.07.07,12.1A2.89,2.89,0,0,1,36,41.92c-2-.7-3.93-.5-5.91-.56-1.44,0-2.88,0-4.31.1-1.66.09-2.43-.6-2.43-2.3,0-2.16,0-4.31,0-6.47Zm6,3.54c0,.62-.12,1,0,1.24.33.48.74,1.1,1.22,1.21.31.07.94-.6,1.17-1.07a2.53,2.53,0,0,0,.05-1.52,1.61,1.61,0,0,1,1-2.09c.58-.27.89-1.1,1.31-1.68a7.67,7.67,0,0,1-1.36-.63,6.06,6.06,0,0,1-.92-1,4.06,4.06,0,0,1,.86-.7c.39-.18.86-.18,1.26-.34.78-.3,1-.86.37-1.46s-1.46-1.54-2.59-1.09a3.08,3.08,0,0,0-2.28,2.53,2.73,2.73,0,0,1-1.05,2.15c-.74.59-.79,1.19.16,1.63a1.52,1.52,0,0,1,.88,1.78C29.41,35.65,29.37,36.09,29.36,36.23Z"></path><path d="M56.13,39.73c-3.91,0-7.83.05-11.74,0a2.76,2.76,0,0,1-1.79-1.07c-.16-.19.34-1.31.75-1.48a15.4,15.4,0,0,1,4.15-1.21,55.1,55.1,0,0,1,5.75-.05,3.72,3.72,0,0,1,1,.05c3.49,1.07,7.07.23,10.59.51a2,2,0,0,0,1-.25c1.34-.77,2.5-.1,3.59.51A1.63,1.63,0,0,1,70,38.18a2,2,0,0,1-2.1,1.6c-3.92,0-7.84,0-11.75,0Z"></path></svg>