<svg xmlns="http://www.w3.org/2000/svg" id="Layer_1" data-name="Layer 1" viewBox="0 0 95.93 89.57"><title>AsimovMarketingIcon-bt-omar bahaa</title><path d="M.08,42.68c0-10.07,0-18.11,0-26.15A17.12,17.12,0,0,1,2.2,7.61,14.16,14.16,0,0,1,9.58,1.42,30.22,30.22,0,0,1,15.46.34,36.24,36.24,0,0,1,21.51,0c1.85,0,3.7.41,5.55.42q28.73,0,57.47,0a14.29,14.29,0,0,1,5.79,1.15A6.37,6.37,0,0,1,94,5.7,24,24,0,0,1,95.43,14a95.08,95.08,0,0,0,0,14c.46,4.19.06,8.35.41,12.51a2.36,2.36,0,0,1,0,.83c-1.12,3.49-.33,7.06-.49,10.58-.13,2.92.24,5.87-.08,8.75A18.53,18.53,0,0,1,92.83,69a15,15,0,0,1-7.43,6.18,22.18,22.18,0,0,1-4.17.73c-6.76,1-13.55.23-20.33.45-1.09,0-1.46.45-1.46,1.51,0,2.1.42,4.22-.36,6.29a10.17,10.17,0,0,1-4.64,5.14,3.82,3.82,0,0,1-1.74.28c-5.44,0-10.88,0-16.31,0A3.52,3.52,0,0,1,33,86.78c-.19-.91,1-2.79,2.08-3.26,2.08-.91,2.07-.91,2-3.17,0-.72,0-1.44,0-2.16,0-1.58-.2-1.84-1.75-1.84q-9.72,0-19.44,0c-1.84,0-3.68.16-5.52,0-3.67-.21-7-1.34-9-4.72A7,7,0,0,1,.62,69.1C-.7,59.64.58,50.12.08,42.68ZM47.7,4.16v0c-9.92,0-19.83.07-29.75,0A26.32,26.32,0,0,0,11.76,5a9.41,9.41,0,0,0-7.31,9.47c0,15.84,0,31.67-.1,47.5a13.76,13.76,0,0,0,2.1,7.1,3.25,3.25,0,0,0,3,1.9c10.88-.08,21.75-.16,32.63-.06,3,0,6.15-.71,9.1.7a1.84,1.84,0,0,0,.71,0c7.15,0,14.31-.12,21.46-.14.54,0,1.08.29,1.62.33,1,.09,2.23.43,3.14.09a11.39,11.39,0,0,0,6.56-6,7,7,0,0,0,.73-2.35c.1-1.51,0-3,0-4.56q0-23.33,0-46.66a12.68,12.68,0,0,0-.44-4.22,5.23,5.23,0,0,0-5.24-4Zm-.62,75h0c-1.47,0-2.95,0-4.43,0-1.31,0-3,2.69-2.41,3.84a2.31,2.31,0,0,0,1.06.88,3.28,3.28,0,0,0,1.3.16c2.39,0,4.8-.08,7.19,0,1.76.1,2.81-.39,3.38-2.19s.13-2.7-1.77-2.73C50,79.15,48.52,79.17,47.08,79.17Z"></path><path d="M44.16,60.43c-9.11,0-18.23,0-27.35,0-2.57,0-5-.22-7.21-1.67a5.75,5.75,0,0,1-2.71-5.27c0-.32,0-.64,0-1V16.45A8.76,8.76,0,0,1,7,13.73c.75-2.19,2.5-3.55,4.47-4.63A3.32,3.32,0,0,1,12.79,9c.4,0,.88.15,1.18,0C15.6,8,17.34,8.53,19,8.39c1.45-.13,2.9-.36,4.35-.49.83-.06,1.68,0,2.51,0,2.24,0,4.58-.45,6.69,0a28.16,28.16,0,0,0,6.64.42c10.24.06,20.48,0,30.72,0,1.34,0,2.72-.25,3.94.59a1.13,1.13,0,0,0,.71.07c3.3-.56,6,1.87,6.94,4.64a3.6,3.6,0,0,1,.2,1.17q0,18.9-.09,37.79c0,4.37-1.84,6.69-6.22,7.43a30.65,30.65,0,0,1-5,.33c-8.76,0-17.52,0-26.28,0Zm2.1-48.31v0c-9.31,0-18.63,0-27.94,0A2.19,2.19,0,0,0,16,13.48a5.43,5.43,0,0,0-.75,3.19A4.09,4.09,0,0,1,14.92,18a11.07,11.07,0,0,0-.28,1.27c-.22,2-.41,4-.62,6,0,.2-.18.37-.22.56a10.1,10.1,0,0,0-.32,1.85c0,5.92,0,11.84,0,17.75a43.22,43.22,0,0,0,.62,5.16,4.26,4.26,0,0,0,.42.86c.67,1.52,2.08,1.87,3.5,2.12a61.06,61.06,0,0,0,8.52,1.34c3.67.12,7.36-.4,11-.45a88.37,88.37,0,0,1,14.17.49c3.08.45,6.3-.65,9.33.72a1.49,1.49,0,0,0,.6,0c4.43,0,8.87,0,13.31,0a4.13,4.13,0,0,0,4.17-4.19q0-17.34,0-34.66a4.9,4.9,0,0,0-4.75-4.73Z"></path><path d="M42.58,66.45c-.07-.93-.07-2,1.23-2.38a2.82,2.82,0,0,1,3.07,1.31,2,2,0,0,1,.31.76c.1.94-1.85,3-2.88,3S42.51,68.23,42.58,66.45Z"></path><path d="M29,48c-2.2,0-4.39,0-6.59,0a2.39,2.39,0,0,1-2.53-2.54.49.49,0,0,1,0-.12c.11-3.4.11-3.4,3.38-4a1.19,1.19,0,0,1,.7,0,8.86,8.86,0,0,0,6.6,0,3.54,3.54,0,0,1,1.18-.09c1.39,0,2.79,0,4.19,0a2.39,2.39,0,0,1,2.62,2.44c0,1.05.23,2.12-.66,3.05a3.52,3.52,0,0,1-3,1.27c-2-.13-3.91,0-5.87,0Z"></path><path d="M46.23,31.25l7.46.53a2.58,2.58,0,0,0,1,0c3.35-1.13,6.8-.29,10.2-.52a5.53,5.53,0,0,0,2-.42,2.27,2.27,0,0,1,2.93.45,1.5,1.5,0,0,1,.46,1.19,1.62,1.62,0,0,1-1.11.72,49.16,49.16,0,0,1-10.64.56A15.76,15.76,0,0,0,56.8,34c-1.29.12-2.71.59-3.84.22a14.27,14.27,0,0,0-4.84-.42c-1.12,0-2.24.38-3.36.51a4.11,4.11,0,0,1-1.75,0,1.68,1.68,0,0,1-1-1.05A1.49,1.49,0,0,1,42.7,32a30.93,30.93,0,0,1,3.44-1Z"></path><path d="M54.82,29.19H43.33c-1.22-.12-2.13-.81-1.93-1.54.29-1.07,1.18-1.13,2.12-1.09,1.15.06,2.31.06,3.47.09,1.61,0,3.22-.29,4.8.52a4.66,4.66,0,0,0,2.34,0c1-.11,2-.43,3-.46,3.6-.09,7.19-.09,10.78-.12.24,0,.54-.08.71,0,.4.26,1,.59,1,.95s-.49.94-.87,1a13.23,13.23,0,0,1-3.29.54c-3.55.06-7.11,0-10.66,0Z"></path><path d="M27.83,24.83c-1.93.28-3.12-.67-4.09-2.19a2.25,2.25,0,0,1-.12-2.47c.44-.81.9-1.61,1.27-2.45a3.34,3.34,0,0,1,3.38-2,3.45,3.45,0,0,1,3.22,2.6c.08.27.16.54.26.8a4.22,4.22,0,0,1-1.85,5.37A6.51,6.51,0,0,1,27.83,24.83Z"></path><path d="M27.45,36.32c1.84,0,3.67,0,5.51,0a8,8,0,0,0,1.85-.38c.5-.13,1-.55,1.45-.48a3.79,3.79,0,0,1,1.8.9,1.31,1.31,0,0,1,.07,1.27,3.89,3.89,0,0,1-1.62.74c-.75.21-1.52.3-2.28.44a5.52,5.52,0,0,1-1,.19c-4,0-8.06,0-12.08,0-.87,0-1.69-.23-1.82-1.19s.74-1.33,1.48-1.41a34.9,34.9,0,0,1,3.69-.09h3Z"></path><path d="M28.46,33.83c-2.24,0-4.48.05-6.71,0A2.6,2.6,0,0,1,20,33c-.66-.8.08-1.75,1.4-1.76,3.55,0,7.11,0,10.67,0,1.15,0,2.31,0,3.47,0,.91,0,1.81.05,1.84,1.18s-.88,1.35-1.76,1.36c-2.39,0-4.79,0-7.19,0Z"></path><path d="M24.09,26.5c2.19,0,4.22,0,6.25,0a4.09,4.09,0,0,1,1.35.39,3.66,3.66,0,0,0,3.65-.13c.79-.52,2.54.35,2.56,1.29a1.33,1.33,0,0,1-.66,1,6.34,6.34,0,0,1-5,.27,4.28,4.28,0,0,0-1.52-.23c-2.36,0-4.72,0-7.08,0-.58,0-1.14.29-1.73.34a3.5,3.5,0,0,1-1.62-.13c-.26-.12-.53-.9-.39-1.09a2.89,2.89,0,0,1,1.35-1C22.21,26.91,23.23,26.72,24.09,26.5Z"></path><path d="M48.31,40.47c.35.58,1,1.18,1,1.73s-1,1.33-1.33,1.25a2,2,0,0,1-1.38-1.4c0-.51.77-1.07,1.21-1.6Z"></path><path d="M55,44c-.52-.83-1.17-1.44-1.05-1.78a2.33,2.33,0,0,1,1.39-1.42c.38-.07,1.4.94,1.32,1.27C56.54,42.64,55.8,43.11,55,44Z"></path><path d="M61.89,42.38l1.66-1.6c.4.46,1.2,1,1.11,1.36A2.61,2.61,0,0,1,63.3,43.5C63.12,43.6,62.54,42.92,61.89,42.38Z"></path></svg>