<svg xmlns="http://www.w3.org/2000/svg" id="Layer_1" data-name="Layer 1" viewBox="0 0 121.28 138.57"><title>AsimovMarketingIcon-bt-omar bahaa</title><path d="M86.8,13.55c0,1,0,2.08,0,3.11a5,5,0,0,1-.35,1.22c-.15.44-.31.87-.47,1.31a11.77,11.77,0,0,0-.52,1.4,4.12,4.12,0,0,0-.26,2c.1.33,1,.39,1.6.57,1.75.54,3.59.69,5.34,1.12a10.55,10.55,0,0,0,3.33.54,2.69,2.69,0,0,1,.84-.06c1.53.43,3.06.89,4.58,1.34.08,0,.14.09.22.11,1.69.36,3.37.81,5.08,1,1.18.16,4.14,1.94,4.48,3.09a2.67,2.67,0,0,1-.07,2c-.86,1.17-.63,2.41-.63,3.67,0,7.08,0,14.16,0,21.24q0,25.42,0,50.87c0,1.11,0,2.24-.09,3.35a2.11,2.11,0,0,0,1.33,2.3,46,46,0,0,1,5.27,2.59,8.05,8.05,0,0,1,4.06,5.24c.06.27,0,.64.2.8,1.09,1,.32,1.85,0,2.93-1.08,3.36-3.87,4.58-6.66,5.9a4.39,4.39,0,0,1-3,.7.63.63,0,0,0-.46.12c-1.8,1.46-3.93.62-5.9.83a1.26,1.26,0,0,1-.89-.27c-1.09-1-2.44-.82-3.65-.64a3.09,3.09,0,0,0-1.68,1.49,32,32,0,0,0-1.83,3.77,2.11,2.11,0,0,1-2.19,1.33,30.81,30.81,0,0,1-4.3,0c-2-.31-4-.91-6-1.39-.08,0-.16-.12-.22-.1-2.11.44-3.87-1.17-5.94-1a3.74,3.74,0,0,1-3.06-.65,1.73,1.73,0,0,0-1.15-.13c-1.71.18-3.54-.39-5.09.81-.13.1-.39.05-.59,0-1.72,0-3.44-.1-5.15,0a7.32,7.32,0,0,0-1.77.53,5.23,5.23,0,0,1-1.45.43q-16.18,0-32.39,0c-.27,0-.64,0-.8-.14-1.35-1.28-3-.75-4.57-.88a10.1,10.1,0,0,1-2-.5c-.23-.06-.44-.26-.66-.26-2.87,0-5.4-1.34-8-2.37a8.85,8.85,0,0,1-4.75-5c-.32-.81.48-2.06.77-3.11.14-.52.54-1.32.35-1.51A5.19,5.19,0,0,0,5.6,122c-1.37-.44-2.84-.58-4.18-1.07-1.14-.41-1.69-2.26-1.29-3.41a5,5,0,0,0,.23-1.64A5.8,5.8,0,0,1,1,112.45c.49-.79.07-2.1.19-3.16A16.32,16.32,0,0,1,1.8,107a6.59,6.59,0,0,0,.3-1.37c0-1.37-.38-2.8.71-4,.17-.18.14-.62.09-.92a4.4,4.4,0,0,1,.55-3c.38-.73.11-1.78.22-2.67.08-.65.35-1.27.44-1.91a22.78,22.78,0,0,0,.27-3.39A4.26,4.26,0,0,1,5,87.14a4.12,4.12,0,0,0,.3-2.29,3.51,3.51,0,0,1,.64-2.7,2.18,2.18,0,0,0,.25-1.46A3.27,3.27,0,0,1,6.76,78,2.48,2.48,0,0,0,7,76.51c0-1.56-.52-3.19.74-4.57.19-.22.14-.69.13-1,0-.6-.35-1.34-.1-1.77,1-1.87.4-4.07,1.34-6,.46-1,.17-2.25.3-3.38.09-.71.35-1.4.51-2.1a8.67,8.67,0,0,0,.32-1.72c0-1.3-.2-2.55.7-3.77.4-.55.06-1.62.17-2.44s.4-1.4.52-2.11c.15-.88.17-1.78.31-2.67s.37-1.56.54-2.35a7.2,7.2,0,0,0,.28-1.5c0-1.6-.4-3.2.67-4.73.39-.57,0-1.63.1-2.46.08-.64.36-1.25.5-1.89s.17-1.31.3-2,.43-1.47.57-2.21.2-1.79.37-2.67.42-1.63.59-2.45a6.92,6.92,0,0,0,.21-1.62c-.07-1.63-.26-3.21.74-4.73a5.32,5.32,0,0,1,3.8-2.3c.69-.13,1.35-.34,2-.51,0,0,.07-.06.1-.06,2.42-.19,4.85-.71,7.24.23.18.07.36.31.51.28,2.52-.43,4.74,1.55,7.31.91a4.51,4.51,0,0,1,1.94.39c.26.08.51.41.73.37,2.42-.42,4.61,1,7,.87a13.46,13.46,0,0,1,2.37.48,4.5,4.5,0,0,0,2.11.1A2.08,2.08,0,0,0,53.21,15a9.21,9.21,0,0,1,.49-2,9,9,0,0,1,.3-1,7.57,7.57,0,0,1,.67-1.57c1.19-1.76,2.41-3.5,3.68-5.21a6.86,6.86,0,0,1,1.59-1.59c.68-.48,1.56-.68,2.22-1.17C64.72.57,67.65.9,70.55.9A7,7,0,0,0,73.13.26,3.2,3.2,0,0,1,76,.43c.53.26,1.19.25,1.76.47,1.19.46,2.38,1,3.54,1.51a6,6,0,0,1,1.37.92A15,15,0,0,1,84.18,4.9a7.76,7.76,0,0,1,.95,1.34A16.76,16.76,0,0,1,85.94,8c.06.14,0,.32,0,.47a18.22,18.22,0,0,1,.75,2.42,17.87,17.87,0,0,1,0,2.64ZM6.69,106.33a6.74,6.74,0,0,1,0,1.19A1.94,1.94,0,0,0,8,110c.92.31,2,.2,2.83.67,1.89,1.13,3.89.71,5.85.72,1.67,0,3.45.47,5-.75.22-.17.7,0,1.05,0a34.62,34.62,0,0,0,3.67-.25c2.3-.37,4.59-.86,6.89-1.3,0,0,.08,0,.12,0L38.57,108c.12,0,.2-.15.31-.18q2.38-.7,4.77-1.38c.14,0,.32,0,.47,0l5.39-1c.11,0,.2-.15.31-.17,1.85-.42,3.69-.84,5.54-1.24.11,0,.23,0,.35,0,1.5,0,3,.45,4.37-.67a1.84,1.84,0,0,1,1-.18q8,0,16.06,0a1.48,1.48,0,0,1,.91.19c1.1,1,2.36.79,3.64.65a2.89,2.89,0,0,1,1.06.06c1.84.51,3.67,1,5.49,1.6a18,18,0,0,1,3.4,1.27,2.35,2.35,0,0,0,3.67-2c0-1.47-.06-2.95-.08-4.43,0-.36-.11-.84.07-1,1.17-1.28.62-2.79.73-4.22a15.51,15.51,0,0,1,.61-2.46,6.16,6.16,0,0,0,.23-1.27c.06-1.68-.49-3.43.78-4.94.18-.22,0-.7.07-1.05.09-1.78-.71-3.65.62-5.31.2-.25.09-.77.08-1.17,0-1.12-.09-2.24-.08-3.35a2,2,0,0,1,.33-1.23,3.36,3.36,0,0,0,.71-2.57,13.53,13.53,0,0,1,.19-2.46c.11-.72.39-1.41.49-2.12.19-1.27.26-2.57.45-3.84.1-.64.48-1.24.52-1.88.14-1.86-.63-3.82.75-5.54.19-.22.09-.69.09-1.05,0-1.56-.48-3.2.63-4.62a1,1,0,0,0,.07-.59c0-1.2-.13-2.4-.11-3.59a6.41,6.41,0,0,1,.39-1.58,13.83,13.83,0,0,0,.61-2.22c.1-1-.37-2.28.08-3.06a6.75,6.75,0,0,0,.7-3.66c0-2.11-.84-3-3-2.88a5,5,0,0,1-2.56-.2,5.52,5.52,0,0,0-3.33-.6,7.83,7.83,0,0,1-1.85-.29,10.26,10.26,0,0,0-2.26-.48A5,5,0,0,1,88,30.56a2.77,2.77,0,0,0-1.49-.28c-1,0-2.24.37-3.06,0-1.65-.8-3.32-.29-4.91-.61s-3.47-.72-5.2-1.09a14.47,14.47,0,0,0-3.17-.62,18,18,0,0,1-2.83-.2c-.72-.1-1.4-.41-2.12-.53-1-.17-2-.2-2.91-.38-.75-.13-1.47-.48-2.22-.6-.93-.15-1.88-.13-2.82-.26-.68-.09-1.33-.4-2-.46-1.14-.12-2.44.21-3.4-.24a7.06,7.06,0,0,0-3.45-.62,7.38,7.38,0,0,1-1.84-.31c-.68-.14-1.4-.58-2-.46-2.75.53-5.21-1.44-7.94-.84a.6.6,0,0,1-.44-.17,3.58,3.58,0,0,0-3.15-.7A1.51,1.51,0,0,1,32,22a4.54,4.54,0,0,0-3.21-.64c-1.1,0-2.39.26-3.27-.21a7.45,7.45,0,0,0-3.33-.7c-1.09,0-1.49.47-1.43,1.54a6.7,6.7,0,0,1-.27,1.71c-.15.72-.37,1.41-.52,2.12s-.19,1.38-.34,2.06-.38,1.18-.45,1.78c-.1.91.26,2.09-.19,2.69-1.13,1.49-.62,3.05-.72,4.59A4.56,4.56,0,0,1,18,38.54c-.86,1.92-.54,4.11-1.39,6-.1.23,0,.56,0,.83,0,.64.19,1.47-.12,1.87-1.14,1.42-.59,3-.64,4.49a7.39,7.39,0,0,1-.25,1.48,10.67,10.67,0,0,0-.58,2.34c0,1.21.25,2.39-.79,3.34a1,1,0,0,0-.2.79,3.94,3.94,0,0,1-.72,3.6c-.19.2-.1.68-.09,1,0,1.6.6,3.27-.71,4.68a1.25,1.25,0,0,0-.15.81,10.12,10.12,0,0,1-.53,4.26c-.49,1.36-.43,3-.92,4.5s.4,3.16-.87,4.52c-.14.16-.06.54-.05.82,0,1,.08,1.92.06,2.88A4.1,4.1,0,0,1,9.84,88c-.2.78-.75,1.63-.58,2.3.57,2.33-1.23,4.23-.95,6.46,0,.13-.17.27-.21.42a12.41,12.41,0,0,0-.5,2.13c-.1,1.07.32,2.35-.15,3.17A7.18,7.18,0,0,0,6.69,106.33ZM5,115.12c-.31,1.13.26,1.78,1.4,2.38a6.3,6.3,0,0,0,3.23.56,8.79,8.79,0,0,1,2,.31c1.93.42,3.85.94,5.79,1.31,1.75.33,3.42,1.13,5.27.87.13,0,.26.18.41.23a10.4,10.4,0,0,0,2,.62c1.54.17,3.2-.51,4.58.73a.56.56,0,0,0,.46.07,2.75,2.75,0,0,1,2.66.67,1.57,1.57,0,0,0,.91.2c2,.09,3.85,1.31,5.94.71.15,0,.38.11.54.22a4.6,4.6,0,0,0,3.45.59,2.35,2.35,0,0,1,1.38.16c1.92,1.19,4.24.53,6.21,1.44a11.91,11.91,0,0,0,1.79.53,7.27,7.27,0,0,0,1.78.49c1.3.06,2.64-.31,3.78.68a1.19,1.19,0,0,0,.81.11c1.49-.14,2.95-.25,4.26.7.2.15.55.07.82.1,1.73.18,3.33,1.26,5.16.79.06,0,.14.08.21.1a13.93,13.93,0,0,0,2.57.62c1.15.06,2.31-.14,3.26.8a1.32,1.32,0,0,0,.9.21,12.25,12.25,0,0,1,3.41.58c1.65.38,3.34.69,5,1a24.73,24.73,0,0,1,3.19.65c2.11.69,3.41.27,2.95-2.15a5.35,5.35,0,0,1,.44-2,8,8,0,0,0,.4-1.55c.09-1.64-.51-3.36.74-4.83a1.35,1.35,0,0,0,.11-.82c0-1.16-.12-2.31-.1-3.47a6.54,6.54,0,0,1,.32-1.48,12.91,12.91,0,0,0,.51-2.24c0-1-.23-2,.52-2.87.14-.17-.1-.79-.32-1.09-.77-1.06-2-1.22-3.16-1.7-2.26-1-4.36-2.32-7-2.21a.55.55,0,0,1-.33-.12c-1.37-1.22-3-.71-4.59-.79a10.5,10.5,0,0,1-1.79-.41,7,7,0,0,0-1.59-.36c-4.72,0-9.44,0-14.16,0a7,7,0,0,0-1.39.29c-.83.17-1.65.38-2.49.49-1.09.16-2.19.2-3.27.36a9.47,9.47,0,0,1-2.36.49c-1.95-.27-3.48.94-5.25,1.27a12.26,12.26,0,0,1-2.11.46c-2,0-3.76,1.29-5.8,1,0,0-.06,0-.1,0l-5.78,1.38c-.61.15-1.22.28-1.83.41a11.36,11.36,0,0,1-2.06.4c-1.43,0-2.88-.21-4.16.72a1.73,1.73,0,0,1-.92.2c-3.88,0-7.75,0-11.63,0a6.16,6.16,0,0,1-2-.53C7.74,111.52,4.69,111.72,5,115.12Zm100-21.54h.17c0-7.11,0-14.22,0-21.33,0-.44-.42-.88-.65-1.32-.23.43-.65.86-.65,1.3,0,1.37.42,2.77-.6,4-.19.23-.11.7-.1,1.05,0,1.16.14,2.32.11,3.47a7.7,7.7,0,0,1-.42,1.58c-.18.74-.32,1.49-.47,2.24s-.21,1.29-.35,1.93a19.6,19.6,0,0,0-.47,2.12c-.11,1.37.15,2.84-.24,4.12a7.27,7.27,0,0,0-.56,2.72c.08,1.19.47,2.65-.06,3.52-1,1.7-.71,3.36-.73,5.09a5.64,5.64,0,0,1-.37,1.33,7.18,7.18,0,0,0-.47,1.76c0,1.61.51,3.28-.82,4.67-.18.18-.11.61-.13.93-.15,2,.4,4-.68,6-.7,1.34-.29,3.28-.32,5a.93.93,0,0,0,.51.69.74.74,0,0,0,.68-.29c.36-.79,1-1.65.88-2.41-.17-1.49.59-2.55,1.2-3.67a2.1,2.1,0,0,1,3.28-.4c.25.36.56.68.85,1a4.94,4.94,0,0,0,.79-1.23,3.42,3.42,0,0,0,0-1.42,10,10,0,0,1-.3-1.13C105.05,107.81,105.06,100.7,105.06,93.58Zm-29.6-77a14.76,14.76,0,0,0-.84-5.18C73.81,9,72.89,7.09,70.45,6.12c-1.67-.68-2-.82-3.19.6-1.54,1.9-2.86,4-4.26,6-.09.12-.07.31-.13.45a22.53,22.53,0,0,1-1.33,3.15c-.44.75-.87,1.53-.32,2.18.37.43,1.24.47,1.9.61s1.39.17,2.07.29,1.57.37,2.36.51c.38.07.9-.14,1.16,0,1.65,1.23,3.54.68,5.34.84.93.08,1.41-.41,1.41-1.35Zm8.34-6.44c-.13-.31-.25-.6-.38-.88a10.08,10.08,0,0,0-4.76-4.86c-.56-.3-1.17-.88-1.65-.2-.23.33,0,1.11.21,1.58.85,1.85,2.42,3.41,2.09,5.7,0,.26.25.56.38.84s.52.73.48,1.06c-.28,2.18-.64,4.36-1,6.53,0,.08-.11.14-.12.21a6.06,6.06,0,0,0-.1,1.29c.76.22,1.41,1.36,2.35.44,1.57-1.53,2.71-3.25,2.34-5.6a2.42,2.42,0,0,1,.57-2.33,1.31,1.31,0,0,0,.1-1.27C83.73,11.82,83.25,11.1,83.8,10.09ZM56.74,17.18c.19.27.32.66.58.79a.88.88,0,0,0,.84-.2A6.88,6.88,0,0,0,59,16.26c.15-.35.1-.79.26-1.14.49-1.11,1.1-2.17,1.53-3.3.11-.29-.28-.77-.44-1.16-.31.15-.79.22-.91.46-.78,1.52-1.49,3.07-2.19,4.62A14.16,14.16,0,0,0,56.74,17.18Z"></path><path d="M40,62.25c-.34-2.11.71-3.91,1.42-5.76a11.27,11.27,0,0,1,3-4.56c.54-.48.72-1.35,1.22-1.89a14.94,14.94,0,0,1,6.78-4,11.88,11.88,0,0,1,3.88-.59,1,1,0,0,0,.66-.26c1-1.08,1.86-.87,2.91-.06a2.86,2.86,0,0,0,1.72.33A5.41,5.41,0,0,1,65,46a28.16,28.16,0,0,0,4.5,1.8c3,1.2,5,3.68,7,6,.87,1,1,2.75,1.22,4.2a15.77,15.77,0,0,0,.49,3.33A5.61,5.61,0,0,1,78,66.1c-.16.27-.38.6-.33.86.37,2.27-1,4-2.14,5.53a19.32,19.32,0,0,1-7.1,5.91c-1.77.88-3.63,1.74-5.74,1.47a1.48,1.48,0,0,0-1,.16c-1.47,1.41-3.29.55-4.92.81a1.13,1.13,0,0,1-.79-.23,3.52,3.52,0,0,0-3.05-.67,1.89,1.89,0,0,1-1-.13,18.66,18.66,0,0,1-9.09-8.15,36.2,36.2,0,0,1-2.1-5.87c-.38-1.13-.65-2.3-1-3.45Zm21.24-6.59h.19a4.79,4.79,0,0,0,0-1.78A4.35,4.35,0,0,0,59.91,52c-.25-.17-1.2.36-1.59.8a29.31,29.31,0,0,0-2,2.79c-.77,1.11-1.58,2.19-2.29,3.32-1.14,1.82-2.17,3.7-3.35,5.49-.64.95-.16,1.46.45,2s1.15.14,1.58-.36a3.89,3.89,0,0,0,.87-1.14,3.78,3.78,0,0,1,2.33-2.06c1.34-.6,3,.39,2.79,1.82S59.18,67,59.79,68a2,2,0,0,0,1.67.48c.32,0,.74-.79.75-1.23,0-1.2.27-2.5-.79-3.49a1,1,0,0,1-.19-.68C61.22,60.61,61.22,58.13,61.22,55.66Zm5.4.7c-.39-.42-.94-1.27-1.17-1.19a6,6,0,0,0-2.32,1.41c-.34.37.82,1.26,1.81,1.34S66.35,57.54,66.62,56.36Z"></path><path d="M58,60.28c-.1-.13-.56-.63-.52-.68A21.88,21.88,0,0,1,59.06,58c.21.28.57.54.61.85C59.76,59.66,59.05,60.32,58,60.28Z"></path></svg>