<svg xmlns="http://www.w3.org/2000/svg" id="Layer_1" data-name="Layer 1" viewBox="0 0 77.39 99.48"><title>AsimovMarketingIcon-bt-omar bahaa</title><path d="M8.73,99.31a9.68,9.68,0,0,0-1.32,0c-2.62.41-4-1.19-5.55-3-2-2.32-1.93-5-1.82-7.65a18.4,18.4,0,0,1,.63-3c.35-1.6.72-3.2,1.07-4.8a9.29,9.29,0,0,0,.12-1.06c.14-1,.29-2,.43-3a1.54,1.54,0,0,0,.11-.46c-.24-2.35.67-4.49,1.13-6.72A52,52,0,0,0,4,64c.05-.5.21-1,.3-1.5s.18-1.22.27-1.83c.07-.43.11-.86.18-1.28.13-.73.28-1.46.4-2.19q.47-2.81.94-5.63c0-.23.27-.48.22-.67-.44-1.67.47-3.16.58-4.75a7.38,7.38,0,0,1,.33-1.37c.1-.39.39-.78.34-1.13A9.63,9.63,0,0,1,8,40.2a43,43,0,0,0,.57-5.47c0-.35.19-.69.25-1,.13-.69.26-1.38.35-2.07.26-1.9.49-3.81.74-5.71a19.31,19.31,0,0,1,.34-2.42c.7-2.69.77-5.53,2.85-7.83s5-3.62,8-4.55c4.19-1.29,8.38-2.62,12.56-3.94,3.08-1,6.15-2,9.23-2.92s6-1.8,9.07-2.65C54,1,56,.48,58,.07c1.87-.37,3.15.75,4.37,2,2.34,2.39,2.69,5.39,2.14,8.35-.3,1.67-.35,3.29-.53,4.93s-.73,3.2-1,4.81-.42,3.18-.6,4.78c0,.23.07.49,0,.71-.35,1.4-.74,2.8-1.09,4.2A9.18,9.18,0,0,0,61.12,31c0,.15.08.32.06.47-.35,2.12-.71,4.23-1.08,6.35,0,.23-.17.45-.19.69-.15,1.56-.22,3.12-.42,4.67s-.55,2.77-.77,4.16c-.17,1-.25,2.1-.36,3.15,0,.16,0,.33,0,.48-.35,1.68-.72,3.36-1.08,5a1.17,1.17,0,0,1,0,.11l-.63,5.1c0,.08,0,.17,0,.24-.27,1.82-.53,3.64-.82,5.46s-.62,3.62-.94,5.42c-.08.47-.14.94-.25,1.41a5.7,5.7,0,0,0-.3.78c-.18,1.66-.34,3.33-.5,5a9,9,0,0,1-2.53,5.06,16.47,16.47,0,0,1-2.72,2.69A14.52,14.52,0,0,1,45,89c-2.18.75-4.44,1.27-6.64,2q-7.71,2.39-15.4,4.84c-3.28,1-6.52,2.17-9.83,3.1a28.39,28.39,0,0,1-4.36.54Zm46.68-85.9a10.88,10.88,0,0,0-1.16.27c-2.56.87-5.11,1.8-7.69,2.61-3.88,1.22-7.78,2.37-11.68,3.54s-7.81,2.28-11.69,3.48c-2.7.84-5.33,1.93-8.06,2.65-2.12.57-3,2.15-2.84,4.32a6.07,6.07,0,0,1-.24,1.37c-.12.69-.24,1.38-.35,2.06s-.24,1.54-.38,2.31c-.06.34-.32.73-.23,1a4.24,4.24,0,0,1-.43,3.23,4.54,4.54,0,0,0-.1,1.4c-.05.47-.14.94-.21,1.4-.11.69-.23,1.38-.34,2.07s-.22,1.47-.35,2.2c-.27,1.45-.56,2.9-.84,4.35,0,.12,0,.25,0,.36l-.36,2.18c-.08.43-.18.85-.23,1.28a36.38,36.38,0,0,1-.62,5.34,6.78,6.78,0,0,0-.38,3.24c.07.27-.14.6-.2.91-.16.76-.3,1.53-.44,2.29-.09.46-.19.92-.27,1.39s-.22,1.22-.29,1.84c-.21,1.66-.39,3.33-.59,5,0,.14-.2.27-.23.41-.1.58-.16,1.17-.24,1.75a4.64,4.64,0,0,0,1.78.19c5.08-1.51,10.14-3.08,15.2-4.66,3.61-1.12,7.2-2.29,10.8-3.43q5-1.56,9.95-3.1c1.59-.49,3.24-.85,4.79-1.44a2.45,2.45,0,0,0,1.38-1.41,43.31,43.31,0,0,0,.62-4.43c0-.23.18-.45.22-.68.13-.69.23-1.38.34-2.07.09-.51.19-1,.28-1.51s.23-1.23.3-1.85c.19-1.63.35-3.26.53-4.89,0-.12.12-.22.14-.34.16-.83.31-1.66.46-2.5.06-.35.13-.69.18-1.05q.49-3.23,1-6.47s0-.08,0-.12c.08-.51.18-1,.26-1.52s.18-1.31.27-2c.06-.39.11-.78.18-1.16.35-1.68.72-3.36,1.07-5,0-.15-.07-.32-.05-.47.17-1.88.34-3.75.53-5.62,0-.15.17-.28.2-.43.32-1.58.67-3.15.94-4.73.13-.73,0-1.51.18-2.24C56.72,13.76,56.39,13.38,55.41,13.41Zm-48.32,71-.22-.06a9,9,0,0,0,0-2.26,2.2,2.2,0,0,0-1.15-1.44A1.89,1.89,0,0,0,4,81.4a7.27,7.27,0,0,0-.78,2.7c-.14,1.17,0,2.38-.14,3.56S2.63,90,2.6,91.14s1.47,2.51,2.34,2.27c1.61-.46,3.19-1,4.77-1.51,1.92-.64,3.81-1.37,5.74-2,3.27-1,6.57-1.94,9.84-3,2.72-.85,5.38-2,8.14-2.64a48.43,48.43,0,0,0,9.9-3.39,9.77,9.77,0,0,0,2.36-1.81c.24-.23.19-.77.27-1.17-.43,0-.92-.27-1.29-.13-2.45.91-4.84,2-7.31,2.83-7.91,2.73-15.84,5.4-23.76,8.08-1.93.65-3.89,1.2-5.8,1.89-1.17.42-1.65.18-1.66-1.08a5.94,5.94,0,0,1,.13-1.19C6.53,87.05,6.81,85.75,7.09,84.45Zm43-9.19c.27.34.51.89.86,1s.84-.37,1-.72a6,6,0,0,0,.44-1.85c.24-2,.45-4,.68-6,0-.2.13-.38.16-.58.31-1.59.64-3.17.9-4.77.32-2,.56-4,.84-6,.14-1,.24-2,.41-3.06.3-1.67.71-3.33.94-5,.3-2.23.44-4.48.72-6.71.16-1.25.46-2.48.69-3.72.32-1.71.67-3.41.94-5.13.3-1.88.57-3.77.77-5.66,0-.36-.28-.75-.43-1.13-.44.25-1.16.43-1.26.78a29.12,29.12,0,0,0-.67,3.73c-.23,1.6-.41,3.22-.63,4.82-.14,1-.32,2-.49,3-.1.55-.21,1.09-.32,1.64-.28,1.39-.63,2.78-.82,4.18-.25,1.87-.3,3.77-.57,5.63s-.8,3.94-1.1,5.92c-.27,1.75-.36,3.53-.57,5.3,0,.38-.26.75-.34,1.14s-.22,1.09-.29,1.63c-.18,1.46-.28,2.93-.53,4.38C51,70.41,50.54,72.74,50.07,75.26ZM37.41,88.54c1.16-.36,2.07-.62,3-.92.42-.14,1-.27,1.16-.57a1.38,1.38,0,0,0-.27-1.28,1.82,1.82,0,0,0-1.39-.26c-.86.16-1.68.51-2.52.75s-1.38.59-1.13,1.39C36.36,88.05,37.05,88.28,37.41,88.54ZM60.73,14.7c-.44.2-.73.23-.78.36a20.48,20.48,0,0,0-1.17,3.17c-.06.23.68.92,1.07.93s.93-.54,1.07-.95a8.38,8.38,0,0,0,.34-2.45C61.26,15.41,60.92,15.06,60.73,14.7ZM35.88,11.46c-.28-.19-1-.85-1.12-.74a16.5,16.5,0,0,0-2,1.89c.39.38.72,1,1.18,1.11S35.89,12.48,35.88,11.46Z"></path><path d="M61.23,64.82c.39-1.8.74-3.61,1.18-5.39a43.54,43.54,0,0,1,1.27-4.36A8.27,8.27,0,0,1,65,52.82a2.62,2.62,0,0,1,3.21-.9,15.64,15.64,0,0,0,2.11.83c.45.11,1.31,0,1.42-.24a24.4,24.4,0,0,0,1.09-3.36c.41-1.45.71-2.94,1.2-4.35a1.48,1.48,0,0,1,2-1,2.2,2.2,0,0,1,1.34,2.3c-.48,2.24-.87,4.51-1.5,6.71A9.4,9.4,0,0,1,74.18,56c-1.38,1.7-2.6,1.74-5,.47-2.11-1.13-2.11-1.13-2.83,1.14-.59,1.86-1.19,3.71-1.74,5.58a2.51,2.51,0,0,0-.08,1.3,4.11,4.11,0,0,1-.68,3.07c-.45.83-1,.77-1.64.2A3.46,3.46,0,0,1,61.23,64.82Z"></path><path d="M30,58.25c-.11,1.07-.23,2.13-.33,3.2-.16,1.59-1.38,2.48-2.37,3.5-.65.67-1.64.32-2-.88s-1.14-2.52-.37-4A4,4,0,0,0,25,57.71a1.45,1.45,0,0,0-1-.9c-1.72-.32-2-.77-1.83-2.51.32-2.67.54-5.35.73-8,0-.37-.36-.76-.55-1.15-.21.37-.6.74-.59,1.1,0,1.51.33,3-.51,4.44-.17.29,0,.78,0,1.17A2.61,2.61,0,0,1,19,54.67a2.67,2.67,0,0,1-2.55-2.52,12.85,12.85,0,0,1,.37-2.1c0-.19.19-.36.21-.55.22-2,.31-4,.68-6a11.06,11.06,0,0,1,1.41-3.71c.61-1,1.6-.8,2.48-.07.37.31,1.23.65,1.35.51.42-.45,1-1.22.83-1.69-.59-2,.37-3.48,1.49-4.89a27.65,27.65,0,0,1,2.51-2.57A1.18,1.18,0,0,0,28,29.35c-.19-.27-.13-.71-.19-1.07l1,.3a6.22,6.22,0,0,0,2,.58c2.28-.2,4.65-.32,6-2.71.14-.26.63-.33,1-.48,0,.36.22.82.07,1.06-.66,1-.41,1.56.69,2.12,1.73.87,3.19,2.42,1.71,5.37-.15.31.06.8.09,1.21a13,13,0,0,1,.12,2.06c-.07.86-.33,1.7-.45,2.56-.2,1.37-.36,2.74-.52,4.11a3.49,3.49,0,0,0,0,1.07,11.08,11.08,0,0,1-.6,5.63,6,6,0,0,1-2.19,2.43,2.28,2.28,0,0,0-1.07,2.32,9.59,9.59,0,0,1-1,5.69,4,4,0,0,1-.41.73c-.52.7-1,1.61-2.08,1.21s-.93-1.36-.84-2.33a42.17,42.17,0,0,0,.12-5.15c0-.36-.57-.71-.88-1.06-.27.36-.72.7-.78,1.09a11.1,11.1,0,0,0,.07,2.15ZM37.16,31.4c-.2-.2-.49-.72-.9-.84-.64-.17-2,1.16-1.72,1.78a1.86,1.86,0,0,0,1.3,1C36.91,33.48,37,32.56,37.16,31.4Zm-6.91,2.16c-.7-.61-1.09-1.24-1.52-1.27a1.11,1.11,0,0,0-1.12,1.46c.08.42.71,1,1.07,1S29.53,34.15,30.25,33.56Z"></path><path d="M41,49.37A16.1,16.1,0,0,1,41,45.2a27.57,27.57,0,0,0,.74-5.7c.07-1.14.31-2.27.32-3.4a3.3,3.3,0,0,1,1.59-2.87,2.08,2.08,0,0,1,2.48.67,2.58,2.58,0,0,1,.6,3,15.34,15.34,0,0,0-.35,3.5c-.1.81-.28,1.6-.43,2.4A3.79,3.79,0,0,0,45.76,44a13.88,13.88,0,0,1-.44,5.66,3,3,0,0,1-2.31,2A2.34,2.34,0,0,1,41,49.37Z"></path></svg>