<svg xmlns="http://www.w3.org/2000/svg" id="Layer_1" data-name="Layer 1" viewBox="0 0 145.59 138.99"><title>AsimovMarketingIcon-bt-omar bahaa</title><path d="M56.61,3.57c3.09-.65,4.23,2,5.75,3.76.92,1.08,1.93,1.61,3.25,1,1.47-.64,3-1.07,4.55-1.57s2.91-.94,4.38-1.39c.33-.1.69-.14,1-.21.68-.15,1.37-.28,2-.46a6.84,6.84,0,0,1,4.72.11,4.24,4.24,0,0,0,1.71.4c4.52,0,9,0,13.56,0,1.21,0,2.39-.19,3.39.68,0,0,.08,0,.11,0,1.91-.37,3.57.75,5.41.87a6.49,6.49,0,0,1,2,.71c2.46,1.07,5,2.08,7.37,3.3a19.48,19.48,0,0,1,4.22,2.86,79.38,79.38,0,0,1,6,6,40.15,40.15,0,0,1,3.19,4.43c1.24,1.84,2.48,3.68,3.6,5.59a24.23,24.23,0,0,1,1.3,3.15,10.52,10.52,0,0,0,.39,1c1.46,2.89,3,5.74,4.37,8.67A32.79,32.79,0,0,1,140,46.16a28.38,28.38,0,0,0,1.42,3.73,2.45,2.45,0,0,1-.34,3.25c-1.47,1.46-3.08,2.81-3.94,4.78a.82.82,0,0,1-.39.43c-2.62,1-4,3.38-6,5.08-2.49,2.16-4.95,4.35-7.36,6.6-2,1.91-3.83,4.12-6,5.86C113,79.49,109.4,84,105,87.55c-2.72,2.18-5.15,4.62-7.73,6.91-2.15,1.89-4.19,3.91-6.38,5.75-1.39,1.17-3,2.12-4.45,3.17l-7.28,5.12c-.68.47-1.4.89-2.08,1.36-1.72,1.2-3.45,2.4-5.15,3.63-1.34,1-2.64,2-4,3s-2.43,1.65-3.65,2.47l-1.27.87c-1.75,1.21-3.49,2.46-5.28,3.63-1.39.91-2.85,1.72-4.27,2.6-.71.44-1.34,1-2.07,1.38-3.74,2-7.46,4.12-11.27,6a53.93,53.93,0,0,1-5.75,2.09c-2,.7-3.93,1.43-5.9,2.11a6.85,6.85,0,0,1-1.28.22c-.4.05-.87,0-1.17.14-2.5,1.55-5.3.91-7.83.62a11.25,11.25,0,0,1-7.93-5c-.74-1.09-.79-2.64-1.18-4-.17-.58-.45-1.14-.58-1.72a3.36,3.36,0,0,1,0-1.34c.15-.69.45-1.35.63-2s.32-1.58.55-2.35a24,24,0,0,1,1.07-3.09c1.14-2.48,2.32-4.94,3.57-7.36a37,37,0,0,1,2.14-3.29c1.38-2.08,2.73-4.18,4.16-6.22.91-1.29,2-2.48,2.93-3.74a.93.93,0,0,0,.18-.74c-.36-1-.82-2-1.2-3-.91-2.39-1.8-4.78-2.71-7.16-.48-1.26-1-2.5-1.48-3.74s-1.38-2.08-1-3.46c.07-.28-.28-.65-.36-1-.17-.71-.32-1.42-.43-2.14-.07-.5.14-1.17-.12-1.49a4.61,4.61,0,0,1-.64-3.19c0-3.8,0-7.6,0-11.4,0,0,0-.09,0-.12,1.09-1.83.26-4.12,1.43-5.93.06-.1.17-.24.14-.32-.46-1.53.78-2.68.88-4.08a2,2,0,0,1,.26-.78c1.5-3,2.92-6.05,4.57-9,1-1.78,2.45-3.31,3.53-5.06,2.58-4.19,6.45-7.17,9.86-10.56a66.23,66.23,0,0,1,7.08-5.57c1.93-1.45,3.93-2.82,5.9-4.21.26-.18.58-.28.83-.47s1-.59.95-.86a1.64,1.64,0,0,0-.77-1.2,4,4,0,0,1-2.26-2.49,3.09,3.09,0,0,1,0-1.88c1-2.88,3.83-3.74,6.16-5.06C54.88,3.29,55.79,3.57,56.61,3.57ZM22.86,67.72h.08c0,.87-.07,1.75-.11,2.63a2.39,2.39,0,0,0,2.62,2.55,5.92,5.92,0,0,1,1.57.35,8.64,8.64,0,0,0,1.46.36,17,17,0,0,0,2.76,0c1.72-.18,3.44-.46,5.15-.7.08,0,.14-.07.22-.1.77-.3,1.53-.63,2.31-.9A18,18,0,0,0,41.83,71c4-2.22,7.92-4.54,11.88-6.81C57.5,62,61.24,59.68,65.1,57.66a40.77,40.77,0,0,1,5.8-2.08,1.08,1.08,0,0,1,.36,0c2.57,0,5.22-.37,7.43,1.48l.11.05A11.84,11.84,0,0,1,84,62.21c1.89,3.71,3.6,7.51,5.31,11.3.53,1.18.81,2.47,1.25,3.69.4,1.07.82,2.14,1.31,3.17.31.66.86.77,1.49.34,1.06-.71,2.11-1.44,3.21-2.08,2.49-1.46,5.42-2.22,7.39-4.54a2.86,2.86,0,0,1,.61-.38c1.46-1,2.94-2,4.38-3s3-2.28,4.53-3.47,2.83-2.3,4.13-3.57a2,2,0,0,0,.35-1.71A38.84,38.84,0,0,0,116,57.33c-1.49-3-3-6.09-4.62-9.07-1.19-2.15-2.57-4.19-3.91-6.25-1.1-1.69-2.18-3.4-3.41-5a60.75,60.75,0,0,0-4.18-4.88c-.72-.76-1.75-1.21-2.54-1.93-2-1.86-3.82-4-6.33-5.42-2.14-1.19-4-2.9-6.17-4a41.07,41.07,0,0,0-8.21-3.26,38.13,38.13,0,0,0-4.81-.89,44.5,44.5,0,0,0-6.22,0,5.38,5.38,0,0,0-1.36.32c-1.58.47-3.15,1-4.73,1.43-.82.24-1.68.38-2.49.63-1,.31-1.93.69-2.89,1.05a36.34,36.34,0,0,0-3.72,1.46,40.11,40.11,0,0,0-4.09,2.44,47.48,47.48,0,0,0-4.9,3.52C39.52,29.18,37.72,31.07,36,33a16.53,16.53,0,0,0-2.57,3.4c-1.62,3.06-4.25,5.53-5.06,9.09a23.65,23.65,0,0,1-2.23,5.22A4.65,4.65,0,0,0,25.45,54c.09.4-.24.89-.35,1.34-.18.75-.34,1.49-.52,2.24s-.32,1.42-.51,2.12c-.08.31-.33.6-.31.89.1,1.36.2,2.69-.8,3.84-.19.21-.09.69-.1,1C22.85,66.21,22.86,67,22.86,67.72ZM135.52,46.77a14,14,0,0,0-.35-1.62c-.43-1.17-.87-2.34-1.37-3.48-1-2.33-1.94-4.72-3.14-7s-2.8-4.43-4.12-6.68a44.19,44.19,0,0,0-5.77-7.21,25.2,25.2,0,0,0-3.55-2.94,22.22,22.22,0,0,0-3.9-2.72c-3.07-1.42-5.93-3.32-9.48-3.66-1.06-.1-2.12-.91-3.35-.73-.16,0-.34-.21-.53-.26A9.65,9.65,0,0,0,97.7,10q-6.65-.06-13.31,0c-1.91,0-3.64,1-5.63,1-.86,0-1.84.72-2.92.5a.92.92,0,0,0-.76.39.88.88,0,0,0,.23.83,9.32,9.32,0,0,0,1.89.82c.68.23,1.4.36,2.1.55.26.07.55.33.76.27,1-.29,1.82.29,2.72.52a34,34,0,0,1,7,2.67,41,41,0,0,1,11.57,7.89c2.42,2.5,4.92,4.92,7.37,7.39a8.09,8.09,0,0,1,.8,1c1,1.47,2.05,2.92,3,4.41,1.22,1.86,2.39,3.74,3.59,5.62.7,1.1,1.41,2.18,2.08,3.3a4.41,4.41,0,0,1,.42,1.08,12.2,12.2,0,0,0,.3,1.26c1,2.48,2.78,4.56,3.25,7.29a1.42,1.42,0,0,0,2.16.92c2.05-1.69,4.12-3.36,6.09-5.14,1.51-1.37,2.91-2.86,4.3-4.35A6.27,6.27,0,0,0,135.52,46.77ZM30.93,100.56c-1.22.12-2.2.25-2.84,1.43s-1.54,2.57-2.37,3.83c-1.72,2.62-3.49,5.21-5.19,7.85-.69,1.08.57,3.57,1.83,3.81.54.11,1,.38,1.58.5s1,.27,1.22.09a3.79,3.79,0,0,1,2.85-.54,3.34,3.34,0,0,0,1.39-.31c1.18-.42,2.34-.89,3.53-1.32.87-.33,1.76-.61,2.65-.92l5.11-1.79c.41-.15.81-.34,1.21-.5l6.39-2.48c.91-.35,1.81-.73,2.74-1,.73-.24,1.5-.34,2.23-.59a25.71,25.71,0,0,1,2.41-1c1.83-.41,3.7-.68,5.54-1,.26,0,.49-.35.74-.36,2.24-.14,4.48-.23,6.71-.33.1,0,.21.12.3.19a3.82,3.82,0,0,0,4.48.16c1.19-.72,2.25-1.63,3.37-2.45,3-2.23,6.08-4.42,9-6.71,1.82-1.41,3.49-3,5.24-4.5l.55-.46c2.57-2,5.16-4,7.69-6.1a20.58,20.58,0,0,0,2.24-2.42,5.75,5.75,0,0,0,.55-.89,3.15,3.15,0,0,0-1.25-.06c-.5.19-.89.66-1.39.91C94.08,86.3,88.66,89,83.21,91.7c-1.59.78-3.28,1.33-4.92,2s-3.19,1.36-4.8,2c-2.08.82-4.16,1.71-6.31,2.35-1.36.41-2.63,1.3-4.19,1-.33-.06-.72.26-1.1.38q-2.4.73-4.83,1.43c-.21.07-.47,0-.71,0-1.41.08-2.88-.39-4.18.58a1.88,1.88,0,0,1-1.05.14,37.65,37.65,0,0,0-3.83,0,6.54,6.54,0,0,0-2.41.77,1.55,1.55,0,0,1-1.75,0,4.89,4.89,0,0,0-2.18-.74c-2.23-.08-4.47,0-6.71,0a2.69,2.69,0,0,1-.93-.14C32.51,101.14,31.73,100.85,30.93,100.56Zm-17.3,27.91.15.08a4.55,4.55,0,0,0,.26,1.74,8.07,8.07,0,0,0,6,3.56c1.42.16,3.14.64,4.45-.7.14-.14.54,0,.8-.06.64-.12,1.27-.26,1.9-.42.42-.1.82-.26,1.24-.37.83-.21,1.69-.36,2.5-.63,1-.31,1.91-.74,2.87-1.08s2.07-.56,3-1c2.27-1.07,4.49-2.24,6.72-3.38,1.21-.62,2.43-1.21,3.58-1.91,1.9-1.14,3.76-2.37,5.63-3.55.27-.17.57-.29.83-.47l6-4.25c1.69-1.18,3.37-2.37,5.08-3.51,1.47-1,3-1.89,4.48-2.87.33-.22.77-.6.77-.91a1.36,1.36,0,0,0-.7-1,3.44,3.44,0,0,0-3.32,0,2.29,2.29,0,0,1-1.43.45c-2.41-.67-4.58.53-6.84.83-1.59.21-3.08,1.19-4.62,1.83-.4.17-.78.39-1.19.54l-5.65,2c-.33.12-.66.28-1,.4-1.6.56-3.21,1.07-4.79,1.67s-3,1.21-4.46,1.83a10.61,10.61,0,0,1-1.85.79c-1.5.32-3.18.21-4.5.85-1.49.72-2.94.57-4.42.7-2.09.19-4.09.11-5.34-2a1.41,1.41,0,0,0-.44-.4c-.54-.34-.95-.29-1.25.35-1,2-2.07,4-3,6.14C14.54,125.3,14.14,126.91,13.63,128.47ZM34.55,86h-.19a14.39,14.39,0,0,0,0,3.35,26.21,26.21,0,0,1,1,5.22A1.6,1.6,0,0,0,37.32,96c1.11-.28.63-1.29.64-2,0-1.78-.48-3.67,1.45-5,1-.71,1.69-.85,2.63,0s1.58,1.58,2.4,2.35a1.89,1.89,0,0,0,2.41.16,1.73,1.73,0,0,0-.33-2.36,3.08,3.08,0,0,1-.27-.24Q43.13,85.39,40,81.78c-.08-.09-.11-.21-.19-.3-.91-1.14-1.76-2.34-2.76-3.4a1.71,1.71,0,0,0-2.56,0,1.92,1.92,0,0,0-.61,2.72,4.71,4.71,0,0,1,.62,1.75C34.62,83.69,34.55,84.86,34.55,86Zm8.53-8.34c-.21-.18-.89-1-1-.89a4.69,4.69,0,0,0-1.85,1.73c-.3.67.42,1.07,1.16,1.1C42.5,79.65,43,79.19,43.08,77.67Z"></path><path d="M127.59,71.65a6.51,6.51,0,0,1,1-1.64c1.61-1.44,3.36-2.74,5-4.2s2.89-3,4.44-4.36a29.17,29.17,0,0,1,4.33-3.28,3.47,3.47,0,0,1,2.38,0,1,1,0,0,1,.58,1.76c-1.36,1.84-2.64,3.75-4.09,5.52a24.15,24.15,0,0,1-3.45,3.48c-2.34,1.88-4.78,3.64-7.22,5.37-.88.62-2.33-.24-2.62-1.47a7.46,7.46,0,0,1-.1-1.07Z"></path><path d="M111.78,0l5.6,2.11A16.14,16.14,0,0,1,121,3.51a27,27,0,0,1,4,3.68A1.91,1.91,0,0,1,125,8.86a3.9,3.9,0,0,1-2.37.2c-1.74-.61-3.37-1.53-5.1-2.2S113.76,5.64,111.91,5a13.29,13.29,0,0,1-2-1,1.83,1.83,0,0,1-1-2.21A2,2,0,0,1,111,.27a5.79,5.79,0,0,1,.72,0Z"></path><path d="M4,128.05c0,1.33-.32,2.69.72,3.95a8.3,8.3,0,0,1,1,2.56A1.2,1.2,0,0,1,5,136.25a2.47,2.47,0,0,1-3.15-1.18c-.53-1.07-1.1-2.13-1.6-3.22A3.53,3.53,0,0,1,0,130.59a9.65,9.65,0,0,0,.06-1.31,5.25,5.25,0,0,1,1-4,8.06,8.06,0,0,1,1.5-1.34,7.74,7.74,0,0,1,1.34,1.86A7.63,7.63,0,0,1,4,128.05Z"></path><path d="M39.7,85.38a6.59,6.59,0,0,1-1,.72,19.33,19.33,0,0,1-1.8-1.82,3.09,3.09,0,0,1,.48-.6C38.12,84.18,38.81,84.71,39.7,85.38Z"></path></svg>