<svg xmlns="http://www.w3.org/2000/svg" id="Layer_1" data-name="Layer 1" viewBox="0 0 86.07 86.86"><title>AsimovMarketingIcon-bt-omar bahaa</title><path d="M74.75,13.35c-.55,2.37-.9,5.09-3.21,7-1.1.91-1.42.91-2.54-.06s-2.42-2.08-3.7-3c-1-.7-1.39-.5-1.71.64-.43,1.5-.89,3-1.18,4.52A1.77,1.77,0,0,0,63,23.9c2.61,1.77,5.27,3.47,7.94,5.15,2.95,1.84,6,3.54,8.84,5.51a8.9,8.9,0,0,1,2.66,3.14A32.81,32.81,0,0,1,85.07,44a36.47,36.47,0,0,1,1,9.17A32.93,32.93,0,0,1,83.79,65.5c-1,2.65-2,5.3-2.93,8A2.1,2.1,0,0,1,78.15,75a4.53,4.53,0,0,0-1.42,0,30.59,30.59,0,0,1-3.41.36c-3.74,0-7.47-.16-11.21-.34-1.89-.09-3.77-.47-5.67-.58s-1.92.13-2.29,1.84c-.63,3-1.34,6-2,9a1.75,1.75,0,0,1-.56,1c-.44.3-1.29.71-1.45.55-.44-.44-1-1.32-.83-1.72,1.45-3.34,1.8-6.95,2.78-10.39.13-.47.27-.93.4-1.39a3.7,3.7,0,0,0-1.84-4.78,13.5,13.5,0,0,0-2.31-1c-.65-.24-1.19-.64-.83-1.29a1.62,1.62,0,0,1,1.4-.68c1.16.37,2.21,1,3.35,1.51a5.51,5.51,0,0,0,2.08.41c.26,0,.69-.59.72-.94a1.55,1.55,0,0,0-.6-1,14.34,14.34,0,0,0-7.91-2.68,1.47,1.47,0,0,0-1.14.62,7.2,7.2,0,0,0-.82,2c-1,3.76-2.09,7.53-3.06,11.32-.45,1.77-.72,3.6-1.13,5.38a2.68,2.68,0,0,1-.7,1.45,1.64,1.64,0,0,1-1.46.14c-.27-.14-.43-.91-.33-1.32.91-3.7,1.9-7.39,2.84-11.09a1.93,1.93,0,0,0-1-2.35c-1.54-.85-3.1-1.67-4.68-2.44-4.8-2.35-9.63-4.64-14.43-7-1.32-.65-2.55-1.49-3.81-2.26a2.16,2.16,0,0,1-1-2.36c.31-2.13,0-2.61-2-3.44-1.32-.56-2.61-1.21-3.89-1.88-.57-.3-1.39-.6-1-1.48a1.43,1.43,0,0,1,1.94-.72c1.28.43,2.51,1,3.77,1.51,2.64,1,5.28,2,7.94,3,.23.09.56-.09.85-.14-.11-.31-.15-.73-.37-.91a5,5,0,0,0-1.29-.62l-6.35-2.45C10.89,46.07,6.46,44.36,2,42.7c-2.06-.77-2.48-2-1.53-4,1.67-3.49,3.19-7,4.82-10.56q3.76-8.09,7.6-16.14a12,12,0,0,1,1.46-2.17c.47-.59,1-.58,1.67-.15q4.18,2.7,8.43,5.27c2,1.2,2,1.13,3.42-.68a20.7,20.7,0,0,1,3.51-3.87,8,8,0,0,1,6.15-1.74,12.3,12.3,0,0,1,4.05,1.95c3.65,2.21,7.27,4.5,10.89,6.77a14.91,14.91,0,0,1,1.44,1.07c1,.82,1.46.74,1.84-.58.69-2.41,1.3-4.85,2-7.28C58.24,8.8,58.79,7,59.31,5.11c.35-1.26.59-2.56,1-3.78.58-1.5,1.52-1.71,2.82-.75,2.82,2.09,5.75,4.07,8.4,6.36A8.56,8.56,0,0,1,74.75,13.35ZM82,46.47c-.64-1.67-1.32-3.48-2-5.29a7.48,7.48,0,0,0-2.82-3.64c-.62-.43-1.32-.74-2-1.15q-6-3.82-12-7.68a3.89,3.89,0,0,0-1-.47c-.8-.25-1.27.05-1.49.89-.58,2.19-1.17,4.38-1.86,6.54a1.51,1.51,0,0,0,.34,1.84,2.23,2.23,0,0,1,.67,3.06c-.18.35-.12.82-.3,1.16a14.2,14.2,0,0,1-2,3.34c-1.69,1.72-3.12,1.43-4.47-.62a3.46,3.46,0,0,1-.4-.73C52.15,42,51.52,40.19,51,38.4A2.47,2.47,0,0,1,51,37.11c1-3.75,2.12-7.45,2.91-11.23.54-2.58.91-2.48-1.41-3.79-.31-.17-.57-.44-.87-.63-1.86-1.16-3.71-2.33-5.6-3.44-.3-.18-.74-.09-1.12-.13a5.34,5.34,0,0,0,0,1.2c.11.54.41,1,.52,1.58a23.4,23.4,0,0,1,.65,3.86c.11,3.46.08,6.93.11,10.4,0,.08-.07.15-.08.23-.09.82-.2,1.64-.26,2.46,0,.43.08.88,0,1.31-.31,2.06-.56,4.14-1,6.17a63.14,63.14,0,0,1-1.85,7.06c-.38,1.13-.23,1.7.77,2.22,5,2.59,10,5.24,15,7.81,5.76,3,11.55,5.84,17.32,8.78a1.33,1.33,0,0,0,1.89-.4,4.88,4.88,0,0,0,.69-1.39c1-3.35,2.14-6.68,3-10.08a22.7,22.7,0,0,0,.58-5.27C82.32,51.46,82.14,49.09,82,46.47Zm-41.62.4c.21-.8-.17-1.21-1-1s-1.53.48-2.29.71c-2.18.66-3.75.14-4.61-1.58a6.56,6.56,0,0,1-.41-1.61c-.23-1.17-.73-1.5-1.73-.92a1.48,1.48,0,0,1-2-.16,19.47,19.47,0,0,1-2.69-3.61C22.3,32,19,25.18,15.61,18.43a4,4,0,0,0-.77-.82c-.29.3-.68.54-.83.89-1.19,2.74-2.28,5.51-3.5,8.23C8.86,30.41,7.1,34,5.41,37.7,4.8,39,5,39.4,6.36,40c2.59,1,5.17,2.12,7.76,3.16,5.51,2.2,11,4.38,16.55,6.59,2.19.87,4.37,1.75,6.51,2.75,1.24.58,2,.42,2.33-.91C39.89,50,40.12,48.43,40.42,46.87Zm0-9.37c1.49-.08,1.8-.36,1.81-1.5a10.29,10.29,0,0,1,.33-2.54c.54-1.9.27-2.9-1.42-3.92C35.54,26.16,30,22.83,24.37,19.47c-1.16-.7-2.28-1.48-3.46-2.15a3.57,3.57,0,0,0-1.21-.2,4.48,4.48,0,0,0,.2,1.18c.37.75.88,1.43,1.25,2.18,2.51,5.05,5,10.11,7.5,15.16,1.47,3,1.46,2.82,4.65,2.31A66.63,66.63,0,0,1,40.39,37.5ZM71.5,13a4.59,4.59,0,0,0-1.89-3.69c-1.88-1.49-3.87-2.83-5.83-4.21-.82-.58-1.4-.27-1.6.72-.34,1.68-.68,3.36-1.09,5-1.31,5.27-2.63,10.54-4,15.79-.49,1.88-1.17,3.71-1.69,5.59a1.42,1.42,0,0,0,.29,1.14c1,1,2,.78,2.49-.56.38-1.13.53-2.32.81-3.48,1.35-5.7,2.72-11.4,4.06-17.11.36-1.53,1.13-1.78,2.34-.82,1.5,1.18,3,2.3,4.62,3.39.87.6,1.43.27,1.49-.79C71.51,13.77,71.5,13.53,71.5,13ZM54.71,41a4.37,4.37,0,0,0,2.89-2.33,3.07,3.07,0,0,0-1.4-2.85,2.1,2.1,0,0,0-2.65.18,2.53,2.53,0,0,0-.85,2.9C53.11,39.86,53.62,40.83,54.71,41ZM33.18,14.87c-.6-.1-1.16-.33-1.28-.18a22.57,22.57,0,0,0-2,2.77c-.12.18.09.74.31.9s.87.19,1,.05C31.83,17.38,32.4,16.29,33.18,14.87Z"></path><path d="M78.86,16.1c-.57,1.31-1.18,2.81-1.91,4.25a1.17,1.17,0,0,1-1.09.39,1.43,1.43,0,0,1-.63-1.14q.54-2.55,1.32-5.06a1,1,0,0,1,1.75-.08A8.2,8.2,0,0,1,78.86,16.1Z"></path><path d="M56.35,48.92c.18-.23.43-.81.86-1a30.41,30.41,0,0,1,4.24-1.58,1.56,1.56,0,0,1,1.26.77,1.54,1.54,0,0,1-.28,1.45A14.75,14.75,0,0,1,59.72,50a16.5,16.5,0,0,1-1.6.49C57.19,50.83,56.37,50.25,56.35,48.92Z"></path></svg>