<svg xmlns="http://www.w3.org/2000/svg" id="Layer_1" data-name="Layer 1" viewBox="0 0 86.59 86.93"><title>AsimovMarketingIcon-bt-omar bahaa</title><path d="M.09,49.8c0-7.24.12-14.48-.08-21.71C0,26,.51,24.73,2.3,23.81c2.13-1.1,4.16-2.38,6.3-3.47,1.65-.84,2.16-2.46,3-3.87,2.23-3.59,4.56-7.12,6.89-10.64.39-.59,1-1.23,1.78-.51s.4,1.28-.09,1.92a51.43,51.43,0,0,0-7,12c-1.28,3.18-2.67,6.43-2.5,10,0,.46.53.9.81,1.35.46-.35,1.25-.64,1.35-1.08a65.83,65.83,0,0,1,5.32-14C21.87,8,28,3.5,35.68.93c3.71-1.25,7.73-1.48,11.18.83,3,2,6.08,3.83,8.08,7a3.15,3.15,0,0,0,1.25,1.06c2.22,1.09,4.47,2.13,6.72,3.16,1.4.64,2.12.35,3.08-.84,1.4-1.73,2.9-3.39,4.37-5.08,1.22-1.41,2.46-2.82,3.69-4.23.54-.62,1.17-1.13,1.94-.43s.25,1.34-.29,2q-4,4.39-7.89,8.83c-.71.79-.59,1.46.39,1.89,2.52,1.11,5.06,2.17,7.6,3.25,2.87,1.21,5.74,2.4,8.6,3.63a2.12,2.12,0,0,1,1.21,2.17q-.08,6.54-.16,13.08a1.89,1.89,0,0,0,.07.83c.92,1.69.52,3.52.52,5.29,0,5.52-.5,11.09.08,16.55.7,6.51.12,13,.42,19.48,0,.8,0,1.6,0,2.4.12,2.32-1.38,3.56-3.65,3a36.06,36.06,0,0,0-10.25-1A9.22,9.22,0,0,1,71,83.63c-.83-.11-1.64-.25-2.46-.35-1.25-.16-2.5-.33-3.75-.45-2.4-.23-4.8-.46-7.21-.61a2,2,0,0,0-1.12.55,7.76,7.76,0,0,1-5.82,2,13.9,13.9,0,0,0-3,.42c-.23,0-.45.18-.69.2-2.66.29-5.36.4-8,.89-5.28,1-10.6.49-15.87.37a13.7,13.7,0,0,1-9.36-4.38,4.18,4.18,0,0,1-1-2.56c-.06-1.35-.25-1.82-1.63-1.92-1-.07-1.92,0-2.87,0s-1.8-.26-2.71-.33a17.23,17.23,0,0,0-2.49,0A3.1,3.1,0,0,1,0,74.75c.05-3.43.13-6.87.15-10.31,0-4.88,0-9.76,0-14.64Zm2.63,2.72q0,9.84,0,19.67c0,.88.25,1.72,1.18,1.84,2,.27,4.1.37,6.16.53.35,0,.77-.1,1,0,1.56.83,3.21.49,4.83.51a19.39,19.39,0,0,1,2,.14c1.06.1,2.11.23,3.17.34.35,0,.71,0,1.07.08l3.88.38c.55.06,1.11.07,1.66.11,1.46.12,2.92.26,4.37.37.44,0,.88,0,1.31,0,1.42.13,2.84.29,4.25.44.48,0,.95.09,1.42.15,1.17.16,2.33.35,3.5.49.44.06.88,0,1.32,0,3.11.28,6.22.59,9.33.86.71.07,1.43,0,2.14.07,2.46.31,4.92.68,7.38,1a7.85,7.85,0,0,0,1-.06,2.49,2.49,0,0,1,1,.06c2.74,1.07,5.68.17,8.47.91a19.59,19.59,0,0,0,3.69.14c1,.07,2,.24,3,.37a13.15,13.15,0,0,1,2.09.3c1.09.32,1.5.08,1.49-1.07,0-1.48,0-3,0-4.43-.25-4.92.11-9.83-.47-14.78-.61-5.21-.08-10.54-.09-15.82,0-1.77.37-3.6-.5-5.3a1.89,1.89,0,0,1-.06-.83c0-3.8.09-7.59.13-11.39,0-1.11-.39-1.39-1.4-1a8.59,8.59,0,0,0-.87.4q-8.41,4.05-16.82,8.09-6.27,3-12.56,5.95c-5.5,2.57-11,5.1-16.53,7.64-1,.48-1.22,1-.44,1.65,1.84,1.52,3.71,3,5.57,4.54q4.27,3.45,8.56,6.92a1.33,1.33,0,0,1,.49,1.78c-.76,1.55-2,1.72-3.26.61-2.06-1.76-4.2-3.43-6.3-5.14-1.08-.88-2.14-1.79-3.24-2.65-1.92-1.5-3.87-2.95-5.78-4.46-4-3.19-8.06-6.41-12.1-9.6q-6.57-5.19-13.2-10.33a1.55,1.55,0,0,0-1.27-.32c-.3.13-.52.76-.52,1.17C2.72,39.49,2.73,46,2.72,52.52ZM52,15.73l.32-.05c-.27-1.59-.44-3.21-.83-4.77A9.32,9.32,0,0,0,42.91,4a3.44,3.44,0,0,0-.91.25c-.38.11-.76.23-1.15.31a17.3,17.3,0,0,0-6.62,2.29c-1.87,1.3-3.71,2.63-5.59,3.9-3.44,2.33-5.61,5.74-7.89,9.06A34.11,34.11,0,0,0,17,28.33a19.72,19.72,0,0,0-.82,6.73A2.19,2.19,0,0,0,17,36.42c1.1,1,2.31,1.85,3.43,2.81,2.39,2.06,4.74,4.16,7.13,6.21a3.17,3.17,0,0,0,3.32.67,19.52,19.52,0,0,0,6-3.44c.6-.47,1.08-.72,1.78-.11a1.66,1.66,0,0,0,1.29.09,4.57,4.57,0,0,0,1.49-.76,6.36,6.36,0,0,0,.87-1c-.44-.14-.92-.45-1.33-.38a3.59,3.59,0,0,1-3-.42,5.31,5.31,0,0,1-2.45-3.27c-.07-.41-.48-1-.77-1s-.87.38-1.24.68c-1.18.92-2.27,2-3.52,2.8a12.1,12.1,0,0,1-2.5.72c-2.23.8-5.3-.56-5.95-2.87-.53-1.89-1.56-3.73-.61-5.87.68-1.54.8-3.34,1.56-4.83a34.17,34.17,0,0,1,4.29-7c2.73-3.14,5.56-6.28,9.74-7.73,2.92-1,4.71-.85,6.28,1.66.11.17.19.35.3.52.66,1,1.34,1,2-.05a7.36,7.36,0,0,1,.75-1.22c.39-.41.93-1,1.34-1s.87.71,1.14,1.2c1.16,2.17.45,4.31-.49,6.26a55.94,55.94,0,0,1-4.05,7.05,37.74,37.74,0,0,0-4.16,9.12c-.33,1-.55,2.08.4,2.89a2.42,2.42,0,0,0,3.07-.52A19.59,19.59,0,0,0,46.36,34c1.36-2.15,2.33-4.53,3.62-6.73,1.47-2.52,1.44-5.4,2.21-8.09a1.56,1.56,0,0,0,0-.48ZM25.61,35.56c0,1.72,1.57,2.85,3.61,1.66a8,8,0,0,0,2.35-1.81,104.46,104.46,0,0,0,6.26-8.73,25.48,25.48,0,0,0,3.65-8.89c.22-1.25.17-2.07-.75-2.83s-1.72-.16-2.46.39a34,34,0,0,0-9.74,10.88C27,28.85,25.51,31.5,25.61,35.56ZM66.07,22V22c2.08,0,4.16,0,6.23,0,.39,0,.76-.44,1.14-.67-.29-.34-.51-.83-.88-1-2.16-.94-4.35-1.78-6.52-2.7a1.55,1.55,0,0,0-2.23.68,3.55,3.55,0,0,1-1.2,1.29,1.71,1.71,0,0,1-1.39-.11c-.17-.1,0-.82.05-1.24.06-.25.32-.45.49-.67.85-1.13.76-1.5-.51-2-.84-.36-1.69-.72-2.55-1-.53-.2-1.08-.34-1.62-.51a14.12,14.12,0,0,0-.22,1.7c-.09,2.41.45,4.86-.58,7.22-.71,1.6-1.31,3.26-1.86,4.93a4.26,4.26,0,0,0,.13,1.52A10,10,0,0,0,56,28.81a1.61,1.61,0,0,0,.6-.73c.75-1.58,1.52-3.15,2.17-4.78.33-.83.66-1.38,1.67-1.35C62.31,22,64.19,22,66.07,22Z"></path><path d="M53.69,52.81c-.28-.22-.8-.44-1-.83-.13-.23.14-.81.4-1.08a24,24,0,0,1,2.64-2.4,1.45,1.45,0,0,1,1.34-.08,1.27,1.27,0,0,1,.31,1.21c-.93,1.06-2,2-3,3C54.27,52.72,54.06,52.71,53.69,52.81Z"></path></svg>