<svg xmlns="http://www.w3.org/2000/svg" id="Layer_1" data-name="Layer 1" viewBox="0 0 97.24 147.79"><title>AsimovMarketingIcon-bt-omar bahaa</title><path d="M39.62,19.83q0,7,0,13.92c0,.31,0,.72.16.91.9,1,.75,2.13.62,3.3a1.91,1.91,0,0,0,.15,1.27,3.92,3.92,0,0,1,.62,3.07,3.75,3.75,0,0,0,.63,3.17,1.11,1.11,0,0,1,.18.8c-.38,2.3.6,4.25,1.43,6.27.43,1.07.41,2.31.8,3.4.71,2,.83,4.05,1.87,6A34.57,34.57,0,0,1,48,67.53a14.57,14.57,0,0,0,1,2.52,1.24,1.24,0,0,0,1.18.33c.28-.14.57-1,.46-1.11-1.85-1.67-.23-3.24.23-4.68,1.08-3.35,2.37-6.65,3.76-9.89,1.16-2.67,2.61-5.21,3.87-7.85a5.34,5.34,0,0,0,.55-2.14c0-3-.2-6,0-9a5,5,0,0,1,2.68-4.17A10.44,10.44,0,0,1,67.84,30a4.74,4.74,0,0,0,1.55,0c2.3-.57,4.14.58,6,1.59A4.39,4.39,0,0,1,77,33.23a11.34,11.34,0,0,1,1.71,6.18c-.1,1.6-.07,3.2,0,4.8a3.5,3.5,0,0,0,.45,1.69c.94,1.52,2,3,3,4.45a1.91,1.91,0,0,1,.29.52c1.26,4.47,4,8.26,5.83,12.44.2.43.29.9.48,1.33s.54,1,.79,1.52a4.71,4.71,0,0,1,.72,1.66c0,3.68-.07,7.36-.07,11q0,16,0,32v.84c0,2.12,0,2,2.06,2.37a10.75,10.75,0,0,1,3.15,1.06,3.56,3.56,0,0,1,.73,5.67,19.86,19.86,0,0,1-7.3,3.9c-.88.27-1.73.59-2.6.86-1.45.46-2.9.93-4.36,1.34a10.87,10.87,0,0,1-1.29.1,7.66,7.66,0,0,0-1.92.43,4.17,4.17,0,0,1-3.57,0,5.29,5.29,0,0,0-1.9-.49c-1.44,0-2.88.06-4.32.08a1.66,1.66,0,0,1-.92-.18,3.75,3.75,0,0,0-3.19-.61.79.79,0,0,1-.58-.09c-1.47-1.07-3.16-.6-4.76-.71a2.18,2.18,0,0,0-2.17,1.41c-.17.35-.12,1.16.1,1.28a18.73,18.73,0,0,0,2.9,1.27,10.4,10.4,0,0,0,1.66.44c.56.11,1.14.15,1.7.25.36.07.71.19,1.07.29a3,3,0,0,1-.41.92,66.9,66.9,0,0,1-5.67,5.51,17.11,17.11,0,0,1-6.07,3.42c-2.3.64-4.39,2.07-6.56,3.17-1.43.71-2.81,1.57-4.29,2.14-1.78.68-3.54,1.62-5.58,1.34A2,2,0,0,0,35,147c-2.56,1.43-5.33.34-8,.7-.27,0-.58-.23-.86-.37s-.68-.52-.95-.47c-1.58.33-2.94-.44-4.37-.81a16.76,16.76,0,0,1-1.65-.67c-5.18-2-8.77-6-12.5-9.83a1.2,1.2,0,0,1-.29-.38c-.57-1.55-1.15-3.1-1.68-4.67s-1-3.16-1.44-4.76c-.13-.49.07-1.09-.13-1.53-.62-1.34-.51-2.84-.89-4.15a11,11,0,0,1-.5-3.93,1.32,1.32,0,0,0-.13-.81c-1.2-1.25-.72-2.76-.75-4.21a8.66,8.66,0,0,0-.5-1.89A5.51,5.51,0,0,1,0,107.89C0,102,0,96.14,0,90.27c0-.32-.07-.73.09-.93,1-1.24.59-2.66.67-4a9.6,9.6,0,0,1,.55-2.12c.1-.34.42-.69.37-1-.39-2,.93-3.64,1.24-5.46C3.58,73,5.38,69.57,6.19,65.86a53.31,53.31,0,0,1,2-5.6c.66-1.94,1.24-3.91,1.87-5.87q.73-2.27,1.48-4.53s0-.07.05-.11c.23-1.84.44-3.69.71-5.53.11-.79.33-1.57.52-2.35,0-.19.25-.37.24-.54-.22-2.66,1.38-5.08.92-7.8a8,8,0,0,1,.55-2.7,4.16,4.16,0,0,0,.2-1c0-3.35,0-6.71-.06-10.07a1.26,1.26,0,0,0,0-.59c-1.43-2.39-.47-5-.71-7.49a19.57,19.57,0,0,1,0-3.59,6,6,0,0,1,3.56-4.92c2.16-1,4.63-1.43,6.8-2.44C26.72-.46,29.28.22,31.78,0,33-.06,34.34.91,35.54,1.54c.84.44,1.52,1.16,2.31,1.68a3.63,3.63,0,0,1,1.91,3.53c-.17,4.35-.06,8.72-.06,13.08Zm-12,58h0a14.64,14.64,0,0,0-.06-3.69,26.78,26.78,0,0,0-2-4.59,3.81,3.81,0,0,0-3.82-2.34,21.34,21.34,0,0,1-2.4,0A4.81,4.81,0,0,0,16,68.44a8.79,8.79,0,0,1-1.36.72c0-.56-.1-1.13-.08-1.69a1.61,1.61,0,0,1,.28-.65,14.72,14.72,0,0,0,2-6.26c0-.26.23-.5.31-.77a8.1,8.1,0,0,0,.51-2c0-1.59,1.36-2.61,2.61-1.74,1.91,1.35,4,1.29,6.15,1.42C29,57.65,31,56.62,33,55.36c.64-.4,1.71-.94,1.19-1.78s-1.46-.09-2.19.26c-1,.46-2,1.23-2.94,1.18-2-.11-3.94.24-6-.61a12.4,12.4,0,0,1-4.64-2.72,2.23,2.23,0,0,0-3.71.51c-1,2.11-1.81,4.29-2.57,6.49C10.83,62.5,9.5,66.31,8.37,70.18a25.74,25.74,0,0,0-.92,4.1c-.21,1.62-.64,3.31-1,5C6.32,80,6.1,80.82,6,81.61c-.29,1.74-1,3.4-1,5.22,0,.9-.55,1.81-.54,2.71,0,1.24.23,2.44-.66,3.53a2,2,0,0,0-.17,1.15c0,5.16,0,10.32,0,15.48a4.76,4.76,0,0,0,.68,3.3c.26.33.15,1,.13,1.49,0,1.3-.38,2.63.62,3.78a1.06,1.06,0,0,1,.15.91c-.85,2.07.84,3.75.84,5.74,0,1.29,1.06,2.58,1.63,3.88a6.06,6.06,0,0,1,.51,1.34,6.7,6.7,0,0,0,2.35,4.18A38.7,38.7,0,0,0,14,137a13.8,13.8,0,0,0,3.06,1.5c1.17.41,2.5.43,3.61.95s2.28.41,3.25.75a6.88,6.88,0,0,0,4.14,0c1.64-.34,3.37.05,5.08-.76,2.53-1.2,5.21-2.09,7.85-3a1.77,1.77,0,0,1,1.39.17,1,1,0,0,0,1.62-.22,7.89,7.89,0,0,0,1.06-1.43c.63-1.44,1.18-2.92,1.72-4.39a16.17,16.17,0,0,0,.81-2.59c.33-1.83,1.07-3.61.68-5.53,0-.09.07-.23.15-.32.78-.87.65-1.9.62-3a7.4,7.4,0,0,1,.34-2c.15-.63.42-1.25.51-1.89.3-2.21-.68-4.55.71-6.66a1.45,1.45,0,0,0,.06-.7q0-6.12,0-12.24c0-.39.06-.91-.15-1.15a3.67,3.67,0,0,1-.57-2.85c0-1.27.19-2.56-.78-3.62a1,1,0,0,1-.17-.69,10.69,10.69,0,0,0-.71-5.47c-.4-1.09-.48-2.29-.81-3.42-.46-1.51-1.05-3-1.51-4.5s-1.62-1.84-2.59-.87q-6.26,6.28-12.5,12.6c-.92.94-2.33.73-2.3-.49.06-1.91-.91-3.56-.88-5.41C27.65,79.15,27.64,78.47,27.64,77.79ZM17.92,32.36l.24,0c0,.36,0,.72,0,1.08-.07,2.32.07,2.58,2.22,3.52,1.25.55,2.57,1,3.82,1.53a6.74,6.74,0,0,0,5.82,0,11.08,11.08,0,0,1,3.38-1,2.94,2.94,0,0,0,2.38-4.71,5,5,0,0,1-.53-2c-.08-.74.07-1.51,0-2.27,0-1.17-1.08-1.83-2-1.11C31.39,29,29.21,28.82,27,28.9a9.11,9.11,0,0,1-5-1.18c-.59-.33-1.13-.75-1.71-1.09s-1.13-.24-1.29.49C18.58,28.86,18.27,30.61,17.92,32.36ZM87.44,94.07a17.65,17.65,0,0,0,0-2.52,5.39,5.39,0,0,0-.72-1.44,7.33,7.33,0,0,0-1.4.87c-.3.29-.33.91-.65,1.12a2.07,2.07,0,0,1-1.52.36c-.7-.26-.47-.87-.1-1.39a4.18,4.18,0,0,0,.54-1c.55-1.74,1-3.54,1.64-5.23A14.45,14.45,0,0,1,87,82.36a2.57,2.57,0,0,0,.48-1.13c.07-.67,0-1.36,0-2,0-.92-.46-1.28-1.34-1.29-1.63,0-3.24,0-4.67,1a16.73,16.73,0,0,1-2.35,1.2c-.31.16-.79.28-.88.53-.57,1.57-2.12,2.8-1.7,4.73a1,1,0,0,1-.2.67,4.16,4.16,0,0,0,0,4.62c.61,1.08,1.06,2.25,1.7,3.3a5,5,0,0,0,1.57,1.7,22,22,0,0,0,4.17,2.09,7.36,7.36,0,0,0,3,.15c.27,0,.61-.77.66-1.21A20.94,20.94,0,0,0,87.44,94.07ZM67.93,90.22h0v15.71c0,2.16.62,2.79,2.74,2.85a31.08,31.08,0,0,1,3.19.22c.92.12,1.82.46,2.74.55a12,12,0,0,0,6-.9c1.44-.64,3-1.06,4.39-1.77a3.27,3.27,0,0,0,1.17-1.65,1.25,1.25,0,0,0-.41-1.13c-.25-.17-.82,0-1.17.14-.76.36-1.43.9-2.19,1.24a14.58,14.58,0,0,1-4.19,1.58,67.34,67.34,0,0,1-7.78,0c-1.94,0-2.78-1-2.66-2.9,0-.32,0-.64,0-1q0-13.9,0-27.82a1.71,1.71,0,0,1,1.86-1.87c4-.15,8,.71,12.08-.63,1.16-.39,2.37-.75,3.51-1.25.7-.31,1.26-.9.83-1.71s-1.19-.63-1.9-.32c-1.66.73-3.25,1.65-5.16,1.59-.29,0-.58.23-.89.31a6.51,6.51,0,0,1-1.6.33c-2.52,0-5,0-7.55,0-1.57,0-3,1.2-3,2.37ZM72.48,51.5a8.11,8.11,0,0,0,.38,1.72c1.63,3.55,3.34,7.06,5,10.61.7,1.51,1.28,3.07,1.86,4.63.42,1.15,2.64,1.78,3.44.8.54-.66,1.62-1.25,1.07-2.43-1.11-2.42-2.25-4.83-3.36-7.25-1.37-3-2.73-6-4.11-9a2.38,2.38,0,0,0-2.34-1.53C73.32,49.12,72.59,50.25,72.48,51.5ZM69,38V38c-1.4,0-2.79,0-4.19,0-1,0-1.46.42-1.42,1.45,0,1.19,0,2.39,0,3.58,0,1,.44,1.47,1.36,1.4,2.19-.17,4.36.25,6.58-.64,2.67-1.07,3.25-2.28,3.09-4.45C74.3,38.41,73.94,38,73,38,71.69,38,70.33,38,69,38Zm17.58,76.61a3.4,3.4,0,0,0-.79.22c-1.17.68-2.29,1.46-3.51,2A15.39,15.39,0,0,1,79,118a48.24,48.24,0,0,1-6.78,1.3c-2.53.21-5.1,0-7.66,0a12.11,12.11,0,0,1-5.52-1.55,10.64,10.64,0,0,0-1.15-.62.84.84,0,0,0-.75.07.75.75,0,0,0,0,.74,5.08,5.08,0,0,0,1.54,1.43,23.86,23.86,0,0,0,3.25,1c1.86.51,3.71,1.15,5.6,1.49,3,.55,5.84-.7,8.76-1,.08,0,.14-.09.21-.11.68-.14,1.35-.29,2-.42A15,15,0,0,0,80,120c.68-.18,1.32-.5,2-.67A6.53,6.53,0,0,0,86.56,114.64ZM35.88,64.69a2.37,2.37,0,0,0,1.86,2.8c.72.06,2.66-1.45,2.69-2.11a1.54,1.54,0,0,0-.11-.46c-.39-1.27-.7-2.56-1.18-3.79a39.64,39.64,0,0,0-2-4.57c-.65-1.19-1.64-1.28-2.73-.48A2.3,2.3,0,0,0,33.63,59c.66,1.65,1.41,3.26,2.09,4.91A2.93,2.93,0,0,1,35.88,64.69ZM16.45,44.31l.2.06a2.57,2.57,0,0,0,0,.48c.06.53.15,1,.22,1.58a10.59,10.59,0,0,0,1.49-.55c2.48-1.28,4.94-2.58,7.88-2a1,1,0,0,0,.59-.05c.22-.12.51-.32.53-.52a.8.8,0,0,0-.36-.66,8.86,8.86,0,0,0-2.85-.75A5.43,5.43,0,0,1,21.08,41a15.12,15.12,0,0,0-2.2-1.19c-.36-.14-1.19,0-1.26.22C17.15,41.45,16.82,42.89,16.45,44.31ZM33.84,16.63h0c0-.88,0-1.77,0-2.64a2.21,2.21,0,0,0-1.74-2c-1-.28-1.3.45-1.69,1.15-1.13,2-.77,4.27-.42,6.3.42,2.38,2.08,2.79,3.4,1.17a2.8,2.8,0,0,0,.47-1.43C33.89,18.31,33.84,17.46,33.84,16.63Zm-3,27,.06-.21a19.75,19.75,0,0,1,2.44.76c1,.45,1.84,1.1,2.81,1.55a1.6,1.6,0,0,0,1.27,0c.18-.1.23-.9,0-1.13a3.11,3.11,0,0,1-.67-2.54c.08-1-.82-1.75-1.56-1.45-1.76.7-3.48,1.5-5.47,1.17-.26,0-.89.52-.85.7a2,2,0,0,0,.76,1.14C30,43.82,30.46,43.67,30.86,43.67Zm-5.73-39c2.39.32,4.54-.54,6.69-1.38.54-.22,1.27-.44.93-1.24s-1-.63-1.64-.42a5.32,5.32,0,0,1-1.95.35,20.08,20.08,0,0,0-6.67.92c-.43.11-.72.72-1.08,1.1a3.73,3.73,0,0,0,1.21.64A21,21,0,0,0,25.13,4.63Zm41.15,28v0a7.18,7.18,0,0,0-2.37.06,4.84,4.84,0,0,0-2.13,1.58c-.33.43.9,1.72,1.79,1.72,1.91,0,3.95.48,5.58-1a2.09,2.09,0,0,0,.61-1.57c0-.31-.76-.7-1.22-.79A13.1,13.1,0,0,0,66.28,32.65Z"></path><path d="M55.05,147.76c-.8,0-1.6,0-2.39,0-1.46,0-2.29-1-2.17-2.68.1-1.32,1-1.94,2.38-1.92a11.4,11.4,0,0,0,2.47-.5c.3-.07.62-.32.89-.27,1.31.25,2.28-.53,3.36-1,2.57-1.17,5.12-2.37,7.72-3.46,1-.42,1.65.32,2.19,1.05s.24,1.25-.29,1.8A15.29,15.29,0,0,1,64,144.84c-1.92.79-3.69,2-5.63,2.72A10.86,10.86,0,0,1,55.05,147.76Z"></path><path d="M23.73,121.84c1.8,0,3.6-.06,5.4,0a7.32,7.32,0,0,1,2.17.56c1.85.7,3.7,1.4,5.51,2.2,1,.44,1.54.19,1.54-.93,0-.64-.08-1.28-.09-1.91,0-1.26-.27-2.55.69-3.65a1.49,1.49,0,0,0,.19-1.15c-.38-2.18.77-4,1.44-5.89.38-1.07,1.17-1.06,2.05-.89A1.81,1.81,0,0,1,44.28,112c.06,2.83,0,5.67.06,8.5a.81.81,0,0,1-.07.47c-1.28,1.87-.43,4-.66,5.92a21.15,21.15,0,0,1-1.29,4.05c-.07.22-.32.43-.3.63.14,1.69-.86,1.73-2.06,1.47-1.49-.32-2.62.53-3.8,1.16s-2.46,1.51-4,1.27c-.27,0-.59.21-.88.34s-.4.3-.63.34c-1.72.3-3.44.64-5.18.81-.61.06-1.25-.38-1.9-.5s-1.48-.15-2.21-.28a13.45,13.45,0,0,1-2.84-.63,29.47,29.47,0,0,1-4.58-2.34,8.58,8.58,0,0,1-2.53-2.56A16.45,16.45,0,0,1,10,126.89c-.29-1,.07-1.52,1-2.24,1.91-1.55,4.28-1.76,6.38-2.71a5.58,5.58,0,0,1,2.13-.06h4.31Z"></path><path d="M6.88,103a42.15,42.15,0,0,1,0-5,23.09,23.09,0,0,1,1.12-3.82c.16-.56.27-1.12.39-1.68.42-1.9.87-3.79,2.52-5.07a.92.92,0,0,1,.76-.1,4.7,4.7,0,0,1,2,3.06c0,1.52-.36,3.06.6,4.53.34.53.05,1.47,0,2.23,0,.28-.14.57-.08.83.42,1.84.88,3.67,1.33,5.5,0,.15.18.28.2.43.27,1.88.6,3.77.75,5.66a4,4,0,0,0,.68,2.58,2.19,2.19,0,0,1,.29,1.34c0,1.64-.07,3.28,0,4.91,0,.89,0,1.64-1,1.8a1.73,1.73,0,0,1-1.87-1.63c.13-2-.86-3.8-.8-5.88.08-2.73-2.52-4-5.09-3-1.19.47-1.85,0-1.86-1.27,0-1.8,0-3.6,0-5.39Zm4.71-.87h-.11a17.08,17.08,0,0,0,.26-2.24c0-.37-.3-.73-.46-1.1-.3.21-.77.34-.89.62a19,19,0,0,0-1.19,3.47c-.18.84.54,1.28,1.33,1.35s1.05-.44,1.06-1.13C11.6,102.74,11.59,102.42,11.59,102.1Z"></path><path d="M17.38,95a9.2,9.2,0,0,1,1.07-2.07c.19-.23,1.11-.16,1.43.1a2.38,2.38,0,0,1-.31,3.8,1.7,1.7,0,0,1-1.42.18c-.32-.17-.4-.83-.53-1.28a2.07,2.07,0,0,1,0-.6Z"></path></svg>