<svg xmlns="http://www.w3.org/2000/svg" id="Layer_1" data-name="Layer 1" viewBox="0 0 138.06 147.3"><title>AsimovMarketingIcon-bt-omar bahaa</title><path d="M25.15,31.35H32.7a2,2,0,0,1,.6,0c1.45.44,2.9.89,4.35,1.36a20.34,20.34,0,0,1,2.91,1,3.82,3.82,0,0,1,2.07,3.62c0,1,.2,1.53,1.12,1.81a3.29,3.29,0,0,1,2.34,2c.25.66.8,1.07,1.52.52s1.14-1.12.38-1.89A1.16,1.16,0,0,1,47.93,38a2.39,2.39,0,0,0,.44-1.42c0-1.28-.06-2.56-.08-3.84,0-.31,0-.72.12-.93.93-1.11.79-2.36.57-3.64a1.81,1.81,0,0,1,.17-.93c.46-1.13,1-2.22,1.4-3.38a12.35,12.35,0,0,0,.07-2.12,17.85,17.85,0,0,1,.46-2,7.08,7.08,0,0,0,.41-1.58c0-1.4-.06-2.8,0-4.2a4.79,4.79,0,0,0-.65-3,4.18,4.18,0,0,1-.23-2c-.07-3.86,2.9-7.11,6.3-8.31C59.45-.22,62,0,64.56.07a8.82,8.82,0,0,1,4.62,1.68A14.09,14.09,0,0,1,72.8,5.81a5.61,5.61,0,0,1,0,5.73,1.24,1.24,0,0,0-.17.32c-.29,2.32-.64,4.63-.83,7a2,2,0,0,0,1.67,1.91,2.12,2.12,0,0,0,1.7-1.92,1.94,1.94,0,0,0,0-.72c-.65-2.11.56-3.44,2.05-4.53a8.17,8.17,0,0,1,2.41-.9c1.35-.41,2.72-.78,4.08-1.15.27-.08.62,0,.81-.18,1.35-1.1,2.9-.56,4.38-.64a22.54,22.54,0,0,0,2.54-.45A11,11,0,0,1,92.78,10c.88,0,1.76,0,2.63,0a6.64,6.64,0,0,1,1.18.11,26,26,0,0,0,3.36.59c1.33.06,2.6-.12,3.91.61a13.43,13.43,0,0,0,3.64.94c1.17.27,2.36.47,3.53.77a5.18,5.18,0,0,1,3.69,3.72,1.77,1.77,0,0,1-.45,1.36,1.37,1.37,0,0,0-.11,1.71A14.23,14.23,0,0,0,118,25.08a.75.75,0,0,1,.3.37,31.07,31.07,0,0,1,1,4.52c.19,1.94.06,3.92.07,5.88,0,.27.07.62-.07.82-1.71,2.45-.55,5.2-.85,7.79a21.46,21.46,0,0,1-.52,2.35,5.43,5.43,0,0,0-.26,1.15c0,4.44.07,8.88.1,13.32,0,.31,0,.73-.12.93-.89,1-.72,2.2-.7,3.4.08,4.92.11,9.84.14,14.75a1.51,1.51,0,0,1-.19.92c-.87,1.07-.73,2.29-.7,3.54.07,3.16.08,6.31.11,9.47,0,.24,0,.56-.1.7-1.19,1.29-.76,2.86-.8,4.34,0,1.64-.11,3.29,0,4.92a3.08,3.08,0,0,0,.82,1.84c.21.21,1-.22,1.56-.3s1.21-.27,1.56,0c1.27.87,2.64.74,4,.76a11,11,0,0,1,2.36.52c1.22.31,2.42.68,3.65,1a12.48,12.48,0,0,1,8,5.45,5.25,5.25,0,0,1-1.43,6.8c-1.61,1-3.27,2-4.93,2.91a5.27,5.27,0,0,1-3,.88,7.81,7.81,0,0,0-2.59.74c-1.41.46-2.81.95-4.22,1.39a4.7,4.7,0,0,1-1.06.1c-.39,0-.92-.06-1.15.15a3.32,3.32,0,0,1-3.06.59c-1.83-.35-3.28.84-4.94,1.17a1.09,1.09,0,0,0-.65,1.8,3.56,3.56,0,0,1-.93,4.36,24.16,24.16,0,0,1-3.59,2.12c-1.45.6-3.09.73-4.51,1.38-1.85.84-3.85.15-5.59.74a12.65,12.65,0,0,1-4.37.66A2.37,2.37,0,0,0,90,140c-.75.66-1.35,1.5-2.13,2.11a33,33,0,0,1-5.14,3.63,8.28,8.28,0,0,1-5,1.21,3.93,3.93,0,0,0-1.65.22c-1.24.37-2,.16-2.45-.73a2.26,2.26,0,0,1,.88-2.92,16.48,16.48,0,0,1,4.09-1.58,8.39,8.39,0,0,0,3.72-2,21.43,21.43,0,0,0,4.78-4.82,8.39,8.39,0,0,0,1.65-5.93,2.07,2.07,0,0,1,.56-1.26,1.19,1.19,0,0,0,0-1.71,5.25,5.25,0,0,1-.77-1.34c-.39-.88-1-1-1.73-.51-1.18.77-2.46,1.44-2,3.26.08.31-.26.72-.42,1.08s-.4.61-.35.87c.42,2-.81,3.54-1.8,4.91-2,2.78-4.53,5-8.1,5.72-1.49.29-2.92.87-4.38,1.29a3.92,3.92,0,0,1-1.17.15,6,6,0,0,0-3.34.56,3.65,3.65,0,0,1-2.88,0,8.07,8.07,0,0,0-3.6-.58,11.79,11.79,0,0,1-2.38-.52c-.23-.05-.44-.27-.66-.27-3.16,0-5.81-1.52-8.37-3s-5.06-3.05-6.07-6.17a16.54,16.54,0,0,0-2-3.12,2.22,2.22,0,0,1-.33-1.12q0-13.74.12-27.47c0-.92.06-1.84.06-2.76a2.37,2.37,0,0,0-2.59-2.38,2.3,2.3,0,0,0-2.39,2.42c.06,4.16.15,8.32.15,12.48a2.14,2.14,0,0,1-.67,1.55,5.17,5.17,0,0,1-4,1.34,3.94,3.94,0,0,0-3.44.55,2,2,0,0,1-1.15.21c-1.19,0-2.39,0-3.59,0a2.38,2.38,0,0,1-1.28-.18c-1.1-.86-2.32-.63-3.55-.68a16.07,16.07,0,0,1-2.6-.55c-.38-.08-.77-.11-1.16-.18s-.91-.17-1.36-.27c-.64-.15-1.28-.26-1.9-.45s-1-.5-1.49-.62a8.52,8.52,0,0,0-1.52-.06,4.33,4.33,0,0,0,.3,1.48c1,1.59,2.89,1.65,4.42,2.29a38.58,38.58,0,0,0,3.94,1.29,5.79,5.79,0,0,0,1.62.34c1.51,0,3-.08,4.55-.12a1,1,0,0,1,.69.12c1.14,1,2.55.73,3.89.79a1.53,1.53,0,0,0,.92-.14c1.72-1.37,3.74-.33,5.58-.71.23,0,.86.62.88,1a40.22,40.22,0,0,1,0,4.91,1.32,1.32,0,0,1-1,.85c-1.63-.18-3.38.56-4.88-.63a1.44,1.44,0,0,0-.82-.12c-3,0-6,.16-9,.06a8.22,8.22,0,0,1-3.53-.94,61.87,61.87,0,0,1-6.67-4.15A15.51,15.51,0,0,1,4.09,113a31.28,31.28,0,0,1-2.51-4.93c-.42-.89-.6-1.91-1.08-2.77A6.61,6.61,0,0,1,0,101.83c0-4.12,0-8.24,0-12.36q0-21.3,0-42.59A12.69,12.69,0,0,1,.49,43.4c.15-.55.87-.95,1.34-1.4.2-.19.5-.3.65-.52q2-2.67,4-5.38c1.29-1.81,3.3-2.45,5.24-3.14,1.58-.57,3.23-1,4.86-1.42a4.23,4.23,0,0,1,1.06-.14c2.52,0,5,0,7.56,0ZM97.77,21.6a8.51,8.51,0,0,1-.76.64c-2.25,1.36-4.67.59-7,.37a20.41,20.41,0,0,1-4.49-1.28,39.92,39.92,0,0,1-4.88-1.87C79.1,18.7,78.32,19,77.9,20.7a23.36,23.36,0,0,1-1.15,2.81c-.17.42-.49,1-.33,1.27s.83.44,1.3.56c.79.2,1.62.27,2.39.53.28.09.65.62.58.84a1.14,1.14,0,0,1-.85.67,11,11,0,0,1-3-.34c-.73-.23-1.33-.31-1.64.35a2.87,2.87,0,0,0,0,1.59,13.23,13.23,0,0,1,.47,1.65c0,1.48-.56,3,.64,4.34.15.17.09.54.09.82,0,3.12-.06,6.24-.06,9.35a2.43,2.43,0,0,0,.37,1.34A44.89,44.89,0,0,0,80.45,51a12.94,12.94,0,0,1,3.09,4.5,30.41,30.41,0,0,1,1,2.91,16.45,16.45,0,0,1,1,4c.11,4.67,0,9.35,0,14a3.5,3.5,0,0,0,.47,1.77,1.58,1.58,0,0,1,0,2.06,2.85,2.85,0,0,0-.5,1.53q0,18.12,0,36.23a6.3,6.3,0,0,0,0,1.78,4.44,4.44,0,0,0,1.21,1.91c.24.2,1-.3,1.55-.37a6.41,6.41,0,0,1,1.75,0c.8.14,1.56.52,2.36.61,1,.11,2-.06,3,.05a5.19,5.19,0,0,0,3.89-1.26,1.26,1.26,0,0,1,1.79,0,2.54,2.54,0,0,0,3.55-1.29.86.86,0,0,0-.27-.77,6,6,0,0,0-2.23-.78c-3.43-.06-6.87,0-10.31.06a2.3,2.3,0,0,1-2.2-1.36,1.1,1.1,0,0,1,1.11-1.67,29.52,29.52,0,0,0,3.11.09c2.43-.19,5,.69,7.27-.73.2-.13.55,0,.82,0a3.23,3.23,0,0,0,1-.15,18.23,18.23,0,0,0,4.47-2.36c1.11-.88,2.64-1.45,3.36-2.56a9.16,9.16,0,0,0,1.12-4.35c.16-3.15,0-6.31,0-9.47a2.45,2.45,0,0,0-1.73-2.77c-3.91-1.32-6.29-4.2-8-7.76a7.92,7.92,0,0,1-.37-1c-.39-1.2-.81-2.4-1.15-3.63-.44-1.63-.53-3.33-1-5-.4-1.39-.06-3,0-4.52s-.57-3.37.72-4.83a.66.66,0,0,0,.06-.47c-.12-1.42-.4-2.86.65-4.11.09-.1,0-.31.07-.47.29-1,.58-2,.89-3,.16-.48.36-1,.56-1.43s.45-1.07.73-1.58.73-1,1-1.61a13.56,13.56,0,0,1,8.77-7.22c.43-.12,1-.82,1-1.19a4.25,4.25,0,0,1,.67-3.27c.17-.21.12-.62.12-.93,0-1.28-.08-2.56-.06-3.84a6,6,0,0,1,.3-1.36,14.63,14.63,0,0,0,.58-2.23,25,25,0,0,0,0-3.35,7.33,7.33,0,0,0-.31-1.37c-.18-.74-.38-1.48-.53-2.23-.11-.54,0-1.37-.26-1.58-1.63-1.13-1.91-3.44-3.87-4.27-.28-.12-.49-.72-.51-1.11,0-.73-.38-1.05-1-1a11.15,11.15,0,0,0-2,.3c-1.85.43-3.69.9-5.53,1.35a1,1,0,0,1-.24,0c-2.56,0-5.12.07-7.67-.1a22.9,22.9,0,0,1-5.4-.95C86.18,18.06,84,17,81.8,16.16c-.35-.13-.89.21-1.34.33.19.47.24,1.21.57,1.36,1.62.74,3.32,1.3,5,2s3.36.47,4.86,1c1.85.59,3.61.4,5.41.52A13,13,0,0,1,97.77,21.6ZM82.83,99.86c0-6.8,0-13.6,0-20.4a2.34,2.34,0,0,0-.37-1.33c-1.59-2.14-3.23-4.24-4.86-6.34q-2.66-3.45-5.33-6.88c-.88-1.13-1.73-2.28-2.64-3.37-1.65-2-3.35-3.94-5-5.91a3.46,3.46,0,0,1-.34-.63,1.49,1.49,0,0,0-2.59-.15c-2.19,2.77-4.42,5.52-6.65,8.25-1.15,1.41-2.35,2.78-3.54,4.16-2,2.32-3.87,4.76-6.05,6.9A21.8,21.8,0,0,0,42,79.42a1.64,1.64,0,0,0-.16.8q0,5.1.09,10.2c0,1.48-.4,3,.73,4.35a1.22,1.22,0,0,1,.11.7c0,2.64-.06,5.28-.13,7.92,0,1.52.82,2.1,2.22,1.43a4.2,4.2,0,0,1,1.3-.56,15.17,15.17,0,0,0,5.51-1.65,2.29,2.29,0,0,1,.87,0c0,.29,0,.71-.14.85a10.79,10.79,0,0,1-1.93,1.38C48.24,106,46,107,43.79,108.15a2,2,0,0,0-1.18,2c0,2.64,0,5.28,0,7.91a1.67,1.67,0,0,0,.64,1.25A65.41,65.41,0,0,0,50,122.4c2.14.78,4.5,1,6.57,1.85,1.83.77,3.58.52,5.39.59a3.61,3.61,0,0,1,1.55.49,3,3,0,0,0,3.07,0,3,3,0,0,1,1.67-.43c3,.38,5.87-.51,8.81-.71a4.71,4.71,0,0,0,1.41-.62,12.78,12.78,0,0,1,2.29-1c1.49-.34,2.08-.94,2.07-2.43Zm-43.55-52c.87-.7,1.67-1.28,2.4-1.93a1.47,1.47,0,0,0,.39-2c-.59-1-1.14-2.11-1.71-3.16-.7-1.3-1.46-1.36-2.55-.39a9.27,9.27,0,0,1-2.87,2c-1.49.51-2.94,1.5-4.68,1.06a.89.89,0,0,0-.7.12c-1.22,1-2.67.49-4,.71-2.28.37-4.32-.65-6.49-.89a20.28,20.28,0,0,1-4.2-1.28c-1.86-.65-3.69-1.4-5.57-2a1.78,1.78,0,0,0-1.44.27,41.88,41.88,0,0,0-3.13,3.12,1.54,1.54,0,0,0-.38,1.14c0,.24.57.43.91.55.62.24,1.3.35,1.9.61,3.72,1.65,7.3,3.77,11.63,3.22a.75.75,0,0,1,.47.06c.35.22.87.44,1,.76a1.31,1.31,0,0,1-.48,1.09,6.18,6.18,0,0,1-4.19,1.77c-1.38-.06-2.77.76-4.15-.08a.22.22,0,0,0-.11,0c-1.17.45-2.11-.19-3.06-.67s-2.1-1.15-3.16-1.71C3.8,49.56,3,50,2.77,51.37A4.27,4.27,0,0,0,6.61,56a6.81,6.81,0,0,1,1.61.29c1.42.4,2.83.85,4.24,1.26a1.94,1.94,0,0,0,.48,0c2.72,0,5.44,0,8.16,0,1.33,0,2.71.36,3.88-.71a1.55,1.55,0,0,1,1-.09c2.2.3,4.16-.71,6.22-1.16,1.35-.29,2.63-.92,4-1.09s1.57.74,1,1.8a11.48,11.48,0,0,0-.67,2.18c-.09.3-.1.63-.18.93a42.89,42.89,0,0,0-1.31,5.49A57.9,57.9,0,0,0,35,71.4a2.1,2.1,0,0,0,1.6,2.14,1.75,1.75,0,0,0,2.25-1.13,38.93,38.93,0,0,0,1.06-4.29.49.49,0,0,0,0-.24c-.16-1.15-.32-2.29.57-3.29a1.23,1.23,0,0,0,.17-1c-.67-2,.67-3.76,1-5.61.37-2.16,1.71-4.15,2.69-6.19.44-.91,1-1.74.22-2.75-.16-.21,0-.62-.1-.93-.12-.54-.12-1.3-.47-1.55-.67-.48-1.1.2-1.51.72A2.23,2.23,0,0,1,39.28,47.85Zm24.58-7.36c2,0,4.08.26,6.12-.57a11.42,11.42,0,0,0,4-2.42,1,1,0,0,0,0-1.58,6.84,6.84,0,0,1-2-5.22.91.91,0,0,0-.17-.56c-.74-.89-.48-1.93-.59-2.95a39.52,39.52,0,0,0-1.1-5,13,13,0,0,1-.44-1.9,25.42,25.42,0,0,1,0-2.76c0-.63-.18-1.43.13-1.87,1.27-1.82.57-3.82.62-5.71,0-1.41-1.4-1.92-2.64-1.31a7.91,7.91,0,0,1-3.43,1.18,2.54,2.54,0,0,0-2.78,1.86c-.54,1.32-1,1.41-2.25.67a3.12,3.12,0,0,0-.66-.26c-1.23-.41-2.46-.86-3.71-1.2-.4-.12-1.11-.13-1.25.09a2.26,2.26,0,0,0,0,1.37c.07.46.39.89.4,1.33q.07,3.48,0,7a6.06,6.06,0,0,1-.43,1.44q-.63,2.16-1.23,4.32a.76.76,0,0,0,0,.36A2.9,2.9,0,0,1,52,29.33c-.25.31-.13.9-.21,1.36a8.16,8.16,0,0,1-.43,2.24,3.66,3.66,0,0,0,.73,4.36c.32.29.66.57,1,.87a.85.85,0,0,1,0,1.43c-.51.44-.91,1-.3,1.5s1,2,2.44,1.42c1.08-.45,2.3-.58,3.08-1.65.2-.27.8-.34,1.21-.35C61,40.47,62.43,40.49,63.86,40.49ZM19.94,83.88c-.11-1.73.23-3.46-.68-5.15-.63-1.16-.73-2.59-1.27-3.82a24.33,24.33,0,0,0-6.8-9,10.61,10.61,0,0,0-3.56-1.77c-1.93-.6-3,.93-4.08,2.12a3.2,3.2,0,0,0-.75,1.88c-.1,2,0,4,0,6a3.64,3.64,0,0,0,1.68,3.13,4.49,4.49,0,0,1,2.26,4.51,4.5,4.5,0,0,0,.24,1.38c.15.67.33,1.34.49,2,.07.31.08.63.16.93.2.78.41,1.55.63,2.32.09.34.25.66.33,1,.18.78.35,1.57.49,2.37.3,1.67.56,3.35.85,5,0,.11.17.2.18.3.19,1.28.39,2.56.5,3.84,0,.21-.34.55-.59.67a2.16,2.16,0,0,1-3.21-1.6,2.14,2.14,0,0,0-2.3-1.5c-1.07.19-.93,1-.91,1.78,0,.32.05.64,0,1,0,2.4,2.86,4.47,5.06,3.52,2.8-1.22,4.62-3.6,6.55-5.82a5.94,5.94,0,0,0,1.43-2.18c.68-2.75,2.77-5,2.57-8.08,0-.2.24-.41.3-.64a10.46,10.46,0,0,0,.43-1.82C20,85.48,19.94,84.68,19.94,83.88Zm92.73.24h-.07c0-.52,0-1,0-1.55,0-2.4,0-2.4-2.34-2.31-1.39,0-1.72-.3-1.57-1.68a7.86,7.86,0,0,1,.25-.92c.47-1.83,1-3.65,1.41-5.49.34-1.47.59-3,.89-4.44,0-.15.21-.26.24-.41.14-.6.26-1.21.37-1.81.31-1.83.62-3.65.94-5.48,0,0,0-.06,0-.1.47-1.87,1-3.73,1.35-5.62a12.05,12.05,0,0,0,0-3.23c0-.49-.28-1.25-.62-1.37a1.93,1.93,0,0,0-1.71.22,41.39,41.39,0,0,0-4,5.16A34,34,0,0,0,106,59.56c-.56,1.26-1.52,2.36-1.31,3.89,0,.29-.29.63-.41,1a3.6,3.6,0,0,0-.31,1.13c0,1.12.15,2.24.06,3.35a21.24,21.24,0,0,1-.6,2.57c-.09.48-.29,1.15-.06,1.44.93,1.18.67,2.47.65,3.78a9.51,9.51,0,0,0,.41,2.14c.06.26.33.54.28.76-.35,1.55.58,2.72,1.27,3.87,1.08,1.8,1.82,3.89,3.92,4.93,1.6.79,2.82.08,2.81-1.74ZM43.06,59.85l.27.14v.59a2.45,2.45,0,0,0,2,2.32,2.23,2.23,0,0,0,2.13-2A4.79,4.79,0,0,1,48,59.56c1.23-2.23,2.47-4.46,3.75-6.67.36-.63.69-1.14,0-1.79s-1.66-1.19-2.35-.58c-1.21,1.06-3,1.53-3.53,3.37a16,16,0,0,1-1.13,2.37C44.16,57.45,43.61,58.65,43.06,59.85Zm-25.74-21v-.3h-.48c-.63.06-1.6-.2-1.51.83s1,.68,1.64.67a11.45,11.45,0,0,1,1.83.23,9.55,9.55,0,0,0,1.62.34c3.9-.08,7.84.34,11.67-.79a1.46,1.46,0,0,0,.85-.93c.05-.22-.44-.77-.75-.82a4.5,4.5,0,0,0-1.61.19,13,13,0,0,1-2.38.55C24.57,38.93,21,38.9,17.32,38.9ZM48,131.28c1.46-.14,1.89-.55,1.88-1.93,0-1.76-1.44-2.4-2.6-3.28s-1.63-.18-2.33.49-.54,1.32,0,2a14.34,14.34,0,0,0,1.4,1.77A8.63,8.63,0,0,0,48,131.28ZM95.61,14.71l0-.25a26.78,26.78,0,0,1,3,.17c1,.16,1.85.56,2.8.77a2.64,2.64,0,0,0,1.06-.23c-.09-.35-.06-.88-.29-1a6.64,6.64,0,0,0-1.79-.77,6.52,6.52,0,0,0-1.52-.25c-2.6-.2-5.2-.41-7.8-.54-.24,0-.51.48-.77.74.25.22.48.56.76.62C92.58,14.23,94.1,14.45,95.61,14.71ZM3.53,91.83H3.47a13.49,13.49,0,0,0,0,2.38,1.31,1.31,0,0,0,.93.84c.33,0,1-.45,1-.74a43.08,43.08,0,0,0,0-4.4,1.2,1.2,0,0,0-.55-.74,1.26,1.26,0,0,0-1-.23,1.14,1.14,0,0,0-.45.86A19.71,19.71,0,0,0,3.53,91.83ZM24.06,33.7c-.74.4-1.85.8-1.81,1,.14,1,1.13.71,1.82.72s1.63.27,1.67-.74C25.75,34.42,24.73,34.09,24.06,33.7Z"></path><path d="M125.74,17.48a25.55,25.55,0,0,1-1,2.82,1.79,1.79,0,0,1-2.87.67,5.51,5.51,0,0,1-2.39-4.45A2.83,2.83,0,0,0,119,15a1.43,1.43,0,0,1,.13-2c.64-.67,1.28-1.32,1.91-2a.83.83,0,0,1,1.42,0,43.19,43.19,0,0,1,2.82,3.82A9,9,0,0,1,125.74,17.48Z"></path><path d="M119.14,131.86a22.16,22.16,0,0,1-3-.85c-.29-.13-.35-.78-.51-1.2.41-.14.85-.44,1.24-.38a4.61,4.61,0,0,0,3.06-.54,5.31,5.31,0,0,1,2.9-.12,1.4,1.4,0,0,1,.87,1c0,.24-.43.76-.77.89C121.68,131.1,120.37,131.47,119.14,131.86Z"></path><path d="M91.88,57.85c-.33,1.51-.4,2.75.5,3.88.18.23.1.69.1,1,0,2.84,0,5.67.06,8.5a2.09,2.09,0,0,1-1.19,2c-.79.43-1.35,0-1.94-.47a3.19,3.19,0,0,1-1.36-3.31,9.41,9.41,0,0,0,0-3.81c-.48-1.8-.53-3.63-.84-5.42a22.84,22.84,0,0,0-1.78-4.39c-.44-1.06-.86-2.14-1.24-3.22-.29-.82,1.06-2.51,2.25-2.87a2.14,2.14,0,0,1,2.86,1.25c.63,1.53,1.1,3.13,1.67,4.69C91.28,56.52,91.63,57.26,91.88,57.85Z"></path><path d="M72.48,88c0,.72.1,1.44.1,2.15,0,.4.08.93-.13,1.16-1,1.12-.76,2.39-.58,3.65a4.89,4.89,0,0,1-1.05,3.46c-.25.39-.64,1-.52,1.26.2.51.77.86,1.19,1.28a5.82,5.82,0,0,0,1.18-1.26c.44-.87.63-1.87,1.08-2.74a1.34,1.34,0,0,1,1.15-.5c.87.12,2.76,2.19,2.47,2.81-.8,1.78-.83,3.71-1.32,5.53a40.21,40.21,0,0,0-1.18,4.08,6.71,6.71,0,0,0,.52,2.35c.09.38.13.77.22,1.15.14.59.29,1.19.45,1.78.1.37.22.74.33,1.11.21.69.47,1.36.62,2a1.79,1.79,0,0,1-.06,1.22,2.51,2.51,0,0,1-2.71.79,1,1,0,0,1-.6-.62c-.57-1.77-1.11-3.55-1.6-5.35-.26-.93-.37-1.9-.61-2.83-.3-1.11-1.16-1.23-2.17-1.23a14.52,14.52,0,0,1-2-.39,11.28,11.28,0,0,0-3-.26,2.91,2.91,0,0,1-3.08-1.33,13.1,13.1,0,0,1-1.35-2.39c-.45-1.12,1.15-2.91,2.64-2.86a24.09,24.09,0,0,1,3,.61,10.06,10.06,0,0,0,2.19.11c.17,0,.46-.49.43-.73s-.43-.58-.62-.55a6.45,6.45,0,0,1-3.31-.76,5.68,5.68,0,0,0-2.25,0,27,27,0,0,0-3,.27c-1.55.25-2.7-.62-3.85-1.35-.92-.59-.77-1.63-.56-2.53a3.31,3.31,0,0,1,3.19-2.21c1,.07,2.08.17,3.11.19.36,0,1-.19,1-.36a1.31,1.31,0,0,0-.36-1.13c-1.88-1-3.55-2.38-5.86-2.67a7.14,7.14,0,0,1-5.62-3.32,1.83,1.83,0,0,1,0-1.45,3.85,3.85,0,0,1,4.7-1.78,16.2,16.2,0,0,1,2.84,1.53c.81.54,1.28.56,1.79-.39s1-1.77-.06-2.65a.68.68,0,0,1-.2-.54c.2-1.74-.34-3.56.84-5.2.61-.83,1.15-1,1.86-.4a7.73,7.73,0,0,1,3.25,7.1,3.18,3.18,0,0,0,.44,1.77,2.72,2.72,0,0,1,0,3.14,3.4,3.4,0,0,0,.34,4.28A1.66,1.66,0,0,0,67,93.4c.28-.09.54-.78.51-1.17a6.87,6.87,0,0,1,.58-4.15c.5-.91.07-2.33,0-3.52,0-.75-.25-1.59.77-1.89a2.62,2.62,0,0,1,2.94.81C73,84.88,72.37,86.48,72.48,88Z"></path><path d="M60.21,114.35a7.79,7.79,0,0,1,1.29-1.62c.25-.18.94.07,1.32.3a14.72,14.72,0,0,1,2.33,1.63,1.6,1.6,0,0,1,0,2.59c-1,1-1.54,1-2.52.07-.57-.55-1.14-1.1-1.67-1.7A10.69,10.69,0,0,1,60.21,114.35Z"></path><path d="M9.14,76.93c0-1.53.34-2,1.38-2A2.28,2.28,0,0,1,13,77.3a2.18,2.18,0,0,1-2,2.3C9.82,79.61,9.13,78.6,9.14,76.93Z"></path></svg>