<svg xmlns="http://www.w3.org/2000/svg" id="Layer_1" data-name="Layer 1" viewBox="0 0 98.45 96.39"><title>AsimovMarketingIcon-bt-omar bahaa</title><path d="M0,67.05c.17-1,.35-2.24.61-3.48.42-2,.92-4,1.35-6,.53-2.49,1.07-5,1.53-7.47.56-3.08,1-6.18,1.56-9.25S6.29,34.92,6.88,32c.24-1.21.36-2.44.59-3.65s.78-1.53,2-1.22c.54.15,1.06.36,1.58.56,1,.36,1.59.05,1.77-1,.45-2.58,2.11-2.61,3.88-2.05a37.55,37.55,0,0,0,4.28.78c1.48.28,2.95.62,4.43.91a23.87,23.87,0,0,0,3.63.59A2.22,2.22,0,0,0,30.63,26c2.36-4,4.62-8.13,6.92-12.19,2.11-3.72,4.2-7.44,6.36-11.13.92-1.59,1.43-1.61,2.78-.43,1.08,1,1.46.87,2.12-.46,1-2.06,1.54-2.25,3.5-1,4.4,2.68,8.75,5.43,13.16,8.1s9,5.33,13.47,8c3.29,2,6.54,4,9.82,6,1,.61,2,1.19,3,1.74.77.41.86.87.43,1.64-2.72,4.79-5.38,9.61-8.1,14.4-1.77,3.13-3.68,6.17-5.36,9.34a14.48,14.48,0,0,0-1,3.86c-.31,1.48-.48,3-.74,4.46-.41,2.37-.83,4.75-1.29,7.11-.41,2.07-.92,4.12-1.32,6.19a27,27,0,0,0-.57,4c-.1,2.14-1.24,3.13-3.36,2.72-1.9-.37-2.36,0-2.62,2-.2,1.52-.84,1.78-2.31,1.37a17.91,17.91,0,0,0-3.88-.47c-.32,0-.75.43-1,.77q-4.31,6.49-8.57,13c-1,1.56-1.62,1.81-3.23,1-2-1-3.94-1.93-5.83-3-4.71-2.78-9.41-5.59-14-8.48q-5.1-3.15-10-6.55a40.26,40.26,0,0,0-9.6-5.06A2.5,2.5,0,0,1,8,72C7,70,4.93,70.32,3.23,69.86c-.58-.15-1.18-.2-1.75-.38C.05,69,0,68.86,0,67.05ZM78.14,39.82c-.18-.26-.42-1-.84-1.13-2.25-.63-4.53-1.14-6.82-1.62-1.43-.29-2.9-.39-4.33-.67-2-.4-4-.93-6-1.31-3-.56-6-1-9-1.55s-6.22-1.23-9.33-1.87c-.89-.18-1.77-.45-2.66-.61-3.44-.62-6.88-1.17-10.32-1.81-1.64-.31-3.24-.79-4.88-1.13-2.29-.48-4.6-.88-6.89-1.37-.79-.17-1.18,0-1.35.85-.42,2.07-.92,4.12-1.38,6.18-.06.27-.05.55-.09.83-.23,1.51-.43,3-.7,4.55s-.59,2.72-.85,4.09c-.42,2.21-.81,4.43-1.24,6.65s-.8,4.2-1.23,6.3-.9,4.35-1.42,6.5c-.19.79-.1,1.24.76,1.38s1.49.31,2.23.46c2.42.46,4.83.91,7.24,1.39,1.88.37,3.74.81,5.62,1.17,2.46.47,4.93.86,7.39,1.32,1.09.21,2.16.54,3.26.72,1.88.32,3.76.53,5.64.83,1.13.19,2.25.47,3.37.68s2.27.35,3.39.58c3,.6,5.91,1.28,8.87,1.85s5.79,1,8.68,1.56c1.43.27,2.84.64,4.26,1s1.83-.11,2-1.45a5.89,5.89,0,0,1,.15-.82c.47-2,1-4.07,1.41-6.12.42-2.22.69-4.46,1-6.69.16-1.05.31-2.11.53-3.15.44-2.09,1-4.16,1.38-6.26.47-2.4.84-4.83,1.29-7.24C77.48,42.63,77.79,41.39,78.14,39.82Zm-1.52-3.93,0-.16c.7.16,1.39.35,2.09.48,2,.34,2.09.53,1.72,2.51A3.23,3.23,0,0,0,80.75,40c.4-.22,1-.34,1.19-.68,1-1.52,1.8-3.1,2.71-4.65,1.4-2.38,2.82-4.74,4.22-7.11a1,1,0,0,0-.41-1.62l-1-.61c-3.68-2.24-7.39-4.45-11-6.72-6.25-3.88-12.46-7.8-18.7-11.67-1.62-1-3.32-1.86-5-2.85a1.47,1.47,0,0,0-2.24.54c-.64,1-1.19,2-1.79,3l-6,9.83c-1.76,2.9-3.45,5.85-5.33,8.67-1.24,1.86-1.19,2.25,1,2.68.19,0,.4,0,.59.08,2,.36,3.92.69,5.87,1.09,2.29.46,4.55,1,6.85,1.46s4.63.64,6.92,1.06c3.52.64,7,1.36,10.52,2.05,1,.19,1.94.39,2.91.56ZM23.56,73.61,23,74a3.54,3.54,0,0,0,.77,1c4.83,3,9.69,5.87,14.53,8.8,3.69,2.23,7.34,4.51,11,6.7a1.49,1.49,0,0,0,1.42-.15c1.95-3,3.84-6,5.69-9,.43-.7.26-1.27-.72-1.45-2.69-.48-5.38-1-8.07-1.52l-7-1.36c-1.87-.37-3.74-.78-5.62-1.13-2.38-.44-4.76-.83-7.14-1.28C26.55,74.3,25.2,74,23.56,73.61Z"></path><path d="M89.4,58.72a10,10,0,0,1,1.55,0A3.27,3.27,0,0,0,94,57.59a5.14,5.14,0,0,1,2.31-1.39,2.24,2.24,0,0,1,1.87.55,2,2,0,0,1,0,1.81c-1.36,2.73-3.91,3.64-6.7,3.9a13.25,13.25,0,0,1-3.36-.52,4.49,4.49,0,0,0-3.47.42,13.57,13.57,0,0,1-1.68.92,1.53,1.53,0,0,1-2.17-.62,1.36,1.36,0,0,1,.59-2,12.31,12.31,0,0,1,6.14-2c.6,0,1.2,0,1.8,0Z"></path><path d="M86.33,55.87c-.38-.26-1-.49-1.25-.93-.15-.25.24-.92.53-1.28.82-1,1.72-2,2.58-3,1.24-1.43,2.24-1.43,3.19.15a1.71,1.71,0,0,1,0,1.59,49.28,49.28,0,0,1-3.89,3.13A4.56,4.56,0,0,1,86.33,55.87Z"></path><path d="M63.36,39.62a16.27,16.27,0,0,1,2.08,1.12,1.92,1.92,0,0,0,2.1.27,2.12,2.12,0,0,1,1.59.25c.79.44,1.48.75,2.33.19.66-.43,1.21-.14,1.68.39s1.45,1,1,2.08C73.57,45.27,73,46.61,72.48,48a2.45,2.45,0,0,0,0,1.67A2,2,0,0,1,72.28,52,2.59,2.59,0,0,0,72,55.2c.61,1.06-.75,3.7-2,3.87a2.39,2.39,0,0,1-1.17-.39c-.43-.21-.87-.77-1.2-.7-2.37.51-4.31-1.61-6.75-1-.59.15-1.6-.89-2.2-1.57-.2-.23.1-1.16.43-1.55,1.26-1.49.93-3.2,1-4.9,0-.81.41-1.6.47-2.41a3.7,3.7,0,0,0-.29-1.87A3.56,3.56,0,0,1,63.36,39.62Zm2.71,15.65h0a9,9,0,0,0,2.26,0,1.79,1.79,0,0,0,1.14-1.09c.37-1.53.54-3.11.84-4.66.21-1,.52-2.06.77-3.1a2.39,2.39,0,0,0-1.87-2.78c-.85-.18-1.71-.35-2.57-.51-2.42-.44-3.09-.15-3.66,2.21a72.93,72.93,0,0,0-1.23,7.24A2.28,2.28,0,0,0,64,55.26C64.7,55.32,65.39,55.27,66.07,55.27Z"></path><path d="M27,43.76a8.34,8.34,0,0,1-2.37.59,24.31,24.31,0,0,1-3.55-.65c-.95-.19-1.9-.38-2.83-.65a8.32,8.32,0,0,1-1.37-.68,5.25,5.25,0,0,1,.77-1.2A2,2,0,0,1,20,40.92a30.94,30.94,0,0,0,3.47,1.32,1.58,1.58,0,0,0,1.15,0c2.37-1.29,4.46-.27,6.48.8a6.55,6.55,0,0,0,5.42.36,2.65,2.65,0,0,1,1.5-.06c1.67.52,3.28,1.31,5,1.69a35.19,35.19,0,0,0,4.5.28,17.27,17.27,0,0,1,3.05.46c.64.18,1.29.68.86,1.54s-1,.75-1.81.58c-1.57-.32-3.22-.28-4.82-.46a23.94,23.94,0,0,1-3.48-.63c-1.15-.32-2.24-.83-3.37-1.21a1.69,1.69,0,0,0-1,0c-2.63,1.13-5,.25-7.34-.89C28.7,44.3,27.79,44.05,27,43.76Z"></path><path d="M21,33.6c1.2.41,2.47.77,3.67,1.29A5.28,5.28,0,0,0,29,35a3.32,3.32,0,0,1,1.56,0,1.5,1.5,0,0,1,.63.34C33.42,37.09,36,37,38.69,36.93a10.2,10.2,0,0,1,4,1.08,3.43,3.43,0,0,0,3.3.05c.1-.06.23-.19.3-.17,1.68.61,3.36,1.22,5,1.9a1.38,1.38,0,0,1-.13,1.05A1.52,1.52,0,0,1,50,41.3a3.82,3.82,0,0,1-1.31-.55,3.37,3.37,0,0,0-3.36-.27c-1.45.65-2.94-.09-4.33-.78A6.49,6.49,0,0,0,38.81,39c-1.93-.21-3.88-.27-5.81-.45a2.33,2.33,0,0,1-1.32-.51,4.35,4.35,0,0,0-3.65-1,12.35,12.35,0,0,1-6-.77,5.61,5.61,0,0,0-3.11.09c-.73.14-1.31.21-1.62-.5s.19-1.22.83-1.45C19,34.12,20,33.9,21,33.6Z"></path><path d="M57.88,65.11c2.66.19,5.31.35,8,.6a4.11,4.11,0,0,1,1.89.68c.33.22.64,1,.5,1.23a1.63,1.63,0,0,1-1.28.7c-2.5-.26-5-.61-7.49-1a6.91,6.91,0,0,1-2-.63c-.35-.18-.54-.67-.81-1l1.15-.83Z"></path><path d="M59,61.12l5.36.74c.47.06.94.13,1.41.18a5.29,5.29,0,0,1,1.06.11c.71.25,1.61.54,1.36,1.5s-1.16.71-1.91.62c-1.25-.16-2.51-.28-3.76-.44-.5-.07-1-.22-1.5-.31s-1.15-.19-1.73-.26c-.39,0-.85.08-1.16-.1a5.28,5.28,0,0,1-1-1,6.07,6.07,0,0,1,1.1-.88A1.81,1.81,0,0,1,59,61.12Z"></path></svg>