<svg xmlns="http://www.w3.org/2000/svg" id="Layer_1" data-name="Layer 1" viewBox="0 0 96.92 86.52"><title>AsimovMarketingIcon-bt-omar bahaa</title><path d="M58.06,86.52c-2.57-.38-5.14-.84-7.72-1.14-2.28-.27-4.58-.36-6.86-.56a18.92,18.92,0,0,1-2-.3c-.2,0-.38-.16-.57-.18-1.84-.19-3.7-.29-5.53-.58-2.7-.42-5.49,0-8.12-1-1.34-.49-1.68-1.44-1-2.58.26-.42.51-1.14.32-1.48s-.91-.61-1.43-.83a14,14,0,0,1-2.28-.82c-.79-.5-.83-1.27-.25-2.08.92-1.3,1.81-2.63,2.65-4a2.18,2.18,0,0,0,.25-1.31c0-.11-.67-.18-1-.24l-5.62-.86c-1.48-.23-3-.48-4.45-.7l-5.73-.82A2.79,2.79,0,0,0,7.69,67c-1.28.35-2-.38-2.79-1.21a1.45,1.45,0,0,1-.29-1.94c.48-.77.24-1.3-.67-1.47-.66-.12-1.33-.24-2-.32-1.81-.2-2.47-1.49-1.48-3,2.07-3.13,4.18-6.24,6.23-9.38,3.2-4.88,6.36-9.77,9.54-14.66,2-3.15,4.09-6.3,6.12-9.46q4.16-6.45,8.27-12.92,3.54-5.55,7.06-11.13c1-1.57,1.61-1.79,3.91-1.24a9.92,9.92,0,0,0,1.24.4c2,.18,4,.24,5.92.47,1.63.2,3.25.56,4.87.86.28,0,.54.15.82.19,1.2.15,2.41.3,3.61.43,1.88.19,3.77.3,5.65.55s3.72.61,5.57.93a1.6,1.6,0,0,0,.47.08c3.22-.39,6.24,1,9.43,1a55.21,55.21,0,0,1,6.2.92c1.56.2,3.14.25,4.71.41a5.6,5.6,0,0,1,1.73.4c1.33.57,1.64,1.48.89,2.69-1.06,1.7-2.19,3.34-3.33,5-.58.83-.52,1.13.44,1.43a5.12,5.12,0,0,1,1.21.49,1.46,1.46,0,0,1,.52,2.33Q89,23,86.43,27.09,84,31,81.5,34.89c-.43.67-1,1.24-1.44,1.9a1.39,1.39,0,0,0-.24,1.08,1.43,1.43,0,0,0,1,.5c1.29.18,2.6.23,3.88.43,1.46.23,1.88,1.3,1.07,2.55a6.15,6.15,0,0,1-.61.74,1.26,1.26,0,0,0,0,1.91c.19.21.37.43.55.65,1.2,1.52,1.21,2.25.16,3.88-3.45,5.32-6.91,10.65-10.33,16C71.31,71.12,67,77.68,63,84.37c-1.28,2.12-2.93,2.12-4.91,1.81Zm6.26-56.63c-1.74-.26-3.45-.39-5.1-.8a9.35,9.35,0,0,1-2.6-1.39,1.11,1.11,0,0,1-.23-1.91c2.5-2.63,5-5.24,7.53-7.85a28.23,28.23,0,0,0,2.15-2.23c1.06-1.37.89-2-.63-2.92a3.43,3.43,0,0,0-1.12-.41,23,23,0,0,0-3.65-.61c-2.57-.08-5.14-.08-7.71.05a36.51,36.51,0,0,0-4.09.72c-1.64.27-3.31.39-4.92.78-2.91.72-5.74,1.83-8.67,2.32a5.16,5.16,0,0,0-3.89,2.94c-.71,1.25-1.41,2.51-2.19,3.72-2.13,3.33-4.31,6.63-6.46,10S18.56,38.78,16.45,42q-5,7.74-10.09,15.45c-.5.78-.4,1.43.55,1.65a23.81,23.81,0,0,0,5.22,1,44.22,44.22,0,0,1,6.91,1c1.48.24,3,.42,4.46.61,1,.13,2,.27,2.94.34,1.27.08,2.55.14,3.82.11a1.39,1.39,0,0,0,.92-.66c2.88-4.46,5.73-9,8.58-13.43,2.7-4.25,5.38-8.5,8.12-12.72a2.13,2.13,0,0,1,1.39-1,37.22,37.22,0,0,1,4.72.37c1.37.18,2.7.6,4.07.74,1.92.2,3.86.24,5.8.37a6,6,0,0,1,.79.25q.93.16,1.86.3a18.2,18.2,0,0,0,2.32.31c.54,0,1.36,0,1.59-.29,1.66-2.34,3.23-4.75,4.78-7.17a.88.88,0,0,0-.07-.86,1,1,0,0,0-.86-.16c-.42.09-.8.41-1.22.47C70.14,29.12,67.23,29.5,64.32,29.89ZM55.61,69.66a11.66,11.66,0,0,0,2-.37c1.64-.61,3.24-1.32,4.86-2a9.83,9.83,0,0,0,4.71-4.11c2.72-4.33,5.4-8.68,8.12-13,1.57-2.5,3.17-5,4.76-7.47.54-.84.37-1.56-.46-1.64-1.73-.16-3.47-.26-5.2-.39a7.74,7.74,0,0,1-1.07-.1l-5.09-1a5.66,5.66,0,0,0-.71,0c-2-.13-4-.27-6-.44-.26,0-.5-.24-.77-.32a6,6,0,0,0-1-.25c-1.9-.3-3.82-.49-5.69-.9-1.57-.33-2.88-.18-3.5.76-1.15,1.76-2.31,3.53-3.43,5.31L37.7,58.61c-.1.17-.31.43-.26.52.17.28.42.68.69.72s.63-.27.94-.45a53.28,53.28,0,0,1,6.45-3.62c3.21-1.29,6.59-2.13,9.89-3.17a3.32,3.32,0,0,1,4,4,16.61,16.61,0,0,1-1.14,3c-1.34,2.54-2.83,5-4.18,7.54C53.07,69,53.52,69.6,55.61,69.66ZM56.84,9.75c2.74.3,5.08.49,7.38.85a5.26,5.26,0,0,1,2.26,1c2.35,1.76,2.58,2.84.64,5C65,19,62.62,21.06,60.38,23.28a29.33,29.33,0,0,0-2.23,2.49c-.53.67-.29,1.24.51,1.45a17.84,17.84,0,0,0,3.52.7,36.17,36.17,0,0,0,10.67-1,7.11,7.11,0,0,1,1.84-.5,4.06,4.06,0,0,0,3.7-2.22c2.89-4.46,5.8-8.9,8.69-13.37.48-.75.23-1.34-.66-1.5C84.29,9,82.14,8.65,80,8.3c-1.09-.18-2.19-.41-3.29-.51-2.08-.19-4.18-.3-6.27-.45-.19,0-.37-.13-.57-.16l-2.1-.31-2.08-.33c-.51-.07-1-.14-1.53-.19s-1,0-1.53-.11a41.46,41.46,0,0,0-5.58-.88c-2.32-.05-4.52-.65-6.77-.92s-4.42-.11-6.6-.58a12.75,12.75,0,0,1-1.4-.17c-1.51-.5-1.67-.39-2.45.95-1.67,2.89-3.44,5.74-5.15,8.62a2.87,2.87,0,0,0-.15,1,2.57,2.57,0,0,0,1,.11c.6-.19,1.13-.61,1.74-.77,2.89-.73,5.8-1.43,8.71-2.09,1.11-.25,2.25-.36,3.37-.54Zm-1.91,68.8c2.87.07,3,0,4-1.91.48-.92,1-1.81,1.58-2.69.75-1.18,1.58-2.3,2.3-3.5.18-.31.07-.81.09-1.21a4.18,4.18,0,0,0-1.19.13,31.2,31.2,0,0,1-3.24,1.48,15.43,15.43,0,0,1-3.65.49,2.72,2.72,0,0,1-2.49-4.06c1.47-2.61,3-5.17,4.44-7.81a11.47,11.47,0,0,0,1.1-3.27,1.72,1.72,0,0,0-2.13-2.12,18.79,18.79,0,0,0-3.6.7C48.08,56.26,44,57.6,40.38,60.11c-1,.7-2.17,1.17-3.23,1.8a6.24,6.24,0,0,0-2,1.41c-1.3,1.82-2.44,3.75-3.64,5.63-1,1.51-1.91,3.06-3,4.51-.78,1.09-.82,1.45.46,1.7,2.1.39,4.23.57,6.35.83.63.08,1.27.09,1.89.2,1.59.29,3.16.72,4.76.91,1.92.24,3.86.28,5.79.42a4.11,4.11,0,0,1,.47.07Z"></path><path d="M92.56,29.87a7.16,7.16,0,0,1-4.23,5.84,1.91,1.91,0,0,1-1.67-.35,2,2,0,0,1-.39-1.77,64.38,64.38,0,0,1,4-5.49,1.61,1.61,0,0,1,1.47-.33c.39.15.61.8.83,1.27A2.3,2.3,0,0,1,92.56,29.87Z"></path><path d="M94.32,31.56a16.21,16.21,0,0,1,1-2.16,1.14,1.14,0,0,1,1-.46c.28.07.71.62.65.84a17.84,17.84,0,0,1-1.12,2.77.88.88,0,0,1-.84.07A3.82,3.82,0,0,1,94.32,31.56Z"></path><path d="M16.84,52.31c-.23,1.17-.39,2.19-.65,3.19a1.14,1.14,0,0,1-.65.73c-.23,0-.64-.28-.78-.55-.46-.88-.95-.72-1.62-.24a3,3,0,0,1-1.16.27c.1-.41.06-.94.3-1.22A36.47,36.47,0,0,1,15,51.67a1.54,1.54,0,0,1,1.22-.43C16.55,51.37,16.67,52,16.84,52.31Z"></path><path d="M21.14,51.81c-.61.44-1,.88-1.34.9s-.87-.67-.81-.8a2.33,2.33,0,0,1,1-1.06C20.14,50.78,20.6,51.34,21.14,51.81Z"></path><path d="M63.76,52c0-.05.07-.35.23-.43a.67.67,0,0,1,.63.11,6.51,6.51,0,0,1,1.23,1.87,1.57,1.57,0,0,1-.74,1.34c-.69.29-.9-.35-1-1S63.9,52.77,63.76,52Z"></path></svg>