<svg xmlns="http://www.w3.org/2000/svg" id="Layer_1" data-name="Layer 1" viewBox="0 0 159.13 109.9"><title>AsimovMarketingIcon-bt-omar bahaa</title><path d="M41.67,5.68a8.3,8.3,0,0,1,1.66.23,4.65,4.65,0,0,1,1.44.84A73.87,73.87,0,0,1,51,11.94a37,37,0,0,1,3.52,4.88c1.59,2.22,3.2,4.42,4.78,6.64.81,1.13,1.52,2.33,2.36,3.43,1.09,1.41,2.24,2.78,3.42,4.13.39.45.76.36,1.1-.24,1.48-2.57,3-5.11,4.53-7.66A35.93,35.93,0,0,1,76.19,16c.82-.82,1.19-2.13,2.07-2.87,2.81-2.36,5.41-5,8.81-6.61,1.68-.79,3.15-2,4.83-2.78s3.53-1.31,5.31-1.94A5.64,5.64,0,0,1,98,1.48,15.18,15.18,0,0,1,100.7.92c1-.05,1.87.11,2.72-.6A2.79,2.79,0,0,1,105,.05c1.6,0,3.2-.06,4.79,0a5.53,5.53,0,0,1,1.25.29c.75.2,1.54.69,2.23.56,1.7-.32,3,.45,4.4,1.13a9.93,9.93,0,0,0,1.54.51c.22.07.55,0,.67.18,1.46,1.72,3.85,1.54,5.57,2.77.7.5,1.75.47,2.54.89a66.3,66.3,0,0,1,5.91,3.38,7.83,7.83,0,0,0,5.27,1,4.28,4.28,0,0,1,3.46,2.1,1.51,1.51,0,0,1-.36,1.12,1.71,1.71,0,0,0,.15,2.7c1.38,1.41,3.08,2.58,3.73,4.6.06.18.25.31.38.46l4.65,5.4a2.14,2.14,0,0,1,.28.39c1.39,2.5,2.89,4.95,4.13,7.52a45.62,45.62,0,0,1,1.91,5.41q.78,2.36,1.52,4.71a2.86,2.86,0,0,1,.08.83c0,2.87,0,5.75,0,8.63a1,1,0,0,1,0,.24,22.22,22.22,0,0,1-1.32,4.65A98,98,0,0,1,152.16,69a29.47,29.47,0,0,1-4.09,4.2q-3.25,3.19-6.53,6.35c-.62.6-.67,1,.25,1.39,2.83,1.15,3.25,2,3.33,5.07a10.05,10.05,0,0,1-3.27,7.51c-2.21,2.26-4.42,4.52-6.68,6.72a14.25,14.25,0,0,1-2.14,1.52c-.92.6-1.85,1.21-2.81,1.75a3.15,3.15,0,0,1-1.34.39c-.91,0-1.84-.07-2.75,0a5.75,5.75,0,0,1-4.38-1.16,1.37,1.37,0,0,0-1.94.1c-3.43,2.78-7.43,4.62-11.32,6.64a3.19,3.19,0,0,1-1.37.3c-1.64,0-3.28.07-4.91,0a5.8,5.8,0,0,1-1.75-.64,7.67,7.67,0,0,1-4.29-4.43,14.24,14.24,0,0,1-.29-2.57,2.7,2.7,0,0,0-.56-1.54c-.2-.17-1,.19-1.43.43-3.32,1.8-6.66,3.57-9.93,5.47a19,19,0,0,1-5.58,1.92,2.43,2.43,0,0,1-.93,0c-.27,0-.54-.32-.78-.29-2.28.33-3.35-1.35-4.54-2.75-.78-.92-1.33-.89-2.28-.16a10,10,0,0,1-2.92,1.22,31,31,0,0,1-4.46,1.29c-1.51.25-2.77,1.45-4.42,1.07a1.08,1.08,0,0,0-.69.15c-2.62,1.55-5.13,1.17-7.59-.38a2.66,2.66,0,0,1-.91-3.17,1.42,1.42,0,0,1,1.08-.5c1.2,0,2.41.32,3.37-.73a.38.38,0,0,1,.33-.11c1.81.48,3.36-.59,5-.83.35,0,.92-.48.91-.69a1.73,1.73,0,0,0-.71-1c-1.82-1.39-4-.78-6-.93a.64.64,0,0,0-.46.1c-1.09,1.23-2.52.62-3.82.76a12.8,12.8,0,0,0-2.83.67c-2.31.78-4.73,1.39-7.08.82a33.55,33.55,0,0,1-7.17-2.7,83.58,83.58,0,0,1-7.87-4.72,6.83,6.83,0,0,0-3.88-.81,12.15,12.15,0,0,1-2.73-.5c-2.11-.57-4.14-1.48-6.45-1.13A7.94,7.94,0,0,1,8,92.54c-.23,0-.44-.19-.67-.23-1.3-.25-2.6-.46-3.9-.72C1.34,91.17-.75,86.32.26,84.47A15.75,15.75,0,0,0,1,82.17a7.85,7.85,0,0,1,1.15-2.7C3.88,77.59,5.44,75.23,8,74.55c2.84-.73,5.22-2.3,7.76-3.56a7.6,7.6,0,0,0,3.6-3,4,4,0,0,1,1.11-1.25c1.85-1.43,3.82-2.71,5.58-4.25a11.42,11.42,0,0,0,2.58-3.35,7.74,7.74,0,0,1,3.84-3.56,39.64,39.64,0,0,0,4.78-3.13A6.93,6.93,0,0,0,39,51.06a15.64,15.64,0,0,0,1.51-3c.28-.67.3-1.45.57-2.13s.8-1.56,1.17-2.35c.8-1.72,3.31-2.91,5.18-3.09,1.7-.17,3.06.66,4.6.88s3.13,2.79,3.09,4.23c0,1.23.33,1.65,1.56,1.49a3.27,3.27,0,0,1,3,.75c.23.21.84,0,1.28,0-.13-.37-.15-.85-.41-1.11-2.31-2.32-4.77-4.5-7-6.92a63.84,63.84,0,0,1-4.18-5.58c-1-1.38-2.07-2.72-2.92-4.18-1-1.66-1.72-3.44-2.57-5.15-.35-.72-.79-1.4-1.1-2.13-.48-1.16-.9-2.34-1.31-3.52a32.16,32.16,0,0,1-1.63-5A24.23,24.23,0,0,1,39.8,9c.05-.91,1.77-1.11,2.85-.35A5.22,5.22,0,0,1,43.79,9.7a57.87,57.87,0,0,1,4.48,6.16,84.12,84.12,0,0,1,3.65,8,25,25,0,0,1,.83,2.58,1.67,1.67,0,0,0,.17.44c1.83,2.81,3.08,5.91,4.71,8.82.13.24.56.56.67.5.27-.13.6-.48.59-.74A4.49,4.49,0,0,0,58.52,34c-.52-1.27-1.06-2.54-1.62-3.8-.23-.5-.54-1-.78-1.47-1.9-4.12-3.71-8.27-5.72-12.33a26.91,26.91,0,0,0-3-4.39c-1.2-1.53-2.48-3-3.81-4.42a11.18,11.18,0,0,0-2-1.42Zm75.13,66-.31-.42c.51-.54,1-1.09,1.53-1.63.72-.75,1.49-1.45,2.15-2.24,2.37-2.79,4.72-5.59,7-8.43,1.13-1.39,2.14-2.87,3.18-4.32A19,19,0,0,0,132,52.17c1.89-3.77,4.13-7.38,5.36-11.46.71-2.36,1.48-4.71,2.19-7.07a2.94,2.94,0,0,0,0-.84c0-1.12,0-2.24-.07-3.36-.1-2.7.66-5.49-.77-8.07a.72.72,0,0,1,0-.36c.1-1-.53-1.41-1.22-1.89-1.87-1.32-3.66-2.78-5.59-4s-4.2-2.43-6.35-3.55a8.58,8.58,0,0,0-3-1,25.14,25.14,0,0,0-5.75,0c-1.42.2-2.71,1-4.28,1.07-1.12,0-2.18,1-3.33,1.34a1.83,1.83,0,0,1-1.57-.57c-.44-.61.1-1.07.71-1.35,1.15-.54,2.29-1.12,3.43-1.67.29-.13.62-.35.89-.29a4.2,4.2,0,0,0,3.62-.73c.22-.18.69-.07,1-.06,1,0,2.08.15,3.11.09a1.39,1.39,0,0,0,1-.71,1.06,1.06,0,0,0-.41-1c-1.6-.67-3.24-1.24-4.85-1.86A9.63,9.63,0,0,0,110.62,4a.7.7,0,0,1-.44-.16,4.33,4.33,0,0,0-5,0,1.63,1.63,0,0,1-.92.22,9.06,9.06,0,0,0-5.31.67,40.34,40.34,0,0,1-5.39,2c-.7.25-1.42.43-2.11.69a4.81,4.81,0,0,0-1,.58c-.32.24-.56.61-.9.78-4,2-7.24,5-10.4,8.09a12,12,0,0,0-1.42,1.6,60.41,60.41,0,0,1-3.56,5,30.79,30.79,0,0,0-4.51,6.09c-.87,1.62-.54,2.53,1.11,3.4a8.25,8.25,0,0,1,1.84,1.76A8.11,8.11,0,0,0,73.72,36a25.58,25.58,0,0,0,2.44,1.27c1.89,1,4,1.73,5.37,3.49a25.75,25.75,0,0,0,2,2.76C85.19,45.13,87,46.51,88.69,48a3.09,3.09,0,0,0,3.72.4c.37-.22.82-.53,1.19-.47,1.37.2,2.91-.5,4.13.68.12.12.39.06.57.14a5.27,5.27,0,0,1,1.85.86c1.76,1.88,3.23,4.05,5.14,5.75s2.59,4.31,3.38,6.62c.42,1.25,0,2.75.93,4.05.35.49,0,1.47,0,2.23,0,.43-.12,1,.1,1.27,1,1.12.81,2.44.79,3.74a37.81,37.81,0,0,0,0,3.84,2.56,2.56,0,0,1-.58,2.2c-.25.27-.16.92-.1,1.38s.34.63.47,1c.4,1,.78,1,1.5.3s1-2,1.46-3a4.65,4.65,0,0,0,.59-3.49,1.27,1.27,0,0,1,.41-1.12,1.25,1.25,0,0,1,1.11.34,9.8,9.8,0,0,0,3.85,2.77,7.65,7.65,0,0,1,1.34.8c1.85,1.28,3.74,2.52,5.52,3.9,1.59,1.25,3.65,1,5.35,1.9.19.1.61-.13.87-.29,1.11-.7,2.23-1.39,3.29-2.15a57.1,57.1,0,0,0,4.66-3.49c1.85-1.64,3.54-3.47,5.3-5.21a3.32,3.32,0,0,0,.38-.46c1.26-1.81,2.54-3.62,3.77-5.45a35.54,35.54,0,0,0,2.43-3.93,33.5,33.5,0,0,0,1.73-4.4c.51-1.56.9-3.17,1.34-4.76a.67.67,0,0,0,0-.24,16.25,16.25,0,0,1-.08-2.87c.39-2.71-.41-5.29-.75-7.91a17.76,17.76,0,0,0-1.28-3.52c-.38-1-.73-2.06-1.1-3.08a4.44,4.44,0,0,0-.43-.84c-.55-.82-1.15-1.6-1.67-2.44-.88-1.42-1.7-2.88-2.58-4.3a36.67,36.67,0,0,0-2.07-3.17c-1-1.33-2.11-2.58-3.22-3.83a.9.9,0,0,0-.84-.18,1,1,0,0,0-.31.81,13.57,13.57,0,0,0,.21,2c.14.76.4,1.49.52,2.25a3.36,3.36,0,0,1-.06,1.3,14.25,14.25,0,0,0-.53,1.88c-.18,2.42.66,5-.84,7.24-.08.12,0,.31-.07.47a25.32,25.32,0,0,1-1.32,4.72c-1.8,3.69-3.84,7.25-5.8,10.87a14.75,14.75,0,0,1-.9,1.54c-1,1.45-2.09,2.89-3.17,4.32-1.41,1.87-2.74,3.81-4.29,5.57-1.8,2-3.75,3.93-5.71,5.82A12.08,12.08,0,0,1,116.8,71.69Zm-10.15-5.24a14.91,14.91,0,0,0-1.6-7.75,1.53,1.53,0,0,0-2-1.08c-1.07.26-.79,1.08-.84,1.83a5.79,5.79,0,0,1-.47,2.45,9.25,9.25,0,0,1-2,2c-.91.79-1.59.61-2.25-.4A7.37,7.37,0,0,0,96.15,62a18.4,18.4,0,0,1-1.71-1.26c-1.27-1.41-2.38-3-3.67-4.36a41.65,41.65,0,0,0-3.71-3.57A14.88,14.88,0,0,0,84.29,51a1.56,1.56,0,0,0-1.34.16c-1.43,1-2.82,2-4.15,3.16a4.37,4.37,0,0,1-4.34.58,6.9,6.9,0,0,0-2.83-.55A3.92,3.92,0,0,1,69,53.8a2,2,0,0,0-2.72.32c-.42.48-.45,1,.19,1.26,1.87.89,3.7,1.88,5.64,2.58a6,6,0,0,1,3.53,3.47,1.5,1.5,0,0,1-.39,1.19,8.52,8.52,0,0,1-3.16-.26c-1.38-.53-3-.62-4-2,0-.07-.22-.08-.33-.11-1.73-.35-3.35-1.24-5.18-1.06-.53,0-1.42.13-1.5.39-.28.88.62.92,1.18,1.14,1.84.72,3.7,1.38,5.53,2.15a3.63,3.63,0,0,1,2.28,4c-.09.62-.37,1.07-1,.78-1.69-.73-3.35-1.55-5-2.33-.26-.12-.52-.33-.76-.32a9.8,9.8,0,0,0-1.41.29c.2.41.28,1,.6,1.18,1.32.77,1.81,2.11,2.45,3.32s.07,2-1.23,2c-2,.06-3-1.72-4.56-2.35s-3-1.42-4.57-2.09a1.2,1.2,0,0,0-.93,0,3.71,3.71,0,0,0-.9.79,8.16,8.16,0,0,0,1,.61,21.83,21.83,0,0,1,2.09.94,11.36,11.36,0,0,1,1.4,1.3,1.47,1.47,0,0,1,.28,2.14c-.56.78-1.25.42-1.91,0-1.47-.86-2.9-1.8-4.78-1.39-.41.09-.92-.38-1.4-.52s-1.21-.5-1.68-.34a39.75,39.75,0,0,0-4.56,1.94c-.88.44-1.63,1.13-2.48,1.64-1.52.92-3.09,1.77-4.62,2.68S33.31,79,31.82,79.75a16.57,16.57,0,0,0-5.76,4.38c-.78.92-.72,1.34.37,1.77a18.21,18.21,0,0,1,6.89,4.82A30.32,30.32,0,0,0,37.41,94a.63.63,0,0,0,.44.17A4.84,4.84,0,0,1,41,94.8a13.62,13.62,0,0,0,2.12.74c1.12.38,2.23.79,3.36,1.13a8.9,8.9,0,0,0,2.6.59c1.92,0,3.62.93,5.47,1.06,2.1.14,4.23,0,6.35,0a4.55,4.55,0,0,0,3.18-.74c.28-.22.83-.09,1.26-.13a25.66,25.66,0,0,0,3-.31c1.51-.33,3-.8,4.5-1.21s2.91-.76,4.34-1.21A15.54,15.54,0,0,0,80,93.61c1.29-.7,2.53-1.5,3.78-2.29q2.59-1.65,5.16-3.35c1.43-.94,2.79-2,4.26-2.85.86-.49,1.28-1,1-2a2.61,2.61,0,0,1,.23-1.25c.62-2.23,2.75-2.84,4.35-4,1.36-1,2.74-2,4.17-2.93a5.79,5.79,0,0,1,1.55-.42c-.13.5-.1,1.15-.41,1.46a13,13,0,0,1-2,1.42c-1.66,1.16-3.29,2.35-5,3.47-.56.38-1,.75-.62,1.43s1,.5,1.57.16a7.08,7.08,0,0,1,1.61-.66,38.53,38.53,0,0,0,4-1c1.54-.59,2.87-4.4,2.22-5.93a.72.72,0,0,0-.28-.37c-1.31-.54-.62-1.22-.23-2a13.24,13.24,0,0,0,1.24-3A14.2,14.2,0,0,0,106.65,66.45Zm-67.08-5-.1.28a9.08,9.08,0,0,0-1.56,0c-.26,0-.49.31-.73.48.18.22.31.53.55.66.63.34,1.33.56,2,.9,1,.54,1.73,2.1,1.38,2.69s-1.81.45-2.92,0A44.56,44.56,0,0,0,33.32,65c-.32-.09-.72.18-1.09.28a3.48,3.48,0,0,0,.46,1.13c.63.67,1.38,1.22,2.05,1.84s1.17,1.22.7,2.09-1.35.68-2.14.56a3.2,3.2,0,0,1-.68-.23c-1.16-.47-2.32-1-3.48-1.4a5.51,5.51,0,0,0-.71-.07,15.14,15.14,0,0,1-2.25-.58,2.52,2.52,0,0,0-2.25.1c-1.76.84-2.9,2.34-4.34,3.53a13.56,13.56,0,0,1-3.38,1.92c-1.32.56-2.83.73-4.11,1.37-2.63,1.31-5.17,2.8-7.73,4.25a5.72,5.72,0,0,0-1,.88c.33.33.59.82,1,1a7.64,7.64,0,0,1,4.29,3.25,13.73,13.73,0,0,0,6.26,5.22c.54.23,1.08.81,1.58.77a6.32,6.32,0,0,1,3.13.81c1.79.75,2.73-.05,2.68-2a2.05,2.05,0,0,1,.19-.92,29.55,29.55,0,0,1,2.42-4.84,18.26,18.26,0,0,1,3.88-3.82c1.54-1.16,3.36-2,5-3a2.09,2.09,0,0,0,.9-1.33,3.26,3.26,0,0,1,2.56-3.09c2.46-.7,3.53-2.78,4.68-4.63a13.27,13.27,0,0,1,5.71-5.25,4.59,4.59,0,0,0,1.1-1c1.34-1.33,2.5-2.93,4.06-3.92a51.42,51.42,0,0,1,6-2.74c.77-.37,1.39-1.06,2.16-1.43,1.3-.63,1.55-1.91.38-2.81a12.29,12.29,0,0,0-2.16-1.28,5.52,5.52,0,0,0-5.63.91c-.77.76-1.54,1.53-2.28,2.31a2,2,0,0,1-2,.72,17.14,17.14,0,0,0-2.86-.31c-.34,0-.7.36-1.05.55a5.37,5.37,0,0,0,.72.78c.58.43,1.23.75,1.78,1.19.7.55,1.35,1.42.66,2.13a2.83,2.83,0,0,1-2.34.5c-1.57-.39-3-1.15-4.59-1.66-.34-.12-.82.2-1.23.31a3.54,3.54,0,0,0,.7.78c1.18.73,2.44,1.32,3.55,2.13a3.86,3.86,0,0,1,1,1.72c.08.2-.26.79-.43.8a10.67,10.67,0,0,1-2.71-.1A26,26,0,0,1,39.57,61.45ZM98.79,89.83l.11.35a17.52,17.52,0,0,0,6.85-2.35c1.27-.74,1.23-3.19.06-4.12a1.59,1.59,0,0,0-1.07-.16c-.84.09-1.68.25-2.51.41a10.44,10.44,0,0,0-1.46.38c-1.3.46-2.58,1-3.87,1.41A27.27,27.27,0,0,0,93,87.08C90.44,88.47,88,90,85.46,91.54c-1.59,1-3.09,2.08-4.71,3a36.34,36.34,0,0,1-5.5,2.61c-2.26.78-4.63,1.2-6.94,1.81a2.36,2.36,0,0,0-1,.55c-.23.21-.46.65-.38.88a1,1,0,0,0,.83.48c1.23-.08,2.57.39,3.65-.67.21-.2.68-.13,1-.21.65-.15,1.28-.32,1.92-.49s1.2-.32,1.8-.45c1.46-.31,2.92-.59,4.37-.91.18,0,.32-.25.5-.32l3.2-1.18a3.89,3.89,0,0,0,.83-.44,49.64,49.64,0,0,1,4.41-3A44.52,44.52,0,0,1,95,90.87C96.22,90.42,97.52,90.17,98.79,89.83ZM81.18,46.56c-.14-.64-.07-1.52-.47-1.88-1.39-1.29-2.94-2.4-4.45-3.56a.7.7,0,0,0-.57,0,9.49,9.49,0,0,0-2.88,1.18c-2.08,1.73-4.12,3.56-5.18,6.16-.51,1.27.16,2.1,1.52,2a2.39,2.39,0,0,1,1.46.22,3.59,3.59,0,0,0,2.71.58,3.11,3.11,0,0,1,1.72.48,2,2,0,0,0,2.7-.2,4.14,4.14,0,0,1,.91-.77A4.7,4.7,0,0,0,81.18,46.56ZM46.52,50.42v.09c1.08,0,2.16.05,3.23,0a2.8,2.8,0,0,0,1.54-.5,16.33,16.33,0,0,0,2.19-2.21,1.6,1.6,0,0,0-.64-2.56,13.58,13.58,0,0,1-1.34-1c-.36-.24-.73-.67-1.08-.66-2.36,0-5-.69-6.58,1.89A21,21,0,0,0,42,48.79c-.44,1.11,0,1.61,1.28,1.63C44.36,50.44,45.44,50.42,46.52,50.42ZM95.25,51v0c-.32,0-.64,0-1,0a2.22,2.22,0,0,0-2,1.78A2.19,2.19,0,0,0,93,54.7a6.62,6.62,0,0,0,2.88.71,2.42,2.42,0,0,0,2.57-2.15A2.53,2.53,0,0,0,95.84,51Z"></path><path d="M30.35,11.54a34,34,0,0,1,1.09-4C32,6.24,33.06,6.18,34,7.24a6.14,6.14,0,0,1,.44,7.86c-.34.47-1.51.53-2.26.43a1.74,1.74,0,0,1-1.51-1.75c0-.72,0-1.43,0-2.15Z"></path><path d="M92.68,41.16a12,12,0,0,1-9.53-4.75c-.76-1-1.64-2.2-1.3-3.72a1.13,1.13,0,0,0-.15-.91c-1.45-1.56-1.11-3.64-.66-5.13.85-2.78,1.5-5.81,3.9-7.89.06-.05.14-.1.17-.17.76-1.77,2.4-2.77,3.84-3.76,1.65-1.13,3.32-2.67,5.66-2.35a.8.8,0,0,0,.58-.09c1.85-1.48,4-.46,6-.72.8-.1,1.8.61,2.57,1.13a13,13,0,0,1,4.86,6.8c.4,1.14.28,2.45,1.06,3.55.18.25-.19.92-.37,1.38s-.6.85-.58,1.26c.12,2.5-1.34,4.3-2.64,6.17a23.3,23.3,0,0,0-2,3,8.56,8.56,0,0,1-4.47,4.28C97.46,40.22,95.26,41.36,92.68,41.16Zm-3.14-7.79a6.38,6.38,0,0,0,1.66-1.22c1.42-2.1,2.73-4.26,4.07-6.41,1-1.55,2-3.07,2.82-4.69a2,2,0,0,0-.18-1.91,2.21,2.21,0,0,0-1.92,0,11.33,11.33,0,0,0-2.68,1.72q-3.25,2.71-6.38,5.58c-.34.3-.66,1.14-.49,1.38.46.64,1,.12,1.53-.2a5.27,5.27,0,0,1,1.47-.34c.13.62.49,1.31.33,1.85a14.26,14.26,0,0,1-1.28,2.27c-.2.39-.44,1-.29,1.27S89,33.08,89.54,33.37ZM103,25.9c-.73-.6-1.11-1.16-1.59-1.25-.81-.15-1.06.54-1,1.24s.17,1.52,1,1.39C101.94,27.21,102.33,26.55,103,25.9Z"></path><path d="M70.79,70.1c1.12.47,1.74-.19,2.5-.88A23.93,23.93,0,0,0,78,63c.48-.86,1.08-1.65,1.62-2.48,1.63-2.55,6.25-2.49,7.67.16.25.46-.06,1.22-.11,1.84a4,4,0,0,1-1.43-.4A3.08,3.08,0,0,0,81.5,63a2.17,2.17,0,0,1-.57.76,9.59,9.59,0,0,0-2.72,4,9.38,9.38,0,0,1-1.72,2.09,12.93,12.93,0,0,1-1.79,1.76,7,7,0,0,1-2,1C69.91,73.39,67,73.82,65.6,77c-.34.76-1.75,1.06-2.7,1.52-.14.06-.64-.23-.64-.36a1.62,1.62,0,0,1,.32-1c1.05-1.27,2.42-2.37,3.14-3.8,1-1.88,2.85-2.11,4.27-3.15C70.19,70.11,70.52,70.15,70.79,70.1Z"></path><path d="M90.37,72a13.89,13.89,0,0,1,1,2.68,9.25,9.25,0,0,1,0,3.48c-.23,1-1.09,1-1.81.22-1.17-1.28-1.36-1.23-2.59.06-.35.38-1.22.74-1.56.56-.72-.39-.41-1.11-.1-1.78a36.43,36.43,0,0,0,1.53-3.78c.58-1.68,1-3.4,1.61-5.08a1,1,0,0,1,.75-.61,1,1,0,0,1,.75.59c.4,1.14.71,2.31,1.06,3.46Z"></path><path d="M45,86.54a45.61,45.61,0,0,1-5.61-.05,15,15,0,0,1-4.08-1.4c-.29-.13-.28-.92-.41-1.41.53-.09,1.28-.45,1.54-.22a4.77,4.77,0,0,0,3.4.82c2.19,0,4.38,0,6.58-.06.27,0,.64-.06.81.08,1.26,1,2.72.65,4.13.66a4.7,4.7,0,0,1,1.17.34,4.73,4.73,0,0,1-.88,1.16,2.11,2.11,0,0,1-1.15.16H45Z"></path><path d="M92.41,69.19a5.4,5.4,0,0,1,.12-1.07c.34-1.13,1.12-1.33,1.91-.46s1.6,1.44,1.29,2.66c-.12.49-.36,1.23-.68,1.32a2.16,2.16,0,0,1-1.75-.33,7.14,7.14,0,0,1-1.07-2Z"></path><path d="M69,85.18c-.37,1.07-1,1.71-2,1.63-.23,0-.44-.26-.66-.4.15-.2.25-.53.45-.59C67.48,85.56,68.23,85.39,69,85.18Z"></path><path d="M15,81.63a4.62,4.62,0,0,1-1.38,0c-.44-.13-1.06-.41-1.16-.76a1.73,1.73,0,0,1,.37-1.47,1.51,1.51,0,0,1,1.47-.07A3.22,3.22,0,0,0,17,80a1.42,1.42,0,0,1,1.15.82c.15.75-.48,1-1.16,1S15.59,81.68,15,81.63Z"></path><path d="M56.51,52.42l-.93-.89c.33-.2.66-.56,1-.57s.59.38.88.59Z"></path><path d="M95.3,22.19c-.36.45-.73.89-1.07,1.35a16.86,16.86,0,0,1-1.16,1.61c-.24.25-.71.29-1.07.43-.13-.4-.51-1-.36-1.18C92.54,23.28,93.46,22.1,95.3,22.19Z"></path></svg>