<svg xmlns="http://www.w3.org/2000/svg" id="Layer_1" data-name="Layer 1" viewBox="0 0 129.59 122.83"><title>AsimovMarketingIcon-bt-omar bahaa</title><path d="M.79,77.49V58.05c-1.38-3.58-.5-7.3-.65-11s-.06-7.36,0-11a10.42,10.42,0,0,1,.49-2,5.61,5.61,0,0,0,.15-1.29C.72,30.37.74,28,2,25.83a29.29,29.29,0,0,0,1.46-3.76,2.73,2.73,0,0,1,.63-.85c1-1.06,2.06-2.13,3.14-3.13a9.34,9.34,0,0,1,5.37-2.6,33.19,33.19,0,0,0,4.55-1.21,3.78,3.78,0,0,1,.95-.09H67.92c2,0,3.33,1.23,3.17,3a1.62,1.62,0,0,1-.6,1.19c-.88.45-1.88.67-2.78,1.08-1.92.87-3.94.71-5.93.63-.94,0-1.87-.61-2.8-.6-5.07,0-10.11-1.39-15.16-.68C34.93,20,26,19,17.13,19.47c-1.7.09-3.36,1-5,1.61a8.36,8.36,0,0,0-1.45.76A10.27,10.27,0,0,0,6.78,26.6c-.6,1.32-.45,3-.8,4.43-1.44,6.1-.44,12.27-.62,18.41s0,12.47,0,18.71,0,12.4,0,18.6c0,.74.45,1.47.53,2.22.11,1.11,0,2.24.14,3.34.27,2.17.7,4.38,2.49,5.84a6.18,6.18,0,0,0,3.05,1.27c13.22,1.53,26.5.36,39.76.71,6.73,1.5,13.55.44,20.32.64s13.6,0,20.4,0c1.54,0,2.8-.91,4.22-1.12,2.39-.35,3.41-2.31,4.9-3.7a9,9,0,0,0,2.37-4.6c.3-1.26.82-2.46,1.21-3.7a3.46,3.46,0,0,0,.12-1.06c0-5.6-.26-11.22.12-16.79.15-2.2.49-4.42.54-6.65,0-.28.1-.63,0-.83-1.22-1.88-.46-3.95-.61-5.93-.14-1.82.73-2.63,2.52-2.63s3.68,0,5.52,0a2.69,2.69,0,0,1,2.52,2.46q0,15.9,0,31.8c-1.09,1.72-.25,3.83-1.23,5.63-.91,1.65-1.38,3.54-2.23,5.23-.41.82-1.31,1.38-1.91,2.12a13.51,13.51,0,0,1-5.53,3.7,36.43,36.43,0,0,1-5,1.38c-4.19,1.13-8.38.34-12.56.53-3.67.18-7.36,0-11,.09a6.21,6.21,0,0,0-2.78,1,2.28,2.28,0,0,0-.69,1.52,19.05,19.05,0,0,0,0,2.27c0,1,.27,2.07-.58,3-.19.19-.12.69-.09,1a4.47,4.47,0,0,1-1.57,3.78c-1,.94-2.14,1.72-3.21,2.56-.07,0-.13.12-.2.13a19.9,19.9,0,0,1-3.75.74c-6.24.08-12.48,0-18.72,0a3,3,0,0,1-3.28-2.63c0-.08,0-.18-.05-.24-.62-.85-1.11-1.72-.07-2.61a13.58,13.58,0,0,1,2.19-1.77,4,4,0,0,0,1.93-3.17,16.57,16.57,0,0,0,0-3.23,2.3,2.3,0,0,0-2.55-2.47c-10.35,0-20.71.07-31.07-.07a10.58,10.58,0,0,1-5.29-1.54,12.93,12.93,0,0,1-2-1.36c-1.49-1.36-2-3.24-2.79-5-.92-2.13-.5-4.22-.54-6.31-.11-5,0-9.92,0-14.88Zm56.37,33.23c-1.87,0-3.75,0-5.62,0-.37,0-.91.08-1.07.32a5.21,5.21,0,0,0-.82,3.82c0,.24.24.58.43.63a18,18,0,0,0,3.52.71,50.41,50.41,0,0,0,7.06,0c1.48-.14,3.17-.42,3.77-2.25.44-1.33.16-3.31-1.88-3.24C60.76,110.77,59,110.72,57.16,110.72Z"></path><path d="M53.71,87.22c-12.32,0-24.64,0-36.95-.06a7.89,7.89,0,0,1-4.9-1.91c-.49-.4-.89-.91-1.37-1.34-1.2-1.06-1.29-2.58-1.66-4-.13-.52-.32-1-.45-1.53a4.63,4.63,0,0,1-.2-1.15c0-14.52-.06-29,.05-43.56,0-1.53.95-3.06,1.45-4.6.78-2.37,2.93-3.22,4.91-4A12.57,12.57,0,0,1,19,24.3c4.12-.1,8.34.51,12.33-.19,4.15-.74,8.22-.23,12.31-.49a15.49,15.49,0,0,1,3.8.46,18.15,18.15,0,0,0,7.73,0c2.17-.56,4.23-.23,6.32-.49a1,1,0,0,1,.67.16c.88.77,1.61.35,2.59.06a12.1,12.1,0,0,1,4.38-.16c.55.05,1.16.69,1.52,1.22s.53,1.31.3,1.6c-1.19,1.52-2.5,3.09-4.69,3-3.58-.16-7.15-.57-10.73-.63-6.67-.1-13.35,0-20,0-3.43-1.25-7-.53-10.49-.66a6.78,6.78,0,0,0-6.23,4.53c-.42,1.65-.49,3.38-.76,5.07-.11.71-.37,1.4-.52,2.11A5.13,5.13,0,0,0,17.4,41c0,1.56.43,3.3-.12,4.64-.82,2-.49,3.91-.53,5.85-.08,5.4-.23,10.81.08,16.19a43.61,43.61,0,0,0,.67,5.67,20.67,20.67,0,0,0,2,4.8c.17.33.74.53,1.16.67a13,13,0,0,0,3.73,1.09c7.4.1,14.8,0,22.2.08,1.18,0,2.35.6,3.53.62,5.44.07,10.89-.23,16.31.15,2.32.16,4.66.55,7,.55,5.88,0,11.76,0,17.64,0a4.44,4.44,0,0,0,4.36-4.42c-.09-3,0-6.08,0-9.12,0-1.34,1.12-3,2.4-3.16.44-.06,1.23.66,1.45,1.19a14.53,14.53,0,0,1,.58,7.93c-.39,2.31-.07,4.7-.66,6.87a8,8,0,0,1-4.91,5.8,13.63,13.63,0,0,1-4.34.73c-12.08.06-24.16,0-36.24,0Z"></path><path d="M75.29,16.78c0-2.83-.09-5,0-7.23a7.68,7.68,0,0,1,4.32-6.89c.76-.39,1.4-1,2.16-1.38A9.09,9.09,0,0,1,83.54.76,9.36,9.36,0,0,1,85.63.21c1.71,0,3.45-.55,5.14.29a2.21,2.21,0,0,0,1.69.08,5.81,5.81,0,0,1,5.08,0c.11.05.24.14.33.13a5.15,5.15,0,0,1,4.31,1.42,13.73,13.73,0,0,1,3.09,3.09c2,3.12,1.46,6.69,1.34,10.12,0,.7-1.13,1.39-1.79,2a7.83,7.83,0,0,1-1.08.67c-.71.48-1.4,1-2.1,1.47-.16.12-.36.24-.43.41-.87,2-3,3.22-3.39,5.67a29.62,29.62,0,0,0-.54,3.54c0,.33.24.67.37,1a3.84,3.84,0,0,0,.54-.77c.45-1.31.81-2.65,1.31-3.94a12.53,12.53,0,0,1,1.21-2.13c.49-.75,1-1.46,1.56-2.18a2.55,2.55,0,0,1,.66-.69,46.82,46.82,0,0,1,4.87-2.76,14.4,14.4,0,0,1,3.73-.79,14,14,0,0,1,2.15,0,15,15,0,0,1,6.18,1.46,12.6,12.6,0,0,1,5.29,3.86c1,1.29,2.22,2.41,2.41,4.18,0,.39.43.73.61,1.12a17.31,17.31,0,0,1,1.3,9.19,11.63,11.63,0,0,1-1.53,4.09,20.76,20.76,0,0,1-2.73,4.06,10.21,10.21,0,0,1-2.95,2.08,46.56,46.56,0,0,1-4.46,1.94,4.64,4.64,0,0,1-1.3.09c-.93.06-1.9-.22-2.73.56-.23.21-.84.1-1.26,0-.82-.15-1.64-.38-2.46-.58-2.42-.57-4.85-1.22-6.26-3.48a5.83,5.83,0,0,1-.28-2.68,6.24,6.24,0,0,0-3.57-5.26c-1.81-.75-1.8-.75-1.81-2.74,0-2.93.37-2.62-2.62-2.63-3.84,0-7.68.1-11.51,0a5.79,5.79,0,0,1-4-1.56,9.36,9.36,0,0,0-1.63-1.11c-.13-.09-.33-.16-.37-.28-.5-1.3-1.57-2.21-2.09-3.58C74.68,22.44,75.78,19.27,75.29,16.78Zm17.83-4.09A19.74,19.74,0,0,0,93.4,10c0-1,.37-1.19,1.27-1.24A2.45,2.45,0,0,0,96.47,8a3.74,3.74,0,0,0,.15-2.26c0-.2-.87-.34-1.36-.38-.75-.07-1.52,0-2.27,0a4.34,4.34,0,0,0-4.43,4.45c0,.68,0,1.36,0,2a1.52,1.52,0,0,1-1.46,1.59c-1.58.23-2,.8-1.92,2.51.08,1.11.77,1.7,2.17,1.65,1,0,1.25.32,1.22,1.25-.06,2.08,0,4.16,0,6.24,0,1,0,1.69,1.21,2.19a2.51,2.51,0,0,0,3.66-2.07c0-2.2,0-4.4,0-6.6,0-1.66,0-1.66,1.61-1.66s1.75,0,1.75-1.71c0-.2,0-.4,0-.6A1.71,1.71,0,0,0,95,12.7C94.3,12.68,93.64,12.69,93.12,12.69ZM120.6,28.31c-.29-.16-.75-.42-1.23-.67a4.63,4.63,0,0,0-1.47-.71,6.06,6.06,0,0,0-2.89.16,3.89,3.89,0,0,0-1.45,2.06c-.27.69-.5,1.14-1.31,1a6.49,6.49,0,0,1-2-.28,18.9,18.9,0,0,1-2.42-1.72c-1.79,1.37-1.81,1.44-1.22,3.22,0,.15,0,.33,0,.47.54,1.38.58,2.95,1.89,4s1,1.71-.53,2.37c-.29.13-.47.52-.7.78.33.22.64.62,1,.64,1.28.07,2.58-.1,3.84.06,2.25.28,3.68-1.31,5.19-2.39,1.09-.78,1.56-2.45,2.23-3.76a7.19,7.19,0,0,0,.68-2.07C120.45,30.49,120.49,29.45,120.6,28.31Z"></path><path d="M87.63,61c-3.24,0-6.48.07-9.71,0-2.6-.08-4.39-1.69-5.89-3.63-.16-.21-.09-.62-.09-.93,0-4.24-.09-8.48,0-12.71a5.55,5.55,0,0,1,1.48-3.91,5.09,5.09,0,0,1,3.83-1.48c5.24.06,10.49-.26,15.7.15,2.36.18,4.9.11,7.18,1.2A3.55,3.55,0,0,1,102,42.5c.13,1.31.58,2.6.62,3.91.1,3.15.16,6.32,0,9.46a7.62,7.62,0,0,1-1.32,3.5c-.88,1.34-2.55,1.53-4,1.61C94.11,61.14,90.86,61,87.63,61Zm-3.35-5.94a6.26,6.26,0,0,1,.91-.58c1-.44,2.09-.8,3.09-1.28a24.88,24.88,0,0,0,2.93-1.67,5.58,5.58,0,0,0,1.35-1.35c.53-.7.16-1.51-.65-2a9.84,9.84,0,0,1-2.68-1.85c-1.17-1.35-2.83-1.82-4.26-2.69a1.71,1.71,0,0,0-1.63.33,8.86,8.86,0,0,0-.78,3c-.12,1.46.09,3-.06,4.42A3.59,3.59,0,0,0,84.28,55.09Z"></path><path d="M52.09,45.75c.27.75.56,1.5.78,2.26A4.59,4.59,0,0,1,53,49.07c.07,1-.29,2.14.58,3.07.21.23.07.77.09,1.17.06,1-.28,2,.6,2.82,0,0,0,.14.06.22.23,2,.44,4.11.7,6.16a11,11,0,0,0,.42,1.43c.1.37.16.75.25,1.13a17.68,17.68,0,0,1,.56,2.45,9.66,9.66,0,0,1,0,3.31c-.31,1.11-1.48,1-2.46,1a1.22,1.22,0,0,1-1.39-.9A32,32,0,0,1,51,67.08a19.2,19.2,0,0,1-.53-3.8C50.28,61,47.12,58.4,45,59.12a5.79,5.79,0,0,0-2.67,2.54C41,64,40,66.49,38.74,68.9a2.25,2.25,0,0,1-3.05.58c-1.53-1.17-1.68-2.08-.83-3.87.58-1.22,1-2.53,1.5-3.76a66.94,66.94,0,0,0,3.13-7,54.45,54.45,0,0,1,2.24-5.11c.45-1,1-2,1.44-3.07.65-1.44,1.25-2.91,1.92-4.34a15.82,15.82,0,0,1,1.25-2.24c1.29-1.81,3.38-1.4,4.38.41a35.94,35.94,0,0,1,1.9,5.05ZM46.7,55.16a5.77,5.77,0,0,1,.72,0,2,2,0,0,0,2.37-2.41c-.26-1.56-.39-3.14-.77-4.67a1.25,1.25,0,0,0-2.34-.45,9.4,9.4,0,0,0-1.07,2.18c-.42,1.1-.66,2.28-1.16,3.33s-.18,2,1.06,2C45.91,55.17,46.31,55.16,46.7,55.16Z"></path><path d="M56.5,45.05c0-2,1.15-3.33,2.93-3.34,1.09,0,2.91,2,3,3.26a3.4,3.4,0,0,1-3.32,3.32C57.46,48.22,56.5,47.09,56.5,45.05Z"></path><path d="M54.44,92.09c1.82,0,2.57.77,2.57,2.62A2.69,2.69,0,0,1,54.5,97.3c-1.82,0-3.42-1.25-3.39-2.63S52.66,92.09,54.44,92.09Z"></path></svg>