<svg xmlns="http://www.w3.org/2000/svg" id="Layer_1" data-name="Layer 1" viewBox="0 0 127 134.03"><title>AsimovMarketingIcon-bt-omar bahaa</title><path d="M126.88,84.34q0,15.54,0,31.08c0,1.38.28,2.76-.67,4a1.52,1.52,0,0,1-1.44.78,6.56,6.56,0,0,0-1.76.43c-.07,0-.13.11-.2.13-1.46.31-2.93.62-4.39.91a5.74,5.74,0,0,0-.6,0c-1.41.44-2.81,1-4.24,1.35s-3,.57-4.44.92c-1,.23-2,.59-2.93.89-1.41.43-2.82.88-4.24,1.29a8.91,8.91,0,0,1-1.17.12,11.19,11.19,0,0,0-1.16.18c-.74.16-1.48.31-2.2.53a11.18,11.18,0,0,0-2.84,1c-1.31.87-2.68.58-4,.54a5.51,5.51,0,0,0-3,.57,10.25,10.25,0,0,1-2.71.67L80,131c-.42.1-.82.24-1.24.35s-1,.27-1.47.37-.86,0-1.16.17a3.63,3.63,0,0,1-3,.56,1.91,1.91,0,0,0-.91.24c-.18.07-.33.26-.51.3a35.8,35.8,0,0,1-5.15,1c-2.55.17-5.12-.05-7.67.06a5.46,5.46,0,0,1-5.17-2.82,4.82,4.82,0,0,0-6.72-2,2.25,2.25,0,0,1-1,.22l-23.86,0c-1.43,0-4.51-1.76-4.52-3.06,0-1,.93-2,1.53-3,.16-.26.64-.31.92-.53,1-.78.85-1.34-.21-2a5.05,5.05,0,0,0-3.31-.69,4.54,4.54,0,0,1-3.32-.66,2.63,2.63,0,0,0-1.4-.2,30.05,30.05,0,0,1-5,0c-2.57-.45-5.35-.73-6.53-3.77a2.06,2.06,0,0,1,.39-2.47c1.55-1.73,3.6-2.61,5.61-3.58a39.31,39.31,0,0,1,4.84-2c1.4-.45,2.9-.56,4.34-.91a16.58,16.58,0,0,0,3.6-1.14,2.3,2.3,0,0,0,1-1.76c.05-6.76,0-13.51,0-20.27,0-1.5.53-2.07,2.05-2.13a8.33,8.33,0,0,0,1.8-.45c.42-.1.83-.23,1.25-.3s.72.08.94-.08c1.72-1.18,3.62-.6,5.46-.65,1.26,0,1.59-.33,1.59-1.54Q33,60.44,33,42.63c0-8.16,0-16.32,0-24.48,0-.44,0-.88,0-1.32-.15-2.84,1.2-4.33,4-4.42a1.42,1.42,0,0,0,.36,0c1.4-.44,2.79-.92,4.2-1.32s2.73-.69,4.09-1.08c1.58-.45,3.13-1,4.72-1.41s3.08-.5,4.6-.86,2.82-.85,4.23-1.27c.38-.12.78-.17,1.16-.27.64-.16,1.27-.34,1.91-.53.22-.07.45-.28.65-.25,1.81.25,3.24-.86,4.87-1.27s3.06-.6,4.58-.94c1.22-.28,2.42-.63,3.64-1,1.71-.46,3.58-.62,5.09-1.44,2-1.09,4-.37,6-.76a1.7,1.7,0,0,1,.71,0c2.22.69,4.43,1.42,6.65,2.09a24.67,24.67,0,0,1,3.82,1c1.7.83,4,.12,5.23,2A3,3,0,0,1,104,6.69c0,8.64,0,17.27-.06,25.91q0,6.36,0,12.72c0,1.31.28,1.68,1.63,1.58a22.15,22.15,0,0,0,2.71-.64,4.79,4.79,0,0,1,1.83-.15c1,.2,1.87.64,2.82.94,2.17.67,4.34,1.34,6.52,2s4.19,1.13,6.27,1.74a1.77,1.77,0,0,1,1.3,1.92q0,15.82,0,31.66ZM102,27.19h0c0-6.08,0-12.16,0-18.24,0-.48-.42-1.28-.79-1.37a5.16,5.16,0,0,0-2.47,0c-1.75.43-3.47,1-5.2,1.56l-2.25.7-2.13.6a10.83,10.83,0,0,1-1.26.26,8.76,8.76,0,0,0-1.16.12c-1.45.43-2.89.9-4.33,1.34-.19.05-.4,0-.59.05-.57.13-1.14.28-1.69.46-1,.32-2,.76-3,1-1.53.36-3.09.57-4.62.89a24.28,24.28,0,0,0-3.18.81c-1.78.63-3.41,1.69-5.44,1.4-.38-.06-.82.27-1.24.39-1.4.38-2.8.73-4.21,1.1-.3.08-.6.2-.9.28a11.12,11.12,0,0,1-2,.46,2.1,2.1,0,0,0-2.11,2.13c0,3.27.07,6.55.06,9.83q0,26-.09,52a1.2,1.2,0,0,0,1.12,1.38c1.41.31,2.7,1.19,4.25.81.16,0,.37.15.56.18,1,.2,1.92.37,2.87.57a10.07,10.07,0,0,1,2.22.59c1,.5,1.67.23,1.66-.92,0-3.16-.18-6.32,0-9.47a9.74,9.74,0,0,1,1.33-4.17A11,11,0,0,1,70.15,69a6.55,6.55,0,0,1,2.91-1.52c1.15-.17,1.4-.6,1.37-1.59-.06-3.16-.12-6.32-.13-9.48a1.38,1.38,0,0,1,.49-1.08,10.08,10.08,0,0,1,2.32-.91c1.12-.31,2.29-.47,3.41-.79,1.42-.39,2.8-.92,4.22-1.31,2.06-.55,4.15-1,6.21-1.56,2.84-.76,5.68-1.57,8.51-2.38A3.41,3.41,0,0,0,102,45.06C102,39.1,102,33.15,102,27.19Zm-8.1,66.29h0q0,13.92,0,27.83c0,.92-.07,1.84,0,2.76,0,.76.38,1.55,1.26,1.45a20.21,20.21,0,0,0,3.42-.8c1.39-.39,2.75-.86,4.12-1.29.11,0,.25,0,.36,0,.71-.16,1.41-.34,2.11-.52.31-.07.61-.16.91-.24l2.13-.5,1.14-.26c.57-.12,1.13-.24,1.69-.39.38-.09.74-.24,1.12-.34,1.35-.34,2.72-.66,4.06-1s2.84-.8,4.25-1.23a14.5,14.5,0,0,0,3.31-1.12,2.65,2.65,0,0,0,1-2c.06-6,0-11.92,0-17.88q0-21.12,0-42.23c0-1.23-.4-1.75-1.56-1.51-1.68.36-3.34.79-5,1.08s-3.22,1.48-5.1,1.36c-.27,0-.57.24-.86.37a5.17,5.17,0,0,1-1,.4c-1.48.28-3,.46-4.46.81-1.69.41-3.34,1-5,1.46-1.28.37-2.58.71-3.87,1a9.5,9.5,0,0,1-1.93.46,2,2,0,0,0-2.18,2.15ZM21.15,111.81h0c0,1.52,0,3,0,4.55a6,6,0,0,0,.34,1.61c.63,2,2.57,1.9,4,2.36a28.85,28.85,0,0,0,3.28.67,45.59,45.59,0,0,1,5.33.89c1.58.51,3.38.36,4.91,1a8.15,8.15,0,0,0,3.72.53c.31,0,.73-.06.92.11a4.43,4.43,0,0,0,3.17.78,6.49,6.49,0,0,1,1.24.37c1.81.39,3.63.76,5.44,1.13,0,0,.08,0,.12,0,2.07.08,4,1.17,6.13.82.06,0,.14.09.21.11l2.1.56,1.14.3c.71.18,1.43.37,2.15.51.43.08,1-.09,1.28.13,1.13.91,2.41.7,3.68.69,1.52,0,1.75-.25,1.75-1.73,0-7.12,0-14.24,0-21.36,0-1.57-.42-3.2.56-4.67a1.12,1.12,0,0,0,.07-.59c0-1.39,0-2.79,0-4.19,0-1.93-1.2-2.95-3.09-3a49.54,49.54,0,0,1-5.66-.74c-.26,0-.48-.29-.74-.38a3.91,3.91,0,0,0-1.14-.33c-1.65,0-3.1-1.22-4.84-.79-.24.06-.57-.25-.86-.37a3.88,3.88,0,0,0-1.11-.42c-1.41-.06-2.88.26-4.13-.73-.13-.09-.39,0-.59,0-1.65-.23-3.31-.48-5-.73-.11,0-.2-.14-.31-.17-.9-.21-1.81-.42-2.71-.6-.69-.13-1.4-.19-2.08-.34-1.87-.4-3.72-.83-5.58-1.24-.11,0-.24.07-.36,0l-5.26-.91s-.07-.06-.1-.07A11.63,11.63,0,0,0,26.82,85,4.76,4.76,0,0,1,24,84.33c-1.19-.8-2.09-.24-2.09,1.2q0,8.58,0,17.16c0,1.21.41,2.48-.64,3.51-.16.15-.11.54-.11.81C21.14,108.61,21.15,110.21,21.15,111.81ZM34.94,47.68v.6q0,14.94,0,29.87c0,1.54,1.64,3,3.12,3.16,1.87.25,3.66,1,5.59.79.23,0,.47.3.73.39a9.64,9.64,0,0,0,1.57.44c1,.18,2.08.32,3.12.41a1.59,1.59,0,0,0,1.08-.26,1,1,0,0,0,.2-.94c-.86-1.17-.44-2.47-.44-3.72q0-19.62,0-39.24c0-1.29.46-2.6.3-3.86a9.26,9.26,0,0,1,.2-4.79c.1-.26-.05-.62-.09-.93-.09-.7-.22-1.4-.26-2.1s.14-1.43-.79-1.43-.77.77-.75,1.36c0,1.91.18,3.82.13,5.73a2.82,2.82,0,0,1-.83,1.75c-.79.77-1.56.18-2.21-.38s-.45-1.08,0-1.68a2.64,2.64,0,0,0,.52-1.4c.06-2.12,0-4.24,0-6.36A2.06,2.06,0,0,0,44.47,23c-1.44-.45-2.84-1-4.29-1.43-.49-.15-1.23-.28-1.53,0a2.3,2.3,0,0,0-.56,1.57c0,1.6.31,3.25,0,4.78-.56,2.85,1.92,4.32,4.13,4.88a2.39,2.39,0,0,1,.88.46s-.12.56-.23.58a2.26,2.26,0,0,1-1.1-.07c-1.2-.49-2.36-1.09-3.57-1.57-1-.4-2-1.58-1.52-2.36.91-1.56.58-3.19.57-4.79a11.09,11.09,0,0,0-.45-3.14c-.4-1.31,0-1.88,1.4-2.06a8.74,8.74,0,0,1,4,.83c2,.66,3.9,1.33,5.79,2.13.67.27,1.24.56,1.64-.17s1.24-1.41.2-2.42a6.18,6.18,0,0,0-3-1.33c-2.34-.63-4.43-2.16-7-2a.7.7,0,0,1-.44-.16c-.89-.93-2-.73-3.15-.82s-1.36.36-1.36,1.33Q34.94,32.45,34.94,47.68ZM91.19,93.9h0q0-14.76,0-29.52a3.56,3.56,0,0,0-3.12-3.91c-1.73-.39-3.43-.91-5.13-1.4-1.06-.3-2.1-.67-3.14-1a12.93,12.93,0,0,1-2-.63c-1-.48-1.55-.19-1.58.92,0,.59.09,1.19.09,1.79q0,11,0,22.08c0,1.8,0,3.6,0,5.4,0,.69.1,1.2,1,1.37a47,47,0,0,1,4.81,1.21,1.76,1.76,0,0,1,1.05,2.68c-.61,1-.92,1.91-.19,3,.09.14,0,.39,0,.59-.13,1.13-.36,2.26-.38,3.39-.08,7.39-.11,14.79-.16,22.19a2,2,0,0,0,1.49,2.06c1.55.52,3.06,1.16,4.63,1.59,2.06.57,3,0,2.69-1.89a8,8,0,0,1,0-1.2ZM74,115h0v12.22c0,1.4.28,1.57,1.66,1.74a5.85,5.85,0,0,0,3.58-1,2.14,2.14,0,0,0,1.25-2.11q0-9.78,0-19.54c0-1.45-.35-2.95.6-4.29.16-.22.1-.62.1-.94,0-2.43,0-4.86,0-7.29,0-.88-.35-1.34-1.2-1.19-1.55.26-3.08.59-4.61,1a1,1,0,0,0-.56.8,12.57,12.57,0,0,1-.61,4.77,14.52,14.52,0,0,0-.22,4.39C74,107.29,74,111.12,74,115Z"></path><path d="M28.15,70.59a15.64,15.64,0,0,1,0,2.74c-.09.52-.6,1-.93,1.45-.35-.35-.83-.65-1-1.08a17.78,17.78,0,0,1-1.59-3.94,13.54,13.54,0,0,1,0-4c0-.25.82-.6,1.26-.6a2.17,2.17,0,0,1,1.41.57C28.6,67.11,28.08,68.91,28.15,70.59Z"></path><path d="M29.73,62.31c.43.68.88,1.1.8,1.32a4.71,4.71,0,0,1-1,1.17c-.25-.29-.73-.61-.7-.85A6.7,6.7,0,0,1,29.73,62.31Z"></path><path d="M100.44,72.84c-.52-2.24.51-4.17,1.41-6a10.39,10.39,0,0,1,2.52-2.57c1.83-1.67,4.39-1.69,6.47-2.81a2.18,2.18,0,0,1,1.63,0c2.47,1,5,2.15,6.3,4.5.84,1.57,2.34,3.44.82,5.63a15.36,15.36,0,0,0-1.16,3.11,9.31,9.31,0,0,1-4.09,4.52c-1.09.67-2,1.5-3.45,1.22a.9.9,0,0,0-.64.29,1.69,1.69,0,0,1-2.46,0,2,2,0,0,0-1.35-.34,4,4,0,0,1-4.35-2.23A12.53,12.53,0,0,1,101,76.38c-.39-1.13-.63-2.31-.93-3.47Zm13.17,1.93c-.47-1.5-.8-2.76-1.26-4a25.21,25.21,0,0,0-1.6-3.41c-.18-.32-.92-.68-1.15-.56a2.59,2.59,0,0,0-.94,1.24c-.25.57-.31,1.22-.53,1.82-.62,1.74-1.33,3.45-1.88,5.22-.13.45.23,1.06.37,1.59a4.89,4.89,0,0,0,1.52-.61c.39-.34.49-1,.83-1.43s.91-1.11,1.23-1a2.32,2.32,0,0,1,1.23,1.22c.3.61.52,1.33,1.29,1.09C113.13,75.8,113.36,75.11,113.61,74.77Z"></path><path d="M67.24,110.39c.32,2.66-1,4.73-2.54,6.61-2.06,2.5-6.75,2.43-9,.33A29.58,29.58,0,0,1,52.8,114a2.94,2.94,0,0,1-.58-2.82.56.56,0,0,0,0-.46c-1.07-1.44-.2-3,0-4.33A6.75,6.75,0,0,1,55.82,102a5.93,5.93,0,0,1,5.93-.08A9.48,9.48,0,0,1,67,107.56,13.25,13.25,0,0,1,67.24,110.39Zm-7.77,1.51V112c.83,0,1.67.06,2.5,0s1.28-.9.63-1.52c-1.61-1.54-3.3-3-5-4.43-.27-.22-.78-.15-1.17-.22a3.54,3.54,0,0,0,.25,1.38c1,1.47.85,2.23-.82,2.89-.56.22-1.33.43-1,1.16a2,2,0,0,0,1.48.78A24.73,24.73,0,0,0,59.47,111.9Z"></path></svg>