<svg xmlns="http://www.w3.org/2000/svg" id="Layer_1" data-name="Layer 1" viewBox="0 0 83.2 89.76"><title>AsimovMarketingIcon-bt-omar bahaa</title><path d="M46.28,77.79c-2.46.34-4.88.75-7.32,1-1.42.15-2.88-.1-4.3,0-2.71.27-5.4.71-8.11,1-1.33.17-2.63.38-3.81-.74a14.84,14.84,0,0,0-2.93-1.85c-3.69-2.15-7.4-4.26-11.08-6.42-1.76-1-3.49-2.11-5.2-3.21a2,2,0,0,1-1-2.45c.32-1-.3-1.55-1-2C-.19,62-.22,61.6.29,59.65c.57-2.14.92-4.34,1.38-6.52q.53-2.51,1.08-5c.6-2.8,1.19-5.61,1.83-8.4.44-1.94,1-3.86,1.42-5.8.52-2.33,1-4.67,1.45-7C8.17,23.47,8.86,20,9.6,16.63c.52-2.36,1.14-4.7,1.66-7.06q.87-3.9,1.63-7.83C13.18.21,14-.41,15.51.28c1.65.77,3.21,1.77,4.79,2.7C23.54,4.87,26.77,6.8,30,8.69c1.86,1.08,3.7,2.21,5.65,3.11a5.83,5.83,0,0,0,2.5,0c.63,0,1.26-.13,1.89-.22,1-.13,2-.35,3-.41,1.31-.08,2.63.05,3.93-.07,2.87-.26,5.72-.71,8.59-.93,1.83-.14,3.73-.52,5.45.68,1.14.8,2.36,1.49,3.55,2.23a1.39,1.39,0,0,0,.52.28c2.85.43,4.88,2.47,7.28,3.76s4.52,2.71,6.77,4.08c1.41.85,1.54,1.22,1.25,2.81a1.62,1.62,0,0,0,.35,1.15A7.3,7.3,0,0,0,82,26.1c1.29.95,1.38,1.45,1,3s-.75,3.34-1.12,5C80.5,40.4,79.12,46.71,77.77,53c-1.06,5-2,9.92-3.12,14.87-.82,3.78-1.73,7.54-2.57,11.32-.44,2-.82,4-1.24,6-.22,1-.48,2.07-.7,3.11a1.59,1.59,0,0,1-2.48,1.19q-8-4.76-16.07-9.55a35.56,35.56,0,0,0-3.22-1.84A7.93,7.93,0,0,0,46.28,77.79ZM60.2,13.59c-.32.27-.73.46-.85.76a11.85,11.85,0,0,0-.5,2c-.65,3.1-1.27,6.22-1.93,9.32-.33,1.52-.77,3-1.08,4.54-.56,2.69-1,5.39-1.6,8.08-.44,2.1-1.05,4.16-1.5,6.26-.7,3.22-1.3,6.47-2,9.69-.64,2.95-1.35,5.89-2,8.84-.47,2.08-.95,4.16-1.4,6.25a1.78,1.78,0,0,0,1,2.12c1.13.59,2.3,1.12,3.4,1.78,4,2.42,8.06,4.88,12.09,7.32.9.55,1.53.26,1.73-.76.26-1.33.49-2.66.79-4,.54-2.32,1.18-4.63,1.68-7,1-4.67,2-9.35,3-14,1-5.07,2.07-10.15,3.15-15.21.67-3.16,1.43-6.3,2.15-9.45.42-1.85.9-3.69,1.24-5.55a1.58,1.58,0,0,0-.63-1.26c-1.67-1.09-3.4-2.09-5.12-3.11-2.7-1.62-5.4-3.25-8.13-4.84C62.52,14.74,61.4,14.21,60.2,13.59ZM2.88,60.23A6.39,6.39,0,0,0,4,61.2q7.68,4.65,15.39,9.27c1.12.67,1.69.44,2-.84.41-2,.74-4.07,1.19-6.08s1-3.77,1.44-5.67c.79-3.61,1.48-7.24,2.25-10.86.53-2.49,1.16-5,1.67-7.45.76-3.66,1.41-7.34,2.18-11,.9-4.28,1.87-8.55,2.81-12.82.14-.65.58-1.43.37-1.91s-1.13-.48-1.73-.7a.88.88,0,0,1-.22-.1c-2.19-1.31-4.39-2.6-6.57-3.93-2.69-1.64-5.37-3.31-8-4.95-.78-.48-1.36-.42-1.57.61s-.46,2.35-.74,3.52c-.51,2.12-1.11,4.22-1.58,6.35-.64,2.86-1.17,5.75-1.77,8.62-.55,2.61-1.15,5.21-1.7,7.81C8.66,34,8.1,36.93,7.46,39.84c-.52,2.42-1.17,4.8-1.7,7.22-.61,2.82-1.14,5.67-1.74,8.5C3.7,57,3.3,58.5,2.88,60.23ZM40,13.69v.11H38.57c-1.91,0-2.56.54-3,2.44-.15.73-.23,1.48-.39,2.22-.4,1.82-.86,3.63-1.24,5.45-.57,2.75-1.06,5.52-1.66,8.26-.55,2.48-1.26,4.93-1.77,7.41-.6,2.91-1,5.85-1.61,8.75C28,52.65,27,56.94,26.06,61.25c-.5,2.25-.94,4.52-1.44,6.77-.16.69-.51,1.35-.62,2.06S24,71.76,25,71.8a24.94,24.94,0,0,0,3.55-.26c2.9-.31,5.8-.67,8.7-1,2-.2,4.1-.24,6.13-.49A1.9,1.9,0,0,0,44.61,69a21.18,21.18,0,0,0,.55-2.79q1.17-5.53,2.38-11.07c.51-2.33,1.1-4.64,1.6-7,.58-2.72,1.08-5.46,1.66-8.18s1.25-5.34,1.81-8,1-5.53,1.61-8.27c.72-3.25,1.58-6.48,2.38-9.72.18-.74-.12-1.19-.85-1.27a6.27,6.27,0,0,0-1.43.07c-1.53.15-3.06.38-4.6.47C46.49,13.46,43.25,13.56,40,13.69Z"></path><path d="M75.09,84.06c-.69,1.56-1.29,3-2,4.38a.77.77,0,0,1-.7.31,1,1,0,0,1-.54-.69,3.5,3.5,0,0,1,.16-1.28,24.6,24.6,0,0,1,1-2.92,1.37,1.37,0,0,1,1-.73C74.42,83.17,74.71,83.68,75.09,84.06Z"></path><path d="M21.59,14.5a5.54,5.54,0,0,1,5.35,7.27,23.33,23.33,0,0,1-.53,2.54,7.4,7.4,0,0,1-7.38,4,5.68,5.68,0,0,1-3.65-3.46,11.65,11.65,0,0,1,.07-6.36,6.09,6.09,0,0,1,4.95-4Zm1.46,3.75c-.2-.22-.43-.7-.75-.77a1.42,1.42,0,0,0-1.08.47c-1,1.09-1.85,2.28-2.82,3.38-.49.56-1.4,1.09-.76,1.85s1.28,0,1.83-.52a1.11,1.11,0,0,1,.94-.25c.25.1.44.51.53.82s-.09.68,0,.93.48.72.75.73a1,1,0,0,0,.82-.63,5.67,5.67,0,0,0-.05-1.64c-.12-1.22-.78-2.5.39-3.59C23,18.92,23,18.65,23.05,18.25Z"></path><path d="M28.75,64.81c.3-1.48.73-3.7,1.18-5.91.59-3,1.2-5.92,1.81-8.87.75-3.63,1.53-7.24,2.26-10.87.41-2,.71-4,1.12-6.07.86-4.2,1.76-8.39,2.62-12.58A2.46,2.46,0,0,1,40,18.45c1.52-.13,3.05-.29,4.56-.55,1.71-.29,3.39-.72,5.09-1,1.42-.28,2.45.52,2.27,2-.21,1.73-.68,3.43-1,5.14s-.6,3.18-.94,4.76c-.41,1.87-.89,3.73-1.29,5.6-.59,2.76-1.13,5.53-1.7,8.29-.38,1.8-.8,3.58-1.17,5.38-.77,3.66-1.5,7.32-2.28,11-.52,2.45-1,4.91-1.72,7.32a2,2,0,0,1-1.5,1.18A11.43,11.43,0,0,0,36.1,68a8.83,8.83,0,0,1-2.62,0c-.76,0-1.52,0-2.28,0C29,68.07,28.72,67.76,28.75,64.81Z"></path></svg>