<svg xmlns="http://www.w3.org/2000/svg" id="Layer_1" data-name="Layer 1" viewBox="0 0 82.31 86.49"><title>AsimovMarketingIcon-bt-omar bahaa</title><path d="M0,76c.35-.93.86-2.65,1.62-4.25a4.23,4.23,0,0,0,.25-3.2,7.83,7.83,0,0,1,1.22-7.26A2.77,2.77,0,0,0,3.69,59c-.32-2.68-.65-5.38,1.08-7.85a3.86,3.86,0,0,0,.32-2.34c-.15-2.14-.17-4.25,1-6.15a3.94,3.94,0,0,0,.57-2.94,6.49,6.49,0,0,1,3-7,2,2,0,0,1,1.12-.35c1.54.33,2.58-.57,3.68-1.37,2.67-2,5.35-3.88,8-5.84,2.35-1.73,4.67-3.48,7-5.22,3.4-2.52,6.63-5.3,10.22-7.51C45.26,9,50.13,4.72,55.42,1c1.7-1.21,2.52-1.31,3.5,0a1.77,1.77,0,0,1,.29,1.19c-.15,1.21-.44,2.41-.58,3.62a1.18,1.18,0,0,0,.39,1,1.29,1.29,0,0,0,1.08-.2c.8-.52,1.49-1.22,2.32-1.67a1.79,1.79,0,0,1,1.6-.1c.4.29.52,1,.65,1.6.07.29-.11.62-.12.94,0,1,.37,1.17,1.28.81.49-.19,1.41-.39,1.54-.19a3.37,3.37,0,0,1,.79,2.2,43.44,43.44,0,0,0-1,5.82,50.88,50.88,0,0,1-1.43,6.83,11.16,11.16,0,0,0-.09,1.42c0,.5-.1,1-.16,1.52s-.17,1.24-.23,1.86a5.67,5.67,0,0,1,0,.71c-.48,2.27-1,4.53-1.48,6.8-.09.42-.08.86-.13,1.29-.09.66-.17,1.32-.28,2,0,.32-.2.61-.23.93-.17,1.4-.25,2.82-.49,4.22s-.69,2.83-.93,4.27-.17,2.86-.48,4.24a4.85,4.85,0,0,1-1.33,2.66c-5.44,4.31-11,8.49-16.47,12.74C38.69,71.05,34,74.77,29.27,78.45c-2.83,2.2-5.69,4.37-8.53,6.57a1.07,1.07,0,0,1-1.6-.07c-.33-.35-.61-.74-.93-1.1a.87.87,0,0,0-1.43,0c-.78.74-1.6,1.44-2.45,2.11a1.65,1.65,0,0,1-2.88-.84c-.25-.73-.68-1.25-1.38-.8-1.78,1.17-3.48.26-5.06-.24C1.93,83.07,0,80.07,0,76Zm4.17-9.92c0,.16,0,.32,0,.48,0,1.44.6,2.09,1.76,2.05S7.42,68,7.46,66.52a7,7,0,0,1,.31-2c.12-.34.6-.8.88-.78a1.52,1.52,0,0,1,1,.75,1.7,1.7,0,0,1-.12,1.24c-.76,1.87-.67,2.44.74,3.91.89.92.79,2.45-.3,2.67-1.34.28-1.56,1.23-1.8,2.23a3.52,3.52,0,0,0,.18,1.21,3.65,3.65,0,0,0,1.19-.3c1.62-1.18,3.19-2.41,4.78-3.62,3.62-2.75,7.24-5.51,10.88-8.24l13.24-9.91c3.1-2.32,6.07-4.84,9.33-6.91,2.09-1.32,2.46-3.22,2.83-5.23.29-1.62.28-3.3.43-4.95,0-.26.21-.51.25-.79.13-.69.24-1.39.31-2.09.18-1.8.28-3.6.5-5.4.26-2.06.6-4.11.91-6.17,0-.24,0-.48.07-.71.31-1.86.64-3.71.94-5.57.25-1.6.47-3.2.71-4.79.29-1.9.6-3.8.89-5.7a1.1,1.1,0,0,0,0-.48c-.14-.35-.24-.86-.5-1a1.35,1.35,0,0,0-1.06.3C51.66,6,49.27,7.91,46.83,9.69c-1.31,1-2.76,1.74-4.07,2.69-2.38,1.74-4.7,3.56-7.06,5.33-2.94,2.2-5.89,4.37-8.83,6.57-3.6,2.7-7.18,5.45-10.81,8.11-.86.63-1.27,1.1-.56,2.11a1.39,1.39,0,0,1-.16,1.35A1.79,1.79,0,0,1,14,36c-.36-.06-.62-.53-1-.65a3.19,3.19,0,0,0-1.68-.29,4,4,0,0,0-2.16,3.82,1.42,1.42,0,0,0,.87.93,1.57,1.57,0,0,0,1.13-.62c.22-.27.09-.78.23-1.14a10.19,10.19,0,0,1,.69-1.19A6.83,6.83,0,0,1,13.19,38a1.58,1.58,0,0,1,0,1,2.17,2.17,0,0,0,.89,2.32c.31.25.71.49.85.83s.3,1.12.08,1.34a1.92,1.92,0,0,1-1.45.37c-.32,0-.61-.47-.91-.73a2.37,2.37,0,0,0-3.82.46,14.43,14.43,0,0,0-1.35,3.41,1.29,1.29,0,0,0,.93,1.7,1.26,1.26,0,0,0,1.69-.94c.21-.83.13-1.72.26-2.57.05-.35.27-.85.53-.93a1.14,1.14,0,0,1,1,.4,2.62,2.62,0,0,1,.4,1.32,9.81,9.81,0,0,1-.13,1.79,1.79,1.79,0,0,0,.91,2c.88.5.91,1.24.23,2s-1.44,1-2.27.23-1.85-.79-2.84,0c-2.77,2.28-2.69,3.24-1.77,6.21a1.57,1.57,0,0,0,1.2.87,1.6,1.6,0,0,0,1.18-.89,7.34,7.34,0,0,0,.11-2,7.39,7.39,0,0,1,.17-2c.12-.38.68-.61,1-.91.34.49.72,1,1,1.46.07.15-.19.44-.2.67-.07,1.65-1.05,3.41.86,4.81.4.29.38,1.68.05,2.28s-1.15.11-1.74-.23a3.73,3.73,0,0,0-1.63-.58A4.27,4.27,0,0,0,4.17,66.12ZM53.1,42.22l.28.06c-.22,1.32-.41,2.65-.66,4a1.33,1.33,0,0,1-.44.69c-.79.73-1.59,1.46-2.44,2.12-1.7,1.33-3.44,2.6-5.15,3.91-3,2.28-5.94,4.58-8.94,6.84s-6,4.47-9,6.73q-6.06,4.61-12.06,9.29c-.35.27-.45.87-.66,1.31.52-.08,1.16,0,1.54-.29,2.1-1.52,4.12-3.16,6.19-4.72,4.15-3.12,8.32-6.21,12.46-9.34,3.66-2.76,7.27-5.59,11-8.34,3-2.24,6.08-4.39,9.08-6.63a2.52,2.52,0,0,0,.7-1.42c.34-1.46.61-2.95.87-4.43s.5-2.72.66-4.09c.2-1.8.18-3.63.5-5.41.56-3.18,1.46-6.32,1.41-9.6a4.34,4.34,0,0,1,.14-.7c.31-1.66.64-3.32.92-5,.19-1.17.32-2.35.49-3.52a7.76,7.76,0,0,1,.3-1.61c.27-.74.3-1.36-.51-1.71a1.13,1.13,0,0,0-1.62.78,18.26,18.26,0,0,0-.84,3.35c-.23,1.66-.31,3.34-.46,5,0,.15-.1.3-.13.46-.31,1.62-.66,3.23-.9,4.86s-.32,3.11-.5,4.67c0,.23-.18.44-.22.67-.11.62-.19,1.24-.27,1.86s-.13,1.09-.22,1.63-.21,1-.28,1.51c-.24,1.62-.44,3.25-.69,4.87C53.48,40.78,53.27,41.5,53.1,42.22ZM59.8,27.4h0a9.39,9.39,0,0,1-.07,1.19c-.49,2.67-1,5.33-1.5,8,0,.27.05.56,0,.84-.07.62-.17,1.24-.27,1.86s-.16,1-.24,1.51c-.1.66-.15,1.33-.29,2-.24,1.16-.6,2.3-.79,3.46a1.57,1.57,0,0,0,1.12,2c1,.25,1.24-.58,1.39-1.27.33-1.46.58-2.94.84-4.42.18-1.05.35-2.1.49-3.15.36-2.57.67-5.15,1.06-7.71a51.56,51.56,0,0,0,.92-5.42,23.23,23.23,0,0,1,1-6,4.86,4.86,0,0,0,0-.94c.08-.7.17-1.4.25-2.1.06-.51.13-1,.2-1.52s.22-1.22.28-1.84a9.34,9.34,0,0,0,0-2.3c0-.3-.7-.61-1.11-.67-.23,0-.71.42-.77.72q-.66,2.94-1.18,5.91-.47,2.55-.84,5.13C60.16,24.2,60,25.8,59.8,27.4ZM54.54,51l-.11-.41c-.41,0-.92-.16-1.21,0-.59.38-1,1-1.6,1.43-3.24,2.38-6.53,4.7-9.76,7.1-3.41,2.54-6.77,5.17-10.17,7.73-3.93,3-7.88,5.86-11.83,8.78-1.13.83-2.31,1.58-3.39,2.46-.27.22-.25.8-.36,1.22a3.27,3.27,0,0,0,1.26-.07,10.52,10.52,0,0,0,1.28-1.07c3.61-2.7,7.24-5.38,10.83-8.1,1.82-1.37,3.55-2.85,5.36-4.22,1.66-1.25,3.4-2.38,5.06-3.62,2.59-1.93,5.14-3.91,7.73-5.85,1.95-1.45,3.94-2.86,5.89-4.31A8.92,8.92,0,0,0,54.54,51ZM8.07,81.84A17.72,17.72,0,0,0,11,81.37a1.69,1.69,0,0,0,.93-1.21,1.42,1.42,0,0,0-.7-1.19c-.34-.14-.92.19-1.34.4a3.81,3.81,0,0,0-.83.67,1.46,1.46,0,0,1-2.21-.1c-1.09-1-1.29-1.91-.8-3.68a15.37,15.37,0,0,0,.51-2.93c.09-1.18-.46-1.5-1.55-1S2.4,75.66,2.65,77C3.17,79.74,5.38,82,8.07,81.84Z"></path><path d="M51.27,81.26l-5.22,1a4.34,4.34,0,0,1-.69.17c-4.29.15-8.57.28-12.86.45a9.47,9.47,0,0,0-2.31.39c-.83.24-1.55.07-1.84-.65a1.85,1.85,0,0,1,.29-1.66c1.73-1.53,3.53-3,5.38-4.37,4-3,8-5.91,12.07-8.85,2.36-1.71,4.75-3.37,7.07-5.13,3-2.26,5.91-4.6,8.87-6.89,1.76-1.37,3.52-2.76,5.33-4.07A12.55,12.55,0,0,0,71.24,48c.17-.3.74-.36,1.13-.52a3.59,3.59,0,0,1-.22,1.27c-1.22,1.91-2.51,3.77-3.76,5.66-.47.71-.13,1.4.92,1.64,1.28.29,2.59.43,3.88.63a4.59,4.59,0,0,1,3.57,2.51,5.48,5.48,0,0,0,1.71,1.6c.64.48,1.37.82,2,1.27,2,1.33,2.32,3.22,1.06,5.25-2.07,3.35-5.42,5.15-8.67,7a56.56,56.56,0,0,1-12.65,5c-3,.81-5.94,1.5-8.91,2.24Z"></path><path d="M75.62,20.63c.42,2.64-.82,5-1.27,7.5-.26,1.39-1.48,1.94-2.61,2.42-.81.34-1.25-.36-1.27-1,0-1.55.08-3.09.17-4.64a15,15,0,0,1,.27-1.63c.3-1.87.5-3.75.93-5.59a2,2,0,0,1,1.93-1.84c.82,0,1.78,1.27,1.84,2.4C75.66,19,75.62,19.83,75.62,20.63Z"></path><path d="M49.1,16.72a24.49,24.49,0,0,1-.87,4.72A6.38,6.38,0,0,1,46,23.94c-4.84,3.53-9.74,7-14.62,10.44C28.16,36.66,25,39,21.79,41.21c-.45.31-1.33.54-1.68.3a2.48,2.48,0,0,1-.76-1.69c-.11-1.47,0-3-.1-4.42a3,3,0,0,1,1.2-2.82c2.65-2,5.25-4.16,7.91-6.19,5.25-4,10.52-7.94,15.78-11.9.77-.58,1.56-1.12,2.34-1.68s1.53-.42,1.83.48A34.22,34.22,0,0,1,49.1,16.72Zm-28,19a4.28,4.28,0,0,0,0,.83c.15.7.12,1.65.56,2.05.74.65,1.45-.17,2.09-.62q5.34-3.73,10.68-7.5c3.49-2.46,6.9-5,10.49-7.35,1.83-1.17,1.68-2.92,2-4.56a6.19,6.19,0,0,0,0-2.35c-.18-.94-.85-1.2-1.73-.74a6.58,6.58,0,0,0-.92.55q-4.36,3.25-8.71,6.53c-4.08,3.06-8.13,6.16-12.26,9.16C21.82,32.81,20.62,33.89,21.13,35.72Z"></path><path d="M36.9,47.56c.17-.62.28-1,.4-1.46,1-3.35,1.9-6.71,2.91-10.05a1.93,1.93,0,0,1,1-1.22c.32-.1,1,.39,1.25.79C43.78,38,45,40.51,46.24,43a1.14,1.14,0,0,1,.19.68c-.14.53-.23,1.27-.6,1.48-.67.38-1.19-.15-1.45-.81s-.33-1.07-.53-1.59c-.43-1-.89-1.15-1.83-.57A5.74,5.74,0,0,0,38.91,47a1.44,1.44,0,0,1-.3.88,1.93,1.93,0,0,1-1.15.6C37.26,48.43,37.05,47.81,36.9,47.56Zm6-7.8c-.54-.39-1-.81-1.08-.74a3.2,3.2,0,0,0-1,1c0,.06.47.64.59.6A7.72,7.72,0,0,0,42.86,39.76Z"></path><path d="M45.17,31.77c.65,0,2,1.44,1.71,2.17a3.72,3.72,0,0,1-1.67,1.75c-.57.3-1.73-.92-1.72-1.64S44.62,31.78,45.17,31.77Z"></path><path d="M13.14,63.45a8.4,8.4,0,0,1,.23-1.72c.12-.32.48-.54.74-.8.25.3.69.6.71.92a3.32,3.32,0,0,1-.34,1.6c-.15.33-.57.54-.86.8Z"></path></svg>