<svg xmlns="http://www.w3.org/2000/svg" id="Layer_1" data-name="Layer 1" viewBox="0 0 112.8 131.69"><title>AsimovMarketingIcon-bt-omar bahaa</title><path d="M101.15,52.19c.62,1.86,1.24,3.72,1.88,5.57.29.83.63,1.64,1,2.44.66,1.57,1.42,3.1,2,4.7.39,1.11.48,2.33.76,3.49a17.24,17.24,0,0,0,.71,2.32c.35.93.82,1.82,1.15,2.76.54,1.48,1,3,1.5,4.48.33.94.73,1.85,1.1,2.78.07.18.22.36.22.54a10,10,0,0,0,1.28,4.42,2.62,2.62,0,0,1,.09.94v5.16c0,2.1-.06,2-1.86,2.86a53.34,53.34,0,0,0-4.67,2.84c-1,.63-2,1.25-3.07,1.89a3.9,3.9,0,0,0-.56.42c-.21.19-.37.48-.61.57-1.39.57-2.81,1.06-4.19,1.65a37,37,0,0,0-4.06,2c-1.43.85-2.74,1.91-4.14,2.82A29.32,29.32,0,0,1,86,109c-1.53.7-3.16,1.18-4.74,1.79-.47.17-.9.45-1.35.66a63,63,0,0,1-6.89,3.08c-2.23.71-3.94,2.29-6.11,3.07-1.36.49-2.51,1.56-3.82,2.23s-2.72,1.11-4.06,1.71C58,122,57,122.57,55.91,123c-1.6.65-3.25,1.21-4.86,1.83-1,.37-1.91.8-2.88,1.17-.79.3-1.63.51-2.41.83-1.82.76-3.64,1.52-5.43,2.36-1.52.71-3,1.6-4.49,2.27a2,2,0,0,1-2.8-1.39c-.52-1.68-.85-3.42-1.33-5.12-.35-1.25-.81-2.48-1.21-3.71a1.28,1.28,0,0,1-.09-.22c-.24-1.49-.41-3-.73-4.47-.39-1.81-.89-3.6-1.4-5.37-.15-.53-1.79-.68-2.51-.32a16.28,16.28,0,0,1-4.46,2c-1.1.2-2.06,1.09-3.14,1.54-1.52.63-3.1,1.14-4.65,1.72a17.39,17.39,0,0,0-1.92.87,2.34,2.34,0,0,1-3.42-1.85c-.26-1.81-.83-3.58-1.23-5.38-.28-1.28-.46-2.58-.75-3.86-.37-1.6-.81-3.19-1.22-4.78,0-.12-.09-.23-.11-.34-.23-1.54-.38-3.09-.7-4.6s-.83-3-1.25-4.54a2.09,2.09,0,0,1-.08-.34c-.22-1.54-.36-3.09-.68-4.6s-.85-3-1.27-4.54a2.88,2.88,0,0,1-.06-.59A10.13,10.13,0,0,0,.28,78,5,5,0,0,1,1,73.49a18.72,18.72,0,0,1,2.38-3.06,29.22,29.22,0,0,1,4.23-3.56,42.07,42.07,0,0,0,6.61-5.28c1.25-1.24,2.69-2.3,4.06-3.42,2.25-1.82,4.52-3.62,6.77-5.44,1.28-1,2.52-2.13,3.83-3.13,1.52-1.15,3.09-2.23,4.64-3.34l.09-.08C35,45,36.47,43.75,37.9,42.52,39.66,41,41.4,39.46,43.17,38c1.25-1.06,2.5-2.14,3.82-3.13s2.57-1.74,3.86-2.61l.28-.22c2.49-2.26,5-4.45,7.43-6.82a20.7,20.7,0,0,1,5.58-4.08,8.3,8.3,0,0,1,5.73-.76,4.35,4.35,0,0,1,2.52,2.35c.65,1.77,1.2,3.55,2,5.29A38.52,38.52,0,0,1,75.9,33a12.31,12.31,0,0,0,.61,1.13c.93,2.29,1.85,4.57,2.71,6.88.32.85.77.79,1.37.42.17-.11.27-.3.43-.42,1.83-1.4,3.65-2.8,5.5-4.18a10.15,10.15,0,0,1,2.14-1.41,27,27,0,0,1,3.86-1.11c1.41-.32,2.24.7,2.72,1.7a19.28,19.28,0,0,1,2.19,6.33,14.15,14.15,0,0,0,1.66,4c.7,1.49,1.51,2.92,2.21,4.4a4,4,0,0,1,.1,1.3ZM10.25,109.1l-.33.1c.19.53.26,1.42.57,1.51a4.06,4.06,0,0,0,1.86-.3,3.16,3.16,0,0,0,.55-.22c1.71-.72,3.46-1.36,5.13-2.17,2.49-1.21,4.9-2.57,7.38-3.81,2.89-1.44,5.81-2.84,8.73-4.22,3.26-1.55,6.53-3.07,9.8-4.6a10.28,10.28,0,0,1,1.13-.61,40.09,40.09,0,0,0,4.48-1.54c2.19-1.08,4.3-2.34,6.39-3.62,1.88-1.16,4-1.52,6.08-2.22,1.12-.39,2.48-.26,3.48-.82,1.75-1,4-.74,5.45-2.45.34-.41,1-.53,1.56-.77,1.82-.79,3.67-1.53,5.47-2.36,1.63-.74,3.19-1.64,4.83-2.36,1.41-.63,2.85-2.64,2.6-4-.09-.56-.65-1.09-.61-1.61.1-1.34-.65-2.3-1.18-3.37a10,10,0,0,1-.87-2.28c-.31-1.48-.48-3-.72-4.48a.85.85,0,0,0-.09-.22c-.64-1.45-1.27-2.9-1.91-4.34-.2-.46-.48-.89-.65-1.36-.58-1.55-1.09-3.12-1.72-4.64C77.19,51.19,76.49,50.13,76,49c-.37-1-.43-2-.8-3-.53-1.4-1.23-2.74-1.85-4.11-.24-.53-.53-1-.72-1.59-.52-1.49-1-3-1.49-4.49-.41-1.27-.8-2.55-1.2-3.82a11.3,11.3,0,0,1-.66-2,2.87,2.87,0,0,0-3.7-2.45,11.17,11.17,0,0,0-2.35,1.51c-.45.32-.81.77-1.27,1.07a24.94,24.94,0,0,0-2.87,1.75c-2.65,2.31-5.2,4.75-7.82,7.1-1.44,1.28-2.94,2.5-4.42,3.74a4.09,4.09,0,0,1-.42.2c-1,.62-2,1.21-2.95,1.86s-1.88,1.4-2.83,2.08l-4.21,2.93c-.19.14-.35.32-.55.45C34.62,51.15,33.25,52,32,53c-1.78,1.43-3.47,3-5.2,4.47l-.18.15c-1.77,1.34-3.58,2.65-5.3,4.05-1,.8-1.78,1.85-2.77,2.65-1.55,1.23-3.24,2.3-4.78,3.54-1.75,1.4-3.4,2.92-5.1,4.39-.12.1-.28.15-.41.24A23.07,23.07,0,0,0,4.5,75.17a3.8,3.8,0,0,0-1,3.81c.45,1.5.9,3,1.22,4.54s.48,3.06.71,4.59c0,.12.09.22.12.34.41,1.55.87,3.09,1.2,4.66s.2,3.1.79,4.44c.46,1.06.23,2.15.62,3a9.36,9.36,0,0,1,.64,3.67c0,.11.1.21.13.32C9.34,106.1,9.79,107.6,10.25,109.1Z"></path><path d="M110.71,2.29c-.67,1.5-1.26,2.93-1.94,4.31a27.22,27.22,0,0,1-1.53,2.6,15.11,15.11,0,0,1-6.13,5.42c-1.14.48-2.28,1-3.44,1.38-1.94.72-2.83,2.38-3.67,4.09a2.84,2.84,0,0,1-.46.8c-1.16,1.12-2,2.52-3.38,3.46a3.48,3.48,0,0,1-4.5-1,2.43,2.43,0,0,1,.57-3,11.35,11.35,0,0,0,2.34-1.73c1.09-1.31,2-2.79,3-4.17a4.57,4.57,0,0,1,1.22-1.29,60.74,60.74,0,0,1,5.38-3c2.68-1.27,5-3.14,5.87-5.85.59-1.73,1.76-2.63,2.79-3.82a1.3,1.3,0,0,1,2,0C109.45,1,110,1.62,110.71,2.29Z"></path><path d="M104.55,28.81c-1.37.4-2.06-.57-2.71-1.4a1.5,1.5,0,0,1-.2-1.41,10.63,10.63,0,0,1,2.46-2.37,17.17,17.17,0,0,1,3.18-1.32c1-.38,2.73.91,2.84,2.09a2.31,2.31,0,0,1-.87,2.32A9.72,9.72,0,0,1,104.55,28.81Z"></path><path d="M33.72,82.06c-.22-2.25-.09-4.7-.79-6.88-.61-1.88-.35-3.67-.53-5.49,0-.28.05-.65-.1-.82-1.3-1.48-.41-2.85.27-4.14C33.47,63,36,62.8,37.49,64c1.2,1,2.56,1.75,3.84,2.63.93.65,1.84,1.32,2.76,2,1.57,1.14,3.15,2.28,4.72,3.44a31.91,31.91,0,0,0,3,2.23c.91.52,1.78.87,2.1,2,.27,1-.48,2.69-1.49,2.83a5.32,5.32,0,0,1-4.36-1.37c-.79-.69-1.7-1.26-2.43-2-1.21-1.25-2.24-.23-3.14.29a20.23,20.23,0,0,0-3.32,2.6c-1.2,1.08-1.22,2-.44,3.47a3.12,3.12,0,0,1,.21,1.5A2.94,2.94,0,0,1,35,86.47c-.62-.23-1-1.38-1.25-2.18A8.21,8.21,0,0,1,33.72,82.06Zm3-10.91a10.26,10.26,0,0,1,.84,1.94c.16.71.58,1,1.16.83a4.4,4.4,0,0,0,1.65-1.12c.12-.13-.23-.82-.48-1.16a5.69,5.69,0,0,0-1.17-1.18c-.38-.28-.9-.65-1.27-.57S37,70.64,36.7,71.15Z"></path><path d="M47.52,60.63A3.1,3.1,0,0,1,44.58,63c-.46,0-1.3-.17-1.33-.38-.13-.66-.22-1.63.16-2A6.44,6.44,0,0,1,46,59.2C47.21,58.82,46.85,60.3,47.52,60.63Z"></path></svg>