<svg xmlns="http://www.w3.org/2000/svg" id="Layer_1" data-name="Layer 1" viewBox="0 0 94.12 88.05"><title>AsimovMarketingIcon-bt-omar bahaa</title><path d="M22.21,75.43c-4.16,0-8.32,0-12.48,0-3.95,0-8.11-2.8-9.19-6.62a22,22,0,0,1-.49-5.64c-.07-4.8,0-9.6,0-14.4C0,38,.05,27.19,0,16.4A19.41,19.41,0,0,1,1.1,9.17,12.93,12.93,0,0,1,6.73,2.56c.9-.53,1.84-1,2.77-1.44a3.15,3.15,0,0,1,1-.39A56.88,56.88,0,0,1,16.71.07C27.27,0,37.82.05,48.38.05c11.36,0,22.71,0,34.07,0a16.27,16.27,0,0,1,6,1.17c2.55,1,5,4.25,4.86,8.52a3.14,3.14,0,0,0,.29,1.38,6.09,6.09,0,0,1,.06,4.39,13.73,13.73,0,0,0,0,4.2c0,.65.39,1.3.39,1.95,0,9.84,0,19.67,0,29.51a1.85,1.85,0,0,1,0,.71c-1.33,2.92-.58,6-.61,9a13.07,13.07,0,0,1-2.62,7.79,14.77,14.77,0,0,1-6.11,5.06,11.43,11.43,0,0,1-5.54,1.19,1.78,1.78,0,0,0-.83,0c-2.11,1-4.33.43-6.5.47-4.15.08-8.31,0-12.47,0-1.13,0-1.62.53-1.15,1.45,1.24,2.4.44,4.64-.39,6.9a7.3,7.3,0,0,1-3.76,4,3,3,0,0,1-1.37.27c-5.79,0-11.59,0-17.38.06-1.31,0-1.82-.79-2.27-1.77-.65-1.4-.57-2.3.41-3.15a20.68,20.68,0,0,1,1.91-1.22c.32-.22.76-.47.84-.78a21.49,21.49,0,0,0,.66-3.72c.09-1.33-.74-2-2.09-2H22.21Zm24.45-71v0c-5.92,0-11.84-.13-17.75,0S17,3.82,11.13,5a7.61,7.61,0,0,0-5,3.36,14,14,0,0,0-2,8c.1,15,.13,30.07,0,45.1A11.75,11.75,0,0,0,6.19,68a3.72,3.72,0,0,0,3.86,2A32.55,32.55,0,0,1,14.36,70c10.4,0,20.79-.08,31.19,0,3.47,0,7-.68,10.44.61a1.46,1.46,0,0,0,.47,0c5,0,9.92,0,14.88,0,1.09,0,2.17.33,3.26.4a6.3,6.3,0,0,0,2.34-.16,11.49,11.49,0,0,0,2.87-1.48,10.74,10.74,0,0,0,4.7-9c.07-6.36-.2-12.72-.42-19.08C83.76,31.64,84,22,84,12.28a8.46,8.46,0,0,0-.25-1.39,12.8,12.8,0,0,1-.41-2.65,3.6,3.6,0,0,0-3.59-3.81Zm-.18,73.81v0c-1.07,0-2.15.06-3.23,0-1.64-.1-2.94-.06-3.52,2-.5,1.78-.12,2.77,1.79,2.76h7.29c3.25,0,3.6-.37,3.43-3.55,0-.9-.42-1.28-1.33-1.26C49.43,78.27,48,78.24,46.48,78.24Z"></path><path d="M43.4,59Q28,59,12.69,59a6.1,6.1,0,0,1-4.54-2.35c-1.74-1.94-2-4.31-2-6.8,0-11.11,0-22.23,0-33.34A8.06,8.06,0,0,1,11,8.83a1.67,1.67,0,0,1,.57-.19c2.55-.22,5.1-.41,7.65-.66,1.09-.11,2.16-.48,3.24-.51,3.07-.07,6.13-.06,9.19,0,1,0,2,.48,3,.49,4.32,0,8.64,0,13,0a1.73,1.73,0,0,1,.83.09c1.6.94,3.34.6,5,.6,7,0,14.07,0,21.1,0a5.34,5.34,0,0,1,4,2A9,9,0,0,1,81,16.82c-.11,11.27-.09,22.55,0,33.82,0,3.63-1.23,6.36-4.63,7.88a5,5,0,0,1-2,.47Q58.87,59,43.4,59Zm2.43-47.37v0q-14.08,0-28.18,0c-.44,0-1.13.14-1.26.42A23.62,23.62,0,0,0,15,15.87a36.23,36.23,0,0,0-.67,3.6,43.71,43.71,0,0,0-1,6.37c-.14,7.15-.06,14.31-.08,21.47a5.19,5.19,0,0,0,3.47,5.07c1.81.54,3.59,1.32,5.57,1a3,3,0,0,1,1.14.3,4.86,4.86,0,0,0,1.49.37c3.07-.28,6.23.65,9.24-.6a1.17,1.17,0,0,1,.59,0c4.78.54,9.58-.39,14.4.57,3.38.67,6.91.13,10.42.59,4.92.63,10,.18,15,.15a3.34,3.34,0,0,0,3.29-3.43q0-17.87,0-35.74a4.17,4.17,0,0,0-3.95-3.91Z"></path><path d="M41.9,65.43c0-1.92.46-2.46,2-2.45a2.76,2.76,0,0,1,2.53,2.28,3.08,3.08,0,0,1-2.77,2.52C42.25,67.75,41.86,67.22,41.9,65.43Z"></path><path d="M52,15.77a16.18,16.18,0,0,1,9.84,4.06c.91.83,1.65,1.84,2.55,2.7a4,4,0,0,0,1.26.53,8,8,0,0,0-.06-1.3c-.06-.3-.42-.59-.38-.85a2.39,2.39,0,0,1,.57-1.42c.19-.16,1.08.08,1.27.39a26.21,26.21,0,0,1,2.31,4.26c.17.43-.51,1.2-.79,1.81-.48-.25-1-.48-1.43-.75a8.51,8.51,0,0,1-.8-.58c-.12.34-.39.7-.35,1a17,17,0,0,1-.43,7.47c-.44,1.36-1,2.67-1.53,4a1.72,1.72,0,0,0,.81,2.52c.83.48,1.74.81,2.58,1.26.31.17.73.5.74.78a1.2,1.2,0,0,1-.6.91c-1.12.58-2.24,1.21-3.62.59-.67-.29-1.51-.16-2.21-.39a3.94,3.94,0,0,1-1.49-1c-.67-.66-1.22-.53-2.11-.31a26.23,26.23,0,0,1-6.85.93c-1.54,0-3-1-4.56-1.61-.76-.31-1.28-.23-1.64.59a10.39,10.39,0,0,1-5.64,5.42c-1.59.7-3,1.66-5,1.46a11,11,0,0,1-7.26-3.17,1.93,1.93,0,0,0-2.44-.65,20,20,0,0,1-5.13.76,2,2,0,0,1-1.58-.93c-.17-.34.27-1.16.66-1.57,1.2-1.28,2.53-2.44,3.76-3.7,1.58-1.63,1.5-2.28.57-4.31a5.55,5.55,0,0,1-.41-3.33,10.35,10.35,0,0,1,7.6-8.28,14.09,14.09,0,0,1,2.36-.23c.47,0,1,.07,1.39-.17,2.12-1.46,3.68,0,5.35.94.21.12.33.39.54.48a1.87,1.87,0,0,0,1.08.21,1,1,0,0,0,.41-.87c-.64-2.09.73-3.2,2.06-4.3a11,11,0,0,1,5.39-2.69C50,16.33,51.14,16,52,15.77Zm-17.6,9.69a5.81,5.81,0,0,0-4.35,1c-3.36,1.91-5.74,5.76-3.44,9.62a1.44,1.44,0,0,1,.07,1.3c-.87,1.05-1.88,2-2.85,3-.25.26-.65.43-.77.72a4.8,4.8,0,0,0-.15,1.33c.47,0,1,.21,1.4,0a18.15,18.15,0,0,0,2.91-1.65c.93-.67,1.57-.42,2.45.15a10.24,10.24,0,0,0,3.13,1.24c2.22.52,3.89-.94,5.65-1.87a6.83,6.83,0,0,0,3-8.42c-.35-.93-.44-1.95-.82-2.86a5.18,5.18,0,0,0-1.43-2.22C37.84,25.77,36.3,24.81,34.42,25.46Zm15.52-.52a9.06,9.06,0,0,1-.65,2.31c-.19.32-1,.26-1.54.37a8,8,0,0,1-.08-1.38,22.33,22.33,0,0,0,.41-2.89c0-1-1.3-2.08-2-2a3,3,0,0,0-1.61,2.3c.06.9,0,1.8,0,2.7s0,2,0,2.93c0,.79.23,1.76-.13,2.34-.88,1.39-.18,2.27.69,3.13a1.52,1.52,0,0,0,1.24.43,1.83,1.83,0,0,0,.92-1.09,11.47,11.47,0,0,0,.13-1.78c.11-.8.51-1.4,1.42-1.25s.89.82.93,1.55a7.56,7.56,0,0,0,.49,2.61c.22.5.95.76,1.45,1.13a8.49,8.49,0,0,0,1-1.74,10.55,10.55,0,0,0,0-1.78c.13-1.24.39-2.48.49-3.72a31.16,31.16,0,0,0,.16-4.42,5.84,5.84,0,0,0-.81-2.53A1.66,1.66,0,0,0,51,21.88C49.53,22.37,49.61,23.65,49.94,24.94Zm4.17,7.31.23,0c0,.28,0,.56,0,.84-.13,1.76.16,2.42,1.23,2.73s1.86-.2,2.59-1.74a2.39,2.39,0,0,0,.29-.78,16,16,0,0,0-1-7,1.35,1.35,0,0,0-2-.8,1.62,1.62,0,0,0-.8,2.19A2.35,2.35,0,0,1,54.85,29C54.66,30.07,54.36,31.15,54.11,32.25Zm2.16-8.43c.67,0,1.44-.16,1.55-1.15A2.17,2.17,0,0,0,56,20.74a1.77,1.77,0,0,0-1.88,1.48C54.13,23.15,55,23.82,56.27,23.82Z"></path><path d="M34.44,34.82c-.46.38-.9.77-1.38,1.12s-.94.86-1.4.85-.83-.64-1.05-1.09a13.74,13.74,0,0,1-.86-2.48c-.1-.37-.06-1.08.12-1.16a1.59,1.59,0,0,1,1.28.1c1.48.93,1.82.78,2.07-1a5.18,5.18,0,0,1,.36-1c.33.16.85.23,1,.5A16.2,16.2,0,0,1,36,34.15C36.26,35.1,35.39,35.16,34.44,34.82Z"></path><path d="M36.09,31c.28-.43.46-1,.78-1.1a1.52,1.52,0,0,1,1.19.51,5.21,5.21,0,0,1,1.13,1.81,1.8,1.8,0,0,1-.28,1.53,1,1,0,0,1-1.62-.32C36.86,32.67,36.52,31.86,36.09,31Z"></path><path d="M36.9,28.19c-.54.53-.95,1.14-1.13,1.07a5.21,5.21,0,0,1-1.32-1c.32-.35.62-1,1-1S36.24,27.77,36.9,28.19Z"></path></svg>