<svg xmlns="http://www.w3.org/2000/svg" id="Layer_1" data-name="Layer 1" viewBox="0 0 86.6 82.75"><title>AsimovMarketingIcon-bt-omar bahaa</title><path d="M43,.07c12.28,0,22.08,0,31.87,0a22.69,22.69,0,0,1,5.21.51,6.56,6.56,0,0,1,5,4.57,28.94,28.94,0,0,1,1.53,8.3c-.07,11.67,0,23.35,0,35A73.12,73.12,0,0,1,86,57.87,13.75,13.75,0,0,1,77.5,69.31c-1.48.64-3.25.61-4.89.87a7.49,7.49,0,0,0-.83,0c-3.16,1.06-6.42.43-9.63.56-2.35.09-4.72,0-7.07,0-1.42,0-1.76.36-1.76,1.79a27,27,0,0,0,0,3.6c.39,3.06-2.5,5.45-4.48,6.51a1.66,1.66,0,0,1-.71.08H32.48c-1.43,0-1.94-1.08-2.57-2a1.55,1.55,0,0,1,.38-2,11.12,11.12,0,0,1,1.77-1.59,2.36,2.36,0,0,0,1.23-2.39,4.46,4.46,0,0,1,.36-1.72c.52-1.61,0-2.21-1.62-2.2-7,0-14,0-21,.06A15.92,15.92,0,0,1,3.46,69C1.75,68.11-.08,64.69,0,62.79c.1-2.08.07-4.16.07-6.24,0-14.32.1-28.63,0-42.95A12.88,12.88,0,0,1,3.63,4.3a12.42,12.42,0,0,1,8-3.78C22.87-.59,34.18.49,43,.07ZM39.73,55.25H31c-6.4,0-12.8,0-19.2.05-2.68,0-5.89-3-5.87-5.67,0-3.68.08-7.36.07-11,0-8.32-.1-16.63,0-25a4.94,4.94,0,0,1,2.5-4.27c1.62-1,3.31-1.8,5.32-1.37A3.08,3.08,0,0,0,14.7,8a36,36,0,0,1,4-.47q15.48-.06,31,0c1.85,0,3.77-.46,5.52.55a1.19,1.19,0,0,0,.6.05c3.48,0,7,.06,10.43-.08A9.28,9.28,0,0,1,70.8,9a6.82,6.82,0,0,1,3.4,5.61c-.07,1.52-.15,3-.21,4.55,0,1.05.41,1.37,1.42,1,1.93-.66,2.41-1.65,1.77-3.6a5.29,5.29,0,0,1-.43-1.6c0-2.32.06-4.64.17-7a3.57,3.57,0,0,0-1.59-3.15c-1.76-1.38-3.75-1.06-5.74-1.06-18.08,0-36.16,0-54.23,0a26.23,26.23,0,0,0-5.64.77c-4.29,1-6.29,5.53-6.39,9.19-.18,7.44,0,14.88,0,22.32,0,6.24,0,12.48,0,18.72,0,1.92.2,3.85.34,5.78a2.16,2.16,0,0,0,.28.78A12.39,12.39,0,0,0,5.49,64a4.14,4.14,0,0,0,2.32,1.41c3,.26,6,.41,8.91.45,15.51.22,31,.06,46.55,0a3.26,3.26,0,0,1,1.16.2,8.92,8.92,0,0,0,10.43-2.56,8.69,8.69,0,0,0,2.51-5.45c.09-5.43,0-10.87,0-16.31,0-1.15-.64-1.41-1.61-1.41-1.31,0-1.76.33-1.74,1.42,0,2.24.06,4.48.18,6.71.16,2.87-2.08,6.11-4.87,6.73a13.17,13.17,0,0,1-2.74,0Zm19.81-4.12h0c3,0,6,0,9,0a2.85,2.85,0,0,0,3-3.28c-.07-1.63-.1-3.28-.07-4.91.05-2.28-1.39-3.35-3.34-2.19-3,1.75-6.32,2.18-9.51,3.18a2.41,2.41,0,0,1-1.07.08,40.61,40.61,0,0,1-5.64-.87c-3.69-1.08-6.6-3.49-9.35-6.07-.37-.36-.74-.91-1.16-1-2.12-.3-4.25-.55-6.39-.66-1.07,0-1.66.69-1.61,1.81,0,.76.11,1.51.15,2.27A1.24,1.24,0,0,1,32.32,41c-2,.19-4.08.39-6.12.49-2.32.12-4.73-1.27-5.36-3.1a26.39,26.39,0,0,1-1.33-8.07c-.06-2.33.49-4.69.32-7a4.35,4.35,0,0,1,2-4.06,15.9,15.9,0,0,1,9-3.21c3.64,0,7.34-.57,11,.39a7.14,7.14,0,0,0,1.79,0,5.55,5.55,0,0,1,1.08,0c2.68.5,5.37,1,8,1.54,3.19.65,6.37,1.37,9.55,2,1,.2,2,.3,2.93.42,1.49.18,3,.43,4.47.48,1.29,0,1.85-.7,1.85-2s-.07-2.32,0-3.48a4.5,4.5,0,0,0-4.6-4.74c-6.56,0-13.12.05-19.68.06q-14.75,0-29.51,0c-2.61,0-3.14.31-4,2.77a11.41,11.41,0,0,0-.47,2.1c-.18,1.28-.29,2.58-.48,3.87-.38,2.58-.83,5.14-1.19,7.72a4.21,4.21,0,0,0,.25,1.32c.36-.2.71-.41,1.08-.58a4.5,4.5,0,0,1,.74-.21,3,3,0,0,1,.18.76c0,1-.15,1.91-.12,2.87.19,5.16-.37,10.34.43,15.5.25,1.6.87,2.47,2.45,2.67a9.77,9.77,0,0,1,1.16.28,16.86,16.86,0,0,0,3.47.84c9.81.29,19.63-.46,29.44.44C53.6,51.36,56.58,51.13,59.54,51.13ZM73.87,37.56l.08.33c1.16-.23,2.32-.43,3.47-.7a9.36,9.36,0,0,0,1.43-.59,5.83,5.83,0,0,0-.71-1.41c-1.43-1.51-2.92-2.95-4.39-4.43a1.31,1.31,0,0,1-.24-1.92c1.23-1.57,2.49-3.12,3.69-4.71a4.94,4.94,0,0,0,.49-1.23c-.46-.14-1-.54-1.37-.39-2.08,1-4.26.39-6.39.52A42.26,42.26,0,0,1,57.27,21.7c-2.63-.64-5.3-1.08-8-1.6-1.16-.22-2.33-.42-3.5-.6-.92-.15-1.86-.26-2.79-.38-.62-.08-1.25-.13-1.87-.21a15.33,15.33,0,0,0-1.76-.28c-2.48,0-5,.08-7.43,0a16.31,16.31,0,0,0-7.48,1.83,3.1,3.1,0,0,0-1.95,2.67c-.17,2.49-1.73,4.91-.4,7.48.07.12,0,.31,0,.47.07.83.13,1.65.24,2.48.15,1.11.77,1.09,1.73.86a53.64,53.64,0,0,1,8.24-1.64,54,54,0,0,1,7.8.45,4.05,4.05,0,0,1,.47.12l4.09.85c3,.62,6.06,1.28,9.11,1.84,2.21.42,4.44.71,6.67,1.05.27,0,.54.1.82.13l3.53.47a26.68,26.68,0,0,0,2.81.37,36.26,36.26,0,0,0,3.9-.07A18.43,18.43,0,0,0,73.87,37.56ZM42.61,73.15v.06H40.93c-.56,0-1.13,0-1.68,0-1.91-.09-1.92-.08-2.64,1.7-.82,2-.14,3,2.12,3s4.25-.12,6.36,0c2.38.18,3.29-1.44,3.11-3.34-.09-1.07-.6-1.45-1.64-1.41C45.24,73.19,43.92,73.15,42.61,73.15ZM28.23,39.09l.1-.23a11.55,11.55,0,0,0,1.77-.2,1,1,0,0,0,.68-1.5,1.71,1.71,0,0,0-1.28-.65A4.19,4.19,0,0,0,28,37c-.73.25-1.78.35-1.6,1.37C26.49,38.67,27.6,38.84,28.23,39.09Z"></path><path d="M38.07,61.39a2.3,2.3,0,0,1,2-2.35c.86,0,2.41,1.42,2.4,2.18a3.62,3.62,0,0,1-2.4,2.53A2.34,2.34,0,0,1,38.07,61.39Z"></path><path d="M33.62,26.19c1.52,0,3.05-.12,4.55,0,2.23.22,4.45.63,6.66,1,2,.29,3.92.57,5.87.91a1.86,1.86,0,0,1,1.12.68,1,1,0,0,1-.31,1,2.08,2.08,0,0,1-1.29.16c-1.63-.24-3.25-.57-4.89-.82-2.26-.35-4.52-.65-6.79-1a11.32,11.32,0,0,0-1.43-.08c-2.4,0-4.79,0-7.19,0a9.3,9.3,0,0,0-2.22.32c-.69.18-1.31.12-1.4-.6a1.56,1.56,0,0,1,.8-1.17,5.69,5.69,0,0,1,2.09-.42c1.48-.06,3,0,4.43,0Z"></path><path d="M37.58,23.48l-9,.66c-.28,0-.61.12-.83,0a10.05,10.05,0,0,1-1.2-.89c.39-.36.77-1,1.18-1,3.09-.2,6.18-.36,9.27-.38,1.89,0,3.77-.25,5.68.38a24,24,0,0,0,4.68.51c1.17.13,2.34.3,3.5.52.72.14,1.37,1.19,1.1,1.75-.38.8-1,.56-1.66.35A27.43,27.43,0,0,0,43,24.15C41,24,39,23.66,37.58,23.48Z"></path></svg>