<svg xmlns="http://www.w3.org/2000/svg" id="Layer_1" data-name="Layer 1" viewBox="0 0 112.63 121.52"><title>AsimovMarketingIcon-bt-omar bahaa</title><path d="M67.69,14.39c1.8-.61,3,.23,3.93,1.56a9.62,9.62,0,0,1,1.3,2.93,20.09,20.09,0,0,0,1.87,5,36,36,0,0,1,1.5,3.63c.64,1.53,1.33,3,2,4.57A11.71,11.71,0,0,0,79,34c.43.67,1,.57,1.61,0a47.35,47.35,0,0,1,4.68-4c1.74-1.19,3.56-2.34,5.83-2.36a4,4,0,0,0,1.82-.76c1.83-1.12,3.81-.31,5.71-.49.53-.05.85,1.64.36,2.29S98,30,97.43,30.13c-1,.27-.94.86-1,1.6-.12,2.25.85,4.14,1.76,6.09.84,1.78,1.39,3.72,2.37,5.41.72,1.24.36,2.47.64,3.66A24.52,24.52,0,0,0,102.72,51c.82,1.92,2.17,3.57,2.54,5.72a27.05,27.05,0,0,0,1.32,4.65c.75,2.06,1.68,4.05,2.46,6.09.56,1.48,1,3,1.52,4.49l1.26,3.69a1.17,1.17,0,0,1,.05.11,27.55,27.55,0,0,1,.66,8.19,2.31,2.31,0,0,1-1.07,1.3c-1.41.89-2.87,1.7-4.33,2.5-2.25,1.23-4.49,2.49-6.8,3.62-2,1-4.12,1.78-6.14,2.77A8.18,8.18,0,0,0,91.63,96c-1.24,1.39-2.95,1.92-4.48,2.76S84,100.34,82.43,101s-3.11,1.15-4.65,1.74c-.51.19-1,.46-1.48.69a23.71,23.71,0,0,1-4.24,1.81c-2.43.53-4.38,2-6.6,2.94-1.38.58-2.57,1.61-3.92,2.29s-2.72,1.1-4.07,1.69c-1,.43-2,1-2.95,1.41-1.44.66-2.87,1.36-4.35,1.91-2.06.76-4.2,1.3-6.24,2.09-1.84.71-3.58,1.65-5.38,2.45a26.65,26.65,0,0,1-3.68,1.43,1.79,1.79,0,0,1-1.55-.49,8.9,8.9,0,0,1-1.13-2.51c-.49-1.53-.88-3.09-1.3-4.64a1.49,1.49,0,0,1-.06-.59,8.89,8.89,0,0,0-1.22-4.67.6.6,0,0,1-.09-.22,32,32,0,0,1-.66-4.83c0-2.06-1.8-2.55-3.17-2-2.25.91-4.4,2.1-6.63,3.08-.91.4-1.94.53-2.89.85-.73.24-1.41.64-2.15.88a20.08,20.08,0,0,1-3.74,1.06c-1.38.19-2.13-.89-2.33-2.33-.25-1.78-.8-3.51-1.19-5.27-.28-1.28-.49-2.58-.78-3.86-.37-1.61-.8-3.2-1.21-4.79,0-.12-.1-.22-.12-.34-.22-1.53-.37-3.08-.69-4.59C3.69,85,3.2,83.73,2.81,82.49a4,4,0,0,1-.18-.56c-.23-1.73-.37-3.48-.7-5.19A35.59,35.59,0,0,0,.76,73a1.45,1.45,0,0,1-.09-.22c-.25-2-.61-3.94-.67-5.91a3.59,3.59,0,0,1,1-2.3,35.79,35.79,0,0,1,3.33-2.78l.19-.14c1.69-1.47,3.34-3,5.09-4.41,1.55-1.24,3.2-2.35,4.81-3.52l.18-.15c1.73-1.5,3.41-3.05,5.19-4.48,1.51-1.22,3.14-2.29,4.72-3.43.16-.12.28-.29.43-.42a50.93,50.93,0,0,1,4.61-3.86,51.83,51.83,0,0,0,6.53-5.19c2.16-2,4.55-3.72,6.84-5.56,1.1-.88,2.15-1.83,3.32-2.61,1.32-.88,2.77-1.57,4.12-2.41a18.32,18.32,0,0,0,1.54-1.28c1.83-1.4,3.69-2.76,5.48-4.2a13.29,13.29,0,0,0,2.14-2.1c1.29-1.61,3.13-2.33,4.92-3.11A25.08,25.08,0,0,1,67.67,14ZM10.05,99.07l-.21.08a7.51,7.51,0,0,0,0,.95c.1.8,1,1.64,1.63,1.42,1.23-.45,2.47-.91,3.65-1.47,4.21-2,8.17-4.49,12.63-6a66,66,0,0,0,6.81-3.34q4.2-2,8.43-3.93c1.27-.58,2.56-1.09,3.86-1.6,1-.38,2-.7,2.92-1.07a19.49,19.49,0,0,0,2.46-1c1.82-1,3.55-2.1,5.4-3a19.81,19.81,0,0,1,3-.77c1.25-.38,2.46-.87,3.71-1.25a21.12,21.12,0,0,0,3-.8,63.15,63.15,0,0,1,6-2.74,55.91,55.91,0,0,0,8.65-4,4.76,4.76,0,0,0,2.36-2.89c.22-1.75-.36-3.6-.6-5.41A.71.71,0,0,0,83.7,62a6.34,6.34,0,0,1-1.23-3.48,8.79,8.79,0,0,0-.92-2.71c-.34-.94-.74-1.85-1-2.8s-.42-2-.81-3c-.8-2-1.72-3.89-2.59-5.83a12.14,12.14,0,0,1-.62-1.38A27.08,27.08,0,0,0,75.66,40a31.71,31.71,0,0,1-2-4.57,50,50,0,0,0-2.55-6.3c-.19-.46-.48-.9-.65-1.37-.72-1.91-1.38-3.84-2.13-5.74-.32-.82-2.44-1.49-3.14-1-1.06.74-2,1.58-3.07,2.35-.47.35-1,.59-1.46,1A21.56,21.56,0,0,1,57,26.64c-1.9,1-3.35,2.81-5.06,4.19s-3.68,2.9-5.59,4.26-4.18,2.59-6.06,4.13c-1.52,1.25-3.14,2.31-4.76,3.4-2.13,1.43-4.09,3.14-6.12,4.72l-6,4.67-6.1,4.76c-1.11.87-2.22,1.74-3.3,2.64C12.44,60.69,10.92,62,9.4,63.3c-.16.13-.28.29-.44.41-1.66,1.23-3.38,2.39-5,3.7a3.33,3.33,0,0,0-.47,4,12.78,12.78,0,0,1,.95,3.19c.31,1.64.49,3.3.73,5a2,2,0,0,0,.15.33c.38,1.32.83,2.62,1.13,4s.24,3.09.82,4.44a7.55,7.55,0,0,1,.54,3,1.62,1.62,0,0,0,.11.58,9,9,0,0,1,1.23,4.77,1.73,1.73,0,0,0,.16.69C9.57,97.87,9.81,98.47,10.05,99.07Z"></path><path d="M105,0c.51.2,1.28.27,1.48.64.56,1,1.27,2.11.49,3.4a33.25,33.25,0,0,1-2.57,4.43c-1.12,1.33-1.57,3.25-3.62,3.88-1.33.41-2.44,1.51-3.69,2.2a14.36,14.36,0,0,1-2.27.86c-2,.69-2.63,2.51-3.73,4a32.23,32.23,0,0,1-4,4.09,3,3,0,0,1-1.12.63,3.19,3.19,0,0,1-3.35-1.69c-.28-.73.61-2.38,1.17-2.87A32.78,32.78,0,0,0,87.24,16c1.4-1.68,2.41-3.57,4.68-4.56,2.72-1.19,5.66-2.16,7.71-4.59a6.45,6.45,0,0,0,1.7-3.39A4.33,4.33,0,0,1,105,0Z"></path><path d="M15.14,94.46a3.53,3.53,0,0,1-2.9-2.57A12.44,12.44,0,0,1,12,90c-.15-.79-.38-1.56-.57-2.34a3.73,3.73,0,0,1-.09-.46c-.23-1.54-.36-3.1-.7-4.61a17.59,17.59,0,0,0-1.09-2.78,1.82,1.82,0,0,1-.19-.43c-.24-1.76-.46-3.54-.71-5.31a7.41,7.41,0,0,1-.34-2.27c.19-.84.63-2,1.29-2.3A16.88,16.88,0,0,0,14,66.39a26.92,26.92,0,0,1,4.33-3c1.75-1,4.19,0,5,2S25.06,69,25.82,70.9c.6,1.46,1,3,1.51,4.48.18.51.51,1,.68,1.48.69,2,1.33,4,2,6,.19.54.72,1.13.61,1.58A4.65,4.65,0,0,1,28.13,88c-1.87.8-3.93,1.22-5.71,2.16-2,1-4.18,1.64-5.71,3.43A5.29,5.29,0,0,1,15.14,94.46Z"></path><path d="M39.71,56.32a6.16,6.16,0,0,0,6.15-2.43,33.31,33.31,0,0,1,2.52-3.62,7.49,7.49,0,0,1,3.06-1.7c1.43-.44,3-.34,4.44-.85s1.71-2,2.49-3.16a16.49,16.49,0,0,1,2.76-2.78c1.31-1.15,3.05-1.28,4.65-1.67.52-.12,1.24.33,1.79.65a4.59,4.59,0,0,1,1.11,1.09,1.07,1.07,0,0,1,.23.74c-.09.58-2.33,2.28-2.92,2.44-1.62.43-3.13,1.08-3.78,2.82a5.9,5.9,0,0,1-4,3.87c-1.77.52-3.62.78-5.34,1.41a4.58,4.58,0,0,0-2,1.85c-1.35,2.12-2.54,4.34-5,5.38a.94.94,0,0,1-.22.07c-1.66.23-3.3.53-5,.65a2,2,0,0,0-1.94,1.44,4.86,4.86,0,0,1-5.51,2.58,2.19,2.19,0,0,1-.65-3.25,44.15,44.15,0,0,1,3.14-3.13c.54-.47.3-1.49,1.39-1.59A12.09,12.09,0,0,0,39.71,56.32Z"></path><path d="M61.4,67.4c-2.42-.43-4.29.69-5.85,2.2A16.66,16.66,0,0,1,50,73.68a8,8,0,0,1-2.46.2A6.91,6.91,0,0,0,42.35,76a11.46,11.46,0,0,1-2.56,1.83c-.94.54-2.78-.71-2.91-1.93a2.86,2.86,0,0,1,.75-2.38,13.59,13.59,0,0,1,4.93-3.36,22.31,22.31,0,0,1,3.72-.79c1.79-.45,3.65-.8,5.08-2.13.87-.81,1.67-1.72,2.55-2.53a5.87,5.87,0,0,1,3.24-1.44,34.56,34.56,0,0,0,5.47-1.4c.35-.11.43-.89.76-1.24a27.21,27.21,0,0,1,3.76-3.68,10,10,0,0,1,4.06-1.6A2.65,2.65,0,0,1,74,57.25c.2.59-.75,2.13-1.46,2.51a45,45,0,0,0-4,2.21,2.63,2.63,0,0,0-.86,1.48c-.46,1.8-2,2.36-3.39,3A20.63,20.63,0,0,1,61.4,67.4Z"></path></svg>