<svg xmlns="http://www.w3.org/2000/svg" id="Layer_1" data-name="Layer 1" viewBox="0 0 71.96 96.87"><title>AsimovMarketingIcon-bt-omar bahaa</title><path d="M49.47,96.87c-1.31-.38-3.09-1-4.9-1.41-3.72-.93-7.44-1.8-11.17-2.69-6.34-1.51-12.68-3-19-4.52-1.59-.38-3.14-.91-4.72-1.34A3.92,3.92,0,0,1,7.2,84.3c-1.45-3.68-2.88-7.37-4.09-11.13C2,69.84,1.34,66.39.34,63a5.53,5.53,0,0,1-.05-3.66C1.24,56.62,2,53.81,2.75,51S4.1,45.51,4.8,42.76C5.87,38.59,7,34.42,8.05,30.25q1.83-7,3.61-14.12c.9-3.56,1.75-7.13,2.65-10.69.36-1.47.78-2.93,1.19-4.38.26-.93.78-1.23,1.8-1C24.56,2,31.84,3.84,39.1,5.74c6.1,1.6,12.17,3.3,18.27,4.9,3.62.95,7.27,1.79,10.9,2.7A2.74,2.74,0,0,1,70,17.66c-.53.93-.29,1.52.78,1.9,1.28.46,1.3.74,1,2-.67,2.5-1.14,5.06-1.8,7.56-1.56,6-3.23,12-4.77,17.94s-2.91,12-4.42,18c-1.09,4.33-2.26,8.65-3.43,13-1.48,5.51-3,11-4.49,16.51C52.39,96.28,51.64,96.89,49.47,96.87Zm-47-37.39c0,4.1,1.51,6.42,4.76,7.32a23.58,23.58,0,0,0,4.71.28,2.72,2.72,0,0,1,1.41.33c.15.11,0,.85-.2,1.23-.5,1-.25,1.42.89,1.55.65.07,1.55.29,1.81.75s0,1.33-.28,1.94a5.4,5.4,0,0,1-1.16,1.51c-1.11,1.16-2.27,2.25-3.37,3.42a19.13,19.13,0,0,0-1.31,1.76,17.72,17.72,0,0,0,1.87.74c3.73,1,7.47,2,11.2,2.94,4.4,1.16,8.8,2.34,13.2,3.48,3.41.88,6.83,1.68,10.23,2.57,2.19.57,2.5.42,3-1.83.63-2.58,1.22-5.18,1.91-7.75.82-3,1.79-6,2.6-9.08,1.31-4.93,2.53-9.89,3.81-14.84.54-2.08,1.19-4.14,1.7-6.24.79-3.2,1.47-6.42,2.25-9.62.43-1.79,1-3.54,1.47-5.31.68-2.7,1.29-5.42,2-8.12.43-1.66.93-3.3,1.4-5a32.9,32.9,0,0,1,1.08-3.67c.78-1.89.62-2.5-1.35-3.08-2.63-.77-5.29-1.47-8-2.15-3.4-.86-6.83-1.65-10.23-2.52C45.24,9.46,42.6,8.69,40,8,34.63,6.57,29.32,5.14,24,3.77c-1.81-.47-3.65-.84-5.49-1.21-.71-.14-1.35,0-1.58.85-.44,1.7-1,3.37-1.39,5.07-.76,3.06-1.45,6.13-2.23,9.18-.86,3.35-1.82,6.68-2.69,10C9.26,32.85,7.94,38,6.6,43.2c-.95,3.67-1.91,7.34-2.85,11C3.25,56.19,2.78,58.16,2.46,59.48ZM5.05,68c-.68.08-.65.62-.42,1.2.6,1.52,1.2,3,1.88,4.53a1.4,1.4,0,0,0,1,.68c.24,0,.6-.46.74-.78A27,27,0,0,0,9.5,70.25c.1-.36-.14-1.14-.4-1.23C7.84,68.59,6.51,68.32,5.05,68Z"></path><path d="M31.66,39.32c3.85.39,6.7,1.93,8.35,5.28a3.11,3.11,0,0,0,2,1.83,6.65,6.65,0,0,1,3.69,3.07,14.37,14.37,0,0,0,1.68,2.31c2.16,2.21,1.68,5.28-1,7-1.22.78-1.31,1.11-.54,2.28s.54,2.19-.76,3c-1.93,1.21-4,1.78-6.21.84a3.63,3.63,0,0,0-3.33.16c-1.39.77-2.69,0-3.89-.44a30.88,30.88,0,0,1-3.46-2.09A7.06,7.06,0,0,0,26.33,62a31.2,31.2,0,0,1-4.25-.95c-1.43-.55-1.51-2-.45-3.12.5-.54,1.31-1.36,1.17-1.81-.31-1.07-1.43-.49-2.2-.45-1.73.08-3.33,0-4.61-1.44a2.79,2.79,0,0,1-.61-3.38A5.33,5.33,0,0,1,18.46,48,6.67,6.67,0,0,0,22,45.49c.57-.76,1.68-1.11,2.53-1.68a7.15,7.15,0,0,0,2-1.52A7.23,7.23,0,0,1,31.66,39.32Zm-4.89,5.75a18.66,18.66,0,0,0-2.54.43,1.26,1.26,0,0,0-.66.85c0,.18.43.52.72.65a11.05,11.05,0,0,1,1.68.57c.34.24.47.79.7,1.21-.46,0-1,.22-1.36,0a7.16,7.16,0,0,0-8,1.81,1.52,1.52,0,0,0,.36,2.46,5.85,5.85,0,0,0,4.05.62,22.12,22.12,0,0,1,2.7-.33c.72-.08,1.43-.09,2.14-.18s1.49-.46,1.69.45c.06.27-.88.75-1.36,1.13,0,0-.09,0-.12,0l-.9.8a3.7,3.7,0,0,0,1,.69,15.53,15.53,0,0,0,2.79.49,20.72,20.72,0,0,0,2.6-.15c.43,0,.86,0,1.29,0a4.39,4.39,0,0,1-.59,1c-.69.65-.66,1.07.21,1.52a6.91,6.91,0,0,0,6.51.42c1.4-.67,2.88-1.22,3.54-2.83.16-.37.38-.73.56-1.09.33.3.76.54,1,.9.44.83.91.8,1.49.22a2.39,2.39,0,0,0,0-3.61,8.73,8.73,0,0,1-2.25-3,2.78,2.78,0,0,0-3.77-1.52c-.92.3-1.1-.21-1.17-1a10.18,10.18,0,0,0-.45-2.4,5.64,5.64,0,0,0-3.28-3.16c-2.1-1-4.28-1.29-6.41,0-.32.19-.74.57-.72.84s.42.67.71,1,.68.35.86.63A4.14,4.14,0,0,1,30,45.67a5.15,5.15,0,0,1-1.11,0C28.09,45.49,27.31,45.23,26.77,45.07Z"></path><path d="M39.69,33.14c.44-2.07.34-2.21-1.59-2.83-2.1-.67-2.06-.64-3.4,1.23a24.6,24.6,0,0,1-2.63,3.05c-.69.67-1.4.24-2-.33a1.34,1.34,0,0,1-.33-1.9c2.68-4.39,5.32-8.8,8-13.19a4.6,4.6,0,0,1,1.38-1.63,2.48,2.48,0,0,1,2-.2c.4.16.6,1,.72,1.59.2,1,.26,2,.39,3,0,.23.14.46.15.7.09,2.84.16,5.69.25,8.54,0,.35.19.69.23,1a31.67,31.67,0,0,1,.37,4c0,.41-.69,1-1.17,1.13a1.47,1.47,0,0,1-1.28-.71A29.49,29.49,0,0,1,39.69,33.14Zm.54-7c-.73-.54-1.29-1.15-1.47-1a2.69,2.69,0,0,0-1.08,1.27c-.06.14.64.87.93.84C39.06,27.15,39.47,26.68,40.23,26.15Z"></path><path d="M46.3,24c-.67-.76-1.27-1.18-1.49-1.75s.79-1.62,1.42-1.37a2.6,2.6,0,0,1,1.46,1.41C47.8,22.64,47,23.26,46.3,24Z"></path></svg>