<svg xmlns="http://www.w3.org/2000/svg" id="Layer_1" data-name="Layer 1" viewBox="0 0 193.14 141.03"><title>AsimovMarketingIcon-bt-omar bahaa</title><path d="M173.68,139.05H162.4c-.31,0-.77,0-.89-.22-.67-1-1.64-.73-2.59-.72q-10.26,0-20.52,0a1.37,1.37,0,0,1-1-.31c-.67-.95-1.59-.9-2.58-.89-2.79,0-5.6,0-8.39,0a2.16,2.16,0,0,0-1.53.68,13.6,13.6,0,0,1-4.27,3.27,1.65,1.65,0,0,1-.81.13c-5.51,0-11,.08-16.55-.07-1.09,0-2.16-1-3.25-1.47a3.4,3.4,0,0,0-1.27-.47c-4.48,0-9,0-13.44.05-.27,0-.68,0-.79-.15-.84-1.23-2.06-.78-3.17-.78h-40a1.32,1.32,0,0,1-.7-.08,50.76,50.76,0,0,1-4.23-3.18c-.38-.34-.4-1.23-.37-1.85a2.53,2.53,0,0,0-2.79-3,2,2,0,0,1-1.17-.44,9.65,9.65,0,0,1-1.68-1.7,2.51,2.51,0,0,1-.39-1.4,88.8,88.8,0,0,0,0-9.23c-.14-1.41-1.4-2.72-2.22-4a1.08,1.08,0,0,0-.88.12,2.78,2.78,0,0,0-1,2.86c.24,1.31-1.88,3.79-3.2,3.92-1.09.11-3.23-1.62-3.67-2.85a30.52,30.52,0,0,0-1.3-3c-.9-1.9-1.85-3.77-2.75-5.66-.65-1.37-1.27-2.75-1.86-4.13a2,2,0,0,1-.09-.94c.11-1.09.22-2.12-.82-2.94-.28-.23-.22-1-.19-1.46,0-.9.13-1.73-.72-2.38A1.51,1.51,0,0,1,11,95.68c0-1.12.08-2.24.08-3.35,0-.38-.06-.93-.3-1.1-.9-.63-.73-1.46-.72-2.36.05-4.88.06-9.76.06-14.64,0-.3-.05-.74-.24-.88-1-.72-.8-1.72-.8-2.71,0-6.12,0-12.24,0-18.36,0-.34,0-.84.25-1,.94-.68.82-1.62.82-2.59-.05-7.16-.07-14.32-.1-21.48,0-.23,0-.59.12-.69,1.49-1.12.78-2.68.9-4.09a5.21,5.21,0,0,1,.53-1.49c.1-.21.43-.39.41-.56-.11-1.25.6-2.19,1-3.27a4.41,4.41,0,0,1,2.2-2.24c2.39-1.5,4.93-.66,7.4-.79,1.27-.06,1.53-.22,1.51-1.54Q24.06,8.3,24,4c0-.26.07-.69.23-.76A16.85,16.85,0,0,1,27.6,2a18,18,0,0,1,3.11,0,1.53,1.53,0,0,0,1.08-.31A2.23,2.23,0,0,1,34,1c1.55.08,3.11.08,4.67.09.31,0,.76,0,.9-.21C40.39-.23,41.5,0,42.55,0c6.08,0,12.16,0,18.24,0,.3,0,.74,0,.88.23.68,1,1.63.85,2.6.81,1.12,0,2.24,0,3.36-.06a2.93,2.93,0,0,1,2.72.79c.3.33,1.13.12,1.7.24s1.37.42,2.06.6a5.87,5.87,0,0,0,1.69.32,5,5,0,0,1,2.42.65c1.15.52,2.12,1.76,3.62,1.38,0,0,.1,0,.12,0,1.11,1.11,2.7,1,4,1.48,2.34.92,3.93,3.14,6.5,3.68.5.11.92.73,1.34,1.15a3.78,3.78,0,0,0,4.23.31A28,28,0,0,1,101.21,10c.31-.15.6-.34.9-.52s.47-.44.7-.43c1.94.1,3.36-1,4.87-2a1.88,1.88,0,0,1,1-.11,4.53,4.53,0,0,0,2.76-.69A13.26,13.26,0,0,1,116.12,5a24.11,24.11,0,0,1,3.6.06c.37,0,.91-.06,1.1-.31.61-.8,1.39-.73,2.25-.73,4.88,0,9.76,0,14.64,0,.31,0,.77,0,.91.12,1.32,1.61,3.06.61,4.6.84a14.21,14.21,0,0,1,1.92.61A7,7,0,0,0,147,6c.85,0,1.69-.19,2.25.7a.4.4,0,0,0,.29.19A5.15,5.15,0,0,1,152.93,8c.79.5,1.8.65,2.56,1.18,1.86,1.29,4,2,5.9,3.37,1.62,1.22,3,2.63,4.58,3.88a1.68,1.68,0,0,0,.58.4c2.13.46,2.88,1.79,2.53,3.87-.05.26-.05.68.1.8,1.39,1.08.73,2.55.84,3.89a6.79,6.79,0,0,0,.4,1.43,8.81,8.81,0,0,1,.59,1.94c.06.91-.1,1.78.75,2.51.31.27.28,1,.26,1.57a2.57,2.57,0,0,0,.73,2.39c.3.26.29.94.34,1.44.14,1.33-.37,2.7.83,3.94.44.45,0,1.68.11,2.54a15.45,15.45,0,0,0,.62,1.93,6.56,6.56,0,0,1,.37,1.79,2.89,2.89,0,0,0,.71,2.41c.33.32.32,1.1.3,1.67a2.4,2.4,0,0,0,.72,2.27,2,2,0,0,1,.38,1.19c.18,1.43-.48,3,.84,4.28.42.41.12,1.61.05,2.44a1.93,1.93,0,0,0,.7,2c.12.09.29.27.27.38-.41,2,1.7,3.45,1.08,5.5a2,2,0,0,0,.7,2.26c.26.22.29.79.32,1.21.13,1.41-.47,2.94.88,4.15.25.23-.05,1,.06,1.5.15.69.46,1.35.65,2a5.72,5.72,0,0,1,.35,1.67,2.77,2.77,0,0,0,.76,2.5c.31.28.29,1,.26,1.56,0,.9-.13,1.74.74,2.37a1.37,1.37,0,0,1,.34,1c0,1.08-.07,2.17,0,3.24a9.75,9.75,0,0,0,.6,1.8,4.63,4.63,0,0,1,.3,1.45c-.05,1-.15,1.88.75,2.63.27.22.26.88.26,1.33,0,1-.21,2,.78,2.73.25.19.2.81.23,1.23.1,1.33-.39,2.68.83,3.93.49.5.08,1.83.22,2.77a11.3,11.3,0,0,0,.62,1.92,29.24,29.24,0,0,1,1.31,4.21c.18,1.06-.29,2.22.87,3,.2.14.19.67.19,1,0,1-.1,2.08-.05,3.12a2.58,2.58,0,0,0,.48,1.39,2.41,2.41,0,0,1,0,3.21c-1.43,2.1-3.47,1.9-5.55,1.86-.62,0-1.49,0-1.81.41-.56.65.21,1.22.55,1.85.8,1.45,1.7,2.92,1.39,4.74a2.66,2.66,0,0,1-2.26,1.95H173.68Zm8.74-14.81a5.09,5.09,0,0,0,1.22,0c.54-.17,1.53-.48,1.51-.66-.15-1.62.88-3.42-.7-4.87-.26-.25-.18-.89-.22-1.36-.06-.62.16-1.52-.18-1.83-1-.93-.8-2-.81-3.09a5.14,5.14,0,0,0-.49-1.39,6.91,6.91,0,0,1-.53-1.59c-.09-.94.36-2.26-.12-2.78-1.19-1.28-.72-2.67-.84-4a7.26,7.26,0,0,0-.44-1.54c-.2-.64-.45-1.27-.61-1.92s-.21-1.36-.38-2-.47-1.28-.62-1.93.08-1.56-.29-1.92a2.79,2.79,0,0,1-.71-2.39,4.75,4.75,0,0,0-.34-2.62,3.49,3.49,0,0,1-.64-2.18,8.78,8.78,0,0,0-.42-2c-.16-.58-.47-1.12-.58-1.7s.2-1.57-.13-1.85c-1.37-1.18-.75-2.65-.87-4,0-.45,0-1.07-.33-1.32a2.34,2.34,0,0,1-.68-2.26c.05-.89.17-2-.3-2.62a3.37,3.37,0,0,1-.68-2.52,2.4,2.4,0,0,0-.4-1.63,2.37,2.37,0,0,1-.66-2.05c0-.65.06-1.53-.31-1.91a2.44,2.44,0,0,1-.69-2.27,2.14,2.14,0,0,0-.71-2.26c-.24-.18-.29-.71-.3-1.09,0-1.42.6-3-.86-4.1-.14-.1-.12-.45-.12-.68,0-.8.09-1.6.06-2.4,0-.41,0-1-.29-1.2-.89-.64-.78-1.46-.76-2.36a6,6,0,0,0-.37-1.79c-.18-.6-.74-1.27-.6-1.76.63-2.19-1.29-3.82-1.12-5.87,0-.12-.15-.29-.28-.38a1.75,1.75,0,0,1-.62-1.92,2.32,2.32,0,0,0-.74-2.48c-.28-.21-.26-.86-.3-1.32-.1-1.33.56-2.81-.86-3.87-.18-.14-.16-.6-.17-.91a12.32,12.32,0,0,0,0-2.27,15.94,15.94,0,0,0-1.29-4.06c-.91-1.76-2.91-2.61-4.82-3.37-1.12-.44-2.07-1.25-3.39-1.06-.15,0-.34-.31-.54-.44a3.1,3.1,0,0,0-.82-.44c-1.21-.33-2.13-1.6-3.59-1.12-.08,0-.25-.08-.3-.17-.62-1-1.59-.68-2.48-.73a7.37,7.37,0,0,1-1.67-.39,14.19,14.19,0,0,0-1.93-.66c-1.23-.2-2.65.49-3.64-.87-.11-.15-.52-.12-.8-.12H123.37c-.31,0-.77,0-.91.16-1,1.36-2.49.65-3.77.83a9.79,9.79,0,0,0-1.7.59,7,7,0,0,1-1.39.49c-1.41.16-3-.53-4.14.87-.11.13-.46,0-.68.09a13.64,13.64,0,0,0-1.81.58c-1,.44-1.85,1.33-2.79,1.37-2,.09-3.28,1.19-4.73,2.24A5.9,5.9,0,0,0,99,23.14c.17,1.14-.32,2.41.89,3.29.18.13.17.6.16.91,0,1.36-.08,2.72-.05,4.07a5.42,5.42,0,0,0,.42,1.43,10.47,10.47,0,0,1,.62,1.81c.18,1.32-.51,2.82.91,3.88.18.13.15.6.14.9,0,1.32-.1,2.64-.12,4,0,.39,0,1,.21,1.13,1.08.84.86,2,.84,3.06s-.06,2.09,0,3.12a1.83,1.83,0,0,0,.4,1.18,2.07,2.07,0,0,1,.66,1.93c0,.94-.28,2.2.21,2.76a3.93,3.93,0,0,1,.82,3c0,1.08,0,2.16,0,3.24,0,.37.06.9.31,1.09.71.55.63,1.24.7,2,.17,1.9-.9,4,.87,5.67.15.14.09.53.09.81,0,1.12-.07,2.24,0,3.36a4.6,4.6,0,0,0,.37,1.2,10.27,10.27,0,0,1,.62,1.79c.24,1.62-.69,3.46,1,4.82.16.14.13.53.13.81,0,1.43,0,2.87,0,4.31,0,1-.24,2.08.79,2.83.19.14.2.59.2.9,0,1-.08,1.91-.08,2.87,0,.47-.06,1.15.2,1.36,1,.79.86,1.79.83,2.83s-.06,2.16,0,3.24a1.83,1.83,0,0,0,.36,1.2c.74.6.67,1.32.72,2.14.1,1.55-.76,3.31.9,4.58.15.12.13.53.13.8,0,1.8,0,3.6,0,5.4a1.75,1.75,0,0,0,.36,1.18,2.11,2.11,0,0,1,.63,1.94c0,.93-.26,2.16.22,2.76a3.9,3.9,0,0,1,.75,2.75c0,.54.19,1.49.44,1.54a4.44,4.44,0,0,0,2.4-.14c1-.4,1.9-1.35,3-1.63,2-.51,3.44-2.45,5.73-2.12a.51.51,0,0,0,.39-.24c.54-.82,1.38-.57,2.15-.7,1.6-.29,3.16-.79,4.74-1.21.07,0,.11-.13.18-.15a7.4,7.4,0,0,1,1.71-.55c1.34-.1,2.82.44,3.85-1,.12-.17.52-.2.78-.2,1.56,0,3.12,0,4.68,0,.92,0,1.82.25,2.47-.73.13-.21.65-.22,1-.22,4.12,0,8.23,0,12.35,0,.95,0,1.92-.23,2.57.82.12.2.66.2,1,.2,1,0,2.08,0,3.12-.07s2.16-.18,2.93.9a1.17,1.17,0,0,0,.88.25,7.42,7.42,0,0,1,4.75.81c1,.68,2.35,1,3.24,1.86S181.25,124.59,182.42,124.24ZM34,81h0c0,2.56,0,5.12,0,7.68,0,1-.22,2,.78,2.72.2.14.24.58.24.89,0,3.88,0,7.75,0,11.63,0,.93-.11,1.83.77,2.51.22.16.27.65.27,1q0,3.12-.06,6.24c0,1-.16,2.06.85,2.82.23.17.22.74.22,1.12,0,1.84,0,3.68,0,5.51,0,.33.21.94.32.94a9.19,9.19,0,0,0,3.54-.25,5.36,5.36,0,0,1,2.17-.65,8.84,8.84,0,0,0,2-.4,11.45,11.45,0,0,1,1.6-.52c1.38-.13,2.9.43,4-1,.14-.18.59-.18.9-.18q14,0,28.08,0a1.82,1.82,0,0,1,1.27.48,2.55,2.55,0,0,0,1.9.74c2.31.29,4.84-1,7,.89.07.06.23,0,.35,0,.84,0,1.69-.1,2.52,0a5.25,5.25,0,0,1,1.4.47c.61.21,1.27.7,1.8.58,1.66-.36,2.73.83,4,1.31a25.09,25.09,0,0,1,2.88,1.55c1.2.64,2.44,1.21,3.6,1.91.85.5,1.93.3,1.85-.54-.17-1.58.81-3.38-.78-4.75-.22-.18-.23-.67-.23-1,0-1.08,0-2.16,0-3.24,0-.38,0-.94-.24-1.11-.92-.67-.8-1.56-.75-2.49.06-1.11.07-2.24,0-3.35a1.76,1.76,0,0,0-.36-1.2c-.71-.58-.62-1.27-.67-2-.11-1.63.65-3.46-1-4.81-.15-.13-.11-.53-.1-.81,0-1,.08-2.07.08-3.11,0-.39,0-1-.22-1.12-1-.73-.86-1.71-.83-2.71s0-2.24,0-3.36c0-.34,0-.86-.22-1-1-.67-.85-1.6-.79-2.57s.1-2.24.07-3.36a1.71,1.71,0,0,0-.41-1.18c-.71-.58-.66-1.27-.67-2,0-1.25.49-2.66-.88-3.62-.19-.13-.19-.59-.18-.9,0-1.44.07-2.88.08-4.32,0-.34,0-.83-.25-1a2.65,2.65,0,0,1-.83-2.59c.05-1.16.09-2.32,0-3.48A4.61,4.61,0,0,0,98.69,66a6.07,6.07,0,0,1-.53-1.59c-.06-1,.11-2,0-3A5.06,5.06,0,0,0,97.69,60a6.91,6.91,0,0,1-.51-1.49c-.25-1.73.72-3.68-1-5.16-.15-.13-.09-.53-.09-.81,0-1,.08-2.08.08-3.12,0-.38,0-.94-.24-1.11-.94-.7-.84-1.63-.8-2.6,0-1.16.06-2.32,0-3.48a1.6,1.6,0,0,0-.33-1.09c-.78-.62-.72-1.37-.72-2.25,0-1.52.69-3.23-.9-4.45-.13-.11-.11-.46-.1-.69,0-1.16.07-2.32.06-3.48,0-.37-.06-.91-.3-1.09a2.51,2.51,0,0,1-.8-2.48c.07-1.12.1-2.24.08-3.36,0-.41-.07-1-.34-1.2A2.23,2.23,0,0,1,91.1,20a17,17,0,0,0,0-2.76,3.22,3.22,0,0,0-.59-1.44c-1.41-2.09-3.83-2.78-5.91-3.72-1.88-.86-3.52-2.61-5.9-2.28-.14,0-.37-.16-.48-.31a2.22,2.22,0,0,0-2.16-.7,6.39,6.39,0,0,1-1.82-.28c-.65-.17-1.27-.46-1.92-.62s-1.59,0-2-.38a3,3,0,0,0-2.53-.71,4.81,4.81,0,0,1-1.56-.31,14.35,14.35,0,0,0-1.91-.65c-1.67-.23-3.53.62-4.94-1-.14-.16-.53-.12-.81-.11-3.8,0-7.6,0-11.4,0-.94,0-1.82-.07-2.46.86-.14.21-.64.27-1,.27q-3.3,0-6.6-.06c-.92,0-1.83-.16-2.47.79-.14.21-.65.23-1,.24-.72,0-1.44-.06-2.16-.08a2.56,2.56,0,0,0-2.57,2.63c0,3.2,0,6.4,0,9.6,0,.86-.09,1.65.73,2.25a1.34,1.34,0,0,1,.32,1c0,3.48,0,7-.09,10.44,0,1-.11,1.9.79,2.61a1.4,1.4,0,0,1,.28,1c0,3.68,0,7.36,0,11,0,1.13-.34,2.34.86,3.17.17.11.19.51.19.78,0,2.84,0,5.68-.07,8.52,0,1-.16,1.91.82,2.57.19.14.24.58.25.88,0,2,0,3.92,0,5.88,0,.84-.13,1.65.71,2.26.24.17.29.72.29,1.1C34,75.3,34,78.14,34,81ZM158.64,126.1v.09c2.08,0,4.15,0,6.23,0a2.6,2.6,0,0,0,.91-.19,13,13,0,0,0,1.86-.83,1.64,1.64,0,0,0,.46-.8c-.72-.51-1.47-1.34-2.22-1.35-4.83-.11-9.67,0-14.5,0-.34,0-.84,0-1,.24-.71,1-1.68.91-2.7.88-1.43,0-2.87-.08-4.31-.05a4.23,4.23,0,0,0-1.21.34,9.33,9.33,0,0,1-1.81.59c-1.29.15-2.71-.43-3.8.84-.2.24-.82.17-1.25.17a13.38,13.38,0,0,0-1.54-.09c-.28,0-.52.38-.77.59.22.23.4.54.67.67a12.1,12.1,0,0,0,3.44-.06,1.91,1.91,0,0,1,.48,0c3.87,0,7.74,0,11.62,0,.85,0,1.65.16,2.23-.72.14-.21.64-.27,1-.27C154.49,126.09,156.56,126.1,158.64,126.1ZM75.52,126v-.11c-3.08,0-6.16,0-9.23,0-.46,0-1.26.38-1.28.62-.07.87.69.76,1.29.75,2.24-.05,4.48-.13,6.72-.13,1.2,0,2.49-.23,3.46.87.16.18.61.16.92.16,2.12,0,4.23-.09,6.35-.08a4.09,4.09,0,0,1,1.18.42,5.61,5.61,0,0,0,1.58.55c2.47.11,4.94.15,7.41.21a2,2,0,0,0,.82-.07.88.88,0,0,0,.42-.62.8.8,0,0,0-.43-.62c-1.64-.39-3.14-1.44-5-1a8,8,0,0,1-2.39.08,4.18,4.18,0,0,1-1.18-.42,5.67,5.67,0,0,0-1.67-.62C81.52,126,78.52,126,75.52,126Zm92.42,7.14V133c1.52,0,3,0,4.56,0s3,.13,4.56.09c.4,0,1.13-.44,1.13-.68a3.9,3.9,0,0,0-.47-2.28c-.43-.56-4.2.1-4.83.56a2.18,2.18,0,0,1-1.19.38q-6.78,0-13.55-.1c-.81,0-1.19.33-1.19,1.13s.42,1,1.15,1C161.39,133.13,164.67,133.14,167.94,133.14Zm-116.1.14a4.19,4.19,0,0,0,1.34.05,3.68,3.68,0,0,0,1-.7,8.25,8.25,0,0,0-1-.79c-.18-.1-.47,0-.7,0-.94,0-1.92.32-2.57-.74-.08-.14-.6,0-.92,0,.06.31,0,.77.19.93C50,132.75,50.65,133.82,51.84,133.28ZM98,128.46l-1.12,1.1c.38.26.76.71,1.14.71s.75-.45,1.12-.71Z"></path><path d="M1.09,92c0-.76,0-1.52,0-2.28A2,2,0,0,0,.43,87.8,1.68,1.68,0,0,1,0,86.63c0-2.48,0-4.95,0-7.42,0-.76.25-1.14,1-1.13.6,0,1.2,0,1.79,0a2.43,2.43,0,0,1,2.13,2.3c0,.46-.07,1.15.19,1.34,1,.78.87,1.78.77,2.82,0,.34-.07.86.13,1,1.6,1.34.84,3.11.89,4.7,0,.79,0,1.47.68,2A1.49,1.49,0,0,1,8,93.34c0,1.08-.14,2.16-.08,3.23a5.14,5.14,0,0,0,.57,1.57c.14.31.5.61.48.89,0,.63-.18,1.71-.46,1.77a3.59,3.59,0,0,1-2.33-.3,10.68,10.68,0,0,1-2-1.89c-.2-.19-.42-.51-.64-.51-1.1,0-1.17-.9-1.69-1.55C.9,95.36,1.16,94.17,1.1,93,1.08,92.63,1.09,92.31,1.09,92Z"></path><path d="M159,26.56c-.09,1-.22,2,.81,2.81.28.21.21,1,.18,1.46a2.58,2.58,0,0,0,.7,2.39c.37.36.34,1.24.34,1.89,0,.81-.12,1.55.68,2.14.28.2.28.86.31,1.31.1,1.33-.46,2.68.82,3.91.49.47.16,1.83.13,2.78a2.2,2.2,0,0,0,.64,1.93,2.45,2.45,0,0,1,.36,1.64,2.68,2.68,0,0,0,.77,2.49c.33.28.28,1.1.27,1.67,0,.84-.16,1.62.67,2.27.3.23.29.93.32,1.42.07,1.3-.6,2.75.88,3.72a.4.4,0,0,1,.16.31c0,1.88,0,3.75-.07,5.62,0,.73-1.89,1.05-2.57.33a2.54,2.54,0,0,0-2.39-.71,3.25,3.25,0,0,1-2.17-.67,5.59,5.59,0,0,0-2.83-.42c-.82,0-1.54.1-2.13-.68-.2-.26-.8-.3-1.21-.3q-9.65,0-19.3,0c-.32,0-.8-.06-.91.11-1,1.47-2.4.61-3.62.82a12.6,12.6,0,0,0-1.9.66,6.19,6.19,0,0,1-1.65.43c-1,0-1.88-.18-2.61.77-.22.28-1,.24-1.47.21a2.84,2.84,0,0,0-2.5.74c-.91.9-2,.2-2.62-.76a6.44,6.44,0,0,1-1-4.23.51.51,0,0,0-.21-.41c-1-.6-.89-1.52-.76-2.45a1.92,1.92,0,0,0-.66-2,1.81,1.81,0,0,1-.38-1.19c-.06-1.41.52-2.86-.81-4.14-.43-.41-.14-1.6-.12-2.43s.07-1.71-.77-2.37c-.29-.24-.26-1-.26-1.45,0-.92.19-1.82-.74-2.49-.26-.19-.27-.8-.29-1.22-.06-1.42.54-3-.89-4.11-.22-.18-.07-.82-.08-1.25,0-1.23.43-2.48-.79-3.56-.41-.37-.2-1.51-.17-2.29,0-1,.17-2-.83-2.69-.24-.17-.27-.72-.28-1.1,0-1.08,0-2.16,0-3.24,0-.93.34-1.39,1.27-1.21a2.19,2.19,0,0,0,1.93-.59A15.39,15.39,0,0,1,114,21.05a8.8,8.8,0,0,1,1.32-.7,4.3,4.3,0,0,1,1.58-.26,2.64,2.64,0,0,0,2.49-.75c.33-.37,1.24-.32,1.88-.31s1.49.12,2-.65c.17-.25.7-.34,1.07-.35.75,0,1.51.08,2.27.08.38,0,1,0,1.11-.24.7-1.05,1.69-.83,2.68-.83,4.08,0,8.16-.05,12.23-.07.31,0,.77,0,.9.18.94,1.3,2.27.94,3.51.89a2.34,2.34,0,0,1,2.25.71c.27.32,1.11.26,1.68.22a2.76,2.76,0,0,1,2.18.63,7.44,7.44,0,0,0,2.7,1.34,2.82,2.82,0,0,1,2.16,2.14c.05.19.07.46.2.55C159.36,24.39,159.08,25.5,159,26.56Zm-43.37,15c.49,1.4,1,2.81,1.5,4.18a1,1,0,0,0,.88.46,2.43,2.43,0,0,0,1.09-.61A15.94,15.94,0,0,1,122,43.12c1.13-.54,2-1,2.21-2.33,0-.24.33-.49.56-.64a9.36,9.36,0,0,0,1.93-1.23,17.62,17.62,0,0,1,4.93-3.78.91.91,0,0,1,.56-.15,2,2,0,0,0,2.23-.72,1,1,0,0,1,.77-.23c1.1.11,2.35-.38,3.2.81.13.19.59.2.9.19a2.32,2.32,0,0,1,2.67,2.6,3.8,3.8,0,0,0,.4,1.19c.53,1.59,1.17,3.15,1.55,4.77.19.81,1.13,2.38,2,2.55a6,6,0,0,0,5.18-1.64,14.31,14.31,0,0,1,4.24-2.46c1.43-.58,2.67-2.69,1.75-3.6-1.32-1.29-.8-2.7-.89-4.11a2,2,0,0,0-.39-1.29,2.32,2.32,0,0,1-.64-2.07c0-.64,0-1.49-.33-1.88a2.41,2.41,0,0,1-.63-2.17,4.08,4.08,0,0,0-3.89-4.1,1.3,1.3,0,0,1-1-.32c-.57-.78-1.33-.74-2.15-.73-1.27,0-2.63.44-3.63-.86-.16-.21-.67-.19-1-.19l-11.88,0c-1.09,0-2.25-.3-3,.91-.11.18-.58.18-.89.18-.72,0-1.44-.09-2.16-.05a2.32,2.32,0,0,0-1.41.38,1.86,1.86,0,0,1-1.91.65,2.56,2.56,0,0,0-2.5.7,9,9,0,0,1-2.44,1.3.86.86,0,0,1-.59,0,2,2,0,0,0-2.54,1.42,5.59,5.59,0,0,0,.19,3.52,4.54,4.54,0,0,1,.58,2.05,2.82,2.82,0,0,0,.34,1.89,2.46,2.46,0,0,1,.66,2c0,.94-.3,2.2.19,2.77A2.73,2.73,0,0,1,115.67,41.53ZM156.23,61.1c.85.22,2-.64,3,.55.25.33,1.27.55,1.46.36.67-.69,1.93-1.08,1.61-2.42a.77.77,0,0,0-.27-.39c-.87-.54-.79-1.35-.76-2.22a3,3,0,0,0-.39-1.87,2.54,2.54,0,0,1-.66-1.93c0-1,.24-2.21-.25-2.88a3.84,3.84,0,0,1-.72-2.63c0-.57-.21-1.58-.47-1.63a4.9,4.9,0,0,0-2.49.2,26.9,26.9,0,0,0-2.95,1.65c-1.16.62-2.34,1.2-3.52,1.77a2.51,2.51,0,0,1-1,.26c-.76,0-1.53-.09-2.28,0A6.19,6.19,0,0,1,141.75,48a8.24,8.24,0,0,1-2.43-3.68c-.31-1.1-.3-2.26-1.12-3.18-.1-.12,0-.39,0-.59a3.08,3.08,0,0,0-1.74-2.7,1.91,1.91,0,0,0-1.09.23c-.52.23-1,.57-1.5.83a13.83,13.83,0,0,0-2.78,1.46c-3.4,3-6,6.84-10,9.13a13.1,13.1,0,0,0-2.63,2.43,1.43,1.43,0,0,0-.3.85c1.52.94.6,2.4.81,3.61.08.5,0,1.18.34,1.43a2.34,2.34,0,0,1,.67,2.39,3,3,0,0,0,1.67,2.88c.32.11.95.08,1.09-.13.76-1,1.77-.82,2.81-.82a5.19,5.19,0,0,0,1.67-.63,4,4,0,0,1,1.17-.46c.91-.06,1.83,0,2.75,0,1.2,0,2.49.47,3.4-.8.12-.16.52-.15.8-.15h16.54c.27,0,.69,0,.79.14C153.55,61.58,154.87,61,156.23,61.1Z"></path><path d="M43.27,81.39c.47-.78,1-1.7,1.56-2.58.17-.26.49-.65.69-.62,2.07.3,3.64-1.88,5.81-1.09a1.57,1.57,0,0,0,1.9-.64,1.46,1.46,0,0,1,1.05-.37c1.16,0,2.31.09,3.47.08.37,0,.91-.08,1.08-.32.58-.85,1.35-.81,2.22-.8,3.84,0,7.68,0,11.51,0,.38,0,.94,0,1.1.28.68,1,1.6.86,2.57.82,1.88-.07,3.76-.07,5.64-.09.23,0,.59,0,.68.13,1,1.48,2.44.74,3.71.89a11.39,11.39,0,0,1,1.81.62,5.05,5.05,0,0,0,1.74.43,3.93,3.93,0,0,1,4.19,4c0,.84-.09,1.68-.08,2.52,0,.34,0,.87.21,1,1.1.73.85,1.77.83,2.8q-.06,3.12,0,6.24c0,.38,0,.92.29,1.1A2.46,2.46,0,0,1,96,98.24c-.08,1.48-.09,3-.1,4.44,0,.34,0,.87.21,1,1.21.77.89,1.95.92,3s-.08,1.92,0,2.87a7.72,7.72,0,0,0,.59,1.69,4.25,4.25,0,0,1,.37,1.2c0,1.44,0,2.88,0,4.31a1.57,1.57,0,0,1-.52,1.17c-.31.14-.86-.13-1.25-.33-1.43-.75-2.68-1.91-4.51-1.6a1.67,1.67,0,0,1-1.32-.3,2.38,2.38,0,0,0-2.48-.76,2.36,2.36,0,0,1-2.06-.64A3.09,3.09,0,0,0,84,114a2.24,2.24,0,0,1-2-.66,1.85,1.85,0,0,0-1.27-.49c-1.44,0-2.87.07-4.31.07-.34,0-.85,0-1-.23-.62-.93-1.47-.72-2.35-.7-2.44.05-4.88,0-7.32,0a6.53,6.53,0,0,0-1.79.57,3.78,3.78,0,0,1-1.08.35,29.77,29.77,0,0,1-3-.1,1.93,1.93,0,0,0-2,.78s0,.08-.09.09c-1.44.41-2.88.83-4.33,1.23-.29.08-.67,0-.92.1-1,.57-1.88,1.24-2.86,1.8-.3.16-.91.26-1.07.09a6.43,6.43,0,0,1-1.42-2,4.27,4.27,0,0,1,0-1.78,2.41,2.41,0,0,0-.78-2.48c-.24-.17-.28-.72-.28-1.09,0-2.44.08-4.88.11-7.32,0-.3,0-.77-.22-.89-1.1-.71-.86-1.77-.84-2.79,0-2.08.07-4.16.07-6.24,0-.38-.06-.92-.3-1.1-.94-.67-.89-1.58-.85-2.56.08-1.8.14-3.6,0-5.4A6.27,6.27,0,0,0,43.27,81.39ZM51,107.52c-.17,1.24-.13,2.44,1,3.23.25.18.94.21,1,.06.53-.81,1.27-.64,2-.65a7.79,7.79,0,0,0,1.9-.37c.65-.19,1.24-.58,1.89-.7,1.6-.3,3.44.78,4.82-.85.09-.11.38-.06.58-.06,3.2,0,6.39,0,9.59,0,.3,0,.76,0,.88.2.64,1,1.55.77,2.47.72,1.16-.06,2.32-.1,3.47-.06a1.67,1.67,0,0,1,1.16.46,2.24,2.24,0,0,0,2.16.69c.57,0,1.4-.11,1.69.21.81.93,1.76.71,2.75.74a6.13,6.13,0,0,1,1.68.59c.49.17,1.09.57,1.44.42a1.76,1.76,0,0,0,.63-1.35c0-2.52,0-5,0-7.55,0-1,.21-1.92-.79-2.58-.19-.13-.25-.58-.25-.88,0-2,0-4,.11-6a2,2,0,0,0-.71-2,1.73,1.73,0,0,1-.37-1.19c0-1,.1-2.07.09-3.11,0-.42,0-1-.32-1.21-.86-.65-.77-1.49-.73-2.38.11-2.08-1.11-3.2-3.23-3.07a5.92,5.92,0,0,1-1.78-.35,11.31,11.31,0,0,0-1.71-.55c-.7-.08-1.43.07-2.15.06-1.32,0-2.74.37-3.72-1-.13-.19-.59-.19-.9-.19q-7.25,0-14.51,0c-1.3,0-2.75-.44-3.68,1-.08.13-.36.17-.55.17-.72,0-1.44,0-2.16-.06-1.16,0-2.4-.43-3.28.81-.12.17-.62.18-.9.11-1.41-.35-2,.75-2.54,1.58a2.05,2.05,0,0,0,.4,2.63A2.11,2.11,0,0,1,49,86.47c0,2.08,0,4.15,0,6.23,0,1-.26,2.07.82,2.8.19.13.21.59.21.89,0,2.4-.1,4.8-.12,7.19,0,.39,0,1,.24,1.12C51.17,105.46,51,106.49,51,107.52Z"></path><path d="M58.24,15c.92-.27,1.51-.05,1.82,1.2.26,1,1.16,1.93,1.55,3,.55,1.43.88,2.94,1.3,4.42,0,.07,0,.17,0,.24.54,1.41,1.08,2.82,1.64,4.22.1.25.48.47.45.67-.25,1.91,1.07,3.18,1.83,4.69A3.39,3.39,0,0,1,66.93,35a4,4,0,0,0,.63,2.18,4.56,4.56,0,0,1,.27,3.15,2,2,0,0,1-2.39,1.54,5.27,5.27,0,0,0-1.19,0c-.64,0-.85-.25-1.16-.86a11.46,11.46,0,0,1-1-4.36c-.15-1.88-2.85-2.52-4.22-1.17-.67.66-1.24.65-1.75-.16-.39-.63-.76-.58-1.21,0-.6.69-1.29,1.29-1,2.41.09.3-.28.77-.48,1.14a5.64,5.64,0,0,0-.55.89,1.52,1.52,0,0,1-2.27,1.1c-1.52-.62-1.81-1.78-.83-3.06a2.56,2.56,0,0,0,.35-1.33c.1-1.37-.6-2.88.86-4,.16-.13,0-.61.1-.92.14-.53.35-1,.49-1.59a8.34,8.34,0,0,0,.43-2.11,2.72,2.72,0,0,1,.67-2,3.14,3.14,0,0,0,.38-2,4.15,4.15,0,0,1,.61-2.06,15.35,15.35,0,0,0,1.36-4C55.52,15.75,55.89,15,58.24,15ZM57,28.19c0,1-.13,1.94,1.08,1.95s1.15-.86,1.14-1.7,0-1.68-1.17-1.66S56.93,27.61,57,28.19Z"></path><path d="M85.94,71.56A13.56,13.56,0,0,1,86,73.11c-.06.87-1,1.38-1.51.73-.82-1.17-1.89-.92-3-.92-7.48,0-15,0-22.42,0-1.6,0-3.2-.05-4.8,0-.34,0-.85,0-1,.25-.69,1-1.66.92-2.67.85-.64,0-1.28,0-1.92,0a2.38,2.38,0,0,1-2.62-2.73c.12-2.23.12-2.23,2.37-2.19,1.05,0,2.1.29,3-.75.28-.34,1.21-.06,1.82-.19a14.86,14.86,0,0,0,1.9-.68A4.68,4.68,0,0,1,56.36,67c1.16-.06,2.32,0,3.48,0,.95,0,1.91.25,2.59-.75.12-.19.58-.21.88-.22q4.74,0,9.47,0c.3,0,.74.06.88.25.63.86,1.47.79,2.37.74,1.24-.06,2.48-.05,3.71,0a1.51,1.51,0,0,1,1.06.4,2.16,2.16,0,0,0,2.15.72c2.27-.12,3.14.75,3,3,0,.16,0,.32,0,.48Z"></path><path d="M82.54,64c-1.05.1-2.06.16-2.79-.88-.15-.22-.65-.26-1-.27-1.12,0-2.24,0-3.36,0s-2,.27-2.67-.79c-.14-.2-.67-.19-1-.19-4.76,0-9.51,0-14.27,0-.42,0-1,0-1.21.29-.63.82-1.39.74-2.26.69a32.78,32.78,0,0,0-3.71,0A2,2,0,0,0,49,63.4a1.88,1.88,0,0,1-2.4.44c-.79-.43-1.66-1-1.51-2.22a5.79,5.79,0,0,0,0-.72c0-1.77,0-1.76,1.74-1.8.23,0,.58,0,.68-.13,1.08-1.47,2.62-.75,4-.89a7.1,7.1,0,0,0,1.5-.49,5.94,5.94,0,0,1,1.6-.51c1,0,2,.25,2.7-.8.13-.19.58-.23.88-.23,3.83,0,7.67,0,11.5,0,.27,0,.68,0,.8.14,1,1.39,2.45.76,3.74.89a11.52,11.52,0,0,1,1.8.6,7.88,7.88,0,0,0,2,.4,2.65,2.65,0,0,1,2.07.63,2.74,2.74,0,0,0,1.77.37c2.15-.07,3.07.78,3,2.9,0,.2,0,.4,0,.6.06,1.33-.12,1.51-1.49,1.47Z"></path><path d="M44.08,50.6A2.86,2.86,0,0,1,46.92,49c1.2.11,2.57.53,3.54-.77.11-.16.52-.13.79-.13l18.59,0c.23,0,.59,0,.69.08,1.07,1.41,2.55.69,3.87.84a6.41,6.41,0,0,1,1.6.58c.43.17.84.51,1.26.51,1.15,0,2.31-.29,3.18.83.14.18.6.15.91.13A2.33,2.33,0,0,1,84,53.63C83.86,56,83.33,56.4,81,56c-.12,0-.28,0-.33-.1-1.3-1.77-3.16-.81-4.77-.93-.78-.06-1.46,0-2-.73a1.48,1.48,0,0,0-1.07-.34c-1.84,0-3.67.07-5.51.08-.3,0-.74,0-.88-.25-.74-1-1.77-.86-2.81-.85-2,0-4.08,0-6.12,0-.35,0-.87,0-1,.18-.87,1.23-2.11.9-3.27.89-.8,0-1.61,0-2.4,0a4.47,4.47,0,0,0-2.06.63,8,8,0,0,1-3.3.23c-.11,0-.33-.68-.31-1C45.18,52.53,45.58,51.27,44.08,50.6Z"></path><path d="M74.08,16.09c2,0,3,.81,2.94,2.52a2.57,2.57,0,0,1-2.55,2.33,2.61,2.61,0,0,1-2.38-2.5c0-.16,0-.32,0-.48C72.18,16.11,72.18,16.11,74.08,16.09Z"></path></svg>