<svg xmlns="http://www.w3.org/2000/svg" id="Layer_1" data-name="Layer 1" viewBox="0 0 89.05 97.16"><title>AsimovMarketingIcon-bt-omar bahaa</title><path d="M22.41,78.32a15.52,15.52,0,0,0-1.7-1.22C19.25,76.31,19.2,76,20,74.62c2.51-4.18,5-8.39,7.44-12.59.89-1.51,1.77-3,2.59-4.58a4.83,4.83,0,0,0,.27-1.39A4.07,4.07,0,0,0,28.88,56c-1.74.57-3.42,1.36-5.18,1.86-2.24.63-4.48,1.48-6.87.57a19,19,0,0,1-3.23-1,8.64,8.64,0,0,1-2.31-2.46c-.39-.56-.67-.92-1.4-.76-3,.66-5.41-.54-7.64-2.28A11.14,11.14,0,0,1,.17,49.6c-.25-.34-.13-.93-.17-1.41a2.81,2.81,0,0,1,1.18.13c1,.61,1.66-.11,2.33-.65s.27-1.16,0-1.82A11.67,11.67,0,0,1,3,43.34a6.74,6.74,0,0,1-.08-1.9,4.66,4.66,0,0,1,.62-1.27c.38.23.87.39,1.1.72,1.63,2.35,3.7,3.69,6.68,3.27,1.82-.25,2.16,0,2.28,1.88a1,1,0,0,0,1.22,1,36.56,36.56,0,0,0,3.9-.54c3.55-.74,7.07-1.6,10.63-2.32,1.47-.3,3-.35,4.48-.56a30.87,30.87,0,0,0,3.86-.7,2.41,2.41,0,0,0,1.21-1.09c1.81-3,3.57-6,5.33-9,.78-1.33,1.28-1.58,2.74-1.09,3,1,6,2.09,9.08,3.09a4.73,4.73,0,0,0,1.46,0,12.14,12.14,0,0,0-.17-1.35q-.85-3.36-1.77-6.72c-.15-.57-.37-1.13-.55-1.7a1.17,1.17,0,0,1,.75-1.65,1.6,1.6,0,0,1,1.39.63c.63,1.2,1.35,1.16,2.56.87a5.8,5.8,0,0,1,3.05.57A27.21,27.21,0,0,1,65.25,27a1.82,1.82,0,0,0,1.33.2,8.5,8.5,0,0,0,3.75-2.85c1.61-2.22,3.22-4.46,5.66-5.93a5.69,5.69,0,0,1,6.74.88A14,14,0,0,1,85,23.06c.84,1.72,1.59,3.49,2.28,5.28s1.9,3.42,1.8,5.5a2.7,2.7,0,0,1-1.25,2.31c-1.21.82-1.85.58-2.1-.87-.16-.9-.78-1.14-1.54-1.22-2.64-.28-4.42.78-5.15,3.45a11.12,11.12,0,0,1-5.58,6.73,2.81,2.81,0,0,1-2.08,0,5.76,5.76,0,0,1-1.82-1.33A5.87,5.87,0,0,0,65,41.47c-2.2.15-3.41,2.16-2.76,4.55s1.36,4.57,1.91,6.89a1.84,1.84,0,0,1-.79,1.45c-.56.38-1.19.09-1.38-.64q-.75-2.89-1.44-5.81c-.58-2.44-1.13-4.89-1.7-7.34,0-.23-.23-.46-.22-.68.12-2.34-1.37-3.12-3.31-3.69-2.68-.79-5.32-1.75-7.95-2.69a1.7,1.7,0,0,0-2.32.85c-1.4,2.41-2.81,4.83-4.24,7.23a1.3,1.3,0,0,0,.41,2,5.48,5.48,0,0,1,1.24,2,12.11,12.11,0,0,0,.66,1.78,1.76,1.76,0,0,0,1.3.76,6.32,6.32,0,0,0,4.38-2.44c.42-.6.85-1.54,1.75-.94a1.87,1.87,0,0,1,.7,2.44c-.43,1-.93,1.95-1.38,2.93-.65,1.39-.39,2,1.06,2.49a4.37,4.37,0,0,0,.7.15c.64.11,1.78.13,1.81.32a7.33,7.33,0,0,1-.22,2.45c0,.26-.45.66-.62.63-1.3-.21-2.11.86-3.2,1.13a10.53,10.53,0,0,1-3.48.54,7.79,7.79,0,0,0-5.24,1.58,7.9,7.9,0,0,1-2.73,1,2.07,2.07,0,0,1-2.54-1.47c-.44-1.13-1.05-1.22-2.25-.82a6.76,6.76,0,0,0-3.81,3.57L22.66,73.61c-.08.14-.17.27-.26.4-1.18,1.66-1.11,2,.75,2.88,1.57.7,3.19,1.27,4.8,1.86C31.48,80,35,81.33,38.54,82.59c2.93,1,5.89,2,8.82,3.08q6,2.17,11.9,4.46c.93.37,1.59.28,2-.61.88-2,1.73-4,2.52-6.08Q66.54,76.22,69.23,69c1.55-4.19,3-8.4,4.58-12.6.85-2.31,1.74-4.62,2.57-6.94a4.93,4.93,0,0,0,.11-1.34c-.42,0-.83,0-1.24.1a10.68,10.68,0,0,1-2,.27c-.32,0-.74-.47-.85-.81s.34-.74.63-.84c3.36-1.06,5.57-3.46,7.47-6.26.4-.6.89-1.32,1.72-.69s.46,1.29,0,1.9c-.81,1-1.65,2-2.45,3a1.65,1.65,0,0,0-.4.92c0,.15.46.36.74.42,1.9.45,2.47,1.4,1.8,3.24-1.8,5-3.67,10-5.47,15C75.15,67.89,74,71.5,72.69,75.06c-1.37,3.75-2.83,7.46-4.25,11.19-.9,2.39-1.79,4.79-2.71,7.17A28,28,0,0,1,64.55,96c-.59,1.13-1.24,1.36-2.47.88-4.68-1.83-9.34-3.72-14-5.53-5.1-2-10.24-3.84-15.35-5.82-3.72-1.43-7.41-3-11.11-4.46a1.28,1.28,0,0,1-.53-.28c-.35-.43-.66-.9-1-1.35.47-.21.93-.44,1.41-.63a5,5,0,0,1,.76-.19ZM28.3,54.1A17,17,0,0,0,26,53.73a2.61,2.61,0,0,1-2.6-2,2.54,2.54,0,0,1,.83-3.19c.45-.34.86-.73,1.29-1.09L25.34,47a10,10,0,0,0-1.9,0c-2.41.49-4.8,1.11-7.22,1.54a31.41,31.41,0,0,1-3.77.22c-.37,0-.9,0-1.06.17a1.55,1.55,0,0,0,0,1.11c.26.93.63,1.81.9,2.73.72,2.45,1.93,3.47,4.51,3.38a75.15,75.15,0,0,0,8-.63,15.92,15.92,0,0,0,3.56-1.39,7.63,7.63,0,0,0,2-.14A28.16,28.16,0,0,1,40.9,52.1c1.32,0,1.75-.56,1.32-1.83-.51-1.51-1.1-3-1.75-4.44-.4-.91-1-1.64-2.2-1.45Q34,45,29.8,45.67c-.74.11-1.51.12-2.24.28-.34.07-.63.4-.94.61a3.2,3.2,0,0,0,.71.79,12.74,12.74,0,0,0,1.36.45c1.27.49,2.27,2.77,1.6,3.78A30.17,30.17,0,0,1,28.3,54.1ZM83.89,32.59a1.94,1.94,0,0,0,.65,0c.48-.09,1.22-.16,1.33-.45a2.56,2.56,0,0,0-.24-1.54c-.13-.4-.44-.74-.61-1.14-.87-2-1.7-4-2.57-6a5.66,5.66,0,0,0-.79-1.2,1.38,1.38,0,0,0-2.18-.34,12.72,12.72,0,0,0-2.2,2.44,3.18,3.18,0,0,0,1.8,4.87c.25.09.58.37.6.6a.89.89,0,0,1-.4.74c-1.67.52-2.08,2.15-2.27,3.36-.47,3-5.67,5.83-8.75,4.51a4,4,0,0,0-2.16-.05c-.38.08-.67.62-1,1a7.47,7.47,0,0,0,1.3.76c.88.3,1.84.39,2.68.76a10.37,10.37,0,0,1,1.72,1.28c1.65,1.2,2.32,1.11,3.85-.3a12.85,12.85,0,0,0,3.2-5.28A5.75,5.75,0,0,1,83.89,32.59Zm-16.68.47c-.09,3.53,1.56,5,3.89,4.46a7.84,7.84,0,0,0,2.05-1,8.05,8.05,0,0,0,4-6.53,1.27,1.27,0,0,0-.33-.87A17.4,17.4,0,0,0,75,27.39a1.45,1.45,0,0,0-1.86-.14,1.83,1.83,0,0,1-1.5-.05,1.18,1.18,0,0,0-1.68.26A11.1,11.1,0,0,0,67.21,33.06ZM8.07,52.58c.16,0,.32,0,.48,0,1.67,0,2-.56,1.42-2.07a12.49,12.49,0,0,1-.84-2.62c-.31-2.07-1.83-3-3.42-3.84a1,1,0,0,0-.86,0,1,1,0,0,0-.13.86,4.73,4.73,0,0,0,.79,1.17c1,1.2.91,1.91-.43,2.65-.42.23-.86.43-1.27.67-.83.5-.91,1-.14,1.55A7,7,0,0,0,8.07,52.58Zm38,3.66a22.61,22.61,0,0,0,2.84-.69A1.93,1.93,0,0,0,50,54.45c.07-.24-.55-.77-1-1-1.74-1.07-1.89-1.48-1-3.28a1.92,1.92,0,0,0,.14-.33c.22-.79,0-1.21-.88-1a14.51,14.51,0,0,0-1.89.74c-1.28.54-1.4,1-.87,2.33a2.57,2.57,0,0,1,.19,1.88C43.58,56.07,43.53,56,46.1,56.24ZM62.64,35.87c-.27-.8-.49-1.47-.73-2.15-.68-2-1.32-4-2.11-5.94-.15-.36-.92-.47-1.41-.69-.11.46-.39.95-.29,1.36.51,2.06,1.07,4.11,1.72,6.13A5.43,5.43,0,0,0,61,36.46c.21.22.83.17,1.21.07C62.39,36.48,62.51,36.07,62.64,35.87ZM25.34,50.18c-.07,1.8,1,1.66,1.83,1.76.27,0,.85-.59.84-.61-.51-.75-1.07-1.47-1.62-2.2ZM61.48,38.34c-.18.19-.79.58-.73.8a9.81,9.81,0,0,0,.93,2c.45-.42,1.12-.77,1.29-1.29C63.24,39,62.6,38.54,61.48,38.34Z"></path><path d="M53,8.55A11.45,11.45,0,0,1,49,16c-2.41,2.28-5.43,3-8.54,3.73a9.09,9.09,0,0,0-3.6,1.68,3.81,3.81,0,0,0-1.42,4c.11.52-.28,1.15-.44,1.72-.56-.18-1.27-.21-1.65-.59A6.55,6.55,0,0,1,34,16.38a14.32,14.32,0,0,1,4.5-2.12c2.78-.73,5.48-1.8,7-4.59a2.21,2.21,0,0,0,.07-2.36C44.65,5.68,41.31,3.85,39,5a13.86,13.86,0,0,1-2.64,1.12,3.22,3.22,0,0,1-2.08-.22c-.71-.39-.58-1.2-.28-1.93A6.64,6.64,0,0,1,40.13,0a35.22,35.22,0,0,1,5.55.46c3.52.79,5.66,3.29,7,6.48A6.2,6.2,0,0,1,53,8.55Z"></path><path d="M42.94,73.05c.15-1.18.21-2.38.47-3.52a5.45,5.45,0,0,1,2.74-3.63,5.58,5.58,0,0,0,1-.73,13.55,13.55,0,0,1,8.64-3.32,5.91,5.91,0,0,1,3.16.93c2.79,1.74,4.8,4.08,4.91,7.6a5.4,5.4,0,0,0,.25,1.89c.73,1.74,0,3.39-.61,4.82a15.18,15.18,0,0,1-3.19,4.42c-4.07,4.26-10.57,3.24-14.15-.93a25.12,25.12,0,0,1-1.84-2.5A7.71,7.71,0,0,1,42.94,73.05Zm10.74,8.89c4.64.4,7.45-2.21,8.37-6a16.67,16.67,0,0,0,.3-4.84c-.19-3-1.86-6.82-5.46-7.46a13,13,0,0,0-3.6.24,9.72,9.72,0,0,0-8.39,10.8C45.57,79.06,49,81.87,53.68,81.94Z"></path><path d="M28.69,34.54a2.89,2.89,0,0,1,3-2.93,3.21,3.21,0,0,1,3,3c0,1.49-2,3.32-3.55,3.31C29.83,37.92,28.69,36.3,28.69,34.54Z"></path><path d="M41,70.48c0,1-.52,1.37-1.4,1L34.4,69.2a1,1,0,0,1-.59-1.55,1.09,1.09,0,0,1,1.68-.51,38.69,38.69,0,0,0,4.15,1.74A1.78,1.78,0,0,1,41,70.48Z"></path><path d="M42,66.11c0,1.08-.56,1.62-1.33,1.35-1.61-.57-3.2-1.22-4.79-1.86-.63-.26-1-.74-.59-1.43a1.11,1.11,0,0,1,1.59-.58c1.35.57,2.75,1,4.1,1.64A4.2,4.2,0,0,1,42,66.11Z"></path><path d="M33.4,70a10.93,10.93,0,0,1,1.74,2c.09.16-.65,1-1.14,1.18-.66.22-2-.93-1.81-1.48A7.71,7.71,0,0,1,33.4,70Z"></path><path d="M73.48,32.93a28.86,28.86,0,0,1-2.43,1.66c-.18.1-.79-.19-.88-.42a3,3,0,0,1,0-1.29c.08-.51.23-1,.34-1.53a8.79,8.79,0,0,1,1.74.52A6.54,6.54,0,0,1,73.48,32.93Z"></path><path d="M57.41,79.08a2.71,2.71,0,0,1-.6-.69c-.73-1.68-1.43-3.38-2.11-5.08-.26-.65,0-.93.7-.77,1.5.38,3,.76,4.5,1.2a1.17,1.17,0,0,1,.67.71c.22,1-1.77,4.21-2.76,4.53C57.73,79,57.65,79,57.41,79.08Z"></path><path d="M54.44,80.25c-1.72-.28-2.95-.38-4.14-.69-.83-.22-.92-.87-.45-1.61.8-1.28,1.56-2.59,2.37-3.86a3.14,3.14,0,0,1,.78-.65,3.85,3.85,0,0,1,.66.87c.52,1.37,1,2.78,1.47,4.16C55.55,79.58,55.12,80.25,54.44,80.25Z"></path><path d="M50.44,74.07a8.39,8.39,0,0,1-1.9,3.37c-.07.09-.83-.14-1-.4S47,76,47.13,75.85c.95-.77,2-1.42,3-2.11Z"></path></svg>