<svg xmlns="http://www.w3.org/2000/svg" id="Layer_1" data-name="Layer 1" viewBox="0 0 138.61 137.85"><title>AsimovMarketingIcon-bt-omar bahaa</title><path d="M32.05,12.46c-.23,0-.11,0,0,0,1.57.24,2.63-.16,3.12-1.89.85-3,5.31-3.9,7.5-2.62.81.47,1.14-.06,1.53-.61.77-1,1.51-2.13,2.37-3.09a3.7,3.7,0,0,1,4.28-.6L53,4.82c.7.4,1.23.32,1.47-.53.4-1.34,1.48-2,2.57-2.69a2.86,2.86,0,0,1,3.75,0c.72.55,1.62.85,2.38,1.36s1.15.4,1.53-.23A6.46,6.46,0,0,1,68.22.19c1.79-.65,3.2.48,4.59,1.43a1.82,1.82,0,0,1,.34.34c1.31,1.45,1.31,1.45,2.84.14C78.1.31,80.68.45,82.85,2.52c.61.58,1.13,1.25,1.69,1.87s1,.75,1.39.09C86.8,3,88.2,3.12,89.44,3.36c1.5.3,3,.81,3.67,2.52a6.5,6.5,0,0,0,1.49,2c.2.21.71.19,1.06.14.71-.1,1.4-.33,2.11-.45.43-.08.88,0,1.32-.06,2.42-.26,3.89,1.16,3.85,3.58a2.72,2.72,0,0,0,.77,1.74c.21.21,1,0,1.44-.21a5.77,5.77,0,0,1,5,.82,12.15,12.15,0,0,0,1,1,2.24,2.24,0,0,1,.86,2.32c-.21,1.17.17,1.7,1.33,1.54,3.58-.5,4.74,2.08,6,4.54a2.26,2.26,0,0,1,0,1.16c-.14,1.21.28,1.89,1.39,1.61,2.52-.63,3.84,1,4.86,2.63.56.87.32,2.46,0,3.62a2.28,2.28,0,0,0,1.67,2.86,13.78,13.78,0,0,1,3.32,1.76c.23.14.34.63.35,1,0,1.6,0,3.2-.09,4.8,0,.79.27,1.13.92,1.58a8.55,8.55,0,0,1,3,2.82c.47,1,0,2.45-.08,3.68,0,.4-.42.77-.67,1.13a1.24,1.24,0,0,0,.35,2,9.43,9.43,0,0,1,1.33,1.2c2.53,2.49,2.76,4.19,1,7.26-.95,1.69-.78,2.88.61,4.35,1.64,1.71,1.6,2.7.07,4.48a8.57,8.57,0,0,0-1.5,2.69,2.53,2.53,0,0,0,.37,1.66c.67,1.3,1.7,2.48,1.41,4.09a3.59,3.59,0,0,1-.65,1.69,32.62,32.62,0,0,1-2.89,2.87c-.69.64-.78,1.22,0,1.74a1.84,1.84,0,0,1,.86,2.06,1.77,1.77,0,0,0-.07.71c.57,1.89-.6,3-1.8,4.07a2.52,2.52,0,0,1-2.22.94.8.8,0,0,0-.76,1.34,2.68,2.68,0,0,1,.75,2.63,9.88,9.88,0,0,0,0,1.44,3.37,3.37,0,0,1-3.25,3.72,2,2,0,0,0-1.75,2.08,13.62,13.62,0,0,0,.09,2.39A2.65,2.65,0,0,1,125,109.7c-1.21.92-2.44,1.79-4.1,1.64-1-.09-1.59.4-1.49,1.49a1.42,1.42,0,0,0,0,.36c.75,2.46-.75,3.91-2.43,5.22a2.64,2.64,0,0,1-1.65.39c-2.41-.14-2.65.1-3.28,2.38a6.91,6.91,0,0,1-2.59,3.93,2.85,2.85,0,0,1-1.47.33q-1.86,0-3.72,0c-1,0-1.47.38-1.36,1.43a3.29,3.29,0,0,1-3.61,3.65c-.64-.05-1.28,0-1.92,0-.38,0-.91,0-1.13-.21-1-1.06-1.66-.42-2.28.45a10.93,10.93,0,0,0-.71,1,5.16,5.16,0,0,1-5.59,2.88,2.6,2.6,0,0,1-1.32-.71,1.94,1.94,0,0,0-3.13.53c-1.79,3.33-5.16,3.33-7.55,1.09-1.17-1.1-1-1-2.2,0a10.56,10.56,0,0,1-3.36,2.16c-1.83.65-3.26-.58-4.64-1.61a4.88,4.88,0,0,1-.77-.91c-.54-.69-1-.74-1.64,0a5.34,5.34,0,0,1-7.19.9,3,3,0,0,1-.76-1,2.78,2.78,0,0,0-3.9-1.06,3.46,3.46,0,0,1-4.89-.61,18.83,18.83,0,0,1-2-2.75c-.52-.84-.94-1.1-1.89-.48-1.78,1.16-5.5.24-6.62-1.53a2.54,2.54,0,0,1-.26-1.13,2,2,0,0,0-2.08-2c-.8,0-1.6,0-2.4,0a4.91,4.91,0,0,1-4.56-5c.11-1.28-.15-1.58-1.43-1.61a1.48,1.48,0,0,0-.47,0,4.14,4.14,0,0,1-4.71-2,6.44,6.44,0,0,1-.82-2.11A5.51,5.51,0,0,1,19,113c.09-1.1-.19-1.57-1.48-1.72a7.73,7.73,0,0,1-3.17-1.54,4.2,4.2,0,0,1-1.93-4.62c.33-1.69-.49-2.53-2.16-2.76a3.57,3.57,0,0,1-2.89-3.62c.08-1.44.1-2.88.08-4.32a1.5,1.5,0,0,0-.51-1c-1.07-.94-2.24-1.78-3.26-2.76a2.27,2.27,0,0,1-.49-1.51,6.13,6.13,0,0,1,.89-4.07c.66-.9-.17-1.76-1-2.24A4.34,4.34,0,0,1,.86,78.65C.87,77.15,1,76,2.24,75a1.39,1.39,0,0,0,0-2.14,2.42,2.42,0,0,0-.5-.51C-.37,71,0,68.93.05,67a2.34,2.34,0,0,1,.69-1.21c.4-.5.91-.9,1.34-1.38.88-1,.85-1.61-.07-2.59a4.57,4.57,0,0,1,.07-6.41l.92-1c1.6-1.63,1.6-1.63.47-3.61-.65-1.15-.29-4.08.7-5S6.08,44.29,7,43.52a1.87,1.87,0,0,0,.27-2.61C5.76,39,7.15,37.68,8,36.3a3,3,0,0,1,2.71-1.67c1,0,1.82-1.13,1.83-2.19a9,9,0,0,0-.1-2.27,2.45,2.45,0,0,1,1.11-2.79c1.31-.93,2.52-2,4.38-1.71,1,.17,1.12-.61,1.14-1.42a7.32,7.32,0,0,1,.29-2.67c1-2.33,3.19-3,5.52-3.25,1.4-.12,1.75-.36,1.55-1.74a2.05,2.05,0,0,1,.79-2.12c.15-.12.29-.27.44-.41C29.34,12.43,29.34,12.43,32.05,12.46ZM62.1,125.55a14.43,14.43,0,0,1,4.49.72,5.73,5.73,0,0,0,5.4-.44,1.85,1.85,0,0,1,1-.29c1.52,0,3,0,4.56,0a5.87,5.87,0,0,0,1.47-.32c1.6-.47,3.18-1.31,4.79-1.34a10.52,10.52,0,0,0,4.24-1.21,111.4,111.4,0,0,0,11.12-6,48.45,48.45,0,0,0,7-5.43c1.81-1.64,3.7-3.22,4.88-5.53.81-1.58,2.29-2.82,3.32-4.31a56.54,56.54,0,0,0,3.74-6A70.89,70.89,0,0,0,122,87c.42-1.13.51-2.44.89-3.67a26.3,26.3,0,0,0,.74-3,41.52,41.52,0,0,0,1-5c.27-4.55.16-9.12,0-13.67a21.78,21.78,0,0,0-1-4.39c0-.07-.11-.12-.13-.19-.18-.62-.36-1.24-.52-1.87-.41-1.59-.79-3.19-1.21-4.77a11.57,11.57,0,0,0-.49-1.08c-.92-2.38-1.65-4.85-2.79-7.12a60.2,60.2,0,0,0-4.34-7A58.46,58.46,0,0,0,109,28.62a69.7,69.7,0,0,0-6-5.26c-.9-.77-1.86-1.48-2.82-2.17s-2-1.39-3.08-2.06c-1.94-1.24-3.72-2.88-6.28-2.69-.28,0-.57-.25-.87-.36-1.84-.68-3.69-1.33-5.52-2-1.25-.48-2.44-1.17-3.87-1-.15,0-.32-.23-.51-.29a8.57,8.57,0,0,0-1.76-.5c-1.9-.22-3.93.64-5.67-.75a.45.45,0,0,0-.34-.08c-2.32.32-4.8-.76-7,.78a1,1,0,0,1-.46.1c-2.19.08-4.35-.37-6.52.78-1.38.73-3.24.49-4.82.92a22.27,22.27,0,0,0-4,1.64,4.89,4.89,0,0,1-3.3.74,2.53,2.53,0,0,0-1.58.36c-1.24.71-2.45,1.49-3.63,2.3A67.06,67.06,0,0,0,34.08,24a48.87,48.87,0,0,0-9.84,11.41c-1.79,3-3.64,6-5.34,9.13A36.72,36.72,0,0,0,17,49c-.26.65-.38,1.36-.66,2-.5,1.19-1.13,2.35-.88,3.73,0,.08-.14.19-.16.3-.19.74-.38,1.47-.54,2.2-.06.27,0,.66-.12.81-1.29,1.27-.65,2.86-.76,4.32a11.42,11.42,0,0,1-.32,1.84A15.26,15.26,0,0,0,13,66.27c-.1,1.31,0,2.64-.06,4,0,.31-.08.75.09.93,1.41,1.47.73,3.24.8,4.9a7.25,7.25,0,0,0,.32,1.36c.2.74.43,1.47.59,2.22.36,1.69.6,3.42,1,5.09a32.46,32.46,0,0,0,1.26,3.41,69.2,69.2,0,0,0,2.53,6.46c1.15,2.25,2.69,4.31,4,6.5A26.07,26.07,0,0,0,28,107c1.85,1.78,3.56,3.69,5.45,5.41a62.26,62.26,0,0,0,5,4,41.16,41.16,0,0,0,4.18,2.74,59.5,59.5,0,0,0,6,3c2.28,1,4.66,1.67,7,2.46a3.68,3.68,0,0,0,1.05.11c.4,0,.92-.11,1.17.09C59.14,125.89,60.65,125.47,62.1,125.55Z"></path><path d="M69.1,120.48c-2.44,0-4.9.18-7.31-.06a34.4,34.4,0,0,1-6-1.41c-1.8-.52-3.57-1.17-5.35-1.8a17.92,17.92,0,0,1-2-.86c-1.71-.86-3.42-1.74-5.12-2.61a1.05,1.05,0,0,1-.31-.18c-3-2.86-7-4.67-9.63-8-1.64-2-3.2-4.13-4.73-6.25C27.52,97.7,26.34,96,25.3,94.23A45.86,45.86,0,0,1,22.66,89a37.85,37.85,0,0,1-1.16-3.84c-.1-.34-.28-.64-.41-1s-.42-.75-.38-1.09a2.8,2.8,0,0,0-.65-2.55c-.21-.22-.14-.68-.23-1-.19-.73-.41-1.46-.61-2.19a4.17,4.17,0,0,1-.23-1c0-2,.1-4.08,0-6.12a4,4,0,0,0-.64-1.94,1.67,1.67,0,0,1,0-2A4.79,4.79,0,0,0,19,64.21c.08-1.44,0-2.88,0-4.32a.48.48,0,0,1,0-.12c.47-1.54.93-3.09,1.43-4.61a17.42,17.42,0,0,0,1.06-3c.53-3.87,2.76-7,4.37-10.39a22.2,22.2,0,0,1,2.35-3.43c1.36-1.88,2.68-3.81,4.17-5.59s2.84-3.67,5-4.69a2.37,2.37,0,0,0,.76-.57c3-3.44,7.13-5.18,11.12-7.07,1.95-.92,4.15-1.31,6.08-2.27a6.84,6.84,0,0,1,3.76-.72.57.57,0,0,0,.35-.07c1.48-1.33,3.27-.73,4.93-.76,4.16-.08,8.32-.09,12.48-.13a.64.64,0,0,1,.24,0c1.55.48,3.12.93,4.66,1.45,1.83.62,3.68,1.2,5.45,2a65.52,65.52,0,0,1,5.86,2.95c1.48.83,2.88,1.81,4.28,2.78a36.63,36.63,0,0,1,4,3c2.06,1.9,4.05,3.88,5.93,5.95a24.19,24.19,0,0,1,3.06,4.19c1.78,3.07,3.49,6.18,5.06,9.36a32.69,32.69,0,0,1,1.52,4.54c.09.26.21.51.29.77.2.71.4,1.42.58,2.13.07.3,0,.75.14.92,1.33,1.32.61,2.93.73,4.43a11.61,11.61,0,0,0,.44,1.9,6.7,6.7,0,0,1,.4,1.47q.06,5.08,0,10.18a6.2,6.2,0,0,1-.4,1.34c-.18.67-.6,1.42-.45,2,.51,2.1-.82,3.71-1.3,5.54-.34,1.31-.79,2.61-1.26,3.88a21.3,21.3,0,0,1-1.39,3.17c-1.8,3.13-3.53,6.32-5.55,9.31A65.88,65.88,0,0,1,99.81,110a13.8,13.8,0,0,1-3,2c-3.27,1.83-6.52,3.68-9.86,5.35a32.42,32.42,0,0,1-4.63,1.47c-1.56.5-3.1,1-4.66,1.55a2.81,2.81,0,0,1-.81.14H69.1Zm7.87-5,.11.34a10.77,10.77,0,0,0,1.73-.29c1.38-.46,2.72-1,4.08-1.5a44.16,44.16,0,0,0,4.44-1.6c2.2-1.09,4.23-2.54,6.46-3.57,2.59-1.2,4.34-3.42,6.59-5,1.65-1.18,2.81-3.08,4.06-4.76a53.08,53.08,0,0,0,4.42-6.46c1.36-2.53,2.94-5,3.55-7.92a22.05,22.05,0,0,1,1.46-3.56,1.62,1.62,0,0,0,.09-.82,3.49,3.49,0,0,1,.66-3.15,1.55,1.55,0,0,0,.19-1.14,12.72,12.72,0,0,1,.48-3,38.1,38.1,0,0,0,0-8.2A14.15,14.15,0,0,1,114.8,62a3.25,3.25,0,0,0-.63-2.82c-.23-.23-.17-.75-.27-1.12-.18-.7-.38-1.4-.58-2.1-.09-.33-.36-.7-.29-1,.4-1.66-.6-3-1.14-4.36a69,69,0,0,0-6.64-11.7,16.5,16.5,0,0,0-2.13-3c-2.45-2.31-5-4.49-7.54-6.72a.86.86,0,0,0-.2-.13A48.87,48.87,0,0,0,89.86,26c-2.45-1-4.41-3.27-7.39-2.91a.32.32,0,0,1-.23-.07,3.43,3.43,0,0,0-2.89-.76c-.32,0-.64-.28-1-.39a6.63,6.63,0,0,0-1.9-.55c-1.31,0-2.62.22-3.77-.71a1.86,1.86,0,0,0-1-.15c-2.12,0-4.24-.13-6.35,0-1.86.14-3.6.91-5.51,1.08A23.6,23.6,0,0,0,54.72,23a30.43,30.43,0,0,0-4.1,1.51c-2.15,1.1-4.25,2.34-6.3,3.61a20.92,20.92,0,0,0-4.22,3c-3.3,3.45-7.2,6.34-9.75,10.48-.88,1.42-1.94,2.74-2.69,4.21-.91,1.8-1.5,3.75-2.39,5.56a4.55,4.55,0,0,0-.67,3.06A3,3,0,0,1,24,57.3a2,2,0,0,0-.27,1.24c0,1.8,0,3.6.11,5.4.06,1.2.2,2.38-.79,3.35a1.37,1.37,0,0,0-.19,1c.16,1.42-.37,3,.87,4.2.18.18.15.61.14.92,0,1.36-.11,2.72-.14,4.08,0,.43-.07,1,.17,1.26,1.31,1.3.5,3.15,1.37,4.65,1,1.77,1.3,4,2.25,5.8A62.88,62.88,0,0,0,31.74,96a67.26,67.26,0,0,0,5.19,6.76,43.45,43.45,0,0,0,4.92,4.12c1.51,1.23,3,2.44,4.54,3.66a1.91,1.91,0,0,0,.54.25c1,.34,2.29.39,2.93,1.07,1.12,1.18,2.6,1.28,3.89,1.9a8.7,8.7,0,0,0,3.2,1.12c1,0,1.94.57,2.76.59,2,0,3.72,1,5.62,1.13,2.71.15,5.43.06,8.15,0a4.2,4.2,0,0,0,1.36-.35C75.56,116,76.26,115.7,77,115.43Z"></path><path d="M74,57.93a7.23,7.23,0,0,0,.25,1.14c.52,1.44,1.12,2.84,1.62,4.28.74,2.12,1.4,4.26,2.13,6.37.65,1.9,1.35,3.78,2,5.66s1.44,4,2.15,6a23.27,23.27,0,0,1,.9,2.67,4.1,4.1,0,0,1-2.87,5,2.9,2.9,0,0,1-2.41-1.33c-1.09-2.18-1.82-4.54-2.71-6.82-.6-1.5-1.18-3-1.89-4.45a1.76,1.76,0,0,0-1.3-.6,12.37,12.37,0,0,0-3.7.06A47.76,47.76,0,0,0,63,77.77a.31.31,0,0,0-.17.17c-.35,1.43-.7,2.86-1,4.29a8.85,8.85,0,0,1-.48,2A20.66,20.66,0,0,1,59,88.14c-1.28,1.55-3.38,1.21-4.47-.53-.79-1.25-1.56-2.5-.13-3.83a.58.58,0,0,0,.16-.45c-.33-2.49,1.28-4.49,1.79-6.78a9.48,9.48,0,0,0,.63-3c0-.26.25-.56.4-.83a3.36,3.36,0,0,0,.42-.72c.32-1.36.53-2.75.91-4.09s.85-2.45,1.29-3.66c.08-.23.33-.46.29-.65-.24-1.17.65-2.19.64-3.12,0-1.54.73-2.73,1.08-4.07.65-2.56,1.52-5.06,2.34-7.57.57-1.75,2.25-2.14,3.68-2.47s3,1.44,3.53,3.06c.6,2,1.13,4,1.74,6a24.74,24.74,0,0,0,1,2.44Zm-8.36,9.14c.17.92.07,1.76.41,2a2.07,2.07,0,0,0,1.85.18c.87-.52,2.67-.55,2.3-2S69.12,64.55,69.11,63c0-.07-.11-.13-.12-.2-.12-.52-.2-1.05-.34-1.56a8.69,8.69,0,0,0-.37-1c-.33.22-.86.38-1,.67a23.4,23.4,0,0,0-.55,2.77,8.43,8.43,0,0,1-.26,1.13C66.22,65.67,65.87,66.47,65.63,67.07Z"></path><path d="M82,51.27a4.18,4.18,0,0,1,3.71,3.15.73.73,0,0,1-.16.54,31.51,31.51,0,0,1-2.92,2.63,1.85,1.85,0,0,1-1.51-.12,5.16,5.16,0,0,1-1.24-1.11c-1.81-1.8-1.8-1.8-.51-4C80,51.41,80.24,51.31,82,51.27Z"></path></svg>