<svg xmlns="http://www.w3.org/2000/svg" id="Layer_1" data-name="Layer 1" viewBox="0 0 132.33 130.87"><title>AsimovMarketingIcon-bt-omar bahaa</title><path d="M79.82,50.69c.47-1.34.76-2.24,1.1-3.13.42-1.09,1-1.24,2-.7s2.2,1,3.28,1.55c.41.21.71.66,1.13.84a4.32,4.32,0,0,0,1.75.39c.18,0,.34-.75.5-1.15.37-1,.74-1.94,1.1-2.91s.6-1.75.92-2.62c.49-1.31,1.46-1.67,2.6-.88s2,1.77,3.17,2.42c2.49,1.4,4.09,3.73,6.18,5.54a32.27,32.27,0,0,1,2.67,2.08,23,23,0,0,1,2,3c.12.19.2.51.37.56.95.3,1.93.56,2.9.79,2.18.51,4.47.41,6.59,1.28a2.34,2.34,0,0,0,1.18.07c1.65-.25,2.8.93,4.12,1.52.93.42,1,2.23.45,3.24a32.07,32.07,0,0,1-5.09,7.15,11.52,11.52,0,0,0-1.69,2.38,1.9,1.9,0,0,0,1,2.41c.55.29,1,.66,1.57,1,.1.06.16.21.26.24,2.72.63,4.65,2.58,6.84,4.1,1.43,1,2.93,1.93,4.27,3.05A3.73,3.73,0,0,1,132.32,85a2.57,2.57,0,0,1-1,2.06c-2.58,1.51-5.39,2.65-7.88,4.28-1.59,1-3.31,1.78-4.87,2.78a3.94,3.94,0,0,0-1.52,2.54,6.09,6.09,0,0,0,.38,3.7c.52,1,.22,2.5.2,3.77,0,1.52-1.12,2.07-2.33,2.64-2.71,1.28-5.41,2.6-8,4-1.53.83-2.89,2-4.38,2.89-1,.62-2.09,1.05-3.1,1.65-1.64,1-3.24,2-4.86,3-.46.28-1,.51-1.44.77-1.88,1-3.78,2-5.62,3.08-1.5.89-2.92,1.94-4.38,2.89-.36.23-.81.32-1.17.54-1.91,1.2-3.73,2.58-5.73,3.6-1.31.67-2.56,1.91-4.2,1.56a41.4,41.4,0,0,1-4.75-1.47c-1-.33-1.84-.78-2.77-1.15s-2-.82-3-1.2c-.76-.28-1.53-.54-2.3-.79-2.15-.71-4.34-1.35-6.47-2.13s-4-1.71-6.09-2.49c-.94-.36-1.94-.53-2.91-.8-.77-.22-1.56-.43-2.32-.71-1.62-.6-3.21-1.28-4.84-1.85-.94-.34-1.95-.5-2.9-.81s-1.95-.69-2.92-1l-2.49-.93-3-1.19c-.72-.27-1.44-.54-2.18-.76a11.5,11.5,0,0,1-2.89-.8,7.52,7.52,0,0,1-2.71-2.63c-1.12-2.25-.73-4.78-.73-7.21a4.23,4.23,0,0,0-3.46-3.58,18.75,18.75,0,0,1-3.21-.9C9.23,98,8,97.67,6.81,97.26a15.38,15.38,0,0,1-2.54-1.08c-.63-.36-.63-.8-.23-1.57,1.41-2.73,3.58-4.77,5.62-7a51.25,51.25,0,0,0,3.58-4.91,5.66,5.66,0,0,0-3.56,0,9.89,9.89,0,0,1-1.2.39,22,22,0,0,0-3.35.88c-1.65.71-2.23.71-3.47-.49-.42-.41-.93-.73-1.66-1.3,1.68-1.15,3-2.17,4.37-3A14.6,14.6,0,0,1,8.6,77.48c2-.4,3.66-2.07,5.94-1.59.54.11,1.22-.39,1.83-.65,1.45-.61,2.88-1.31,4.36-1.87s3-1,4.49-1.49c.51-.17,1-.49,1.48-.69s1.3-.46,2-.66c1.12-.34,1.57-2.18,1-3.36A22.3,22.3,0,0,1,28.54,64c-.41-1.27-.79-2.56-1.19-3.84-.27-.88-.58-1.75-.84-2.64s-.51-1.93-.76-2.9c-.41-1.59-.81-3.19-1.24-4.78a18.35,18.35,0,0,0-.82-2.64,11.75,11.75,0,0,1-1.25-4.67,6.27,6.27,0,0,0-.87-2.85,6,6,0,0,1-.23-4.4c.17-.71,1.49-1.31,2.4-1.66,2.05-.79,4.17-1.36,6.24-2.08a14.57,14.57,0,0,1,2.77-1.11c1.65-.16,3-1.11,4.51-1.45a37.57,37.57,0,0,0,4.42-1.35c1.65-.61,3.42-.92,5.1-1.48s3.21-1.27,4.85-1.84c1-.34,2-.49,3-.81s1.86-.72,2.8-1.07c.65-.23,1.32-.42,2-.64,1.6-.54,3.19-1.15,4.82-1.6a1.81,1.81,0,0,1,2.21.77c.56,1,1,2.06,1.52,3.09.2.42.45.82.64,1.25.66,1.52,1.37,3,1.95,4.58s.92,3,1.49,4.49c.42,1.09,1.11,2.07,1.55,3.15.65,1.56,1.15,3.18,1.77,4.74.41,1,.94,2,1.39,3s.77,2,1.29,3A23.57,23.57,0,0,0,79.82,50.69ZM77,78.08a4.64,4.64,0,0,1-3.44-2.82c-.61-1.74.27-3.52.78-5.24a22.6,22.6,0,0,0,1.1-3.73,19.75,19.75,0,0,1,1.22-4.07,8.32,8.32,0,0,0,.77-3.58,17.66,17.66,0,0,0-1.63-4.31c-.5-1.14-1.16-2.21-1.64-3.36-.67-1.59-1.19-3.24-1.84-4.84C71.9,45,71.29,44,70.84,42.84c-.62-1.53-1.1-3.11-1.74-4.63-.46-1.12-1.16-2.14-1.6-3.26-.59-1.5-1-3.07-1.55-4.59-.36-1-.75-2-1.2-3a11.45,11.45,0,0,0-1.24-2.11c-.54-.74-1.31-.6-2-.29-.93.38-1.84.77-2.77,1.13a17.87,17.87,0,0,1-1.74.6c-1,.27-1.94.48-2.9.76s-1.83.61-2.74.93-1.94.74-2.91,1.09-2.23.79-3.36,1.13-2.17.57-3.24.87a13.83,13.83,0,0,0-1.42.46c-.76.28-1.49.66-2.27.88-1.11.32-2.26.5-3.37.8-.74.2-1.45.53-2.18.76a32.51,32.51,0,0,1-3.73,1.1c-1.08.2-3,1.13-3.07,1.91,0,1.26-.44,2.55.39,3.82A8.18,8.18,0,0,1,27,43.93c.29,1.32.48,2.66.72,4a.63.63,0,0,0,.17.31c1.33,1.35.92,3.32,1.77,4.87a21.06,21.06,0,0,1,1.23,3.56c.28.88.55,1.77.81,2.65.2.7.39,1.4.56,2.1.27,1.12.5,2.25.79,3.37.25,1,.55,1.92.84,2.88.38,1.28.84,2.54,1.16,3.84s.5,2.66.75,4c0,.11.13.2.17.31.37,1.2.69,2.43,1.1,3.62a6.31,6.31,0,0,0,1.08,2.39,5.42,5.42,0,0,0,2.25.81c1.5.45,3,.93,4.53,1.31,2.06.51,4.14.93,6.21,1.39l.46.12c1.52.42,3,.88,4.55,1.23,2.69.6,4.92-.91,7.28-1.75,1.17-.42,2.24-1.1,3.37-1.62,1.4-.65,2.82-1.26,4.23-1.89A12.75,12.75,0,0,1,74.26,80C75.59,79.85,76.05,78.92,77,78.08ZM59.16,111.82a13.46,13.46,0,0,0,2.15-1.29,6.09,6.09,0,0,0,1-1.66c1-1.83,2.1-3.64,3.09-5.49s2-4,3.09-6a1.79,1.79,0,0,0-.85-2.67c-1.62-.6-3.15-1.53-5-1.44-.18,0-.36-.14-.54-.21-1-.37-1.92-.78-2.91-1.1s-1.94-.5-2.9-.78q-3.2-.93-6.38-1.92c-.88-.28-1.74-.61-2.61-.93s-1.93-.74-2.91-1.09-2.24-.77-3.37-1.13-2-.61-3-.88-2.25-.55-3.36-.84c-1.49-.38-3-.86-4.45-1.17s-3.14-.48-4.71-.72c0,0-.07,0-.11,0a40.81,40.81,0,0,0-4.55-1.23,2.85,2.85,0,0,0-3.53,1.73c-.92,1.88-2.72,3.33-4.11,5-1,1.18-1.94,2.37-2.86,3.58A5.29,5.29,0,0,0,9.68,93c-.09.26,0,.79.1.86,1.26.57,2.55,1.12,3.86,1.58,1,.37,2.16.57,3.22.91s1.93.76,2.9,1.12c1.49.53,3,1,4.48,1.56s2.65,1.26,4,1.75c2.13.77,4.33,1.36,6.47,2.14s4.37,1.73,6.54,2.62c.29.12.51.41.8.5,1.65.52,3.31,1,5,1.5.89.27,1.78.52,2.64.84,1,.36,2,.8,3,1.19.83.32,1.66.62,2.49.91C56.41,110.87,57.64,111.29,59.16,111.82Zm55.32-36.26c-.63.27-1.12.47-1.6.69-.64.29-1.28.59-1.91.9-1.54.76-3.1,1.47-4.6,2.29-1.34.72-2.54,1.69-3.91,2.34a56.67,56.67,0,0,0-7.65,4.45,21.71,21.71,0,0,1-3.23,1.63c-1.34.59-2.78,1-4,1.71-1.94,1.08-3.75,2.36-5.63,3.53-1,.59-2,1-2.92,1.69a11.5,11.5,0,0,0-1.61,1.85c.45.36.94.69,1.35,1.09,2.17,2.08,4.15,4.35,6.7,6,1.24.81,2.26,1.95,3.51,2.74a2.37,2.37,0,0,0,1.95,0c1.36-.66,2.61-1.55,3.92-2.31s2.8-1.52,4.14-2.36c1.49-.92,2.88-2,4.36-2.92s3-1.74,4.56-2.59,2.86-1.57,4.29-2.35c1.06-.58,2.12-1.15,3.17-1.75s2.28-1.81,3.52-2c1.6-.24,2.46-1.46,3.77-2a45.91,45.91,0,0,0,4.31-2.32c1.2-.66,1.3-1.64.19-2.41Q125.06,82,123,80.65c-.85-.54-1.75-1-2.61-1.51-1.42-.88-2.83-1.79-4.25-2.67C115.58,76.15,115.05,75.88,114.48,75.56ZM72.84,106.8a12.16,12.16,0,0,0,0-1.91,19.45,19.45,0,0,0-.77-3.14c-.07-.2-.86-.36-1.15-.22a2.62,2.62,0,0,0-.87,1.08c-.41.71-.7,1.48-1.14,2.17a34.31,34.31,0,0,0-2.78,4.31,15.64,15.64,0,0,1-4.89,6,1.38,1.38,0,0,1-.65.26A8.17,8.17,0,0,1,56,114.32c-1-.44-3-.43-3.65.38a3.26,3.26,0,0,1-3.44,1.36c-1.23-.26-2.44-.66-3.65-1-1-.31-2-.68-3.08-1s-2.28-.46-3.36-.85c-1.45-.52-2.84-1.2-4.26-1.82-.5-.22-1-.49-1.48-.68-1.11-.4-2.23-.78-3.36-1.13s-2.08-.61-3.12-.89-2.17-.56-3.26-.83a15.71,15.71,0,0,0-2.11-.49,1,1,0,0,0-.82.48,1,1,0,0,0,.28.92,11.18,11.18,0,0,0,2.3,1.37c1.47.57,3,1,4.5,1.49,1.23.41,2.46.84,3.7,1.22,1,.3,2,.48,3,.82,1.63.57,3.21,1.26,4.84,1.84,2,.7,4,1.33,6,2,.48.17.89.52,1.37.66,1.69.51,3.44.87,5.1,1.47,2.1.75,4.13,1.67,6.19,2.53.5.21,1,.53,1.47.7,2.12.71,4.25,1.38,6.37,2.08.58.19,1.14.47,1.73.63,1,.3,2.12.46,3.13.82s1.74.08,1.79-1.1c0-.48,0-1,0-1.44.36-4.65-.75-9.35.63-14A11.52,11.52,0,0,0,72.84,106.8ZM86.63,83c.44-1.27.75-2.06,1-2.87.32-1.11.47-2.27.87-3.35a14,14,0,0,0,1.19-4.43,26.52,26.52,0,0,1,.69-4.11s0-.07,0-.11c.41-1.63.88-3.26,1.23-4.9.3-1.44.46-2.91.72-4.35,0-.21.29-.38.41-.58a2.66,2.66,0,0,0-.64-3.12c-.83-.58-1.63-1.2-2.46-1.78S88,52.18,87,51.67c-1.15-.65-2.37-1.17-3.54-1.8-.87-.47-1.23-.23-1.44.73-.28,1.34-.79,2.63-1.15,3.95A30.49,30.49,0,0,0,80.07,58c-.29,1.92-.46,3.86-.68,5.8a.94.94,0,0,1-.07.22c-.42,1.23-.9,2.45-1.25,3.7s-.44,2.35-.72,3.5a11.48,11.48,0,0,1-.84,2.39c-.56,1.08-.45,1.83.66,2.2a10.29,10.29,0,0,1,3.68,2.45C82.62,79.89,84.53,81.3,86.63,83Zm5.78-8.57A1.92,1.92,0,0,0,94.55,76c.09,0,.18.13.29.2,1.18.73,2.36,1.49,3.57,2.2s1.94.13,2-1.11a5.43,5.43,0,0,1,.2-1.27c.36-1.37.84-2.71,1.12-4.1.32-1.63.47-3.3.7-5a2.3,2.3,0,0,1,.15-.32c.39-1.44.88-2.86,1.15-4.32.34-1.79.49-3.62.73-5.43a.94.94,0,0,1,.23-.41,1.61,1.61,0,0,0-.26-2.5c-1.92-1.7-3.86-3.38-5.76-5.1-.83-.75-1.54-1.63-2.39-2.35A12.91,12.91,0,0,0,93.93,45c-.54-.29-1-.07-1.12.64-.09.51-.35,1-.49,1.51-.3,1.07-.57,2.15-.84,3.23a.34.34,0,0,0,0,.24,17.24,17.24,0,0,0,1.4,2.15c.8.94,1.73,1.76,2.6,2.65A4.13,4.13,0,0,1,96,58.87a32,32,0,0,0-1.19,4.31c-.32,1.59-.49,3.22-.74,4.83,0,.11-.13.2-.16.31-.38,1.32-.77,2.64-1.12,4C92.67,72.91,92.58,73.55,92.41,74.42Zm22,28c-.71-.89-1.24-1.54-2.39-.6a24.91,24.91,0,0,1-3.37,2.07q-2.27,1.31-4.56,2.58c-1.39.78-2.79,1.53-4.18,2.31-1.69,1-3.39,1.9-5,2.93-1.49.92-2.87,2-4.36,2.92-2.11,1.31-4.27,2.54-6.41,3.79-.5.3-1,.57-1.52.87-1.55,1-3.1,1.92-4.66,2.87-.76.47-1.78.76-2.22,1.43s-.16,1.63-.2,2.46l1.56-.31a3.38,3.38,0,0,0,.57-.12,20.79,20.79,0,0,0,2.63-1.17c1-.61,1.85-1.44,2.84-2.06,2.14-1.33,4.34-2.58,6.5-3.87.87-.52,1.7-1.1,2.57-1.62,1.36-.81,2.77-1.56,4.11-2.4s2.91-2,4.38-2.91c1.66-1.07,3.36-2.08,5-3.13a27.42,27.42,0,0,1,2.56-1.61A19.48,19.48,0,0,0,114.46,102.41Zm-4.53-31c2.31-.18,2.33-.16,3.47-1.55.29-.35.36-.88.63-1.25,1.37-1.85,2.76-3.68,4.15-5.52.54-.71.46-1.86-.21-2a28.93,28.93,0,0,0-3-.71c-1.73-.27-3.48-.45-5.21-.68a1.34,1.34,0,0,1-.54-.22,1.39,1.39,0,0,0-2.27,1,15.35,15.35,0,0,1-.73,4,8.29,8.29,0,0,0-.62,3.43,1.34,1.34,0,0,1-.23.54,1.32,1.32,0,0,0,.66,2.14C107.29,70.87,108.62,71.12,109.93,71.43Z"></path><path d="M78.62,24.29c.36-.65.76-1.28,1.08-1.95.43-.9.83-1.81,1.18-2.74a9.6,9.6,0,0,1,.81-2.39,4.25,4.25,0,0,0,.54-2.84c0-1.16-.07-2.33,0-3.48A35.12,35.12,0,0,1,83,4.63c.37-1.38.72-2.95,2.16-3.91.63-.42,1.25-1,1.89-.57a4.72,4.72,0,0,1,1.69,2c.2.52-.23,1.31-.43,2s-.5,1.37-.69,2.07a17.3,17.3,0,0,0-.81,3.49c-.12,2.39.1,4.8-.08,7.19A17.67,17.67,0,0,1,85.59,21c-.44,1.32-1,2.6-1.5,3.9-.59,1.52-2.86,2.53-4.25,1.82a1.83,1.83,0,0,1-.92-2.26Z"></path><path d="M94.74,27.09c.63.77,1.78,1.26,1.41,2.55a5.2,5.2,0,0,1-.82,1.67,32.84,32.84,0,0,1-2.71,3.4,4.44,4.44,0,0,1-3.34,1.48,5,5,0,0,0-3.83,2.75c-.27.72-.43,1.49-.73,2.19s-1,1.37-1.77,1a2.36,2.36,0,0,1-1.33-1.41,4.79,4.79,0,0,1,1.51-4.39.76.76,0,0,0,.09-.09A9.64,9.64,0,0,1,88,33c1.82-.61,3.39-1.54,4-3.47A3.62,3.62,0,0,1,94.74,27.09Z"></path><path d="M19,62c-1.26,1.34-1.86,1.37-2.9.39A19.64,19.64,0,0,0,10.86,59a6.3,6.3,0,0,1-2.62-1.88c-.5-.78-.33-2-.39-3a1,1,0,0,1,.68-.22,6.9,6.9,0,0,1,1.56.78C11.75,55.78,13.37,57,15,58.16a10.39,10.39,0,0,1,1.58,1C17.45,60,18.19,61,19,62Z"></path><path d="M104.7,6.94c-.46.8-.87,1.5-1.28,2.19a1.63,1.63,0,0,1-2.85.09c-.09-.12-.24-.34-.19-.41a11.86,11.86,0,0,1,1.67-2.59C102.67,5.64,104.05,6.17,104.7,6.94Z"></path><path d="M37.26,55c0-1,0-1.92,0-2.88a7.26,7.26,0,0,1,2.45-5.94c.6-.52.8-1.51,1.42-2a52.94,52.94,0,0,1,5-3.24c3.73-2.18,7.87-1.31,11.82-1.18A6.47,6.47,0,0,1,62.67,42c1.21,1.5,2.61,2.86,3.7,4.44,1.44,2.08,2.63,4.32,2.29,7a6.22,6.22,0,0,0,0,1.43,9.89,9.89,0,0,1-1.56,5.89A23,23,0,0,1,63.29,66a17.88,17.88,0,0,1-4.65,3.07,14.58,14.58,0,0,1-8.35,1.3,10.91,10.91,0,0,1-4.21-1.56c-1.92-1.18-3.54-2.86-5.49-4s-2.41-3.22-3.18-4.94c-.6-1.37-.12-3.22-.12-4.86Zm9.9-.88c.41,1.77-.66,4.08.64,6.23.55.9.83,1,1.65.31,1-.85.63-2,.51-2.92-.18-1.48,1.1-1.39,1.77-1.84.33-.22,1.21.09,1.67.41a17.15,17.15,0,0,1,1.89,1.83A.91.91,0,0,0,56.82,58,1.19,1.19,0,0,0,57,57c-1-1.52-2-3-3.15-4.48-1.3-1.63-2.67-3.21-4.08-4.74-.36-.38-1.26-.84-1.43-.7a3.05,3.05,0,0,0-1.11,1.76C47.06,50.42,47.16,52.07,47.16,54.14Zm6.49-7.61c-.5.51-1.12.95-1,1.11a5.66,5.66,0,0,0,1,1.31,5.51,5.51,0,0,0,1.05-1.29C54.74,47.5,54.13,47.05,53.65,46.53Z"></path><path d="M49.72,51.83l1,1.38-.34.23c-.71-.21-1.1-.62-1-1.35Z"></path></svg>