<svg xmlns="http://www.w3.org/2000/svg" id="Layer_1" data-name="Layer 1" viewBox="0 0 127.11 107.91"><title>AsimovMarketingIcon-bt-omar bahaa</title><path d="M21.29,62.44q0-5.22,0-10.44c0-.31-.05-.73.12-.93,1.24-1.38.74-3,.76-4.59.05-4.08,0-8.16-.05-12.24,0-.31,0-.73.13-.92,1-1,.69-2.31.69-3.53q0-4.68,0-9.36a1.43,1.43,0,0,1,0-.59c1.57-2.95.69-6.12.72-9.18a5.6,5.6,0,0,1,2.9-5.23,31.37,31.37,0,0,1,5.94-2.9c1.36-.44,2.7-1.51,4.33-.87a.68.68,0,0,0,.57-.09C38.9.33,40.63,1,42.26.86A15,15,0,0,0,44.2.44,13,13,0,0,1,46,.05c.91-.07,1.83,0,2.75,0,.32,0,.71-.06.93.1,1.71,1.2,3.64.62,5.48.71.2,0,.41-.09.59,0q2.67.63,5.31,1.29c1.36.34,2.72.64,4.06,1a29.91,29.91,0,0,1,4.26,1.51,27,27,0,0,1,4.3,2.55c1.83,1.33,3.41,2.91,3.27,5.47a.69.69,0,0,0,.09.46c1.43,1.58.57,3.53.86,5.29a.9.9,0,0,1-.06.59c-1.69,2.44-.61,5.18-.87,7.78a21.67,21.67,0,0,1-.57,2.48,5.72,5.72,0,0,0-.23,1.15c0,3.36,0,6.72.06,10.07A3.35,3.35,0,0,1,76,41.62c-.48,1.25-.06,2,1.34,2.08,2.39.07,4.8,0,7.19,0,.56,0,1.11.27,1.68.34,1.08.16,2.18.24,3.26.4.76.11,1.51.3,2.26.47.42.09.85.18,1.26.29l1.91.56a4.06,4.06,0,0,0,.78.28,21.12,21.12,0,0,1,7.44,2.28,32,32,0,0,1,5.81,3.89,5.75,5.75,0,0,1,1.74,6.55c-1.35,3.54-.3,7-.73,10.5-.07.55.79,1.49,1.44,1.79a13.71,13.71,0,0,1,4.8,3.68,3,3,0,0,1,.66,1.7c.08,6.91.17,13.82.06,20.73a6.56,6.56,0,0,1-1.57,3.38,12.85,12.85,0,0,1-2.45,2c-.18.14-.43.29-.49.49-.59,1.76-2.16,2.08-3.63,2.57a36.88,36.88,0,0,1-3.73,1.22,28,28,0,0,1-3.18.2,12.94,12.94,0,0,0-1.9.49,5.65,5.65,0,0,1-1.23.34q-6.3,0-12.59,0a1.3,1.3,0,0,1-.81-.15c-1-.92-2.24-.6-3.41-.73a19.09,19.09,0,0,1-4.24-.92c-2.83-1-5.59-2.23-8.38-3.38a12,12,0,0,0-1.36-.73,3.88,3.88,0,0,0-1.52,0,20.33,20.33,0,0,1-2,.42c-1.29,0-2.61-.29-3.78.66a2.68,2.68,0,0,1-1.5.23q-8.52,0-17,0c-.12,0-.26,0-.35,0-2.19-1.09-4.8-.61-6.93-1.7a5.87,5.87,0,0,1-3.28-3.14c-.61-1.79-1.79-2.3-3.69-2.2-3.63.19-7.28.06-10.92,0-1.34,0-2.71.28-3.93-.6a1.41,1.41,0,0,0-.94-.11c-2.31.37-4.3-.74-6.44-1.24A7.57,7.57,0,0,1,1.4,91.32C.63,90.37-.19,88.86,0,87.82a13.53,13.53,0,0,1,2.46-5C3.37,81.62,4.91,81,6,80a11.66,11.66,0,0,1,4.48-2.9c2.76-.88,5.41-2.29,8.49-1.91,1.59.19,2.49-.91,2.47-2.51,0-3.4,0-6.8,0-10.19Zm29,30.26v0c3.12,0,6.24.11,9.35-.06a10.61,10.61,0,0,0,3.8-1.24,2.11,2.11,0,0,0,.83-1.58c.09-2,.08-4,0-6a2.25,2.25,0,0,0-.73-1.53c-1.14-.85-2.46-1.47-3.61-2.32-1.58-1.15-3.51-1.85-4.4-3.9-.65-1.51-.83-1.44.49-2.54a3,3,0,0,0,1.43-2.47c-.07-3.84,0-7.68-.09-11.52a3.42,3.42,0,0,0-.47-1.54c-.52-.93-1.18-1.78-1.71-2.71a1.35,1.35,0,0,1-.1-1.12c.89-1.52,1.45-3.35,3.46-3.89a1.62,1.62,0,0,0,.66-.51,12.41,12.41,0,0,1,5.69-3.14c1.16-.38,2.3-.85,3.48-1.2a38.28,38.28,0,0,1,4-1,1.21,1.21,0,0,0,1.15-1.38c0-1.12-.1-2.24,0-3.36.1-1.78-.58-3.68.79-5.3.17-.19.1-.61.09-.93,0-.92,0-1.84,0-2.76,0-3.8,0-7.6,0-11.39a1.71,1.71,0,0,0-.46-1c-.07-.09-.61,0-.72.18-1,1.55-2.82,1.39-4.29,1.93a18.13,18.13,0,0,1-4.46,1.34c-1.73.16-3.33.85-5,1-3,.2-6.07.08-9.11.06A4.71,4.71,0,0,1,49,22.49a13.09,13.09,0,0,0-1.89-.55c-2-.24-4.06.7-5.89-.73-.12-.1-.39,0-.58,0l-2-.5c-.27-.07-.52-.2-.79-.26A19.49,19.49,0,0,1,34,19.56c-2.24-1-4.35-2.2-6.53-3.28-.43-.21-1.1-.46-1.38-.28s-.33.89-.4,1.37,0,.88,0,1.32a16.45,16.45,0,0,1-.15,2.22,24.55,24.55,0,0,0-.64,2.56c-.11,1.55,0,3.12,0,4.68S25,30.05,26.73,30a12.12,12.12,0,0,0,2.46-.61,5.14,5.14,0,0,1,1.15-.25c1.26,0,2.56-.2,3.65.73a1.35,1.35,0,0,0,.92.18c2.22-.21,4.12.7,6,1.66,1,.53,1.9,1.29,2.9,1.85a18.07,18.07,0,0,1,6,5.73c1.77,2.61,3.39,5.5,3.45,8.88a1.57,1.57,0,0,0,.27.66c1.16,1.89.4,3.85.19,5.78-.07.76-.3,1.5-.41,2.26a6.88,6.88,0,0,1-.06,1.3c-.61,1.59-1.23,3.18-1.95,4.71a13.12,13.12,0,0,1-1.71,2.74,39.86,39.86,0,0,1-4,4.39c-1.75,1.54-3.72,2.82-5.59,4.21a11.47,11.47,0,0,1-5.83,2.23c-1.74.16-3.53-.15-5.27,0a7.07,7.07,0,0,1-4.82-1.32A1.23,1.23,0,0,0,23,75a1.42,1.42,0,0,0-.39,1c0,.92.07,1.84,0,2.75a1.44,1.44,0,0,0,.78,1.57c2.14,1.22,4.22,2.57,6.39,3.72a11.81,11.81,0,0,0,5.7,1.82c.22,0,.44.17.67.22.84.15,1.69.3,2.53.42.35.06.71,0,1.06.1,1.23.23,2.45.5,3.69.72.5.08,1.12-.1,1.53.11a8.05,8.05,0,0,0,4.69.53c.34,0,.72.28,1.07.44a3.8,3.8,0,0,1-1,.51,11.43,11.43,0,0,0-2.32.27,5.09,5.09,0,0,1-3.72,0c-.7-.22-1.46-.28-2.19-.44-2.05-.46-4.33.75-6.21-.89a.31.31,0,0,0-.23,0,4.59,4.59,0,0,1-2.84-.57c-1.66-.73-3.46-1.12-5.11-1.86a30.42,30.42,0,0,1-2.84-1.89,3.65,3.65,0,0,0-1.39-.15c0,.41-.24,1-.05,1.19a16.36,16.36,0,0,0,3.47,3.25,25.7,25.7,0,0,0,8.82,3.41c.3,0,.56.29.86.4s.78.41,1.11.34a3.84,3.84,0,0,1,3,.54,2.81,2.81,0,0,0,1.28.2ZM31.13,71.32c2.8.49,5.33-.45,7.77-1.6a25.52,25.52,0,0,0,3.56-2.18c3-2.1,5.55-4.62,6.77-8.3.75-2.27,1.56-4.47,1.26-6.92-.2-1.62.5-3.36-.72-4.85-.14-.17,0-.54,0-.81a4.58,4.58,0,0,0-.3-1.47c-.9-1.6-1.85-3.16-2.82-4.7a17.06,17.06,0,0,0-7.5-6.07c-1.55-.74-3.21-1.25-4.71-2.06A3.51,3.51,0,0,0,31.92,32c-1.63.29-3.27.5-4.91.66a2.26,2.26,0,0,0-2.15,2.39c0,2,.12,4.07.15,6.11,0,.39,0,.91-.18,1.15-1.07,1.19-.62,2.67-.82,4-.05.29.31.64.48,1,.26-.2.62-.35.77-.62.74-1.24,1.31-2.58,2.15-3.73a3.35,3.35,0,0,1,2-1.19c.49-.07,1.57.64,1.56,1a7.19,7.19,0,0,0,1,4.17c.07.12,0,.32,0,.48,0,1-.13,2.07-.12,3.11A7.67,7.67,0,0,0,32.17,52a10.1,10.1,0,0,1,.43,1.91c0,1.36-.29,2.71.63,4a3.19,3.19,0,0,1-.5,3.55A2.47,2.47,0,0,1,31,61.8c-.24,0-.35-.89-.48-1.38s-.18-1-.28-1.47a8.23,8.23,0,0,1-.37-1.8,2.24,2.24,0,0,0-2-2.26c-2.11-.2-3.57.46-3.75,1.71a1.77,1.77,0,0,1,0,.23c-.19.82-.39,1.64-.57,2.46a4.34,4.34,0,0,0-.17.93c0,1.8.07,3.59.07,5.39a10.79,10.79,0,0,1-.18,2.48c-.3,1.23,0,1.83,1.27,2.18.83.23,1.62.57,2.45.81a5.54,5.54,0,0,0,1.4.23C29.29,71.35,30.21,71.32,31.13,71.32ZM67.9,90.72h0a22.62,22.62,0,0,1,0,4c-.4,2.3.94,3.72,2.55,4.56,3.11,1.62,6.06,4,10,3.34.28,0,.6.18.9.25a20.44,20.44,0,0,0,2.85.62c1.17.09,2.39-.28,3.4.68.21.2.69.14,1,.14,3.08,0,6.16,0,9.23,0,1.26,0,2.57.32,3.64-.72a.73.73,0,0,1,.57-.11,2.73,2.73,0,0,0,2.45-.61,1.14,1.14,0,0,1,.79-.19,8.84,8.84,0,0,0,6-1.67c2.16-1.4,3.81-3.27,3.56-6.19-.13-1.47-.48-3.12,0-4.39.67-1.7.44-3.36.6-5,.09-1-.39-1.22-1.35-.81-2.14.91-4.31,1.76-6.49,2.59a9.19,9.19,0,0,1-2.69.79c-2.11.09-4.24-.07-6.35,0a3.72,3.72,0,0,0-1.84.6,1.4,1.4,0,0,1-1.73,0A4.52,4.52,0,0,0,93,87.86c-2.72,0-5.43.08-8.15.1a5.1,5.1,0,0,1-1.37-.3c-.57-.15-1.13-.31-1.69-.48s-1.12-.34-1.68-.53c-.33-.11-.65-.27-1-.36-1.5-.42-3-.82-4.5-1.22a3.61,3.61,0,0,0-1.27-.24,4.24,4.24,0,0,1-2.72-.58c-1.66-.94-2.78-.17-2.74,1.67C67.93,87.52,67.9,89.12,67.9,90.72ZM60.07,67.56h0c0,1.92-.07,3.84,0,5.75a3.94,3.94,0,0,0,.78,2c2,2.76,5.43,3.06,8.27,4.37a9,9,0,0,0,3.28.74c1.26.06,2.52-.21,3.66.64a2.34,2.34,0,0,0,1.29.17c1.39,0,2.79-.09,4.19-.08a5.54,5.54,0,0,1,1.37.31,12.56,12.56,0,0,0,2.12.57,27,27,0,0,0,3.6,0,7.31,7.31,0,0,0,1.45-.4A9.48,9.48,0,0,1,92,81.19c1.71-.12,3.52.59,5-.73a.52.52,0,0,1,.35-.07,9.66,9.66,0,0,0,3.57-.54,12.47,12.47,0,0,0,5.1-3,3.73,3.73,0,0,0,1.17-2.49c.13-3.51.06-7,0-10.54a1.54,1.54,0,0,0-.52-1.2,1.58,1.58,0,0,0-1.27.28c-1.07.74-2.1,1.45-3.52,1.19-.29,0-.64.25-1,.36s-1,.27-1.45.41l-1.9.56a5,5,0,0,1-1.11.36c-2.43.12-4.93-.7-7.25.66-1.83-.43-3.84.59-5.58-.68a1.54,1.54,0,0,0-.82-.1,26.8,26.8,0,0,1-3.35,0,54.73,54.73,0,0,1-5.7-1,39.11,39.11,0,0,1-4.35-1.36q-2.68-.93-5.34-2c-.66-.26-1.24-.73-1.9-1-1.32-.55-2.12,0-2.1,1.41C60.08,63.72,60.07,65.64,60.07,67.56Zm39.22-5.51v.07a2.51,2.51,0,0,0,1,0c1.82-.77,3.62-1.59,5.43-2.39,1.38-.62,1.74-2,2.35-3.2.15-.3-.08-.83-.22-1.23a7.46,7.46,0,0,0-4.64-4.17c-3.32-1.32-6.6-3-10.34-3a4.06,4.06,0,0,1-.89-.3,16.35,16.35,0,0,0-2.14-.54c-1.89-.23-3.9.68-5.67-.69-.23-.19-.69-.1-1-.1-.92,0-1.84,0-2.76,0-1.84.07-3.76-.39-5.46.8a1.58,1.58,0,0,1-1.16,0c-2.41-.71-4.61.5-6.84.9-1.83.34-3.53,1.62-5.16,2.68a3.66,3.66,0,0,0,.48,6.3c1.36.74,2.5,1.79,4.1,2.19a32.3,32.3,0,0,1,4.37,1.82,4.29,4.29,0,0,0,.82.09l4.5.91s.06.06.1.06c.94.21,1.88.44,2.83.61.46.08,1.08-.16,1.4.07,1.27.88,2.69.74,4,.65,3.26-.2,6.61.75,9.78-.7a1.2,1.2,0,0,1,.6,0c1.27.12,2.54.32,3.65-.64C98.58,62,99,62.1,99.29,62.05ZM36,4.52l-.15-.46c-1,.31-1.94.59-2.89,1a14.22,14.22,0,0,1-1.71.84,6.91,6.91,0,0,0-4.62,3.48,1.36,1.36,0,0,0,.12,1.85c1.6,1.48,3.19,3,4.9,4.32a7.59,7.59,0,0,0,2.3.84c2.12.69,4.24,1.39,6.36,2.05a4,4,0,0,0,.84,0,7.53,7.53,0,0,1,1,.13c1,.21,2,.43,3,.66l1.14.29a7.1,7.1,0,0,0,2.06.46c4.33-.32,8.75.89,13-.71,3,.65,5.37-1.73,8.26-1.59.29,0,.6-.36.9-.56.55-.38,1.1-.75,1.65-1.15,1.86-1.35,2.95-2.43,1.5-5.06C72.77,9.24,71.24,8.73,70,7.79a13.76,13.76,0,0,0-3.47-1.46C65.26,5.86,64,5.42,62.71,5a16.4,16.4,0,0,1-3.28-.82A6.81,6.81,0,0,0,56,3.61c-1.11,0-2.44.35-3.3-.13C51.1,2.62,49.57,2.85,48,2.9c-1.83,0-3.76-.52-5.47.69-.23.16-.7,0-1.05,0a30.51,30.51,0,0,0-3.18.24A16.25,16.25,0,0,0,36,4.52Zm73.17,72.87c.9,2-.44,3.44-2,4.66-.74.57-1.73.8-2.54,1.3a8.91,8.91,0,0,0-1.33,1.28,11.47,11.47,0,0,0,1.78.56c.31,0,.67-.18,1-.3l1.63-.65c1.49-.59,3-1.15,4.48-1.8a10.18,10.18,0,0,0,1.33-1c2-1.31,2.37-3.58.63-5.28a11.67,11.67,0,0,0-3.06-2c-1.2-.57-1.91,0-1.93,1.32Zm-13,7.17v0c-1.36,0-2.72-.05-4.07,0-.39,0-.76.46-1.14.71.36.24.71.68,1.07.69,2.8,0,5.6,0,8.39,0,.39,0,.77-.46,1.16-.7-.41-.23-.8-.64-1.22-.67C99,84.51,97.6,84.56,96.2,84.56ZM26.29,50.75c.59.54.9,1,1.33,1.17.65.19,1.69-.79,1.49-1.47s-.75-1-1.15-1.44Z"></path><path d="M127.11,90l-.75,1.91a2.48,2.48,0,0,0-.18.31c-.29,1.44-.55,2.89-.87,4.32a16.91,16.91,0,0,1-1,3.25,1.7,1.7,0,0,1-1.57.41c-.7-.29-1.7-.89-1.77-1.46a10.41,10.41,0,0,1,.48-3.31c.07-.39.41-.79.33-1.12-.48-1.92.58-3.48,1.25-5.07a4.26,4.26,0,0,1,2.16-1.88c1-.4,1.31.63,1.59,1.36a4.23,4.23,0,0,1,.09,1.19Z"></path><path d="M35.59,45.17c.45-.31,1.07-1,1.33-.85a9.38,9.38,0,0,1,1.91,1.52c-.5.5-.91,1.23-1.51,1.43S35.78,46.32,35.59,45.17Z"></path><path d="M84,60.35c-1.83,0-3.67,0-5.51,0A6.26,6.26,0,0,1,77.12,60l-1.36-.34c-.57-.14-1.14-.26-1.7-.41a6.79,6.79,0,0,0-.78-.29,17.5,17.5,0,0,1-7.18-2.56,2.28,2.28,0,0,1-.57-3.73c1.2-1.26,2.55-2.3,4.45-2.1a.73.73,0,0,0,.47-.07c1.31-1,2.83-.56,4.27-.61a3,3,0,0,0,1.37-.29,4.06,4.06,0,0,1,4.39,0c.67.36,1.69.07,2.54.16a8.66,8.66,0,0,1,1.45.39c-.38.38-.69,1-1.15,1.11-.93.3-1.5.63-1.24,1.76s-.56,1.12-1.3,1.27-1.72.54-2.59.65c-1.18.14-2.38,0-3.56.17a16.91,16.91,0,0,0-2.89.62,1,1,0,0,0-.59.73,1.09,1.09,0,0,0,.65.73,5.36,5.36,0,0,0,1.29.16,3.08,3.08,0,0,1,1.16.16c1.53,1,3.21.79,4.88.8.4,0,.89-.11,1.17.08,1.43,1,3,.66,4.54.63,2.12,0,4.23-.14,6.35-.17.27,0,.53.22.8.34-.14.26-.22.68-.42.75a7.41,7.41,0,0,1-2.18.54c-1.8.07-3.6,0-5.4,0Z"></path><path d="M37.34,6.36c.89-.28,1.78-.57,2.67-.84a3.79,3.79,0,0,1,1-.22q6.18,0,12.35,0c.31,0,.72,0,.93.13,1.07.89,2.3.58,3.53.66a26.66,26.66,0,0,1,5.32.9,15.1,15.1,0,0,1,3.05,1.6c.14.07.29.22.42.2,1.92-.22,2.76,1.36,3.94,2.36.64.53.61,1.06.19,1.77-.75,1.28-1.42,2.56-3.2,2.4,0,0-.1,0-.12,0-1.26,2.1-3.65,1.06-5.39,1.89a8.44,8.44,0,0,1-3.43.3q-6.22,0-12.46-.19A10.49,10.49,0,0,1,44,16.92a3.65,3.65,0,0,0-.91-.28c-3.72.2-6.92-1.48-10.17-2.89A4.88,4.88,0,0,1,30.8,11.9a2.64,2.64,0,0,1-.14-2.33C31.5,8.33,32.39,7,34.18,6.78a18.16,18.16,0,0,0,3-.86Zm20.86,7.8.07.51a4.14,4.14,0,0,0-.7.62c-.45.61-.16,1.64.48,1.63a11.81,11.81,0,0,0,2.56-.43,28.7,28.7,0,0,1,4.78-1.29,4.74,4.74,0,0,0,3-1.17c1.41-1.22,1.46-2.13.06-3.31a5.22,5.22,0,0,0-1.28-.88,27.39,27.39,0,0,1-3-1.08c-1.22-.69-2.29-.39-3.53-.12a14,14,0,0,1-3.94,0c-1.08-.08-2.15-.41-3.24-.51a1.21,1.21,0,0,0-.92.56c-.11.21.16.63.28.95s.35.82.52,1.24a5.92,5.92,0,0,1-1.51.4c-2,0-3.91-.13-5.86-.08a1.52,1.52,0,0,0-1.09.91c-.16.75.46,1,1.15,1,.47,0,1.07-.18,1.4,0,1.67,1.12,3.51.37,5.22.66S56.22,15,58.2,14.16Z"></path></svg>