<svg xmlns="http://www.w3.org/2000/svg" id="Layer_1" data-name="Layer 1" viewBox="0 0 122.65 124.7"><title>AsimovMarketingIcon-bt-omar bahaa</title><path d="M24.82,12.42a44.6,44.6,0,0,0,4.7.9,38.69,38.69,0,0,1,6.24,1.23c1.1.27,2.33,0,3.46.16,1.73.29,3.44.78,5.15,1.19.12,0,.23.09.34.11,2.1.23,4.2.43,6.29.71.79.11,1.54.54,2.33.64,2.09.28,4.2.36,6.27.72,1.51.26,2.93,1,4.43,1.2a29.81,29.81,0,0,0,5.26,0c.36,0,.72-.58,1-.94,1-1.13,1.71-2.62,2.92-3.32.92-.54,2.42-.12,3.66-.09.16,0,.33.35.47.32,2.18-.37,3.43,1.5,5.17,2.2A30.64,30.64,0,0,1,87,20.24c1,.62,2,1.14,3.07,1.71S92,23,93,23.62s1.93,1.47,2.91,2.17a13.39,13.39,0,0,0,1.26.62c1.46.8,2.93,1.6,4.37,2.45.8.47,1.55,1,2.32,1.56s1.45,1.06,2.22,1.52c2.1,1.25,4.26,2.41,6.33,3.71s4.28,2.84,6.37,4.33A31,31,0,0,1,122,42.63a2.39,2.39,0,0,1,.58,1.45,11,11,0,0,1-1.08,5.06c-.83,2.25-2,4.3-3,6.45A40.1,40.1,0,0,1,116,59.87c-.9,1.46-1.81,2.91-2.71,4.36-.1.17-.1.4-.22.54-1,1.29-2.1,2.55-3.11,3.85a13,13,0,0,0-1,1.68c-.83,1.46-1.59,3-2.46,4.37s-2,2.9-2.92,4.38c-1.07,1.66-2.06,3.38-3.14,5-.94,1.48-2,2.9-2.92,4.37-1.06,1.67-2,3.39-3.12,5.05-.95,1.48-2,2.88-2.93,4.37S89.85,100.66,89,102s-1.86,2.88-2.76,4.33a14.08,14.08,0,0,0-1.2,2.14,2.77,2.77,0,0,1-4.07,1A9.69,9.69,0,0,0,78.75,108c-1.19-.53-2,.52-3,.88q-2.34.83-4.66,1.71c-.43.17-.81.47-1.25.63a17.64,17.64,0,0,1-4.87,1.43,12.47,12.47,0,0,0-2.79,1c-1.06.35-2.15.62-3.22.91s-2.17.56-3.24.89-2.25.74-3.37,1.13c-1,.35-1.93.75-2.91,1.09-1.52.55-3.07,1-4.58,1.61-1.34.5-2.65,1.08-4,1.59-1.58.61-3.17,1.16-4.75,1.76-.39.15-.73.45-1.13.62-1.1.46-2.2.93-3.33,1.32-.35.12-.95.17-1.15,0-.9-.92-2.24-1.47-2.39-3.09a12.28,12.28,0,0,0-1-2.91c-.27-.71-.56-1.43-.78-2.16-.3-1-.56-1.92-.81-2.89s-.45-2.28-.84-3.35a12.82,12.82,0,0,1-1.2-4.07c0-.5-.46-1-.64-1.49-.7-2.07-1.36-4.16-2.07-6.22a1.12,1.12,0,0,0-.68-.55,2.73,2.73,0,0,0-1,0A14.74,14.74,0,0,1,13,96.56c-1-.38-2.05-.44-3-.82a7.47,7.47,0,0,1-1.58-1.21,4.25,4.25,0,0,1-1.79-4.12c.09-1.07-.84-2.34-.53-3.25.64-1.86.17-3.83.73-5.55a23.63,23.63,0,0,0,.55-3.44c.34-1.84.84-3.66,1.25-5.49.09-.43,0-.88.1-1.31.12-.63.39-1.24.47-1.88a6.2,6.2,0,0,0,0-1.72,14,14,0,0,0-.46-1.65c-.37-1.32-.74-2.65-1.12-4,0-.12-.16-.2-.18-.31-.25-1.45-.42-2.92-.74-4.35s-.77-2.8-1.18-4.19c-.2-.67-.45-1.31-.63-2C4.5,50.21,4.18,49.1,4,48c-.17-.89.42-1.42,1.18-1.7a18,18,0,0,1,4.27-1.5c1.5-.18,2.88-1.31,4.32-2a.5.5,0,0,0,.21-.28c.26-1.09.47-2.18.76-3.26a19.6,19.6,0,0,1,1.15-3.84,5,5,0,0,0-2-6.09c-2.3-1.14-4.4-2.71-6.74-3.71A15.17,15.17,0,0,1,2,21.65,4.31,4.31,0,0,1,.6,18.39c0-.12.05-.28,0-.35-1.17-1.31-.29-2.61,0-3.92.25-1.12,1.32-1.25,2.07-1.4,2.3-.44,4.11,1.34,4.55,3.65.34,1.77,1.1,3.54,3.1,4.3,2.23.86,4.42,1.79,6.65,2.66.25.09.79,0,.86-.14a8.34,8.34,0,0,0,.88-2.38c.15-1-.12-2,.06-3,.32-1.67.57-3.53,2.3-4.37A20.5,20.5,0,0,1,24.82,12.42Zm54.94,89.76a9.22,9.22,0,0,0,5.31-3.24c.38-.43.56-1,.91-1.49.79-1.07,1.64-2.08,2.43-3.16.52-.72,1-1.51,1.44-2.26.69-1.08,1.37-2.17,2.08-3.23.61-.91,1.36-1.73,1.89-2.67,1.28-2.28,2.45-4.6,3.68-6.9a14.46,14.46,0,0,1,1-1.61c.67-1,1.45-1.85,2.06-2.85.85-1.39,1.53-2.88,2.38-4.27.59-1,1.35-1.82,2-2.74s1.15-1.57,1.65-2.4c.85-1.44,1.64-2.91,2.45-4.37s1.67-2.9,2.43-4.38c.49-1,.79-2,1.28-3,.33-.66.92-1.18,1.26-1.83q1.68-3.21,3.24-6.49a1.22,1.22,0,0,0-.12-1.14,35.19,35.19,0,0,0-4.1-3.34c-1.82-1.19-3.81-2.11-5.71-3.18-1.69-1-3.35-2-5.05-2.91-1.86-1-3.75-2.05-5.63-3.07-.48-.26-1-.49-1.44-.77-.9-.53-1.78-1.11-2.7-1.61s-2.2-1-3.23-1.64c-2-1.18-3.86-2.49-5.83-3.66s-3.76-2-5.61-3.1c-.78-.44-1.48-1-2.23-1.5a2.39,2.39,0,0,0-3.29,1.13c-1,2.08-2.08,4.1-3.08,6.18-.86,1.78-2.12,3.49-1.6,5.64A2.52,2.52,0,0,0,68.69,34c2.71,1,5,2.88,8,3.61a47.91,47.91,0,0,1,6.55,2.59c1.42.59,2.81,1.28,4.23,1.89,1.17.5,2.37.94,3.55,1.42,1.72.7,3.45,1.38,5.15,2.14.62.28.84,2,.55,2.63-.36.81-.59,1.68-.89,2.51a22.28,22.28,0,0,1-.94,2.6C94.1,55,93.27,56.47,92.47,58c-1.46,2.75-2.91,5.5-4.38,8.25-.31.58-.66,1.14-1,1.7-1.13,1.76-2.31,3.49-3.41,5.28-.63,1-1.11,2.15-1.72,3.19-1,1.64-2,3.26-3,4.86-.61,1-1.11,2.16-2,2.7a13.41,13.41,0,0,1-4.52,1.68c-2,.37-3.53-1-5.12-2A9.44,9.44,0,0,0,65.86,83c-.28-.13-.59-.2-.85-.35-1.35-.77-2.68-1.57-4-2.32-1.13-.62-2.3-1.16-3.42-1.78-.92-.5-1.79-1.1-2.71-1.59-1.49-.78-3-1.46-4.5-2.27-2.18-1.19-4.32-2.48-6.5-3.66a1.06,1.06,0,0,0-1,.29,32.91,32.91,0,0,0-1.46,3.06c-.58,1.31-1,2.67-1.7,3.94a1.83,1.83,0,0,0,1,2.78,22.5,22.5,0,0,1,2.09,1c1.47.8,2.92,1.63,4.38,2.43s3,1.62,4.54,2.43,2.8,1.52,4.2,2.28,3,1.6,4.53,2.43c1.19.67,2.32,1.43,3.51,2.07,2.74,1.48,5.52,2.9,8.26,4.36.65.35,1.23.83,1.89,1.16.92.47,1.88.86,2.81,1.3.35.16.67.36,1,.55ZM56.4,97.34a10.65,10.65,0,0,1-1.79-1.67c-.81-1.16-2.2-1.09-3.26-1.72a32.79,32.79,0,0,0-3.28-1.54c-1.33-.6-2.69-1.15-4-1.8a57.36,57.36,0,0,1-6.28-3.35c-1.22-.8-1.76-1.45-1.59-2.76a1.89,1.89,0,0,0-.9-2,11.35,11.35,0,0,0-1.68-.82,1.14,1.14,0,0,1-.56-1.85c1-1.41,1.93-2.83,2.89-4.24.44-.65.86-1.3,1.29-2s1.06-1.45,1.49-2.23a6.41,6.41,0,0,0,.79-2.06c.18-1.36-1.26-3.19-2.66-3.82a22.62,22.62,0,0,1-6.51-4.11,2.28,2.28,0,0,0-.52-.47,16.81,16.81,0,0,1-5.24-4,1.43,1.43,0,0,1-.21-2,1.66,1.66,0,0,0-.29-2.51,3.71,3.71,0,0,1-.54-3.33c1.25-2.21,2.31-4.54,4.22-6.31a2.3,2.3,0,0,0,.32-.49c.69-1.08,1.36-2.18,2.07-3.24s1.29-1.77,1.91-2.67c.88-1.28,1.68-2.61,2.63-3.85,1.21-1.58,1.89-3.49,3.37-4.93a24.44,24.44,0,0,0,2.82-4,9.32,9.32,0,0,0,.68-1.08,2.81,2.81,0,0,1,3.16-1c.89.45,1.88.7,2.79,1.11,1.08.47,2.14,1,3.2,1.54.28.14.54.31.81.45l3.21,1.55c.31.15.6.34.91.48,1.31.57,2.85.87,3.88,1.77a3.82,3.82,0,0,0,3.17.89,1.64,1.64,0,0,0,1-.73c.49-.7.85-1.49,1.29-2.22S65.9,25,66.52,24c-2.33-.52-4.38-1-6.45-1.42l-3-.52c-1.89-.36-3.87-.28-5.79-.82-1.33-.37-2.74-.46-4.1-.78s-2.93-1.11-4.42-1.19a46.5,46.5,0,0,1-8-1.32,59.33,59.33,0,0,0-7.58-.77c-.76-.08-1.5-.25-2.51-.42a5.07,5.07,0,0,0-1.42,3.32c0,.48.17,1.13-.08,1.41-.86,1-.5,2.11-.59,3.19a2.83,2.83,0,0,1-.23,1.14,3.66,3.66,0,0,0,0,3.69c.42.81,1.06,1.85.84,2.56-.3,1-.57,2.25-1.93,2.64a2,2,0,0,0-1.22,1,36.07,36.07,0,0,0-1.43,5.1,23.07,23.07,0,0,1-.62,4c-.5,1.44-.06,3.11-.68,4.72s-.52,3.44-.74,5.18c0,.12,0,.28-.07.35-1,1-.49,2.26-.61,3.41a12.88,12.88,0,0,1-.19,1.52c-.12.59-.36,1.17-.48,1.76-.27,1.37-.43,2.76-.77,4.11s-1,2.43-1.2,3.7-.24,2.73-.6,4.14c-.55,2.14-.89,4.36-1.38,6.55-.44,2,.07,4-.71,6.05a8.65,8.65,0,0,0-.05,3,1.7,1.7,0,0,0,1.7,1.88,5.52,5.52,0,0,1,.71.1c1.83.41,3.65.91,5.5,1.24a25.55,25.55,0,0,1,4.16.55c1.83.61,3.94,0,5.91.75,1.26.47,2.71.13,4.14.58,2.16.67,4.55.6,6.84.82.76.07,1.71-.23,2.23.13a4.41,4.41,0,0,0,3,.53A10.51,10.51,0,0,1,49,97.09c1.08.43,2.09,1.12,3.37.87a1.6,1.6,0,0,1,1,.22C54.7,98.92,55.18,98.84,56.4,97.34ZM42.46,27C40.66,29.15,39,31,37.49,33c-1.14,1.55-2,3.3-3.06,4.94-1.22,2-2.49,3.86-3.68,5.82-.87,1.42-1.62,2.92-2.47,4.36a1.72,1.72,0,0,0,.56,2.57c1,.57,2.1,1,3.15,1.53l6,3,6.17,3.08c1.11.56,2.25,1.07,3.32,1.72,1.49.91,2.89,2,4.38,2.89s2.89,1.41,4.16,2.34c1.71,1.25,3.25,2.74,4.87,4.11.66.56,1,1.34.42,2-.24.27-1.2,0-1.78-.2s-1.37-.52-2.1.4l13.85,6.35.07-.33c.77-.23,1.76-.24,2.26-.74a38.29,38.29,0,0,0,3.44-4.17c.91-1.21,1.68-2.52,2.57-3.75s1.92-2.47,2.82-3.75c.62-.89,1.11-1.87,1.69-2.79s1.2-1.65,1.66-2.54c1.34-2.56,2.63-5.13,3.86-7.74a6.83,6.83,0,0,0,.22-2c-.72.37-1.09.59-1.48.76-1.44.65-2.91,1.24-4.32,1.94-.77.37-1.42,1-2.17,1.37-3.18,1.71-6.37,3.42-9.6,5.05-1.72.87-3.47,2-5.32,2.25s-3.8.71-5.61-1a6.71,6.71,0,0,1-2.33-4.38,2.16,2.16,0,0,0-1.34-1.89,21.84,21.84,0,0,1-4-2.25c-2.47-2-3.83-4.86-4.85-7.85-.18-.51-.5-1-.63-1.49-.29-1.12-.4-2.29-.76-3.39-.59-1.78-1.3-3.53-2-5.29-.18-.46-.47-.89-.62-1.37-.3-1-.44-2-.82-2.89A21.4,21.4,0,0,0,42.46,27Zm43.26,19.1.31-.49a9.67,9.67,0,0,0-1.12-.66C82.79,44,80.66,43,78.53,42.1c-1.48-.65-3-1.29-4.44-2-1-.45-2-1-3-1.41-1.34-.58-2.73-1.06-4.06-1.69a36.32,36.32,0,0,0-4.6-2.27,16,16,0,0,1-4.87-2.41,21.62,21.62,0,0,0-3.32-1.7c-1.06-.52-2.14-1-3.22-1.52-.37-.17-.83-.5-1.12-.39s-.5.71-.46,1c.14,1.07.43,2.11.66,3.16s.45,2.35.75,3.5c.38,1.44.8,2.87,1.25,4.29a17.67,17.67,0,0,0,1.07,2.79c.65,1.24,1.57,2.34,2.14,3.61,1,2.3,3.16,2.69,5.24,3.1,1.13.23,2.37-.29,3.45.58.27.22.92,0,1.38,0,.71-.13,1.4-.36,2.11-.51,1.29-.28,2.58-.51,3.87-.8,1.79-.39,3.57-.91,5.38-1.21,1.41-.24,2.83-.25,4.27-.53C82.77,47.41,84.11,46.46,85.72,46.06ZM39.4,113c-1.67-2.76-2.16-3.26-2.9-3.06-1.57.44-2.5,1.44-2.51,2.69,0,1,1,2.62,1.9,2.74C37.71,115.59,38.74,114.53,39.4,113Z"></path><path d="M19.78,0A18.9,18.9,0,0,1,22,1.61C23.39,3,23.43,4.85,23.21,6.68a1.68,1.68,0,0,1-.8,1c-1.26.79-4.3-.08-4.91-1.46a9.36,9.36,0,0,1-.76-2.89A2.39,2.39,0,0,1,18.8.55,5.2,5.2,0,0,0,19.78,0Z"></path></svg>