<svg xmlns="http://www.w3.org/2000/svg" id="Layer_1" data-name="Layer 1" viewBox="0 0 91.12 94.97"><title>AsimovMarketingIcon-bt-omar bahaa</title><path d="M56.64,77.82c-.59-1.24-1.46-1.13-2.26-1.25a55,55,0,0,1-6.3-1.14c-2.09-.6-2.94-2.43-2.9-4.61.07-4.83,0-9.66,0-14.49,0-1.16,0-2.32.06-3.48,0-1.48-.51-2-2-2.08-4.54-.14-9.15.18-13.59-.56-3.41-.57-6.85.16-10.19-.81a11.43,11.43,0,0,0-3,0,1.41,1.41,0,0,1-1.59-1.64c0-4.88.14-9.76.15-14.63,0-9,.09-17.92-.05-26.88,0-2.22.21-3.86,2.33-5.06A6.82,6.82,0,0,1,21,0C30.67.05,40.38,0,50.1,0c1.53,0,3,.53,4.57.53,11.08,0,22.16,0,33.23,0,1.65,0,2.68,1.19,2.67,3.12l-.15,21a1.65,1.65,0,0,0,.06.71c.86,1.62.49,3.37.51,5.06q.09,8.7.13,17.39c0,1.33-1,2-1.93,2.55a8.93,8.93,0,0,1-5.65,1.52c-2.77-.27-5.64.28-8.37-.15A73,73,0,0,0,67,51.25c-1.21,0-2.42-.32-3.64-.41a9.85,9.85,0,0,0-2.49.07,19.46,19.46,0,0,0-3.51,1c-.45.18-.74.8-1.1,1.23a8.7,8.7,0,0,0,1.12.79c.27.15.7,0,.91.22.45.38,1.07.83,1.13,1.31.11.83-.67.94-1.36.92a1.06,1.06,0,0,0-1.25,1.12c0,.81.43,1.15,1.18,1.2s1.49.06,1.43,1-.74,1.06-1.48,1-1.08.41-1.08,1.11c0,2.4-.07,4.8,0,7.2a1.68,1.68,0,0,0,1,1.28c1.51.29,3.06.33,4.6.5,3.75.43,7.56.72,10.71,3.19a8.09,8.09,0,0,1,1.08.94,1.87,1.87,0,0,1,0,3c-1.52,1.76-3.59,2.34-5.74,2.7a42.45,42.45,0,0,1-9.68.95c-1.44-.09-4,1.84-4.5,3.17A2.14,2.14,0,0,0,55,87a2.32,2.32,0,0,0,2.63.6c2.29-.71,4.55-1.53,6.86-2.14a26.57,26.57,0,0,1,6.56-1.19c2.82,0,5.62-.74,8.45-1a48,48,0,0,1,5.5-.06c.86,0,1,.65.82,1.38A3.9,3.9,0,0,1,82.4,87a41.36,41.36,0,0,0-4.8.78c-1.76.35-3.5.8-5.25,1.2-.31.07-.63.11-.93.2-3.52,1-7,2.16-10.58,3.08C58,93,55.18,93.58,52.31,94c-2.1.32-4.33,0-6.36.52-2.72.66-5.41.16-8.1.41a3.34,3.34,0,0,1-1.63-.21c-4-1.78-7.9-3.64-11.86-5.44-3.78-1.72-7.58-3.4-11.37-5.09S5.31,80.83,1.5,79.09C-.21,78.3-.24,78,.34,76.2c.36-1.13.44-2.35.78-3.49a25.84,25.84,0,0,1,9.2-13.53C13.17,57,16.16,55,19.21,53.12A9.78,9.78,0,0,1,22.94,52a32.76,32.76,0,0,1,4.54-.16,3.7,3.7,0,0,1,1.14.4c-.21.35-.4.71-.63,1-.08.12-.34.14-.39.26-.18.42-.31.87-.46,1.3.47,0,1,.2,1.4,0,.76-.41,1.36-1.15,2.13-1.53a7.27,7.27,0,0,1,2.78-.8c2.43-.09,4.87,0,7.31,0,.85,0,1.53.16,1.81,1a1.62,1.62,0,0,1-.9,2.11A24.5,24.5,0,0,0,36,60.1a14.59,14.59,0,0,0-3.86,6.67,9.87,9.87,0,0,0,1,7.08,10.19,10.19,0,0,0,1.95,2.94,4.78,4.78,0,0,0,3.7,1.1c.94-.06,1.89.14,2.83.14a1.85,1.85,0,0,0,1.26-.36c.16-.17-.11-.77-.2-1.18-.23-1.06-.5-2.12-.66-3.19,0-.2.33-.46.51-.7.17.24.43.46.48.71a5.81,5.81,0,0,0,4.71,4.44c1.81.2,3.62.51,5.43.57A19.77,19.77,0,0,0,56.64,77.82ZM82.36,27h0V7.2c0-1.52-.48-2-2-2s-2.8,0-4.2,0a1.31,1.31,0,0,0-1.5,1.2,6.78,6.78,0,0,1-.56,1.7c-.39.77-.94.91-1.6.23-.95-1-1.06-.9-1.6.39a2.21,2.21,0,0,1-1.24,1.25,2,2,0,0,1-1.6-.73,3.91,3.91,0,0,1-.69-2.08C67.27,4.9,67.1,4.74,65,4.69q-3.75-.09-7.5-.42c-2.4-.21-3.06.22-3.51,2.62a2.23,2.23,0,0,1,0,.23c-.23,1.15-.48,1.29-1.38.6s-1.16-.36-1.57.41A6.66,6.66,0,0,1,49.66,10c-.68.6-1.34.51-1.85-.4A3.58,3.58,0,0,1,47.43,6c.52-1.12,0-1.72-1.31-1.7-.68,0-1.36.08-2,0-3.08-.18-6.15-.41-9.23-.59C33,3.6,33,3.62,32.47,5.45A2.67,2.67,0,0,1,30,7.66a4.16,4.16,0,0,0-2,.42,1.83,1.83,0,0,1-2.73-.76,2.38,2.38,0,0,1,.1-2.5c.62-1,.29-1.67-.7-1.67-1.56,0-3.12,0-4.67,0a2.26,2.26,0,0,0-2.39,2.31c-.07,4.31-.17,8.63-.18,12.94q0,11.94,0,23.88a25.08,25.08,0,0,0,.28,3.34,1.61,1.61,0,0,0,1.75,1.45c3.81.19,7.6-.09,11.44.44,4.94.68,10-.28,15,.46,3.09.46,6.3.11,9.46.11.72,0,1.44-.1,2.15,0,1.7.14,3.38.46,5.07.52,5.74.22,11.49.38,17.23.53,1.77,0,2.46-.66,2.46-2.44ZM87.79,5.46l.33-.17c-.31-.38-.6-1-1-1.08A1.68,1.68,0,0,0,85.93,5a3,3,0,0,0-.41,1.6c0,6.19.08,12.38.07,18.57,0,7.39-.11,14.78-.12,22.17a1.53,1.53,0,0,0,.69,1.19A1.4,1.4,0,0,0,87.45,48a6.64,6.64,0,0,0,.87-2.77c-.11-8.91.27-17.83-.47-26.74C87.5,14.19,87.79,9.81,87.79,5.46ZM46.92,59.71h0c0,1.36,0,2.72,0,4.08a6.19,6.19,0,0,1-.14,1.78,3.23,3.23,0,0,0,3.52,4.36c.94-.08,1.38-.52,1.32-1.46s-.1-1.76-.1-2.64c0-3.27.08-6.55.09-9.83a1.47,1.47,0,0,0-1.6-1.67A4.55,4.55,0,0,1,48.56,54c-1.27-.5-1.65-.24-1.64,1.17ZM10.63,76.08a2.71,2.71,0,0,0,.59,1.08,1.24,1.24,0,0,0,1.11-.28c.47-1.53.82-3.09,1.18-4.64a.54.54,0,0,0-.19-.43c-.3-.23-.65-.59-.94-.56a1.18,1.18,0,0,0-.81.73C11.22,73.25,11,74.54,10.63,76.08Zm5.95-10.56a1.61,1.61,0,0,0,.64-.28c1.22-1.3,2.44-2.61,3.6-4,.17-.2,0-.65,0-1-.36,0-.87-.13-1.06.06-1.33,1.25-2.64,2.54-3.86,3.89C15.41,64.82,15.75,65.49,16.58,65.52ZM29.33,4.28a15.1,15.1,0,0,0-1.26-.91,16,16,0,0,0-1.81,2.31c-.06.09.67.66,1,1Zm21,1.52c-.15-.22-.34-.82-.72-1s-1.39,1-1.3,1.94c0,.49.5,1.36.72,1.34C50.21,8,50.12,7,50.34,5.8Zm17.91.86,1.24,1.23a4.91,4.91,0,0,0,1-1.54c.08-.31-.53-.78-.83-1.18Z"></path><path d="M18.93,30.37v-12c0-1.92.79-2.86,2.71-2.54,6.08,1,12.19.4,18.28.53,8,.18,16,.25,24.07.36,2.44,0,4.88,0,7.32.08s4.92.27,7.38.43a1.44,1.44,0,0,1,1.51,1.53c0,3,.08,6,0,9,0,2.34-.19,4.68-.3,7a2.07,2.07,0,0,1-.07.71,3,3,0,0,1-.45.64c-.23-.18-.57-.32-.68-.56a2.55,2.55,0,0,1-.15-1l.18-11.72c0-.79,0-1.59,0-2.39,0-1.18-.47-1.73-1.63-1.74-3,0-5.91,0-8.86-.05-1.34,0-2.68-.39-4-.39-6.76,0-13.52.06-20.27,0-7.14-.11-14.27-.38-21.4-.59-1.83-.06-1.94.09-1.94,1.92q0,10.86,0,21.71c0,1.57.53,2.2,2.1,2.24,6,.15,12.08-.05,18.05.58,3.18.33,6.34.3,9.51.45,4.81.23,9.63.26,14.45.41a16.78,16.78,0,0,1,2.33.34,8.06,8.06,0,0,0,1.17.23c2.6,0,5.19.07,7.79,0,.87,0,1.74-.24,2.61-.25a3.24,3.24,0,0,1,1.13.44,3.93,3.93,0,0,1-.8,1.15c-.27.19-.77.1-1.17.09-3.66-.15-7.32-.32-11-.46-4.93-.19-9.88-.09-14.77-.63-4.47-.49-8.95.09-13.37-.41-3-.33-6-.29-8.92-.44s-5.88-.33-8.82-.51c-1.6-.09-2-.55-2-2.16v-12Z"></path><path d="M61.56,43.37c-1,.13-1.68-.37-2.05-1.51s-1.46-1.44-2.94-.92a9.74,9.74,0,0,0-3,1.68,3,3,0,0,1-2.67.64c-.92-.17-.65-.87-.49-1.43.41-1.42.87-2.82,1.31-4.23.61-2,1.23-4,1.82-6a17.53,17.53,0,0,1,.55-2.19A8.2,8.2,0,0,1,55.53,27a1.38,1.38,0,0,1,2.38.39c.8,1.86,1.37,3.81,2.05,5.72C61,36,62,38.88,63,41.72,63.55,43.14,63.32,43.5,61.56,43.37ZM58,36.14c-.47-.81-.81-1.51-1.26-2.13a1,1,0,0,0-.84-.19c-.13,0-.19.46-.25.72-.12.61-.27,1.22-.33,1.83,0,.45-.12,1.17.09,1.29a1.58,1.58,0,0,0,1.39,0A6.2,6.2,0,0,0,58,36.14Z"></path><path d="M31.4,36.26c-.46-4.13,1.28-7.6,3.45-10.9,1-1.46,2.09-2.82,3.13-4.23s2.45-1.34,3.87-1.44a1,1,0,0,1,.72.49c.08.14-.1.58-.28.69-3.35,1.95-3.95,5.5-5.19,8.71-1.37,3.51-1.12,7.12-1,10.74,0,1.4-.2,1.73-1.59,1.62l-.24,0c-.73-.09-1.88.08-2.1-.3a8.42,8.42,0,0,1-.83-3.06A13.64,13.64,0,0,1,31.4,36.26Z"></path><path d="M77.18,31.39a7.23,7.23,0,0,1-.89-1.75,10.78,10.78,0,0,0-3.14-5.55c-1-1-2.07-1.95-3.06-3a3.18,3.18,0,0,1-.47-1,3.47,3.47,0,0,1,1.06-.35c.87,0,1.74.1,2.61.13,1.28.06,3.47,2,3.77,3.47.19,1,.21,2,.31,2.95s.21,2.07.28,3.1c0,.6,0,1.21,0,1.82Z"></path><path d="M64.12,29c.31.34,1.27,1.09,1.16,1.32a7.64,7.64,0,0,1-1.68,1.79c-.45-.55-1.16-1-1.29-1.65C62.13,29.57,62.86,29.12,64.12,29Z"></path></svg>