<svg xmlns="http://www.w3.org/2000/svg" id="Layer_1" data-name="Layer 1" viewBox="0 0 193.03 162.84"><title>AsimovMarketingIcon-bt-omar bahaa</title><path d="M190,45.15c0,.68,0,1.36,0,2,0,.31,0,.77-.15.9-1.38,1-.84,2.47-.86,3.76,0,.76,0,1.39-.71,1.89a.94.94,0,0,0-.16,1.55c1,.9,1.68,2.11,3.15,2.46a2.34,2.34,0,0,1,1.7,2.54c0,2,0,3.91,0,5.87,0,.32,0,.78-.12.92-1.42,1.11-.84,2.6-.87,4,0,.42,0,1-.3,1.21-.89.71-.65,1.62-.73,2.52a9.33,9.33,0,0,1-.62,1.92A5.37,5.37,0,0,0,190,78c0,1.07.05,2.15.07,3.23,0,.28,0,.69-.11.81-1.5,1.17-.8,2.77-.92,4.22,0,.37-.07.89-.32,1.08-.84.66-.69,1.51-.73,2.39a7.85,7.85,0,0,1-.57,1.93,5.31,5.31,0,0,0-.33,1.21c0,.75,0,1.51,0,2.27,0,.28.06.68-.1.81-1.71,1.53-.77,3.51-1,5.29,0,.38-.08.91-.32,1.09-.91.68-.7,1.59-.76,2.5a14.09,14.09,0,0,1-.59,1.92,12,12,0,0,0-.36,2.51c0,1,.17,1.87-.74,2.62-.27.22-.2.88-.24,1.35-.09,1.34.31,2.67-.85,3.93-.51.55-.08,1.91-.19,2.89a8.82,8.82,0,0,1-.53,1.6,7.62,7.62,0,0,0-.47,1.52c-.15,1.37.38,2.79-.85,4-.45.46,0,1.69-.15,2.55a12.25,12.25,0,0,1-.59,1.93,6.37,6.37,0,0,0-.35,1.33c-.11,1.42.35,2.85-.89,4.16-.48.52,0,1.84-.16,2.78a11.31,11.31,0,0,1-.55,1.71,8.78,8.78,0,0,0-.43,2.12,2.3,2.3,0,0,1-.6,1.95,2.16,2.16,0,0,0-.47,1.39c0,1,.12,2,.08,3a4.76,4.76,0,0,1-.44,1.42,5.58,5.58,0,0,0-.57,1.58,8,8,0,0,1-.67,2.88c-.74,1.79-2.17,2.82-3.33,4.14a1.73,1.73,0,0,1-1.24.53,1.77,1.77,0,0,0-1.81.6c-.09.13-.55.21-.61.13-.92-1.24-2.21-.62-3.33-.65a2.63,2.63,0,0,1-2.15-.79c-.25-.28-.85-.31-1.31-.35-1.32-.12-2.8.53-3.88-.85-.14-.17-.61-.1-.92-.1-1.12,0-2.24,0-3.36,0-.31,0-.76,0-.9-.2-1-1.4-2.45-.8-3.74-.94A15.3,15.3,0,0,1,146,157a6,6,0,0,0-1.82-.27,2.53,2.53,0,0,1-2.18-.66,2.73,2.73,0,0,0-1.51-.46c-1.29-.14-2.72.52-3.77-.84-.15-.19-.68-.11-1-.11-1.08,0-2.16.06-3.24,0-.38,0-.91-.09-1.08-.34-.7-1-1.65-.76-2.6-.81A7.29,7.29,0,0,1,127,153a4.93,4.93,0,0,0-1.21-.32c-1.24,0-2.48,0-3.72.07a2.53,2.53,0,0,1-2.25-.8c-.57-.65-3.07-.41-3.81.11a3.26,3.26,0,0,1-1.68.66c-2.36,0-4.72,0-7.08,0-1,0-3,1.66-3.24,2.83-.17.71-.37,1.2-1.21,1.19a.93.93,0,0,0-.64.27c-1.86,2-4.46,2.66-6.74,3.91a3.78,3.78,0,0,1-2.61.68.41.41,0,0,0-.33.12c-1.94,2-4.4.66-6.59,1-1.19-1.27-2.73-1.19-4.28-1.14a.57.57,0,0,1-.31-.17c-1.88-1.85-4.49-2.82-6-5.08a1.69,1.69,0,0,0-1.88-.72,1.33,1.33,0,0,1-1.09-.25c-.61-.75-1.35-.67-2.17-.66-6,0-11.92,0-17.87,0-.27,0-.67,0-.79-.19-1-1.44-2.53-.82-3.86-1a9.1,9.1,0,0,1-1.7-.55l-4.43-1.38a9.36,9.36,0,0,1-1.39-.44c-1-.48-1.9-1.11-2.9-1.54-1.47-.64-3-1.08-4.06-2.45-.12-.15-.29-.36-.45-.38-1.75-.2-2.65-1.6-3.64-2.73a19.25,19.25,0,0,1-1.92-3.23,6.42,6.42,0,0,1-.71-1.44,4.39,4.39,0,0,1-.26-2,11.63,11.63,0,0,1,1.17-2.27c.22-.42.65-1.14.57-1.21a11.32,11.32,0,0,0-2-1.27c-.22-.11-.55,0-.83,0a2.29,2.29,0,0,1-2.16-.69,2.59,2.59,0,0,0-1.65-.38c-.88,0-1.73.17-2.39-.7-.17-.23-.72-.25-1.1-.26-1.08,0-2.16,0-3.24,0-.38,0-.92,0-1.11-.27-.76-1-1.76-.91-2.81-.85A5,5,0,0,1,6,126.42a1.46,1.46,0,0,0-.3-.64A10.36,10.36,0,0,1,3,121.17c-.36-1-1.19-1.77-1.57-2.74A28.25,28.25,0,0,1,.1,114a2.37,2.37,0,0,1,.84-2.68c.21-.15.23-.66.23-1,0-1.08-.07-2.15-.08-3.23,0-.32-.05-.78.13-.92,1.42-1.11.78-2.62.85-4,0-.38,0-1,.23-1.11,1.06-.76.78-1.8.83-2.83a6.13,6.13,0,0,1,.55-1.59,5.12,5.12,0,0,0,.46-1.42c.05-1,0-2.07-.06-3.11,0-.32,0-.78.13-.92,1.42-1.11.76-2.62.87-4a6.65,6.65,0,0,1,.49-1.51,7,7,0,0,0,.54-1.6c.09-1.33-.41-2.67.83-3.9.49-.49.07-1.84.2-2.77a10.51,10.51,0,0,1,.63-1.92,5,5,0,0,0,.41-1.32c0-1-.08-2.07-.06-3.11,0-.41.06-1,.33-1.2.84-.68.66-1.52.7-2.4a9.46,9.46,0,0,1,.56-1.94,8.62,8.62,0,0,0,.4-1.55c.12-1.29-.38-2.59.81-3.81.51-.52.08-1.91.21-2.89a12.31,12.31,0,0,1,.63-1.79,8,8,0,0,0,.4-1.57c.11-1.28-.53-2.69.82-3.77.29-.23.1-1.05.13-1.61s-.14-1.17.11-1.37c1.35-1.11.75-2.56.87-3.9a9.18,9.18,0,0,1,.57-1.7,6.68,6.68,0,0,0,.44-1.87,2.77,2.77,0,0,1,.74-2.39c.33-.32.32-1.11.29-1.67a2.62,2.62,0,0,1,.68-2.29c.35-.36.32-1.18.3-1.78a2.45,2.45,0,0,1,.65-2.18,2.42,2.42,0,0,0,.33-1.65c0-.91-.11-1.75.76-2.37a.83.83,0,0,0,.3-.73c-.47-1.45.44-2.35,1.39-3a3.78,3.78,0,0,0,1.55-4.16,1.91,1.91,0,0,1,.67-2,1.72,1.72,0,0,0,.39-1.17c0-.76-.09-1.52,0-2.27a4.78,4.78,0,0,1,.48-1.39c.14-.32.45-.6.48-.91.06-.7.38-1,1.05-1.05a1.78,1.78,0,0,0,1-.58c.64-.7,1.14-.61,1.81,0a2.62,2.62,0,0,0,1.55.64c2.44.05,4.88,0,7.32,0,1.12,0,1.39-.3,1.35-1.44,0-.48,0-1.16.29-1.41a2.49,2.49,0,0,0,.71-2.39c-.13-1.69.54-2.08,2-2.91s2.25-.62,3.72,0,3.62.08,5.45.13A7,7,0,0,1,52,1.18a5.57,5.57,0,0,0,1.43.43c1,0,2-.1,3-.07a2,2,0,0,1,1.3.41c.68.81,1.49.72,2.39.73a7.45,7.45,0,0,1,1.94.55s.06.07.09.08c1.5.16,2.84,1.35,4.18,1.29,1.66-.07,2.85.72,4.2,1.23a17.64,17.64,0,0,1,2.8,1.64c.1.06.22.16.32.14C76,7.34,77.41,9.3,79.43,9.72a1.32,1.32,0,0,1,.69.46c1.12,1.38,2.74,1.89,4.28,2.56A8.77,8.77,0,0,1,86,14c1.2.93,2.45,1.79,3.59,2.78s2.1,2.08,3.16,3.12a14.36,14.36,0,0,0,2.65,1.9c1.56.95,3.22,2.1,3.68,4.16a1.76,1.76,0,0,0,.52.77c1,1,2,1.88,2.85,2.91a12.89,12.89,0,0,1,1.7,2.51c.77,1.52,1.75,1.8,3.13.88A23.2,23.2,0,0,1,110,31.66l3.21-1.6c1.65-.81,3.29-1.61,4.93-2.43.38-.19.75-.41,1.11-.62.14-.08.28-.31.37-.28,1.9.59,3.18-1.86,5.11-1.07,1.4-.87,3.19-.65,4.56-1.65a2.48,2.48,0,0,1,1.43-.36c1,0,2,.24,2.71-.78.13-.19.59-.2.89-.2l6.48,0c.34,0,.85,0,1-.24.69-1,1.68-.9,2.69-.89,2,0,4.08,0,6.11,0a1.63,1.63,0,0,1,1.11.32c.71.9,1.62.83,2.6.81,2.15-.05,4.31,0,6.47,0,.28,0,.68,0,.8.13,1.09,1.35,2.56.78,3.9.83.08,0,.17,0,.24,0A38.46,38.46,0,0,0,169.76,25c.7.19,1.36.71,2.18.58a2.23,2.23,0,0,1,2.27.72,1.48,1.48,0,0,0,1,.39,3.9,3.9,0,0,1,3.79,3.78c0,1.24.14,2.41-.86,3.56-.53.61-.18,2-.21,3a.23.23,0,0,0,.1.2l3.39,1.44c.1,0,.25-.08.35,0,1.42.51,2.83,1,4.23,1.55.4.15.76.5,1.15.51,2.12.09,2.84.83,2.79,3,0,.48,0,1,0,1.44ZM24.9,103.63h0c0,1,0,1.92,0,2.87s.39,1.29,1.29,1.25c1.08,0,2.16,0,3.24,0s2.15-.13,2.93.9c.17.22.66.25,1,.26a21.78,21.78,0,0,1,3.23,0,36.69,36.69,0,0,1,4,1.08c.07,0,.13.1.18.16a1.68,1.68,0,0,0,1.89.68,1.06,1.06,0,0,1,.89.2c.65.8,1.59.53,2.34.81,1.21.46,2.43.83,3.65,1.23a29.74,29.74,0,0,1,4.85,2.57c.76.41,1.52.82,2.31,1.16,1.53.68,3.23,1.08,4.29,2.57.12.18.38.26.59.38,1.52.92,3.1,1.76,4.53,2.8A25.33,25.33,0,0,1,68.74,125a4.75,4.75,0,0,0,1,.66,8.08,8.08,0,0,1,1.6.93c2.91,2.9,5.78,5.86,8.68,8.79a1,1,0,0,0,.8.32c.19-.07.28-.49.39-.76s.25-.73.37-1.1a19.14,19.14,0,0,0,.58-2c.12-.57-.11-1.45.21-1.7,1.11-.87.79-2,.82-3.07s-.34-2.36.17-2.9c1.23-1.3.76-2.67.81-4,0-.41,0-1,.31-1.2.87-.66.71-1.5.72-2.39a6.56,6.56,0,0,1,.4-1.77,9.53,9.53,0,0,0,.57-1.71c.14-1.33-.51-2.82.93-3.86.16-.11.13-.52.13-.8,0-1.12-.07-2.24,0-3.35a5.51,5.51,0,0,1,.39-1.32c.21-.68.47-1.34.63-2s0-1.44.31-1.78a2.49,2.49,0,0,0,.68-2.16c0-.91-.28-2.17.19-2.65,1-1,.79-2.09.8-3.21,0-.92-.34-2.2.13-2.67,1.28-1.29.77-2.74.89-4.15,0-.42,0-1,.28-1.22a2.51,2.51,0,0,0,.73-2.39c0-.53,0-1.28.28-1.56a2.44,2.44,0,0,0,.68-2.17c0-1.23-.42-2.57.84-3.53.21-.16.18-.68.18-1,0-1-.08-2.08-.06-3.12,0-.41.08-1,.34-1.19a2.36,2.36,0,0,0,.75-2.38c0-.47-.16-1.17.08-1.38,1.42-1.18.87-2.68.87-4.12a1.67,1.67,0,0,1,.35-1.18,2.16,2.16,0,0,0,.69-2c0-.91-.34-2.2.13-2.67,1.25-1.23.72-2.59.81-3.92,0-.42,0-1.07.22-1.23,1.08-.7.79-1.72.82-2.7,0-.78-.21-1.87.21-2.29a3.31,3.31,0,0,0,.82-2.84,23.54,23.54,0,0,1,0-3.36,2.82,2.82,0,0,0-1.07-2.72,14.42,14.42,0,0,1-2-2.34c-.37-.49-.51-1.16-.93-1.58-3-3-6-6-9-9-.19-.19-.41-.52-.62-.52-1.41,0-2-1.19-2.9-1.91s-2-1.37-3-2.07c-1.44-1-2.84-2.08-4.3-3.06a15.12,15.12,0,0,0-2.09-1.05c-1.06-.49-2.12-1-3.2-1.45-1.39-.58-2.8-1.53-4.21-1.55s-2.47-1-3.63-1.46a5.67,5.67,0,0,0-2.66-.67,4.2,4.2,0,0,1-1.45-.31,9.18,9.18,0,0,0-1.69-.59c-1.38-.12-2.89.44-4-.93-.14-.18-.6-.14-.92-.13-1,0-2.07.09-3.11.07a2.16,2.16,0,0,1-1.21-.34c-1.51-1.15-3.11-1.06-4,.61A13.42,13.42,0,0,0,43,11.89a26.68,26.68,0,0,0,0,3.35,5.06,5.06,0,0,1-.4,1.19A14.77,14.77,0,0,0,42,18.34c-.12.57.15,1.46-.16,1.72-1.37,1.13-.72,2.56-.83,3.89a6.57,6.57,0,0,1-.38,1.43A9.8,9.8,0,0,0,40,27.3c-.12,1.25.55,2.64-.86,3.62-.18.12-.15.59-.15.9,0,.8.09,1.6,0,2.4a4.6,4.6,0,0,1-.39,1.19,7.14,7.14,0,0,0-.65,1.92c0,.91.16,1.81-.76,2.48-.21.16-.25.65-.26,1,0,.88,0,1.76,0,2.64,0,.55.18,1.37-.1,1.6-1.35,1.09-.75,2.49-.84,3.78a7.11,7.11,0,0,1-.38,1.56A10.2,10.2,0,0,0,35,52.07c-.16,1.37.44,2.88-.95,4-.2.16-.18.68-.15,1,.09,1,.28,2.07-.78,2.81-.2.14-.22.59-.23.9,0,1,0,1.91,0,2.87,0,.48.16,1.18-.08,1.38-1.41,1.14-.83,2.61-.85,4,0,.42,0,1-.29,1.21-1,.71-.75,1.66-.76,2.61a2.41,2.41,0,0,1-.36,1.53,2.47,2.47,0,0,0-.7,2c0,1.21.54,2.58-.8,3.52-.17.12-.19.52-.19.79,0,1,0,2,0,3,0,.47.14,1.18-.11,1.37-1.38,1.07-.74,2.48-.82,3.78,0,.46,0,1.13-.26,1.33-.95.73-.74,1.67-.76,2.62a6.14,6.14,0,0,1-.41,1.65,9.32,9.32,0,0,0-.62,1.69c-.15,1.32.52,2.8-.88,3.87-.18.14-.15.6-.15.92C24.89,101.87,24.9,102.75,24.9,103.63Zm147.29-68c0-.4,0-.8,0-1.2.08-1.93-.95-3-2.92-3a1.31,1.31,0,0,1-1-.33c-.55-.76-1.28-.65-2-.67a8.85,8.85,0,0,1-2-.37c-.69-.19-1.34-.57-2-.69-1.58-.25-3.36.66-4.71-.9-.13-.14-.54-.06-.81-.06-5.84,0-11.68.05-17.52.05-.92,0-1.82-.22-2.48.73-.14.21-.65.23-1,.23-1.08,0-2.16-.08-3.24-.06a1.75,1.75,0,0,0-1.2.35c-.65.84-1.47.77-2.37.77a6.92,6.92,0,0,0-1.79.35c-.57.16-1.12.4-1.69.57-.29.08-.75,0-.91.14-1.23,1.34-3.19.78-4.55,1.83a17.77,17.77,0,0,1-2.73,1.35c-1.63.85-3.22,1.75-4.84,2.62a14.25,14.25,0,0,1-2.22,1.09c-1.77.58-2.3,1.3-2.2,3.1a2.48,2.48,0,0,1-.3,1.67,2.4,2.4,0,0,0-.65,2.06c0,.91.33,2.22-.14,2.66-1.32,1.25-.75,2.65-.85,4a5.73,5.73,0,0,1-.34,1.34,11.22,11.22,0,0,0-.71,2c-.16,1.28.46,2.71-.9,3.75-.21.16-.11.75-.13,1.14,0,1.29.6,2.73-.82,3.75-.18.12-.14.59-.14.91,0,.76.1,1.52.07,2.27,0,.41-.1,1-.37,1.18a2.23,2.23,0,0,0-.73,2.26c0,.47.18,1.17-.06,1.39-1.6,1.45-.71,3.29-.91,5,0,.39.11,1-.09,1.15-1.47,1.11-.78,2.6-.84,4,0,.42,0,1-.31,1.21-.88.65-.8,1.49-.7,2.37a2.16,2.16,0,0,1-.66,2.06,2.26,2.26,0,0,0-.42,1.4c-.11,1.37.56,2.89-.91,4-.13.1-.12.45-.12.68C97,94.9,97,96,97,97.14c0,.35.08.89-.11,1-1.47,1.06-.77,2.53-.86,3.86a5.73,5.73,0,0,1-.47,1.51,5.32,5.32,0,0,0-.56,1.59c0,1,.2,2-.82,2.82-.23.18-.26.73-.26,1.12,0,1,0,2.07.06,3.11,0,.32.07.78-.1.92-1.45,1.19-.86,2.77-.91,4.24,0,.37-.06.91-.3,1.09-.87.65-.68,1.51-.73,2.38a8.69,8.69,0,0,1-.6,1.92,5.94,5.94,0,0,0-.35,1.21c-.11,1.45.52,3-.92,4.23-.18.15-.15.6-.14.92,0,1,.06,2.07.07,3.11,0,.35,0,.88-.17,1-1.33.94-.76,2.33-.88,3.54a1.14,1.14,0,0,0,.49.95,1.92,1.92,0,0,0,1.33-.14c1-.51,2-1.16,3-1.7a16.25,16.25,0,0,1,2.2-1c1.18-.42,2.15-1.51,3.59-1.13.1,0,.25-.19.39-.24.6-.21,1.21-.37,1.8-.6,1.37-.54,2.76-1,4.15-1.49.68-.23,1.26-.71,2.06-.57a2.25,2.25,0,0,0,2.38-.72,1.48,1.48,0,0,1,1-.41c1.92,0,3.84,0,5.76,0,.84,0,1.67.23,2.27-.66.14-.2.65-.2,1-.2,3.8,0,7.6,0,11.39,0a4.06,4.06,0,0,1,1.18.38,5.45,5.45,0,0,0,1.49.5c1.76,0,3.52,0,5.28,0a1.51,1.51,0,0,1,1.06.41,1.88,1.88,0,0,0,2.13.71c2-.64,3.55,1.36,5.52,1,.13,0,.35.19.47.34a2.16,2.16,0,0,0,2.61.61,3,3,0,0,0,1.68-2.76c-.07-1-.22-1.9.74-2.62.25-.19.27-.8.27-1.22,0-1-.08-2-.06-3,0-.41.07-1,.33-1.2a2.21,2.21,0,0,0,.75-2.13c0-.91-.33-2.19.14-2.66,1.2-1.2.74-2.51.81-3.81,0-.49,0-1.16.33-1.42a2.22,2.22,0,0,0,.66-2c0-.91-.3-2.18.17-2.66,1.21-1.24.7-2.6.82-3.93a7.81,7.81,0,0,1,.44-1.53,14.81,14.81,0,0,0,.61-1.81c.11-.61-.19-1.53.14-1.84,1.32-1.2.83-2.62.81-4a1.7,1.7,0,0,1,.34-1.19,2.24,2.24,0,0,0,.69-2.16c0-.87-.31-2.09.14-2.55,1.27-1.3.78-2.73.83-4.16,0-.37.05-.91.29-1.09.86-.64.79-1.48.77-2.37s-.29-2,.14-2.44c1.23-1.26.76-2.66.81-4a4.84,4.84,0,0,1,.39-1.3,8.54,8.54,0,0,0,.58-1.7c.12-1-.32-2.35.19-2.9,1.24-1.34.72-2.75.81-4.16a1.73,1.73,0,0,1,.39-1.18,2.39,2.39,0,0,0,.7-2.28c0-.54-.11-1.34.18-1.58,1-.85.85-1.89.81-3s-.39-2.29.09-2.78c1.27-1.31.75-2.74.86-4.15,0-.42,0-1,.28-1.22.89-.7.75-1.58.75-2.5a6.09,6.09,0,0,1,.4-1.66,10.4,10.4,0,0,0,.59-1.7c.12-1-.32-2.32.18-2.9A4.47,4.47,0,0,0,172.19,35.67ZM8.93,113.19c0,.32,0,.64,0,1-.08,1.48.09,1.63,1.61,1.6,1.67,0,3.35,0,5,0,1.05,0,2.08-.14,2.8.89.14.2.58.25.89.24,1.75,0,3.51-.06,5.27-.08.31,0,.78-.07.92.1,1.1,1.33,2.57.7,3.91.83a7,7,0,0,1,1.44.39,10.77,10.77,0,0,0,1.9.67c.9.12,2.19-.34,2.67.13,1.32,1.24,2.76.71,4.18.82.38,0,.92,0,1.1.28.73,1,1.72.68,2.69.83a13.27,13.27,0,0,1,4.4,1.31,4.16,4.16,0,0,0,2.41.65c.52,0,1.25,0,1.55.28,1.09,1.15,2.48.62,3.73.81.19,0,.46-.42.7-.65a3.61,3.61,0,0,0-.71-.65c-.51-.26-1.08-.43-1.61-.66-.88-.39-1.76-.8-2.64-1.22s-2-1-3-1.45a16,16,0,0,0-1.69-.58c-1.39-.44-2.75-1-4.14-1.41a7.45,7.45,0,0,0-2.27-.59,6.63,6.63,0,0,1-1.88-.42,8.07,8.07,0,0,0-1.79-.61c-1,0-1.9.21-2.6-.77-.15-.21-.65-.23-1-.23-1,0-2.08,0-3.12,0-.42,0-1.06,0-1.23-.22-.79-1.09-1.85-.91-2.93-.86s-2.16.07-3.23,0a1.59,1.59,0,0,1-1.07-.39,2,2,0,0,0-1.92-.65c-.39,0-1.16-.38-1.17-.61-.08-2.15,0-4.31,0-6.47a.46.46,0,0,1,.12-.33c1.47-1,.79-2.6.93-4,0-.45,0-1.07.31-1.32a2.49,2.49,0,0,0,.72-2.28c-.05-.83-.3-2,.13-2.43,1-1,.86-2,.78-3.2,0-.27,0-.67.15-.8,1.26-1,.84-2.29.86-3.53,0-.79-.3-1.93.11-2.32,1.44-1.36.8-3,.91-4.48,0-.34.08-.81.3-1,.91-.67.79-1.56.77-2.49a5.19,5.19,0,0,1,.38-1.66A10,10,0,0,0,25.14,74c.16-1.32-.55-2.8.86-3.88.2-.15.14-.68.14-1,0-1-.1-2.08-.06-3.12a4.67,4.67,0,0,1,.45-1.28,11.11,11.11,0,0,0,.6-1.7c.11-.62-.21-1.56.12-1.85,1.37-1.22.79-2.71.86-4.13a1.79,1.79,0,0,1,.34-1.19c.7-.58.64-1.26.69-2,.11-1.59-.74-3.38.88-4.7.14-.12.15-.46.13-.69C30,47.23,29.79,46,31,45.17c.18-.12.14-.6.14-.91,0-.8-.09-1.6,0-2.4a4.15,4.15,0,0,1,.41-1.18,8.89,8.89,0,0,0,.64-1.81c.16-1.28-.56-2.72.85-3.75.18-.13.15-.6.14-.91,0-1.08-.06-2.16,0-3.24,0-.38,0-.92.26-1.11.9-.68.75-1.57.75-2.49a5.89,5.89,0,0,1,.4-1.67A10.73,10.73,0,0,0,35.11,24c.18-1.36-.49-2.89.93-4,.18-.14.15-.6.16-.92,0-.76,0-1.52,0-2.27.05-1.12-.49-1.52-1.54-1.42a3.59,3.59,0,0,1-3-.69c-.49-.41-1.85-.15-2.61.22-1.61.78-1,2.38-1.06,3.73,0,.53,0,1.25-.34,1.54a2.22,2.22,0,0,0-.66,2c0,.91.33,2.21-.14,2.67-1.34,1.33-.78,2.81-.86,4.26a1.61,1.61,0,0,1-.34,1.08,2.22,2.22,0,0,0-.73,2.15c0,.87.34,2.1-.1,2.55-1.27,1.26-.75,2.66-.81,4a5.44,5.44,0,0,1-.37,1.32A10.46,10.46,0,0,0,23,42.26c-.12.9.32,2.19-.14,2.67-1.25,1.28-.87,2.71-.93,4.14,0,.67.22,1.65-.13,2-1.11,1-.89,2.13-.82,3.32,0,.23,0,.57-.11.68-1.43,1.15-.81,2.69-.87,4.12a4.59,4.59,0,0,1-.42,1.3A8.24,8.24,0,0,0,19,62.13c-.11,1,.33,2.39-.18,2.9-1.31,1.31-.74,2.74-.83,4.15,0,.38,0,.93-.28,1.1-.92.65-.81,1.55-.79,2.48s.3,1.93-.11,2.3c-1.26,1.16-.76,2.49-.82,3.79a6.09,6.09,0,0,1-.36,1.56,12.54,12.54,0,0,0-.65,1.9c-.13.94.31,2.28-.18,2.78-1.25,1.27-.77,2.65-.85,4,0,.42,0,1-.28,1.22a2.25,2.25,0,0,0-.73,2.27,2.12,2.12,0,0,1-.7,2.26c-.24.18-.28.71-.3,1.09-.07,1.42.58,3-.87,4.12-.15.12-.09.53-.09.8,0,1.12,0,2.24,0,3.36,0,.38,0,.93-.27,1.1-.91.66-.85,1.53-.81,2.47,0,.79.28,1.9-.13,2.31A3.48,3.48,0,0,0,8.93,113.19ZM159,130.09c.08,1.08.22,2.16-.84,2.94a1.11,1.11,0,0,0-.23.89,6.46,6.46,0,0,1-1.11,5.12c-.61.85-2,1.16-3,1.71,0,0-.07,0-.11,0-.79-.49-1.56-1-2.37-1.46a3.16,3.16,0,0,0-1.22-.41,16.62,16.62,0,0,0-1.08,2.39c0,.11.16.34.29.48a1.67,1.67,0,0,0,.45.39c.67.33,1.33.67,2,1a6.27,6.27,0,0,0,2,.66,2.84,2.84,0,0,1,2.48.81,1.5,1.5,0,0,0,1.32.32c1.61-.47,2.92.47,3.92,1.24,1.2.92,1.64.47,2.18-.4a5.1,5.1,0,0,0,.43-1.42c.1-.41,0-1,.27-1.22.81-.68.72-1.51.7-2.4,0-1.15-.39-2.69.19-3.37,1.12-1.31.68-2.6.81-3.93a7.47,7.47,0,0,1,.42-1.54c.2-.65.5-1.27.63-1.92s-.17-1.46.14-1.72c1.3-1.1.85-2.47.86-3.78,0-.72-.28-1.74.09-2.08,1.35-1.29.77-2.81.87-4.26,0-.38.05-.92.29-1.1.9-.68.75-1.58.75-2.5a5.7,5.7,0,0,1,.32-1.57,17.84,17.84,0,0,0,.67-2c.13-.9-.29-2.18.18-2.67,1.23-1.28.74-2.66.79-4a5,5,0,0,1,.39-1.31,9.93,9.93,0,0,0,.58-1.8c.12-.94-.29-2.26.19-2.78,1.23-1.33.78-2.74.83-4.16a1.7,1.7,0,0,1,.36-1.18,2.3,2.3,0,0,0,.72-2.16c0-.87-.33-2.1.12-2.55,1.27-1.31.81-2.72.81-4.16a4,4,0,0,1,.37-1.2,11.34,11.34,0,0,0,.63-1.92c.14-.94-.28-2.26.22-2.77,1.2-1.25.7-2.6.8-3.94,0-.45,0-1.08.32-1.3a2.3,2.3,0,0,0,.74-2.15c0-.91-.32-2.18.15-2.66,1.22-1.25.73-2.6.78-3.94,0-.42,0-1,.28-1.21.9-.69.71-1.59.74-2.5a7,7,0,0,1,.37-1.67,15.59,15.59,0,0,0,.62-1.94c.23-1.57-.71-3.36.92-4.68.18-.15.14-.61.14-.92,0-.76-.09-1.52,0-2.28a1.75,1.75,0,0,1,.4-1.16c.76-.59.63-1-.08-1.46-1.36-.78-2.56-2-4.33-1.8a.92.92,0,0,1-.74-.28c-.74-1.13-1.4-.7-1.85.16a9.83,9.83,0,0,0-.6,2.19c-.13.59-.19,1.21-.36,1.79a12.12,12.12,0,0,0-.59,1.69c-.11,1,.34,2.36-.17,2.9-1.25,1.32-.76,2.74-.85,4.15a5.21,5.21,0,0,1-.4,1.31,6.68,6.68,0,0,0-.61,1.7c0,1,.21,2.06-.83,2.82-.21.15-.23.66-.23,1,0,1,.12,2.08.08,3.12a5.88,5.88,0,0,1-.44,1.41,10.34,10.34,0,0,0-.53,1.6c-.11.66.19,1.65-.16,2-1.36,1.19-.78,2.64-.86,4a6,6,0,0,1-.43,1.41,8.71,8.71,0,0,0-.62,1.7c-.15,1.37.48,2.88-.9,4-.2.16-.14.68-.14,1,0,1,.09,2,.1,3,0,.34,0,.85-.23,1-1,.77-.78,1.82-.8,2.85a5.07,5.07,0,0,1-.36,1.44A11.32,11.32,0,0,0,166,94.4c-.13.89.31,2.17-.16,2.66-1.21,1.27-.75,2.66-.87,4a6.36,6.36,0,0,1-.54,1.59,5.81,5.81,0,0,0-.46,1.41c-.1,1.37.59,2.89-.85,4-.15.12-.09.53-.09.81,0,.8.08,1.6,0,2.4a4.91,4.91,0,0,1-.4,1.19,10.77,10.77,0,0,0-.65,1.91c-.12.9.31,2.18-.15,2.67-1.27,1.3-.77,2.74-.86,4.16,0,.41-.05,1-.32,1.2a2.37,2.37,0,0,0-.73,2.27c.06.82.3,1.94-.12,2.42A3.51,3.51,0,0,0,159,130.09ZM140.66,144a10.27,10.27,0,0,0,1.39-.58,1,1,0,0,0-.19-.71c-.84-.79-.83-2.47-2.52-2.38-.17,0-.35-.3-.52-.48-.42-.42-.84-.85-1.25-1.28-1.36-1.44-3.36-1.22-5-1.88a5.33,5.33,0,0,0-2.14,0,3.51,3.51,0,0,1-2.63-.79,5.8,5.8,0,0,0-3-1.25,63,63,0,0,0-6.59,0,4.22,4.22,0,0,0-1.2.36,7.23,7.23,0,0,1-1.8.57c-1,0-1.92-.17-2.58.82a.89.89,0,0,1-.74.27c-.9-.15-1.53.4-2.27.64a23,23,0,0,1-3.73,1.25c-1.76.22-3,1.18-4.43,1.94-.26.15-.33.63-.5,1a4,4,0,0,0,1.08.3c1.27,0,2.55-.08,3.83,0,.92,0,1.83.2,2.48-.74.13-.19.58-.22.89-.21,1.63,0,3.27.12,4.91.11,6.2,0,12.39-.15,18.59-.06,1.34,0,2.66.78,4,1.21.11,0,.16.19.27.24Z"></path><path d="M50.08,33.09c0-.68,0-1.36,0-2,0-.31-.05-.77.12-.91,1.48-1.18.79-2.78.91-4.22,0-.35,0-.85.21-1,1-.73.8-1.71.82-2.71a8.89,8.89,0,0,1,.56-1.7c.18-.7.29-1.42.43-2.13.11-.55.12-1.5.36-1.57a3.62,3.62,0,0,1,2.16.11,21.49,21.49,0,0,1,2.83,1.68.35.35,0,0,0,.22.08c2.62-.15,4.42,1.68,6.53,2.74,1.73.87,3.34,2,5,3a39.58,39.58,0,0,1,4.32,2.46c1.2.91,2.76,1.74,2.38,3.78a12.63,12.63,0,0,0,0,2.75c0,.93.17,1.82-.75,2.48-.22.15-.28.65-.27,1,0,2.23.11,4.47.15,6.7a2.92,2.92,0,0,1-.28.85c-.26-.12-.54-.23-.8-.36l-2.78-1.49c-.42-.22-.84-.41-1.25-.63-.1-.05-.17-.2-.27-.23l-4.38-1.14a3.21,3.21,0,0,1-.9-.22c-1-.54-1.86-1.14-2.8-1.7A.89.89,0,0,0,62,38.5a2.56,2.56,0,0,1-2.36-.76c-.38-.34-1.21-.15-1.82-.29s-1.28-.39-1.92-.59a4.92,4.92,0,0,0-1.2-.34c-1.16,0-2.32,0-3.48,0-.91,0-1.3-.37-1.22-1.32.07-.71,0-1.43,0-2.15Z"></path><path d="M67.8,59.81c-.67-.24-1.23-.26-1.44-.54-.69-.91-1.59-.69-2.5-.74a7.85,7.85,0,0,1-1.93-.61c-.1,0-.16-.2-.27-.23-1.38-.39-2.77-.77-4.16-1.14-.11,0-.25.06-.35,0-1.4-.55-2.79-1.14-4.2-1.67a5,5,0,0,0-1.57-.32c-1,0-2,.17-2.6-.8a.13.13,0,0,0-.09-.06c-2-.11-1.57-1.53-1.55-2.75a15.39,15.39,0,0,1,0-3.11,23.3,23.3,0,0,1,1.48-4.28c.33-.76,1-1.19,1.71-.2.19.26.79.29,1.2.3,1,0,2.08-.11,3.11,0a4.05,4.05,0,0,1,1.36.59c.35.17.72.57,1,.52,2.16-.37,3.69.91,5.47,1.73,1.05.48,2,1.25,3.46,1.27,1.24,0,2.47,1.19,3.67,1.92.12.07,0,.6-.08.89A9.25,9.25,0,0,0,69,52.24c-.1,1.07,0,2.16,0,3.24,0,.81-.28,1.69.69,2.23a.77.77,0,0,1,0,.71C69.06,58.94,68.39,59.38,67.8,59.81Z"></path><path d="M95,43.07c0,.16-.11.4,0,.47,1.65,1.6-.66,3.27.09,4.9a.94.94,0,0,1-.3.84c-.91.7-.85,1.62-.82,2.6,0,.53-.2,1.5-.41,1.53a3.63,3.63,0,0,1-2.23-.28c-1.61-1-3-2.47-4.66-3.36a10.42,10.42,0,0,1-2.84-2.05,2.25,2.25,0,0,1-.08-3.18,2.48,2.48,0,0,0,.5-1.39c0-2.48-.09-5-.09-7.44a1.32,1.32,0,0,1,.53-1,1.35,1.35,0,0,1,1.15.31c2,1.89,4.72,3,6.45,5.33.45.59,1.48.71,2.11,1.21A4.66,4.66,0,0,1,95.18,43Z"></path><path d="M61.09,69.23c0-.91,0-1.71,0-2.51s.34-1.16,1.16-1.12,1.52,0,2.27,0a1.44,1.44,0,0,1,.7.08c1.13.7,2.22,1.45,3.34,2.15a31.53,31.53,0,0,0,3,1.75,15.1,15.1,0,0,1,4.33,2.52,31,31,0,0,0,3.5,2.54c.88.64.91,1.28,0,2A1.58,1.58,0,0,0,79,77.87c.25,1.35-.71,2-1.51,2.63a1.08,1.08,0,0,1-1-.11,5.68,5.68,0,0,0-3-2.11c-.17,0-.3-.26-.47-.36-1.37-.83-2.76-1.6-4.11-2.46-1.89-1.2-4.37-1.08-6.06-2.72C60,72.52,61.56,70.37,61.09,69.23Z"></path><path d="M47.45,69.5a13.5,13.5,0,0,0-1.91,0c-1.24.18-1.81-.71-2.37-1.49a1.18,1.18,0,0,1,.23-1.13c.84-.65.73-1.48.77-2.37a8.05,8.05,0,0,1,.6-2c0-.15.26-.26.26-.39,0-1.1.42-1.64,1.62-1.36.8.19,1.78-.41,2.41.56.08.13.28.29.38.27,1.47-.33,2.49.73,3.69,1.21a1.45,1.45,0,0,1,.8,1,20.27,20.27,0,0,1,0,4.54,4.63,4.63,0,0,1-1.57,2.19c-.14.14-.93-.43-1.44-.63a4.45,4.45,0,0,0-1.31-.42c-.71-.07-1.43,0-2.15,0Z"></path><path d="M47.09,84.65c-1.26,0-2.5.23-3.54-.93-.34-.37-1.36-.17-2.06-.15-1.25,0-1.5-.2-1.42-1.43.07-1-.15-2.17.92-2.93a1.07,1.07,0,0,0,.16-.9,1.85,1.85,0,0,1,.68-1.9c1.13-1.1,1.1-1.11,2.27,0a1.75,1.75,0,0,0,1,.45,26.89,26.89,0,0,0,3.11,0c1.8-.11,2.7.77,2.73,2.58A2.81,2.81,0,0,1,50.17,82c-.25.19-.26.82-.21,1.22.14,1-.26,1.51-1.31,1.46C48.13,84.63,47.61,84.65,47.09,84.65Z"></path><path d="M52.11,108.65c0-2,1.12-3.32,2.73-2.93a3.68,3.68,0,0,1,2,1.63,1.76,1.76,0,0,1-.5,2.36c-.21.17-.37.43-.59.58-.71.47-1,1.74-2.17,1.31C52.73,111.29,52.09,109.91,52.11,108.65Z"></path><path d="M109.69,61.74c.34-.06.86,0,1-.2.77-1.06,1.81-.77,2.83-.75.41,0,1,0,1.21-.3a2.57,2.57,0,0,1,2.47-.84c1.48.05,3,.07,4.43.06.39,0,1,0,1.12-.23.65-1,1.57-.76,2.48-.76q6.77,0,13.55,0c.19,0,.47,0,.58,0,1.71,1.74,3.86.66,5.8.88a3.1,3.1,0,0,1,2,.73,2.71,2.71,0,0,0,1.75.4,2.62,2.62,0,0,1,2.29.63,16.27,16.27,0,0,0,2.38,1.42c.7.5.57,1.07,0,1.7A2.65,2.65,0,0,0,153,66a26.74,26.74,0,0,1,0,3.35,19.72,19.72,0,0,1-1.37,4c-.24.55-.87.92-1.32,1.38-1.11,1.15-1.08,1.11-2.37.1a2.36,2.36,0,0,0-1.43-.33c-1,0-2,.17-2.73-.78-.21-.27-.8-.31-1.22-.32-1.07,0-2.15,0-3.23,0-.31,0-.77,0-.9-.18-.7-1-1.67-.7-2.61-.7q-14,0-28.06,0a3.82,3.82,0,0,1-1,0c-.56-.14-1.57-.32-1.58-.55a7.66,7.66,0,0,1,.4-2.33c.15-.58.6-1.18.51-1.7-.38-2.18.6-3.89,1.73-5.53.34-.49,1.11-.69,1.68-1Z"></path><path d="M139,80.86c.87,0,1.75-.11,2.63-.11.37,0,.93,0,1.1.24.65.9,1.53.62,2.39.69a10.89,10.89,0,0,1,1.92.6,7.93,7.93,0,0,0,2,.45,3,3,0,0,1,2.18.64,3.8,3.8,0,0,0,2.25.31c1.38,0,1.52,0,1.53,1.43s0,2.88,0,4.32c0,.92.1,1.82-.81,2.46-.22.16-.28.65-.28,1,0,1.28,0,2.56.06,3.83.06,2-.86,2.86-2.83,2.87a8.06,8.06,0,0,1-2.47-.71c-1.34-.37-2.62-1.27-3.87-1.27a9.4,9.4,0,0,1-5.18-1.85,3,3,0,0,0-1.61-.16,2.25,2.25,0,0,1-2.17-.67,1.27,1.27,0,0,0-1.07-.32c-1.43.31-2.12-.64-2.63-1.61a2.11,2.11,0,0,1,.57-2.49,3,3,0,0,0,.35-1.89,4.29,4.29,0,0,1,.59-2.07,17.54,17.54,0,0,0,1.41-4.62c.15-.83.25-1.24,1.16-1.19s1.84,0,2.75,0Z"></path><path d="M130,51.49c-2.52,0-5,0-7.56,0-.31,0-.76,0-.92.13-1.47,1.72-3.43.83-5.17,1-1,.07-2-.24-2.75.72-.22.28-1,.14-1.47.16a6.92,6.92,0,0,1-1.44,0c-.54-.09-1.47-.24-1.5-.48a3.07,3.07,0,0,1,.31-2.11,2.12,2.12,0,0,0,.57-1.94c0-.18-.09-.48,0-.58,1.27-1.22,2.56-2.43,3.87-3.6a3.13,3.13,0,0,1,1.06-.49,6.49,6.49,0,0,1,1.83-.54c.92,0,1.83.18,2.47-.77.14-.2.57-.26.87-.26,1.48,0,3,0,4.44,0,.38,0,1,0,1.11-.23.72-1.06,1.74-1,2.78-.94,1.6,0,3.2,0,4.8,0,1.13,0,2.18.19,3.26-.68.62-.5,1.92-.22,2.9-.14.21,0,.52.67.53,1,.06,2.47.05,5,.07,7.43a2.68,2.68,0,0,1-2.27,2.35H130Z"></path><path d="M153.54,40.68h3.12c.27,0,.67-.07.8.08.75.84,1.75.67,2.68.91a9.39,9.39,0,0,1,3.3,1.93c1,.8.85,1.91.09,2.95a3.56,3.56,0,0,0-.47,1.85,5.25,5.25,0,0,1-.66,2.4c-.63,1.2-.77,2.67-1.49,3.92-.29.51-.12,1.58-.45,1.72A2,2,0,0,1,158,55.9a.54.54,0,0,0-.28-.22c-1.59-.38-3.16-.82-4.77-1.07-.76-.11-1.47,0-2-.74a1.72,1.72,0,0,0-1.18-.4,2.22,2.22,0,0,1-2.54-2.61c0-.64,0-1.28,0-1.92,0-.31,0-.77.14-.91,1.36-1,.78-2.45.86-3.76a6.09,6.09,0,0,1,.55-1.71c.09-.21.39-.4.38-.58-.06-1.43.8-1.36,1.82-1.26a23.06,23.06,0,0,0,2.63,0Z"></path><path d="M110.13,79.68c1.64,0,3.27,0,4.91,0a1.23,1.23,0,0,1,.94.52,1.1,1.1,0,0,1-.23,1,2.15,2.15,0,0,0-.74,2.36,2,2,0,0,1-.7,2.14.57.57,0,0,0-.25.39c.2,1.31-.64,2.27-1,3.38a2.59,2.59,0,0,1-2.77,2c-2.59,0-5.19,0-7.78,0-1.12,0-1.54-.38-1.41-1.49.07-.66,0-1.35,0-2,0-.38.05-.92.28-1.09a2.21,2.21,0,0,0,.74-2.47,2.15,2.15,0,0,1,.67-2c.54-.57.67-1.5,1.19-2.1a2.55,2.55,0,0,1,1.63-.69c1.51-.09,3,0,4.55,0Z"></path><path d="M104.51,98.74a23.58,23.58,0,0,1,4.29.07,5.24,5.24,0,0,1,2.19,1.57c.12.11-.23.73-.39,1.11s-.62,1-.63,1.44c0,1.8-.92,2.72-2.69,2.61a2.66,2.66,0,0,0-2.6.81c-.22.28-.86.26-1.32.3-1.33.12-2.72-.43-3.94.79a2.17,2.17,0,0,1-2.11-.27,2.2,2.2,0,0,1,.12-2.16,2.74,2.74,0,0,0,.67-2.51c-.11-.75-.12-1.43.63-1.9.12-.08.28-.25.28-.37-.05-1.76,1.15-1.5,2.27-1.45s2.15,0,3.23,0Z"></path><path d="M126.92,123.56c-1,.25-1.89.15-1.85-1.34a.74.74,0,0,0-.24-.4c-.39-.45-1.22-.84-.66-1.54s1.12-1.71,2.37-1.5c.93.16,1.91-.29,2.75.67a2.22,2.22,0,0,1,.62,2.58c-.47.91-1.14,1.89-2.5,1.57A3.77,3.77,0,0,0,126.92,123.56Z"></path></svg>