<svg xmlns="http://www.w3.org/2000/svg" id="Layer_1" data-name="Layer 1" viewBox="0 0 112.68 128.89"><title>AsimovMarketingIcon-bt-omar bahaa</title><path d="M63.9,1c.76,0,1.52,0,2.28,0A2.65,2.65,0,0,0,67.54.61a2.48,2.48,0,0,1,3.29,0,1.33,1.33,0,0,0,.88.3c1.67-.28,2.7.94,4,1.53a7.08,7.08,0,0,1,3.44,3.6c.68,1.39,1.64,2.79,1.43,4.52a11.18,11.18,0,0,0,0,2.52A10.41,10.41,0,0,1,79,19.63c-.61,1.06,0,2,1.3,2a2,2,0,0,1,1,0,5.72,5.72,0,0,0,3.65.78c.72-.06,1.52.7,2.23.63,2.48-.24,4.61.85,6.85,1.5.45.13,1-.06,1.4.14,1.81.89,4,.51,5.68,1.81,1.86,1.41,2.16,2.38,1.06,4.45a2.86,2.86,0,0,0-.25,1.27c0,23.28.06,46.55-.08,69.83,0,2.52.87,3.6,2.91,4.48s4,1.43,5.28,3.17A24.3,24.3,0,0,1,111.9,113a3.57,3.57,0,0,1,.11.47c.23.64.85,1.53.62,1.89-1.09,1.75-1.5,4-3.68,5-1.34.6-2.63,1.35-4,2a7.3,7.3,0,0,1-1.36.32l-1.8.4a7,7,0,0,1-1.25.26,17.54,17.54,0,0,1-2.51-.06,7.78,7.78,0,0,1-2.26-.47,3.32,3.32,0,0,0-4.61,1.69c-1.09,3.08-2.75,5.07-6.38,4.21-1-.24-2-.42-3-.59-1.92-.34-3.83-.66-5.75-1-.27,0-.62.08-.81,0-1.23-.86-2.58-.71-3.94-.57a1.12,1.12,0,0,1-.8-.15c-1.4-1.3-3.12-.64-4.7-.8a.87.87,0,0,0-.58.1c-2,1.49-4.33.64-6.51.83a20.37,20.37,0,0,0-2,.39,5.93,5.93,0,0,1-1.16.22q-15.06,0-30.12,0a7.62,7.62,0,0,1-1.06-.11,22.25,22.25,0,0,0-3-.48,6.2,6.2,0,0,1-3.18-.67,13.52,13.52,0,0,0-3.5-.89c-2.77-.72-5.39-1.61-7.34-4-1.52-1.84-1.79-3-.66-5,.25-.46.47-1.32.25-1.56a4,4,0,0,0-1.89-1C3.25,113,1.16,113,.15,111a3.4,3.4,0,0,1-.1-1.66c0-.3.3-.58.33-.89.23-2.36.41-4.72.66-7.08a14,14,0,0,1,.5-1.76,10,10,0,0,0,.35-2.07c0-1-.14-2,.65-2.83a.53.53,0,0,0,.15-.31c.24-2,.46-4,.69-6,.06-.5,0-1.12.27-1.47.84-1.1.48-2.29.52-3.47a11,11,0,0,1,.49-2.23c0-.19.3-.37.27-.52-.41-2.17.78-4.14.78-6.25a2.23,2.23,0,0,1,.21-1.26,3.86,3.86,0,0,0,.61-2.85C6.44,69.17,6.26,68,7.11,67a1.9,1.9,0,0,0,.16-1.16c-.08-1.18-.4-2.38.59-3.4a1.43,1.43,0,0,0,.14-1,4.65,4.65,0,0,1,.57-2.71c.4-1,.15-2.18.28-3.27.08-.69.37-1.34.48-2s.12-1.4.22-2.1.33-1.59.46-2.39.17-1.54.3-2.31.31-1.5.5-2.24c.07-.27.28-.51.31-.77.23-2.53.43-5.05.65-7.58,0-.35,0-.8.18-1,.9-1,.5-2.27.77-3.37.49-2,.24-4,1.2-5.91.33-.65.11-1.56.22-2.33s.36-1.34.5-2A7,7,0,0,0,15,19.41a6.22,6.22,0,0,1,.69-4.15,5.35,5.35,0,0,1,3.64-2.14c.35,0,.8.13,1.05,0,2-1.33,4.32-.24,6.44-.67.26-.05.59.2.87.33s.49.34.75.37c2.28.29,4.56.54,6.84.8.36,0,.83-.09,1,.1,1.18,1,2.55.74,3.9.7a1.58,1.58,0,0,1,.82.11,5.54,5.54,0,0,0,3.81.58c.45,0,.93.45,1.42.53.7.1,1.61.31,2.09,0a4,4,0,0,0,1-2,23.27,23.27,0,0,1,1.14-3.69,29.71,29.71,0,0,1,2.77-3.7c.1-.13.26-.22.32-.36,1.18-3.28,4.48-3.76,7-5.15C61.46.58,62.79,1,63.9,1ZM6,98.78l.26.09a6,6,0,0,1,0,1.2c-.21,1.05,0,1.79,1.15,2.12,1.5.45,3,1.3,4.5,1.31,2.7,0,5.5.77,8.15-.55.35-.17.86,0,1.29-.06,1.06-.09,2.13-.18,3.19-.32.76-.1,1.52-.31,2.28-.45,2-.37,4.09-.71,6.12-1.12a40.82,40.82,0,0,0,5.17-1.19,10.35,10.35,0,0,1,4.35-.8c.13,0,.27-.16.42-.21.67-.21,1.35-.4,2-.6,1.44-.41,2.84-1,4.4-.75.17,0,.36-.17.55-.22A10.42,10.42,0,0,1,52,96.77c1.36,0,2.72.23,3.93-.67a1.71,1.71,0,0,1,.92-.15q7.38,0,14.76,0a5.35,5.35,0,0,1,1,.2c.95.2,1.89.42,2.84.59a13.37,13.37,0,0,1,1.42.08q2.57.68,5.1,1.46c1,.31,2.06.74,3.11,1,.68.19,1.64.57,2.06.28a3.68,3.68,0,0,0,1.34-2.19,24.27,24.27,0,0,0-.07-3.71,7.93,7.93,0,0,1,.27-1.49,17.9,17.9,0,0,0,.46-2.15c.09-1-.32-2.24.15-2.92.91-1.29.63-2.57.67-3.9a3.42,3.42,0,0,1,.27-1.72,4,4,0,0,0,.61-2.59,29.57,29.57,0,0,1,.26-3.76c.08-.64.55-1.33.41-1.9-.64-2.73,1.32-5.22.65-7.94a.61.61,0,0,1,.18-.43c.85-.88.73-2,.72-3a19,19,0,0,1,.31-2.8,18.54,18.54,0,0,0,.4-1.91c.08-1.64-.46-3.35.73-4.85.23-.29.13-.85.13-1.28,0-1-.36-2.12.06-2.82,1-1.66.5-3.34.58-5a9.44,9.44,0,0,1,.24-1.49,23.08,23.08,0,0,0,.53-2.26c.1-.9-.28-2,.13-2.69A6.67,6.67,0,0,0,97,33.09a2.14,2.14,0,0,0-2.49-2.45,5.35,5.35,0,0,1-2.58-.15,6.23,6.23,0,0,0-3.57-.66,2.14,2.14,0,0,1-1-.14c-2-1.22-4.49-.2-6.51-1.38a.64.64,0,0,0-.36,0c-2.74.49-5.25-1.55-8-.77-.18.05-.42-.21-.65-.27-.79-.18-1.59-.36-2.39-.5-.35-.05-.82.13-1,0-1.36-1-2.86-.77-4.37-.66a4.85,4.85,0,0,1-1.26-.28c-1-.19-1.91-.41-2.87-.55-.43-.07-1,.18-1.29,0-1.28-1-2.73-.64-4.15-.66a4.85,4.85,0,0,1-1-.28,19.38,19.38,0,0,0-2.37-.55c-.9-.12-2,.19-2.69-.21a5.93,5.93,0,0,0-3.33-.61,7.26,7.26,0,0,1-1.53-.18,20.35,20.35,0,0,0-2.75-.49c-1.15,0-2.31.18-3.29-.69a1.21,1.21,0,0,0-.8-.18c-1.44.11-2.86.22-4.15-.68-.27-.19-.77,0-1.17,0s-.81.16-1.05,0C28.44,19.54,26.55,20,24.7,20a6,6,0,0,1-1.15-.27,28,28,0,0,0-3.08-.63c-1-.1-1.28.45-1.24,1.43.07,1.67-1.1,3.19-.7,4.93,0,.11-.2.26-.23.41-.21.78-.43,1.55-.57,2.35s-.1,1.48-.24,2.21S17,31.8,17,32.52c-.27,2.15-.46,4.32-.7,6.48,0,.23-.23.43-.28.65a16.64,16.64,0,0,0-.5,2.49c-.19,2.37-1.26,4.63-.81,7.07,0,.09-.13.2-.16.31a11.55,11.55,0,0,0-.53,2.6c0,2-1.31,3.76-1,5.8,0,0-.05.07-.05.11-.16.8-.35,1.59-.45,2.39s.15,2-.27,2.78a5.44,5.44,0,0,0-.61,3,11.34,11.34,0,0,1-.5,2.23,42.79,42.79,0,0,0-1,5.33c-.1,1.23.2,2.45-.7,3.53-.2.25-.12.76-.12,1.15,0,1,.38,2.18,0,2.94-.74,1.33-.36,2.64-.55,4-.25,1.71-.79,3.38-1.2,5.06a13.08,13.08,0,0,0-.49,2c-.08,1,.12,1.93,0,2.86A34,34,0,0,1,6,98.78ZM4.7,107A1.62,1.62,0,0,0,6,109.17c.94.25,1.91.37,2.87.55l5.6,1c.14,0,.27.18.41.22a9.18,9.18,0,0,0,1,.23l5.24,1c.12,0,.21.14.32.17a11.94,11.94,0,0,0,1.92.47c1.39.15,2.88-.48,4.12.67.14.13.47,0,.7.07.6.12,1.2.27,1.8.41s1,.25,1.49.34.89-.05,1.14.16c.91.77,1.94.55,3,.61,2.06.11,4,1.17,6.11.9.17,0,.35.21.54.25,1.73.38,3.47.73,5.21,1.1.53.11,1.06.24,1.57.39a6,6,0,0,0,1.23.43,24.06,24.06,0,0,1,4.26.62c1.73.4,3.64.43,5.44.87,1.51.37,2.94,1.19,4.59.85.09,0,.21.13.32.15l3,.56,5.4.94c.15,0,.27.2.41.24.63.15,1.26.31,1.9.41.43.07.89,0,1.3.06,1.81.45,3.59,1,5.4,1.41s2.53-.2,2.35-2.07a6.08,6.08,0,0,1,.22-1.62,16.74,16.74,0,0,0,.45-2.39c.05-1.26-.3-2.54.69-3.65a1.43,1.43,0,0,0,.16-1.14c-.71-2.82,1.27-5.37.78-8.16,0-.2.13-.46.26-.65.42-.66.24-1.12-.29-1.68-.81-.84-1.9-.89-2.86-1.31-2.1-.91-4.1-2-6.48-2.06a.47.47,0,0,1-.32-.14c-.78-.86-1.79-.73-2.79-.68-1.23,0-2.46.26-3.56-.6a2.09,2.09,0,0,0-1.17-.16L58.83,98c-1.39,0-2.79-.19-4,.69a2,2,0,0,1-1.28.09c-2.61-.42-5,1.2-7.53,1-.24,0-.49.26-.76.33-1.27.36-2.55.71-3.84,1-.75.19-1.52.3-2.28.46-.38.08-.75.24-1.14.32-.94.21-1.9.39-2.85.59l-1.16.22c-1.84.4-3.68.81-5.52,1.19a8.62,8.62,0,0,1-1.85.31c-1.37,0-2.72-.19-3.95.63a1.32,1.32,0,0,1-.69.15c-3.19,0-6.39.07-9.58,0a12.42,12.42,0,0,1-3.23-.59C6.61,103.6,4.33,104.26,4.7,107ZM97.59,86.94h.25q0-9.82,0-19.66c0-.58.11-1.38-.77-1.29-.26,0-.66.84-.64,1.27.09,1.32.29,2.6-.55,3.8a1.79,1.79,0,0,0-.08,1.28c.65,2.54-1,4.85-.67,7.36,0,.2-.21.42-.27.65a13.13,13.13,0,0,0-.45,2.12c-.11,1.59.5,3.28-.71,4.72a1.19,1.19,0,0,0-.13.92c.73,3.11-1.34,6-.7,9.11,0,.22-.25.49-.33.75a8.12,8.12,0,0,0-.55,2.11c0,1.39.37,2.8-.68,4a.85.85,0,0,0-.11.58c.1,2,.36,3.93-.6,5.94-.59,1.22-.28,2.89-.31,4.36a1,1,0,0,0,.51.68.76.76,0,0,0,.67-.31,5.45,5.45,0,0,0,.8-2.33,5,5,0,0,1,1.07-3.21c.83-1.35,2.24-1.33,3.18,0,.52.73,1,.66,1.29-.11a5.6,5.6,0,0,0,0-1.92c0-.39-.24-.77-.24-1.15Q97.59,96.78,97.59,86.94ZM70.12,15.46a16.18,16.18,0,0,0-.77-5,7.4,7.4,0,0,0-4.49-5.05,1.55,1.55,0,0,0-2,.47q-1.5,2-2.95,4a19.67,19.67,0,0,0-1.5,2.26A25.78,25.78,0,0,0,57,15.45a2.6,2.6,0,0,0-.13,1.76c.18.35,1,.41,1.55.52s1.39.2,2.08.33,1.48.35,2.23.5c.39.07.87-.08,1.17.11,1.55,1,3.27.45,4.91.62.84.09,1.27-.37,1.28-1.2S70.12,16.33,70.12,15.46ZM77.53,10l.36-.15c-.16-.47-.3-.95-.49-1.41a8.6,8.6,0,0,0-4.3-4.31,5.82,5.82,0,0,0-1.6-.3,6,6,0,0,0,.22,1.61c.79,1.7,2.23,3.14,2,5.25,0,.3.31.63.44,1s.49.82.43,1.19c-.26,1.87-.62,3.74-1,5.6,0,.11-.17.2-.18.3,0,.42-.13,1.12,0,1.21.59.3,1.61.73,1.89.48,1.47-1.31,2.77-2.81,2.43-5a2.9,2.9,0,0,1,.54-2.59c.2-.23,0-.86-.1-1.27A15,15,0,0,0,77.53,10Zm-25,5.81c.3.35.76,1,.83,1a3.17,3.17,0,0,0,1.35-1.13,42.55,42.55,0,0,0,1.68-4.54c.1-.31-.17-.74-.26-1.11-.35.18-.84.27-1,.56-.42.71-.69,1.51-1,2.26C53.63,13.76,53.13,14.7,52.56,15.81Z"></path><path d="M37,57.77a16.24,16.24,0,0,1,3.74-8.9c.94-1.07,1.57-2.5,2.67-3.31A29.34,29.34,0,0,1,48.34,43c1.2-.58,2.68-.34,3.75-.77,1.6-.63,2.84-.86,4.27.09a1.43,1.43,0,0,0,.83,0c2.1-.26,3.9.68,5.77,1.38a17.72,17.72,0,0,1,7.7,5.91c.92,1.16,1.16,3,1.4,4.51A10.38,10.38,0,0,0,72.63,57a5,5,0,0,1-.06,4.26,3,3,0,0,0-.42,1c-.27,4.27-3.06,6.82-6.22,9.1a10.47,10.47,0,0,1-3,1.78c-1.59.47-3,1.67-4.87,1.18a.76.76,0,0,0-.58,0c-1.15,1-2.51.63-3.8.61a14,14,0,0,1-2.38-.44,4.13,4.13,0,0,0-.93-.21c-2.84.22-4.91-1.27-6.83-3.07a18.34,18.34,0,0,1-2.43-2.48,24.38,24.38,0,0,1-1.75-3.32,20.08,20.08,0,0,1-.9-2.08C37.86,61.56,36.72,59.88,37,57.77Zm20-3.28h.08a30.82,30.82,0,0,0-.06-4.3,2.85,2.85,0,0,0-1.31-1.78c-.31-.18-1.23.32-1.64.74a13.65,13.65,0,0,0-1.36,2.09C50.83,54.13,48.93,57,47,59.91a1.27,1.27,0,0,0,.39,1.88c.63.49,1,.08,1.52-.39.93-.93,1.29-2.45,2.8-2.78.54-.12,1.27-.37,1.61-.13a4,4,0,0,1,1.2,1.74c.39,1,.52,2.05.95,3,.15.33.86.55,1.32.55a1.24,1.24,0,0,0,.9-.74,5.54,5.54,0,0,0-.18-2.8,5.49,5.49,0,0,1-.56-3C57,56.33,57,55.41,57,54.49ZM61.78,52c-.22-.17-.8-.88-1.05-.78-.78.32-1.76.81-2,1.49s.63,1.13,1.44,1.13C61.23,53.85,61.8,53.36,61.78,52Z"></path><path d="M55.84,55a8.56,8.56,0,0,1-1.67,1c-.18.06-.55-.45-.83-.7a14.39,14.39,0,0,1,1.46-1.25C54.87,54,55.29,54.47,55.84,55Z"></path></svg>