<svg xmlns="http://www.w3.org/2000/svg" id="Layer_1" data-name="Layer 1" viewBox="0 0 112.14 114.15"><title>AsimovMarketingIcon-bt-omar bahaa</title><path d="M0,88.22c0-.52,0-1,0-1.56q.32-4.65.67-9.3c.2-2.55.44-5.09.67-7.62.22-2.35.42-4.7.68-7a76.42,76.42,0,0,0,.65-12.28c1.33-2.56,0-5.42.78-7.93.69-2.35,0-4.75.68-6.88.85-2.63,0-5.3.65-7.75.93-3.25,0-6.55.7-9.64.55-2.27,0-4.58.64-6.64.89-2.73.32-5.42.6-8.11a17.1,17.1,0,0,1,.72-3A.86.86,0,0,1,8.21,0c.91.12,1.81.34,2.71.52a5.82,5.82,0,0,0,.82.13c.44,0,.88,0,1.32,0l9.29.67c2.5.18,4.92.9,7.49.73,1.55-.1,3.14.47,4.72.58s3.45-.43,4.88.12c2.41.93,4.9,0,7.14.66,2.57.79,5.2,0,7.6.71,2.07.59,4.19,0,6,.65,2.27.8,4.59,0,6.65.67,2.5.81,5.07,0,7.37.67,2.71.84,5.45,0,8,.67s5.22,0,7.59.7,4.8.27,7.17.57a16.17,16.17,0,0,1,3.37.78c1,.34,1.23,2,.68,3a3.39,3.39,0,0,0-.42,1.42c0,1.4,0,2.8,0,4.2a8.3,8.3,0,0,1-.53,2.1c-.26.76,0,1.18.76,1.19a15.28,15.28,0,0,1,3.71.07,24.38,24.38,0,0,0,5.69.67c.78,0,1.81,1.57,1.82,2.4,0,1.08.33,2.31-.07,3.21-.73,1.66-.12,3.48-.7,5-1,2.68-.27,5.35-.6,8a9.48,9.48,0,0,1-.44,1.53,6,6,0,0,0-.22.91,6.87,6.87,0,0,0,0,1.2c.34,3.14-.4,6.19-.67,9.28-.24,2.66,0,5.45-.78,7.93s-.25,5-.56,7.39c-.19,1.46-.51,2.91-.66,4.37-.27,2.61-.52,5.22-.67,7.84s-.92,5.08-.74,7.73c.23,3.41-1.09,6.78-.6,10.23-1.12,1.67-.16,3.69-.77,5.29-.86,2.25-.35,4.46-.6,6.67a15.93,15.93,0,0,1-.73,3c-.07.22-.54.45-.83.46-2,0-4.23.49-6.09-.09-2.78-.85-5.62.07-8.2-.67s-5,0-7.26-.65-4.76,0-6.88-.68c-2.82-.94-5.67,0-8.33-.66s-5.38,0-7.83-.72c-2.21-.63-4.42,0-6.42-.62-2.37-.73-4.84,0-7-.7-2.71-.88-5.41,0-8-.63a17.39,17.39,0,0,0-5.93-.56c-2.31.27-4.41-.65-6.65-.75-3-.12-6-.48-9-.61-1.23-.06-2.48,0-3.49-.74a2.75,2.75,0,0,1-1.09-1.64,6.23,6.23,0,0,1,.5-3.44c.46-1,.1-2.36.14-3.56A2.51,2.51,0,0,1,11,96.1c.65-1.17.12-2.36-1.2-2.24-2.6.24-5.07-.63-7.61-.69S.12,93.29,0,91c0-.92,0-1.84,0-2.76ZM3.77,58.6a3.54,3.54,0,0,0-.52,1.11,33.52,33.52,0,0,1-.59,6.68c-.62,2.66.1,5.43-.63,8.23s.15,5.73-.74,8.57a12.79,12.79,0,0,0-.07,3.34c0,1,.18,2.11-.52,3.11-.33.47-.42,1.51.56,1.61a42.64,42.64,0,0,1,5.35.64c2.65.63,5.43-.21,8.22.63,2.38.73,5-.2,7.6.71,1.55.56,3.35.27,5.08.61,3,.58,6.18,0,9.27.77,2.43.56,5-.31,7.51.61,1.72.63,3.75.15,5.68.69,2.26.63,4.69,0,7.13.63,2.66.74,5.59-.12,8.43.72,2.21.66,4.62,0,7,.62,3,.76,6.32.61,9.51.78,1.51.09,3,0,4.55,0a2.54,2.54,0,0,1,1.14.24c1.75,1,3.38.32,3.58-1.68.28-2.8-.24-5.62.61-8.46.65-2.21,0-4.6.61-7,.79-2.9.6-6.07.81-9.13,0-.79,0-1.59,0-2.39a4.18,4.18,0,0,1,.14-.93,17.82,17.82,0,0,0,.52-2c.33-2.52-.41-5.06.58-7.63.69-1.8.53-3.92.76-5.89.21-1.81-.18-3.6.54-5.49.6-1.57.13-3.55.14-5.35a5.36,5.36,0,0,1,.09-1.06c.17-.86.45-1.71.57-2.58.26-1.93.07-3.84.52-5.83.54-2.42.38-5.05.79-7.58a29.09,29.09,0,0,0,0-4.67c0-.24-.07-.57,0-.7,1-1.06.56-2.35.61-3.54s0-2.56,0-3.84a2.06,2.06,0,0,1,.24-1,1.36,1.36,0,0,0-1-2.22,29.64,29.64,0,0,1-4-.58c-2.29-.54-4.71,0-7.12-.7s-5.1.12-7.73-.65c-2.42-.71-5.13.1-7.72-.72-2-.62-4.14,0-6.3-.58-2.68-.67-5.61,0-8.42-.77-2-.53-4.16.18-6.31-.61-1.72-.63-3.74-.16-5.67-.7-2.31-.64-4.78,0-7.26-.65s-5.52.14-8.32-.7c-2.21-.67-4.74.53-7-.74C19,3,15.94,1.84,12.83,1.84h-2.4a2.35,2.35,0,0,0-2.51,2.5C7.73,6.68,8,9,7.41,11.39c-.69,2.91-.07,6.08-.76,9.14-.57,2.46.2,5-.6,7.62-.68,2.22,0,4.71-.71,7.13S5.41,40.36,4.7,43C3.93,45.87,5,49,4,52c-.38,1.1,0,2.45-.06,3.69,0,.35,0,.82-.18,1A1.19,1.19,0,0,0,3.77,58.6Z"></path><path d="M86.13,71.24c-.53,1.84-1,3.7-1.59,5.52a16,16,0,0,1-1.44,3.65c-1.15,1.82-2,3.85-4.27,4.84-1.58.7-2.88,2-4.4,2.85a24.14,24.14,0,0,1-3.94,1.7,10.3,10.3,0,0,1-3,.63c-.77,0-1.58-.68-2.32-.59-2.37.27-4.25-.73-6.2-1.81-1.17-.65-2.64-.83-3.71-1.59A21.23,21.23,0,0,1,51.74,83a10.14,10.14,0,0,1-1.54-2.47c-.47-1-.76-2.07-1.16-3.11-.48-1.25-.41-2.66-.8-3.83a9.44,9.44,0,0,1-.5-3.45,10.4,10.4,0,0,1,.51-2,2.73,2.73,0,0,0,.14-.69,8.44,8.44,0,0,1,1.73-5.29,7.82,7.82,0,0,1,2.75-2.73,11.51,11.51,0,0,0,2.49-2.4c1.41-1.46,3.25-2,5.06-2.78,2.37-1,4.71-.32,7-.56.87-.09,1.76,0,2.64,0a10.26,10.26,0,0,1,5.53,1.6,21.32,21.32,0,0,1,6.69,5.34A18.06,18.06,0,0,1,84.45,65a25.39,25.39,0,0,1,1.21,3.7,15.66,15.66,0,0,1,.23,2.48ZM69.69,68.07,70,68a26.37,26.37,0,0,1-.72-3.26A1.82,1.82,0,0,0,67.89,63a1.72,1.72,0,0,0-2.14,1.1c-.74,1.65-1.39,3.35-2.11,5q-.9,2.11-1.88,4.22a27.37,27.37,0,0,0-1.32,2.73c-.16.49-.06,1.49.2,1.6a2.91,2.91,0,0,0,2.07.08c.5-.22.78-1,1.11-1.53s.31-1,.63-1.31a6.27,6.27,0,0,1,1.33-.72,1.57,1.57,0,0,1,2.56.86c.3.9.45,1.86.71,2.78s.77,1.45,1.7,1.36c.39,0,1-.35,1.07-.61a12.77,12.77,0,0,0-.78-6C70.58,71.08,70.14,69.57,69.69,68.07Zm4.46-1.93c-.36-.39-.76-1.13-1.07-1.09A1.57,1.57,0,0,0,71.7,66.7c0,.84.36,1.11,1.16,1.12C74,67.83,73.94,67.13,74.15,66.14Z"></path><path d="M28.19,12.45c1-.16,1.64-.32,2.32-.36.84-.05,1.68,0,2.52,0a13.84,13.84,0,0,1,8.22,2.2,26.42,26.42,0,0,1,5.92,5.24c1.18,1.43,1.52,3.52,2.41,5.23,1.2,2.28.42,4.68.64,7,.19,2.07-.76,3.86-1.61,5.64a29.21,29.21,0,0,1-2.54,4.45,12.26,12.26,0,0,1-2.63,2.32,27,27,0,0,1-2.55,1.64c-1.63,1-3.27,2-4.94,2.88a2.17,2.17,0,0,1-1,.16c-1.32,0-2.66-.11-4,0a11.09,11.09,0,0,1-6.45-1.42c-1.43-.75-3-1.24-4.43-2a9.38,9.38,0,0,1-3.93-4,34.64,34.64,0,0,1-1.72-3.45c-.42-1.07-.57-2.24-1-3.31-.88-2.28-.59-4.65-.67-7a11.39,11.39,0,0,1,1.68-5.62c1.65-3.19,4.58-5.27,7.1-7.66a5.77,5.77,0,0,1,4.35-1.76,1,1,0,0,0,.78-.21C27.33,11.76,27.86,12.07,28.19,12.45ZM16,30.16a19.25,19.25,0,0,0,0,2.52,9.54,9.54,0,0,0,.7,2.32c.35.82,1,1.54,1.24,2.39.92,2.83,3.21,4.25,5.59,5.54A19.9,19.9,0,0,0,27.2,44.4a17,17,0,0,0,4.92,1.14c1.72,0,3.41-1,5.15-1.11,2-.17,3.41-1.45,4.83-2.46A11.26,11.26,0,0,0,46,37.59a14.69,14.69,0,0,0,1.64-5.86c0-2.13.56-4.34-.6-6.41-.73-1.3-1.14-2.79-1.89-4.08a23.9,23.9,0,0,0-2.29-3,2,2,0,0,0-.49-.29,27.63,27.63,0,0,1-4-2.35,7.73,7.73,0,0,0-5.18-1.73c-1,0-2.08,0-3.12,0a4.17,4.17,0,0,0-1.05.16c-1.24.39-2.47.82-3.72,1.19a22.34,22.34,0,0,0-2.89.8,6.16,6.16,0,0,0-2.29,1.72c-.95,1.31-1.63,2.82-2.45,4.23A16.52,16.52,0,0,0,16,27.77,14.65,14.65,0,0,0,16,30.16Z"></path><path d="M33.86,69.56c-2.33-.19-4.8,0-7-.68-2-.64-3.92-.08-5.69-.65s-3.49-.43-5.22-.67c-.44-.06-.78-.85-1.17-1.3a3.73,3.73,0,0,1,1.32-.46c2.42.17,4.83.41,7.24.66,1.86.2,3.71.54,5.57.65s3.83,0,5.75,0c.24,0,.55-.1.71,0,.51.38,1,.83,1.43,1.25a6.63,6.63,0,0,1-1.43,1.24,3.94,3.94,0,0,1-1.54,0Z"></path><path d="M83.56,32.06c-2.37-.23-4.81-.09-7-.79-1.8-.58-3.62-.08-5.21-.64-1.88-.67-3.72-.49-5.58-.61a1.82,1.82,0,0,1-1-.72c-.51-.61-.3-1.16.48-1.08,1.66.15,3.43-.61,5,.58,0,.05.15,0,.23,0,2.93.23,5.86.5,8.79.67,1.59.09,3.2-.08,4.79,0a5.87,5.87,0,0,1,2.26.84c.21.12.26.75.17,1.09a1,1,0,0,1-.75.54A18.84,18.84,0,0,1,83.56,32.06Z"></path><path d="M14.21,72.16a3.3,3.3,0,0,1,3.73-.77,2.46,2.46,0,0,0,.94.42q6.5.38,13,.68a9,9,0,0,1,2.14,0c.56.17,1,.77,1.47,1.18C35,74.15,34.56,74.82,34,75s-1.25-.22-1.88-.38c-.26-.07-.52-.18-.78-.23a4,4,0,0,0-.6,0c-3.29-.23-6.58-.42-9.87-.69-1.86-.15-3.72-.39-5.57-.68C14.9,72.91,14.57,72.45,14.21,72.16Z"></path><path d="M66.87,33.7c2.33.18,4.66.41,7,.52,3.3.16,6.53,1.09,9.87.71a1.42,1.42,0,0,1,1.06.62,1.32,1.32,0,0,1,0,1.19c-.29.45-.68,1-1.46.51a3.33,3.33,0,0,0-1.5-.49c-4-.24-8-.19-11.88-.78-1.62-.25-3.22-.46-4.85-.61-.24,0-.61-.61-.6-.92a1.14,1.14,0,0,1,.68-.85,6.19,6.19,0,0,1,1.67,0Z"></path><path d="M83.85,41.64a5,5,0,0,1-.95,1c-.2.13-.62-.06-.94-.14s-.81-.41-1.19-.37c-3.07.31-6-.44-9-.7-2.21-.2-4.43-.43-6.64-.7-.22,0-.4-.39-.59-.59.25-.19.51-.54.77-.55,1.44,0,2.88,0,4.32,0,1,0,1.92,0,2.88,0,3.33.2,6.67.41,10,.7.45.05.86.61,1.28,1C83.79,41.29,83.79,41.4,83.85,41.64Z"></path><path d="M14.36,77.3a4.63,4.63,0,0,1,.83-.13c1.84,0,3.68,0,5.51,0,4,.18,8,.42,12,.68a2.12,2.12,0,0,1,1,.55.76.76,0,0,1,.08,1.31c-.42.39-.74,1-1.49.43A4.48,4.48,0,0,0,31,79.74H30.9c-3.77-.23-7.55-.34-11.3-.72a35.53,35.53,0,0,1-5.28-1.34Z"></path><path d="M15.78,61.09h3c1.83,0,3.67-.09,5.5,0a44.55,44.55,0,0,1,4.71.69.75.75,0,0,1,.46.56c0,.19-.28.44-.5.54a1.61,1.61,0,0,1-.7,0c-1.72,0-3.44.08-5.15,0-2.13-.13-4.26-.39-6.38-.68-.38-.05-.7-.5-1.05-.77Z"></path><path d="M71.29,23.48a23.35,23.35,0,0,1,2.51,0c1.61.18,3.22.42,4.82.71.19,0,.48.71.43.75-.44.38-1.23,1.08-1.4,1-1.59-1.12-3.34-.37-5-.57-2.09-.26-4.18-.45-6.26-.72-.22,0-.39-.4-.58-.61.27-.18.52-.51.79-.52,1.56-.05,3.11,0,4.67,0Z"></path><path d="M68.05,70.14,67,71c-.18-.34-.5-.68-.5-1s.37-.55.58-.83Z"></path><path d="M26.69,37.47c-1.37-1.15-1.35-1.5-.73-2.73s1.05-2.65,1.62-4c1.13-2.59,2.28-5.18,3.47-7.74.53-1.13,1.48-1.24,2.08-.2a13.91,13.91,0,0,1,1,2.83c.4,1.31.77,2.63,1.16,3.95,0,.11.14.21.16.32.24,1.65.47,3.3.71,4.95.06.42.18.83.26,1.24s.31.92.15,1.2-.87.82-1.08.72a2.5,2.5,0,0,1-1.15-1.23c-.36-.93-.44-2-.77-2.9C33.13,32.74,32,32.58,30.8,33a3.12,3.12,0,0,0-2.42,2.4C28.22,36.16,27.31,36.76,26.69,37.47Zm5.64-9.1L32,27.53c-.23.3-.46.6-.67.91s-.5.53-.49.79.25.8.49.87.7-.21.89-.47S32.28,29,32.33,28.37Z"></path><path d="M37.71,24.36l1.13,1.06L37.58,26.7c-.21-.28-.61-.57-.59-.82A5.89,5.89,0,0,1,37.71,24.36Z"></path></svg>