<svg xmlns="http://www.w3.org/2000/svg" id="Layer_1" data-name="Layer 1" viewBox="0 0 82.14 78.04"><title>AsimovMarketingIcon-bt-omar bahaa</title><path d="M.06,35.38c0-6.92,0-13.84,0-20.75A23.29,23.29,0,0,1,.66,9.22a10.5,10.5,0,0,1,4-6A14,14,0,0,1,13.16.42C15,.41,16.87,0,18.72,0c3.05,0,6.1.4,9.15.4q22.49.06,45,0c2.54,0,4.81.38,6.47,2.39,1.44,1.75,2.52,3.7,2.24,6.13a2.09,2.09,0,0,0,0,1.06c.81,1.64.45,3.38.45,5.07,0,9.4,0,18.8,0,28.2a102.71,102.71,0,0,1-.5,11.64,12.52,12.52,0,0,1-7.44,10.06,17.27,17.27,0,0,1-5.66,1.25c-5.46.64-10.91.13-16.36.36-1,0-1.4.49-1.34,1.43a8.08,8.08,0,0,0,.14,1.31c1,4.36-2.63,9-7.07,8.75C42,78,40.11,77.6,38.26,77.6s-3.95.44-5.92.4a6.12,6.12,0,0,1-3.06-1.06c-1.34-.88-1.33-2.2-.2-3.35a10.13,10.13,0,0,1,1-.83c.56-.43,1.52-.79,1.59-1.28a18,18,0,0,0-.07-4.28c0-.27-.8-.66-1.23-.66-6.31,0-12.64.27-18.94-.05-2.31-.12-4.85.22-7.08-1.11a8.48,8.48,0,0,1-4.36-8C.09,50,0,42.7,0,35.38ZM40.87,3.63v0c-9.2,0-18.4,0-27.59,0a11.1,11.1,0,0,0-4,.71,8.91,8.91,0,0,0-4.8,4.32,15.21,15.21,0,0,0-1.28,6.9c0,11.44,0,22.87,0,34.31,0,1.73-.45,3.52.5,5.17a1,1,0,0,1,0,.59c-.46,2.3,1,3.77,2.36,5.2a2.66,2.66,0,0,0,1.64.53c2.08.13,4.23-.57,6.24.51a1.27,1.27,0,0,0,.59,0c10.62.27,21.24-.5,31.86.27,5,.37,10.15,0,15.23.11a28.08,28.08,0,0,1,3.49.47,2.26,2.26,0,0,0,.82,0,10.47,10.47,0,0,0,7.32-7,9.25,9.25,0,0,0,.47-3.4c0-2.53-.39-5.06-.39-7.6,0-11.27,0-22.55,0-33.82a9.6,9.6,0,0,0-.24-1.28,8.35,8.35,0,0,1-.25-2.2,2.6,2.6,0,0,0-.81-2.37,5.26,5.26,0,0,0-3.79-1.54ZM40.37,69v0h-2c-.68,0-1.36-.05-2,0-.91,0-2,1.5-2,2.61a1.69,1.69,0,0,0,1.86,1.62c2.63,0,5.26,0,7.89,0a1.46,1.46,0,0,0,1.59-1.56c0-.44,0-.87,0-1.31,0-1-.43-1.45-1.47-1.4C42.92,69.05,41.64,69,40.37,69Z"></path><path d="M37.82,52.76c-8.76,0-17.52.15-26.27-.08a6.2,6.2,0,0,1-6.1-6.23c0-10.28,0-20.56,0-30.84A12.36,12.36,0,0,1,6,11.87c.85-2.63,2.92-3.72,5.68-4.14,2.24-.34,4.54.08,6.63-.45,2.72-.69,5.39-.39,8.08-.5a12.78,12.78,0,0,1,2.43.38,8.55,8.55,0,0,0,1.41.2c9.08,0,18.16-.1,27.24,0a49.1,49.1,0,0,1,8.39.75c2.79.5,4.42,3,4.42,5.86,0,11,0,22.07,0,33.1a5,5,0,0,1-2.57,4.49,8.23,8.23,0,0,1-3.82,1.19c-8.67.11-17.35.06-26,.06Zm8.88-4.23H64.94a2.48,2.48,0,0,0,2.67-2.58c0-5.51,0-11,0-16.55,0-1.07-.42-1.49-1.52-1.46-2.31.06-4.64,0-6.95,0C55,28,50.89,28,46.77,28a2.88,2.88,0,0,1-.83-.3c.14-.31.26-.63.43-.93.76-1.38,2-2.68,2.21-4.15A9,9,0,0,0,47,15.27c-3.87-5-8.53-5.07-13.16-3A9.71,9.71,0,0,0,29.42,17a6.94,6.94,0,0,0-.89,2.43,9.48,9.48,0,0,0,2.15,7.37,1,1,0,0,1,.18.94c-.14.22-.6.3-.93.31-.76,0-1.51-.09-2.27-.09-4.08,0-8.16,0-12.24.06a1,1,0,0,1-1.16-1.18c.06-2.95.15-5.91.13-8.87a5.21,5.21,0,0,0-.62-2.35,1.87,1.87,0,0,0-1.42-.89c-.79.05-1.16.75-1.13,1.58s.06,1.92,0,2.88q0,13.43-.06,26.87c0,1.48.39,2,1.74,2,5.25.23,10.49-.09,15.76.37C34.67,48.92,40.7,48.53,46.7,48.53Z"></path><path d="M37.85,59.81a2.14,2.14,0,0,1-1.79-2.41c0-1.11.79-1.66,2.17-1.63a2.08,2.08,0,0,1,2.05,1.76A3,3,0,0,1,37.85,59.81Z"></path><path d="M39,28a19.71,19.71,0,0,1-3.5-.31A6.94,6.94,0,0,1,30.72,21a18.86,18.86,0,0,1,.34-3.18,5.82,5.82,0,0,1,3.73-4.21c3.26-1.41,7.94-1.17,10.38,2,3,3.87,2.56,9.51-2.69,12.1C41.53,28.22,40.21,28,39,28Zm3-4.3c-1-2.35-1.87-4.65-2.89-6.89-.32-.69-1.27-.44-1.54.38-.68,2.09-1.35,4.18-2,6.3-.11.36.17.83.27,1.24a4.42,4.42,0,0,0,1.26-.65c.35-.35.47-.92.77-1.33.62-.85,1.23-.81,1.77.08a12.77,12.77,0,0,0,.73,1.37,1.07,1.07,0,0,0,.9.32C41.62,24.49,41.77,24.08,42,23.74Zm.65-5.57a5.61,5.61,0,0,0-1.12-.84c-.12,0-.61.48-.59.53a2.83,2.83,0,0,0,.79.86C41.87,18.78,42.21,18.47,42.69,18.17Z"></path><path d="M38.1,36.52c2.52,0,5,0,7.54,0,1.11,0,1.85.51,1.88,1.39s-.71,1.52-1.78,1.52c-4.47,0-8.94,0-13.41,0a3.1,3.1,0,0,1-1.16-.25c-.63-.27-1.7-.47-1.34-1.32a2.6,2.6,0,0,1,1.93-1.22c2-.13,4,0,6,0h.36Z"></path></svg>