<svg xmlns="http://www.w3.org/2000/svg" id="Layer_1" data-name="Layer 1" viewBox="0 0 152.13 171.17"><title>AsimovMarketingIcon-bt-omar bahaa</title><path d="M62.44,0H77.68c.33,0,.82.07,1,.29.67.89,1.55.78,2.49.78C89.55,1,98,1,106.35,1c1.07,0,2.16-.24,2.93.86.15.21.67.2,1,.2,8.48,0,17,0,25.44,0,1.39,1,3.38.63,4.7,1.94a10.35,10.35,0,0,0,1.75,1.1,2.26,2.26,0,0,1,.65.62c.46.66.87,1.37,1.33,2C145,9,146,10.25,146.83,11.55c.15.23,0,.62.08.93s0,.88.15,1c1.21.84.83,2.05.85,3.17,0,2,.06,4.08.05,6.12,0,.29-.06.73-.25.87-1,.67-.76,1.63-.79,2.59a5.88,5.88,0,0,1-.55,1.71c0,.07-.14.1-.16.17-.43,1.49-.86,3-1.27,4.48-.1.34,0,.86-.22,1-1.05.7-.78,1.7-.83,2.69a8.85,8.85,0,0,1-.61,1.77,6.36,6.36,0,0,0-.34,1.8c.05.87.17,1.69-.72,2.23a.2.2,0,0,0-.08.08c-.4,1.62-.89,3.22-1.16,4.86-.13.74,0,1.4-.65,2.05a3,3,0,0,0-.4,1.87,4.22,4.22,0,0,1-.59,2.19,24.69,24.69,0,0,0-1.4,4.39c-.12.4-.07,1-.33,1.19-.86.67-.68,1.51-.72,2.39A9.86,9.86,0,0,1,136.3,63a7,7,0,0,0-.37,1.79,7.32,7.32,0,0,1-.62,2.42A25.33,25.33,0,0,0,134,71.33c-.18,1,.26,2.18-.85,3-.31.24-.18,1.12-.14,1.71.05.79.06,1.52-.69,2-.06,0-.16.13-.15.18.27,1.78-1.48,3-1.25,4.84.08.6-.39,1.26-.56,1.91a7.43,7.43,0,0,0-.37,1.9,4.27,4.27,0,0,1-.65,2.3,13.91,13.91,0,0,0-1.36,4.31,8.82,8.82,0,0,1-.73,2.85A30.57,30.57,0,0,0,126,100c-.27.75-.07,1.6-.81,2.31-.34.33-.25,1.2-.2,1.81a1.9,1.9,0,0,1-.7,2c-.06,0-.16.12-.15.17.12,1.56-1.09,2.7-1.27,4.11a3.05,3.05,0,0,0,1,2c1.52,1.6,1.47,2.9.49,4.84-.56,1.1-1.77,2.12-1.34,3.66a.89.89,0,0,1-.26.75c-.75.61-.63,1.42-.79,2.24a32.62,32.62,0,0,1-1.42,4.06c-.46,1.33-1.78,2.32-1.53,3.94a1.31,1.31,0,0,1-.25.78c-.81,1.39-1.74,2.66-1.82,4.44,0,.95-.9,1.86-1.35,2.81a11.15,11.15,0,0,0-.57,1.59c-.1.34,0,.87-.19,1-1.23.94-.74,2.26-.87,3.43-.1.85.29,1.28,1.17,1.27s1.76,0,2.64,0a1.83,1.83,0,0,0,1-.29,4.83,4.83,0,0,1,5.5,0,2.33,2.33,0,0,0,1.23.32c1.44,0,2.88,0,4.32,0,0,0,.08,0,.11,0,1.38.51,2.81.92,4.12,1.56a24.64,24.64,0,0,1,3,2A2.14,2.14,0,0,1,138,153a6.16,6.16,0,0,0,0,1c0,2,0,1.84,1.9,2.23a22.89,22.89,0,0,1,4.19,1.64c1,.45,2.06,1,3.09,1.44a16.67,16.67,0,0,1,2.73,1.29,5.32,5.32,0,0,1,2,5.86.91.91,0,0,1-.28.52c-1.47,1-2.83,2.28-4.81,2.12a2,2,0,0,0-2.05.65,1.55,1.55,0,0,1-1.07.34l-24.48,0c-.34,0-.84,0-1,.26-.71,1-1.72.87-2.71.87l-42.11,0c-.34,0-.85,0-1-.24-.74-1.07-1.79-.85-2.82-.84q-4.2,0-8.4,0c-.3,0-.76,0-.88-.22-.61-.91-1.46-.78-2.35-.73-1.24.06-2.48,0-3.72,0-.27,0-.65,0-.78-.2-1-1.34-2.45-.83-3.77-.91a7.66,7.66,0,0,1-1.79-.59,4.45,4.45,0,0,0-1.21-.33c-1.47,0-2.92.37-4.27-.89-.52-.49-1.84-.1-2.78-.22a11.13,11.13,0,0,1-1.8-.59s-.05-.08-.08-.09A39.7,39.7,0,0,0,33.18,164a8.05,8.05,0,0,1-2.51-.66A10.77,10.77,0,0,0,27,162.08c-1.58-.09-2.52-1.21-3.89-1.46a4.75,4.75,0,0,1-1.31-.53,5,5,0,0,1-.74-.59c.33-.14.66-.42,1-.41,1.83,0,3.66.15,5.5.2.67,0,1.35-.09,2-.07.38,0,.91,0,1.09.28a2.34,2.34,0,0,0,2.25.77c2.2-.06,4.4-.09,6.6-.12.31,0,.76,0,.91.16,1,1.31,2.44.93,3.76.94.8,0,1.6-.07,2.4-.06.34,0,.86,0,1,.19.67,1,1.64.79,2.59.78q3.24,0,6.48,0c.3,0,.77,0,.89.2.75,1.14,1.86.89,2.92.86s2.16-.06,3.24-.06c.3,0,.75,0,.88.21.72,1,1.71.85,2.71.81s1.76,0,2.64,0,1.26-.25,1.26-1.08S70.69,162,69.93,162c-.52,0-1,.11-1.55.11-.35,0-.86,0-1-.22-.76-1-1.78-.87-2.82-.78-.34,0-.88.07-1-.12-1-1.36-2.44-.84-3.74-.94a10.16,10.16,0,0,1-1.91-.63,6.56,6.56,0,0,0-1.45-.3c-1.34-.09-2.69.35-3.91-.89-.49-.49-1.82-.22-2.77-.19-.74,0-1.4.06-1.93-.64a1.53,1.53,0,0,0-1.07-.35c-1,0-2,.11-3,0a9.45,9.45,0,0,1-1.91-.67,3.89,3.89,0,0,0-1.2-.38c-1.48,0-3,0-4.44,0-.91,0-1.83.24-2.47-.75-.12-.2-.65-.18-1-.18-1.16,0-2.32,0-3.48,0a2.73,2.73,0,0,1-2.59-.87c-.18-.24-.73-.27-1.1-.28-1.76,0-3.52,0-5.28,0-.34,0-.84,0-1-.24-.67-.91-1.58-.75-2.5-.72-1.48,0-3,0-4.44,0-.27,0-.67,0-.8-.13-1.32-1.61-3.11-.92-4.7-.91a2.71,2.71,0,0,1-2.31-.92,38.68,38.68,0,0,1-2.73-2.86C.87,147-.11,145.66,0,143.84c.13-2.07,0-4.16,0-6.24,0-.42,0-1,.3-1.22.87-.69.71-1.58.76-2.5A7.26,7.26,0,0,1,1.72,132c0-.11.24-.2.23-.26-.41-1.64,1.2-2.72,1.16-4.26,0-.38,0-.93.27-1.11a2.29,2.29,0,0,0,.69-2.49,1.7,1.7,0,0,1,.64-1.91.18.18,0,0,0,.09-.08c.43-1.45.85-2.9,1.28-4.34a18.44,18.44,0,0,1,1.36-4.18,3.24,3.24,0,0,0,.61-2.4,3.14,3.14,0,0,1,.6-2,27.09,27.09,0,0,0,1.42-4.5c0-.1-.08-.28,0-.35.91-1.09.79-2.59,1.41-3.71a3.74,3.74,0,0,0,.63-2.4,3.25,3.25,0,0,1,.57-2.06,24.51,24.51,0,0,0,1.43-4.39c.12-.4.05-1,.31-1.19a2.33,2.33,0,0,0,.71-2.4c-.1-.79-.12-1.52.67-2,.06,0,.16-.13.15-.17C15.56,84.08,17,83,17.08,81.44a5.31,5.31,0,0,1,.49-1.38,5.07,5.07,0,0,0,.52-1.6,5.2,5.2,0,0,1,.72-2.85A25.74,25.74,0,0,0,20.05,72c.27-.74.53-1.55.73-2.3.36-1.33.85-2.58,1.32-3.87.17-.45-.08-1,0-1.54a4.64,4.64,0,0,1,.34-1.1c.22-.64.43-1.27.66-1.91l1.59-4.33c0-.07.16-.12.15-.17-.22-1.82,1.66-3.08,1.28-4.94a1.65,1.65,0,0,1,.69-2,.23.23,0,0,0,.08-.09c.41-1.45.81-2.91,1.22-4.36,0,0,0-.09,0-.12a19.77,19.77,0,0,1,1.41-4A3.34,3.34,0,0,0,30.09,39c-.09-.85-.15-1.68.69-2.27A.92.92,0,0,0,31.1,36c-.11-1,.57-1.7.73-2.45.29-1.34,1-2.51,1.21-3.78s-.21-2.45,1-3.36c.17-.13,0-.61.11-.91.14-.54.33-1.06.52-1.58,0-.07.14-.1.16-.17.43-1.45.85-2.9,1.28-4.35.13-.47.28-.94.44-1.4a5.47,5.47,0,0,0,.54-1.49c0-1.06-.22-2.08.82-2.94.36-.29.07-1.29.2-1.94a10.85,10.85,0,0,1,.62-1.79c.07-.18.34-.36.31-.49C38.69,8,39.63,7,40.09,5.88A15.6,15.6,0,0,1,41.6,3c.29-.43.95-.62,1.46-.89,1-.54,2-1.06,3-1.57A2.87,2.87,0,0,1,47.2,0c5.08,0,10.16,0,15.24,0ZM58.53,4.8v0a34.77,34.77,0,0,1-4.79,0,7.33,7.33,0,0,0-7.25,3,23.28,23.28,0,0,0-2.65,4.4c-.5,1-1.19,1.83-.94,3.05,0,.18-.33.42-.44.67a10.6,10.6,0,0,0-.56,1.45,18.82,18.82,0,0,1-1.34,4.31A6.16,6.16,0,0,0,39.85,24c-.26,1.56-.75,3.08-1.16,4.61,0,.1-.2.16-.24.26-.19.49-.38,1-.53,1.47a18.63,18.63,0,0,1-1.37,4.28,4.27,4.27,0,0,0-.67,2.51,7.11,7.11,0,0,1-.5,1.84c-.41,1.47-1.69,2.52-1.56,4.35.11,1.42-.73,2.91-1.16,4.36,0,.07-.13.1-.16.17-.23.55-.73,1.19-.6,1.65.49,1.72-.7,2.89-1.34,4.13A4,4,0,0,0,29.94,56a2,2,0,0,1-.72,2.13c-.28.21-.23.86-.31,1.31-.26,1.45-1,2.75-1.37,4.19A23.06,23.06,0,0,0,26.87,66a41.23,41.23,0,0,1-1.15,4.6c0,.1-.2.16-.23.26C25,72.45,24.4,74,23.9,75.56c-.44,1.36-.81,2.75-1.21,4.12a.23.23,0,0,1-.08.09,1.66,1.66,0,0,0-.69,2c.38,1.82-1.52,3.06-1.21,4.85,0,.1-.25.21-.3.35a15,15,0,0,0-.53,1.46,18.83,18.83,0,0,1-1.34,4.27,5.76,5.76,0,0,0-.68,2.39,47.47,47.47,0,0,1-1.19,4.62c0,.07-.13.11-.15.17-.54,1.56-1.11,3.11-1.59,4.68-.43,1.41-1.23,2.69-1.3,4.21,0,0-.05.06-.08.08-.81.53-.7,1.32-.69,2.15a6,6,0,0,1-.39,1.89,28.34,28.34,0,0,0-1.53,4.43c-.25,1.52-1.52,2.72-1.22,4.35,0,0,0,.07-.08.09-.89.58-.67,1.48-.8,2.34a45.84,45.84,0,0,1-1.15,4.62c0,.07-.13.11-.16.18-.55,1.43-1.11,2.86-1.65,4.29a.88.88,0,0,0,0,.36c.08,1,.27,2.07-.79,2.81-.22.16-.23.66-.25,1a19.86,19.86,0,0,1,0,2,6.7,6.7,0,0,0,2.69,7,3.78,3.78,0,0,0,2.18.94c1.57.12,3.36-.81,4.71.79.13.15.53.09.81.08,2.4,0,4.8,0,7.2-.05,1.05,0,2.07-.13,2.82.86a1.44,1.44,0,0,0,1,.28c2.11,0,4.23-.07,6.35-.09.34,0,.85,0,1,.24.59.87,1.4.73,2.25.7,1.24,0,2.48,0,3.72,0,1,0,2-.06,2.68.91.18.24.72.28,1.1.29,1.72,0,3.44,0,5.16,0,1,0,2.07-.31,2.83.75.13.18.59.18.9.18,2.36,0,4.72,0,7.08-.07,1.12,0,2.22-.19,3,.9.16.21.66.22,1,.22,1.76,0,3.52-.06,5.27-.07.34,0,.86,0,1,.23.58.92,1.42.72,2.26.7s1.92,0,2.87,0c1.27.05,2.67-.38,3.62,1,.13.18.6.17.91.17h8.28c1,0,2-.35,2.71.74.12.18.59.18.9.18.72,0,1.45-.08,2.16,0,2.22.23,3.89-.82,5.41-2.25.49-.47.92-1,1.43-1.45,1.38-1.22.85-3.24,2-4.57,0,0,0-.16,0-.23.41-1.46.83-2.91,1.27-4.35,0-.14.24-.21.33-.34s.35-.41.34-.61a5.51,5.51,0,0,1,1-4.12c.35-.43-.2-1.48,0-2.09.51-1.2.78-2.52,1.3-3.62a10.93,10.93,0,0,0,.78-3.2,21.21,21.21,0,0,1,1.28-4,12,12,0,0,0,.69-2.5,44.22,44.22,0,0,1,1.17-4.49.18.18,0,0,1,.08-.09c.88-.59.8-1.47.77-2.37,0-.53-.06-1.27.25-1.57a2.13,2.13,0,0,0,.66-2.15.9.9,0,0,1,.2-.77c1.08-.78.69-1.9.84-2.94a21.44,21.44,0,0,1,1.4-4.16,5.72,5.72,0,0,0,.65-2.53c0-.49-.06-1.21.23-1.45.88-.71.72-1.58.73-2.5a6.22,6.22,0,0,1,.43-1.75c.16-.54.44-1,.55-1.59.29-1.44,1-2.77,1.39-4.18a7.94,7.94,0,0,0,.66-2.51,5.17,5.17,0,0,1,.28-1.59c.18-.64.71-1.31.6-1.89-.33-1.84,1.61-3.06,1.21-4.87,0-.08.12-.21.21-.27.82-.53.77-1.32.7-2.14,0-.55-.17-1.35.12-1.6,1.06-.93.7-2.06.88-3.17a21.26,21.26,0,0,1,1.32-4,13.49,13.49,0,0,0,.68-2.51c.25-1.52.75-3,1.15-4.51a.23.23,0,0,1,.08-.09c.87-.59.66-1.48.79-2.35a39.55,39.55,0,0,1,1.11-4.51c0-.06.13-.1.16-.17a5.54,5.54,0,0,0,.65-1.79c0-1-.19-2,.84-2.69.18-.12.2-.58.21-.88a12.4,12.4,0,0,1,0-2.28,13.15,13.15,0,0,1,1.3-4.22,4.55,4.55,0,0,0,.68-2.52,6.59,6.59,0,0,1,.37-1.67,11.34,11.34,0,0,0,.63-1.8c.11-.94-.35-2.3.13-2.78,1.32-1.3.75-2.74.86-4.14,0-.39,0-1,.22-1.12,1-.73.82-1.71.79-2.71a4.65,4.65,0,0,1,.34-1.44,9.79,9.79,0,0,0,.59-1.67c.1-.83,0-1.68,0-2.52,0-.54-.08-1.35.23-1.58,1-.8.83-1.81.8-2.84q0-1.32,0-2.64a4.14,4.14,0,0,0-3.88-4,1.31,1.31,0,0,1-1-.33c-.58-.78-1.34-.63-2.15-.7-1.9-.15-4,.82-5.68-.89-.15-.15-.54-.11-.81-.11L100.46,7c-.31,0-.78,0-.91-.15-1-1.35-2.34-.92-3.61-.92q-12.78,0-25.56,0c-1,0-2.07.19-2.8-.87-.14-.2-.66-.2-1-.2C63.89,4.79,61.21,4.8,58.53,4.8Zm56.24,115.55.18,0c-.14.81,0,1.85-.48,2.37a2.62,2.62,0,0,0-.64,2.29c0,.4.45.76.69,1.14a5.14,5.14,0,0,0,.71-1.18c.14-.51-.12-1.3.18-1.58,1.53-1.46.45-3.24.69-4.84,0-.18-.46-.43-.71-.65-.21.25-.54.48-.59.76A9.29,9.29,0,0,0,114.77,120.35ZM120.25,106h0a6.7,6.7,0,0,0,0-1.42c-.07-.27-.42-.48-.65-.72-.25.25-.69.48-.72.75a13.74,13.74,0,0,0,0,2.72c0,.28.49.51.75.77.24-.27.59-.5.68-.8A4.69,4.69,0,0,0,120.25,106Zm-9.49,29h0a6.56,6.56,0,0,0,0,1.54,1.06,1.06,0,0,0,.72.61c.17,0,.59-.36.6-.58a21,21,0,0,0,0-3c0-.24-.47-.44-.72-.65-.21.24-.53.46-.6.75A5.63,5.63,0,0,0,110.76,135Zm15-54.14h.07a10.21,10.21,0,0,0,0,1.66.9.9,0,0,0,.66.53.81.81,0,0,0,.63-.54,19.62,19.62,0,0,0,0-3c0-.23-.47-.43-.73-.64-.2.26-.51.48-.59.77A4.72,4.72,0,0,0,125.8,80.86Zm3-10h0a7.28,7.28,0,0,0,0,1.55,1,1,0,0,0,.67.65,1,1,0,0,0,.68-.63,18.4,18.4,0,0,0,0-3,.93.93,0,0,0-.71-.59c-.24,0-.56.41-.63.69A5.12,5.12,0,0,0,128.79,70.89ZM123.24,96a9.67,9.67,0,0,0-.1-1.57.92.92,0,0,0-.65-.53.82.82,0,0,0-.61.54,19.5,19.5,0,0,0,0,3,1,1,0,0,0,.68.62c.23,0,.58-.37.66-.64A5.64,5.64,0,0,0,123.24,96Zm-4,14.85a7,7,0,0,0-.11-1.37c0-.23-.41-.47-.67-.54s-.53.29-.54.47a24.19,24.19,0,0,0,0,3.07c0,.22.45.51.74.56.14,0,.49-.37.54-.62A7.64,7.64,0,0,0,119.22,110.88Zm-.78,4.18c-.34-.48-.47-.87-.74-1s-.58.12-.78.3a3.83,3.83,0,0,0-1,1.17,1.88,1.88,0,0,0,.06,1.21c0,.16.59.36.66.29C117.26,116.41,117.82,115.75,118.44,115.06Zm2.07-14.72.25.18c0,.19-.07.43,0,.58.2.37.46.71.69,1.06a10.26,10.26,0,0,0,.78-1,.73.73,0,0,0,0-.58c-.22-.57-.49-1.12-.74-1.68Zm15.06-54,.26.15c0,.2-.07.43,0,.59a9.24,9.24,0,0,0,.65,1,12.38,12.38,0,0,0,.78-1,1.07,1.07,0,0,0,0-.59c-.08-.64.18-1.57-.78-1.57C136.19,44.92,135.88,45.87,135.57,46.38Zm-2.82,9.85c0,.44-.09.72,0,.9a7.28,7.28,0,0,0,.79,1c.23-.32.59-.61.66-1a4,4,0,0,0-.06-1.64,1,1,0,0,0-.73-.58c-.17,0-.49.33-.6.57A1.73,1.73,0,0,0,132.75,56.23Zm-8,29.26h0c0,.24-.08.52,0,.71a6.77,6.77,0,0,0,.7.92c.25-.3.62-.56.71-.91a2.56,2.56,0,0,0,0-1.4c-.11-.35-.5-.6-.77-.89a9.22,9.22,0,0,0-.63,1C124.7,85.06,124.77,85.29,124.77,85.49Zm16.5-53.93a4.35,4.35,0,0,0-.15-1.14,1,1,0,0,0-.67-.49.74.74,0,0,0-.55.48,9.31,9.31,0,0,0-.05,2.11c0,.2.42.51.65.51a1,1,0,0,0,.66-.51A2.91,2.91,0,0,0,141.27,31.56Zm-29.5,98.87h0c0,.27-.1.6,0,.81a4.84,4.84,0,0,0,.75.9c.22-.29.58-.55.63-.86a5,5,0,0,0-.08-1.76,1,1,0,0,0-.75-.55c-.15,0-.43.38-.54.63A2.47,2.47,0,0,0,111.77,130.43ZM124.62,91l-1.11-1.15c-.28.36-.81.73-.79,1.06s.51.81.79,1.21Zm14-49.12-1.16-1.09c-.25.4-.69.79-.69,1.18s.49.72.76,1.08Zm2-6-1.18-1.06c-.24.39-.69.79-.68,1.17s.5.72.78,1.08Zm-7,25.06-1.15-1.1c-.25.39-.69.78-.69,1.16s.48.73.75,1.09Zm-2.07,5.63c-.5-.38-.79-.77-1-.75s-.61.4-.71.69.38.62.61.63S131,66.87,131.57,66.58Z"></path><path d="M58,12c2.52,0,5,0,7.56,0,.34,0,.84,0,1,.25.75,1,1.78.87,2.82.86Q78.46,13,87.51,13a1.54,1.54,0,0,1,1.1.32,2.4,2.4,0,0,0,2.24.77q9.48-.08,19-.06a1.19,1.19,0,0,1,.86.28c.67.94,1.6.91,2.58.89,3.79-.06,7.59-.1,11.39-.14.16,0,.37-.06.47,0a4.5,4.5,0,0,0,3.36,1.08c.13,0,.44.62.46,1a13.91,13.91,0,0,1,0,3.59,29.19,29.19,0,0,1-1.53,4.25c0,.14-.3.26-.29.36.3,1.78-1.56,3.05-1.13,4.87a2,2,0,0,1-.63,1.92A2.82,2.82,0,0,0,125,34c0,.83.08,1.6-.73,2.12a.2.2,0,0,0-.08.08c-.42,1.42-.85,2.84-1.24,4.27-.1.36,0,1-.17,1.11-1.11.8-.76,1.89-.8,2.94a4.29,4.29,0,0,1-.56,1.47c-.06.13-.32.25-.3.34.39,1.82-1.55,3-1.22,4.87.11.59-.36,1.28-.57,1.92a33.94,33.94,0,0,0-1.31,4.2c-.2,1.05.31,2.23-.87,3-.18.13-.11.6-.21.9-.2.63-.43,1.26-.67,1.89,0,.14-.3.28-.27.37.6,1.88-1.46,3.12-1.12,5.13.21,1.25-.81,2.78-1.31,4.15a4.34,4.34,0,0,0-.63,2.16c.12.86.16,1.7-.7,2.25a.33.33,0,0,0-.15.18c-.37,1.59-.72,3.18-1.11,4.76-.18.68-.47,1.34-.67,2q-.67,2.2-1.32,4.44c-.11.37,0,.94-.25,1.09-1,.69-.92,1.62-.78,2.58a1.63,1.63,0,0,1-.66,1.89.29.29,0,0,0-.15.18c-.4,1.54-.9,3.07-1.15,4.64-.13.82.09,1.68-.73,2.26-.06,0-.15.13-.14.18.32,1.83-1.62,3.11-1.21,5,.11.5-.34,1.12-.55,1.68,0,.07-.13.12-.15.19a42.08,42.08,0,0,0-1.17,4.51,20.94,20.94,0,0,1-.7,2.51,27.23,27.23,0,0,0-1.4,4.2c-.14,1,.32,2.17-.81,2.94-.14.1-.14.43-.18.67s.08.34,0,.47c-.91,2.2-1,4.82-3.32,6.28a1.71,1.71,0,0,1-.91.18c-1.8,0-3.6,0-5.4,0-.27,0-.69,0-.8-.1-1-1.37-2.38-.76-3.64-.81-.83,0-1.68,0-2.51,0-.35,0-.82-.05-1-.27a2.82,2.82,0,0,0-2.7-.85c-1.84.08-3.68.06-5.52.07-.26,0-.67,0-.77-.21-.66-1.06-1.64-.71-2.58-.7-2.84,0-5.68,0-8.52,0a1.2,1.2,0,0,1-.88-.28c-.73-1-1.76-.89-2.8-.87-2.12,0-4.24,0-6.36,0-.27,0-.7,0-.8-.12-.86-1.27-2.13-.78-3.27-.81-.72,0-1.45,0-2.16,0a2.4,2.4,0,0,1-2.26-.77,1.7,1.7,0,0,0-1.19-.37c-2.76,0-5.52.06-8.28.09-.3,0-.77,0-.89-.18-.71-1.07-1.72-.79-2.71-.76-1.47,0-3,0-4.43,0-.24,0-.58,0-.69-.14-1.33-1.71-3.18-.82-4.8-.91-1.83-.11-2.86-1-2.77-2.88A17.14,17.14,0,0,0,17,117a2,2,0,0,1,.76-2.11.18.18,0,0,0,.08-.09l1.24-4.33s0-.09,0-.12c.52-1.44,1.07-2.87,1.56-4.33a6.33,6.33,0,0,0,.42-2c0-.83-.13-1.61.72-2.12a.43.43,0,0,0,.16-.17c.38-1.63.75-3.25,1.15-4.87.17-.65.41-1.28.62-1.92,0,0,.07,0,.08-.09.43-1.44.86-2.87,1.27-4.32.12-.4.05-1,.31-1.19a2.27,2.27,0,0,0,.73-2.48,1.74,1.74,0,0,1,.68-2,.16.16,0,0,0,.07-.09c.42-1.45.84-2.9,1.24-4.35.1-.37,0-.92.25-1.1.9-.68.7-1.58.76-2.5a7.71,7.71,0,0,1,.63-1.9s.07-.06.08-.09c.43-1.44.86-2.88,1.27-4.32.12-.41.05-1,.3-1.2a2.18,2.18,0,0,0,.69-2.38,1.73,1.73,0,0,1,.64-2c.07,0,.17-.12.16-.17-.29-1.82,1.63-3.08,1.24-4.93a1.57,1.57,0,0,1,.61-1.9.18.18,0,0,0,.09-.08c.43-1.45.87-2.89,1.28-4.34.11-.37,0-1,.19-1.11,1-.73.74-1.73.8-2.71a6.65,6.65,0,0,1,.66-1.78c0-.06.16-.12.16-.17-.15-1.57,1-2.77,1.2-4.23.06-.42,0-1,.25-1.21a2.09,2.09,0,0,0,.73-2.35c-.14-.84.35-1.42.62-2.13.5-1.33,1-2.69,1.39-4,.19-.69.11-1.35.69-2a2.94,2.94,0,0,0,.3-1.91c0-.79-.11-1.52.69-2,.1-.06.24-.2.22-.27-.5-1.84,1.61-3.1,1.09-5-.12-.45.31-1.06.51-1.59.55-1.45,1.88-2.61,1.52-4.42-.1-.48.3-1.07.5-1.6.08-.21.31-.37.38-.59.8-2.21,1-2.35,3.32-2.34s4.48,0,6.72,0ZM69,122.13v0c1.6,0,3.2,0,4.8,0a1.67,1.67,0,0,0,1-.27,11.08,11.08,0,0,0,2-2.06,7.41,7.41,0,0,0,1.34-2.93c.2-1.69,0-3.43,0-5.15a6.88,6.88,0,0,1,.57-1.67,1.9,1.9,0,0,0,.13-.84c-.07-.4-.48-.92-.35-1.13a2.29,2.29,0,0,1,1.22-.89c2.15-.59,3.88,1.14,5.93,1.18.17,0,.31.45.49.48.83.11,2,.51,2.42.12.93-.95,1.89-.84,3-.78a1.78,1.78,0,0,0,1-.15c1.5-1,3.16-1.73,4.31-3.21.87-1.11,2.15-1.87,2.51-3.41a16.3,16.3,0,0,1,1.13-2.3c.58-1.35,1.12-2.73,1.65-4.11.06-.17-.09-.41,0-.59.42-1.41.87-2.82,1.31-4.22,0,0,.07,0,.08-.08a13.51,13.51,0,0,0,.59-1.8c.13-.65-.12-1.56.23-1.93.71-.73.54-1.57.82-2.32a36.29,36.29,0,0,1,1.24-3.61,9.54,9.54,0,0,0,.77-3.09,21.79,21.79,0,0,1,1.31-4.08,5.74,5.74,0,0,0,.64-2.52c-.1-1.62,1.49-2.79,1.2-4.47,0,0,0-.07.08-.09.92-.57.77-1.47.77-2.36a5.2,5.2,0,0,1,.31-1.69c.52-1.49,1.12-3,1.66-4.43.06-.17-.05-.4,0-.6s0-.58.15-.67c1.23-.85.69-2.12.91-3.23a23,23,0,0,1,1.35-4,6.73,6.73,0,0,0,.63-2.52,7,7,0,0,1,.54-1.82c.16-.51.33-1,.45-1.54.31-1.44,1-2.79,1.39-4.18a7.67,7.67,0,0,0,.64-2.52,2.25,2.25,0,0,1,.35-1.53c.63-.63.53-1.32.64-2.06.26-1.61.73-3.18,1.12-4.76a.38.38,0,0,1,.15-.18c.9-.53.81-1.36.75-2.22,0-.54-.14-1.37.15-1.59,1.22-.91.81-2.16.88-3.31,0-.84-.39-1.22-1.25-1.22-6,0-12,0-18,0-.82,0-1.57.09-2.15-.7-.18-.24-.72-.31-1.09-.31q-9.6,0-19.2.11c-1,0-2.07.17-2.81-.89-.15-.22-.73-.21-1.11-.21-4.8,0-9.6,0-14.4,0A3.59,3.59,0,0,1,62,17.44a5.25,5.25,0,0,0-1.58-.59c-2.2-.06-4.4.1-6.59,0A2.53,2.53,0,0,0,51.34,18c-.6.95-.9,2.08-1.48,3s-1.26,2-1,3.23a.51.51,0,0,1-.24.39c-.89.54-.85,1.38-.74,2.23a2.2,2.2,0,0,1-.7,2.27c-.24.19-.19.73-.3,1.1-.39,1.45-.79,2.9-1.19,4.35a.23.23,0,0,1-.08.09c-.87.54-.76,1.37-.72,2.23a3.09,3.09,0,0,1-.34,1.78c-1,1.37-.72,3.15-1.69,4.5-.1.15,0,.47.05.71s.2.73.07.93c-.77,1.12-.78,2.53-1.33,3.59a8.25,8.25,0,0,0-.76,3.09,34,34,0,0,1-1.33,4.08A20,20,0,0,0,38.85,58a44.29,44.29,0,0,1-1.14,4.61c0,.07-.09.13-.15.18-.82.52-.77,1.3-.7,2.13,0,.53.14,1.31-.15,1.59-.8.75-.58,1.72-.89,2.51a24.74,24.74,0,0,1-1.2,3.5,6.08,6.08,0,0,0-.74,3,18.46,18.46,0,0,1-1.38,4.18,8,8,0,0,0-.65,2.61,6,6,0,0,1-.4,1.64c-.16.53-.41,1-.53,1.58-.32,1.43-1,2.77-1.38,4.16a17,17,0,0,0-.7,2.48,46.9,46.9,0,0,1-1.19,4.59.18.18,0,0,1-.08.09,1.66,1.66,0,0,0-.66,1.9c.06.25,0,.68-.13.79-1.25.86-.64,2.15-.91,3.25a22,22,0,0,1-1.36,3.93,6.21,6.21,0,0,0-.67,2.62,6.21,6.21,0,0,1-.41,1.66c-.16.53-.37,1-.52,1.59-.09.34,0,.88-.18,1-1.16.76-.8,1.89-.83,2.93,0,1.61.1,1.78,1.66,1.66,1-.08,2-.19,2.68.82.16.22.65.27,1,.27,3.16,0,6.32,0,9.48,0,1,0,1.89-.21,2.59.75.17.23.74.22,1.13.21,3.08,0,6.16,0,9.23-.07,1,0,1.89-.11,2.6.8.19.24.73.29,1.1.29,2.76,0,5.52,0,8.28-.06.34,0,.83,0,1,.24.61.82,1.42.74,2.27.72C66.26,122.1,67.62,122.13,69,122.13Zm18.61-10.28v.08a13.47,13.47,0,0,1-2.62,0,2.3,2.3,0,0,0-2.75,1.39c-.46,1.27-.82,2.58-1.29,3.86-.24.65-.05,1.43-.78,2-.14.1.06,1,.12,1a8.57,8.57,0,0,0,3.29-.12,17,17,0,0,0,3.35-2.26l.59-.4a28.8,28.8,0,0,0,2.5-1.69,29.8,29.8,0,0,0,2.49-2.41,4.52,4.52,0,0,0,.55-1,4,4,0,0,0-1.14-.39C90.46,111.82,89,111.85,87.59,111.85Z"></path><path d="M47.43,142c-.92,0-1.84,0-2.76,0a2.27,2.27,0,0,1-2.6-2.6c0-1.28.06-2.56,0-3.83a1.69,1.69,0,0,1,1-1.89c1.35-.42,2.32-1.85,4-1.5.3.07.78-.3,1.06-.59.65-.66,1.17-.63,1.83,0a2.15,2.15,0,0,0,1.33.56A2.48,2.48,0,0,1,54,134.82a17.28,17.28,0,0,0,0,2.39,3.92,3.92,0,0,1-1.54,3.86,2.82,2.82,0,0,1-2.4.94,17.75,17.75,0,0,0-2.63,0Z"></path><path d="M57,141.08l-.82-.32a10,10,0,0,0,.57-.95,7.48,7.48,0,0,1,.37-1c.18-.29.5-.71.74-.71a1.34,1.34,0,0,1,1,.58C59.47,140.11,58.87,141,57,141.08Z"></path><path d="M98.94,45.46c0,1.12-.06,2.24,0,3.36.06.92.08,1.75-.77,2.35a.54.54,0,0,0-.24.4c.4,2.36-1.79,3.77-2.11,5.86a.36.36,0,0,1,0,.11c-1.36,1.71-2.49,3.7-4.14,5.06s-4,2.28-6.08,3.38a13,13,0,0,0-2.46,1.36A2.64,2.64,0,0,1,81,68c-1.55,0-3.11,0-4.67,0-1,0-2,.24-2.69-.81a.28.28,0,0,0-.21-.11c-1.42.38-2.39-.72-3.59-1.07a1.13,1.13,0,0,1-.34-.1c-1.71-1.32-3.5-2.55-5.07-4-.69-.65-.84-1.84-1.41-2.67a7.61,7.61,0,0,1-1-5.08c0-.26-.05-.66-.23-.77-1.23-.82-.78-2.07-.86-3.18a1,1,0,0,1,.25-.76c1-.74.71-1.8.86-2.8a13.39,13.39,0,0,1,1.23-3.25,24.24,24.24,0,0,1,1.42-2.54,17.3,17.3,0,0,0,2-3.15c.72-2.08,2.45-3.22,3.88-4.6a5.5,5.5,0,0,1,4.59-1.88,1.92,1.92,0,0,0,1.44-.34A2.6,2.6,0,0,1,79,30c3.19,0,6.4-.16,9.59.06a7.09,7.09,0,0,1,3.5,1.68A28.11,28.11,0,0,1,96,35.66a22.12,22.12,0,0,1,1.94,3.18,11.1,11.1,0,0,1,.66,1.34,3.67,3.67,0,0,1,.39,1.2c0,1.36,0,2.72,0,4.08ZM84.11,49.63h0c0-2.6-.05-5.2,0-7.8a3,3,0,0,0-.89-2.34c-.57-.61-.93-.78-1.47,0-.43.62-1,1.1-1.51,1.7s-.92,1.44-1.45,2.1c-.92,1.16-1,2.86-2.39,3.72-.26.15-.33.6-.5.9l-2.26,3.84c-.25.43-.5.86-.74,1.3A11.54,11.54,0,0,1,71.4,55.8c-1.07,1.08.1,1.34.48,1.87.5.69.88.3,1.32-.17,1.28-1.37,2.6-2.71,3.94-4a2,2,0,0,1,1-.47,2.46,2.46,0,0,1,2.72,2.57c0,.79-.06,1.59-.06,2.39,0,1.46,1.11,1.16,2,1.22s1.29-.36,1.28-1.28C84.09,55.14,84.11,52.38,84.11,49.63Zm4.32-4.35,0-.13H89c.76,0,1.23-.34,1.22-1.14s-.44-1.16-1.22-1.14a8.28,8.28,0,0,0-1.32.05A1.05,1.05,0,0,0,87,44.73,4.54,4.54,0,0,0,88.43,45.28Z"></path><path d="M74.93,87.06c-4.75,0-9.51,0-14.27,0-.45,0-1.1,0-1.32-.33a2.71,2.71,0,0,0-2.57-.85c-3.52.06-7,.07-10.56.07a1.41,1.41,0,0,1-1-.28c-.66-.91-1.55-.84-2.48-.74-.28,0-.64.14-.83,0-.61-.44-1.16-1-1.74-1.46.61-.46,1.18-1.25,1.83-1.31a23,23,0,0,1,5.74,0c1.12.18,2.11,1.3,3.17-.11,0,0,.62.36,1,.52a4.36,4.36,0,0,0,1.56.62c4.44,0,8.88,0,13.32,0,.3,0,.75,0,.88.22.65,1,1.62.84,2.57.84l18.6,0c.72,0,1.43-.1,2.15-.11s1.34.51,1,1.2a2.71,2.71,0,0,1-2.35,1.77c-4.88,0-9.76,0-14.64,0Z"></path><path d="M83.49,98c-2.08,0-4.16,0-6.24,0-.31,0-.77,0-.89-.19-.72-1.11-1.77-.83-2.8-.81-2.44,0-4.88.06-7.32.06a1.37,1.37,0,0,1-1-.32c-.64-.91-1.49-.86-2.45-.81-1.88.09-3.76.08-5.64.1-.23,0-.58,0-.68-.11-1-1.41-2.44-.89-3.74-.84a2.2,2.2,0,0,1-1.91-.7,2.1,2.1,0,0,0-1.39-.46c-3.12,0-6.24.11-9.35,0a3,3,0,0,1-1.83-1.13c-.43-.49.89-1.6,1.9-1.59,2.12,0,4.24.06,6.36.06,1.72,0,3.44-.06,5.16-.08.23,0,.58,0,.68.1,1.14,1.43,2.7.89,4.12.9,1,0,2.07-.21,2.81.84.15.22.65.25,1,.25,1.44,0,2.88-.09,4.32-.1.34,0,.85,0,1,.24.66,1,1.62.85,2.58.83,2.47,0,5-.09,7.43-.09a1.51,1.51,0,0,1,1.08.35,2.37,2.37,0,0,0,2.24.81,77.68,77.68,0,0,1,7.78,0c1.31.11,2.47,1.18,3.93,1.1A.91.91,0,0,1,90,98c-2.16,0-4.31,0-6.47,0Z"></path><path d="M47.34,73c.54.16,1.08.16,1.26.42.66.91,1.55.8,2.47.79q5.28-.06,10.56-.06c.34,0,.83,0,1,.27.67,1,1.61.87,2.58.86,4.52,0,9-.07,13.55-.09.31,0,.74,0,.9.2.83,1,1.93.85,3,.84,2,0,4-.08,6-.09.3,0,.76,0,.89.2,1,1.37,2.37.83,3.64.88.31,0,.73-.19.93-.05a20.32,20.32,0,0,1,1.75,1.47,11,11,0,0,1-1.67.33c-.83,0-1.68,0-2.51,0-1.1,0-2.25.29-3-.89-.13-.19-.58-.22-.89-.22-1.4,0-2.8,0-4.2.05-1.11,0-2.2.18-3.12-.75-.24-.25-.83-.22-1.26-.23q-6.47,0-13,0c-.3,0-.78,0-.89.2-.83,1.34-2.15.73-3.27.88a1,1,0,0,1-.76-.22c-.7-1-1.7-.83-2.7-.81-3.08,0-6.16,0-9.23,0-.35,0-.85,0-1-.23-.78-1.07-1.82-1-2.91-.8-.67.1-1.36.12-1.48-.77s.51-1,1.22-1.05c.28,0,.54-.28.81-.43Z"></path><path d="M80.09,47.67l.78.86c-.29.21-.61.6-.88.58a1.25,1.25,0,0,1-.87-.69c-.09-.3.2-.72.33-1.09Z"></path></svg>