<svg xmlns="http://www.w3.org/2000/svg" id="Layer_1" data-name="Layer 1" viewBox="0 0 95.61 110.89"><title>AsimovMarketingIcon-bt-omar bahaa</title><path d="M40.92,68.22h-5.8a1.43,1.43,0,0,1-.59,0c-2.58-1.31-5.42-.19-8-.78-2.37-.53-4.83.15-7.14-.91-1.1-.5-2.48-.32-3.71-.57A48,48,0,0,1,2.51,61.38a8.6,8.6,0,0,1-2-1.64c-.82-.86-.56-1.88.61-2a5.26,5.26,0,0,1,3,.44c2.46,1.32,4.79,2.89,7.55,3.57,2.23.54,4.49,1,6.73,1.51a5,5,0,0,1,1,.38c1.1.51,1.65.38,2.05-.79.76-2.26,1.38-4.57,2.12-6.84.27-.83.79-1.58,1-2.4.81-2.5,1.53-5,2.33-7.54s1.73-5.23,2.58-7.86c1.18-3.63,2.34-7.27,3.52-10.9,1.48-4.57,3-9.12,4.44-13.69C38.32,10.8,39,7.94,40,5.17A19.58,19.58,0,0,1,42.12,1a2.4,2.4,0,0,1,1.74-1,40.73,40.73,0,0,1,7.07.71C54.5,1.5,58,2.59,61.53,3.62c3,.87,6,1.71,8.87,2.79,3.17,1.19,6.26,2.61,9.34,4A6,6,0,0,1,81.55,12a3.85,3.85,0,0,1,.9,4.52c-1.57,4-2.67,8.27-4,12.41-.72,2.24-1.58,4.44-2.3,6.69-1.05,3.3-2,6.64-3.05,9.95-1,3.06-2.06,6.1-3.08,9.15a18.23,18.23,0,0,0-.8,2.84,1.34,1.34,0,0,0,.67,1.11,4.75,4.75,0,0,0,1.88,0c1.53-.19,3-.45,4.56-.67a1,1,0,0,1,.59.07c.4.26.77.57,1.15.87-.37.24-.71.64-1.11.7-2.39.38-4.8.68-7.2,1a2,2,0,0,0-1.1.38,6.17,6.17,0,0,0-.82,1.33c.45.15.93.47,1.35.41,1.92-.28,3.83-.67,5.74-1a11.42,11.42,0,0,1,1.3-.12,6,6,0,0,0,.84,0c2.7-.69,5.4-1.41,8.1-2.11,1.08-.28,2.19-.46,3.25-.81.37-.11.87-.6.86-.89a1.37,1.37,0,0,0-.83-1c-2.38-.63-4.81-1.1-7.19-1.75a10.19,10.19,0,0,0-4.1-.48c-.25,0-.57-.41-.85-.62.28-.21.58-.62.86-.6,1.78.11,3.56.32,5.34.49.75.08,1.5.17,2.26.19a10.07,10.07,0,0,1,3.85.54c1.16.49,2.59.28,3.83.65A7.13,7.13,0,0,1,95,56.82a1.48,1.48,0,0,1-.28,2.58A17.26,17.26,0,0,1,91,61.06c-3.38.93-6.8,1.69-10.21,2.53-1.37.35-2.72.81-4.11,1.07-1.61.3-3.25.4-4.87.66s-3.31.6-5,.91c-.47.08-.94.14-1.41.23L62.57,67c-.31.06-.62.11-.94.14-1.65.14-3.3.32-5,.39-1.07.06-2.15,0-3.23-.06H50.08a2.29,2.29,0,0,0-.95.05C46.46,68.85,43.61,67.71,40.92,68.22ZM50.41,65c.84,0,1.8.07,2.76,0,2.51-.22,4.78-1.5,5-4.36a6.3,6.3,0,0,1,.35-1.39C59.37,56.65,60.21,54,61,51.4c1.53-4.87,3.05-9.75,4.6-14.62.74-2.34,1.56-4.67,2.33-7,.67-2.06.27-2.86-1.79-3.55-1-.34-2.07-.6-3.07-1-4-1.58-8-3.22-12-4.8-3.48-1.37-7-2.68-10.48-4-.86-.33-1.38-.12-1.57.83a11.05,11.05,0,0,1-.4,1.5c-1.59,4.71-3.23,9.4-4.78,14.12-1.11,3.39-2,6.85-3.15,10.24-2.18,6.56-4.45,13.08-6.62,19.64-.13.42.17,1.37.47,1.47a17.45,17.45,0,0,0,3.83.82c4.14.39,8.29-.53,12.47.54A7.31,7.31,0,0,0,46.71,65a2.16,2.16,0,0,1,1.06-.09C48.61,64.94,49.45,65,50.41,65ZM63.3,63.47h.44a4.45,4.45,0,0,0,.71-1c.52-1.42,1-2.87,1.47-4.3.64-1.8,1.4-3.57,2-5.39.89-2.89,1.61-5.83,2.51-8.72.77-2.46,1.72-4.86,2.53-7.31,1.52-4.56,3-9.15,4.49-13.71.78-2.32,1.7-4.59,2.44-6.93a1.6,1.6,0,0,0-.49-1.45c-.69-.37-1,.24-1.19.89-.61,2.07-1.24,4.13-1.92,6.18-1,2.87-2,5.71-3,8.6-.73,2.25-1.29,4.56-2,6.82-.61,2-1.33,3.91-2,5.87q-2.76,8.28-5.49,16.59A24.19,24.19,0,0,0,63,62.26C62.89,62.62,63.18,63.06,63.3,63.47ZM59.69,18l1.92-1c-.38-.61-.63-1.42-1.17-1.78a7.87,7.87,0,0,0-5.12-1.68,2.2,2.2,0,0,1-1.13-.3,1.27,1.27,0,0,0-1.93.51,1.22,1.22,0,0,0,.68,1.87C55.15,16.48,57.4,17.22,59.69,18Z"></path><path d="M68.39,75c-1.25.21-2.49.46-3.75.61s-1.51.82-1.83,1.87c-.89,3-2.06,5.89-2.89,8.89a45.34,45.34,0,0,1-2.32,6.37,58.2,58.2,0,0,0-2,6.46c-.68,2.13-1.41,4.24-2.15,6.35a2.25,2.25,0,0,1-.61.88c-1.29,1.18-2.61,2.34-3.93,3.49a3.1,3.1,0,0,1-3.92.45c-3.55-1.92-7.28-3.52-10.8-5.49-5.15-2.88-10.2-6-15.28-9-1.1-.65-2.18-1.33-3.26-2-2.47-1.57-3.44-3-2.32-6.35s2.41-6.74,3.6-10.12a18.76,18.76,0,0,0,.88-3.18,1.38,1.38,0,0,0-.73-1C15.1,72.45,13,71.81,11,71c-.49-.18-.85-.7-1.27-1.06.5-.2,1-.63,1.48-.56a27.63,27.63,0,0,1,3.44.9c1.61.46,3.19,1,4.82,1.39,1.87.45,3.77.78,5.65,1.16a1,1,0,0,0,.24,0,25.32,25.32,0,0,1,6.23.64c1.53.41,3.26,0,4.9.11,2.3.09,4.59.37,6.88.39q9.18.08,18.36,0c2.87,0,5.75-.19,8.62-.26.54,0,1.41-.3,1.36.6,0,.33-.89.76-1.42.87a7.27,7.27,0,0,1-1.91-.09ZM47.93,86c1.37,0,2-.47,2.24-1.41.63-2.07,1.27-4.13,2-6.15s.36-2.3-1.61-2.39c-5.23-.24-10.49.67-15.7-.57A49.69,49.69,0,0,0,28.75,75c-1.45-.15-2.88-.46-4.33-.64a5.42,5.42,0,0,0-1.31.17c.25.34.43.85.77,1,2.6,1.2,5.23,2.35,7.86,3.51l13,5.7C45.93,85.22,47.11,85.69,47.93,86ZM49.1,105c.17.19.6.76.69.71a2.29,2.29,0,0,0,1.09-1c.82-2.54,1.55-5.11,2.29-7.67.42-1.41.73-2.86,1.22-4.25.92-2.55,2-5.06,2.9-7.61S59.11,79.76,60,77c.11-.33-.14-.78-.22-1.18a3.85,3.85,0,0,0-1.22.45,1.87,1.87,0,0,0-.41,1c-.42,1.49-.72,3-1.23,4.49-1.79,5.2-3.64,10.38-5.46,15.57-.49,1.42-1,2.86-1.39,4.3C49.71,102.66,49.45,103.69,49.1,105ZM29.58,94c1.63.22,2.63-1,3.8-1.88s1.35-2.36.41-3.84-2.66-2.29-4-1.72c-2.33,1-2.94,3.14-2.73,5.45C27.18,93.49,27.91,94,29.58,94Z"></path><path d="M67.32,77.82a17.49,17.49,0,0,1,2.72.56c.34.13.47.79.7,1.21a3.87,3.87,0,0,1-1.2.57,15.51,15.51,0,0,1-3,.08c-.78-.06-1.77-.25-1.65-1.31s1.07-1,1.89-1l.48,0Z"></path><path d="M11.41,54.64c-1.3.26-2.3-.55-3.29-1.27-.22-.15-.21-.6-.31-.92a2.43,2.43,0,0,1,.87-.1c1.23.33,2.45.69,3.65,1.11a3.83,3.83,0,0,1,.94.74,7.41,7.41,0,0,1-1.08.48A2.71,2.71,0,0,1,11.41,54.64Z"></path><path d="M44.64,37.63c3.65-.24,6.08,1.43,8.17,3.67a7,7,0,0,1,1,2.23c.18.44.2.95.38,1.38a10.76,10.76,0,0,1-.93,10.84,10.66,10.66,0,0,1-9,5.06c-4.15,0-6.59-2.09-8-5.8-.31-.82-.73-1.6-1.09-2.4a3.46,3.46,0,0,1-.37-1c-.38-4.83.5-9.25,4.49-12.49A7.15,7.15,0,0,1,44.64,37.63ZM47,51.86c-.14-.5-.21-.72-.26-1-.38-1.77-.79-3.53-1.14-5.31-.19-1-.24-2-.46-3a1,1,0,0,0-.77-.6,1.54,1.54,0,0,0-.94.58c-.19.22-.17.6-.29.9-.89,2.24-1.81,4.48-2.65,6.74-.18.47-.26,1.35,0,1.53.67.49,1.28.07,1.61-.64s.58-1.76,1.67-1.55,1.09,1.23,1.13,2.12c0,.08,0,.19,0,.23.35.32.74.91,1,.86S46.66,52.12,47,51.86Zm1.53-7.28c-.48-.43-.77-.89-1.11-.93s-.57.48-.86.75a6.28,6.28,0,0,0,1,1C47.62,45.43,48,45,48.49,44.58Z"></path></svg>