<svg xmlns="http://www.w3.org/2000/svg" id="Layer_1" data-name="Layer 1" viewBox="0 0 98.16 74.67"><title>AsimovMarketingIcon-bt-omar bahaa</title><path d="M.09,32.73V11.62c0-1-.3-2.22.18-2.9S2,8,2.9,7.78C4.44,7.47,6,7.29,7.57,7.06c1.85-.28,3.69-.55,5.54-.81,2.78-.39,5.58-.74,8.35-1.18,2.47-.4,4.93-.91,7.39-1.35,1.41-.24,2.82-.45,4.23-.64,2.52-.33,5-.58,7.55-1,1.6-.23,3.16-.66,4.75-.93C46.82,1,48.28.81,49.73.61a2,2,0,0,0,.82-.13c1.48-.93,2.74-.39,3.93.57s2.57,2,3.74,3.18a2.59,2.59,0,0,1,.62,1.7c0,3.72-.08,7.43-.13,11.15,0,1.05.85,1.7,2.1,1.85,1.92.22,3.83.56,5.74.84l4.48.64c2,.3,4,.61,6.08.89,2.62.37,5.26.64,7.87,1.08,1.24.21,2.4.82,3.74.5.17,0,.75.7.75,1.07,0,8.2,0,16.39,0,24.59a11.47,11.47,0,0,0,.19,1.29c.12.89.21,1.79.33,2.68a9.49,9.49,0,0,0,.29,1.86,1.12,1.12,0,0,0,.85.65c.28,0,.66-.41.79-.73.78-1.86,1.17-2,3.11-1.49a14.7,14.7,0,0,0,1.75.37A1.53,1.53,0,0,1,97.9,55.5a8.1,8.1,0,0,1-2.31,2.17,32.33,32.33,0,0,1-11.75,4.26,21.53,21.53,0,0,1-5.57.5C74.17,62,70.1,61.2,67.4,57.51c-.81-1.1-4.34-2-5.57-1.37a1.5,1.5,0,0,0-.61,1.12c-.08,1.92-.1,3.84-.07,5.75a2.71,2.71,0,0,0,.45,1.31c.07.11.72.05.86-.12.37-.47.5-1.39.91-1.51a4.71,4.71,0,0,1,2.58,0c1.2.36,2.43.85,2.88,2.28a1.84,1.84,0,0,0,.79.85c.86.55.9,1.1.18,1.82A19.7,19.7,0,0,1,61,72.94a6.9,6.9,0,0,1-4.24.09,3.5,3.5,0,0,0-1.54-.15,6.28,6.28,0,0,1-4-1.06,3.91,3.91,0,0,0-1.79-.52,51.43,51.43,0,0,1-5.27,0c-2.9-.37-5.92-.25-8.55-1.91-1.31-.82-2.78-1.39-4.08-2.22a2.22,2.22,0,0,1-.75-1.57c-.07-1.92,0-3.84,0-5.75,0-1.23-.39-1.55-1.62-1.5a13.76,13.76,0,0,1-5.1-.34,7.21,7.21,0,0,0-3,0c-2.08.24-4.15.55-6.22.85s-4,.52-6,.9a9.25,9.25,0,0,1-8.44-2.6A2,2,0,0,1,0,55.89c0-7.72,0-15.44,0-23.16ZM39.5,41.9l-.08-.37a3.18,3.18,0,0,0-.91-.13c-1.21.13-2.42.31-3.62.49-1.88.27-3.76.53-5.64.82-1,.15-2,.35-3.05.52-1.67.28-3.34.57-5,.82s-3.63.38-5.41.75-2.42-.16-2.36-1.9c0-1.16.08-2.32.08-3.48,0-7.48-.06-15,0-22.43a1.36,1.36,0,0,1,.79-1.06c2.29-.39,4.61-.65,6.92-1,1.44-.2,2.88-.43,4.31-.67,1.83-.3,3.65-.63,5.48-.94.15,0,.32,0,.48,0,1.61-.15,3.23-.26,4.83-.49,2.07-.29,4.12-.67,6.18-1a2.51,2.51,0,0,1,.72,0,2.2,2.2,0,0,1,1.62,3.17,4.33,4.33,0,0,0-.47,1.7c0,6.59,0,13.19.15,19.79,0,1.66.06,3.2-1.49,4.26,0,0,0,.22,0,.31s.14.18.2.18l6.77-.43a9.31,9.31,0,0,1,1.9-.05c1.68.24,3.34.62,5,.85,1.46.21,3.88,2,4,3.26.19,2.49.34,5,.39,7.49,0,1.93.71,2.66,2.68,2.6a7.56,7.56,0,0,1,2,.11,18.15,18.15,0,0,0,6.82.93,5,5,0,0,1,1.28.24c.93.14,1.86.29,2.79.4.44,0,.88,0,1.31.06,1.52.26,3,.61,4.55.84,1.34.2,1.75-.36,1.69-1.72A36.24,36.24,0,0,1,84.58,52c0-.31.11-.63.11-.94q0-10.2,0-20.4a28.71,28.71,0,0,0-.1-3.35c0-.42-.45-1.07-.79-1.14-2.21-.43-4.44-.8-6.67-1.06-1.69-.2-3.4-.21-5.1-.33-.35,0-.69-.19-1.05-.25-.81-.15-1.63-.28-2.44-.4s-1.64-.21-2.46-.33c-1.4-.21-2.8-.48-4.2-.65-1.81-.2-3.62-.31-5.43-.5-1.34-.15-2.67-.38-4-.55a1,1,0,0,0-1.22,1.09c0,.84,0,1.68,0,2.52,0,3.92,0,7.84.12,11.75,0,.8,0,1.48-1,1.58s-1.39-.54-1.36-1.57c0-1.47.13-2.95.13-4.43,0-3.64,0-7.28,0-10.92,0-1.79.55-2.5,2.32-2.85,1.37-.27,2.72-.63,4.1-.86a1.62,1.62,0,0,0,1.52-1.7c0-3.28,0-6.56,0-9.84a1.52,1.52,0,0,0-1.87-1.66c-1.77.19-3.53.55-5.3.81-1,.15-2,.21-3.05.36C45,6.68,43,7,41.12,7.31c-1.41.21-2.83.37-4.24.59-1.87.28-3.74.6-5.61.9-1.6.27-3.19.55-4.79.8s-3.29.52-4.93.72-3.1.21-4.62.46c-2.73.45-5.43,1.08-8.16,1.53-2.48.4-2.49.34-2.45,2.82v.48q-.06,20.1-.13,40.2c0,1.18.45,1.8,1.59,1.79a36.28,36.28,0,0,0,4-.33c1.54-.17,3.06-.46,4.6-.6,2.41-.24,4.82-.39,7.23-.59.15,0,.3-.09.46-.11,1.75-.26,3.5-.57,5.27-.74,1-.09,1.49-.41,1.48-1.44,0-2,0-4-.06-6A3.47,3.47,0,0,1,33.34,44c1.71-.58,3.43-1.09,5.14-1.64C38.83,42.2,39.16,42,39.5,41.9ZM56.36,67.19a9.79,9.79,0,0,1,.28-1.89,4.26,4.26,0,0,0-1.36-4.66c-1.22-1-2.59-.64-3.92-.62-2.56,0-3.32-.8-2.9-3.34.07-.39.26-.75.34-1.14.26-1.29.55-2.57.74-3.87.13-.89-.33-1.35-1.27-1.26A30.34,30.34,0,0,1,34.61,49c-.68-.25-1.56-.16-1.57.73,0,1.27-.8,2.88,1.08,3.64.2.08.36.45.4.7a37.21,37.21,0,0,1,.54,3.75c.1,1.58-.33,3.2.5,4.7a.9.9,0,0,1,.07.7c-.15.37-.36.91-.65,1s-.77-.26-1.06-.53a3.79,3.79,0,0,1-.58-1A3.28,3.28,0,0,0,34,67,17.54,17.54,0,0,0,44,69.52c3.34,0,6.68-.24,10-.44.5,0,1-.49,1.48-.68a2,2,0,0,1,1.17-.22c1.69.62,2.95-.15,3-2,0-3.79,0-7.59,0-11.38,0-1.52,0-3-.07-4.55,0-1.13-.51-1.5-1.48-1.25-1.83.5-3.67,1-5.53,1.4a1.68,1.68,0,0,0-1.45,1.48c-.36,1.63-.76,3.24-1.16,4.86a1.27,1.27,0,0,0,1.24,1.74c.76.05,1.52,0,2.28,0,1.61,0,3.75,1.27,4.17,2.54.28.87.52,1.76.74,2.65A4,4,0,0,1,56.36,67.19Zm2.75-20.92a2,2,0,0,0-1.71-2.05c-2.41-.53-4.85-1-7.3-1.31a19.62,19.62,0,0,0-3.82.11,58,58,0,0,0-5.9.53A39.31,39.31,0,0,0,35.24,45c-.4.12-.71.53-1.07.81.3.33.54.77.91,1a20.14,20.14,0,0,0,11.44,2.34,28.62,28.62,0,0,0,4.23-.54c1.67-.36,3.29-.79,5-.28C57.25,48.73,59.1,47.56,59.11,46.27ZM4.53,34.33H4.45c0-3.08,0-6.16,0-9.24,0-3.48,0-7,0-10.44,0-.66.08-1.48-.92-1.5s-1.2.66-1.29,1.43a5.77,5.77,0,0,0,0,.72q0,19.2,0,38.4A3.48,3.48,0,0,0,2.44,55a1,1,0,0,0,1.79.16,2.71,2.71,0,0,0,.29-1.26Q4.54,44.11,4.53,34.33Zm9-26.19,0-.19c-2.3.39-4.62.75-6.9,1.22-.41.09-.72.64-1.08,1,.47.18,1,.56,1.4.52,1.3-.13,2.58-.43,3.87-.64s2.6-.33,3.88-.56,2.72-.6,4.09-.82c2.12-.33,4.25-.56,6.38-.86,1.49-.21,3-.48,4.47-.69,1.78-.25,3.56-.42,5.33-.69,2.66-.41,5.31-.93,8-1.3,2.91-.42,5.83-.72,8.74-1.1A4.42,4.42,0,0,0,53,3.56c.26-.12.65-.48.61-.61a1.3,1.3,0,0,0-.66-.74,2.24,2.24,0,0,0-1.15,0c-1.76.29-3.5.65-5.25.93-1.57.25-3.14.41-4.71.64-1.88.28-3.74.6-5.62.89L27.45,5.92l-4.82.75-4.81.79ZM88.14,26.93l.26-.18-1-1.23a8.22,8.22,0,0,0-1.22,1.21c-.17.25,0,.7,0,1.06,0,3.87.06,7.75,0,11.63-.08,2.73.21,5.46-.35,8.22-.42,2-.14,4.21-.18,6.33,0,.67-.21,1.55.77,1.57a1.43,1.43,0,0,0,1.48-1.45c0-.68,0-1.36,0-2,.14-4.69-.24-9.38.3-14.1C88.47,34.32,88.14,30.61,88.14,26.93ZM33.68,40.17l0,.18c1.88-.35,3.75-.71,5.62-1,.7-.12,1.36-.28,1.16-1.15s-.88-.55-1.47-.44c-1.56.3-3.12.6-4.7.84-1.91.29-3.84.49-5.75.79-2.31.37-4.6.83-6.91,1.18-1.6.24-3.23.32-4.84.56-.66.1-1.68.16-1.54,1.13s1.11.66,1.76.56c2-.3,4.06-.68,6.1-1,1.72-.27,3.45-.47,5.17-.74S31.88,40.47,33.68,40.17Zm-2.17-8.25a6.22,6.22,0,0,0-.13-.77c-.85-2.45-1.67-4.9-2.59-7.33a1.75,1.75,0,0,0-1.1-1.05c-.33,0-.92.58-1.07,1-.89,2.6-1.71,5.22-2.49,7.85-.09.32.1,1,.34,1.08a1.24,1.24,0,0,0,1.13-.28c.37-.44.46-1.11.82-1.56s.93-1.14,1.4-1.13,1,.7,1.34,1.19.32,1,.64,1.38a1.37,1.37,0,0,0,1.13.37C31.19,32.63,31.37,32.13,31.51,31.92Zm8.29-3.73h-.12c0,1.91,0,3.83,0,5.74,0,.63,0,1.29.83,1.32s1-.59.94-1.24c0-3.51-.07-7-.09-10.53,0-.48.08-.95.1-1.43.1-2,.2-4,.26-6.06a1.39,1.39,0,0,0-.42-1,1.41,1.41,0,0,0-1.06-.27c-.2.06-.42.56-.42.86C39.79,19.81,39.8,24,39.8,28.19ZM31.14,23.1c-.36.65-.76,1.06-.68,1.31s.59.69.91,1c.28-.33.81-.67.78-1S31.64,23.74,31.14,23.1Z"></path><path d="M70.18,71.59a2.73,2.73,0,0,1-.53.58c-1.22.83-2.44,1.68-3.73,2.4-.37.21-1,0-1.47,0,.19-.49.24-1.17.6-1.44a32.93,32.93,0,0,1,3.35-2.09C69.26,70.55,70.13,70.77,70.18,71.59Z"></path><path d="M55.84,36.31c-.7-3.77,3.61-7.81,7.3-8.15A10.66,10.66,0,0,1,70,30.4a10,10,0,0,1,4.34,6.54c.73,3.92-.76,7-4.21,9.12a12.59,12.59,0,0,0-1.23.75c-1.66,1.27-3.35.59-5,.06-.29-.09-.56-.77-.51-1.14s.61-.48,1-.64c.14-.06.38.07.57.14,2.93,1.05,6.46-.86,7.77-3.8,1.8-4-1.13-8.41-3.91-10.34s-5.36-1.56-8.13-.71c-1.8.56-2.54,2.23-2.92,3.85a21.78,21.78,0,0,0-.11,4.13,9.48,9.48,0,0,1-.21,1.28c-.44-.25-1.17-.41-1.28-.76A12.8,12.8,0,0,1,55.84,36.31Z"></path><path d="M64.8,33.42a5.8,5.8,0,0,1,.87,1.07c.78,1.93,1.55,3.85,2.24,5.8.11.29-.23.74-.36,1.11a4,4,0,0,1-1-.59c-.2-.2-.14-.63-.29-.89s-.49-.84-.81-.9-.72.32-1.09.52c0,0,0,.06-.07.09-.48.44-.64,1.54-1.57,1-.2-.12.12-1.19.28-1.8.32-1.23.67-2.45,1.05-3.65A18.86,18.86,0,0,1,64.8,33.42Z"></path><path d="M36.5,55.61l1.39-1.31c.26.33.75.69.72,1a4.84,4.84,0,0,1-.7,1.45Z"></path></svg>