<svg xmlns="http://www.w3.org/2000/svg" id="Layer_1" data-name="Layer 1" viewBox="0 0 126.48 131.73"><title>AsimovMarketingIcon-bt-omar bahaa</title><path d="M45.35,18c0-4,0-8.07,0-12.11a1.89,1.89,0,0,1,1-1.39c2.81-1.09,5.66-2,8.5-3,1-.36,2-.77,3-1.15a3.86,3.86,0,0,1,3.44.14A6.06,6.06,0,0,0,63,.92c.23,0,.55-.08.7,0,1.26.92,2.68.47,4,.64A39.41,39.41,0,0,1,73.06,3s.07,0,.1,0L78.7,4c.61.1,1.21.24,1.81.39.22.06.41.3.63.33,2,.24,4.12.34,6.14.71a32.93,32.93,0,0,1,4,1.31c.44.15.9.23,1.35.34l1.59.39c.15,0,.27.19.42.21a25.69,25.69,0,0,1,4.44.91c1.58.63,3.27.47,4.77,1,2.09.7,2.07.91,1.77,2.64a17.15,17.15,0,0,0,0,2.87q0,35.88,0,71.75c0,.56-.08,1.12-.07,1.68.05,1.46.91,1.82,2.26,1.46,1.57-.42,3.25-.75,4.84.19a2.81,2.81,0,0,0,1.34.42c2,0,4.1-.25,6.11,0A10.67,10.67,0,0,1,126,92.69c.79.66.64,3.15-.12,4a8.29,8.29,0,0,1-4.79,2.9c-2.29.47-4.44,1.69-6.74,2.07-1.58.26-3.11.76-4.67.93a5.23,5.23,0,0,0-2.82.61,2,2,0,0,1-1.17.14,8.82,8.82,0,0,0-4.31.58c-1,.43-2.28,0-3.43.14a15.16,15.16,0,0,0-2.36.61,4.44,4.44,0,0,1-1.12.33c-1.88,0-3.76,0-5.64-.07s-2.22.47-1.61,2.14c.3.82.67,1.62.92,2.46a2.06,2.06,0,0,1,0,1.38c-.82,1.48-1.79,2.84-3.58,3.27-1.13.27-2.16,1-3.44.68-.16,0-.72.59-.7.88a2.36,2.36,0,0,1-1.48,2.41,13.78,13.78,0,0,1-4.15,1.16c-1,.12-2.07-.16-3,.58a.17.17,0,0,1-.1.06c-1.94.33-3.88.65-5.82,1-.91.17-1.81.4-2.71.58a6.86,6.86,0,0,1-1.27.14c-1.36,0-2.71,0-4.07,0-.83,0-1.2.39-1.24,1.25-.07,1.45-.83,1.89-2.24,2a23.4,23.4,0,0,0-3.86,1c-.41.12-.82.27-1.24.39-.69.2-1.39.39-2.09.57-.3.08-.61.11-.92.19l-2.09.53a4.41,4.41,0,0,1-1.37.22A8.44,8.44,0,0,0,36,129.68,6.51,6.51,0,0,1,31.59,131a11,11,0,0,0-4.67.52c-1.32.5-3.07-.13-4.63-.26-1.33-.1-2.67-.16-4-.33-.8-.09-1.57-.4-2.36-.54a6.84,6.84,0,0,0-2.1-.2,5.39,5.39,0,0,1-4-1.39c-.91-.63-.78-3.27.12-4.19.59-.6,1.29-1.09,1.87-1.69a3.18,3.18,0,0,0,.42-1,5.9,5.9,0,0,1-1-.27,16.11,16.11,0,0,1-2.27-1.34c-.16-.12.09-.76.13-1.16s.28-1.15.07-1.54-.88-.31-1.35-.43-1.12-.27-1.68-.42-.89-.26-1.34-.4a28,28,0,0,1-2.89-1c-.27-.12-.47-.74-.44-1.11.08-.83,1.93-2.24,2.78-2.34a2.75,2.75,0,0,0,1.4-.47c.53-.43.49-.85-.2-1.29-1.5-1-2.92-2-4.36-3.08-1.91-1.39-1.45-4.8,1-5.77A1.7,1.7,0,0,0,3.38,99.4c0-3.79,0-7.59,0-11.39,0-5.88,0-11.76,0-17.64,0-.31,0-.74-.14-.92-1.11-1.14-.79-2.52-.79-3.86,0-9.36,0-18.72,0-28.08,0-1.33.32-2.67-.42-4-.37-.67,1.32-2,2.33-2.1s2.06-.36,3.09-.55L11.93,30c.12,0,.27,0,.35,0,1.31-1,2.79-.73,4.26-.7a1,1,0,0,0,.68-.18c1.39-1.21,3.08-.49,4.61-.76a.61.61,0,0,1,.46.1c1.83,1.4,3.91.72,5.9.77a2.51,2.51,0,0,1,1.28.18c1.35.94,2.83.6,4.3.64.8,0,1.6.31,2.41.41,1.17.13,2.35.18,3.53.31.52.06,1,.3,1.56.36a25.64,25.64,0,0,0,3.6.26c.22,0,.59-.8.6-1.24,0-4,0-8.08,0-12.12Zm57.47,36.39h.1q0-20.4,0-40.79c0-1.46-.85-2.15-2.31-2.27-1.63-.14-3.23-.51-4.84-.8-.15,0-.27-.19-.42-.23a8.82,8.82,0,0,0-2.27-.5c-1.06,0-2,.2-2.93-.62A1.64,1.64,0,0,0,89,9c-2,.25-3.75-.93-5.65-1.27a4.9,4.9,0,0,0-1.25-.29c-1.28.13-2.53.3-3.65-.6a1.55,1.55,0,0,0-.93-.12c-1.26,0-2.55.4-3.63-.66C73.71,5.93,73.28,6,73,6s-.84.12-1-.06c-1.51-1.44-3.86,0-5.31-1.58-1.44.41-2.67-.34-4-.63-2.48-.54-2.93,0-2.94,2.56q0,20.52-.06,41A2.36,2.36,0,0,0,62.19,50c2.08,0,4.15,0,6.23-.07,3.64,0,7.28.06,10.92-.1a3.37,3.37,0,0,1,3.08,1.66c.68.94.33,1.91-.11,2.93A3.71,3.71,0,0,0,82.12,57a5.8,5.8,0,0,1,0,5.36,1.7,1.7,0,0,0-.21.8c0,1.87.07,3.75.09,5.63,0,.35.1.85-.09,1-1,1.06-.67,2.37-.77,3.62-.15,2.09.72,4.32-.79,6.24-.11.13-.06.39-.06.59,0,2.08,0,4.15.09,6.23,0,1.27.31,2.56-.72,3.62a1,1,0,0,0-.13.57c0,2.36-.07,4.72,0,7.07.06,1.6,1.47,2.21,2.86,1.43A3.7,3.7,0,0,1,83.86,99c1.13-.11,2.26-.13,3.39-.27.68-.09,1.37-.56,2-.48,3.27.4,6.33-1.46,9.61-.81.2,0,.43-.19.66-.26a9.9,9.9,0,0,1,1.91-.48c1.1-.09,1.51-.45,1.47-1.56,0-.64-.1-1.28-.1-1.91ZM16.1,87.7h-.16c0,1.12,0,2.24,0,3.36a3,3,0,0,0,3.22,3.28,4.94,4.94,0,0,1,1.37.32,8,8,0,0,0,1.91.52c3,0,5.92,0,8.88,0,1.29,0,2.64.29,3.77-.71.2-.17.62-.13.93-.13l6.84.11c.35,0,.83.06,1-.14,1.11-1,2.44-.77,3.74-.74.36,0,.82.06,1-.13,1-.85,2.16-.6,3.31-.53,1.58.1,3.49-1.56,3.49-3,0-6.76-.06-13.52-.06-20.28a7.9,7.9,0,0,1,.31-2.1,2,2,0,0,0-1.89-2.6c-4.64,0-9.28.15-13.91,0-2-.08-4.06,1.51-6.08,0,0,0-.08,0-.12,0-2.48,0-5,0-7.44,0a4.32,4.32,0,0,0-3.06.71,1.65,1.65,0,0,1-1,.19c-2.19,0-4.39-.08-6.58-.14-.86,0-1.33.41-1.26,1.23a12.24,12.24,0,0,0,.52,2,4.32,4.32,0,0,1,.35,1.11c0,3.28,0,6.55,0,9.83,0,1.19-.25,2.39.7,3.39.18.19.14.61.14.93C16.11,85.38,16.1,86.54,16.1,87.7ZM52.88,56.05v-.11c2.36,0,4.72-.11,7.07,0,3.13.17,6.31-.57,9.37.54a3.65,3.65,0,0,1,.83.6,3.13,3.13,0,0,1-1,.4c-.8,0-1.59-.13-2.39-.13-4.8,0-9.6,0-14.4,0-1.42,0-2.87-.33-4.12.71-.17.14-.54.06-.82,0L45.15,58a1.38,1.38,0,0,0-1.6.94c-.13.32-.54.77-.8.76a20,20,0,0,1-4.1-.46c-.82-.21-1.26-.17-1.7.51a2,2,0,0,0,1.76,3.15c5.28.07,10.55.13,15.83,0,3,0,4.28,1.58,3.21,4.34-.19.51-.18.78.45.94a36.47,36.47,0,0,1,4.1,1.23,3.62,3.62,0,0,1,1.63,1.16c1.15,1.65,2.59,3.26,1.93,5.57-.06.22.08.49,0,.72a8.44,8.44,0,0,1-.55,2.38c-1.29,2.45-3.56,3.52-6.13,4.14a2.05,2.05,0,0,0-1,.69,5.47,5.47,0,0,0-1,3.59c0,.88,0,1.54.83,2.06s1.53.83,2.39.1a1.48,1.48,0,0,1,.9-.23q6.82,0,13.66,0c2,0,2.58-.77,2.61-2.82,0-2.37-.83-4.86.69-7.1a1,1,0,0,0,.07-.59c0-1.84-.08-3.68-.09-5.52a2.2,2.2,0,0,1,.2-1.25,4.6,4.6,0,0,0,.7-3.2c0-1.44-.36-3,.1-4.27a10.94,10.94,0,0,0,.53-3.84c0-1.92,0-3.84,0-5.76s-.72-2.59-2.61-2.58l-34.9.16c-.95,0-1.91-.13-2.87-.15a2.24,2.24,0,0,0-2.22,2.07c.07,1.38,1.08,1.24,2,1.23ZM20.71,50.61h-.15c0,3.64,0,7.27,0,10.91,0,1,.4,1.5,1.41,1.5,3.56,0,7.12,0,10.67-.06a1.57,1.57,0,0,0,1.17-.89c.4-1.22.59-2.51.89-3.77a2.59,2.59,0,0,1,.4-.86,2.48,2.48,0,0,0-.09-3.2,2.06,2.06,0,0,1-.16-2.56c.66-.9,1.35-2,2.74-1.79a2.2,2.2,0,0,0,2-.73,50.93,50.93,0,0,1,4.87-3.8,1.81,1.81,0,0,0,1-1.75c0-2.8,0-5.6,0-8.4,0-1.36-.27-1.68-1.67-1.67-1.07,0-2.32.33-3.18-.09a9,9,0,0,0-4.2-.58,7.18,7.18,0,0,1-1.7-.32,15,15,0,0,0-2-.54c-2.21-.25-4.55.65-6.64-.73a.67.67,0,0,0-.35-.07c-1.56,0-3.13-.08-4.67,0-.44,0-1.21.69-1.17,1,.23,2.17-.81,4.46.63,6.53a2.41,2.41,0,0,1,.17,1.28C20.72,43.58,20.71,47.09,20.71,50.61ZM7,80.53h-.2q0,9.66,0,19.31c0,1.35,1.06,2.93,2.05,3,1.28,0,2.56,0,3.84,0,1.06,0,1.46-.59,1.39-1.64s0-2.16-.1-3.23c-.13-1.74.57-3.61-.74-5.19-.11-.12-.06-.39,0-.59,0-2.43,0-4.87.07-7.31,0-1.18.24-2.39-.7-3.4-.22-.24-.17-.77-.17-1.16,0-2.52,0-5,0-7.55a2.53,2.53,0,0,1,.47-1.41,1.19,1.19,0,0,0-.2-1.86,3.51,3.51,0,0,1-1.07-1.25c-.68-2,1.28-5,3.4-5.33a2.08,2.08,0,0,0,2.06-2.42c-.07-1.51.38-3.12-.79-4.47a1.52,1.52,0,0,1-.13-.92c0-1.4.1-2.8.11-4.2,0-6,0-12,.06-18,0-1-.3-1.85-1.46-1.67-1.81.26-3.59.7-5.38,1.09a13.83,13.83,0,0,1-2,.52c-1.07,0-1.51.47-1.5,1.53,0,7.52,0,15,0,22.55,0,1.21-.11,2.39.76,3.41a1.71,1.71,0,0,1,.22,1Q7,70.94,7,80.53Zm9.7,21.25h.07v4.08c0,1.26,1.2,3.66,2.07,3.66,2,0,3.8.8,5.66.93,4.33.29,8.71.1,13.06.08a2.89,2.89,0,0,0,1.28-.24c2.16-1.1,4.62-.54,6.84-1.31.07,0,.16,0,.24,0,1.46,0,2.94.28,4.31-.59a3,3,0,0,1,1.4-.23,3.51,3.51,0,0,0,3-3.19c0-2.07-.11-4.15-.12-6.23a3.52,3.52,0,0,1,.27-1.13c.16-.53.65-1.31.47-1.52a3.1,3.1,0,0,0-1.89-1.2c-1.63,0-3.37-.5-4.88.66a1.72,1.72,0,0,1-1,.13,4.59,4.59,0,0,0-3.55.61,1.42,1.42,0,0,1-.81.13c-1.28,0-2.56-.14-3.83-.06-.93.06-1.82.49-2.75.55-1.41.09-2.75,1-4.27.31a1.76,1.76,0,0,0-1.49.3c-.61.53-1,.61-1.63,0A1.87,1.87,0,0,0,28,97.1c-2.23,0-4.48.05-6.71,0a6.1,6.1,0,0,1-2.33-.57c-1.21-.55-2.2,0-2.19,1.31Zm37.9,13.82h0c0-1.44,0-2.88,0-4.32,0-1.24-.77-1.8-1.7-1.57a31.06,31.06,0,0,1-5.66,1.3,32.68,32.68,0,0,0-4.54.93,18.34,18.34,0,0,1-3.46.55,17,17,0,0,0-2.86.62,4.66,4.66,0,0,1-1,.2c-2.63,0-5.27,0-7.91,0a5.61,5.61,0,0,1-1.23-.33,8.47,8.47,0,0,0-1.81-.47c-1.46,0-3,.26-4.3-.64a2.1,2.1,0,0,0-1.05-.13c-1.36,0-1.57.26-1.54,1.63,0,1.76,0,3.52,0,5.28,0,.39-.08.91.13,1.16a4,4,0,0,1,.62,3.07,2.22,2.22,0,0,0,2.16,2.26c1.88,0,3.76,0,5.64-.07a6.2,6.2,0,0,1,1,.09,20.31,20.31,0,0,0,2.86.55c2,.1,4,0,6,.06,1.3,0,2.64.32,3.8-.62a1.22,1.22,0,0,1,.7-.08,12.91,12.91,0,0,0,5.49-.55c2.06-.75,4-2,6.42-1.84a.91.91,0,0,0,.52-.27c1.06-.94,2-1.88,1.74-3.55A18.31,18.31,0,0,1,54.64,115.6ZM57,26.75h0V9.49c0-1.44.05-2.88,0-4.31a2.06,2.06,0,0,0-.5-1.36c-.2-.18-.84.11-1.26.25-1.21.38-2.41.79-3.62,1.19-2.07.68-3.51,1.56-3.48,3.19.09,4.79,0,9.59,0,14.38,0,.35,0,.82.17,1,1,1.15.78,2.51.77,3.86,0,6.91,0,13.82-.06,20.73,0,1.2.37,1.56,1.58,1.55,1.52,0,3,0,4.55,0S57,49.68,57,48.21ZM76.83,97.84h0c0-1.72,0-3.44,0-5.16,0-1.23-.29-1.58-1.55-1.54a10.27,10.27,0,0,0-1.62.31,13.51,13.51,0,0,1-2.06.37c-1.46,0-3-.35-4.17.91-.69.75-1.32,1.15-2.12.09a1.24,1.24,0,0,0-1-.31c-1.45.11-2.9.3-4.36.42-.37,0-.76-.15-1.14-.15a14.56,14.56,0,0,0-1.47.12c.1.58,0,1.43.36,1.68.94.69.57,1.2.13,1.9A3.28,3.28,0,0,0,57.33,98c-.07,2.11,0,4.23-.07,6.35,0,1,.37,1.38,1.38,1.52,4.24.57,8.36-.75,12.56-.72a.56.56,0,0,0,.34-.09c1.13-.94,2.46-.73,3.78-.71s1.51-.31,1.51-1.59C76.82,101.12,76.83,99.48,76.83,97.84Zm.69,13.55h0c0-.44,0-.88,0-1.32s0-1,0-1.44a2,2,0,0,0-2.18-2.27c-1.78.16-3.54.58-5.31.9-.11,0-.19.16-.3.18a20.18,20.18,0,0,1-2,.47,23.46,23.46,0,0,0-3.38.37c-1.85.53-3.62.87-5.42-.15a1.66,1.66,0,0,0-1.3-.12c-.25.12-.26.74-.35,1.14-.15.67-.26,1.34-.4,2a6.38,6.38,0,0,0-.32,1.25c0,1.39,0,2.79,0,4.19A2.2,2.2,0,0,0,58.87,119c1.36,0,2.72,0,4.08,0a5.24,5.24,0,0,0,1.15-.24c.84-.18,1.67-.38,2.51-.54.38-.07.92.07,1.15-.14a3.62,3.62,0,0,1,3-.66c.27,0,.65,0,.81-.13,1-1,2.29-.69,3.51-.65A2.22,2.22,0,0,0,77.65,114C77.6,113.15,77.56,112.27,77.52,111.39Zm-19.37-36c-.38,1.84,1,2.6,2,3.58.19.18.67.07,1,.1a3.23,3.23,0,0,0,0-1c-.4-1.33-.84-2.65-1.31-3.95a1.83,1.83,0,0,0-.59-.87,1.25,1.25,0,0,0-.93-.27c-.18,0-.35.51-.36.79A13.23,13.23,0,0,0,58.15,75.37Zm2.87-3c-.33.53-.62.82-.67,1.15,0,.13.48.53.68.49a1,1,0,0,0,.6-.68C61.66,73.14,61.33,72.87,61,72.41Z"></path><path d="M63.68,25.27c0-4.91,0-9.83.06-14.75a3.13,3.13,0,0,1,1.24-2c.29-.23,1.1.19,1.67.34.18,0,.33.26.51.29,2,.28,4,.53,6,.81a16,16,0,0,1,2,.4c.3.08.6.45.85.4,1.89-.34,3.61.49,5.43.66.2,0,.45,0,.58.06,1.29,1,2.76.9,4.25.76.15,0,.37,0,.46.07,1.22,1.11,2.68.78,4.1.73a2.75,2.75,0,0,1,1,.29c.26.09.48.33.75.37a48.59,48.59,0,0,0,4.93.78c1.05.09,1.4.52,1.4,1.49q-.06,9.89-.1,19.78c0,.52,0,1.05,0,1.56.14,2.17-1,3.29-3.26,3.25q-6.47-.09-13-.13a1.15,1.15,0,0,0-.7.1c-1.21,1-2.65.68-4,.68l-12.83,0c-.79,0-1.42-.09-1.42-1.15,0-5,0-9.91,0-14.87Zm27.69,1.25c0-1.07.3-2.16-.05-2.95a9.82,9.82,0,0,0-7.16-6.05,10.28,10.28,0,0,0-9,2.69,2.41,2.41,0,0,0-.66.84c-.63,1.65-1.22,3.31-1.79,5a1.12,1.12,0,0,0,0,.7C73.08,27.84,73.49,29,74,30c1,2.21,2.91,3.34,4.93,4.51a7.67,7.67,0,0,0,8.31-.43C89.72,32.5,92.25,30.18,91.37,26.52Z"></path><path d="M36.36,89.44c-2.09.68-3.69-.92-5.48-1.78-.48-.23-.75-1-1-1.55-.52-1.15-1.38-2.34-1.35-3.5.06-2.32.61-4.79,2.82-6s4.51-2,7.23-1a9.36,9.36,0,0,1,3.57,2.16,7.1,7.1,0,0,1,1,6.93c-.19.36-.39.7-.57,1.06C41.33,88.24,39.57,89.88,36.36,89.44Zm.33-9,.26-.12a2.45,2.45,0,0,0,0-.94,1.31,1.31,0,0,0-.74-.65.87.87,0,0,0-.74.4c-.69,1.65-1.38,3.29-1.92,5-.14.43.27,1,.43,1.57a5.1,5.1,0,0,0,1.32-1c.75-1,.82-1,1.66,0,.26.3.86.3,1.3.44a4,4,0,0,0,.25-1.27c-.06-.35-.48-.63-.66-1C37.42,82.1,37.07,81.29,36.69,80.48Z"></path><path d="M47.31,71.3a4.16,4.16,0,0,1-1.21-.22c-2.18-1.26-4.62-.89-6.79-.55-1.61.25-3,.65-4.57,0a2.38,2.38,0,0,0-2.58.48,2.22,2.22,0,0,1-1.37.27c-2.64,0-5.27,0-7.91,0-.88,0-1.24.25-1.54,1.21a7.6,7.6,0,0,1-2,2.54c-.12.13-.86,0-1-.26s-.37-1-.18-1.25c.91-1.16.64-1.83-.67-2.34-.23-.1-.52-.71-.44-.82a1.52,1.52,0,0,1,1-.64c3.83,0,7.65.08,11.48.1,2.15,0,4.4.32,6.44-.2,2.95-.75,5.86-.3,8.79-.48a12.58,12.58,0,0,1,2,.34c.81.07,1.63,0,2.44.11a4.51,4.51,0,0,1,1.09.41,4.32,4.32,0,0,1-.84.6C48.68,70.84,47.93,71.07,47.31,71.3Z"></path><path d="M72.56,59.83l2.84-.13c.64,0,1.34.09,1.23.88,0,.3-.78.66-1.23.71a11.82,11.82,0,0,1-2.85,0c-.44-.06-.82-.49-1.23-.76l1-1Z"></path><path d="M49,59.33a7.86,7.86,0,0,1,1.34-.24c.2,0,.4.27.6.42-.2.15-.4.42-.6.43a8.72,8.72,0,0,1-1.33-.2Z"></path><path d="M68.25,99.4c-.42-.69-.8-1.05-.79-1.39s.53-.84.71-.8a1.36,1.36,0,0,1,.91.8C69.13,98.31,68.69,98.7,68.25,99.4Z"></path><path d="M60,97.26,61,96c.16.2.49.5.45.58a11.7,11.7,0,0,1-.88,1.12Z"></path><path d="M79.42,28.92c.77-2,1.52-4,2.33-6a.88.88,0,0,1,.74-.42,1.18,1.18,0,0,1,.74.64c.76,2,1.49,4.06,2.15,6.11a4.4,4.4,0,0,1,0,1.4,5.61,5.61,0,0,1-1.28-.7c-.33-.32-.44-.86-.76-1.2a1.65,1.65,0,0,0-1-.6c-.29,0-.6.42-.85.69s-.09.43-.22.55c-.36.31-.76.57-1.15.85Z"></path></svg>