<svg xmlns="http://www.w3.org/2000/svg" id="Layer_1" data-name="Layer 1" viewBox="0 0 94.66 90.24"><title>AsimovMarketingIcon-bt-omar bahaa</title><path d="M23,77.27c-4,0-8,.23-12-.07-3.65-.27-7.22-1.11-9.58-4.47A8.31,8.31,0,0,1,.06,68c-.14-6,0-11.92,0-17.87,0-11.52.1-23,0-34.56A15.24,15.24,0,0,1,3.41,5.87,12.35,12.35,0,0,1,11.25,1.1,55.39,55.39,0,0,1,22.31,0C41.87.08,61.43,0,81,0a17.77,17.77,0,0,1,9.09,2.24,4.6,4.6,0,0,1,1.73,2.06,29.74,29.74,0,0,1,1.64,4.79c1.47,6.14-.08,12.43.74,18.55.57,4.28.19,8.51.47,12.75a10.43,10.43,0,0,1-.35,2.32,6.8,6.8,0,0,0-.23,1.16c0,4.28.07,8.56.1,12.84a1.93,1.93,0,0,1-.09.94c-1.06,1.71-.64,3.59-.55,5.38a10.59,10.59,0,0,1-1,4.75,13.14,13.14,0,0,1-6.46,6.93A14.17,14.17,0,0,1,79,76.6a1.38,1.38,0,0,0-.71.09c-1.46.84-3,.48-4.57.48-4.44,0-8.88,0-13.32,0-1.43,0-1.77.32-1.6,1.81a11.34,11.34,0,0,1-2.36,8.88,7,7,0,0,1-5.86,2.4c-4.76,0-9.52,0-14.28,0A3.8,3.8,0,0,1,32.89,88a3,3,0,0,1,1.55-3.76,7.17,7.17,0,0,1,1-.48A1.59,1.59,0,0,0,36.47,82c0-1.23.07-2.46.13-3.69s-.65-1.22-1.49-1.22H23ZM47.11,4.36v.08c-8.52,0-17-.05-25.55,0-3.13,0-6.25-.37-9.39.5-3.43,1-5.9,2.72-7.33,6.06-.77,1.8-.57,3.61-.58,5.42,0,15.87,0,31.75,0,47.62A7.48,7.48,0,0,0,5.41,68.7c1.1,1.55,2.24,2.83,4.47,2.55,1.63-.2,3.35-.48,4.92.43a1.51,1.51,0,0,0,.71,0c9.32,0,18.64-.2,28,0,5.73.1,11.44-.31,17.19.44,4.19.54,8.51.07,12.78.07.43,0,1-.12,1.28.1,1,.76,1.82.46,2.71-.18a15,15,0,0,1,1.38-.72,11.12,11.12,0,0,0,5.78-9.73c.17-4.8-.28-9.61-.4-14.4-.28-10.55-.06-21.11-.05-31.67a1.58,1.58,0,0,0-.1-.82c-1.17-1.85-.67-3.88-.61-5.85A4.51,4.51,0,0,0,79,4.35ZM46.66,80v0c-1.16,0-2.32.07-3.47,0-1.63-.11-2.74.17-3.33,2s-.19,2.86,1.89,2.85c2.67,0,5.35,0,8,0,1.91,0,2.41-.45,2.5-2.32a7.69,7.69,0,0,1,.16-.94c.24-1.19,0-1.56-1.22-1.58C49.69,80,48.17,80,46.66,80Z"></path><path d="M44.38,60.75c-10.16,0-20.32.11-30.48,0a7.71,7.71,0,0,1-7.66-7.83c-.06-12.11,0-24.23,0-36.35A7.35,7.35,0,0,1,11.84,9.2a4.71,4.71,0,0,1,1.19,0c.44,0,1,.17,1.31,0,2.3-1.14,4.72-.37,7.08-.55a13.55,13.55,0,0,0,1.85-.39c.07,0,.14-.1.21-.1,3.09,0,6.17.07,9.26.15.62,0,1.23.35,1.85.35,9.64,0,19.28-.07,28.92,0,3.28,0,6.56.59,9.83.52a6.79,6.79,0,0,1,6,2.66A8.24,8.24,0,0,1,81,16.24c.12,11.44.06,22.88,0,34.32,0,1.77.24,3.54-.49,5.3-.92,2.21-2.67,3.52-4.5,4.8a1.56,1.56,0,0,1-.82.12H44.38ZM44.68,14v.06H19.73c-2.94,0-3-.38-3,2.94.05,12.24,0,24.48,0,36.71,0,1.43.6,2.06,2,2.06H35.42c1.29,0,1.58-.29,1.56-1.54l-.15-15.59a1.57,1.57,0,0,1,1.66-1.75c6.44,0,12.87.09,19.31.11,2.72,0,5.44,0,8.15,0,2-.07,3.17.91,3.15,2.9Q69,47.42,68.94,55c0,1.23.35,1.49,1.53,1.08a4.22,4.22,0,0,1,1.15-.29c.85,0,1.09-.52,1.06-1.27s-.06-1.76-.06-2.64q0-18.12,0-36.23c0-1.34-.26-1.61-1.48-1.61Zm8.19,41.77c3.84,0,7.67,0,11.51,0,2,0,2.7-1.24,1.84-3a3.59,3.59,0,0,1-.34-1.47c0-3.2.09-6.4.12-9.6a1.87,1.87,0,0,0-2.14-2.12l-21.35,0a15.71,15.71,0,0,0-1.68,0c-1.22.15-1.57.92-1.06,2a4.2,4.2,0,0,1,.37,1.59c0,3,0,6.08,0,9.11A5.57,5.57,0,0,1,40,53.74c-.47,1.63-.2,2,1.45,2Z"></path><path d="M43.85,64.82c1.58,0,2.51.67,2.56,1.84a2.89,2.89,0,0,1-2.95,2.66,2.52,2.52,0,0,1-2.07-2.6C41.37,65.52,42.29,64.81,43.85,64.82Z"></path><path d="M44,31.45H65c.88,0,1.76-.16,2.63-.09.52,0,1.33.32,1.43.65a2.09,2.09,0,0,1-.36,1.79,3.55,3.55,0,0,1-2.16.79c-14.27,0-28.54-.06-42.82-.1-.48,0-.95.07-1.43.09a1.78,1.78,0,0,1-2-2.18,1.12,1.12,0,0,1,1.29-1.08c7.48,0,15,0,22.43,0Z"></path><path d="M53.48,28.35c-7,0-14,0-21,0-.43,0-1.15-.42-1.22-.75A1.93,1.93,0,0,1,31.7,26a2.23,2.23,0,0,1,1.45-.35l20,0c1.05,0,2,.63,1.92,1.52S54.35,28.42,53.48,28.35Z"></path><path d="M26.5,48.16c-1.59,0-3.18,0-4.78,0-1,0-1.52-.42-1.5-1.4s.62-1.3,1.6-1.28c3.18,0,6.37,0,9.55,0,.93,0,1.45.35,1.53,1.27a1.31,1.31,0,0,1-1.5,1.44l-2.5-.09c-.8,0-1.6,0-2.4,0Z"></path><path d="M32.92,37.79a1.4,1.4,0,0,1-1.59,1.39c-3.07,0-6.14,0-9.2-.16A2.65,2.65,0,0,1,20.35,38c-.51-.77.13-1.57,1.08-1.57h10A1.32,1.32,0,0,1,32.92,37.79Z"></path><path d="M25.92,50c1.83,0,3.67,0,5.5,0,1,0,1.43.54,1.43,1.48a1.17,1.17,0,0,1-1.43,1.33c-2.48-.21-5-.47-7.44-.62a11.7,11.7,0,0,0-2.07.37c-.44.06-1.22.14-1.28,0a3.33,3.33,0,0,1-.2-1.79c.07-.3.68-.66,1.06-.68,1.48-.08,3,0,4.43,0Z"></path><path d="M44.57,18.71c.06.23.19.67.31,1.13a8.09,8.09,0,0,1,.4,1.84,1.53,1.53,0,0,1-.57,1.15c-.18.12-.86-.17-1.06-.45-.53-.73-.95-.8-1.64-.19-.24.22-.76.13-1.15.18a3.54,3.54,0,0,1-.07-1.2c.35-1.06.84-2.06,1.19-3.11.26-.8.33-1.82,1.48-1.63S44.76,17.47,44.57,18.71Z"></path><path d="M24.53,43.6c-1,0-1.9,0-2.85,0-.74,0-1.41-.12-1.44-1A1.42,1.42,0,0,1,21.53,41a14.18,14.18,0,0,1,3.19,0A1.37,1.37,0,0,1,26,42.67c-.12.48-.83.81-1.27,1.2Z"></path><path d="M49.06,18.05c-.52.34-.92.75-1.08.67a1.74,1.74,0,0,1-.82-.93c0-.15.54-.75.68-.7A5,5,0,0,1,49.06,18.05Z"></path></svg>