<svg xmlns="http://www.w3.org/2000/svg" id="Layer_1" data-name="Layer 1" viewBox="0 0 99.4 96.46"><title>AsimovMarketingIcon-bt-omar bahaa</title><path d="M64.65,96.43c-2.71.22-5.16-.88-7.7-1.52-4.63-1.17-9.24-2.45-13.86-3.72-2.8-.77-5.58-1.62-8.39-2.4-1.8-.5-3.64-.89-5.44-1.39-2.27-.62-4.52-1.32-6.79-1.94-3.19-.88-6.42-1.63-9.59-2.6a13.29,13.29,0,0,1-8.91-9,18.5,18.5,0,0,1-.43-3,4,4,0,0,0-.46-1.2c-.94-1.76-2-3.48-2.84-5.26A4.25,4.25,0,0,1,0,62.65a27,27,0,0,1,0-3.6,27.6,27.6,0,0,1,.81-4.3c.63-2.34,1.43-4.64,2.09-7C4.18,43.51,5.29,39.22,6.49,35c1.72-6.14,3.51-12.27,5.25-18.4.66-2.35,1.1-4.77,1.95-7a15.57,15.57,0,0,1,2.81-5.1A10.8,10.8,0,0,1,22.86.64C24.5.4,26.16.22,27.81,0a2.47,2.47,0,0,1,.94,0c3.35.9,6.7,1.83,10,2.73,3.65,1,7.32,1.94,11,3,3,.82,5.88,1.75,8.83,2.58,1.84.52,3.72.89,5.57,1.4,3.06.84,6.1,1.78,9.17,2.61,1.69.46,3.45.67,5.11,1.23a13.7,13.7,0,0,1,9.17,8.9,10.56,10.56,0,0,1,.42,2.1c.27,2.23,1.56,4,2.66,5.82a7.75,7.75,0,0,1,.58,2.25,7.2,7.2,0,0,0,.2,1.16,4.16,4.16,0,0,1,0,3.35,25.68,25.68,0,0,0-.4,2.81c-.55,2.21-1.21,4.38-1.8,6.57-.83,3.08-1.62,6.16-2.45,9.24-.42,1.53-.91,3-1.32,4.59-.89,3.34-1.75,6.69-2.62,10,0,.19-.07.39-.13.58-.94,3.13-1.92,6.25-2.83,9.39-.41,1.41-.68,2.87-1.05,4.29-1.16,4.42-3.22,8.15-7.59,10.19A12.2,12.2,0,0,1,64.65,96.43ZM61.26,83.26l.08-.36a7.26,7.26,0,0,0,2.38,0c3-1.1,5.54-2.91,6.66-6.09.48-1.37.61-2.86,1-4.26,1-3.41,2.07-6.79,3-10.2,1-3.79,1.91-7.64,3-11.42,1.43-4.84,3-9.65,3.94-14.61.49-2.45,1.52-4.8,2.07-7.24a9,9,0,0,0-1-6.8c-1.73-2.91-4.47-4-7.54-4.82q-6.09-1.52-12.15-3.16c-2.72-.74-5.41-1.62-8.14-2.36-4.5-1.21-9-2.36-13.53-3.54-2.86-.75-5.72-1.46-8.55-2.27a20.71,20.71,0,0,0-6.4-1.29C23,4.88,19,7.59,18.1,10.71c-1.41,4.74-2.73,9.5-4,14.26-.86,3.15-1.62,6.34-2.47,9.5s-1.74,6.44-2.66,9.64c-1.19,4.18-2.31,8.38-3.67,12.51C4.44,59.12,3.92,61.52,5,64a9.61,9.61,0,0,0,5.1,5.28,50.11,50.11,0,0,0,6.74,2.09c5.23,1.42,10.49,2.77,15.72,4.18s10.16,2.77,15.24,4.15q3.69,1,7.39,2C57.2,82.24,59.23,82.74,61.26,83.26Z"></path><path d="M99.21,33.44a9.77,9.77,0,0,1-1,6.44,10,10,0,0,1-1.53,2.4,1.77,1.77,0,0,1-3.21-.61,10,10,0,0,1-.32-6.17c.4-1.48,0-3.15.1-4.74a5.32,5.32,0,0,1,.37-2.07A1.91,1.91,0,0,1,96.75,28,15,15,0,0,1,98.91,30a2.61,2.61,0,0,1,.42,1.43A14.09,14.09,0,0,1,99.21,33.44Z"></path><path d="M41.59,66.28a5.81,5.81,0,0,0-1.32,0c-2.16.49-3.89-.69-5.63-1.54a12.68,12.68,0,0,1-5.72-6.09c-1.16-2.36-2.32-4.72-3.58-7A6.61,6.61,0,0,0,23.7,50c-.39-.34-1-.49-1.25-.88a1.9,1.9,0,0,1-.26-1.41,1.2,1.2,0,0,1,1-.61,9.89,9.89,0,0,1,3,.68c3.18,1.48,6.17,3.39,9.63,4.21,1.45.34,2.94.49,4.41.73a1.51,1.51,0,0,1,.48.07c2.86,1.41,5.88.59,8.83.59a16.09,16.09,0,0,0,3.69-.78c2.49-.65,5-1.38,7.47-2a1.68,1.68,0,0,1,1.43.47,2,2,0,0,1,0,2.57A7.3,7.3,0,0,1,60,55.58,12.1,12.1,0,0,0,56,59.21a11.45,11.45,0,0,1-2.57,2.28,41.53,41.53,0,0,1-6.11,3.9c-1.7.78-3.73.86-5.61,1.24Zm-.79-7.65.07.29c2.2-.46,4.4-.89,6.58-1.43.36-.09.59-.68.88-1-.42-.22-.83-.65-1.25-.64-2.66,0-5.33.25-8,.23a10.06,10.06,0,0,1-6.37-1.88c-.53-.41-1.14-.84-1.64-.12s-.13,1.35.55,1.81A15.82,15.82,0,0,0,40.8,58.63Zm-.35,4.75c1.29-.32,2.43-.53,3.51-.9.44-.15.75-.67,1.12-1-.46-.19-.95-.58-1.38-.53-1.44.16-2.85.4-4.21-.35-.25-.14-.63,0-1-.08-.74-.1-1.49-.19-2.21-.36s-1.31-.44-1.49.35a1.59,1.59,0,0,0,.7,1.37C37.17,62.47,38.86,62.9,40.45,63.38Z"></path><path d="M31.49,31.3c-.87,2.16-1.58,4.15-2.49,6a1.69,1.69,0,0,1-2.44.4,2,2,0,0,1-.76-2.44c.49-1.22.83-2.48,1.33-3.69a3,3,0,0,1,1-1.45,2.77,2.77,0,0,1,2-.51C30.69,29.83,31,30.69,31.49,31.3Z"></path><path d="M59,40.53c.47,2.12-.73,3.68-1.87,5.2-.3.39-1.15.81-1.45.65a2,2,0,0,1-1-1.51c.11-1.51-.22-3,.47-4.57.42-.95.35-2,1.54-2.55,1.36-.62,2.3-.15,2.35,1.34C59,39.57,59,40.05,59,40.53Z"></path><path d="M48.71,69.6l-1.6-1.11c.33-.48.56-1.18,1-1.39a30.19,30.19,0,0,1,4.65-1.8c.48-.14,1.16.38,1.75.59-.37.5-.63,1.2-1.13,1.48C51.92,68.18,50.35,68.83,48.71,69.6Z"></path><path d="M32.14,26.13A9.55,9.55,0,0,1,30,25.45a1.38,1.38,0,0,1-.35-1.3c.65-1.41,3.4-1.94,4.61-.91.39.34.9,1.15.75,1.39A4.42,4.42,0,0,1,33.37,26c-.28.16-.77,0-1.17-.06Z"></path><path d="M64.12,32.92a3.59,3.59,0,0,1-.35,1c-.51.83-1.38.75-1.87-.09s-1-1.5-1.41-2.31c-.19-.39-.31-1.1-.1-1.35a2,2,0,0,1,1.48-.67C62.79,29.63,64.14,31.63,64.12,32.92Z"></path></svg>