<svg xmlns="http://www.w3.org/2000/svg" id="Layer_1" data-name="Layer 1" viewBox="0 0 80.95 89.67"><title>AsimovMarketingIcon-bt-omar bahaa</title><path d="M.08,51.76c0-11.28,0-22.56,0-33.84,0-1.63-.07-3.21,1.12-4.5a2.56,2.56,0,0,1,1-.75C7.4,11,12.61,9.31,17.84,7.71c3.2-1,6.43-1.8,9.65-2.7.35-.1.7-.18,1-.29Q35.7,2.41,42.86.1C43.79-.21,44.05.24,44,1s-.14,1.84-.14,2.76c0,1.61.58,1.94,2.1,1.47A8.48,8.48,0,0,1,48.47,5c.77,0,1,.58,1,1.25l-.09,45.11c0,1.52,0,3,0,4.55s.82,1.91,2.2,1.28A31.93,31.93,0,0,1,55.13,56a5.78,5.78,0,0,1,.6-.08c2.38-.43,2.64-.94,1.56-3.09a14.73,14.73,0,0,1-1.67-8,15.55,15.55,0,0,1,4.28-9.77c.35-.34,1-.36,1.54-.52.08.61.42,1.33.21,1.81-.74,1.67-1.87,3.18-2.47,4.89a13.72,13.72,0,0,0-.88,5.13,15.22,15.22,0,0,0,2.62,7.72,1.86,1.86,0,0,0,1.35.55c2.76,0,5.54-.25,8.27,0,3.33.33,6.7.85,9.41,3.1a3.22,3.22,0,0,1,1,2.16,14.54,14.54,0,0,1-.68,3.12,4.88,4.88,0,0,0-.23,1.4c.15,3.07-1.61,5.15-3.69,7s-5,2.61-7.68,3.54c-.37.13-.79.1-1.16.23a4.54,4.54,0,0,0-1.64.73,4.24,4.24,0,0,1-2.55,1.38c-1.61.2-3.2.59-4.81.84A3,3,0,0,1,55.67,77a3.17,3.17,0,0,0-3.15-1.3,3.42,3.42,0,0,1-1.39-.23c-1.19-.32-1.77.06-1.8,1.31,0,.71.09,1.43.1,2.15,0,1.53-.75,2.23-2.25,2.33a31,31,0,0,0-3.3.53c-1.64.29-3.28.55-4.91.88-2.1.42-4.18.91-6.27,1.35-1.12.24-2.25.42-3.37.62L21.5,86.06l-7.94,1.49Q8,88.59,2.48,89.64A2.23,2.23,0,0,1,0,87.38V51.76Zm3.74-.65H3.76q0,16.61,0,33.23c0,1.34.64,1.81,1.9,1.41a14.53,14.53,0,0,1,1.85-.41c1.17-.22,2.35-.38,3.52-.61,1.52-.29,3-.64,4.54-.93,2.34-.44,4.69-.82,7-1.26,1.92-.36,3.82-.79,5.73-1.13,2.37-.43,4.76-.8,7.14-1.21.46-.08.91-.28,1.38-.37,2.68-.52,5.36-1,8-1.53,1.1-.2,1.41-.87,1.41-1.88q0-13.92,0-27.83,0-19.08,0-38.15c0-1.46-.34-1.85-1.76-1.69s-2.83.43-4.23.71c-2.45.48-4.9,1-7.35,1.49-1.76.34-3.53.56-5.28.9-2.38.46-4.74,1-7.12,1.47-3.11.62-6.22,1.23-9.34,1.81a30.37,30.37,0,0,1-4,.53c-2.68.12-3.36.76-3.35,3.41v32ZM60.12,73.5c3.37.26,6.81-.84,10.26-1.79a9.94,9.94,0,0,0,6.41-4.84,5.56,5.56,0,0,0,.63-2.23c.07-1.07-.4-1.22-1.46-.92-1.67.46-3.37.82-5.08,1.13-1.44.27-2.9.41-4.35.61-1.88.26-3.75.6-5.63.79-1.61.15-3.32-.36-4.79.63a2.13,2.13,0,0,0-.83,1.37,31,31,0,0,0,0,3.34c0,1.26.54,1.86,1.79,1.9C58,73.52,58.91,73.5,60.12,73.5Zm-4.8-14.11.17-.41c1.19-.08,2.39-.15,3.58-.26,1.49-.13,3-.45,4.48-.43a42.59,42.59,0,0,1,6.66.26,22.68,22.68,0,0,1,6,1.71,1.53,1.53,0,0,0,1.42-.18c.42-.63-.06-1.13-.71-1.33-3.47-1-6.89-2.34-10.62-2.15-1,.06-2,0-3,0a9.94,9.94,0,0,0-1.51.26c-1.57.33-3.14.68-4.72,1-.21,0-.46-.1-.7-.13a2.36,2.36,0,0,0-1,0,3.42,3.42,0,0,0-.89.78Z"></path><path d="M61.62,44.56c-.69-3,.92-5.31,2.12-7.78,1.42-2.94,2.5-6,1.39-9.33a6.57,6.57,0,0,1-.2-2.13,1,1,0,0,1,.47-.71c.13-.08.54.14.67.33,1.61,2.38,2.76,4.94,1.82,7.85-.8,2.48-1.94,4.86-2.81,7.33a32.11,32.11,0,0,0-1.38,5.15c-.12.75.42,1.6.6,2.41.14.65.38,1.46-.49,1.75s-1.36-.4-1.59-1.1c-.4-1.22-.68-2.48-1-3.72Z"></path><path d="M13.44,31.11c-.79-3,1.37-5.19,2.49-7.69,1.72-3.85,5.21-5.38,9-6.35a19.14,19.14,0,0,1,6-.62,7.91,7.91,0,0,1,5.59,2.69c2.51,3,4.07,6.58,3.52,10.61-.2,1.47-1.22,2.83-1.84,4.25a15.44,15.44,0,0,1-9.4,8.83c-4.75,1.66-9.5.61-12.55-3.24C14.33,37.21,12.91,34.47,13.44,31.11Zm19.4,6.21c-.17-.51-.24-.74-.32-1-1.19-3.26-2.37-6.52-3.57-9.77-.5-1.35-.93-2.73-1.54-4-.77-1.63-2.08-1.65-3.07-.1a5.12,5.12,0,0,0-.6,1.3c-.47,1.56-.89,3.14-1.37,4.71-.43,1.39-.93,2.77-1.37,4.17s-.89,2.81-1.2,4.25a2,2,0,0,0,.4,1.55,1.27,1.27,0,0,0,2.11-.36,25.76,25.76,0,0,0,1.23-2.85,3.28,3.28,0,0,1,3.32-2.08c1.41,0,1.55,1.14,1.91,2.1s.67,1.87,1.09,2.77c.29.62.84,1.13,1.53.71A8.12,8.12,0,0,0,32.84,37.32Zm.49-13c-.23-.21-.62-.86-1.17-1-.75-.24-1.79.8-1.74,1.59a1.46,1.46,0,0,0,1.36,1.55C32.62,26.47,33.29,25.73,33.33,24.28Z"></path><path d="M24.33,60.24l-1.18.16a40.31,40.31,0,0,1-4.22.46,1.85,1.85,0,0,1-1.3-1c-.13-.25.26-1,.6-1.22A2.93,2.93,0,0,1,20,58.06c2.86.32,5.49-.62,8.21-1.23,2.39-.53,4.81-.94,7.23-1.29.83-.13,1.67.21,1.69,1.26s-.77,1.47-1.65,1.56c-.39,0-.8-.4-1.24-.51s-1.17-.27-1.3-.08c-1.33,1.9-3.52,1.44-5.32,2a25,25,0,0,1-3.26.6Z"></path><path d="M29.23,50.93c1.73-.38,3.45-.8,5.2-1.12a2.85,2.85,0,0,1,1.74.17,1.41,1.41,0,0,1,.46,1.3,2.9,2.9,0,0,1-1.5,1.12c-1.29.39-2.63.6-4,.88a2.16,2.16,0,0,1-.81.14c-2.18-.47-4.14.52-6.2.87-1.72.3-3.42.71-5.15.91-.44,0-1-.49-1.43-.75.28-.42.46-1.08.84-1.22,1.61-.58,3.26-1,4.92-1.47,1.92-.49,3.85-.89,5.78-1.33Z"></path><path d="M24.53,29.73l1.34-1.2c.31.43.79.84.88,1.31,0,.24-.62.81-1,.85S25.08,30.19,24.53,29.73Z"></path></svg>