<svg xmlns="http://www.w3.org/2000/svg" id="Layer_1" data-name="Layer 1" viewBox="0 0 83.18 83.2"><title>AsimovMarketingIcon-bt-omar bahaa</title><path d="M31.56,79.1c.05-3,.06-3-3-2.38-4.13.88-8.33,1.5-12.37,2.68-2.62.76-4.87.74-7.14-.66a27.36,27.36,0,0,1-2.81-1.8,4.83,4.83,0,0,1-1.95-4.47c.21-3,.07-6,0-9A4.78,4.78,0,0,1,7,58.93c4-2.27,8.36-3.33,12.79-4.18,1.69-.32,3.49-.15,5.15-.56,2.7-.66,5.44-.08,8.08-.52a22.76,22.76,0,0,1,4.92-.5c2.61.14,5.21.36,7.8.57,1.42.12,2.83.27,4.24.44,2.51.29,5,.59,7.52.94a17.07,17.07,0,0,1,2.44.61c3.51,1.07,7.12,1.92,9.8,4.74a3,3,0,0,1,.86,2.35c-.09,3.55-.09,7.11,0,10.67A4.07,4.07,0,0,1,68.89,77c-2.25,1.8-5,2.57-7.63,3.35-2.09.6-4.27.88-6.41,1.32-1.43.29-2.86.61-4.29.89a6.73,6.73,0,0,1-1.19.06c-1.42,0-2.86-.3-4.23.44a2.69,2.69,0,0,1-1.18.07c-3.36,0-6.71,0-10.07.07A2.13,2.13,0,0,1,31.57,81,17.39,17.39,0,0,1,31.56,79.1Zm2.63-4.77h0c0,1.2,0,2.4,0,3.6-.06,2,.46,2.63,2.38,2.54,3.41-.14,6.79.09,10.24-.39,3.23-.45,6.55-.43,9.75-1.22,2.54-.63,5.08-1.31,7.55-2.16a14.67,14.67,0,0,0,3.27-2,1.4,1.4,0,0,0,.5-1c0-2.79,0-5.59-.05-8.38,0-.86-.47-1.26-1.33-1-1.74.44-3.45,1-5.2,1.33-2.21.45-4.45.78-6.68,1.14-1.36.22-2.73.39-4.09.63-1.82.31-3.63.81-5.46,1-3.08.23-6.18.26-9.28.36-1.3,0-1.59.34-1.59,1.67Zm21-10.2v.08l5.12-1c1.64-.34,3.28-.65,4.91-1,.36-.09,1-.5.92-.7a2,2,0,0,0-.74-1.06,2.66,2.66,0,0,0-1-.37c-2.47-.74-4.92-1.61-7.43-2.16a81.22,81.22,0,0,0-8.9-1.43,59.84,59.84,0,0,0-6,0,10.4,10.4,0,0,1-1.65-.23,10.64,10.64,0,0,0-2.21-.33c-2.37.13-4.74.41-7.11.56-2.85.17-5.7.27-8.54.41a6,6,0,0,0-.7.18c-1.32.3-2.66.53-4,.89-3,.84-5.89,1.71-8.82,2.64a1.42,1.42,0,0,0-.73,1.06c0,.27.51.66.87.82a21.66,21.66,0,0,0,2.71.93,3.07,3.07,0,0,0,1.28,0c2-.4,3.88-.86,5.83-1.26,3.27-.67,6.55-1.29,9.82-2,2.17-.47,4.31-1.1,6.5-1.49a2.32,2.32,0,0,1,1.67.87A1.75,1.75,0,0,1,37.08,61c-.39,1-1,2-1.43,3-.76,1.75-.52,2.15,1.38,2.09,2.65-.1,5.3-.22,7.95-.46,2-.18,4-.55,6-.85ZM11.31,71.46h0a25.35,25.35,0,0,0-.05-3.7,4.06,4.06,0,0,0-1.12-2.08,6.05,6.05,0,0,0-1.88-1c-1-.44-1.41-.11-1.38,1A40.28,40.28,0,0,1,7,71.86c-.3,2.23.9,3.32,2.45,4.33,1.09.71,1.86.28,1.89-1S11.31,72.7,11.31,71.46Z"></path><path d="M22.59,20.05c.65.44,1.36.69,1.67,1.18,1.43,2.31,2.74,4.69,4.09,7,1.75,3.05,3.49,6.11,5.26,9.14.63,1.08,1.2,1.05,2,0q4.32-5.89,8.66-11.77c1-1.34,1.6-1.37,2.8-.16,1.61,1.61,3.17,3.27,4.73,4.92a1,1,0,0,0,1.66.05,28.36,28.36,0,0,0,2.05-2.34c2.13-2.8,4.21-5.63,6.33-8.43a1.19,1.19,0,0,0-.17-1.86c-1.11-1-2.21-2.08-3.24-3.19-1.2-1.31-1.18-2.12.17-3.19A28.76,28.76,0,0,1,62,9.16c3.91-2.25,7.84-4.46,11.76-6.68C75.08,1.75,76.36,1,77.63.27s1.91,0,2.68.67.53,1.3.24,2.07C79.24,6.49,78,10,76.69,13.46S74.15,20.53,72.84,24a2.2,2.2,0,0,1-3.71,1,20.9,20.9,0,0,1-2.59-2.29c-.7-.72-1.23-.78-1.85,0-1.95,2.53-3.89,5.07-5.87,7.58-1.43,1.81-2.88,3.62-4.39,5.37-1.07,1.24-2,1.25-3.14.06-1.54-1.61-3-3.29-4.5-5-.67-.75-1.15-.75-1.7,0Q42,35.25,38.93,39.58q-1.45,2.06-3,4.05c-1,1.35-2.31,1.4-3.41.11a14.1,14.1,0,0,1-1.43-2.07c-2.75-4.86-5.48-9.74-8.22-14.6-.68-1.2-1.15-1.22-2-.12-.15.19-.29.39-.45.56l-7.78,8.3C10.58,38,8.57,40.22,6.49,42.37c-1,1.07-1.7,1.09-2.72.31-1.29-1-1.42-1.69-.49-3a8.2,8.2,0,0,1,.89-1.13c3.71-3.86,7.44-7.7,11.14-11.57,1.75-1.85,3.4-3.81,5.17-5.65A9.4,9.4,0,0,1,22.59,20.05Z"></path><path d="M83.18,18.83c-.73,1.18-1.35,2.28-2.07,3.31-1.58,2.26-3.2,4.49-4.8,6.73-.48.66-1,1.24-1.89.71s-.35-1.15-.11-1.81c1.39-3.69,4.27-6.42,6.3-9.7a1.7,1.7,0,0,1,1.48-.55C82.48,17.61,82.75,18.28,83.18,18.83Z"></path><path d="M5.19,32.65a3.37,3.37,0,0,1-.47.74,39.12,39.12,0,0,1-3,2.87c-.4.33-1.1.28-1.67.4,0-.57-.13-1.35.18-1.69a25.11,25.11,0,0,1,3.39-3.13A1,1,0,0,1,5.19,32.65Z"></path></svg>