<svg xmlns="http://www.w3.org/2000/svg" id="Layer_1" data-name="Layer 1" viewBox="0 0 51.59 86.8"><title>AsimovMarketingIcon-bt-omar bahaa</title><path d="M38.57,22c0,6.56,0,13.11,0,19.67a15,15,0,0,0,.46,2.7c.32,1.73.66,3.46,1,5.19.05.31.06.64.1,1,.25,1.72.49,3.43.75,5.14.23,1.52.47,3,.72,4.55.44,2.73.9,5.45,1.32,8.19a8.81,8.81,0,0,1,0,1.78c-.09,1.76.34,2.36,2,2.85a26.24,26.24,0,0,1,3.73,1.22,7.28,7.28,0,0,1,2,1.65c1.6,1.66.79,3.06-.79,3.87a13.27,13.27,0,0,1-4.13,1,14.06,14.06,0,0,1-3.11,0c-.74,0-1.46-.31-2.19-.41a16.19,16.19,0,0,0-1.71-.06,6.26,6.26,0,0,0,0,1.68c.3,1.07.83,2.08,1.07,3.16a1.74,1.74,0,0,1-.51,1.48c-.63.46-1.11-.09-1.35-.7s-.41-1.29-.61-1.94c-.53-1.76-1.67-2.19-3.38-1.56a12.38,12.38,0,0,1-3.84.77c-3.39.09-6.8.16-10.18-.06-2.82-.18-5.65-.67-7.93-2.61a1.13,1.13,0,0,0-1.76,0,1.34,1.34,0,0,1-1.15.32c-.33-.19-.47-.74-.69-1.13a.48.48,0,0,1,0-.24c.33-2.14.57-4.3,1-6.41a2.86,2.86,0,0,0-.63-2.75,3.55,3.55,0,0,1-.78-1.87c-.35-3.22-.61-6.45-.88-9.67-.06-.68,0-1.36,0-2A58.52,58.52,0,0,1,6.61,48a31.41,31.41,0,0,0-.47-6c-.58-3.73-.65-7.5-1.08-11.23-.27-2.31-.25-4.59-.37-6.89s-.3-4.59-.55-6.88-.67-4.84-.92-7.27A37.61,37.61,0,0,1,3.16,5.9c0-1.36.68-1.84,2-1.92,2.72-.17,5.42-.49,8.13-.76a2.72,2.72,0,0,1,.47-.08c1.79.22,2.85-.4,2.87-2.37A1.15,1.15,0,0,1,17.43,0c.3-.06.72.22,1,.46a3.16,3.16,0,0,1,.6.89,1.78,1.78,0,0,0,2.56,1,7.14,7.14,0,0,1,1.88-.19c1.13-.14,2.25-.32,3.38-.49.11,0,.23-.08.34-.09,2.21-.14,4.43-.25,6.64-.44A12.46,12.46,0,0,0,36.37.6a1.6,1.6,0,0,1,2.28,1.59V22ZM36,8.93c0-1,0-1.69,0-2.37-.06-1.48-.67-1.89-2.1-1.42a2.33,2.33,0,0,1-.81.19,29.87,29.87,0,0,0-7.59.48c-1.83.42-3.81.14-5.77.52-2.62.5-5.37.28-8,.45-1.61.1-3.21.43-4.82.51A1.78,1.78,0,0,0,5,9.76,11.83,11.83,0,0,1,5.39,12c.07.75,0,1.52.08,2.27.31,3.23.71,6.45,1,9.68.22,2.76.29,5.54.43,8.31,0,.2.11.39.13.59.3,2.55.64,5.1.86,7.66.12,1.47-.09,3,.06,4.43.24,2.39.77,4.76.94,7.15.12,1.78.12,3.53.4,5.33.46,3,.38,6,.59,9,0,.55.21,1.33.59,1.56a8.13,8.13,0,0,0,2.68,1c2.37.44,4.77.74,7.15,1.15,3.43.61,6.86,1.26,10.29,1.92,1.24.23,2.45.61,3.7.8a1.52,1.52,0,0,0,1.3-.46A4.84,4.84,0,0,0,36.34,70c.07-8.59.14-17.18.07-25.78C36.32,32.36,37,20.47,36,8.93Zm-13.81,67h0c0-.36,0-.72,0-1.08a2,2,0,0,0-1.73-2.41c-1.28-.24-2.57-.44-3.86-.65s-2.34-.45-3.52-.57-1.62.53-1.7,1.57c-.07.83-.15,1.67-.14,2.51,0,.35.14.88.39,1s.74-.05,1.07-.21a10.21,10.21,0,0,1,1.77-1,46.23,46.23,0,0,1,4.68-.81c1-.13,1.56.45,1.52,1.5a6.72,6.72,0,0,0-.09,1.66c.08.35.57.61.88.91.25-.31.64-.58.73-.92A6.67,6.67,0,0,0,22.17,75.91Zm17.71-9.57.42-.2-1-1.11c-.3.35-.82.67-.86,1-.2,1.93-.3,3.87-.39,5.81a1.33,1.33,0,0,0,1.39,1.58c1,0,1.08-.82,1-1.54C40.29,70.05,40.07,68.2,39.88,66.34Zm-3.79,12.5c-.72-1.1-1.37-2.17-2.11-3.16-.12-.17-.67-.13-.95,0-.12.06-.16.6-.05.84a28.09,28.09,0,0,0,1.43,2.85,1,1,0,0,0,.88.35C35.54,79.65,35.73,79.26,36.09,78.84Zm-7.82-3.68.74-.61a5.67,5.67,0,0,0-.84-.45,8.8,8.8,0,0,0-1.57-.46,4.28,4.28,0,0,0-1.06.08c.23.32.4.77.71.91A12.17,12.17,0,0,0,28.27,75.16Z"></path><path d="M44.08,34.2c-.2,1.66-.4,3.14-.54,4.63,0,.51.19,1.06.07,1.54a4.27,4.27,0,0,1-.85,1.87.82.82,0,0,1-1.44-.48c-.22-1.36-.39-2.73-.53-4.11a4.27,4.27,0,0,1,.14-1,22.21,22.21,0,0,0,.35-2.91c0-1.41.38-2.42,1.13-2.5s1.58,1.19,1.67,2.36C44.1,33.82,44.08,34.1,44.08,34.2Z"></path><path d="M0,68.43C.39,68,.78,67.21,1.39,67c.9-.36,1.27.48,1.57,1.22.57,1.39,1.17,2.78,1.79,4.15.29.65.38,1.23-.27,1.7a1.38,1.38,0,0,1-2-.14C1.17,72.46.61,70.63,0,68.43Z"></path><path d="M12.1,45.14c-.59-3.81,1.33-6.56,3.49-9.18a2.73,2.73,0,0,1,1.5-.92,35.41,35.41,0,0,1,6.36-.83,6.17,6.17,0,0,1,3.33,1.45,14.89,14.89,0,0,1,5.75,8.18,12.44,12.44,0,0,1,.38,5.09,11.71,11.71,0,0,1-2.68,6.25,25.6,25.6,0,0,1-4.1,3.44c-.4.3-1.15.09-1.73.19-2.64.45-4.86-.68-6.95-2s-3.39-3.68-4.4-6C12.26,49,11.56,47.1,12.1,45.14Zm19.34,3.08a12.82,12.82,0,0,0-5.1-10.89,6.93,6.93,0,0,0-3-1.59,9.69,9.69,0,0,0-7.39,2.08c-1.16.9-1.46,2.28-1.84,3.65a13.85,13.85,0,0,0,0,7.58,10.68,10.68,0,0,0,6.53,7.17c1.18.5,2.44,1.12,3.9.68C28.57,55.66,31.63,52.66,31.44,48.22Z"></path><path d="M33.78,68.11c0,1.89-.36,2.12-2.11,1.78-2.17-.41-4.36-.71-6.54-1.1-.62-.11-1.22-.39-1.85-.5-2-.35-4-.61-6-1-1.44-.28-2.87-.62-4.27-1a1.51,1.51,0,0,1-1-2.17c.47-1,1.23-.83,2-.41a1.88,1.88,0,0,0,.66.27c2.15.21,4.31.4,6.46.59.28,0,.56,0,.83,0,2.35.28,4.7.55,7.05.86a33.56,33.56,0,0,1,3.72.62C33.88,66.34,33.76,67.36,33.78,68.11Z"></path><path d="M15,16.27c1.75-.27,3.49-.65,5.25-.76,2-.13,4,.06,6,0,1.37-.05,2.73-.39,4.1-.45a2.43,2.43,0,0,1,1.51.64,1.21,1.21,0,0,1,.24,1.14,6,6,0,0,1-1.89,1.44c-.49.21-1.19-.14-1.77-.06-4.95.74-9.92.41-14.89.48-.45,0-.88.35-1.34.41s-1.22.17-1.53-.1A8.46,8.46,0,0,1,9.4,17.13,6.57,6.57,0,0,1,11.35,16a22.46,22.46,0,0,1,3.58-.05Z"></path><path d="M15.84,24.74H12.12a3.45,3.45,0,0,1-.72,0A1.64,1.64,0,0,1,10,22.88c.07-1,.88-1,1.63-1,2,0,4.08.07,6.11.08.72,0,1.44,0,2.16-.1.92-.09,1.78.1,2,1.1s-.71,1.4-1.51,1.67a3.07,3.07,0,0,1-1,.07H15.84Z"></path><path d="M19,50.52c.42-1.52.82-2.81,1.13-4.13s.54-2.82.87-4.21c.09-.36.45-.65.68-1,.28.3.69.55.81.89,1,2.73,1.9,5.47,2.75,8.23.14.45-.18,1-.28,1.57a5.6,5.6,0,0,1-1.11-1c-.36-.57-.48-1.28-.84-1.84a1.43,1.43,0,0,0-1-.66c-.33,0-.72.44-.92.78s-.31,1.09-.6,1.55a1.16,1.16,0,0,1-.94.48C19.31,51.15,19.14,50.67,19,50.52Z"></path><path d="M25,42.32c.36.5.71.81.76,1.16,0,.17-.59.67-.74.6a1.5,1.5,0,0,1-.75-.85C24.26,43.07,24.68,42.75,25,42.32Z"></path></svg>