<svg xmlns="http://www.w3.org/2000/svg" id="Layer_1" data-name="Layer 1" viewBox="0 0 172.28 158.23"><title>AsimovMarketingIcon-bt-omar bahaa</title><path d="M87.48,28.29c0-3.52,0-7,0-10.55,0-.31,0-.74.18-.92a2.84,2.84,0,0,0,.68-3,1.78,1.78,0,0,1,.1-.94c.87-2,1.93-4,2.6-6.07C92,4,94.58,3.59,96.68,2.47a2.4,2.4,0,0,1,1.88.29c1.67.94,2.17.94,3.54-.47S105-.26,107,.05a7.72,7.72,0,0,1,3.45,1.37A15,15,0,0,1,113,4.52a11.07,11.07,0,0,1,1.51,2.27c.74,1.73,1.8,3.4,1.61,5.42a.65.65,0,0,0,.13.45c1.1,1,.72,2.36.72,3.61,0,5.4,0,10.8,0,16.2,0,1.19.29,2.39-.72,3.35a.12.12,0,0,0,0,.11c.5,2.07-1,3.85-.86,5.87a9.13,9.13,0,0,1-.39,1.71c-.21,1.43-.45,2.87-.52,4.31,0,.64,2.28,1.66,3.22,1.69a7.81,7.81,0,0,1,1.86.47c.19.05.39.3.52.26,1.59-.47,2.79.73,4.22.93a3.54,3.54,0,0,1,2.69,3.3c-.07,3.76-.08,7.52-.1,11.28,0,1.36-.47,2.79.69,4,.2.2.12.69.12,1,0,2.84-.09,5.68-.13,8.52a1.5,1.5,0,0,0,.17.92c1.39,1.42.89,3.12.75,4.76-.12,1.31.18,1.7,1.46,1.71a15.75,15.75,0,0,0,2.28-.05,5.36,5.36,0,0,1,4.2,1.67c3.21,2.74,5,6.47,6.73,10.18a47.28,47.28,0,0,1,1.86,6.17c.48,1.58,1.07,3.12,1.55,4.7a10.67,10.67,0,0,1,.09,1.41,13.6,13.6,0,0,0,.5,2.38c.57,1.67,2.22,2.23,3.54,3,1.85,1.06,3.8,2,5,3.8s1.7,3.64,2.7,5.37.56,3.68.67,5.55A9.27,9.27,0,0,0,160,134c.12.28.8.34,1.23.47.74.21,1.49.38,2.23.59.34.1.66.38,1,.38a13.26,13.26,0,0,1,5.51,1.54,4.16,4.16,0,0,1,2.37,3.5,5,5,0,0,1-2.13,3.57,42.31,42.31,0,0,1-7.83,4c-1.49.58-3,1.4-4.81,1.22a8.09,8.09,0,0,0-2.93.75c-.14,0-.35.38-.32.42.19.23.43.57.67.59.95.06,1.91,0,2.87,0,.19,0,.41-.13.58-.08a10.39,10.39,0,0,1,1.19.51,6.57,6.57,0,0,1-1.14.54,12.2,12.2,0,0,1-2.15.42,13.63,13.63,0,0,1-2.71,0c-.2,0-.25-.76-.49-1.06a3.66,3.66,0,0,0-1-.62c-.11.33-.41.76-.3,1,.34.65.57,1.14-.27,1.56s-1.38-.06-1.82-.65-.6-1.55-1.08-1.68-1.19.62-1.85.79c-1.8.47-3.18-.54-4.39-1.61-.72-.65-1.11-.83-2-.3a27.4,27.4,0,0,1-3.19,1.15c-3.26,1.45-6.68.44-10,.77a14.68,14.68,0,0,1-9-1.88,13.53,13.53,0,0,1-5.51-5.43,7.55,7.55,0,0,1-1.15-5.33c.21-.95-.34-1.51-1.38-1.47-1.52.06-3,.14-4.55.14a6.4,6.4,0,0,1-1.48-.31c-.92-.22-1.83-.53-2.76-.66-.74-.12-.91.35-.61,1,.44,1,.91,1.9,1.35,2.86a.83.83,0,0,1,.1.56c-1,2.64-2.35,5.05-5,6.47-1.08.59-2,1.43-3.13,2-1.63.8-3.33,1.43-5,2.13a.47.47,0,0,1-.22.07c-3.36-.61-5.59,1.94-8.35,3-1.77.67-3.53,1.37-5.33,2a47.23,47.23,0,0,1-5.07,1.45c-.95.2-2-.07-3,0-2.36.25-4.09-.77-5.73-2.35a5.58,5.58,0,0,0-4.13-1.77c-7.07.11-14.16.18-21.23,0a40.6,40.6,0,0,1-5-1c-.91-.15-1.72-.92-2.8-.63-.19.06-.44-.15-.66-.21a7.22,7.22,0,0,0-2.24-.56,11.78,11.78,0,0,1-6.75-1.88,26.48,26.48,0,0,1-4.4-3.44,18.05,18.05,0,0,1-1.83-2.46c-.44-.56-1-1-1.44-1.59-.19-.26-.15-.7-.22-1.06.4,0,.87-.27,1.19-.13,1.7.72,3.33,1.61,5.05,2.27a9.81,9.81,0,0,0,2.83.37.85.85,0,0,0,.71-.44.86.86,0,0,0-.36-.77c-2.38-1.05-4.41-2.75-7-3.4-1.81-.44-3.42-1.68-5.15-2.49-1.17-.54-2.43-.9-3.61-1.42-1.71-.76-1.83-1.16-1.74-3.06A13.81,13.81,0,0,0,2,130.08c-.19-1.62-1.61-3-1.08-4.74a1.43,1.43,0,0,0-.15-1.14c-.93-1.06-.74-2.27-.73-3.51,0-4.56,0-9.12-.06-13.68a2.07,2.07,0,0,1,.28-1.13,2.7,2.7,0,0,0,.57-2.46.26.26,0,0,1,0-.12c.44-1.47.87-2.93,1.32-4.39a37.07,37.07,0,0,1,1.29-4,18.49,18.49,0,0,1,2.38-4.51,18.23,18.23,0,0,1,7.79-5.58,2.74,2.74,0,0,0,1.17-1.27c.68-1.23,1.18-2.55,1.88-3.75s1.68-2.4,2.42-3.65a23.67,23.67,0,0,0,1.56-3.3c.41-1,.61-2.1,1-3.12a37.87,37.87,0,0,1,2-4.76c.91-1.66,2.26-3.09,3.1-4.77,1.11-2.24,3.12-3.6,4.69-5.37,1.72-1.94,4-2.87,6.38-3.75a11.77,11.77,0,0,1,4.73-.73.57.57,0,0,0,.35-.06c1.69-1.36,3.68-.79,5.54-.78,1.57,0,3.29-.61,4.69.7C56,50,58,52,60.43,53a2.4,2.4,0,0,1,.53.27,49.52,49.52,0,0,1,5.55,4.83C68,59.79,69,62,70.25,64c.25.4.77,1.07,1,1a3.24,3.24,0,0,0,1.3-1,1.61,1.61,0,0,0,.18-.92q0-10.26-.06-20.51c0-.86.24-1.27,1.15-1.24s2.08-.07,3.11,0a3.69,3.69,0,0,1,1.49.6c.75.46,1.26.4,1.59-.47a4.24,4.24,0,0,1,.38-.87c1-1.51,2.16-1.71,4.15-.71.32.16.63.36,1,.49,1.47.58,2.15,0,2.13-1.56,0-3.48,0-7,0-10.44ZM51.24,98.23h0c0-1.32,0-2.64,0-4,0-.83-.36-1.18-1.22-1.27a23.13,23.13,0,0,1-2.71-.63l-1.16-.26a17.42,17.42,0,0,1-3.71-1,8.37,8.37,0,0,0-3.58-.6c-1.83-.1-3.54-1-5.45-.92-.89,0-1.79-.56-2.69-.59a4.8,4.8,0,0,1-3.17-.75,2.65,2.65,0,0,0-1.49-.3c-1.12,0-2.24,0-3.36,0-1.36,0-1.6.31-1.48,1.66a4.67,4.67,0,0,1-.11,1.39,14.29,14.29,0,0,1-.66,2.43c-.43,1-.8,2.24-1.61,2.79s-2,.08-2.89-.78c-1.39-1.41-1.66-3.25-1.86-5.06-.12-1.13-.88-2.52-1.63-2.19a4.94,4.94,0,0,0-2.29,1.61,64,64,0,0,0-2.91,6.48c-.63,1.55-1.13,3.16-1.67,4.75a7.37,7.37,0,0,0-.13.82c-.16.74-.34,1.48-.52,2.21-.07.31-.3.63-.25.9a3.93,3.93,0,0,1-.72,3.6c-.19.22-.12.69-.12,1,0,3.52,0,7,0,10.56a4.23,4.23,0,0,0,.75,3,2.09,2.09,0,0,1,.21,1.25c0,1.39-.39,2.86-.07,4.16a5.75,5.75,0,0,0,4.1,4.12c2.32.76,4.57,1.71,6.85,2.59.44.17.82.5,1.27.64,2.07.64,4.15,1.22,6.22,1.85,2.61.81,5,2.24,7.86,2.34.29,0,.57.28.87.36.75.2,1.51.39,2.27.54,1.62.33,3.25.63,4.88.95.08,0,.13.1.21.12.62.17,1.25.33,1.88.47a4,4,0,0,1,1.14.24c1.84,1.18,4.13.38,6,1.4,0,0,.08,0,.12,0,.6.16,1.19.32,1.79.5,1.48.43,2.93.93,4.43,1.28s3.26.44,4.8.94a45.71,45.71,0,0,1,5.1,2.18c.8.37,1.61.11,1.48-.65-.34-2.12.92-4.4-.67-6.38a1.47,1.47,0,0,1-.18-.92q0-6.66.08-13.31c0-1.41-.39-2.88.74-4.12.16-.17,0-.61.07-.92a14.4,14.4,0,0,1,.31-1.59c.11-.41.32-.8.44-1.21a34.17,34.17,0,0,1,1.07-3.48c1.17-2.73,2.36-5.47,3.73-8.11a17.83,17.83,0,0,1,4.13-5.64c.37-.31.85-1,.72-1.3a2.78,2.78,0,0,0-1.35-1,7.76,7.76,0,0,0-1.61-.41c-.75-.17-1.5-.34-2.26-.49-1.62-.32-3.24-.61-4.86-.92a.18.18,0,0,1-.1-.07c-.85-1.09-2.1-1.37-3.33-1.85a7,7,0,0,0-3.09-.59,2.28,2.28,0,0,0-2.29,2.14,3.28,3.28,0,0,1-.35,1.24c-1,1.76-.65,2.7,1.26,3.45.34.13.78.82.69,1.06A5,5,0,0,1,56.25,107c-.22.08-1-.47-.93-.58.4-1.44-.53-1.81-1.58-2.16a12.89,12.89,0,0,1-1.4-.68,1.77,1.77,0,0,1-1.11-1.92C51.29,100.55,51.24,99.39,51.24,98.23Zm66.69,13.63c-.23-.41-.46-.76-.62-1.13-.83-1.89-1.65-3.77-2.44-5.66a3.72,3.72,0,0,1,.22-3.65c.2-.29.5-.64.46-.93a2,2,0,0,1,1.37-2.26,12.25,12.25,0,0,1,2.65-.92,8.8,8.8,0,0,1,2.51,0,2.93,2.93,0,0,1,1.2.5,11.14,11.14,0,0,1,1.14.94c.1-.52.24-1,.29-1.55a7.12,7.12,0,0,1,.07-2,8.62,8.62,0,0,0-.09-7.53,1.86,1.86,0,0,1-.16-.81c0-3.6,0-7.2.07-10.8,0-1.19.18-2.38-.76-3.39-.21-.23-.13-.76-.11-1.15.11-2.59.28-5.18.32-7.78,0-.39-.55-.79-.85-1.19-.23.39-.71.81-.67,1.17a4.77,4.77,0,0,1-.58,3.56,1.33,1.33,0,0,0-.1.7q0,6.36.11,12.72c0,3.43,0,6.87.08,10.31,0,.82-.41,1.24-1.16,1.17a3.93,3.93,0,0,0-2.68.69c-1.17.77-2.69.09-2.69-1q0-13.2,0-26.4c0-3,0-5.91,0-8.87,0-.47-.17-1.21-.47-1.33a29.73,29.73,0,0,0-3.37-1,18.47,18.47,0,0,1-2.47-.72c-1.51-.68-2.67-.15-3,1.46,0,.26-.23.5-.3.77-.19.69-.32,1.4-.55,2.08a9.26,9.26,0,0,1-.88,2,1,1,0,0,1-.94.2,1.1,1.1,0,0,1-.45-.86c0-1.6.11-3.19.19-4.79a2.37,2.37,0,0,0-2.58-2.58,5.73,5.73,0,0,1-1.8-.41,23.77,23.77,0,0,0-3.56-1.22,6.59,6.59,0,0,1-2.68-.73c-1.31-.8-2.39,0-2.25,1.53,0,.4.16.79.19,1.19,0,.85-.31,1.43-1.23,1.41S88.2,53,88.27,52.19c.06-.6.12-1.19.21-1.79a1.63,1.63,0,0,0-1.21-2c-1.33-.51-2.57-1.27-3.86-1.9A8.27,8.27,0,0,0,82.09,46a17.93,17.93,0,0,1-2.45-.62c-1.94-.89-3.13-.13-3.12,2,.07,8.27.08,16.55.12,24.83a1,1,0,0,1-1.08,1.14c-1.66.12-2.06,1-1.16,2.44A3.35,3.35,0,0,1,75,77.2,30.91,30.91,0,0,1,75,80.67c-.1,1.67.53,3.44-.82,4.93-.24.26,0,.93,0,1.39a5.09,5.09,0,0,1-.44,1.9c-.77,1.29-.72,1.83.3,3a19,19,0,0,1,1.91,2.55,2.56,2.56,0,0,0,2.34,1.36,11.82,11.82,0,0,1,4.88.59c1.28.54,2.92.51,4.41.88,2,.49,4.07,2.51,3.9,4.51a5.69,5.69,0,0,0,.88,4,4.2,4.2,0,0,1,.81,2.19c0,7.07,0,14.15,0,21.23A2.36,2.36,0,0,1,93,130.3c-1,1.53,0,2.86.56,4.08a4,4,0,0,1-.64,4.63c-.3.28-.25.93-.36,1.41.52.12,1.16.49,1.53.31,2.28-1.11,3.58-4.51,1.82-6.82a8.9,8.9,0,0,1-1-1.9,1.12,1.12,0,0,1,1-1.71,3.27,3.27,0,0,1,1.53.13c1.77.72,3.47,1.67,5.48,1.55.18,0,.37.14.56.22,2,.77,3.87,1.72,6.13,1.55,1.83-.14,2-.27,2-2.1,0-2.05-.79-4.22.69-6.13.16-.21,0-.62.05-.93a3.85,3.85,0,0,1,.23-1.38c.47-.92,1.07-1.76,1.62-2.64.82-1.31,1.79-2.55,1.43-4.28a9,9,0,0,1,0-1.8C115.54,112,115.54,112,117.93,111.86ZM156,132.7h-.05a23.24,23.24,0,0,1,0-2.64c.26-2.27-.69-4.23-1.5-6.23a1.91,1.91,0,0,0-.65-.83c-1.16-.77-2.34-1.52-3.53-2.24-1.88-1.14-2.48-.85-2.84,1.29,0,0,0,.1,0,.12-.55.51-1.13,1.44-1.65,1.41-.87,0-.59-1-.5-1.67a2.08,2.08,0,0,0-1.76-2.41c-2.8-.08-5.6-.07-8.4,0-.86,0-1.14.66-.76,1.43s.71,1.66,1.1,2.48a2,2,0,0,1-.58,2.39,1.78,1.78,0,0,1-1.41.28c-.25-.06-.46-.63-.58-1-.36-1.12-.64-2.27-1-3.39,0-.16-.26-.29-.42-.39a7.43,7.43,0,0,0-1.58-.82,2.41,2.41,0,0,0-1.69,0,21.94,21.94,0,0,0-3.6,2.67c-1.85,1.76-3.55,3.68-5.36,5.48A3.3,3.3,0,0,1,118,129c-.07-.4-.29-.86-.17-1.2.38-1.08,1-2.1,1.34-3.19,1.07-3,3.76-4.19,6.1-5.79,1.13-.78,2.4-1.35,3.55-2.11.3-.2.37-.73.55-1.11a5.62,5.62,0,0,0-1.13-.44c-2-.3-3.67.68-5.3,1.41-3.86,1.72-5.84,5-6.72,9.07-.28,1.28-1.29,2.38-.88,3.83a.42.42,0,0,1-.14.31c-.89.82-.76,1.86-.72,2.91,0,1.39,0,2.8,0,4.19.06,1.59-.54,3.29.7,4.72.1.12,0,.4.07.58a7,7,0,0,0,.77,1.64c1.58,2.11,3.84,3.31,6.11,4.48.92.48,1.74.11,1.65-.89-.15-1.54.5-3.23-.79-4.6-.19-.2-.13-.68-.13-1,0-2.16,0-4.31,0-6.47a2.3,2.3,0,0,1,.13-1.16,4.2,4.2,0,0,0,.64-2.85c0-.34.5-.73.78-1.09.28.35.78.69.82,1.06.07.95-.08,1.91-.1,2.87,0,1.45-.4,3,.85,4.19.16.15.16.52.15.79,0,1.72-.14,3.44-.14,5.15a8.51,8.51,0,0,0,.35,1.6,7.82,7.82,0,0,1,.37,2c0,.88.18,1.37,1.08,1.51,2.61.43,5-.38,7.4-1.21a18.24,18.24,0,0,1,3.53-1.22,20.11,20.11,0,0,0,6.13-2,20,20,0,0,1,2-.68l3.53-1.27c1-.37,2-.72,3-1.14.45-.2,1.07-.45,1.23-.84a18,18,0,0,0,1.28-4A28.15,28.15,0,0,0,156,132.7Zm-119-57.5h0v9.23c0,.64.06,1.14.85,1.35a50.86,50.86,0,0,0,5.58,1.55,20.14,20.14,0,0,1,4.8.9c.75.31,1.6.37,2.33.71,1,.48,2.57.42,2.92-.33,1-2,1.84-4.1,2.74-6.16a1.84,1.84,0,0,0,0-.71c0-3.16,0-6.31,0-9.47a1.66,1.66,0,0,0-.22-1,3.26,3.26,0,0,1-.61-2.83,4.08,4.08,0,0,0-.67-3,16.63,16.63,0,0,1-1.4-2.64,13.86,13.86,0,0,0-6.7-6.58,4.84,4.84,0,0,0-2.91-.68c-1.12.33-2.75.43-3,2.18,0,.1-.14.21-.24.27C38,59.25,38.14,62.08,37,64.17a1.31,1.31,0,0,0-.05.6C36.93,68.24,36.94,71.72,36.94,75.2Zm53.82,52.46h0c0-1.84,0-3.68,0-5.51a9.57,9.57,0,0,0-.44-1.87l-1.7.61-.44.2c-2.74,1.38-5.47,2.79-8.24,4.13a22.12,22.12,0,0,1-2.45.85A36.6,36.6,0,0,0,74,127.41a2.27,2.27,0,0,1-2.76-.1c-.74-.62-1.37-.36-1.74.43a3.63,3.63,0,0,0-.31,1.5c0,5.07,0,10.15,0,15.23,0,.35,0,.83.16,1,1,1,.8,2.18.67,3.37A1,1,0,0,0,71,150.16a9.32,9.32,0,0,0,5.28-1.65c.41-.23.78-.54,1.19-.78a42.86,42.86,0,0,0,4.9-2.93C85,142.68,87.58,140.41,90,138c.89-.86,2.19-2,.84-3.57-.15-.17-.11-.54-.11-.81C90.75,131.66,90.76,129.66,90.76,127.66ZM105.69,16.92c0-.4,0-.64,0-.88-.1-1-.16-1.94-.33-2.9a11,11,0,0,0-.53-1.52,5,5,0,0,0-.34-1c-.55-.87-1.16-1.68-1.72-2.54s-1.62-1-2.09.1C100,10,99.42,11.81,98.8,13.62c-.42,1.22-1.11,2.37-.81,3.74,0,.09-.08.24-.16.31-.85.72-.77,1.68-.72,2.65.06,1.28.1,2.56.09,3.83a4.19,4.19,0,0,1-.33,1.1,7.29,7.29,0,0,0-.58,2c0,4.44.09,8.88-.05,13.31a2.89,2.89,0,0,0,1.84,3.2c1.67.73,3.32,1.51,5,2.22a1,1,0,0,0,.87-.09c.75-.85,1.7-1.56,1.68-2.91,0-2.71,0-5.43,0-8.15,0-1.1-.22-2.23.74-3.14.23-.22.21-.75.21-1.14,0-2.36,0-4.72,0-7.08,0-1.23.18-2.47-.82-3.49-.22-.22-.18-.75-.17-1.14C105.6,18.12,105.66,17.44,105.69,16.92ZM69.28,75l.28-.1c-.32-.81-.66-1.62-1-2.44-.67-1.81-1.26-3.64-2-5.42a12.51,12.51,0,0,0-1.43-2.17c-.94-1.33-1.89-2.64-2.84-4-1.4-1.92-3.57-2.76-5.53-3.88a4.71,4.71,0,0,0-1.39-.31,5.51,5.51,0,0,0,.34,1.48c1,1.69,2.06,3.3,3,5a14.58,14.58,0,0,1,.89,2.66,12,12,0,0,1,.49,1.87c.31,2.35-.86,4.86.79,7.07.14.19.09.54.09.82,0,1.6,0,3.2,0,4.8,0,1.44.39,3-.79,4.21-.18.18-.12.61-.12.92,0,1.76-.05,3.52,0,5.28,0,.33.07.83.28,1a16.32,16.32,0,0,0,2.62,1.37c1.09.42,2.27.62,3.35,1.07,1.36.58,2.3.1,2.32-1.44,0-1.27-.26-2.55.77-3.61a.93.93,0,0,0,.11-.69,3.87,3.87,0,0,1,.72-3.48c.16-.17.11-.54.11-.82,0-1.36,0-2.71-.06-4.07s.41-2.88-.76-4.1C69.25,75.86,69.33,75.39,69.28,75Zm37.54-30.25a2.62,2.62,0,0,0,2.3,2.26c.73.1,1.44.41,2.17.49.39,0,1-.07,1.18-.34a3.78,3.78,0,0,0,.57-1.77c.07-1.38-.23-2.79.71-4a1.77,1.77,0,0,0,.14-.94c0-2.64,0-5.28,0-7.91,0-1.2-.25-2.37.69-3.38.23-.24.2-.76.2-1.15,0-3.56,0-7.12,0-10.67,0-1.13.09-2.23-.76-3.16a1.08,1.08,0,0,1-.2-.9c.62-2-.65-3.53-1.14-5.22-.73-2.53-3.14-3.84-4.92-5.59-.34-.34-1.28-.25-1.88-.11a8.06,8.06,0,0,0-1.91.94c-.63.35-1.2.76-.65,1.59,1.12,1.67,2.31,3.3,3.35,5a8,8,0,0,1,.7,2.21,11.77,11.77,0,0,1,.5,2.25c.06,1.4-.44,2.86.7,4.11.19.21.15.68.15,1q0,7.62,0,15.23a5.17,5.17,0,0,1-.3,1.25,16.23,16.23,0,0,0-.59,2.33c-.1,1,.1,2.08-.06,3.09A27.16,27.16,0,0,1,106.82,44.78ZM72,124.68l.11.24c1-.38,2.1-.77,3.16-1.13,1.45-.5,3-.84,4.36-1.47,2.32-1,4.58-2.24,6.84-3.43A9,9,0,0,0,89.51,117c1.42-1.84,2-4,.57-6.2a1.33,1.33,0,0,1-.13-.92,4.79,4.79,0,0,0-.63-3.57c-.18-.32-.59-.51-.9-.76-.19.35-.55.7-.54,1a51.15,51.15,0,0,0,.29,5.25,3.7,3.7,0,0,1-.68,3.25,15.09,15.09,0,0,1-2,1.71,1.43,1.43,0,0,1-2.14-.18,3.72,3.72,0,0,1-.79-1.87c-.24-2.52.85-5.18-.88-7.53-.08-.11,0-.32,0-.47-.3-1.09-.53-2.21-.92-3.26a.75.75,0,0,0-1.35-.25,24.1,24.1,0,0,0-1.91,3c-.54,1-.94,2-1.47,3A85,85,0,0,0,70.81,121a5.61,5.61,0,0,0-.06.59,12,12,0,0,1-.47,1.9c-.34.85-.18,1.19.75,1.23C71.34,124.74,71.66,124.7,72,124.68Zm57.61-25.82h0l-.06-.84c-.09-1.31.39-2.22,1.19-2.1,1.21.19,1.13,1.23,1,2.08a5.64,5.64,0,0,0,.87,4.32l1.22,1.6a30.93,30.93,0,0,1,3.49,4.66c1,2,2.72,2.86,4.56,3.6,1.09.44,1.74-.18,1.77-1.36a8.44,8.44,0,0,0-.81-3.62c-1.11-2.55-1.64-5.35-2.76-7.89a26.53,26.53,0,0,0-5.56-8.43A4.33,4.33,0,0,0,127.74,92a7.24,7.24,0,0,0-.91,3.77,30.73,30.73,0,0,1-.08,4.07c-.07,1.24.35,1.76,1.52,1.77,1,0,1.41-.47,1.38-1.64C129.64,99.58,129.61,99.22,129.59,98.86ZM90.87,39l-.32.12-.06,1.31c-.06,1.43.24,1.73,1.73,1.75s1.94-.28,1.94-1.69q0-6.18,0-12.35c0-1.4-.41-2.87.74-4.09.18-.18.14-.61.13-.92a23.79,23.79,0,0,1-.1-3.47,41.41,41.41,0,0,1,1-4.49c0-.11.16-.18.2-.29.46-1.2.92-2.4,1.35-3.61.5-1.39,1-2.77,1.43-4.18a1.57,1.57,0,0,0-.16-1.31c-.59-.58-3.58-.25-4.18.39a11.7,11.7,0,0,0-3.23,6.18c0,.26-.27.47-.36.73a4.89,4.89,0,0,0-.49,1.64c0,1.08.21,2.12-.68,3-.22.23-.17.76-.17,1.15l0,15.94a3.61,3.61,0,0,0,.14.93C90.14,36.8,90.51,37.88,90.87,39ZM27.1,84.14v-.07a12.25,12.25,0,0,0,2.26.09,1.64,1.64,0,0,0,1.11-.77,5.56,5.56,0,0,0,.82-2.28c.07-1.78.79-3.44.95-5.11a93.52,93.52,0,0,0-.08-10.18,2.14,2.14,0,0,1,.14-1,31.83,31.83,0,0,1,3.25-4.93,26.17,26.17,0,0,1,4.08-3.06c.52-.39,1.48-1.07,1.39-1.27-.42-1-1.41-.51-2.2-.5a1,1,0,0,0-.56.2,31.43,31.43,0,0,0-3.72,2.94,46.6,46.6,0,0,0-4.61,5.43,48,48,0,0,0-3.37,5.77c-.74,1.42-1.29,3-1.91,4.45a1,1,0,0,0-.1.58c.42,1.78-1.08,3.08-1.19,4.73a21.74,21.74,0,0,0-.3,3.49A1.79,1.79,0,0,0,25,84.14C25.67,84.15,26.38,84.14,27.1,84.14Zm97.48,19.09a4.14,4.14,0,0,0,0-1c-.17-.59-.25-1.49-.65-1.69-.83-.42-1.37.39-1.75,1a2.42,2.42,0,0,0-.33,1.24c.08,2.42.22,4.85.32,7.27,0,.21-.06.54-.19.61a.72.72,0,0,1-.63-.14,7.67,7.67,0,0,1-1-1.61c-.55-1.34-1-2.72-1.51-4.09-.29-.85-.52-1.72-.81-2.56-.11-.31-.25-.77-.46-.83a1.12,1.12,0,0,0-.92.36,2.21,2.21,0,0,0-.27,2.67,8.88,8.88,0,0,1,.6,1.29c1,2.79,1.82,5.61,4.91,6.93,1,.43,1.8.73,2.73-.11a2.53,2.53,0,0,1,1.35-.32c1.18-.11,1.44-.62.85-1.66-.73-1.28-1.88-2.43-1.41-4.14a.78.78,0,0,0-.2-.66A2.52,2.52,0,0,1,124.58,103.23Zm9.75,8.32c.18-.1.69-.2.79-.46a1.19,1.19,0,0,0-.34-1,3.41,3.41,0,0,0-1.46-1,2.74,2.74,0,0,1-2-2.14c-.12-.38-.06-.88-.29-1.14a7.57,7.57,0,0,0-1.42-1,4.49,4.49,0,0,0-.35,1.69,4.83,4.83,0,0,0,1.06,2.12c.92,1,2.25,1.55,3,2.77C133.41,111.52,133.85,111.47,134.33,111.55ZM18.4,85.8h0a10,10,0,0,0,0-1.9c-.05-.28-.49-.49-.76-.73-.21.24-.61.48-.62.73a28,28,0,0,0,0,3.55c0,.26.46.6.76.68.15,0,.57-.4.62-.67A8.36,8.36,0,0,0,18.4,85.8Z"></path><path d="M123.45,19.55a3.49,3.49,0,0,1,.06,1.32,6.81,6.81,0,0,1-1,1.91.88.88,0,0,1-.85.12c-.25-.16-.53-.63-.46-.85a2.88,2.88,0,0,0-.64-3c-.22-.27-.09-.84-.11-1.27,0-.87-.07-1.75,0-2.62a5.27,5.27,0,0,1,.38-1.23c.45.19,1.12.26,1.31.6.71,1.29,1.8,2.5,1.37,4.18A4.68,4.68,0,0,0,123.45,19.55Z"></path><path d="M118.56,151.28l1.78,1.48c-.41.23-.89.72-1.21.63a7.62,7.62,0,0,1-1.79-1Z"></path><path d="M36.47,108.82a1.26,1.26,0,0,1,1.28,1.89c-.56,1.25-1.08,2.52-1.58,3.79a2.67,2.67,0,0,0-.07.94c0,1.56-.05,3.12,0,4.67,0,.71.41,1.39.51,2.11a13.52,13.52,0,0,1,.13,2.84c0,.28-.61.73-.94.72s-.73-.43-.93-.78c-.48-.87-.81-1.82-1.29-2.69a2.59,2.59,0,0,0-3.37-1.17c-.37.18-.51.81-.82,1.19a3,3,0,0,1-1,1c-.21.09-.84-.26-.92-.52a2.45,2.45,0,0,1,.11-1.41,29.54,29.54,0,0,0,1.36-3.63A7,7,0,0,1,30.85,114a5.45,5.45,0,0,0,.56-.9,8.91,8.91,0,0,1,1.28-1.81A38.59,38.59,0,0,1,35.9,109,1.86,1.86,0,0,1,36.47,108.82ZM34,116.14a4.21,4.21,0,0,0-1-.9c-.41-.19-1.85,1.63-1.67,2.27a2,2,0,0,0,1.21,1.15C33.21,118.84,34,117.64,34,116.14Z"></path><path d="M39.61,112.37a2.28,2.28,0,0,1,1.12-2.5c1-.64,2.23-.09,2.06,1.09a11.2,11.2,0,0,1-1.22,3.29c-.13.27-.9.44-1.26.31s-.58-.66-.74-1.06A3.18,3.18,0,0,1,39.61,112.37Z"></path><path d="M94.63,79c0,1,0,1.91,0,2.87a1.77,1.77,0,0,0,.22,1,2.87,2.87,0,0,1,.56,2.45A2.23,2.23,0,0,0,96,86.68a1.65,1.65,0,0,1,.12,2.19,1.54,1.54,0,0,1-1,.61c-.25,0-.6-.45-.76-.77-.44-.85-.79-1.74-1.19-2.61a2.1,2.1,0,0,0-2-1.4c-1,0-1.36.63-1.75,1.37-.19.35-.63.56-1,.84-.08-.4-.31-.83-.22-1.18a24.49,24.49,0,0,1,1-3.15c.79-2,1.63-4,2.46-5.92.46-1.08,1.44-1.24,2.08-.27A25.41,25.41,0,0,1,95,78.88Zm-3.87,2.78a6.3,6.3,0,0,0,1.54.94c.2,0,.79-.6.74-.76a5.25,5.25,0,0,0-.89-1.24Z"></path><path d="M98.62,77.39c.21-1.1,1.28-2.5,1.92-2.27s1.7,1.11,1.61,1.4a10.7,10.7,0,0,1-1.6,2.56Z"></path><path d="M140.92,139.38c-.94-.57-1.94-1.14-2.86-1.8-.13-.09,0-.73.14-.93a1,1,0,0,1,.94-.2c2.4,1.61,4,0,5.75-1.3a5.58,5.58,0,0,1,1.17-.81,2.73,2.73,0,0,1,1.11.12,4,4,0,0,1-.27,1.06,2,2,0,0,1-.7.64c-1.58,1-3.17,2-4.76,3C141.3,139.21,141.15,139.27,140.92,139.38Z"></path><path d="M124.87,127.17c-.15-.47-.53-1-.38-1.3a8.32,8.32,0,0,1,1.69-1.82c.11-.09.6.26.92.4-.49.81-1,1.63-1.48,2.43C125.55,127,125.34,127,124.87,127.17Z"></path></svg>