<svg xmlns="http://www.w3.org/2000/svg" id="Layer_1" data-name="Layer 1" viewBox="0 0 95.78 97.06"><title>AsimovMarketingIcon-bt-omar bahaa</title><path d="M0,48.78c0-10.18,0-18.34,0-26.5a25,25,0,0,1,.52-3.72,18.57,18.57,0,0,1,.57-3.36A13.41,13.41,0,0,1,9.67,6.89a21.73,21.73,0,0,1,8.44-1.12c1.4.06,2.8,0,4.2,0S24,5.46,23.93,4c0-.76-.09-1.52-.11-2.27C23.78.51,24.3,0,25.52,0L63.8.08a5.77,5.77,0,0,0,.72,0c2.1-.15,2-.14,2.87,1.75A3,3,0,0,0,68.62,3a3.12,3.12,0,0,1,1.75,2c.08.34.82.75,1.26.75,4.6,0,9.2,0,13.8,0,3.13,0,7.51,2,8.62,6a27.22,27.22,0,0,1,1.33,8.57A85.33,85.33,0,0,0,95.4,34c.51,4.27.14,8.51.37,12.75.09,1.63-.39,3.29-.41,4.94,0,5.4,0,10.8,0,16.2a13.76,13.76,0,0,1-.68,2.89c-.67,2.74-1.5,5.5-3.61,7.44-2.71,2.5-5.76,4.58-9.7,4.68a1.64,1.64,0,0,0-.71.07c-1.56.92-3.27.54-4.92.54-4.92,0-9.84,0-14.76-.06-1.4,0-1.55.21-1.56,1.59,0,2.1.47,4.23-.45,6.27-.8,1.8-1.62,3.64-3.47,4.58-1.53.77-3.11,1.8-5,.73a2.52,2.52,0,0,0-1.18-.12l-13.43.08a3.63,3.63,0,0,1-3-2.84C32.74,92.93,34,91,35,90.57c2.1-1,2.08-1,2-3.28,0-.8,0-1.6,0-2.39,0-1-.35-1.5-1.4-1.49q-12.18.09-24.35.13a6.68,6.68,0,0,1-1.51-.28,6.07,6.07,0,0,0-1.74-.36C4.93,83.2.89,79.18.49,75.7-.6,66.05.55,56.4,0,48.78Zm79.15-8.49h0c0-5.8,0-11.59,0-17.39a4.86,4.86,0,0,0-4.89-5c-.88,0-1.77,0-2.64,0-1.1-.06-1.5.44-1.49,1.5q.06,13.14.06,26.27a5.58,5.58,0,0,1-.59,2.15,1.14,1.14,0,0,1-1.62.54c-2.51-.9-5.06-1.74-7.58-2.62-3.9-1.37-7.79-2.8-11.71-4.12a4.07,4.07,0,0,0-2.19,0c-1.34.36-2.62.95-4,1.38-4.13,1.32-8.28,2.6-12.42,3.93-1.87.6-2.85-.07-2.8-2,0-1.2-.56-1.87-1.65-1.9-1.93-.06-2.42-.58-2.31-2.57.16-2.81.44-5.61.5-8.43.1-4.15.05-8.31.07-12.47,0-1.61-.58-2.15-2.18-2.1-1.08,0-2.16-.06-3.23,0-.54,0-1.37,0-1.55.35a16,16,0,0,0-1.76,3.95,37.54,37.54,0,0,0-.62,4.76c0,.12-.11.22-.13.34-.16.92-.32,1.85-.47,2.77s-.25,1.55-.38,2.32a8.25,8.25,0,0,0-.21,1.29c0,5.92,0,11.84.05,17.75,0,1.42-.34,2.88.52,4.21a1.37,1.37,0,0,1,0,.71,3.44,3.44,0,0,0,2.49,3.81c1.54.48,3.15.76,4.73,1.11a23.72,23.72,0,0,0,3.48.74,46.89,46.89,0,0,0,5,0c2.33-.08,4.73.47,7-.66a2.21,2.21,0,0,1,1.06,0c3.27.34,6.53,0,9.85.55,4.43.72,9,.16,13.58.53S70.5,62,75.14,62a3.85,3.85,0,0,0,4-4ZM44.27,67v0c-9.56,0-19.11,0-28.67,0a13,13,0,0,1-5.12-1,7.27,7.27,0,0,1-3.69-5.55q.06-19.3.08-38.62a9,9,0,0,1,.06-2.14c.76-2.78,4.33-5.68,7.22-5.57a38.3,38.3,0,0,0,8.29-.47A2,2,0,0,0,24,11.48c0-1.09-.52-1.56-1.66-1.52-2,.06-4.08.07-6.11,0a13.32,13.32,0,0,0-5.14.81A9.83,9.83,0,0,0,4.4,20.25c0,16.31,0,32.63-.08,48.94a13.41,13.41,0,0,0,2.21,7,2.68,2.68,0,0,0,1.78,1.21c2.6.16,5.22.27,7.82.4,5.95.3,11.92,0,17.87.12s11.9-.18,17.9.43c6.89.69,13.9.16,20.86.13a5.62,5.62,0,0,1,3.12.49,2.22,2.22,0,0,0,1.5,0c4.06-1.22,6.39-4.22,7.85-8a9,9,0,0,0,.45-3.14c0-1.14-.39-2.27-.39-3.4Q85.21,42,85.21,19.59c0-2.14.21-4.27-.54-6.37-.38-1.05-2.38-3.26-3.4-3.26-3.32,0-6.64,0-10,0-.73,0-1.14.35-1.12,1.08.07,3.11-.67,3.29,2.85,3.14h.6a7.44,7.44,0,0,1,8,7.68c0,12.44,0,24.88,0,37.31a10.64,10.64,0,0,1,0,2A7.85,7.85,0,0,1,74.38,67ZM25.89,21.5h0V39c0,1.19.48,1.64,1.52,1.31,2.7-.85,5.37-1.82,8.1-2.56C39.36,36.7,43.13,35,47.3,35.28a14.55,14.55,0,0,1,2,.32c2.09.45,4.17.94,6.26,1.38,2.58.55,5.18,1,7.75,1.61,1,.23,1.56,0,1.59-1.1,0-.64-.08-1.28-.07-1.92q0-15.64.09-31.31c0-1.61-.61-2.26-2.24-2.26H28.22c-1.9,0-2.34.47-2.34,2.34Q25.9,12.92,25.89,21.5ZM46.68,91.06c1.28,0,2.56,0,3.84,0,1.88,0,1.87,0,2.41-1.8,0-.11.09-.22.14-.33.77-1.87.24-2.67-1.82-2.68q-3.48,0-7,0a11.37,11.37,0,0,0-2.62.15c-1.13.29-.81,1.51-1.16,2.31-.71,1.61-.28,2.3,1.48,2.34C43.56,91.09,45.12,91.06,46.68,91.06Z"></path><path d="M42.57,73.23c0-2.17.06-2.19,1.51-2.17,1.89,0,3.12,1,3.08,2.29,0,1.14-1.52,2.29-2.95,2.28S42.53,75.32,42.57,73.23Z"></path><path d="M60.67,14c0,1.6,0,3.2,0,4.8,0,1.26-.37,1.55-1.68,1.5a47.34,47.34,0,0,0-6.94-.06,18,18,0,0,0-4.64,1.52,7.85,7.85,0,0,1-4.54.79c-1.71-.37-3.51-.49-5-1.65a4.14,4.14,0,0,0-2.17-.7c-1.23-.09-2.47.05-3.71.07-1.43,0-1.93-.55-1.91-2,0-2.84,0-5.67,0-8.51a1.48,1.48,0,0,1,1-1.58A1.74,1.74,0,0,1,32,8c2.5.46,4.29-.53,6-2.37A5.22,5.22,0,0,1,42.49,4c1.81.21,3.7-.38,5.43.54a14.55,14.55,0,0,1,2.51,1.54,5,5,0,0,0,3.79,1.44c1.51-.12,3-.1,4.55-.15,1.27-.05,1.88.52,1.88,1.75V14Zm-24.59-.54c0,3,1.13,5.14,3.39,6.14a11.87,11.87,0,0,0,8.83,0,4.16,4.16,0,0,0,2.12-1.8,9.82,9.82,0,0,0,.93-6.44c-.5-2.94-4-5.25-6-5.38s-4.21,0-6.06,1.54S35.71,10.73,36.08,13.49Zm22.53.67h-.06a23,23,0,0,0,0-3.11A1.5,1.5,0,0,0,57.58,10a17.44,17.44,0,0,0-3.23,0c-.71,0-1.18.5-1,1.2A6.94,6.94,0,0,1,53,16.84c-.51,1-.15,1.37,1,1.39s2.16,0,3.23,0,1.44-.47,1.4-1.47S58.61,15,58.61,14.16Zm-26.53.28h0v2.64c0,.85.4,1.3,1.26,1.16s1.61-.53,1.23-1.49c-.73-1.89-.42-3.77-.23-5.67.1-1-.39-1.45-1.22-1a2.51,2.51,0,0,0-1,1.57A14.84,14.84,0,0,0,32.08,14.44Z"></path><path d="M45,27.6H33.89a1.39,1.39,0,0,1-.81-.13,9.83,9.83,0,0,1-1-1.17c.45-.23.89-.67,1.34-.67,3.91,0,7.91.5,11.72-.13,4.51-.74,9,.05,13.45-.54.38-.05,1.13.28,1.16.51a1.46,1.46,0,0,1-.52,1.26,6.8,6.8,0,0,1-2.64.77c-3.84.08-7.67,0-11.51,0Z"></path><path d="M39.2,29.13c1.31,0,2.64.06,3.95,0a15.4,15.4,0,0,0,2.19-.43,6.66,6.66,0,0,1,1.15-.22c2.16,0,4.31,0,6.46.06a9.51,9.51,0,0,1,1.19.08c1.21.14,2.42.25,3.62.47a3.8,3.8,0,0,1,1.62.7,1.22,1.22,0,0,1-.16,1.12,4.82,4.82,0,0,1-1.92.49,10.44,10.44,0,0,1-2-.3l-2-.32a7.7,7.7,0,0,0-1.62-.26c-2.33.15-4.68-.31-7,.59-.86.33-2,0-3,0-2.51,0-5,.09-7.54,0-.57,0-1.57-.43-1.61-.74-.1-.92.79-1.25,1.55-1.28,1.67-.08,3.35,0,5,0Z"></path></svg>