<svg xmlns="http://www.w3.org/2000/svg" id="Layer_1" data-name="Layer 1" viewBox="0 0 96.83 72.38"><title>AsimovMarketingIcon-bt-omar bahaa</title><path d="M6.73,29.06c.59.76.94,1.22,1.3,1.66s.52.61.79.92c.32-.31.75-.55.94-.93,1.93-3.71,3.68-7.53,5.78-11.14,1.4-2.42,4-3.62,6.44-4.84,5.71-2.88,11.48-5.62,17.27-8.34,4.44-2.08,9-4,13.39-6.09a4.33,4.33,0,0,1,3.11,0c2.51.61,5.07,1,7.6,1.56,2.68.56,5.36,1.15,8,1.72,1.52.33,3.08.54,4.56,1A37.88,37.88,0,0,1,80.6,6.43C81.74,7,81.75,8.17,82,9.2c.09.39,0,.81.11,1.19.19.87.76,1.11,1.5.62a8.19,8.19,0,0,1,1.23-.94A4,4,0,0,1,86.18,10c-.15.43-.19,1-.49,1.26-.88.69-1.86,1.24-2.8,1.84a2.12,2.12,0,0,0-.9,2.15c.11,3.79.06,7.59.12,11.39a11.78,11.78,0,0,0,.38,2.09,6,6,0,0,1,.22.68,28.71,28.71,0,0,1,.35,4.22c-.15,2.89-1.18,5.36-4,6.66a2.51,2.51,0,0,0-1.58,2.25c-.36,2.42-.57,5-2.83,6.63a8.5,8.5,0,0,1-1.9.9c-.44.16-1,.1-1.38.34-1.54.92-2.64.23-3.69-.87-1.31-1.37-1.36-1.43-2.86-.43C59.22,52.87,53.63,56.67,48,60.44L46,61.86a5,5,0,0,0-2.25,3.48c-.45,2.54-1.33,5-3.61,6.53a3.86,3.86,0,0,1-1.74.48,6.4,6.4,0,0,1-1.9-.1,4.23,4.23,0,0,1-3.27-2.35,2,2,0,0,0-2.1-1.23,56.29,56.29,0,0,1-8.33-.35A88.1,88.1,0,0,1,11.18,65.6,82.66,82.66,0,0,1,2.7,62,3.06,3.06,0,0,1,.8,59.68C.5,58.08.27,56.46,0,54.85a1.3,1.3,0,0,1,0-.59C1.57,50.87.33,47,2,43.62c.83-1.69,1.64-3.38,2.52-5a3,3,0,0,0,.16-2.95,4.2,4.2,0,0,1-.17-2.1A9.6,9.6,0,0,1,5,30.75C5.28,30.17,6,29.78,6.73,29.06Zm73.9-8.8h.06c0-1.08,0-2.16,0-3.23a20.09,20.09,0,0,0-.36-2.15c-.67.33-1.32.71-2,1a7.93,7.93,0,0,1-1.47.26c.16-.47.19-1.11.52-1.38a19.81,19.81,0,0,1,2.53-1.57c1.22-.7,1.29-3.2.08-3.86a1.24,1.24,0,0,0-1,0c-2.15,1.13-4.29,2.27-6.41,3.47-3.54,2-7,4.12-10.61,6.05-2.66,1.45-5.44,2.68-8.17,4-.65.31-1.37.65-.7,1.49a6.05,6.05,0,0,1,1.17,4.14c-.06,2-.57,4.05-.43,6A3.38,3.38,0,0,1,51.87,38c-1.3.78-2.63,1.51-3.95,2.27a38.35,38.35,0,0,1-3.64,2A2.36,2.36,0,0,1,42.44,42c-.27-.15-.35-.94-.26-1.38.37-1.7.83-3.38,1.28-5,.12-.46.2-1.06.52-1.31,1.27-1,.94-2.58,1.25-3.85a4.32,4.32,0,0,1,.83-2.3,2.59,2.59,0,0,0,.38-1.31c0-.07-.55-.35-.66-.27-.4.27-.92.6-1,1-.29,1-.34,2-.54,3A7,7,0,0,1,43.7,32c-.14.33-.39.61-.5.94-.79,2.31-1.5,4.67-2.37,7-.74,2-1.6,3.9-2.52,5.79-1.85,3.83-3.78,7.62-5.65,11.44-.44.89-.13,1.37.87,1.44a6.9,6.9,0,0,0,2,0c1.49-.35,3.09-.33,4-2.06a6.8,6.8,0,0,1,2.71-2.26,2.12,2.12,0,0,1,2,.13,2.15,2.15,0,0,0,3,0c.91-.65,1.83-1.28,2.73-1.93,1.66-1.19,3.29-2.41,5-3.56.29-.19.78-.1,1.18-.14-.09.38-.07.88-.31,1.13a14.08,14.08,0,0,1-1.94,1.58c-1.17.83-2.4,1.58-3.55,2.44-.32.24-.45.74-.68,1.12A3.81,3.81,0,0,0,51,54.82c1-.55,1.94-1.43,3.3-1,.24.08.64-.24.94-.43,2.57-1.62,5.11-3.28,7.69-4.87,1.94-1.19,4-2.24,5.86-3.48a3.3,3.3,0,0,0,1-1.73c.64-2.05,1-4.2,1.83-6.16a11.51,11.51,0,0,1,2.59-3.07,1.32,1.32,0,0,1,1.2-.23c1.35.77,2.26.19,3.13-.79a4.88,4.88,0,0,1,1.13-.89,2.71,2.71,0,0,0,1.45-2.79C81,26.37,80.81,23.32,80.63,20.26ZM44.15,25.45c.83-.35,2.12-.85,3.37-1.44,4.8-2.26,9.66-4.41,14.36-6.86,5.43-2.81,10.71-5.89,16-8.88a4.56,4.56,0,0,0,.91-1,4.12,4.12,0,0,0-1.19-.81C75.09,5.84,72.52,5.27,70,4.7c-3.86-.85-7.74-1.63-11.57-2.56a10,10,0,0,0-6.67.4c-1,.42-1.94.74-2.88,1.17-4.09,1.91-8.17,3.85-12.25,5.76-4.56,2.13-9.14,4.2-13.67,6.39a38.68,38.68,0,0,0-4.4,2.66A1.41,1.41,0,0,0,18,19.59c0,.21.56.47.91.58.57.18,1.17.23,1.75.37,2.94.75,5.85,1.6,8.8,2.24,3.3.72,6.63,1.28,10,1.89C40.8,24.93,42.21,25.13,44.15,25.45ZM32.62,52.61a6.75,6.75,0,0,0,1.09-1.25c1.34-2.5,2.63-5,3.9-7.57a1.44,1.44,0,0,0,.11-1.09c-.08-.19-.63-.25-1-.22-1.63.11-3.25.41-4.87.39s-3-.48-4.57-.55a24.56,24.56,0,0,1-9.17-1.88c-2.91-1.32-5.81-2.66-8.61-4.19-1.69-.93-1.84-1-2.71.75-1,2.07-2.09,4.14-3.19,6.18C3,44.42,3.14,45,4.5,45.39s2.87.64,4.31,1L26.47,50.7c1.87.47,4,0,5.53,1.73C32.07,52.51,32.23,52.5,32.62,52.61ZM14.92,36.53c.3.4.59,1.21,1.12,1.42,2.45,1,4.94,1.8,7.45,2.58.84.26,1.38-.23,1.29-1.2a3.35,3.35,0,0,1,1.54-2.95c2.28-1.82,2.48-2.47,1.38-5.23a5.14,5.14,0,0,1,.46-5.22c.93-1.32.56-1.95-1.07-2.22-1.22-.2-2.43-.47-3.62-.78-.85-.22-1.72-.73-2.47.07s-.48,1.83-.09,2.8a2.56,2.56,0,0,1,.24,1.6c-.65,1.87-1.5,3.81-3.45,4.54C15.56,32.75,15.46,34.51,14.92,36.53ZM35.8,41.34c.6-.37,1.77-.75,1.78-1.15,0-1.65,1-2.84,1.66-4.18a4.79,4.79,0,0,0,.21-3.71,7.76,7.76,0,0,1,0-4.79A1.63,1.63,0,0,0,39,26.2a2.92,2.92,0,0,0-1.32-.5c-1.46-.41-2.37.2-2.18,1.71s.79,3.05,1.1,4.6a6.56,6.56,0,0,1,.26,3.22A22.63,22.63,0,0,1,34.54,39,2.63,2.63,0,0,0,34,40.65C34.09,40.94,35,41.05,35.8,41.34ZM37,66.77c-.21,1.29-.3,2.68,1,3.63a1.63,1.63,0,0,0,1.38.24,2,2,0,0,0,1-1.3,6.25,6.25,0,0,0-.39-2.68,1.43,1.43,0,0,1,.53-1.93,2.83,2.83,0,0,0,1.15-3c-.17-.63.08-1,.71-1.12.32-.09.85-.52.81-.62a3.92,3.92,0,0,0-.91-1.59,1.32,1.32,0,0,0-1.26.12C38.42,60.65,36.69,63.18,37,66.77Zm36.1-18.22a5.22,5.22,0,0,0,1.08-.73.94.94,0,0,0,0-.85c-.95-.49-1.16-1.09-.53-2,.08-.11,0-.41-.08-.56a1.21,1.21,0,0,1,.31-1.7,1.37,1.37,0,0,0,.28-1.82c-.18-.37,0-.9,0-1.36a9.88,9.88,0,0,0,.92.81,7.53,7.53,0,0,0,1,.5,2.93,2.93,0,0,0,.28-1.12,4.73,4.73,0,0,0-.54-1.42c-.26-.51-.65-1.43-.87-1.4a2.67,2.67,0,0,0-1.73.93,14.91,14.91,0,0,0-2.23,9C71,48,71.62,48.52,73.05,48.55ZM26,55.41a3,3,0,0,0,3.13,3.19,2.93,2.93,0,0,0,2.59-3c0-1.43-1.39-3.1-2.64-3.09C27,52.57,26,53.53,26,55.41ZM18.74,66c.26-.21.93-.49,1-.91.2-.84-.48-1.13-1.24-1.24a42.37,42.37,0,0,1-4.34-.77c-1.72-.45-3.38-1.15-5.1-1.65-.41-.12-.92.14-1.39.23A5.28,5.28,0,0,0,8.36,63c.23.27.71.32,1.09.45,1.66.56,3.32,1.16,5,1.64C15.75,65.43,17.09,65.63,18.74,66ZM52.26,32.38a6.35,6.35,0,0,0-.53-1.47c-.75-1.12-1.64-2.14-1.68-3.62,0-.59-.57-.75-1-.29a2.93,2.93,0,0,0-.23,3.28c1.07,1.6,1.77,3.21.39,5.06-.29.39-.36,1.45-.1,1.66.71.56,1.46,0,1.75-.66C51.41,35.05,51.8,33.67,52.26,32.38ZM5.57,50.11c0-1.66-.85-3-1.91-3-.87,0-1.43.74-1.43,2a2.48,2.48,0,0,0,2,2.56C5.35,51.62,5.61,50.94,5.57,50.11ZM46.71,56a8.47,8.47,0,0,0-.77,1c0,.05.45.48.5.45a2.66,2.66,0,0,0,.79-.74C47.28,56.62,47,56.31,46.71,56Z"></path><path d="M87.3,15.48c-.12-.37-.36-.73-.28-1a1.67,1.67,0,0,1,.75-.71c2.63-1.58,5.25-3.15,7.9-4.67a3.32,3.32,0,0,1,1.16-.19c-.1.39-.09.87-.33,1.15a5.16,5.16,0,0,1-1.39,1.11c-2.32,1.33-4.65,2.63-7,3.93C88,15.21,87.77,15.28,87.3,15.48Z"></path><path d="M83.81,18.88c.56-.34.86-.65,1.16-.65s.44.41.65.64c-.25.21-.48.55-.75.59S84.34,19.18,83.81,18.88Z"></path><path d="M76.16,23.53c.17,3.38-1.87,5.57-4.07,7.7a7.79,7.79,0,0,1-4,1.72A5.08,5.08,0,0,1,62,27.87c.19-4.92,2.48-8.44,6.76-9.78a13.72,13.72,0,0,1,4.84-.26c1.11.06,2.57,2.63,2.6,4.14C76.17,22.49,76.16,23,76.16,23.53Zm-10.38,3.7.78.94a8.8,8.8,0,0,0,1-1A11.59,11.59,0,0,0,68.31,26a6.36,6.36,0,0,0,.91.82,4.53,4.53,0,0,0,1,.34c.12-.39.43-.84.32-1.16A29.75,29.75,0,0,0,69,22.19c-.19-.37-.76-.56-1.16-.83a6.3,6.3,0,0,0-.67,1.14c-.36,1.12-.65,2.27-1,3.4C66.13,26.28,66,26.65,65.78,27.23Z"></path><path d="M57.34,39.63l-1,1.27c-.39-.48-1.09-1-1.07-1.44s.71-1,1.11-1.45Z"></path><path d="M28.44,44.2c-.39.21-.52.34-.66.33-3.81-.05-7.66.19-11.22-1.63a22.72,22.72,0,0,0-2.36-.84,3,3,0,0,1-1.08-.48,5.38,5.38,0,0,1-.67-1.23c.43-.06.92-.28,1.29-.16,1.4.48,2.72,1.18,4.13,1.58,2,.56,4,1,6,1.37,1.12.21,2.28.23,3.4.41A4.57,4.57,0,0,1,28.44,44.2Z"></path></svg>