<svg xmlns="http://www.w3.org/2000/svg" id="Layer_1" data-name="Layer 1" viewBox="0 0 171.52 144.42"><title>AsimovMarketingIcon-bt-omar bahaa</title><path d="M170.38,33.93c.24.73.6,1.73.91,2.75a3.85,3.85,0,0,1,.17,1.17c0,1-.09,2.09,0,3.11a2.61,2.61,0,0,1-1.62,2.77c-2,1.16-3.89,2.43-5.84,3.65-1.38.86-2.75,1.73-4.18,2.51a3.66,3.66,0,0,1-1.71.33,2.25,2.25,0,0,0-2.49,2.38,11.14,11.14,0,0,1-1.7,6.3,31.15,31.15,0,0,0-2.42,6.38c-.45,1.51-1,3-1.41,4.5a3.71,3.71,0,0,0-.16,1c0,4-.16,7.93.06,11.87.09,1.63.72,3.24.87,4.94.11,1.25,1,2.43,1.51,3.65a.74.74,0,0,1,.12.46c-.53,1.65.7,2.76,1.24,4.08a34.45,34.45,0,0,0,1.78,4.39,6.67,6.67,0,0,1,1,4.89c-.22,1,.33,1.57,1.36,1.4,3.05-.51,5.32,1.14,7.64,2.7a10.11,10.11,0,0,1,2.18,1.42c1.28,1.51,2.71,3,3,5.12.09.75.59,1.44.76,2.19.24,1.13-.52,2.14-.64,3.15a4.85,4.85,0,0,1-2.24,3.49c-2.4,1.73-4.75,3.59-7.77,4.25a24.69,24.69,0,0,1-3.42.77c-1.55.14-3,1-4.55,1.52a4.6,4.6,0,0,1-1.05.16c-.36,0-.8-.12-1.06.05-2.08,1.32-4.36.47-6.53.67a7.67,7.67,0,0,0-1.77.54,4.59,4.59,0,0,1-1.21.42c-5.91,0-11.83,0-17.74,0a1,1,0,0,1-.58-.09c-1.86-1.59-4.08-.62-6.12-.88-.79-.11-1.56-.44-2.35-.56a19.16,19.16,0,0,1-4.26-1.14c-.39-.16-1.43.43-1.69.93a13.79,13.79,0,0,1-7.35,6.35c-1,.43-2.12.62-3.18.95-2.65.83-5.27,1.73-7.94,2.48a18.85,18.85,0,0,1-2.73.13,16,16,0,0,0-1.88.54,4.41,4.41,0,0,1-1.47.25,3.19,3.19,0,0,0-2.7.58.77.77,0,0,1-.53.25c-2.74-.32-5.27,1.37-8,.78a3.63,3.63,0,0,0-3.08.63,2.05,2.05,0,0,1-1.15.22c-2.67,0-5.35,0-8,0a2.07,2.07,0,0,1-1.27-.51c-.44-.42-.45-.93.28-1.18a7.63,7.63,0,0,1,1-.34c1.86-.33,3.73-.62,5.59-.94a5.24,5.24,0,0,0,1.39-.44,1.25,1.25,0,0,0-.23-.92c-.45-.32-1.24-.82-1.5-.65-2.26,1.49-4.76.47-7.11.82a14.71,14.71,0,0,0-1.8.52,6.92,6.92,0,0,1-1.57.43c-1.2,0-2.4,0-3.59-.08-.24,0-.55-.05-.71.07-1.77,1.44-3.84.64-5.77.79-1.21.09-2.47.33-3.51-.68-.23-.22-.77-.15-1.16-.15-1.33,0-2.61.2-3.9-.66a23.93,23.93,0,0,0-4.16-1.72,12.83,12.83,0,0,1-4.84-3.41c-1.38-1.55-3-2.9-4.36-4.45a25.39,25.39,0,0,1-2.37-3.42,2,2,0,0,1-.21-1c.05-4,.13-8,.17-12a1.52,1.52,0,0,0-.25-1c-.94-.91-.76-2-.75-3.14.05-5,.19-9.92,0-14.87-.05-1.26,0-2.47,0-3.72.13-4,.07-7.92.07-11.88,0-.31,0-.73-.13-.92-1-1.08-.56-2.32-.58-3.54a7.9,7.9,0,0,0-.54-2c0-.07-.11-.12-.13-.2a41.14,41.14,0,0,1-1.06-4.72c-.14-1.27.36-2.62-.69-3.75-.19-.21-.07-.69-.15-1-.15-.63-.33-1.27-.52-1.89-.09-.26-.36-.51-.34-.75.11-1.42-.79-2-1.87-2.58A48.16,48.16,0,0,1,2.2,48.66a20.72,20.72,0,0,1-2-2.95,2.1,2.1,0,0,1-.16-1A21.19,21.19,0,0,0,.06,42C-.25,39.82.79,38,1.5,36a25.74,25.74,0,0,0,.93-2.77A33.78,33.78,0,0,1,5.5,25.47c.44-.88,1.12-1.63,1.65-2.47a28.53,28.53,0,0,1,5.71-6.39,68.41,68.41,0,0,1,5.89-4.41,28.11,28.11,0,0,1,3.87-2.32C25.4,8.53,28.26,7.35,31,6c3.09-1.48,6.13-3.08,9.21-4.58A8.08,8.08,0,0,1,42.17.94c.34-.07.81.05,1-.14,1-.88,2.14-.69,3.3-.7,3,0,5.92-.2,8.87,0,1.36.07,2.68.87,4,1.27s2.86.72,4.29,1.08c.38.09.75.23,1.13.32a13.13,13.13,0,0,0,2.71.63c1,0,2.07-.12,2.93.69a.6.6,0,0,0,.44.16A8.79,8.79,0,0,1,75.27,5a39.17,39.17,0,0,0,4.08,1A19.29,19.29,0,0,1,83,7.36c1.42.76,2.64,1.9,4.07,2.65,3.41,1.78,4.35,5.28,6,8.28A12.47,12.47,0,0,0,95,21.14a2.23,2.23,0,0,0,2,.16c2.58-1.32,5-2.88,7.61-4.2,2.07-1.07,4.24-2,6.41-2.85,1.16-.46,2.43-.65,3.63-1a4.49,4.49,0,0,0,1.12-.64c.86-.58,1.39-.41,1.93.5a38.26,38.26,0,0,0,2.37,3.67c.26.36.88.46,1.35.63.22.09.53,0,.7.12,2,1.51,4.26.51,6.39.69.92.08,1.93-.6,2.87-1,2.55-1.08,5.08-2.24,7.65-3.3,2-.83,4.2-1.29,6-2.39s3.32.12,4.88.57a12.92,12.92,0,0,1,2.89,1.42c2.36,1.39,4.61,3,7,4.23,2.72,1.42,4.64,3.69,6.53,5.9a13.19,13.19,0,0,1,3.38,6.05C170.09,31,170.91,32.13,170.38,33.93ZM81.63,80.06h.14c0-2,.06-4,0-6a11.86,11.86,0,0,0-.61-3c-.12-.36-.59-.62-.9-.92a4.64,4.64,0,0,0-.48,1.33c0,1.28.14,2.57,0,3.84-.16,2.14.7,4.4-.71,6.41-.08.11,0,.31,0,.47,0,5.72,0,11.44.14,17.15,0,2-.56,4.16.78,6.06.16.22-.25.92-.53,1.32a1.07,1.07,0,0,1-.8.18,3.25,3.25,0,0,1-.33-1.19c-.06-.63,0-1.28,0-1.9a27,27,0,0,1-.74-3.9c0-8.16.07-16.32.12-24.47,0-1.5-.3-3,.69-4.4a2.32,2.32,0,0,0,.18-1.28c0-2.76-.12-5.52-.06-8.28a11.17,11.17,0,0,1,.67-2.43c.12-.41.36-.89.24-1.23-.46-1.3-1.09-2.53-1.57-3.82-.71-1.9-1.33-3.82-2-5.74-.06-.18,0-.39,0-.59,0-4,0-8.08,0-12.12a6.88,6.88,0,0,1,.44-1.67c.44-1.59.89-3.18,1.32-4.78,0-.17-.07-.39-.07-.59a1.63,1.63,0,0,1,.1-.7,34.6,34.6,0,0,0,2-4.53,75.83,75.83,0,0,1,3.73-7.5,2.11,2.11,0,0,1,.66-.81c1-.62,1.08-1.06.07-1.64a59.15,59.15,0,0,0-5.65-2.78,25.79,25.79,0,0,0-3-.9L73,8.93c-.38-.11-.87-.08-1.14-.3-1.06-.91-2.29-.57-3.45-.52-.31,0-.68.47-.88.8a42,42,0,0,1-3,5.12c-2.5,3.06-5.34,5.83-9.17,7.24a3.62,3.62,0,0,1-1.48-.11A7.17,7.17,0,0,1,54.64,20c1.24-1.3,2.62-2.46,3.76-3.84,1.57-1.91,3-4,4.46-6,.31-.4.86-.63,1.15-1s.53-1,.37-1.34a1.51,1.51,0,0,0-1.25-.57,2.82,2.82,0,0,0-1.45.68c-.59.47-1,1.12-1.6,1.62-3.14,2.76-5.78,6-9.19,8.53a24.38,24.38,0,0,1-8,4c-3.47,1-7.3-2.15-7.25-5.93a4.6,4.6,0,0,0-.08-1.9,8.67,8.67,0,0,1-.82-4.48.89.89,0,0,0-1.57-.6,9,9,0,0,0-1.69,2.14c-.58,1.11-.89,2.37-1.44,3.5-1.25,2.55-2.58,5-3.86,7.58-.94,1.85-1.78,3.76-2.79,5.57-1.65,3-3.4,5.91-5.12,8.85a6,6,0,0,1-.71.81c-.32-.29-.85-.54-.89-.86a4.9,4.9,0,0,1,.25-1.8c.15-.59.4-1.16.6-1.75a4.63,4.63,0,0,1,.32-.88c1.73-2.89,3.49-5.77,5.22-8.66.29-.48.4-1.11.78-1.47,1.61-1.54,1.77-3.77,2.74-5.61a1,1,0,0,0,0-.7,1.87,1.87,0,0,1,.51-2c.64-.7.44-1.58-.36-1.67a3.1,3.1,0,0,0-1.9.38c-2.14,1.42-4.22,2.93-6.3,4.44-1.55,1.13-3.85,1.52-4,4,0,.14-.2.26-.25.41A5.19,5.19,0,0,0,13.84,23c0,3,.09,5.92,0,8.87,0,1.18-.15,2.29.65,3.3a1.62,1.62,0,0,1,.13,1.16A2.82,2.82,0,0,0,15.24,39c.26.3.18.89.28,1.34.37,1.65.74,3.29,1.12,4.94a10.47,10.47,0,0,1,.53,2c0,1.25-.4,2.57.74,3.58-.34,1.93.69,3.63.92,5.47a44.07,44.07,0,0,0,1,4.49c0,.07.12.13.14.2.45,1.58.94,3.16,1.33,4.76s.66,3.25,1,4.88c0,.14.21.25.26.4a7.53,7.53,0,0,1,.47,1.76c.06,1.11-.42,2.46.05,3.29A7,7,0,0,1,23.73,80q0,18.66-.09,37.31a2,2,0,0,0,.34,1.23,3,3,0,0,1,.66,2.69c-.59,3,.67,5.42,2.2,7.69a15.81,15.81,0,0,0,5.7,4.63,21.58,21.58,0,0,0,4.74,2.13,7.18,7.18,0,0,0,3.41.56.78.78,0,0,1,.58.11c1.6,1.29,3.52,1,5.3.88,3.77-.3,7.67.95,11.3-.93,1.81.3,3.46-.3,5.19-.73,1.47-.36,3.18.3,4.51-1a.48.48,0,0,1,.34-.08,13.3,13.3,0,0,0,4.88-.58,38.33,38.33,0,0,0,4-.81c2-.74,4.28-1,5.67-2.93a1.66,1.66,0,0,1,.68-.47,3.44,3.44,0,0,0,2-3.18c.14-2.67,0-5.35,0-8a5.25,5.25,0,0,0-.3-1.13c-.2-.78-.43-1.56-.56-2.35s-.13-1.72-.27-2.57c-.11-.67-.43-1.32-.52-2-.32-2.39.8-5-.89-7.17a1.26,1.26,0,0,1-.1-.71c0-3.91,0-7.83.08-11.75,0-1.08.17-2.16-.73-3a1.47,1.47,0,0,1-.19-.91C81.62,84.62,81.63,82.34,81.63,80.06ZM153,26.38A9.47,9.47,0,0,0,153.6,28c.22.34.6.78.92.8a1.62,1.62,0,0,0,1-.67c.81-1,1.48-2.14,2.32-3.13,2.09-2.49,2.07-3.48-.23-5.74a6.08,6.08,0,0,0-.88-.81,5.6,5.6,0,0,0-1.07-.44c-.6-.25-1.22-.45-1.79-.75s-1-.71-1.48-1c-1.33-.72-2.69-1.38-4-2.11a3,3,0,0,0-3.61.48c-1.15,1.51-2.2,3.1-3.2,4.71a4.13,4.13,0,0,0-.62,2.08,2.12,2.12,0,0,1-2.22,2.47,3.87,3.87,0,0,0-1.53.11c-3.15,1.41-6,3.23-7.54,6.48a5.74,5.74,0,0,0-.31,1,20.37,20.37,0,0,1-.94,3.51c-1.46,3.11-2.89,6.31-5.78,8.4a20.88,20.88,0,0,1-4.19,2c-.22.09-.61-.13-.89-.26s-.75-.45-1.15-.62c-2.7-1.14-3.65-3.58-4.14-6.1-.43-2.24.52-4.41,1.41-6.46a3,3,0,0,0-.8-3.64c-1.26-.88-2.45-1.87-3.63-2.86a1.09,1.09,0,0,1-.38-.91,31.52,31.52,0,0,1,1.36-3.23c.53-1.08,1.16-2.1,1.7-3.17.13-.24.17-.75,0-.85a1.15,1.15,0,0,0-1-.17c-1.27.53-2.5,1.13-3.74,1.72s-2.67,1.46-4.08,2a9.6,9.6,0,0,0-4.64,4.32,1.65,1.65,0,0,0-.12,1.32c1,2.33,2,4.63,3.06,7,.3.67.42,1.43.75,2.08a5,5,0,0,1,.68,3.27c0,.18.26.4.32.62a49,49,0,0,1,1.39,5c.45,2.6-.33,5.17-1,7.6a5.75,5.75,0,0,0,0,3.46c.63,2.26,2,3.51,4.34,3.18.2,0,.42-.13.59-.07.34.13.85.29.93.55a1.3,1.3,0,0,1-.28,1.14,6.67,6.67,0,0,1-1.65.94,2.11,2.11,0,0,0-1.36,2.06c.06,5.92.12,11.84.14,17.76a5.24,5.24,0,0,1-.38,1.33c-.2.77-.4,1.54-.58,2.32a10.86,10.86,0,0,1-.42,2c-.61,1.34-1.86,2.61-1.9,3.94-.06,1.76-.85,3.33-.89,5-.13,4.83,0,9.68,0,14.51a2.64,2.64,0,0,1-.31,1c-.37.87-.78,1.71-1.15,2.57-.73,1.71,1.28,1,1.58,1.77a.55.55,0,0,0,.25.25,15.82,15.82,0,0,0,1.65.82c1.28.49,2.57,1,3.88,1.38s2.91.83,4.36,1.23c.11,0,.25,0,.36,0l1.69.37a6.89,6.89,0,0,0,1.58.39q8,0,16.07,0a6.34,6.34,0,0,0,1.25-.31,11.56,11.56,0,0,1,2.15-.44c2-.09,4.16.6,6-.85a1.42,1.42,0,0,1,.81-.13c1.52,0,3,.06,4.56,0a5.43,5.43,0,0,0,1.25-.25,17.8,17.8,0,0,1,2.12-.54c1.17-.14,2.37-.11,3.55-.27.71-.1,1.38-.49,2.1-.63s1.07-.55.72-1.26c-.87-1.75-1.83-3.46-2.65-5.23a36,36,0,0,1-1.3-3.51c-.49-1.42-.95-2.85-1.42-4.27-.39-1.15-.84-2.29-1.15-3.47-.37-1.41-.51-2.9-1-4.28-.69-2.07-1.57-4.08-2.35-6.12a1.33,1.33,0,0,1-.07-.71c.19-1.14-.42-2.17-.53-3.17-.2-1.87-.94-3.63-1-5.46-.12-3-.06-6.08,0-9.12a14.89,14.89,0,0,1,.59-2.57,5.49,5.49,0,0,0,.22-1.49c-.16-2.53,1.32-4.31,2.72-6.12.16-.22.62-.19.86-.38a3.87,3.87,0,0,0,1.23-1.22,25.37,25.37,0,0,0,.83-2.81c.21-.71.8-1.47.67-2.08A17.56,17.56,0,0,0,151,49.88a15,15,0,0,1-1.59-3.5c-.31-1.82-1.22-3.54-1-5.47,0-.26-.5-.56-.55-.88a5.53,5.53,0,0,1,0-1.77c.06-.32.53-.57.57-.88.19-1.58.52-3.14.8-4.68A10.53,10.53,0,0,1,150.62,29,19.81,19.81,0,0,1,153,26.38Zm-65.6,79.7h0c0,1.2,0,2.4,0,3.6s0,2.48,0,3.72a4.43,4.43,0,0,0,4.48,4.77c1.36,0,2.72-.07,4.08,0a3.6,3.6,0,0,1,1.49.33c2.22,1.09,4.38,2.33,6.63,3.34,1.83.82,3.79,1.33,5.64,2.11,1.06.45,2,1,3.25.71.12,0,.32.08.43.18a3.63,3.63,0,0,0,2.91.76c1.32,0,2.73-.4,3.86.7.1.1.31.09.47.09,1.35,0,2.71.08,4.07,0a1.14,1.14,0,0,0,.88-.58c.09-.29-.09-.93-.32-1a11.57,11.57,0,0,0-3.23-1.07c-1.55-.17-3.18.32-4.64-.69-.3-.21-.86,0-1.28-.11-1.83-.41-3.66-.85-5.49-1.29-.34-.08-.65-.25-1-.36a33.42,33.42,0,0,1-4.14-1.36c-1.85-.89-3.59-2-5.36-3.06-1.94-1.15-2.33-2.81-1.2-4.79a2.88,2.88,0,0,0,.38-1.34c0-5.36-.13-10.72-.09-16.08,0-1.36,1.06-2.58.83-4,0-.06.1-.13.13-.21a19.47,19.47,0,0,1,.72-2,6.52,6.52,0,0,0,.82-3.61c0-.13.18-.27.22-.42a7.82,7.82,0,0,0,.61-2.22c0-6.51,0-13,0-19.55,0-.39,0-.9-.18-1.15a4.1,4.1,0,0,1-.74-2.67A2.91,2.91,0,0,0,100.3,57c-.27-.2-1,.07-1.48.28-1.48.7-2.9,1.52-4.39,2.2s-3.27,1.24-4.8,2.05a2.49,2.49,0,0,1-2.89-.1c-.78-.56-1.71-1.08-2.32-.25a2.77,2.77,0,0,0-.25,2.52,6.88,6.88,0,0,1,.72,3.67c.07,1.73-.67,3.6.73,5.16.1.12.06.38,0,.58,0,3.52,0,7-.11,10.55,0,1.21-.17,2.38.74,3.39a1.92,1.92,0,0,1,.22,1.15c0,1.6-.06,3.2-.06,4.79,0,1.41-.4,2.88.77,4.1.19.2.13.69.13,1C87.37,100.8,87.36,103.44,87.36,106.08ZM83.08,52.32c.17.32.34,1.17.75,1.3a3.18,3.18,0,0,0,2-.31c.56-.24,1-.8,1.54-1.09,2-1.08,4.15-2.06,6.18-3.16a2.76,2.76,0,0,0,1.35-3.89,8.43,8.43,0,0,1-.72-3.49c-.14-1.39-1-2.67-.92-4.18a6.64,6.64,0,0,0-.7-2.08c-.38-1.06-.65-2.17-1.12-3.19-.93-2-1.9-4-3-5.87a30.66,30.66,0,0,0-2.62-3.81,1.44,1.44,0,0,0-1.25-.34c-.24.05-.37.66-.51,1s-.28,1-.44,1.46c-.38,1.15-.79,2.29-1.16,3.44-.51,1.58-1.43,3.1-.93,4.88a.25.25,0,0,1-.06.22c-1.08,1-.68,2.28-.69,3.49,0,.92-.16,1.83-.18,2.75,0,.72.44,1.2,1.13,1.06.35-.08.71-.61.87-1,.3-.76.38-1.61.7-2.36.16-.38.65-.62,1-.92.2.43.57.85.58,1.28,0,1.48-.14,3,0,4.43a3.93,3.93,0,0,1-.66,3,2.65,2.65,0,0,0-.24,1.49c0,1.47.54,3-.58,4.36C83.14,51.11,83.2,51.61,83.08,52.32ZM11.64,32h.11c0-1.51,0-3,0-4.55a3.67,3.67,0,0,0-.44-1.11c-.35.22-.7.43-1,.66a.61.61,0,0,0-.18.3c-.66,1.63-1.33,3.24-2,4.87-.32.87-.52,1.78-.83,2.66-.54,1.51-1.48,3-1.59,4.53a26.42,26.42,0,0,1-.91,5c-.41,1.57.32,2.81,1.55,3.86s2.53,2.43,3.84,3.6c1.05.95,2.23,1.75,3.25,2.74.54.53,1,1,1.7.47s.4-1.06.18-1.79a16.75,16.75,0,0,1-1.1-5.46c.09-1.8-1-3.09-1.17-4.72,0-.8-.43-1.56-.54-2.36s.2-1.86-.21-2.43a4.47,4.47,0,0,1-.66-3C11.67,34.17,11.64,33.09,11.64,32Zm153.74,3.52c1,.12,2.26-1.74,1.81-2.62-.83-1.64-1.65-3.29-2.63-4.84a40.63,40.63,0,0,0-2.94-3.87,1,1,0,0,0-1.79.15,34.68,34.68,0,0,0-3.25,5.38c-1,2.46-3,4.38-3.48,7.06,0,.11-.17.18-.2.29a6.36,6.36,0,0,0-.39,1.45c-.1,1.55-.17,3.1-.18,4.64a4.45,4.45,0,0,0,.37,1.27c.38-.15.92-.19,1.11-.47.75-1.07,1.36-2.23,2.06-3.34a5.61,5.61,0,0,1,1-1.4,27.07,27.07,0,0,1,2.28-1.49A17,17,0,0,1,165.38,35.53ZM100.37,48c.36,0,.72,0,1.08,0,1-.08,1.44-.95.78-1.66a2.48,2.48,0,0,1-.67-2.28c.06-.38-.23-.81-.39-1.21a6.78,6.78,0,0,1-.47-1.2c-.25-1.32-1.34-2.46-.85-3.94,0-.06,0-.14-.08-.22-1.11-2.41-2.17-4.84-3.33-7.22-1-2-2-4-3.15-5.91s-2.24-3.61-3.38-5.4a11.3,11.3,0,0,0-1.46-2,1.41,1.41,0,0,0-1.3-.1,1.94,1.94,0,0,0-.54,2.66c.8,1.12,1.67,2.2,2.48,3.33s1.56,2.18,2.24,3.34a32.54,32.54,0,0,1,1.88,3.73,28.8,28.8,0,0,1,1.4,4.14c.35,1.37,1.31,2.61.92,4.15,0,.14.24.32.29.5.19.65.35,1.31.51,2s.38,1.63.57,2.45a4,4,0,0,1,.3,1.21C97,46.58,98.19,48,100.37,48Zm64.14-9.71c-1.14.47-2.18.89-3.21,1.33a10,10,0,0,0-5,4.41A1.34,1.34,0,0,0,157,46.2a2.15,2.15,0,0,0,2.41-.5,23.46,23.46,0,0,1,2.61-2c1.16-.84,2.39-1.58,3.5-2.48.61-.48,1.66-1,1.07-2C166.3,38.7,165.31,38.62,164.51,38.3Zm-124.89-26h0c0-.72,0-1.44,0-2.15,0-.9-.32-1.82-1.33-1.83S37,9.24,37,10.12,37,12,37,12.87c-.09,1.94,1.28,3.3,1.9,5,.06.14.32.22.49.31,1,.52,1.87,1.08,2.85,1.51a2.77,2.77,0,0,0,1.69.2c.35-.1.56-.72.83-1.11A5.82,5.82,0,0,0,43.64,18c-.43-.17-1,0-1.36-.27-1.45-1.2-3.22-2.27-2.67-4.64A3.92,3.92,0,0,0,39.62,12.28Zm54,39.54v-.06a4.82,4.82,0,0,0-1.74.28c-1.11.66-2.12,1.49-3.17,2.25-.85.62-1.73,1.22-2.55,1.88-.29.22-.65.62-.62.9.06.53.29,1.4.61,1.47.65.15,1.72.13,2-.28,1.79-2.26,4.7-2.78,6.73-4.6a7.29,7.29,0,0,0,.86-1.11,10.58,10.58,0,0,0-1.33-.79A2,2,0,0,0,93.63,51.82Zm40.51-29.9a7.32,7.32,0,0,0-1.24.46c-2.87,1.77-4.82,4.41-6.62,7.17a2.46,2.46,0,0,0-.14,1c.35-.08.82-.05,1-.27.92-1,1.75-2.16,2.65-3.21a10.21,10.21,0,0,1,1.79-1.86c.91-.63,2-1,2.93-1.6a1.28,1.28,0,0,0,.55-1.05C135,22.27,134.45,22.1,134.14,21.92ZM114.28,37.34c0,.81.12,1.29.09,1.77-.08,2,1.19,2.93,2.71,3.69a2.75,2.75,0,0,0,1,.05,4.56,4.56,0,0,0,0-1.11c-.07-.24-.34-.43-.52-.64-1.38-1.68-2.85-3.33-1.32-5.7.12-.18-.07-.56-.11-.84a2.29,2.29,0,0,0-.75.18A2.33,2.33,0,0,0,114.28,37.34Zm-66.1-33v0c1.12,0,2.25,0,3.36,0,.4,0,.77-.38,1.15-.58-.38-.26-.75-.73-1.14-.74-2.28-.07-4.56-.06-6.84,0-.36,0-.72.41-1.08.62.36.24.7.64,1.08.67C45.86,4.37,47,4.31,48.18,4.31Zm72.91,16.78a3.27,3.27,0,0,0,.89-.66c.09-.13-.13-.59-.32-.76-1.14-1-2.29-1.93-3.49-2.83a3.37,3.37,0,0,0-1.24-.29c0,.43-.07,1,.17,1.27a30,30,0,0,0,2.72,2.69A4.71,4.71,0,0,0,121.09,21.09Z"></path><path d="M158.59,90.58c-.53.59-1,1.41-1.63,1.72-.84.39-1.41-.39-1.67-1.14-.64-1.8-1.21-3.63-1.81-5.45a2.65,2.65,0,0,0-.25-.54,1.62,1.62,0,0,1,1.06-2.7,1.53,1.53,0,0,1,1.18.5,4.49,4.49,0,0,1,.86,1.56c.4,1.23.7,2.49,1.08,3.72a8,8,0,0,0,.58,1.17Z"></path><path d="M88.9,5.51c.29-.45.51-1.19.89-1.28a2,2,0,0,1,1.68.45c1.36,1.42,2.62,3,3.87,4.46.57.69.16,1.26-.37,1.77a1.21,1.21,0,0,1-1.66.32c-1.68-.91-3.17-2-3.81-3.87Z"></path><path d="M41.94,61.75H37.63a.65.65,0,0,0-.24,0,33.87,33.87,0,0,0-4.69,1.42c-2.4,1.08-4.66,2.44-7,3.58a1.64,1.64,0,0,1-1.51-.33,2,2,0,0,1,.09-1.78,19.27,19.27,0,0,1,3.7-2.57c1.85-1,3.81-1.72,5.75-2.52a3.64,3.64,0,0,1,1.05,0c.39,0,.93.09,1.14-.12.93-.91,2-.7,3.14-.7,2.72,0,5.44-.07,8.15-.09a2.83,2.83,0,0,1,1,.28c.25.1.46.39.71.42,2.7.37,4.64,2.08,6.24,4,1,1.23,2.24,2.45,2.48,4.32a25.71,25.71,0,0,0,1.56,4.68,3.28,3.28,0,0,1,.14.93q0,4,0,7.92c0,.27,0,.65-.12.8a3.13,3.13,0,0,0-.73,3.21,1.08,1.08,0,0,1-.05.59c-.58,1.51-1.19,3-1.77,4.5-.28.73-.51,1.48-.76,2.22-.06.19-.07.44-.2.56-2,1.92-2.53,4.67-3.9,6.94-1.5,2.47-3,5-4.51,7.41s-3.19,4.9-4.9,7.26c-1.21,1.66-2.59,3.2-3.92,4.76-2,2.33-4,4.63-6,6.94a1.37,1.37,0,0,0-.19.3c-1,1.76-1,1.76-2.41.23s-1.34-1.43.06-2.86c1-1,1.77-2.24,2.7-3.31.76-.87,1.69-1.6,2.4-2.5,1.65-2.07,3.2-4.21,4.8-6.32l.26-.4c1.34-1.87,2.71-3.71,4-5.62,1.43-2.13,2.81-4.31,4.13-6.51.71-1.2,1.19-2.53,1.9-3.73A12.69,12.69,0,0,1,51.66,94a1.92,1.92,0,0,0,.37-.69c.3-.81.56-1.64.84-2.46A28.83,28.83,0,0,1,54.63,86a8.51,8.51,0,0,0,.74-5,.73.73,0,0,1,.11-.46c1.63-2.16.31-4.66.78-7,.05-.28-.29-.63-.44-.95s-.47-.72-.47-1.07c0-3.35-1.88-5.78-4.26-7.6-1.64-1.25-3.59-2.57-6-2.17a19.09,19.09,0,0,1-3.12,0Z"></path><path d="M68.46,47.23c.66,2.13-1.15,4.07-2.1,6.25-.14.32-.59.51-.91.72s-.93.49-1.33.81c-1.73,1.32-3.06,1.35-5.07.32a2.2,2.2,0,0,0-1.87.14c-.82.55-1.43.8-2.21,0a1.45,1.45,0,0,0-.88-.29,6.11,6.11,0,0,1-5.5-3.59c-.2-.42-.63-.73-.83-1.15a9.51,9.51,0,0,1-.6-1.8c-.1-.38.07-.88-.13-1.15-1.34-1.85-1.13-4.1-.67-5.91C47.17,38.41,48.09,35,51,32.9a7.77,7.77,0,0,1,3.82-1.39,11.25,11.25,0,0,1,9.49,3.75,4.39,4.39,0,0,1,.78,1.32c.79,1.94,1.83,3.75,2.58,5.74A18.08,18.08,0,0,1,68.46,47.23ZM56.12,33.78a6,6,0,0,0-6,2.27,8.32,8.32,0,0,0-1.19,2.79A18.86,18.86,0,0,0,47.8,43a9.53,9.53,0,0,0,.67,3.31c.6,2,.83,4.19,2.72,5.59,1.22.91,2.4,1.91,4,1.89a9,9,0,0,0,6.65-2.86,8.38,8.38,0,0,0,2.7-7.16c-.15-1.36.44-2.82,0-4.24-.15-.45-.08-1-.35-1.35C62,35.79,60,33.05,56.12,33.78Z"></path><path d="M134.44,49.49c-2.49.54-4.42-1-6.29-2.08-1-.59-1.5-2.18-1.84-3.43-.46-1.65.51-3.08,1.37-4.43a7.87,7.87,0,0,1,1.38-2.07c1.4-1.08,2.59-2.58,4.54-2.79.16,0,.37,0,.46-.11,1.17-1.24,2.24-.42,3.45,0,2.67,1,3.54,3.19,4.2,5.62a2.32,2.32,0,0,0,.38,1,1.73,1.73,0,0,1,0,2.57,1.55,1.55,0,0,0-.39,1A2.66,2.66,0,0,1,140,47.39a48.76,48.76,0,0,1-5.06,2.07A1.88,1.88,0,0,1,134.44,49.49Zm4.25-7.43c0-1.41.17-2.78-.78-4.1s-1.94-1.85-3.49-1.05a4.79,4.79,0,0,1-1.43.6c-2,.28-3,1.64-3.9,3.3a4.17,4.17,0,0,0,1.49,5.36,7.62,7.62,0,0,0,4.3,1.1,3.66,3.66,0,0,0,3.81-4C138.67,42.86,138.69,42.46,138.69,42.06Z"></path><path d="M144.26,54.86c-.09,2.77-1.75,4.6-3.85,6.07a11.81,11.81,0,0,1-3.54,1.7c-.56.15-1.35-.49-2-.78.2-.41.39-.83.6-1.24s.36-.71.54-1.06a3.15,3.15,0,0,0-1.16-.4c-1.18.05-2.43-.09-3.4.85a.86.86,0,0,1-.32.15c-.94.3-4.94-.93-5.47-1.75a1.3,1.3,0,0,1-.14-1.08c.09-.21.6-.34.92-.33,1.79,0,3.59.18,5.38.19s3.36.2,5-.83a34.13,34.13,0,0,1,4.54-2c.41-.19.72-.62,1.12-.86a13.74,13.74,0,0,1,1.41-.63c.16.49.33,1,.47,1.48A1.32,1.32,0,0,1,144.26,54.86Z"></path><path d="M108.07,42.37a7.58,7.58,0,0,1-.13-1.42,3.37,3.37,0,0,1,.38-1,6,6,0,0,1,1.12.51.88.88,0,0,1,.24.65c-.15,3.78,2,6.27,4.62,8.59a6.34,6.34,0,0,1,.88,1.34,7.68,7.68,0,0,1-1.68-.44c-2.78-1.47-4.12-4.12-5.37-6.81a4.45,4.45,0,0,1-.18-1.39Z"></path><path d="M51,46.59a7.49,7.49,0,0,1,.27-1.37c.81-2,1.66-3.91,2.51-5.86.06-.14.09-.34.2-.42.47-.34,1-.94,1.45-.88.79.11.71.9.56,1.56a2.86,2.86,0,0,0,.47,2.59,2.67,2.67,0,0,1,.35,1.45,35.13,35.13,0,0,1,0,3.7,4.07,4.07,0,0,1-.56,1.32A9.67,9.67,0,0,1,55.09,48a9.17,9.17,0,0,1-.69-.81,1,1,0,0,0-1.57,0,6.2,6.2,0,0,1-1.27.61Z"></path><path d="M58.54,40.86c0-.35-.13-.78,0-1,.24-.42.67-1,1-1a1.69,1.69,0,0,1,1.35.8,2.49,2.49,0,0,1-.69,2.82c-.31.24-.89.55-1.11.42s-.47-.73-.6-1.14a2.35,2.35,0,0,1,0-.83Z"></path><path d="M132.46,44.47a4.62,4.62,0,0,1-1.3-.08,1.16,1.16,0,0,1-.71-1.73,28.4,28.4,0,0,1,1.49-3c.19-.32.65-.49,1-.73.19.36.41.7.57,1.06a7.41,7.41,0,0,1,.5,1.41,5,5,0,0,1,.28,2.28c-.15.47-1.07.7-1.64,1Z"></path><path d="M136,40.62c-.41-.51-.84-.82-.8-1s.45-.61.7-.91c.27.24.74.46.75.71S136.32,40,136,40.62Z"></path></svg>