<svg xmlns="http://www.w3.org/2000/svg" id="Layer_1" data-name="Layer 1" viewBox="0 0 94.08 89.07"><title>AsimovMarketingIcon-bt-omar bahaa</title><path d="M0,39.86C0,32,0,24.18,0,16.34A16.82,16.82,0,0,1,2.13,7.43,13.3,13.3,0,0,1,7,2.63a15.61,15.61,0,0,1,5.34-2,29.08,29.08,0,0,1,3.1,0A14.76,14.76,0,0,0,17.34.3,9.22,9.22,0,0,1,19,0l61.8,0A20.49,20.49,0,0,1,88,1.19a7.76,7.76,0,0,1,4.38,4.53,8.6,8.6,0,0,1,1,4.73c-.06.46.34,1,.37,1.48a13.59,13.59,0,0,1-.06,3.72,7.06,7.06,0,0,0,.1,4.88,3.25,3.25,0,0,1,.28,1.26c0,9.56,0,19.12,0,28.68a5.7,5.7,0,0,1-.57,3.35,1.7,1.7,0,0,0-.16.93c0,2.44.14,4.88.07,7.32a12.71,12.71,0,0,1-.6,3.73,13.84,13.84,0,0,1-7.29,8.49c-2.2,1-4.48,2-7.11,1.72a14.12,14.12,0,0,0-3.58.51,6.13,6.13,0,0,1-1,.1c-4.8,0-9.6,0-14.4-.07-.9,0-1.35.26-1.32,1.22,0,1.52,0,3,.09,4.56.22,2.75-1.47,4.45-3.25,6.06A3.26,3.26,0,0,1,53,89c-6,.06-11.91,0-17.87.06a2.38,2.38,0,0,1-2.18-1.44,3.21,3.21,0,0,1,.43-3.26,15.8,15.8,0,0,1,1.9-1.44,2.34,2.34,0,0,0,1.11-2.46,8.09,8.09,0,0,1,.07-2.25c.2-1.29-.07-1.66-1.42-1.66l-10.92,0c-3.64,0-7.28,0-10.92,0a6.82,6.82,0,0,1-1.17-.2A14.65,14.65,0,0,0,9.1,76,8.64,8.64,0,0,1,.49,69.87,24.19,24.19,0,0,1,0,64.21C0,58.29,0,52.37,0,46.45V39.86Zm4.2-1h0c0,7.84.08,15.67-.05,23.51a12,12,0,0,0,2.2,6.8A2.83,2.83,0,0,0,8.08,70.5c2.4.17,4.83.39,7.22.46,8.91.25,17.83,0,26.75.08,5.4.09,10.8-.43,16.22.47,3.14.51,6.43,0,9.65.08,2.48.09,5-.64,7.43.59.22.12.61-.08.91-.15a10,10,0,0,0,5.11-3.39,11.83,11.83,0,0,0,3.13-8.19c0-4.32-.46-8.64-.48-13C84,35.77,84,24.06,84,12.34a8.49,8.49,0,0,0-.22-1.4,15.58,15.58,0,0,1-.45-2.4c0-1.48-1.22-3.36-2.52-3.58a30,30,0,0,0-4.72-.53c-13,0-25.91-.15-38.87,0-8.16.1-16.35-.67-24.5.45A10.23,10.23,0,0,0,7.26,7.53a9.33,9.33,0,0,0-3,7.14ZM46.38,79.32v0c-1,0-2.08.07-3.11,0-1.76-.17-3,.12-3.59,2.15-.49,1.7,0,2.71,1.82,2.7,2.43,0,4.86,0,7.29,0,3.18,0,3.56-.37,3.45-3.58,0-.9-.4-1.3-1.31-1.28C49.41,79.34,47.9,79.32,46.38,79.32Z"></path><path d="M81,34.23c0,5.87.16,11.76-.08,17.62a8,8,0,0,1-2.5,6,8.74,8.74,0,0,1-6.1,2.26c-5-.07-9.91,0-14.87,0-14.08,0-28.15,0-42.23.08a9.41,9.41,0,0,1-6.74-2.5,7.84,7.84,0,0,1-2.3-6.08C6.08,40,6.16,28.4,6.11,16.8c0-3.25,2.46-6.84,5.57-7.72A7.59,7.59,0,0,1,12.75,9c.93-.11,1.85-.3,2.78-.37,1.23-.08,2.47,0,3.69-.12,1.06-.08,2.1-.33,3.15-.46A17.64,17.64,0,0,1,24.15,8l7-.08a2.06,2.06,0,0,1,.83.06c1.58.84,3.28.54,4.94.55H67.71c1.41,0,2.87-.31,4.21.51a1.72,1.72,0,0,0,1.17.07c3.44-.73,6.5,2.34,7.3,5.31A17.05,17.05,0,0,1,80.9,19q0,7.62,0,15.24Zm-35.49-22v0c-9.36,0-18.71,0-28.07,0a2.16,2.16,0,0,0-1.48.74,5.23,5.23,0,0,0-.91,2,26.46,26.46,0,0,1-.67,4.06A9.34,9.34,0,0,0,14,23a2.54,2.54,0,0,1-.07,1.18c-.78,1.34-.52,2.79-.55,4.22a9.6,9.6,0,0,1-.26,3,10.1,10.1,0,0,0-.25,5.77,21.7,21.7,0,0,1,.5,4.58c0,2.16-.07,4.32,0,6.48,0,1.68,1,4.36,2.88,4.65,1.6.25,3.17.67,4.75,1,.34.08.67.24,1,.32a8.2,8.2,0,0,0,1.73.36c6.52,0,13-.1,19.55,0,4.25.08,8.53-.6,12.75.43a3,3,0,0,0,.6,0c5.8,0,11.59-.08,17.39,0,2.56,0,3.79-.94,3.82-3.91.1-8.71,0-17.43,0-26.14,0-2.68,0-5.36.09-8a4.8,4.8,0,0,0-4.49-4.81Z"></path><path d="M41.89,66.19c-.18-2.36.48-2,2.51-2.27.83-.1,2,1.33,1.92,2.26a2.9,2.9,0,0,1-2.57,2.5C42.25,68.65,41.87,68.14,41.89,66.19Z"></path><path d="M37.91,31.7c0-1.64,0-3.27,0-4.91,0-1.35.47-1.92,1.86-1.83,1.92.13,3.91-.39,5.76.58a2.35,2.35,0,0,0,1.18,0c1.44-.17,2.44.5,2.33,1.94-.16,2.19.56,4.44-.5,6.6a5.36,5.36,0,0,0,0,2.36c.07,1.54-.47,2.19-2,2.09-1.2-.08-2.38-.46-3.58-.56a16.3,16.3,0,0,0-2.78.18c-.51.05-1.23.4-1.48.19a2.5,2.5,0,0,1-.74-1.63c-.1-1.67,0-3.35,0-5Z"></path><path d="M64,38c-2,.44-2.76-.81-3.65-2.23-1.55-2.45-1.13-4.83,0-7.15A3.68,3.68,0,0,1,62.44,27a5.23,5.23,0,0,1,3.39-.14c1,.51,1.69,1.78,2.38,2.81a8.55,8.55,0,0,1,.72,2,2.6,2.6,0,0,1,.12.46c.15,1.57-1.85,5.12-3.3,5.7A6.34,6.34,0,0,1,64,38Z"></path><path d="M24.12,37.91H21.61c-1.42,0-2.14-.63-1.91-2.08A37.7,37.7,0,0,1,21,31.24a31.48,31.48,0,0,1,1.19-4,3.24,3.24,0,0,1,1.72-1.73c.87-.27,1.13.73,1.39,1.46.66,1.87,1.41,3.72,2,5.6a31.17,31.17,0,0,1,1,3.79c.19,1-.34,1.52-1.34,1.53S25.08,37.91,24.12,37.91Z"></path><path d="M40.16,40.85c2.39,0,4.79,0,7.18,0,1.07,0,1.9.58,1.89,1.4s-.91,1.4-1.93,1.38c-2.35,0-4.71,0-7.06,0-1,0-1.92-.61-1.91-1.39S39.11,40.85,40.16,40.85Z"></path><path d="M63.66,40.87c1.16,0,2.32-.08,3.46,0a3.93,3.93,0,0,1,1.82.68c.32.21.66.93.53,1.14a1.83,1.83,0,0,1-1.25.87c-2.42.08-4.85,0-7.27,0a2.41,2.41,0,0,1-1.1-.4c-1-.62-1-1.4.06-2a3.55,3.55,0,0,1,1.49-.3c.75,0,1.51,0,2.26.08Z"></path><path d="M24.4,43h-3c-1,0-1.83-.58-1.82-1.33s.87-1.34,1.83-1.35c1.95,0,3.89-.07,5.84,0a2.16,2.16,0,0,1,1.35.56c.33.32.67,1,.53,1.31a1.82,1.82,0,0,1-1.29.8C26.71,43.05,25.55,43,24.4,43Z"></path></svg>