<svg xmlns="http://www.w3.org/2000/svg" id="Layer_1" data-name="Layer 1" viewBox="0 0 126.33 107.97"><title>AsimovMarketingIcon-bt-omar bahaa</title><path d="M110.32,85.38c-1.26.35-2.52.72-3.78,1a5.22,5.22,0,0,1-1.19.07,2,2,0,0,0-2.14,2.07c-.06,1.36.37,2.79-.68,4-.2.24-.12.78-.07,1.17a3.91,3.91,0,0,1-.6,3.19c-.19.23-.14.69-.14,1a3.49,3.49,0,0,1-3.48,3.84,1.87,1.87,0,0,0-1.88,1.81c-.2,1.63-.79,1.92-2.45,2.09a17.16,17.16,0,0,0-4.42.84c-2.43,1-4.79.4-7.16.64a21.94,21.94,0,0,0-2.24.51,7.35,7.35,0,0,1-1.39.24c-1.2,0-2.4,0-3.6,0-.32,0-.72.08-.94-.07-1.71-1.22-3.64-.48-5.46-.67a14.94,14.94,0,0,1-2.27-.53c-.23-.06-.46-.28-.66-.26-1.6.21-2.81-.69-4.14-1.32a4,4,0,0,0-1.74-.3c-1.84,0-3.68.07-5.51.12-1.4,0-4.09-1.57-4.59-2.89a2.42,2.42,0,0,1,.23-1.41c.16-.48.58-.89.65-1.37.14-.85-.28-1.3-1.21-1.38s-1.64-.46-2.47-.54a10.87,10.87,0,0,0-2.41.13,18.54,18.54,0,0,1-2,.49c-2,.06-4-.11-6,0-1.65.12-2.8-.68-4-1.49a4.15,4.15,0,0,0-2.11-.79c-6.68,0-13.36,0-20,0a1.48,1.48,0,0,1-.47,0A42,42,0,0,1,4.3,93.94,19,19,0,0,1,.44,91.17,1.85,1.85,0,0,1,0,90a21.3,21.3,0,0,1,0-2.26c0-.24,0-.55.13-.7,1.23-1.35,2.14-3.1,4.23-3.45,1.43-.25,2.84-.65,4.27-.94a5.55,5.55,0,0,1,1.41-.08c1.18.1,1.55-.4,1.06-1.49a4.29,4.29,0,0,0-2.82-2.2c-1.61-.56-3.48-.58-4.69-2.09a4.56,4.56,0,0,1-.45-3.54,3.32,3.32,0,0,1,3.07-1.86c1,.06,2.08.06,3.11.08a2,2,0,0,0,2-1.34c1.12-2.38,2.16-4.79,3.3-7.16a7.81,7.81,0,0,1,4.78-3.83c4.49-1.67,9.08-.41,13.61-.77,1.42-.11,2.88-.39,4.24.64.53.4,1.55.18,2.34.17,1.28,0,2.56-.07,3.84-.09.39,0,.89-.06,1.16.15,1.28,1,2.73.67,4.15.71a8.15,8.15,0,0,1,1.9.48,4.32,4.32,0,0,0,1.12.33c1.8,0,3.6-.11,5.39-.12a3.26,3.26,0,0,1,1.49.29c1.31.72,2.89,1.19,3.89.13s.52-2.54-.09-3.92c-.38-.84-.11-2-.23-2.92a19.93,19.93,0,0,0-.55-2.25c0-.07-.1-.13-.12-.21-.3-1.78-.61-3.56-.9-5.35,0-.19.13-.44.05-.59-.88-1.65-.8-3.52-1.25-5.27-.06-.23-.3-.41-.33-.63-.26-2.14-.48-4.27-.75-6.4a21.32,21.32,0,0,0-.5-2.24c-.09-.34-.33-.69-.29-1a3.06,3.06,0,0,0-.68-2.44c-.25-.3-.15-.91-.15-1.38a22,22,0,0,0-.47-4c-.35-2-.78-4-1-6.07a16.13,16.13,0,0,0-.37-1.81c0-.14-.23-.27-.23-.41a16.21,16.21,0,0,0-1-4.91,8.25,8.25,0,0,0-.59-1.84,1.27,1.27,0,0,1,.07-1.82c.77-.79,1.46-1.64,2.79-1.62.57,0,1.14-.5,1.72-.77,1.84-.86,3.68-1.67,5.79-1.38a1.36,1.36,0,0,0,.83-.1c2.1-1.41,4.42-.51,6.64-.71A12.18,12.18,0,0,0,72.81.45,6.59,6.59,0,0,1,74.27.06c4.08,0,8.15,0,12.23,0,.2,0,.45-.06.59,0,2.23,1.52,4.73.6,7.11.83.83.08,1.64.45,2.47.57,1,.15,2.13.15,3.18.26.65.07,1.3.24,1.94.36l1.36.27c.38.07.77.1,1.15.19.79.18,1.58.38,2.36.6a8.54,8.54,0,0,1,1.11.38c.29.12.56.39.85.4,2.22,0,4.11,1,6.07,1.91,1.13.5,2.45.46,3.37,1.56.55.68.81,1.16.12,1.83a1.07,1.07,0,0,0-.35.48c-.28,1.79-.54,3.59-.81,5.39-.08.5-.15,1-.27,1.48a9.17,9.17,0,0,0-.48,2,11.77,11.77,0,0,1-.58,3.28,35.07,35.07,0,0,0-1,5,4.21,4.21,0,0,1-.54,2.47.34.34,0,0,0-.1.22c.39,2.32-1,4.41-.89,6.7a2.24,2.24,0,0,1,0,.24c-.45,1.94-.89,3.87-1.34,5.8,0,.12-.15.21-.17.32-.27,1.92-.51,3.85-.79,5.78-.11.72-.29,1.43-.44,2.15q-.57,2.88-1.15,5.75c-.12.64-.26,1.28-.42,1.91-.06.23-.29.41-.32.63-.25,2.17-.45,4.35-.71,6.52-.08.69-.37,1.35-.45,2.05-.17,1.32-.28,2.64-.34,4,0,.2.38.5.65.62,1.62.74,3.23,1.5,4.89,2.14a9.48,9.48,0,0,0,2.08.29,17.65,17.65,0,0,1,2.63.47,44.21,44.21,0,0,1,4.89,1.84A26.11,26.11,0,0,1,126,79c.65.46.3,1-.12,1.53-1.71,2.2-4.18,3-6.7,3.63-1.32.35-2.57,1.15-4,.72a.82.82,0,0,0-.46.11,13.41,13.41,0,0,1-2.08.78,11.84,11.84,0,0,1-2.15,0ZM88,78.22v-.15c2.36,0,4.72,0,7.07,0a2.74,2.74,0,0,1,1.5.52c.49.39.35.91-.3,1a23.91,23.91,0,0,1-4.09.61c-4.08.08-8.16,0-12.24,0-1.3,0-2.65.24-3.8-.7-.21-.17-.62-.07-.93-.13-1-.17-2-.37-3-.54a8.59,8.59,0,0,0-1.87-.26c-.8,0-1,.63-.47,1.23a2.07,2.07,0,0,0,.78.51,8.54,8.54,0,0,0,2.44.81c1.9.1,3.73.73,5.58.83,4.15.22,8.32.16,12.47,0a55.05,55.05,0,0,0,6.1-.8c.16,0,.29-.15.44-.18a12.87,12.87,0,0,1,2.49-.48,2.18,2.18,0,0,0,2.48-2c.06-.35.25-.67.33-1,.46-2,1-3.89,1.33-5.85.32-1.72.47-3.47.71-5.21,0-.14.18-.27.22-.41A14,14,0,0,0,105.8,64c.12-1.35-.45-2.78.71-4,.24-.24.1-.84.16-1.26.27-1.84.51-3.68.85-5.5.4-2.14.91-4.25,1.36-6.38a2,2,0,0,0,0-.48c-.09-1.06-.34-2.14.61-3,.19-.18.13-.61.2-.91.16-.68.33-1.35.5-2a3.75,3.75,0,0,0,.31-1.13,12.22,12.22,0,0,1,.57-4.05c.43-1.61.31-3.37.83-5.08.29-1,.38-2,.67-3.1.4-1.47.6-3,.92-4.55s.25-2.79.66-4.24.17-3.32.88-4.94a9.41,9.41,0,0,0,.46-2.73,2.46,2.46,0,0,0-.17-1,3.46,3.46,0,0,0-3.06-2.23A44.25,44.25,0,0,1,106.71,6c-1.32-.4-2.58-1-4-.67a.53.53,0,0,1-.33-.13,3.37,3.37,0,0,0-3.05-.58c-.29.07-.67-.19-1-.28a13.74,13.74,0,0,0-2.47-.62c-1.56-.13-3.19.46-4.62-.67-.21-.16-.62-.11-.94-.11l-19.67,0c-.43,0-1-.06-1.28.16-1.11.86-2.33.67-3.55.59a3,3,0,0,0-2.68.68.88.88,0,0,1-.66.21c-2.14-.18-3.89.94-5.69,1.77C55.26,7,55.23,8.18,56.68,9a3.87,3.87,0,0,0,2.11,0,16.23,16.23,0,0,0,1.92-.46c.38-.09.78-.14,1.15-.26l4.2-1.34a1.09,1.09,0,0,1,.36,0c1.79,0,3.59.06,5.39.11a3.61,3.61,0,0,0,2.93-.72,1.44,1.44,0,0,1,.9-.2c2.92,0,5.84.09,8.76.06,1.16,0,2.3-.17,3.27.72a1.51,1.51,0,0,0,.92.19C89.82,7,91.06,7,92.3,7a7.46,7.46,0,0,1,1.61.29c.63.15,1.26.33,1.89.5l1.35.41,1.46.41c.57.14,1.14.26,1.7.41.38.1.75.24,1.13.34,1.32.34,2.67.57,3.94,1a30.14,30.14,0,0,1,4.12,1.91c.37.2.52.8.77,1.21a5.08,5.08,0,0,1-1.39.09,10.77,10.77,0,0,1-2-.68,9.1,9.1,0,0,0-4.88-.74c-.2,0-.43-.2-.65-.26-1.84-.45-3.68-.88-5.53-1.31-.11,0-.24,0-.35,0-.38-.09-.76-.21-1.13-.31a8.37,8.37,0,0,0-2-.5c-3.79,0-7.59,0-11.39,0a5.3,5.3,0,0,0-3.45.68,2.31,2.31,0,0,1-1.38.16c-1.67-.11-3.34-.45-4.85.71-.28.22-.84.1-1.27.11-1.65,0-3.36-.47-4.89.61a1,1,0,0,1-.69.12C62,11.69,60,13,57.93,13.81a1.26,1.26,0,0,0-.71.83c0,1.13-.36,2.34.61,3.3a1,1,0,0,1,.28.76,4.43,4.43,0,0,0,.67,3.53c.16.25,0,.7,0,1.06,0,.95-.37,2.16.08,2.82,1.11,1.66-.07,3.83,1.42,5.31.14.14.06.55,0,.81a2.75,2.75,0,0,0,.58,2.58,1,1,0,0,1,.27.77,4.3,4.3,0,0,0,.71,3.52c.18.28,0,.77,0,1.16,0,1,0,2.06.14,3.08s.38,1.81.53,2.73c.29,1.8.54,3.6.81,5.4,0,.11.14.21.17.32a9.8,9.8,0,0,1,.59,2.34c0,1.07-.2,2.13.66,3,.19.2.09.68.14,1,.26,1.87.52,3.74.8,5.62,0,.11.14.2.17.31.18.79.37,1.57.51,2.37s.2,1.54.34,2.3a10.93,10.93,0,0,1,.43,2A10.33,10.33,0,0,0,67.75,74c.51,1.93,1.42,2.59,3.42,3a27,27,0,0,0,5,.65c.91,0,2-.32,2.7,0a7,7,0,0,0,3.48.56Zm-54.1,9.61.09-.32c.72,0,1.45,0,2.16,0,.95,0,1.5-.38,1.44-1.32-.08-1.36.35-2.82-.75-4-.2-.22-.16-.68-.17-1,0-1,0-2.07,0-3.11s1-2.85,1.75-2.87c1.32,0,1.63-.67,1.45-1.87-.06-.38.22-.82.35-1.23a12.39,12.39,0,0,1,.43-1.21,5.37,5.37,0,0,1,.68-1.45c1.48-1.8,3.76-2.25,5.78-2.59a43.7,43.7,0,0,1,4.53-.76c2.08-.11,4.39-.74,6.41.65.25.17.7.05,1.06.07,1.28.07,2.61-.43,3.84.44.2.15.87-.1,1.12-.36a1.06,1.06,0,0,0,0-1c-.81-.87-1.63-1.72-3-1.65-2,.11-4.08.09-6.12.07a7,7,0,0,1-1.36-.36,10,10,0,0,0-1.7-.4c-2.76-.24-5.5.53-8.33-.63-1.45-.59-3.34-.32-5-.92-1.09-.39-2.46,0-3.69,0-.73,0-1.44-.33-2.16-.43a13.61,13.61,0,0,0-3-.27c-.88.09-1.13.93-.78,1.68a12,12,0,0,1,1.53,5.25c0,.18.16.36.21.55a14.61,14.61,0,0,1,.54,2.24c.09,1.12.05,2.24,0,3.36A3.57,3.57,0,0,1,31,75.44a26.78,26.78,0,0,0-1.23,3.3,15.44,15.44,0,0,1-2.86,6.17,1.49,1.49,0,0,0-.27,1.27c.16.3.77.44,1.2.5.67.08,1.37-.08,2,.06C31.25,87,32.58,87.46,33.92,87.83ZM59.1,82h-.05c0-1.6,0-3.2,0-4.8A2.05,2.05,0,0,0,57,75c-2.07,0-4.15,0-6.23,0-.39,0-.88.07-1.15-.13a5.72,5.72,0,0,0-3.68-.75A2.3,2.3,0,0,0,43.4,76.7c0,3,0,5.91,0,8.86A3.52,3.52,0,0,0,44,87.31c.44.66.46,1.14-.12,1.67a1.37,1.37,0,0,0,0,2.2c.55.56,1.26,1,1.82,1.53,1.56,1.59,3.76.88,5.62,1.47s4.11.18,6.18,0a1.85,1.85,0,0,0,1.29-2.9A2.79,2.79,0,0,1,58.72,88a2.82,2.82,0,0,0,.36-1.22C59.13,85.15,59.1,83.55,59.1,82ZM21.82,61.73c-.89.15-2.09,0-2.61.51-1.95,1.95-4.3,3.56-5.43,6.29C12.77,71,12.62,71,15.08,72c1.67.7,2.75,1.66,2.36,3.54A9.9,9.9,0,0,1,16.08,79c-.31.46-1.41.44-2.16.53-.91.1-1.38.64-1.15,1.53.77,2.88,3.3,4,5.43,5.6a.78.78,0,0,0,.23,0,6.43,6.43,0,0,0,6.19-3.2c1.39-2.91,3.23-5.68,3-9.13a1.4,1.4,0,0,1,.43-.83,1.69,1.69,0,0,0,0-2.46,1.75,1.75,0,0,1-.45-1.29c.52-1.94-.39-3.47-1.22-5.07C25.38,62.9,24.3,61.33,21.82,61.73Zm91.54,20.63c1.7-.39,3.41-.74,5.09-1.21a1.56,1.56,0,0,0,.85-1c0-.18-.51-.63-.87-.79-1.34-.56-2.74-1-4.08-1.59-2.07-.88-4.06-2-6.18-2.71-1.72-.59-3-.31-2.68,1.84a2,2,0,0,1-.08,1.39c-1.07,1.3-.55,2.84-.76,4.26-.11.78.23,1.08,1.09.79a13.8,13.8,0,0,1,2.41-.42c.55-.07,1.29.12,1.62-.17C110.85,81.77,112.08,82.09,113.36,82.36Zm-40.64,3.7a21.67,21.67,0,0,0,.1-2.27A1.75,1.75,0,0,0,71.3,82c-.54-.08-1.36-.13-1.63.18-.61.69-.17,1.43.29,2.17a4.36,4.36,0,0,1,.42,1.79c.27,2.19.5,4.39.75,6.58,0,.15.15.29.18.44a13.16,13.16,0,0,1,.5,2.59,3.34,3.34,0,0,0,.58,2.47,1.82,1.82,0,0,1,.24,1.13,3.69,3.69,0,0,0,2.11,3.25c1.55.58,3.09,1.2,4.65,1.74.28.1.65-.07,1-.11-.06-.33,0-.8-.19-1-.62-.54-1.36-.94-2-1.44s-1.6-1-2-1.67c-.87-1.72-2.06-3.24-1.91-5.51a12.84,12.84,0,0,0-.94-4.47A13.55,13.55,0,0,1,72.72,86.06ZM50.45,69.68v-.1a13.12,13.12,0,0,0-2.51,0c-.44.09-.8.65-1.19,1a6.68,6.68,0,0,0,.91.93c1.55,1.07,3.34.5,5,.61.83,0,1.11-.68,1.06-1.44a1.1,1.1,0,0,0-1.26-1.14ZM12.92,76.75v0c.44,0,.88,0,1.32,0,.9,0,1.29-.47,1.29-1.35s-.4-1.34-1.31-1.33-1.59,0-2.39,0c-1-.05-1.31.58-1.37,1.42s.46,1.21,1.26,1.21C12.12,76.74,12.52,76.75,12.92,76.75ZM9.8,74.42c-.67-.51-1-1-1.42-1-.93-.14-1.11.58-1.11,1.32s.16,1.49,1,1.31C8.75,75.89,9.13,75.13,9.8,74.42Zm-3.92-.14-.76-.79c-.26.29-.67.55-.72.87s.43.53.67.79Z"></path><path d="M85.72,50.52a24.79,24.79,0,0,1-3.11,0A11.88,11.88,0,0,1,80,49.77c-2.23-.8-4.68-1.2-6.29-3.22a8.17,8.17,0,0,1-.73-.94c-1-1.65-2-3.28-2.85-5a5.52,5.52,0,0,1-.46-2.15c-.06-1,.08-2,0-3a3.77,3.77,0,0,1,.65-3,1,1,0,0,0,.17-.56,10,10,0,0,1,8-8.94,35.7,35.7,0,0,1,4.51-1.26c2.05-.22,4.22-.68,6.12.71a3.06,3.06,0,0,0,.86.4A13,13,0,0,1,97.49,29a16.5,16.5,0,0,1,1.92,9.63,7.17,7.17,0,0,1-.76,2.58c-1.14,2.39-2.21,4.85-4.62,6.33-.75.45-1.43,1-2.19,1.45C89.94,50,88,51.06,85.72,50.52ZM79.2,42.23c.24.48.39,1.31.82,1.51.89.41,1.31-.43,1.68-1.1.2-.35.38-.71.56-1.06a14.27,14.27,0,0,1,.91-1.68,1.83,1.83,0,0,1,3.32.17c.34.65.44,1.43.78,2.08a4.45,4.45,0,0,0,1.21,1.5c.18.14,1.12-.28,1.14-.5a7.76,7.76,0,0,0-.15-2.93c-.51-1.57-1.33-3-1.93-4.57a9.65,9.65,0,0,1-.9-3.12,3.82,3.82,0,0,0-.83-2.64c-.38-.43-1-1-1.43-.94a2.59,2.59,0,0,0-1.6,1.24,19.68,19.68,0,0,0-1,3.17c-.45,1.53-.91,3.06-1.36,4.59ZM91.12,31.82c-.73-.63-1.13-1.26-1.62-1.35-.78-.14-1,.58-1,1.26s.28,1.46,1.11,1.36C90,33,90.41,32.42,91.12,31.82Z"></path><path d="M21.41,75.13c0,.06-.26.57-.49.57a1.5,1.5,0,0,1-1-.55,9.53,9.53,0,0,1-1.3-2.1,4.69,4.69,0,0,1-.07-1.64,4.34,4.34,0,0,1,1.4.44A3.48,3.48,0,0,1,21.41,75.13Z"></path></svg>