<svg xmlns="http://www.w3.org/2000/svg" id="Layer_1" data-name="Layer 1" viewBox="0 0 93.06 78.38"><title>AsimovMarketingIcon-bt-omar bahaa</title><path d="M30,47.68c5.6,0,9.64-.35,13.59.11,3,.36,6,.35,9,.46,3.45.14,6.9.4,10.35.53A4.43,4.43,0,0,0,67.19,47a2,2,0,0,0,.3-1.52c-.09-.28-.85-.46-1.32-.46-2.76,0-5.52-.05-8.28,0-1.61.06-3.22.35-4.83.54a3.81,3.81,0,0,1-.59,0c-.79,0-1.84.1-1.83-1s1-.8,1.77-.88c2.71-.26,5.42-.6,8.14-.87.71-.07,1.43,0,2.15,0,2.36,0,4.72-.09,7.08,0,.9,0,1.79.38,2.69.46,2.12.18,4.27.26,6.38.38,4,.23,7.76,1.32,11.64,2a6.49,6.49,0,0,1,2.15,1c.23.14.28.57.42.87a3.31,3.31,0,0,1-.87.12c-2.39-.34-4.78-.71-7.17-1.09a9.68,9.68,0,0,1-1.51-.33c-1.62-.53-2.35,0-2.31,1.73s0,3.36.12,5c.27,6.24-4.37,11.63-9.86,13.21a7.58,7.58,0,0,1-1.17.24c-5.75.81-11.53.42-17.3.44-2.13,0-2.28,0-2,2.22.33,3-.3,5.69-2.66,7.81a5.51,5.51,0,0,1-3.81,1.47c-4.28,0-8.56,0-12.84,0A3.14,3.14,0,0,1,28.48,76a2.77,2.77,0,0,1,.3-1.55,2,2,0,0,1,.89-1c2.39-1.07,2.35-3.12,2.22-5.25-.06-.92-.42-1.37-1.41-1.36-6.88.06-13.76.29-20.63.06-3.68-.12-7.34-1.05-8.92-5.16a4.89,4.89,0,0,1-.4-1.6c0-7.08,0-14.16,0-21.24C.54,37.61.21,36.33.1,35a19.67,19.67,0,0,1,0-2c0-6.24-.25-12.48,0-18.71C.24,10.65,1,7,3.76,4.21A11,11,0,0,1,12.13.74a1.91,1.91,0,0,0,.83,0c2.11-1,4.41-.74,6.5-.48C28,1.28,36.61.49,45.18.65S62.38.71,71,.72a21,21,0,0,0,2.51,0c2.67-.29,4.55,1,6,3a10.06,10.06,0,0,1,1.73,5.64c.08,1.65.59,2.27,2.23,2.26,2,0,4,0,6-.11a1.57,1.57,0,0,1,1.77,1.77c0,2.2,0,4.39,0,6.59a4.63,4.63,0,0,1-.26,1.27c-.07.27-.29.51-.31.77-.18,2.13-.32,4.25-.49,6.38-.05.62-.17,1.24-.25,1.86a26.19,26.19,0,0,0-.62,5c.23,3.62-2.24,5.74-5.68,4.69a49.91,49.91,0,0,0-4.86-1.19c-.29-.06-.85.38-1,.72-.44,1-1,1-1.94.73a29.51,29.51,0,0,0-3.83-.88A58,58,0,0,0,65,38.15c-2.16-.12-4.4-.48-6.52.42a3.11,3.11,0,0,1-.7.16c-1.44.19-2.88.38-4.32.55-1.14.14-2.28.31-3.42.38A3.86,3.86,0,0,1,46.6,37.4c-.52-1.38-.85-1.45-2.25-1.07s-2.88.54-4.32.81c-2.1.41-4.2.85-6.3,1.27a2.28,2.28,0,0,1-1,.1,1.33,1.33,0,0,1-.79-.75,1.12,1.12,0,0,1,.57-.86,8.81,8.81,0,0,1,1.84-.52c2.1-.49,4.2-1,6.31-1.44.57-.12,1.19,0,1.77-.08a10.31,10.31,0,0,0,2.6-.64c.3-.14.43-.92.4-1.39,0-.16-.77-.42-1.17-.38-2,.19-4,.38-6,.71s-4,.85-6.06,1.25c-1.29.26-2.59.44-3.88.71a11.18,11.18,0,0,0-1.58.51c-.8.3-1.53.11-1.76-.67-.09-.28.56-1.05,1-1.17,3-.84,6.08-1.65,9.17-2.3,2.23-.46,4.51-.69,6.78-1a10,10,0,0,1,1.55,0c.87,0,1.39-.35,1.37-1.26,0-3.08-.15-6.15-.12-9.23a3.21,3.21,0,0,1,.69-2,9.05,9.05,0,0,1,4.86-2.41c2-.47,4-.95,6.06-1.4.53-.11,1.09-.12,1.63-.18L60,13.79l1.64-.24c.65-.09,1.31-.21,2-.28a12.86,12.86,0,0,0,1.87-.13,5.26,5.26,0,0,0,1.3-.73c-.29-.42-.49-1-.89-1.2a4,4,0,0,0-1.84-.38c-1.76,0-3.53.18-5.28,0-14.07-1.15-28.16-.13-42.24-.54a3,3,0,0,0-3.16,2.6c-.12.59-.32,1.16-.41,1.75-.26,1.75-.48,3.5-.71,5.26q-.45,3.39-.87,6.8a8.46,8.46,0,0,0-.08,1.42q.23,6.38.47,12.75a15.81,15.81,0,0,0,.1,2.49c.5,2.69,2.62,3.37,4.9,3.86C21.7,48.3,26.67,47.39,30,47.68ZM40.9,3.88v0c-9.16,0-18.32,0-27.48,0A11,11,0,0,0,9,4.91C5.49,6.58,3.85,9.54,3.85,13.47c0,5.79-.09,11.59-.11,17.39,0,8.24-.09,16.47,0,24.71a6.83,6.83,0,0,0,3.05,5.94,7,7,0,0,0,3.44.57c5.76.06,11.52-.1,17.28.06s11.5-.31,17.3.41c5.43.68,11,.09,16.54.12,1.17,0,2.33.33,3.51.45A3.81,3.81,0,0,0,66.29,63a9.26,9.26,0,0,0,6.18-5.89,12.79,12.79,0,0,0,.57-9,3.46,3.46,0,0,1-.05-1.4c.1-.82,0-1.45-.94-1.66s-1.6,0-1.87,1c-.14.54-.28,1.08-.39,1.63-.42,2.1-1.44,3.78-3.55,4.44a11.26,11.26,0,0,1-3.38.38c-9.68,0-19.36,0-29,0-7.48,0-15,.13-22.44.15a4.9,4.9,0,0,1-2-.6c-3.08-1.55-3.74-4.45-3.77-7.46Q5.45,30.26,5.6,16a9.26,9.26,0,0,1,1.64-5.89A4.48,4.48,0,0,1,10.34,8c2.13-.16,4.27-.25,6.4-.39a9.75,9.75,0,0,0,1-.24,10.18,10.18,0,0,1,2.11-.28c5.29.27,10.57,0,15.88.39,7.48.54,15,.1,22.55.14,1.77,0,3.59-.42,5.3.45a1.69,1.69,0,0,0,.95,0,3,3,0,0,1,2.94,1,23.08,23.08,0,0,1,2,2.54c.4.58.71,1.27,1.56.93s1.93-.6,2-1.91a8.17,8.17,0,0,0-1.3-4.9,3.68,3.68,0,0,0-3.29-1.87Q54.69,3.9,40.9,3.88ZM87.12,17.09c-.07-.82-.56-1-1.19-.8-1.28.45-2.56.91-3.78,1.48-3.23,1.49-6.43,3-9.64,4.55-1.65.79-3.33,1.52-4.92,2.42-1.19.67-1.12,1.45,0,2.12a16,16,0,0,0,1.49.76l15.35,7c1,.45,1.49.19,1.48-.85,0-2.4-.16-4.8-.1-7.19,0-1.84.28-3.68.51-5.5C86.54,19.72,86.86,18.41,87.12,17.09Zm-27.85-.15,0-.13c-1.28.24-2.57.43-3.84.73-1.7.4-3.38.88-5.06,1.37-.33.1-.81.4-.84.66a1.49,1.49,0,0,0,.44,1.1,9.06,9.06,0,0,0,1.2.76c2.27,1.7,4.5,3.45,6.81,5.1a1.77,1.77,0,0,0,1.58.12c2.48-1.52,4.84-3.25,7.35-4.72,2.82-1.66,5.75-3.13,8.65-4.64.69-.37,1.51-.5,2.22-.85.29-.15.43-.6.64-.91a4,4,0,0,0-1.06-.32c-1.44,0-2.88,0-4.31.12q-4.34.18-8.66.41a6.34,6.34,0,0,0-.92.26Zm5.47,17.93v.07c.71,0,1.43,0,2.15,0,1.6,0,3.2-.13,4.79,0,2,.12,4.09.43,6.15.59.34,0,.71-.31,1.07-.49-.24-.28-.42-.7-.73-.83-1-.42-2.07-.64-3-1.09-3.53-1.66-7-3.41-10.55-5.06a2.61,2.61,0,0,0-1.89-.16,13.74,13.74,0,0,0-2.93,1.84c-.62.48-1.09.68-1.81.22a1.16,1.16,0,0,0-1.07,0c-1.81,1.36-3.58,2.77-5.33,4.21a1.15,1.15,0,0,0-.31.92c0,.2.47.39.75.44a3.87,3.87,0,0,0,1.07,0c1.77-.2,3.54-.5,5.32-.58C60.51,34.79,62.63,34.87,64.74,34.87ZM47,30.51l-.2,0a27.27,27.27,0,0,0,.8,2.61c.31.74.93.72,1.47.24,1.78-1.57,3.53-3.19,5.3-4.77.52-.47.59-.92.08-1.42a4.19,4.19,0,0,0-.45-.39c-2-1.48-3.93-3-5.92-4.42a.88.88,0,0,0-1.44.48,3.51,3.51,0,0,0-.12,1.41C46.63,26.36,46.81,28.43,47,30.51Zm-7.06,43v0h3.48A2.79,2.79,0,0,0,45.78,71c0-1.14-.58-1.6-2.12-1.6l-7.18,0c-1,0-2,1.29-2.09,2.47,0,1,.65,1.61,1.81,1.66S38.68,73.51,39.91,73.51Z"></path><path d="M32,22.38a28.38,28.38,0,0,1-1.42,3,7.22,7.22,0,0,1-6.52,3.37c-2.81-.08-4.5-2.14-5.71-4.67-1.06-2.24-.11-4,1-5.69a6.15,6.15,0,0,1,5.19-2.95,6.74,6.74,0,0,1,5.62,2.42C31.07,19.05,31.35,20.78,32,22.38ZM25.15,20l.5-.29c-.38-.47-.68-1.18-1.18-1.36-.89-.33-1,.53-1.28,1.17-.41,1-1,2-1.39,3a4,4,0,0,0,0,1.38c.4-.22.93-.34,1.19-.68.77-1,.9-1,1.73-.07.24.28.76.32,1.15.47A4.08,4.08,0,0,0,26,22.36,24.38,24.38,0,0,0,25.15,20Z"></path><path d="M36.17,58.06c0-1.52.55-2.05,2-2a2.07,2.07,0,0,1,2,2,2.46,2.46,0,0,1-2.3,2C36.78,60.07,36.14,59.32,36.17,58.06Z"></path></svg>