<svg xmlns="http://www.w3.org/2000/svg" id="Layer_1" data-name="Layer 1" viewBox="0 0 112.78 112.11"><title>AsimovMarketingIcon-bt-omar bahaa</title><path d="M67.7,111.2c-5.57,1.52-11.22.64-16.84.84-1.88.06-3.5-.88-5.16-1.63-1.84-.83-3.77-1.47-5.51-2.45-1.23-.69-2.46-.4-3.68-.62-1.54-.27-3-.8-4.55-1.21-1-.27-1.95-.47-2.9-.79a12.32,12.32,0,0,1-2.12-1c-1.4-.76-2.77-1.57-4.14-2.38a4.32,4.32,0,0,1-.95-.68c-2.11-2.08-4.29-4.09-6.25-6.3a34.45,34.45,0,0,1-2.74-4.2,29,29,0,0,0-2.52-3.63A13,13,0,0,1,7.4,81.82,52.62,52.62,0,0,0,5.11,76.5c-.4-1-.7-1.94-1-2.93s-.47-1.95-.84-2.87A14.29,14.29,0,0,1,2,66.26a18.59,18.59,0,0,0-1.08-4c0-.11-.15-.21-.17-.31a38.31,38.31,0,0,1-.66-4.6,85.39,85.39,0,0,1,0-9.6c.14-1.84.46-3.7.7-5.55a22.22,22.22,0,0,1,1.91-5.77A45.06,45.06,0,0,1,5,32.38c1.07-1.93,2.1-3.9,3.23-5.8a33.07,33.07,0,0,1,2-2.85c1.33-1.78,2.64-3.58,4-5.31a20.61,20.61,0,0,1,1.87-1.59c1.14-1.08,2.24-2.19,3.34-3.31.62-.64,1.15-1.37,1.79-2,.38-.36,1-.51,1.35-.88a22.24,22.24,0,0,1,7-4.57C32.2,4.94,35,4.46,37.3,2.9A1.61,1.61,0,0,1,38.74,3c.62.44,1.09.58,1.68,0a1,1,0,0,1,.64-.25c1.57,0,2.89-.78,4.31-1.24S48.28,1.1,49.7.73C54.76-.57,59.9.29,65,.16c1.67,0,3.36.73,5,1.13.23.05.47.07.69.13l4,1.19c1,.28,1.94.53,2.89.83.51.16,1,.46,1.49.63a34.92,34.92,0,0,1,6,2.9c2.5,1.36,4.6,3.23,6.92,4.79,1.92,1.31,3.29,3.08,5,4.49.6.49,1.44.74,1.91,1.31,1.33,1.63,2.54,3.36,3.79,5.05.7.94,1.47,1.84,2.08,2.83s1.23,2.26,1.81,3.4,1.13,2.24,1.63,3.38c.4.91.73,1.85,1.07,2.79.4,1.16.82,2.31,1.16,3.48s.56,2.24.85,3.35A20.42,20.42,0,0,1,111.9,44c.11.86.08,1.75.13,2.62s.36,1.94.47,2.83a33.75,33.75,0,0,1,0,8.58c-.16,1.12-.34,2.28-.5,3.43a15.7,15.7,0,0,1-.48,1.88,2.41,2.41,0,0,0-.16.45c-.23,1.53-.41,3.07-.68,4.59a13.74,13.74,0,0,1-.7,2.32c-.44,1.19-.92,2.37-1.42,3.55-.61,1.45-1.2,2.92-1.92,4.32s-1.51,2.72-2.34,4c-1.23,1.94-2.51,3.84-3.79,5.74a6.06,6.06,0,0,1-.79.89c-2.18,2.18-4.29,4.43-6.56,6.5a44,44,0,0,1-4.27,3.06c-.92.65-1.83,1.32-2.74,2-.26.19-.49.5-.76.55-.71.11-.88.48-.92,1.15a1.72,1.72,0,0,1-.6,1.2c-1.25.85-2.58,1.59-3.88,2.38a30.87,30.87,0,0,0-2.86,1.76,11.12,11.12,0,0,1-4.78,2.32c-.48.09-.89.51-1.36.66-1.07.33-2.15.6-3.22.89ZM65.81,99.7c.94-.31,1.84-.66,2.76-.9,1.16-.3,2.38-.39,3.51-.76,1.83-.59,3.64-1.26,5.41-2a24.51,24.51,0,0,0,3.35-1.88c1-.6,1.84-1.33,2.77-2a36.24,36.24,0,0,0,4-2.8c2.46-2.27,4.77-4.71,7.14-7.09a4.74,4.74,0,0,0,.6-.74c.64-1,1.23-2.07,1.89-3.06s1.42-1.87,2.07-2.84a9.43,9.43,0,0,0,.8-1.7c.63-1.64,1.23-3.3,1.86-4.94.42-1.09,1.1-2.1.84-3.37a2.13,2.13,0,0,1,.1-.82A41,41,0,0,0,104.08,59c.2-3.14.13-6.31,0-9.47-.06-1.82-.43-3.62-.66-5.43l0-.12c-.43-1.47-.81-3-1.3-4.41a42.58,42.58,0,0,0-1.82-4.84c-.8-1.69-1.82-3.26-2.77-4.87S95.77,26.32,94.44,25c-2.75-2.78-5.12-6-8.59-8-1.41-.82-2.86-1.57-4.29-2.35-1-.56-2-1.17-3.09-1.67a36,36,0,0,0-5.13-2.17c-1.31-.38-2.53-.58-3.11-2a1.26,1.26,0,0,0-.8-.66,33.08,33.08,0,0,0-4.6-.73,58.19,58.19,0,0,0-6.47,0c-1.87.1-3.71.44-5.57.65a15.09,15.09,0,0,0-2.14.13,23.14,23.14,0,0,1-3.73,1.15,21.68,21.68,0,0,0-5.85,1.37c-2,.75-4.12,1.25-6.09,2.08-2.15.91-4.19,2.09-6.29,3.1a6.75,6.75,0,0,1-2.38.85A5,5,0,0,0,23.24,18a17.52,17.52,0,0,0-4.7,6c-.28.62-.35,1.35-.65,2-1.7,3.44-3.83,6.68-4.61,10.52C13,38,12.36,39.39,12,40.88s-.46,3.06-.69,4.6c0,.19-.09.38-.14.57-.4,1.56-1.19,3.12-1.14,4.66.09,3-.65,6,.51,9.08.56,1.45.28,3.19.63,4.84a22.11,22.11,0,0,0,1.52,5.3c.93,1.88,2.07,3.66,3.14,5.46a53.34,53.34,0,0,1,2.84,4.67A28.8,28.8,0,0,0,23,86.47a25.41,25.41,0,0,0,3.95,3.33,10.06,10.06,0,0,0,2.36,1.51c2.24.87,4.19,2.33,6.6,2.93a48.72,48.72,0,0,1,6.33,2.51,11.18,11.18,0,0,0,1.61.67c1.32.29,2.66.49,4,.73a2.3,2.3,0,0,1,.32.15,13.63,13.63,0,0,0,2.78,1.1,45,45,0,0,0,6.64.68C60.29,100.12,63,99.85,65.81,99.7Z"></path><path d="M44.67,77.81a10.69,10.69,0,0,1-3-1.7c-.91-1-2-2.17-.85-3.94.62-.92.54-2.3.83-3.45.17-.71.44-1.39.67-2.09.4-1.23.82-2.46,1.2-3.7.29-1,.52-1.93.81-2.89.39-1.28.8-2.55,1.2-3.83a2,2,0,0,0,.15-.57c0-1.53.7-2.82,1.2-4.19a33.58,33.58,0,0,0,.81-3.36c.25-1,.56-1.92.84-2.88.39-1.32.79-2.64,1.18-4,.26-.89.51-1.78.77-2.66.41-1.4.83-2.79,1.23-4.18a6.74,6.74,0,0,1,3-4c1.83-1.11,4.84.09,5.64,2.1.51,1.27.72,2.69,1.35,3.89.83,1.56.48,3.53,1.84,4.86.11.11.07.38.13.57.39,1.35.79,2.71,1.19,4.06.26.89.54,1.77.81,2.65.5,1.66,1,3.31,1.5,5,.09.29.38.51.5.8.89,2.17,1.82,4.32,2.62,6.53s1.39,4.31,2.12,6.45c.32.94.78,1.83,1.14,2.76a3.56,3.56,0,0,1,.17.92c0,.36-.11.81.07,1.06,1.43,2.08.1,3.58-1.33,4.58a5,5,0,0,1-3.6.37,2.3,2.3,0,0,1-1.72-2.33c0-.44-.45-.88-.61-1.36-.71-2.11-1.36-4.24-2.09-6.35a12,12,0,0,0-1.41-3.38,3.93,3.93,0,0,0-2.42-1.16c-2.1-.31-4,.4-6,1.14-1.42.53-2.82.89-3.86,2-.16.18-.4.35-.44.56-.27,1.36-.51,2.73-.76,4.1s-.44,3-1.55,4.17c-.39.41-.5,1.1-.9,1.48A29.67,29.67,0,0,1,44.67,77.81Zm9.67-22.09a12.68,12.68,0,0,1,1.79-.56c.59-.08,1.2,0,1.79,0,.4-.05,1.09-.24,1.1-.42A9.79,9.79,0,0,0,59,51.9c-.29-1.49-.74-2.95-1.17-4.41-.2-.66-.51-1.28-.77-1.92h-.54a7.07,7.07,0,0,0-.84,1.67c-.3,1.51-.47,3-.7,4.57a1,1,0,0,1-.22.42C53.89,53.32,54.43,54.48,54.34,55.72Z"></path><path d="M76.45,39c0,2-1,3.12-2.57,3.25-3.44.29-4.62-1.47-4.64-3.4A3.93,3.93,0,0,1,73.12,35,3.43,3.43,0,0,1,76.45,39Z"></path></svg>