<svg xmlns="http://www.w3.org/2000/svg" id="Layer_1" data-name="Layer 1" viewBox="0 0 76.38 82.88"><title>AsimovMarketingIcon-bt-omar bahaa</title><path d="M71.7,30v8.15a1.72,1.72,0,0,0,.08.83c.9,1.44.54,3,.55,4.56,0,5.88.08,11.75.12,17.63,0,2.13-1.9,3.85-4,4.37s-4.16-.19-6.24-.12-4.11-.65-6.17-1a2.6,2.6,0,0,0-.47-.09c-2.54-.12-5.07-.21-7.61-.35a16.74,16.74,0,0,1-2-.29c-1.47-.25-2.93-.58-4.41-.7-.31,0-.94.68-1,1.08a29.41,29.41,0,0,0,0,5.14c.06.6.79,1.25,1.38,1.64,2.6,1.71,5.2,3.45,7.93,5a2.54,2.54,0,0,1-.19,4.4,2.22,2.22,0,0,1-1.75,0c-2.07-1.19-4-2.55-6.1-3.8a7.42,7.42,0,0,0-1.59-.53c-.08.52-.15,1-.22,1.56a30.64,30.64,0,0,1-.57,3.84,2.11,2.11,0,0,1-2.38,1.56,2.3,2.3,0,0,1-1.85-2.55c0-1.36.07-2.72.1-4.08s-.47-1.67-1.7-1.34c-2.85.78-5.71,1.52-8.56,2.32-1.52.43-1.83-.83-2.38-1.66a1.67,1.67,0,0,1,.33-2.46,5.83,5.83,0,0,1,1.83-.83c3-.82,6.11-1.56,9.16-2.38,1.41-.38,1.88-1.16,1.84-2.66q0-1.44,0-2.88c0-.86-.28-1.38-1.19-1.46-1.5-.13-3-.25-4.49-.43-2.47-.28-4.93-.61-7.4-.91a7.59,7.59,0,0,0-1.07-.08,27.1,27.1,0,0,1-3.12,0c-2.34-.26-4.67-.64-7-1a37.13,37.13,0,0,1-4.12-.57,14.09,14.09,0,0,1-3-1.42,1.2,1.2,0,0,1-.43-.81c-.16-1.88-.38-3.78-.38-5.67q-.06-17.26,0-34.55c0-1.43,0-2.72-1.33-3.58a13.78,13.78,0,0,0-1.27-.65C0,12.69-.23,12,.24,10.79A2.78,2.78,0,0,0,.39,8.94,2,2,0,0,1,2.25,6.05c1.5.08,3,.39,4.48.51,2.44.19,4.9.32,7.35.48a4.12,4.12,0,0,1,1.42.09c1.6.76,3.29.47,4.95.58,3.2.22,6.39.58,9.58.79a44.86,44.86,0,0,0,4.92,0,1.44,1.44,0,0,0,1.46-1.59c0-1.55,0-3.11-.1-4.67,0-.8-.2-1.66.77-2,1.23-.49,3-.13,3.46.76a5.1,5.1,0,0,1,.56,2c.06,1.51-.05,3-.08,4.55s.53,2,2,2c1.32,0,2.65-.14,4,0,2.32.21,4.62.57,6.93.87.16,0,.31.08.47.09,3,.17,5.94.3,8.9.52,2,.14,4,.41,6,.6,1.77.16,3.56.22,5.32.43,1.46.17,2.33,2.62,1.32,3.73-.67.74-1,1.35-.33,2.3a1.44,1.44,0,0,1-.19,1.37,2.11,2.11,0,0,1-1.56.53c-1.69-.3-2.15.06-2.14,1.79,0,2.72,0,5.44,0,8.16ZM6.76,33.9h0c0,5.92,0,11.84,0,17.76,0,1,.24,1.71,1.24,1.9,1.32.26,2.66.44,4,.58.71.08,1.44-.06,2.15,0,2.79.31,5.57.72,8.36,1,1.53.14,3.1-.18,4.59.56a4.12,4.12,0,0,0,1.65,0c.44,0,.88-.05,1.31,0,3.08.29,6.15.62,9.22.89,1.69.14,3.43-.37,5.06.51.35.19.87,0,1.3,0s1,0,1.43.06c2.78.3,5.56.65,8.35.91,1.22.11,2.47,0,3.69.09,2.79.27,5.57.72,8.36.92,1.36.09,2-1.17,1.62-2.56a6.69,6.69,0,0,1-.45-1.84c0-4.2,0-8.4,0-12.6q0-10.2,0-20.39c0-.95-.27-1.74-1.3-1.85-2.16-.24-4.33-.4-6.5-.57-1-.08-2.06-.09-3.09-.19-.85-.08-1.7-.27-2.56-.36-.47-.05-1,.06-1.43,0-2.38-.31-4.75-.76-7.14-1-2.61-.24-5.23-.24-7.84-.42-1.41-.09-2.81-.35-4.22-.51a15.44,15.44,0,0,0-1.67-.07c-.51,0-1,0-1.55,0-2.91-.28-5.82-.6-8.73-.87-2.17-.2-4.34-.32-6.5-.53-1.14-.12-2.26-.4-3.39-.54a22.51,22.51,0,0,1-3.41-.33c-1.65-.48-2.6.08-2.6,1.79Z"></path><path d="M62.94,39.84V53c0,1.69-.39,2-2,1.63a1.45,1.45,0,0,0-.35-.07c-2.34-.17-4.67-.31-7-.5a19.35,19.35,0,0,1-2-.32,7.73,7.73,0,0,0-.92-.23c-2.18-.17-4.36-.26-6.52-.46-3-.28-6-.64-9-.94-2-.21-4-.35-6-.58-2.41-.26-4.8-.58-7.2-.88-.16,0-.31-.07-.47-.08-2.46-.16-4.92-.27-7.37-.48a5.72,5.72,0,0,1-2.28-.61,2,2,0,0,1-.92-1.46c-.05-8.6,0-17.2,0-25.79,0-1.31.62-1.94,1.92-1.93a19,19,0,0,1,2.47.34c.39.06.77.24,1.16.26,2.5.15,5,.22,7.51.42,2.92.25,5.84.64,8.76.9s5.71.38,8.56.64c2.69.25,5.37.59,8,.9.19,0,.39.1.58.11l7.15.37c.44,0,.87.08,1.3.13,1.06.14,2.11.37,3.17.42s1.39.35,1.39,1.34c0,4.56,0,9.11,0,13.67ZM12.43,35h0c0,3.92,0,7.83,0,11.75a1.64,1.64,0,0,0,1.55,1.8c2,.25,4,.4,5.93.55,2.65.21,5.3.38,8,.57.12,0,.23.06.35.08,2.16.3,4.32.66,6.49.86,2.58.25,5.16.35,7.74.53.32,0,.63.12.95.16,2.11.28,4.23.62,6.35.81s4.51.28,6.77.41c.16,0,.31.08.47.1,1.09.15,2.19.33,3.28.43s1.39-.44,1.38-1.38q0-10.42,0-20.86c0-.88.08-1.76,0-2.64s-.29-1.75-1.33-1.87c-1.86-.21-3.72-.32-5.58-.48l-1.31-.1L49,25.3c-.4,0-.8,0-1.2-.06-3.27-.33-6.55-.68-9.83-1-2.06-.19-4.13-.27-6.19-.48-2.72-.27-5.42-.67-8.14-.91s-5.63-.36-8.44-.54a3.71,3.71,0,0,1-.93-.22c-1.35-.41-1.83,0-1.83,1.41C12.43,27.35,12.43,31.18,12.43,35Z"></path><path d="M22.41,41.13c-1.29.42-2.36-.31-3.13-1.4-.9-1.29-2.27-2.68-2.3-4.06,0-2.22,2.59-5.88,5.28-5.78,4.66.17,7.13,2.17,7,6C29.23,38.56,25.92,41.16,22.41,41.13Zm1.33-6.85L24,34.2a5.51,5.51,0,0,0-.34-1.48,1.25,1.25,0,0,0-.91-.57,1.26,1.26,0,0,0-.89.61,32.35,32.35,0,0,0-1.4,3,3,3,0,0,0-.05,1c.31-.08.72-.06.93-.25.71-.65,1.2-.56,1.75.21.22.31.73.41,1.11.61a6.5,6.5,0,0,0,0-1.39A12.33,12.33,0,0,0,23.74,34.28Z"></path><path d="M32.84,37.55c2.92.08,5.91-.21,8.74.33,3.28.63,6.51.28,9.75.46a7.34,7.34,0,0,1,2.31.54c.38.16.89.77.82,1.07a1.65,1.65,0,0,1-1,1.08,9,9,0,0,1-2.14,0c-1.72,0-3.44.07-5.15,0-2.73-.12-5.45-.32-8.17-.53-1.29-.11-2.57-.35-3.86-.45-.75-.06-1.51.06-2.27.06-1.08,0-1.35-.46-.91-1.45.58-1.3.84-1.49,1.89-1.44Z"></path><path d="M35.53,32.15c1.26.25,2.52.55,3.79.75a32.42,32.42,0,0,1,4.45.6c2.17.65,4.35.31,6.52.45a18.12,18.12,0,0,1,3.5.57c.39.11,1,.89.87,1.14-.17.43-.81,1-1.21,1-3.59-.27-7.2-.53-10.75-1.08-1.41-.22-2.83-.27-4.2-.51a28.3,28.3,0,0,0-5.8-.39c-.34,0-1.06-.87-1-1,.3-.52.75-1.15,1.27-1.29a9.46,9.46,0,0,1,2.5-.06Z"></path><path d="M57.52,49.67c-.64-.08-1.46-.11-1.59-1.11-.09-.69.8-1.47,1.58-1.48s2,.73,2,1.36S58.7,49.65,57.52,49.67Z"></path></svg>