<svg xmlns="http://www.w3.org/2000/svg" id="Layer_1" data-name="Layer 1" viewBox="0 0 95.28 78.53"><title>AsimovMarketingIcon-bt-omar bahaa</title><path d="M67.6,4.41a18.91,18.91,0,0,1,13,4.17c4.35,3.41,7.77,7.6,8.86,13.27.27,1.39.7,2.76.85,4.17a12.67,12.67,0,0,1-.23,3.06,25.74,25.74,0,0,1-.61,3.38,24.57,24.57,0,0,1-7.07,11.85c-.17.16-.33.34-.51.5-1.58,1.39-1.57,1.39-.54,3.3.39.73.73,1.5,1.09,2.26.62,1.3.51,1.69-.8,2.37-2.24,1.14-4.52,2.22-6.75,3.39-5.12,2.68-10.21,5.45-15.34,8.11-4,2.08-8.1,4-12.12,6.07q-7.56,3.89-15,7.92a1.53,1.53,0,0,1-2.27-.48,3,3,0,0,0-2.83-1.62c-.51,0-1.23-.71-1.57-1.26-1.06-1.74-2-3.56-3-5.35q-4.42-8.1-8.85-16.19c-1.52-2.81-3-5.65-4.51-8.45-2-3.62-4-7.22-5.93-10.82-1-1.75-1.95-3.49-2.88-5.25s-.69-3.16,1.08-4.14c2.84-1.55,5.77-2.93,8.64-4.42,4.48-2.3,8.94-4.64,13.41-6.95,7-3.6,14-7.17,21-10.78,1.24-.64,2.42-1.39,3.64-2.08s1.89-.58,2.72.59,1.05,1.29,2.37.42c.24-.15.47-.3.72-.44,1.7-1,2-.81,2.88,1q2.05,4.38,4.22,8.72c.63,1.26,1.16,1.45,2,.92,1-.64,1.1-1.26.45-2.38a31.58,31.58,0,0,1-1.65-3.29c-.31-.69.08-1.05.78-1.11Zm12.45,46.1c-.2-.43-.31-.68-.44-.92-1.82-3.33-3.7-6.62-5.46-10-1.55-3-2.91-6-4.47-9-2.4-4.6-4.92-9.13-7.35-13.71-1.9-3.56-3.74-7.15-5.61-10.72-.39-.75-.75-1.51-1.15-2.24s-1-.82-1.71-.4C49.94,5.67,46,7.84,42.07,9.91c-3.25,1.71-6.6,3.24-9.86,4.93C27.33,17.38,22.5,20,17.63,22.58Q13,25,8.38,27.38a1.15,1.15,0,0,0-.54,1.85c.51.9,1.06,1.78,1.54,2.7,1.66,3.22,3.28,6.48,5,9.69,2.2,4.21,4.5,8.37,6.67,12.59s4.09,8.21,6.17,12.31c1.35,2.67,2.76,5.31,4.17,8,.55,1,1.17,1.18,2.26.61,3.81-2,7.61-4,11.43-6,4.54-2.35,9.1-4.66,13.64-7l14.68-7.6c1.84-1,3.68-1.91,5.5-2.92A7.27,7.27,0,0,0,80.05,50.51ZM68.17,18.93l-1.69.59c.26.6.49,1.21.79,1.79a6.31,6.31,0,0,0,.79,1.19c.65.78,1.36,1.5,2,2.28.36.44,1,1,.88,1.4-.61,2.11.9,3.56,1.52,5.27a1.32,1.32,0,0,0,1.21.46c.78-.26,2.19-4.6,1.89-5.41A15.24,15.24,0,0,1,75,24.68C74.39,22,70.93,19.11,68.17,18.93ZM85.1,28.6a2.35,2.35,0,0,0,0-.84c-.22-.55-.53-1.07-.8-1.6a8.32,8.32,0,0,0-1.5.91,4,4,0,0,0-.68,1.25c-.5,1.12-1,2.25-1.49,3.38a2.52,2.52,0,0,0-.34,1c0,.48.1,1.15.41,1.36a1.6,1.6,0,0,0,1.41-.14A5.93,5.93,0,0,0,85.1,28.6Z"></path><path d="M95.26,37.86c0,2-.39,3.65-1.89,4.72a1.84,1.84,0,0,1-1.58.28c-.47-.32-1-1.22-.88-1.61a31.18,31.18,0,0,1,2.32-4.62,1.5,1.5,0,0,1,1.41-.46c.37.26.45,1,.62,1.5C95.31,37.81,95.25,38,95.26,37.86Z"></path><path d="M48.61,17.52a5.62,5.62,0,0,1,1.18,1.21C51.93,23,54,27.27,56.15,31.5s4.5,8.55,6.81,12.79c1.06,1.94,1,2.19-.93,3.18Q51.5,52.81,41,58.19c-.95.49-1.82,1.15-2.74,1.71-1.26.76-1.84.6-2.49-.67-1.15-2.23-2.27-4.49-3.42-6.72C30.56,49.07,28.78,45.62,27,42.2c-1.5-2.82-3.06-5.6-4.59-8.4-.68-1.24-.5-1.67.75-2.36,3.91-2.15,7.8-4.37,11.72-6.52,3-1.64,6-3.19,9-4.81,1.19-.65,2.34-1.37,3.52-2.05C47.68,17.87,48.06,17.75,48.61,17.52ZM58,45.77c-.09,1.31.34,1.6,1.53,1,.29-.14.57-.3.85-.45,1.11-.6,1.18-.94.49-2A12.27,12.27,0,0,1,60,43c-1.42-2.86-2.82-5.73-4.26-8.59-.45-.91-.94-1-1.65-.21-.35.38-.61,1-1,1.12a2,2,0,0,1-1.67-.08c-.55-.47-.32-1.17.28-1.63s1.18-.83,1.72-1.29a1.46,1.46,0,0,0,.27-2q-2.34-4.32-4.58-8.68c-.85-1.65-1.15-1.77-2.7-.81-.37.23-.76.43-1.15.65-1.22.69-1.26,1.07-.31,2.07a5.16,5.16,0,0,1,1.17,1.63c.15.42-.11,1-.18,1.5a6.45,6.45,0,0,1-1.34-.48c-.28-.18-.42-.57-.65-.85-.86-1-2.84-1.68-3.7-1.19L33.39,28c-1,.57-1,1.07-.22,1.88.39.39.94.72,1.14,1.2s-.05,1-.1,1.49a3.29,3.29,0,0,1-1.33-.28c-.6-.44-1-1.11-1.62-1.58-1.19-.95-1.78-.9-3,0a13.31,13.31,0,0,1-1.75,1C24.07,33,24,33.18,25.41,35.45c.41.66.85.91,1.57.45a1.14,1.14,0,0,1,1.81.46c.43.85-.18,1.23-.85,1.52s-.79.83-.41,1.54c1.18,2.21,2.36,4.43,3.45,6.69.48,1,1,1.3,2.06.82A26.84,26.84,0,0,1,36.5,45.6c.9-.28,2,.34,2,1.06,0,1-.81,1.14-1.57,1.28a19.87,19.87,0,0,0-2.68.54c-1.49.48-1.66,1.06-.89,2.41.89,1.56,1.8,3.11,2.63,4.69,1.34,2.53,1.31,2.54,3.79,1.24l.53-.28c1.43-.76,1.49-1.17.5-2.47a8.09,8.09,0,0,1-1.4-2.35c-.15-.42.34-1.06.54-1.6a4.85,4.85,0,0,1,1.23.84c.52.7.83,1.56,1.34,2.26,1.19,1.62,1.47,1.64,3.26.63.48-.28,1-.51,1.49-.77l7.21-3.79A2.39,2.39,0,0,0,56,47.15a21.62,21.62,0,0,1,.31-3.41c.1-.46.67-.82,1-1.23.28.41.72.79.8,1.23A8.71,8.71,0,0,1,58,45.77Z"></path><path d="M62,36.42c.17-.25.29-.64.52-.72a1.17,1.17,0,0,1,1,.12,3.81,3.81,0,0,1,.89,1.1c1,1.65,1.9,3.32,2.87,5,.4.67.73,1.34-.15,1.84s-1.14-.25-1.47-.79Q64,40.29,62.4,37.6A8.63,8.63,0,0,1,62,36.42Z"></path><path d="M49.57,38.76a19,19,0,0,1,2.26-.1,3,3,0,0,1,1.52.47,1.26,1.26,0,0,1,.33,1.15,1.29,1.29,0,0,1-1,.71,11.16,11.16,0,0,1-3-.35,2.49,2.49,0,0,0-2.51.49,20.56,20.56,0,0,1-3.47,2,.86.86,0,0,1-1.12-1.06,3.8,3.8,0,0,1,1.34-1.64,9.5,9.5,0,0,1,2.53-1.31,23.91,23.91,0,0,1,3.07-.66Z"></path><path d="M39.14,34a12.72,12.72,0,0,0-.84-1.09,3,3,0,0,1,.49-4,1.13,1.13,0,0,1,1.06,0,1.26,1.26,0,0,1,.28,1.13c-.53.94-.16,1.54.3,2.38A4.79,4.79,0,0,1,40.61,35a7.81,7.81,0,0,1-.52,1.71,1.07,1.07,0,0,1-1.59.74A1.1,1.1,0,0,1,38,35.71C38.34,35.13,38.74,34.6,39.14,34Z"></path><path d="M36.56,42.51c-.24.36-.36.77-.62.9a1.06,1.06,0,0,1-1-.11c-.86-.9-1.85-1.69-2.12-3.09a6.27,6.27,0,0,0-1.33-2.32c-.39-.53-1-1.07-.33-1.59a1.77,1.77,0,0,1,1.63.24,4.64,4.64,0,0,1,2,3.17c.07.56.6,1.07.93,1.6S36.25,42.07,36.56,42.51Z"></path><path d="M46.16,49.48a.9.9,0,0,1-.91-1.34,4.08,4.08,0,0,1,1.11-1.2,34.38,34.38,0,0,1,2.88-2.07c.28-.17,1-.15,1.1,0a1.62,1.62,0,0,1,.19,1.36,7.5,7.5,0,0,1-1.65,1.52c-.7.52-1.44,1-2.17,1.45A4.28,4.28,0,0,1,46.16,49.48Z"></path><path d="M46.05,33.37a29.39,29.39,0,0,1,1.21-2.82c.12-.23.85-.41,1-.28.35.35.78.91.72,1.32a9.67,9.67,0,0,1-.91,2.56c-.1.22-.69.47-.84.37A7.87,7.87,0,0,1,46.05,33.37Z"></path></svg>