<svg xmlns="http://www.w3.org/2000/svg" id="Layer_1" data-name="Layer 1" viewBox="0 0 128.93 139.54"><title>AsimovMarketingIcon-bt-omar bahaa</title><path d="M61.17,30c2.82.87,4.72-.49,6.44-2.53a6,6,0,0,1,5.08-2.08c9.28.12,18.56.07,27.84.07,1.75,0,2.61-.84,3.32-2.38a41.32,41.32,0,0,1,2.85-4.83,40.39,40.39,0,0,1,2.57-3.73,33.84,33.84,0,0,1,2.88-3c.68-.65,1.46-.43,2.22,0s.8,1,.84,1.7a2.9,2.9,0,0,1-1.08,2.75,3,3,0,0,0-.52.79l-3.48,5.55a15.16,15.16,0,0,0-.79,1.34c-.19.4-.53,1.12-.41,1.22a2.18,2.18,0,0,0,1.44.56,4.06,4.06,0,0,1,2.83.61,1.7,1.7,0,0,0,2.52-.83c1.86-3.35,3.78-6.66,5.48-10.08a35.86,35.86,0,0,0,1.67-5.17c.53-1.7,1.16-3.38,1.56-5.12a22.43,22.43,0,0,0,.08-3A10.23,10.23,0,0,1,125,0a9.36,9.36,0,0,1,1.76.7,2.75,2.75,0,0,1,1.42,2.49,1.49,1.49,0,0,0,.4.84,1.65,1.65,0,0,1,.06,1.89,15.78,15.78,0,0,0-.52,2.35c-.33,1.27-.72,2.53-1.08,3.81q-.27.95-.48,1.92a4.38,4.38,0,0,1-.1.82c-1.54,3.36-3,6.75-4.68,10.07a42.72,42.72,0,0,1-2.73,4.47c-.51.78-.53,1.53.19,2,2.11,1.42,2.12,3.46,2.11,5.7q-.1,19.2,0,38.4c0,2.58-1.24,4.49-2.65,6.31a19.23,19.23,0,0,1-4.53,4.43,32.19,32.19,0,0,0-5.36,4.7c-7.41,7.41-14.74,14.89-22.18,22.28-2,2-4.37,3.7-6.45,5.67-2.85,2.69-5.5,5.59-8.37,8.26-2.67,2.48-5.49,4.83-8.32,7.14a55.5,55.5,0,0,1-5.1,3.64,5.42,5.42,0,0,1-6.55-.37c-.94-.68-1.45-.47-2.24.25a15.39,15.39,0,0,1-2.82,1.72.61.61,0,0,1-.46,0,7.4,7.4,0,0,1-2.6-1c-1.2-1.07-3-1.37-3.68-3.09-.1-.26-.49-.39-.71-.6l-4.48-4.45c-.58-.57-1.14-1.15-1.7-1.74a7,7,0,0,1-.63-.7c-.14-.19-.16-.52-.33-.62a11.93,11.93,0,0,1-3.57-3.54,8.22,8.22,0,0,0-2-2c-1.34-.93-2.22-2.42-3.42-3.3-3.5-2.54-6.2-5.86-9.27-8.8-4.11-3.92-8.2-7.88-12-12.08-2.7-3-2.53-5.7.1-9.22,3.48-4.67,8.14-8.23,11.82-12.67,4.11-4.95,8.75-9.36,13.21-13.95,1.64-1.68,3.67-3.1,4.94-5,1.79-2.69,4.28-4.61,6.4-6.93C40,48.07,42,46.63,43.37,44.76c3.53-4.78,8-8.65,12-12.93C56.69,30.46,58,29.53,60,30A5.9,5.9,0,0,0,61.17,30Zm55.68,25.17h-.08V39.44a9.15,9.15,0,0,0,0-2.51,3.24,3.24,0,0,0-1.3-1.69c-.23-.15-1.08.32-1.43.71a26,26,0,0,0-2.68,3.5,10.14,10.14,0,0,0-1.62,3.7c-.29,2.27-.78,4.32-2.63,5.84a3.91,3.91,0,0,0-.9,1c-.91,1.54-2.83,1.15-4,2.12-.09.07-.41-.15-.62-.24-.47-.18-1-.36-1.41-.56a7.35,7.35,0,0,1-1.25-.64c-3-2.15-2.91-5.28-2.73-8.43a1.61,1.61,0,0,1,.51-.92c1.5-1.5,3-3,4.54-4.45,1.14-1,2.44-1.91,4.1-1.51,2.57.63,3.9-1.09,5.25-2.71a1.66,1.66,0,0,0,.11-1.43,1.5,1.5,0,0,0-1.17-.54c-1.48,0-3,0-4.44.05H79.24a15.37,15.37,0,0,0-5.14.66,17.53,17.53,0,0,0-7.56,4.52C61.25,41.4,55.72,46.7,50.68,52.48c-3.54,4-7.61,7.56-11,11.79-4.51,5.6-10.32,10.06-15,15.64-2.35,2.83-5,5.33-6.48,8.8l-.06.1a6.14,6.14,0,0,0-.2,5,15.62,15.62,0,0,0,3.36,5c10.85,11,21.79,21.86,32.73,32.76A8.24,8.24,0,0,0,56,133a1.41,1.41,0,0,0,1.28-.08c1.64-1.32,3.22-2.7,4.79-4.1,2.5-2.22,4.63-4.8,7.35-6.82,2.39-1.77,4.31-4.16,6.43-6.28,7-7,13.92-14,20.94-21,1.46-1.44,3.3-2.5,4.77-3.93a133.74,133.74,0,0,0,13.8-14.76,6,6,0,0,0,1.47-3.16C116.92,67,116.85,61.07,116.85,55.15ZM106.2,45.36c0-1.77-1.23-2.89-2.65-2.49a22.52,22.52,0,0,0-2.55.87,1.26,1.26,0,0,0-.56.82,2.69,2.69,0,0,0,1.53,3,2.3,2.3,0,0,0,2.74,0C105.61,47.09,106.32,46.45,106.2,45.36Z"></path><path d="M63.76,106.6a16.12,16.12,0,0,1-3.11,0c-1.22-.24-2.37-.87-3.59-1.17a17.74,17.74,0,0,1-5.71-2.87,8.1,8.1,0,0,1-2.17-2c-1.25-1.89-2.34-3.88-3.45-5.86a3.13,3.13,0,0,1-.11-1.17c0-.35.07-.83-.12-1-1.29-1.37-.59-3-.79-4.59,0-.31.23-.66.33-1,.19-.65.38-1.32.56-2,0-.15-.05-.33,0-.48a52.24,52.24,0,0,1,2.17-6.69,9.29,9.29,0,0,1,3-3.13,34.34,34.34,0,0,1,5-2.88,18.09,18.09,0,0,1,3.13-1,2.91,2.91,0,0,0,.69-.15c2.12-1.23,4.13-.74,6.38-.1a22.74,22.74,0,0,1,6.66,3.38,16.16,16.16,0,0,1,5,5.89c.88,1.64,1.5,3.42,2.24,5.13,0,0,0,.08,0,.11-.49,1.84,1,3.4.77,5.15a12,12,0,0,1-1,4c-1.6,3.29-3.09,6.71-6,9.11a17.26,17.26,0,0,1-4.43,2.69C67.3,106.64,65.55,106.43,63.76,106.6ZM59.51,92.89c.36.6.55,1.24.94,1.41s.95-.21,1.29-.51A4.49,4.49,0,0,0,63,92.21c1.48-3.79,4.27-6.79,6.15-10.33a1.52,1.52,0,0,0-.11-1.36c-.85-1.14-2.2-1.23-3.65-.5-3.38,1.72-6.8,3.37-10.17,5.09A6.57,6.57,0,0,0,54,86.31a5.68,5.68,0,0,0,1.55,1.14,2.88,2.88,0,0,0,1.85-.16c2-.92,1.95-1,3.43.53,1.14,1.16,1.09,1.73,0,2.92A12.21,12.21,0,0,0,59.51,92.89Zm8.92-6.7c.73.6,1.25,1.3,1.58,1.22.54-.12,1-.75,1.45-1.17C71,85.79,70.57,85.16,70,85,69.72,84.87,69.16,85.59,68.43,86.19Z"></path><path d="M63.43,85.53l-.8-1c.28-.21.56-.6.83-.59s.53.41.8.63Z"></path></svg>