<svg xmlns="http://www.w3.org/2000/svg" id="Layer_1" data-name="Layer 1" viewBox="0 0 158.07 182.27"><title>AsimovMarketingIcon-bt-omar bahaa</title><path d="M135,42.11c0,2.16,0,4.32,0,6.48,0,.38,0,.93-.26,1.11-.91.71-.84,1.64-.81,2.61.05,1.52.05,3,0,4.56,0,.26,0,.66-.16.78-1.22.87-.88,2.11-.88,3.28q0,12.84,0,25.68c0,1,.08,2,.07,3a2,2,0,0,1-.25,1.12c-1.22,1.57-1.08,3-.14,4.76,1.28,2.34,2.12,4.92,3.48,7.21,1.12,1.86,1.61,4.1,3.39,5.62.65.56.84,1.65,1.31,2.46s1,1.51,1.48,2.24c.87,1.26,1.8,2.47,2.64,3.75.43.66-.1,2.67-.43,3.4a12.4,12.4,0,0,1-2.45,3.54c-.19.19.06,1.06.35,1.42a2.21,2.21,0,0,1,.11,3c-1.29,1.84-2.44,3.79-3.76,5.61a2.65,2.65,0,0,0-.74,2.47.78.78,0,0,1-.18.55c-1.26,1.64-2.5,3.29-3.83,4.87a29,29,0,0,1-2.71,2.72,8,8,0,0,1-1.4.8,5.9,5.9,0,0,0-1.06.7c-.87.83-1.7,1.7-2.54,2.56-.17.17-.32.45-.52.48-1.82.31-2.62,2-4,2.92s-2.88,1.63-4.29,2.51c-.63.4-1.11,1-1.71,1.47s-1.49,1-2.24,1.46a2.1,2.1,0,0,0-.5.31,9.91,9.91,0,0,1-4.66,2.8c-.31.11-.51.5-.8.69-.64.43-1.3.82-2,1.23a2.54,2.54,0,0,0-.68.46c-1.14,1.45-2.86,1.81-4.44,2.48a1.48,1.48,0,0,0-.74.92c-.06.31.24.69.38,1,.36-.15.72-.29,1.08-.46.14-.07.26-.3.37-.28,1.35.22,2.35-.61,3.46-1.12a11,11,0,0,0,1-.56c.19-.13.4-.45.54-.42a3.92,3.92,0,0,0,3.26-1,7.94,7.94,0,0,1,1.47-.9,5.29,5.29,0,0,1,1.27-.24,9.72,9.72,0,0,1-.21,1.1c-.55,1.65-1.88,2.7-3,3.94a10.85,10.85,0,0,1-4.84,3,1,1,0,0,0-.51.3c-1.14,1.57-3,1.93-4.57,2.79a6.67,6.67,0,0,1-2.81.92c-.94.08-1.83.93-2.74,1.45-.24.14-.47.51-.65.48a4.63,4.63,0,0,0-3.29,1c-.36.22-.76.39-1.14.59-.1.05-.16.2-.27.23a43.77,43.77,0,0,1-4.48,1.12c-.9.14-1.77,0-2.49.81-.26.32-1,.31-1.54.32-.91,0-1.82-.19-2.49.75-.16.22-.73.21-1.11.22-1.42.05-3-.56-4.1.91-.14.19-.6.16-.91.16q-10,0-20,0a1.72,1.72,0,0,1-1.2-.34,2.67,2.67,0,0,0-2.49-.78c-1.88.09-3.76.07-5.64.08-.26,0-.66,0-.78-.21-.71-1.05-1.74-.73-2.72-.72q-2.16,0-4.32,0c-.31,0-.76,0-.89-.21-.94-1.28-2.28-.94-3.52-.94a7.47,7.47,0,0,1-2.16-.56c-2.48-.76-3.72-2.84-5.32-4.48a19.57,19.57,0,0,1-2.4-4,4.73,4.73,0,0,1-.44-.83,8.26,8.26,0,0,1-.57-2.08c0-.81.08-1.56-.65-2.18a1.76,1.76,0,0,1-.38-1.18c0-1.47.4-2.93-.83-4.28-.46-.5,0-1.77-.14-2.67a10.47,10.47,0,0,0-.62-1.81,5.11,5.11,0,0,1-.36-1.31c-.12-1.41.39-2.85-.86-4.16-.47-.49-.06-1.77-.2-2.66a11.34,11.34,0,0,0-.63-1.92A4.62,4.62,0,0,1,14,143.8c0-1,0-2.08,0-3.12,0-.35.06-.88-.14-1-1.36-1-.76-2.46-.86-3.76a7.54,7.54,0,0,0-.62-1.82,4.87,4.87,0,0,1-.41-1.18c-.08-1.5.54-3.13-.95-4.35-.19-.16-.13-.68-.13-1,0-1.36.08-2.72.1-4.08,0-.3,0-.76-.2-.89-1.07-.79-.87-1.88-.84-3s0-2.08,0-3.12c0-.35,0-.85-.22-1-1-.73-.79-1.71-.81-2.71a6.08,6.08,0,0,0-.6-1.7A3.53,3.53,0,0,1,8,110c0-1,0-1.92,0-2.88a2.37,2.37,0,0,0-.74-2.26A1.55,1.55,0,0,1,7,103.75c0-2,0-4.08.07-6.12,0-.32.08-.77-.1-.93C5.39,95.34,6.28,93.56,6,92c-.12-.7-.48-1.35-.67-2a6,6,0,0,1-.3-1.8A2.51,2.51,0,0,0,4.4,86,2.06,2.06,0,0,1,4,84.66c-.11-1.41.41-2.86-.88-4.15C2.67,80,3.09,78.75,3,77.85a11.64,11.64,0,0,0-.63-1.92s-.07-.06-.08-.09C1.84,74.42,1.41,73,1,71.59c-.09-.33,0-.87-.16-1C-.29,69.7.06,68.5,0,67.37s.08-2.32,0-3.47a2.6,2.6,0,0,1,.84-2.1,3.74,3.74,0,0,1,3.61-1.51c1.49.2,3.12.38,4.23-1.21a1.37,1.37,0,0,0,0-1.91,6.15,6.15,0,0,1-.65-1.76c-.1-.33,0-.84-.23-1-1-.72-.87-1.68-.84-2.7C7,50,7,48.27,7,46.55a2.42,2.42,0,0,1,2.33-2.34A6.13,6.13,0,0,0,11,43.64a4.38,4.38,0,0,1,1.3-.45c3.8,0,7.59,0,11.39,0,.34,0,.85,0,1-.24.66-.92,1.53-.77,2.47-.74A7.28,7.28,0,0,0,29,41.71c1.31-.37,2.24-1.8,3.84-1.4a.86.86,0,0,0,.57-.14c1-.57,1.91-1.17,2.88-1.74a1.22,1.22,0,0,1,.77-.22c1.13.3,1.72-.42,2.49-1a21.67,21.67,0,0,1,3.32-2c1-.5,2-.85,3-1.38a26.72,26.72,0,0,0,3.52-2.32,46.4,46.4,0,0,1,5.94-3.35,10.51,10.51,0,0,0,.92-.73c.65-.44,1.32-.85,2-1.27a6.72,6.72,0,0,0,1.07-.73,19.86,19.86,0,0,1,6.3-4.35,3,3,0,0,0,.55-.46c1.52-1.23,2.45-3.19,4.57-3.69.13,0,.22-.22.34-.34l7.55-7.54C79,6.73,81.74,6,82.21,3.65a6.48,6.48,0,0,1,1.11-2.19A3,3,0,0,1,85.63.06C88-.27,89.51.81,90.84,2.45a7.16,7.16,0,0,1,2,4.44,2.09,2.09,0,0,0,.3.89c.54,1,1.13,1.86,1.66,2.81a1.17,1.17,0,0,1,.11.8c-.34,1.22.58,1.83,1.2,2.57a.69.69,0,0,0,.64.08,11.42,11.42,0,0,1,2.54-1.57,5.3,5.3,0,0,1,3.39,0,4,4,0,0,1,2.34,3c0,.31.71.7,1.13.76a9.65,9.65,0,0,0,2.63,0c.49-.07.92-.51,1.4-.74a2.21,2.21,0,0,1,1.16-.36c.23.05.39.58.55.91.08.17,0,.47.15.56,1.35,1,.78,2.45.86,3.75a10.2,10.2,0,0,0,.55,1.73,8.38,8.38,0,0,1,.42,2.13c0,1,.28,1.42,1.28,2.07,1.93,1.25,3.82.7,5.73.81.78.05,1.1.33,1.07,1.09s0,1.43,0,2.15a2.53,2.53,0,0,0,2.84,2.83c2.32,0,4.64-.07,7,0a3.08,3.08,0,0,1,1.17.45c.17.09.3.37.45.37,2,.08,1.63,1.47,1.61,2.73,0,1.8,0,3.6,0,5.4ZM32.71,148.2a9.37,9.37,0,0,0,.47,2.75c.54,1.08.81,2.6,2.51,2.68.09,0,.15.2.25.24a5,5,0,0,0,1.51.52q14,0,28.07,0a1.88,1.88,0,0,0,1.29-.43,2.21,2.21,0,0,1,2-.72,27.43,27.43,0,0,0,2.87.07,4.15,4.15,0,0,0,1.19-.39l4.3-1.66c.1,0,.25,0,.36,0,1.38-.37,2.76-.76,4.13-1.15.07,0,.11-.12.18-.16.45-.23.92-.43,1.34-.7a4.31,4.31,0,0,1,3.14-.94c.12,0,.26-.17.4-.25,1-.56,1.93-1.17,2.95-1.67,1.51-.73,3.14-1.25,4.31-2.56a1.79,1.79,0,0,1,.67-.49A9.22,9.22,0,0,0,99,140.85a3,3,0,0,1,.7-.42c.63-.38,1.28-.72,1.87-1.16.85-.63,1.63-1.35,2.48-2,.39-.3.93-.44,1.29-.76.8-.72,1.51-1.54,2.31-2.28a9,9,0,0,1,1.34-.95,6.47,6.47,0,0,0,1.39-.8c4.86-5.08,10.38-9.54,14.43-15.38a2.31,2.31,0,0,0,.15-2.67c-.55-1-1.18-1.92-1.74-2.9-.13-.22-.07-.55-.13-.81-.37-1.43-.74-2.85-1.13-4.27,0-.14-.26-.21-.33-.34-.51-1-1.42-2-1.41-2.94,0-1.77-1.25-2.83-1.73-4.27s-.81-2.67-1.31-4c-.26-.67-.1-1.52-.78-2.1a.79.79,0,0,1-.28-.63c.39-1.79-1.12-2.83-1.64-4.26a31.32,31.32,0,0,1-1.25-4c-.31-1.43-1.15-2.51-1.58-3.81a7.39,7.39,0,0,1-.52-1.52c-.1-1.47-1.43-2.58-1.17-4.14,0-.1-.27-.21-.31-.35-.41-1.32-1.38-2.33-1.59-3.86a26.67,26.67,0,0,0-1.35-4.08c-.18-.57-.41-1.12-.57-1.7-.09-.3,0-.68-.11-.93-.87-1.45-2.1-2.75-1.86-4.66,0-.21-.32-.44-.45-.68-.55-1-1.55-2.1-1.53-3.12,0-1.67-1.06-2.67-1.57-4s-.55-3-1.56-4.24c0-.06.06-.24,0-.34-.41-1.42-.82-2.82-1.24-4.23,0-.07-.14-.1-.17-.17C97,40.68,96,39.46,96,37.65c0-1.45-.78-2.92-1.23-4.37,0-.07-.13-.11-.15-.18-.55-1.44-1.11-2.88-1.64-4.32a1,1,0,0,1,0-.48,2.39,2.39,0,0,0-.68-2.51c-.24-.21-.21-.72-.32-1.09-.48-1.54-.94-3.09-1.46-4.61s-1-2.84-1.58-4.26c0,0,0-.08,0-.12.06-1.62-.23-2-1.8-1.75a2.84,2.84,0,0,0-1.39.77c-1.17,1-2.13,2.39-3.46,3.09a10.57,10.57,0,0,0-2.65,1.9c-1.56,1.56-3.07,3.17-4.69,4.65-1.18,1.07-2.54,1.93-3.78,2.94-.88.72-1.51,1.78-2.83,1.86-.22,0-.43.33-.65.5l-4.18,3.18a1.33,1.33,0,0,1-.21.09A10.32,10.32,0,0,0,59,35.53a2.83,2.83,0,0,1-.7.46c-1.44.85-2.87,1.7-4.32,2.53-1,.55-2,1.09-3,1.59s-1.87.76-2.77,1.23A41.44,41.44,0,0,1,43.13,44c-1.88.66-3.35,2.43-5.59,2.09-.09,0-.21.1-.31.16-1,.58-1.91,1.19-2.89,1.73a2.38,2.38,0,0,1-.94.12c-1.46.06-2.6,1.38-4.16,1.09,0,0-.13.09-.17.15a1.93,1.93,0,0,1-2.13.72,2.18,2.18,0,0,0-2.28.7,1.37,1.37,0,0,1-1,.31c-1.47,0-3,0-4.43-.06-.31,0-.79,0-.91.14-.92,1.35-2.24.91-3.49.94a1.33,1.33,0,0,0-1,.73c-.64,2.2,1.15,4,1.23,6,0,.06.12.11.15.18a29.56,29.56,0,0,1,1.59,4.45c.2,1.06-.21,2.23.86,3.06.16.13.18.52.18.79,0,1,0,1.92,0,2.88,0,.47-.15,1.17.09,1.38,1.36,1.16.75,2.65.87,4a7,7,0,0,0,.53,1.51,7.33,7.33,0,0,1,.53,1.6c.16,1.36-.51,2.89.91,4,.2.15.13.68.12,1,0,1-.14,1.92-.11,2.88a5.63,5.63,0,0,0,.45,1.43,10.11,10.11,0,0,1,.6,1.81c.16,1.29-.48,2.73.87,3.77.19.16.17.68.14,1-.07,1-.21,2.07.8,2.84.22.16.25.65.26,1,0,1.16-.06,2.32,0,3.48a4.09,4.09,0,0,0,.39,1.18,7.4,7.4,0,0,1,.59,1.69c.08.91-.09,1.84-.05,2.76a6,6,0,0,0,.4,1.44c.2.64.45,1.27.6,1.93s-.06,1.53.31,1.92a2.93,2.93,0,0,1,.71,2.28,14.87,14.87,0,0,0,.38,2.88c.14.66.52,1.26.65,1.92.3,1.61-.64,3.45.92,4.85.17.15.1.6.09.92,0,1-.13,1.92-.08,2.87a6.37,6.37,0,0,0,.5,1.53,6,6,0,0,1,.53,1.72c0,1-.15,1.9.75,2.63.24.19.28.72.29,1.1,0,1.42-.53,3,.89,4.11.18.15.15.6.15.91,0,1.12,0,2.24,0,3.36,0,.31,0,.79.13.91C33.3,145.76,32.83,147,32.71,148.2ZM131.28,116l-.24.18a3.85,3.85,0,0,1-.18,1.51c-.75,1.26-1.63,2.45-2.46,3.66l-.33.5a24.94,24.94,0,0,1-1.5,2.19c-.4.48-1,.78-1.43,1.25-.19.2-.14.62-.2.93.25,0,.57.22.75.12a11.78,11.78,0,0,0,2.33-1.51c2.26-2.13,4.44-4.35,6.67-6.52.45-.43.44-.72,0-1.2a5.19,5.19,0,0,1-.64-1.41,14.72,14.72,0,0,0-.65-1.64,17.21,17.21,0,0,0-1.44-2.22,9.31,9.31,0,0,0-1.73-1.76c-.23-.17-.8.06-1.18.2-.07,0-.09.63,0,.72a2.18,2.18,0,0,1,.8,2.33,1.33,1.33,0,0,0,.26.65C130.54,114.61,130.92,115.28,131.28,116ZM128.2,45.17h-.07c0-1.64,0-3.28,0-4.92,0-.81-.22-1.33-1.13-1.32s-1.08.58-1.07,1.37c0,2.16,0,4.32,0,6.47a1.65,1.65,0,0,0,.21,1,2.56,2.56,0,0,1,.68,2.3c0,.35.49.73.76,1.1.21-.37.57-.73.59-1.11C128.24,48.45,128.2,46.81,128.2,45.17ZM98,168.82l1-1c-.36-.29-.71-.79-1.09-.81s-.72.48-1.08.76Z"></path><path d="M154.77,102.14c-2.58,0-2.92-.3-3.79-2.33-.43-1-1.13-1.81-.84-3a.29.29,0,0,0-.07-.22c-1.65-1.3-.74-3.09-.93-4.67a9.9,9.9,0,0,0-.61-1.94,4.66,4.66,0,0,1-.39-1.18c0-1.12.08-2.24,0-3.35a2.63,2.63,0,0,0-.53-1.37,2,2,0,0,1,.05-3,7.66,7.66,0,0,1,2.49-1.89c1.22-.41,3.44,1.44,3.8,2.79a6.7,6.7,0,0,0,.61,1.23c0,.07.14.11.16.17.42,1.54.94,3.06,1.22,4.62.15.84-.06,1.7.73,2.39.27.24.27.88.26,1.33,0,1.32-.43,2.66.84,3.77.58.51.14,4-.39,4.64-.1.12-.27.25-.27.38C157,102.48,155.76,102.29,154.77,102.14Z"></path><path d="M148,70.09c-1.93,0-3.13-1.08-2.92-2.71a4.2,4.2,0,0,1,.5-1.16,4.06,4.06,0,0,0,.55-1.13c.1-.74.48-.94,1.14-.89a4.74,4.74,0,0,0,1.19,0c.92-.17,1.48,0,1.51,1.1a1.18,1.18,0,0,0,.39.71,2,2,0,0,1,.54,2.49c-.5.91-1.19,1.87-2.54,1.59A1.45,1.45,0,0,0,148,70.09Z"></path><path d="M73.93,62.53c0,1.39.07,2.8,0,4.19a5.22,5.22,0,0,1-.7,1.67c-.69,1.41-1.51,2.76-2.07,4.21a15.64,15.64,0,0,1-4.3,6.13c-.46.41-.62,1.13-1,1.67a4,4,0,0,1-1.11,1.34c-.94.55-2,.86-3,1.38-.6.33-1.06.94-1.66,1.3a4,4,0,0,1-1.76.66c-1.91.08-3.83.08-5.75,0a3,3,0,0,1-1.77-.67c-1.8-1.7-3.54-3.47-5.21-5.28a2.73,2.73,0,0,1-.58-1.7c0-1.32.3-2.55-.75-3.82a3.13,3.13,0,0,1,0-3c1-1.21.87-2.43.77-3.7a1.82,1.82,0,0,1,.66-1.9c.07,0,.17-.13.16-.18-.26-1.59,1.08-2.75,1.18-4.25a2.54,2.54,0,0,1,.59-1.44c2.34-2.4,4.66-4.84,7.15-7.09a5.26,5.26,0,0,1,4-1.75c.25,0,.65-.05.76-.22.75-1.14,1.87-.86,2.93-.87l3.11,0c1.62,0,4.71,2.29,5.25,3.86a4.7,4.7,0,0,0,.53,1.19c.77,1.12,1.63,2.18,2.34,3.35a3.22,3.22,0,0,1,.13,1.51c0,1.16,0,2.32,0,3.48Zm-14,1.14.26-.09c0-.35,0-.77-.16-1-.93-1.37-1.92-2.68-2.88-4-.45-.63-.84-.55-1.34,0A3.67,3.67,0,0,0,54.83,61c-.11,1.9.94,4-.88,5.65-.09.09-.09.31-.09.46,0,2.12-.07,4.23,0,6.35,0,.25.49.49.75.73.5-.72,1.31-1.4,1.43-2.18s0-1.54.76-2.1c.18-.14.15-.53.27-.77s.36-.9.64-1a1.5,1.5,0,0,1,1.13.43c.83.75,1.53,1.65,2.4,2.34A1.64,1.64,0,0,0,62.7,71,1.39,1.39,0,0,0,63,69.73c-.45-1-1.15-1.85-1.65-2.81S60.38,64.76,59.89,63.67Zm-.71-4.53c.7.51,1.25,1,1.33,1A15,15,0,0,0,62,58.53c-.37-.22-.81-.68-1.08-.6A8.19,8.19,0,0,0,59.18,59.14Z"></path></svg>