<svg xmlns="http://www.w3.org/2000/svg" id="Layer_1" data-name="Layer 1" viewBox="0 0 83.63 95.19"><title>AsimovMarketingIcon-bt-omar bahaa</title><path d="M25.67,27.12c.84-2.44,0-5.07,1.1-7.49a3.35,3.35,0,0,0,.11-1.06c.14-1.85.23-3.71.43-5.55.1-1,1-1.35,2-1,2.52,1,5.05,2,7.59,2.92.87.32,1.61.1,1.76-1,.2-1.44.38-2.89.57-4.34.3-2.22.61-4.45.89-6.67.06-.51,0-1,0-1.55A1.27,1.27,0,0,1,42,.12c2.23.78,4.42,1.67,6.67,2.35,3.17,1,6.38,1.77,9.56,2.7,2.33.68,4.64,1.46,7,2.16,2.64.79,5.27,1.58,7.94,2.28,1.94.51,2.36,1.21,1.52,3a1.28,1.28,0,0,0,.55,1.83c1.5,1,1.8,2.11,1.33,3.93-.52,2.07-.91,4.18-1.34,6.27-.64,3.11-1.28,6.21-1.89,9.32-.21,1.09-.31,2.21-.52,3.3-.49,2.45-1,4.89-1.53,7.35a29.21,29.21,0,0,1-.57,3.26c-.39,1.24-.89,1.38-2.09.93-1.76-.67-3.52-1.31-5.25-2-.85-.35-1.43-.28-1.62.68-.34,1.71-.64,3.43-.94,5.15s-.55,3.34-.82,5c-.08.47-.17.94-.21,1.41-.08,1.21-.88,1.89-2,1.5-3.21-1.09-6.4-2.26-9.59-3.42-1.32-.48-2.61-1-3.92-1.51a1.32,1.32,0,0,0-1.95.95,3.52,3.52,0,0,0-.25.8c-.18,2-.32,3.93-.5,5.89-.05.55-.17,1.09-.26,1.63S41.05,66,41,66.5c-.18,1.17-.35,2.33-.5,3.5-.2,1.64-.35,3.28-.56,4.92a16.54,16.54,0,0,1-.5,2.91c-.39,1.22-1.06,1.41-2.09.69-2.46-1.71-4.91-3.45-7.35-5.18-1-.72-2-1.48-3-2.15A1.3,1.3,0,0,0,25.85,71a1.24,1.24,0,0,0-.31,1,7.32,7.32,0,0,1-.38,4c-.34.9,0,2,0,3.08a15.44,15.44,0,0,1-.08,1.67c-.15,1.21-.33,2.41-.5,3.62s-.33,2.32-.45,3.49c-.06.55,0,1.11,0,1.66-.08.82-.23,1.64-.33,2.46a6.9,6.9,0,0,0-.13,1.63c.06.68.16,1.45-.65,1.55a2.37,2.37,0,0,1-1.86-.59,11.94,11.94,0,0,1-1.48-2.73q-2.77-6-5.5-12.08c-1-2.33-2-4.73-3-7.06-1.43-3.16-3-6.28-4.41-9.43-.89-2-1.71-3.95-2.52-5.95A3.89,3.89,0,0,1,4,55.82c.15-5.3.25-10.6.54-15.89.16-2.83.75-5.63,1-8.45.14-1.54,0-3.11,0-4.67,0-.36-.06-.72,0-1.08.13-1.88,1.24-2.56,3-1.71,3,1.48,6,3.05,9,4.55q3.16,1.59,6.36,3.1c.91.44,1.32.19,1.5-.78.23-1.24.49-2.47.74-3.71Zm15,18.11c.22,1.06-.16,2.14,1.22,2.68,4,1.54,7.93,3.16,11.9,4.73.62.24,1.36.34,1.62-.47a25.66,25.66,0,0,0,.67-3c.3-1.59.57-3.19.86-4.78.23-1.29.49-2.57.7-3.86.27-1.66.47-3.34.75-5,.22-1.32.52-2.62.76-3.94.31-1.69.66-3.38.88-5.09a2.07,2.07,0,0,0-.52-1.43,3.51,3.51,0,0,0-1.39-.65c-5.44-1.82-10.9-3.59-16.33-5.46-3.21-1.1-6.36-2.36-9.55-3.52a3.78,3.78,0,0,0-1.21,0,3.76,3.76,0,0,0,.07,1.22c1,2.38,2.08,4.73,3.13,7.09,2.12,4.77,4.27,9.52,6.35,14.3.64,1.48,1.37,3,.79,4.72C41.07,43.57,40.87,44.41,40.64,45.23ZM24,56.36l.23,0a20,20,0,0,1-.48,2.3c-.69,2.16-.29,3.51,1.5,4.82l8.3,6.1c1,.7,1.53.59,1.91-.51a8.16,8.16,0,0,0,.27-2c.05-.51,0-1,.06-1.54.29-2.06.61-4.12.92-6.17l.69-4.56q.48-3.24,1-6.47c.26-1.75.45-3.5.81-5.23.19-.88.09-1.49-.72-1.9-1.17-.6-2.35-1.17-3.53-1.75C29.28,36.76,23.68,34,18.09,31.29c-2.08-1-4.13-2.08-6.21-3.09a6.66,6.66,0,0,0-1.28-.32,3.51,3.51,0,0,0,.14,1.32c.87,1.57,1.82,3.09,2.74,4.63,1.44,2.44,2.9,4.87,4.32,7.32,1.86,3.21,3.72,6.42,5.54,9.65.69,1.24,1.5,2.47.75,4A4.23,4.23,0,0,0,24,56.36ZM66,41.45A5.66,5.66,0,0,0,66.9,40c.41-1.86.67-3.75,1.07-5.62,1-4.82,2.13-9.63,3.17-14.45.46-2.12.86-4.26,1.26-6.39.22-1.14-.2-1.7-1.43-2.09C67.24,10.3,63.51,9.13,59.77,8,57.86,7.41,55.94,6.9,54,6.33c-2.25-.67-4.49-1.37-6.74-2a7.44,7.44,0,0,0-1.42-.15c.15.53.15,1.19.48,1.56,1.9,2.15,3.93,4.19,5.82,6.35,3,3.39,5.71,7,8.84,10.21,1.55,1.61,1.22,3.24,1.06,5a34.63,34.63,0,0,1-.81,3.71c-.22,1.08-.38,2.18-.56,3.27a20,20,0,0,0-.37,2.3c0,.71-.18,1.84.18,2.06C62.17,39.63,64,40.44,66,41.45Zm-47.38,8-.34,0a6.77,6.77,0,0,0-.87-4.93C15.16,41,13.1,37.37,11,33.79c-.7-1.2-1.28-2.48-2-3.67-.2-.33-.64-.52-1-.77-.18.28-.49.54-.51.83-.15,1.93-.23,3.88-.33,5.82-.16,3.36-.3,6.73-.49,10.1-.07,1.17-.33,2.33-.4,3.51-.12,2.26-.16,4.53-.22,6.8a1.09,1.09,0,0,0,.15.45c.61,1.34,1.2,2.69,1.82,4,1.22,2.6,2.46,5.19,3.65,7.79.72,1.56,1.33,3.16,2.07,4.71a7.31,7.31,0,0,0,1.1,1.35c.3-.51.62-1,.88-1.55a2,2,0,0,0,.09-.71q.26-3,.49-6c0-.19.11-.38.13-.58.16-1.13.34-2.27.45-3.41.18-1.72.25-3.45.47-5.16C17.76,54.67,18.19,52.06,18.59,49.44ZM16.87,78.59c.29,1.29.54,2.65.93,4,.11.36.65.58,1,.86a6.25,6.25,0,0,0,.65-1,4.56,4.56,0,0,0,.21-1.17c.23-2.43.49-4.86.65-7.3.09-1.3,0-2.62.05-3.93.06-1.09.28-2.18.41-3.26.05-.44.07-.88.11-1.31.14-1.33.29-2.66.44-4,.07-.66.2-1.32.24-2,.16-2.25.35-4.51.36-6.77,0-.42-.76-.83-1.18-1.25-.27.47-.75.93-.79,1.42-.18,2-.21,4-.32,6.06a5.84,5.84,0,0,1-.17.81c-.28,1.75-.62,3.49-.83,5.25-.24,2.07-.37,4.17-.55,6.25-.11,1.14-.23,2.27-.35,3.4,0,.24-.05.48-.1.71Z"></path><path d="M83.56,11.49a6.62,6.62,0,0,1,0,2.14c-.23.61-.89,1.07-1.36,1.6-.35-.46-.89-.89-1-1.41-.22-.91-.11-1.9-.27-2.83a10.5,10.5,0,0,0-.76-2.78c-.42-.84-.59-1.5.25-2.08s1.48-.1,2,.61A6.23,6.23,0,0,1,83.56,11.49Z"></path><path d="M2.22,51a19.09,19.09,0,0,1,0,2.27,4.11,4.11,0,0,1-.54,1.67A1.28,1.28,0,0,1,.6,55.4c-.25,0-.6-.58-.6-.89,0-2.5.08-5,.22-7.5,0-.4.5-.78.77-1.16.32.37.86.71.94,1.12.22,1.32.27,2.67.39,4Z"></path><path d="M32.08,41.4c.06-.95.52-1.38,1.28-1a35.35,35.35,0,0,1,3.72,1.92,1.35,1.35,0,0,1,.57,1.08q-.65,4-1.45,7.92c-.09.43-.54.78-.83,1.17-.26-.36-.66-.68-.76-1.08-.67-2.59-1.26-5.2-1.9-7.79C32.52,42.8,32.27,42.05,32.08,41.4Z"></path><path d="M69.7,15.11c0,1.52-.58,2.34-1.57,2.35s-1.95-1.28-1.91-2.39,1.09-2.19,1.87-2.16C69.11,13,69.74,13.81,69.7,15.11Z"></path><path d="M11.69,48.69c.3,2.42.61,4.83.89,7.26.08.74.08,1.5.11,2.26,0,1.07.15,2.15.09,3.23,0,.37-.45.72-.7,1.07-.4-.27-.93-.46-1.14-.84a2.51,2.51,0,0,1-.09-1.4c.19-1.78,0-2.22-1.63-3-1.33-.67-1.47-1.27-1-2.69.63-2,1.1-4,1.64-6,0,0,0-.08,0-.12.11-.71.34-1.49,1.2-1.28.39.09.61.87.91,1.34Z"></path></svg>