<svg xmlns="http://www.w3.org/2000/svg" id="Layer_1" data-name="Layer 1" viewBox="0 0 66.16 96.27"><title>AsimovMarketingIcon-bt-omar bahaa</title><path d="M29.15,83.05c0,3.28,0,6.56,0,9.83a2.12,2.12,0,0,1-1.91,2.34l-4.89,1c-1.56.31-2.06-.12-2-1.69,0-5,.05-10.07.07-15.11,0-1-.35-1.29-1.24-.87a4.4,4.4,0,0,1-3.36.09c-1.41-.41-2.88-.6-4.29-1-1-.27-1.37-1-1.59-2.09-.83-4.37-.21-8.76-.38-13.13a5.48,5.48,0,0,0-.45-1.71c-.46-1.28-.34-1.91.84-2.49,2.5-1.25,5.05-2.38,7.56-3.61.89-.44,2.08-.84,2.46-1.59A4,4,0,0,0,20,49.77a2.9,2.9,0,0,0-2.67-1,3.61,3.61,0,0,1-3.9-.74c-2.22-1.75-4.66-3.23-7-4.85q-2.72-1.87-5.38-3.8c-1.34-1-1.29-1.22-.56-2.64C1.81,34.22,3,31.59,4.22,29a22.27,22.27,0,0,1,1.7-3.16,4.2,4.2,0,0,1,1.77-1.33c2.9-1.21,5.84-2.33,8.76-3.5a6.28,6.28,0,0,1,1.08-.52c2.68-.55,2.64-1.72,2.78-4.69.17-3.63,0-7.28,0-10.92a2.08,2.08,0,0,1,1-1.42c1.63-1,3.37-1.84,5-2.82A3.83,3.83,0,0,1,30.16.42a22.32,22.32,0,0,0,3.49,1.16c1.29.34,2.17,1.19,2,2.45-.39,2.57.27,5,.83,7.43.2.87.76,1.09,1.41.75,2.17-1.14,4.26-.46,6.39.1a8.54,8.54,0,0,0,1.88.28c3.27.11,4.78,1.77,4.73,5-.06,4.36,0,8.72,0,13.08a3.26,3.26,0,0,1-1.21,3.07c-.25.17-.51.67-.43.88a1.68,1.68,0,0,0,.88.66,5.21,5.21,0,0,0,1.06.17c2.13.35,3.92,1,5.27,3C58.36,41.38,60.75,44,63,46.73c1,1.2.88,1.69-.38,2.54a7.7,7.7,0,0,0-1.25,1.1q-3.7,3.85-7.37,7.71c-1.63,1.7-3,2-5.32.77a2.16,2.16,0,0,0-2.74.37c-2.71,2-5.51,4-8.32,5.86A3.18,3.18,0,0,0,36,68.19c0,.88-.35,1.78-.37,2.67-.05,3.35-.07,6.7,0,10,0,.93.38,1.85.43,2.79A32.78,32.78,0,0,1,36,88a4.56,4.56,0,0,1-.75,2,1.5,1.5,0,0,1-2,.71c-.9-.39-1.68-1-1.61-2,.09-1.5.38-3,.51-4.46.08-.87,0-1.76.05-2.63,0-3.44.08-6.88,0-10.32,0-.53-.5-1-.76-1.57a5.51,5.51,0,0,0-1.44.84,4.51,4.51,0,0,0-1,3.43c.13,3,0,6,0,9Zm-12-43.67-.5-.11c.08-.65,0-1.43.28-1.91.92-1.38,2-2.63,3.05-3.94.82-1.06,1.62-2.12,2.42-3.19.42-.58.68-1.38,1.23-1.73,1.77-1.12,3.52-2.36,5.84-2a8.34,8.34,0,0,0,2.39-.1,2.28,2.28,0,0,1,2.24.82,14,14,0,0,1,1.18,1.51,1.88,1.88,0,0,0,2.24,1c1.7-.41,3.42-.8,5.1-1.29a9.73,9.73,0,0,0,5.17-3.69A2.49,2.49,0,0,0,48.07,22a6.18,6.18,0,0,1-.4-1.35c-.2-.88-.32-1.78-.57-2.64s-.82-.86-1.52-.53c-1.23.57-2.44,1.17-3.7,1.66-4.67,1.84-9.36,3.62-14,5.47-3.19,1.26-6.33,2.65-9.54,3.85a7.31,7.31,0,0,0-4.43,3.71c-.25.54-.48,1.1-.73,1.64a51.53,51.53,0,0,1-2.31,4.86,1.46,1.46,0,0,0,.26,2.18c1.69,1.51,3.36,3.06,5.12,4.49a1.88,1.88,0,0,0,1.62.26c3.93-1.77,7.83-3.62,11.73-5.46,1-.49,2.05-1.08,3.1-1.56,4.31-2,8.57-4.07,13-5.78,2.13-.82,3.05-1.89,2.61-4.08-.11-.52-.26-1-.39-1.55a5.35,5.35,0,0,0-1.55.62,13.76,13.76,0,0,1-6.21,2.62c-1.83.39-4,.21-4.44,2.8a1.37,1.37,0,0,1-.31.51,12.18,12.18,0,0,1-6.2,4.5,5.91,5.91,0,0,1-2.89.45,6.12,6.12,0,0,1-4.7-3.34c-.44-.95-1.26-1-1.89-.15s-1.21,2-1.8,3C17.63,38.52,17.41,39,17.17,39.38Zm17,4.72c-3.67-.67-6.8.95-10,2.4-.26.12-.58.56-.53.8a1.26,1.26,0,0,0,.67.85c1.38.48,2.79.87,4.19,1.3,2.63.81,5.26,1.59,7.87,2.45s5.27,1.86,7.9,2.81c1.79.64,3.58,1.29,5.35,2,.77.3,1.18,0,1.62-.59q1.68-2.18,3.42-4.3a1.59,1.59,0,0,0,.07-2.26A11.6,11.6,0,0,1,54,48.47c-.72-1.08-1.32-1.21-2.52-.61s-2.65,1.29-4,1.83c-3.32,1.33-4.9.71-6.52-2.44-.11-.22-.22-.43-.34-.63-1-1.59-2.23-2.71-4.27-2.53C35.63,44.15,34.91,44.1,34.19,44.1Zm-7.1,19a5.29,5.29,0,0,0-.93.27A20.88,20.88,0,0,0,20,68.44a1.87,1.87,0,0,0-.32,1.12q-.13,2-.15,4c0,.28.14.72.33.8a1.18,1.18,0,0,0,1-.15c.49-.33.86-.82,1.34-1.18,3.2-2.38,6.39-4.78,9.63-7.1,2.53-1.82,5.13-3.53,7.67-5.33.31-.22.7-.73.64-1a1.67,1.67,0,0,0-.91-.94,7.93,7.93,0,0,0-1.51-.35c-1.28-.32-1.87.16-2.62,1.16a18.72,18.72,0,0,1-3.61,3.72,3,3,0,0,1-3.6.14A3.69,3.69,0,0,0,27.09,63.08Zm7.16-21.31c.43.31.51.43.61.44a10,10,0,0,0,1.42.22c2.9.14,4.67,1.8,5.84,4.28.76,1.63,1.89,2.38,3.67,1.91a23.83,23.83,0,0,0,5.06-2c1.41-.75,1.33-.95.36-2.16a13,13,0,0,1-1.1-1.57,6,6,0,0,0-4.06-2.71,6.81,6.81,0,0,1-1.38-.35c-2.1-1.06-4.11-1.25-6.17.17a12.45,12.45,0,0,1-2.37.8A18.23,18.23,0,0,0,34.25,41.77Zm-20-14.68a12.26,12.26,0,0,0,1.77-.42c1.18-.47,2.31-1.07,3.5-1.54,4.62-1.83,9.26-3.62,13.88-5.46.92-.36,1.76-.92,2.69-1.26,2.19-.82,4.42-1.55,6.62-2.34.77-.28,1.07-1.37.46-1.55a7.46,7.46,0,0,0-3.55-.45,24.17,24.17,0,0,0-4,1.83c-2.88,1.27-5.79,2.49-8.69,3.71-2.28.95-4.56,1.89-6.86,2.81s-4.67,1.81-7,2.75A5,5,0,0,0,12,26a8,8,0,0,0,1.1.92A3.44,3.44,0,0,0,14.28,27.09Zm6,35.84c-.11.37-.35,1.07-.5,1.79-.07.31-.06.81.12,1s.67.07,1,0,.47-.44.73-.61c1.51-1,3-2.06,4.56-3a1.6,1.6,0,0,1,1.23,0,4.33,4.33,0,0,0,5-.72,23.44,23.44,0,0,0,1.87-1.86c.29-.35.64-.93.54-1.28a1.91,1.91,0,0,0-1.12-.9,32.74,32.74,0,0,0-3.88-1.18,2.91,2.91,0,0,0-1.92.11c-2.31,1.35-4.53,2.84-6.78,4.27C20.31,61,20,61.64,20.26,62.93ZM53.51,39.54c-1.18,0-1.83.76-1.53,1.61a5.21,5.21,0,0,0,.72,1.08c1.51,2.15,3,4.31,4.55,6.44.26.36.84.93.94.87A6.78,6.78,0,0,0,59.93,48c.16-.2-.13-.87-.36-1.22-.37-.55-.9-1-1.31-1.54C57.1,43.76,56,42.2,54.8,40.7A9,9,0,0,0,53.51,39.54ZM31.83,8.66h0a22.85,22.85,0,0,0,0-2.62,1.41,1.41,0,0,0-.66-1c-.77-.22-2.67,1.49-2.68,2.3,0,1.91,0,3.82-.05,5.72,0,.94.48,1.31,1.28.89,1.11-.59,2.51-1.6,2.12-3.35A9.27,9.27,0,0,1,31.83,8.66Zm-6,26.5a8.74,8.74,0,0,0,1.07-1.29c.71-1.51.69-1.5,1.91-.43a3.36,3.36,0,0,0,1.14.41,3.82,3.82,0,0,0,0-1.3,22.83,22.83,0,0,0-1.09-2.61c-.16-.35-.41-.83-.7-.91s-1.12,0-1.23.27a39.81,39.81,0,0,0-1.66,4.33C25.24,34,25.59,34.42,25.86,35.16Z"></path><path d="M66.16,44.91c-.46.51-.74,1-1.14,1.17s-.83-.16-1.1-.43a5.22,5.22,0,0,1-1.11-1.53,1.46,1.46,0,0,1,.12-1.26c.23-.28,1-.53,1.19-.38A26.33,26.33,0,0,1,66.16,44.91Z"></path></svg>