<svg xmlns="http://www.w3.org/2000/svg" id="Layer_1" data-name="Layer 1" viewBox="0 0 94.13 89.92"><title>AsimovMarketingIcon-bt-omar bahaa</title><path d="M23.83,77.4c-3.68,0-7.37.17-11-.08a33.49,33.49,0,0,1-5.6-.7A8.67,8.67,0,0,1,.66,71,11.24,11.24,0,0,1,0,67.36C0,50.17.07,33,0,15.77A14.74,14.74,0,0,1,9.6,1.55,25.2,25.2,0,0,1,14.26.76c1-.17,2-.38,3-.57a9.48,9.48,0,0,1,1-.19c.24,0,.48.07.72.07,6.8,0,13.55.82,20.37.73C53.78.59,68.18.74,82.58.72c2,0,3.9-.11,5.75.76A8.3,8.3,0,0,1,91.92,4.9a12.13,12.13,0,0,1,1.52,7.5,11.38,11.38,0,0,0,.44,2.65,8.7,8.7,0,0,1,.22,1.52q0,15.54,0,31.08A2.36,2.36,0,0,1,94,48.82c-.83,1.33-.59,2.78-.58,4.2,0,3.24.13,6.48.07,9.72A11.69,11.69,0,0,1,92.78,66a14.47,14.47,0,0,1-9.62,9.85,24.36,24.36,0,0,1-8,.88q-7.8,0-15.6,0c-1,0-1.4.35-1.37,1.33,0,1.24,0,2.48.06,3.72a8.3,8.3,0,0,1-3.11,7.06,4.55,4.55,0,0,1-3.18,1.13q-8.2-.09-16.43,0a2.58,2.58,0,0,1-2.57-1.58c-.54-1.08-.34-2.76.6-3.29a5.24,5.24,0,0,0,2.89-5.55c-.14-2.15.12-2.2-2.17-2.16-3.47.06-6.95,0-10.43,0ZM4.18,39.53h.05c0,8.28.07,16.56-.06,24.83a7.25,7.25,0,0,0,1.36,4.69c1,1.31,2,2.75,3.84,2.75,10.92,0,21.83,0,32.75,0,2,0,4.15-.47,6.13.56a2.24,2.24,0,0,0,.94.07c3.24,0,6.48,0,9.72,0,1,0,2-.24,3-.23,3.23,0,6.46.11,9.69.21.69,0,1.37.24,2.07.28a8.82,8.82,0,0,0,2.76,0,9.39,9.39,0,0,0,2.87-1.42A11.94,11.94,0,0,0,84.55,61c0-5.48-.27-11-.44-16.43-.28-9.67,0-19.36-.08-29,0-2.57.4-5.15-.61-7.68-.35-.87-.6-1.72-1.47-2a15.93,15.93,0,0,0-4.79-1.31c-12.24-.09-24.47,0-36.71,0-1.93,0-3.93-.41-5.76.63a1.26,1.26,0,0,1-.59,0c-4.6,0-9.19,0-13.79-.14a21.76,21.76,0,0,1-2.61-.49,4,4,0,0,0-1.25,0c-.84.13-1.66.35-2.5.48a11.56,11.56,0,0,0-1.78.14c-3.11.92-5.94,2.23-7,5.68-.25.82-.91,1.6-.91,2.4C4.16,22,4.18,30.78,4.18,39.53Zm41.54,45.4c1.52,0,3,0,4.55,0s1.95-.64,2-2a3.69,3.69,0,0,1,.26-1.39c.37-.87.11-1.4-.76-1.63A7.07,7.07,0,0,0,50,79.61c-1.84,0-3.68,0-5.52,0-3.34,0-3.34,0-4.6,3a.47.47,0,0,1,0,.1c-.63,1.41-.13,2.18,1.46,2.21S44.24,84.93,45.72,84.93Z"></path><path d="M43.54,60.81c-9.6,0-19.2-.12-28.8.07A8.25,8.25,0,0,1,7.6,57.32a5.71,5.71,0,0,1-.91-3c-.12-2.19,0-4.4,0-6.6,0-10.24.05-20.47,0-30.71a14,14,0,0,1,.79-4.3,4.47,4.47,0,0,1,2.76-2.68,18.18,18.18,0,0,1,3.66-.8c.39-.07.86.07,1.18-.1,1.36-.71,2.81-.42,4.23-.52s2.56-.37,3.84-.57A6,6,0,0,1,24,8h8.27a1.73,1.73,0,0,1,.83.1c1.56.91,3.26.63,4.92.63,8.8,0,17.6-.05,26.39,0,2.89,0,5.77.36,8.65.59a20.75,20.75,0,0,1,3.36.47c2.08.55,3,2.28,3.74,4.09A11.15,11.15,0,0,1,81,18Q80.9,34.7,81,51.37a12.56,12.56,0,0,1-1.45,6.07,6.14,6.14,0,0,1-5.68,3.36c-10.12.12-20.24.05-30.35.05Zm-6-16.27h0c6.12,0,12.24,0,18.36,0a29.73,29.73,0,0,0,3-.28c1-.09,1.37-.62,1.37-1.6,0-7.88,0-15.76,0-23.64a1.76,1.76,0,0,0-2-2c-5.71-.22-11.48.85-17.14-.63-2.46.42-5-.54-7.45.68a2.24,2.24,0,0,1-.94,0c-1.64,0-3.28,0-4.92,0a10.45,10.45,0,0,1-1.74-.26,8.73,8.73,0,0,0-2-.39c-2.57.16-5.13.4-7.68.66a2.52,2.52,0,0,0-2,2.59c0,3-.17,6.1.16,9.11s-1.29,6,0,9c.06.13,0,.32,0,.47.19,1.56.38,3.12.61,4.67a1,1,0,0,0,.5.64,9.07,9.07,0,0,0,3,1C24.91,44.59,31.23,44.54,37.55,44.54Zm35-12.08h0c0-4.44,0-8.88,0-13.32,0-1.9-.35-2.7-2.18-3.15a11.92,11.92,0,0,0-3.68-.09c-.37,0-.83.62-1,1a7.2,7.2,0,0,0-.67,2.53,59.62,59.62,0,0,1-.61,6.11,57.52,57.52,0,0,0,0,7c0,.67-.24,1.48,0,2,1,1.8.31,3.7.56,5.54a4.8,4.8,0,0,1-.29,1.38,8.63,8.63,0,0,0-.32,1.73c0,3.07,0,6.15,0,9.23a2.78,2.78,0,0,0,3.75,2.84c.9-.27,1.86-.32,2.78-.54.44-.1,1.08-.23,1.24-.55,1-2.07,1.66-4.23.64-6.53a3.25,3.25,0,0,1-.27-1.27C72.53,41.73,72.54,37.1,72.54,32.46ZM34.75,51.28v-.1c-5.48,0-10.95,0-16.43,0a4.11,4.11,0,0,0-1.73.37,6.75,6.75,0,0,0-1.37,1.1c.53.48,1,1,1.62,1.42.19.13.54.06.82.06H49.92a10,10,0,0,0,1.51-.27,16.72,16.72,0,0,1,2.11-.29c1.51,0,3,.07,4.55,0,1.15,0,1.83-1,1.19-1.71A3.77,3.77,0,0,0,57,50.57c-1.72,0-3.54-.36-5.16.62a1.5,1.5,0,0,1-.71.08Z"></path><path d="M41.93,66.82c0-1.73.36-2.14,1.9-2.14a2.39,2.39,0,0,1,2.51,2.21,3,3,0,0,1-2.53,2.61C42.38,69.47,41.93,68.83,41.93,66.82Z"></path><path d="M36.54,38.75c-1.95-.2-4.1-.3-6.2-.66-1.65-.28-3.24-2.48-3.25-4.16,0-2.51,0-5,0-7.55s2-3.35,4.42-3.51c.43,0,.94.11,1.28-.07,1.94-1,4.07-.65,6-.4a27.7,27.7,0,0,0,4.82.45,4.47,4.47,0,0,1,2,.49c1.83.9,2.36,2.66,2.49,4.47.15,2.15,0,4.31,0,6.47,0,1.58-1.6,3.62-3.12,3.77C42.28,38.32,39.51,38.51,36.54,38.75Zm-2.25-8.6h.11c0,.76-.11,1.51-.12,2.27,0,1.29.73,1.74,1.86,1.12s2.2-1.16,3.23-1.84c.48-.32,1.16-.92,1.12-1.32a2.63,2.63,0,0,0-1.16-1.49A34.54,34.54,0,0,0,36,26.83a1.64,1.64,0,0,0-1.19-.18c-.25.1-.45.63-.48,1C34.24,28.47,34.29,29.31,34.29,30.15Z"></path></svg>