<svg xmlns="http://www.w3.org/2000/svg" id="Layer_1" data-name="Layer 1" viewBox="0 0 77.24 91.62"><title>AsimovMarketingIcon-bt-omar bahaa</title><path d="M55.68,86.23a6.07,6.07,0,0,1-1.34,1.21q-3,1.43-6.12,2.66a18.3,18.3,0,0,1-4,1.3,22.09,22.09,0,0,1-4.88.15,27.46,27.46,0,0,1-4.66-.77c-3.09-.79-6.17-1.64-9.22-2.57C19.88,86.52,14.36,84.76,8.83,83c-1.67-.53-3.36-1-5-1.56s-1.91-1.32-1.29-2.8c.48-1.14.19-1.71-1-2C.09,76.31-.24,75.73.16,74.32,1.81,68.48,3.49,62.66,5.1,56.81c.79-2.88,1.4-5.81,2.17-8.7,1.46-5.44,3-10.85,4.48-16.28q2.46-9.07,4.89-18.14c1-3.78,2-7.56,3-11.34a7.61,7.61,0,0,1,.47-1.23,1.71,1.71,0,0,1,2.26-1c3.52,1,7.06,2,10.59,3,2.84.81,5.66,1.7,8.51,2.47,3.65,1,7.33,1.88,11,2.88,2.85.78,5.66,1.69,8.5,2.48,3.46,1,6.94,1.85,10.4,2.79a6.41,6.41,0,0,1,1.76.7c1.46.88,1.54,1.71.69,3.2a33.24,33.24,0,0,0-2,4.3c-.14.37.24,1,.38,1.45.49-.18,1.16-.22,1.41-.57a4.31,4.31,0,0,0,.53-1.79c.24-1.33.91-1.6,2-.77,1.28,1,1.35,1.39.92,3-1.1,3.92-2.13,7.87-3.21,11.79-.62,2.23-1.33,4.44-2,6.67-1.16,4.15-2.27,8.31-3.42,12.47-.58,2.11-1.21,4.21-1.83,6.32-1,3.52-2.11,7-3.11,10.57-.63,2.26-1.22,4.53-1.72,6.82A4.93,4.93,0,0,1,59.7,81c-3.17,2.23-6.57,3.75-10.57,3.57a7.37,7.37,0,0,0-2.56.5.82.82,0,0,0-.23,1.55,5.31,5.31,0,0,0,2.11.69,12.13,12.13,0,0,0,5.8-1.14,11.81,11.81,0,0,1,1.2-.34ZM23.71,3.6c-1.23-.07-1.51.31-1.95,2.1-.92,3.76-1.87,7.51-2.88,11.25s-2.18,7.66-3.22,11.51c-.91,3.31-1.71,6.64-2.61,9.95-.68,2.48-1.52,4.92-2.18,7.41-1.42,5.32-2.73,10.67-4.15,16-.92,3.43-1.95,6.83-2.93,10.24C3.33,73.63,3.45,74,5,74.43c1.25.38,2.54.62,3.8,1q4.58,1.22,9.13,2.49c5.81,1.63,11.59,3.34,17.42,4.87,1.55.41,3.19.49,4.23-1.43a22.28,22.28,0,0,1,2.87-3.53c.42-.49.88-.82,1.5-.17.89.93,1.26.86,2-.2s1.51-2.25,2.32-3.34a1.79,1.79,0,0,1,3.2.24c.53,1,.84,2.07,1.32,3.08.19.38.62.93.9.91a1.66,1.66,0,0,0,1.16-.81,9,9,0,0,0,.44-1.84Q58,65.06,60.82,54.47c.83-3.12,1.74-6.22,2.57-9.34,1.43-5.33,2.79-10.67,4.24-16,1-3.7,2.14-7.36,3.23-11,.26-.87.16-1.43-.86-1.7-4.31-1.16-8.6-2.37-12.9-3.58C51.65,11.3,46.22,9.72,40.77,8.19c-4.8-1.35-9.61-2.66-14.42-4C25.47,4,24.56,3.8,23.71,3.6ZM45.23,83c.38-.17.72-.29,1-.45a24.63,24.63,0,0,1,2.36-1.17c2.93-1.06,3-1.16,1.74-4a.36.36,0,0,1,0-.11c-.43-.85-.93-.89-1.49-.08a14.53,14.53,0,0,1-.85,1.3c-1,1.08-2,2.09-2.91,3.16a1.9,1.9,0,0,0-.37.94C44.69,82.68,45,82.83,45.23,83Z"></path><path d="M18.88,45.27c.44-1.68.92-3.57,1.43-5.46s1.07-3.89,1.61-5.84c1.26-4.57,2.53-9.14,3.78-13.71.2-.73.25-1.5.44-2.23.48-1.78,1.13-2.16,2.89-1.68,2.11.57,4.21,1.22,6.33,1.79,3.16.85,6.33,1.65,9.49,2.48l11.34,3a1.68,1.68,0,0,1,1.33,1.76,4.75,4.75,0,0,1-.19,1.3q-2.78,10-5.57,19.94C51.18,48.74,50.67,50.88,50,53s-1.41,2.24-3.31,1.46a21.13,21.13,0,0,0-2.64-.78c-4.85-1.29-9.71-2.55-14.57-3.85-3.15-.84-6.3-1.72-9.45-2.6C19.16,47,18.86,46.47,18.88,45.27ZM46.6,51.13c.26-.29.85-.66,1-1.17,1.1-3.87,2.12-7.77,3.16-11.66.91-3.39,1.77-6.79,2.76-10.15.29-1,.14-1.72-.77-2.07s-2-.51-3.07-.8C43.45,23.55,37.23,21.79,31,20.06c-1.88-.53-2.15-.35-2.67,1.57-.69,2.62-1.37,5.25-2.08,7.87q-1.77,6.57-3.58,13.14a1.79,1.79,0,0,0,.94,2.3c2.07.58,4.16,1.1,6.23,1.66l11.21,3Z"></path><path d="M42.8,68.41l-2.46-.7c-3.4-1-6.81-2-10.22-2.95-2.41-.68-4.84-1.32-7.25-2-1.07-.31-2.12-.69-3.19-1a10.93,10.93,0,0,1-1.95-.51A5.52,5.52,0,0,1,16,59.84c-.16-.19.22-.94.51-1.31.53-.68,1.2-.45,2-.21,2.46.78,5,1.45,7.45,2.17C29.92,61.67,34,62.86,38,64c1.15.33,2.32.57,3.48.88a4.52,4.52,0,0,1,1.77.66A2.15,2.15,0,0,1,44,67.2C43.93,67.69,43.18,68.06,42.8,68.41Z"></path><path d="M19.51,51.74l6.85,2c2.51.74,5,1.46,7.54,2.22a7.83,7.83,0,0,1,2,.8c.4.27.9.91.81,1.25a1.8,1.8,0,0,1-1.16,1.14A5,5,0,0,1,33.19,59c-4.47-1.34-8.92-2.74-13.37-4.13a4.9,4.9,0,0,1-1.54-.63,5.83,5.83,0,0,1-1-1.35c.46-.3.91-.64,1.4-.9.19-.1.47,0,.71,0Z"></path><path d="M16.24,67.29c-1.08,0-2.58-1.06-2.29-1.73s1.1-1.2,1.68-1.78A8.93,8.93,0,0,1,17.5,66C17.81,66.84,16.91,67.19,16.24,67.29Z"></path><path d="M29.34,34.7c0-2,0-4.08,0-6.11a7.45,7.45,0,0,1,.37-2c.21-.69.5-1.44,1.47-1.21a1.67,1.67,0,0,1,1.47,1.79c-.2,1.59.27,3.2-.46,4.83-.49,1.07-.28,2.47-.3,3.73,0,.27.42.8.54.77a2,2,0,0,0,1.13-.64c1-1.68,1.9-3.42,2.88-5.1a9.87,9.87,0,0,1,1.72-2.43,2.3,2.3,0,0,1,2-.58,2.62,2.62,0,0,1,1.4,1.84c.07,2.66-.15,5.33-.19,8,0,.47.17,1.21.48,1.37.69.34,1-.31,1.28-.88,1.25-2.45,2.52-4.89,3.87-7.29a1.63,1.63,0,0,1,1.31-.71,2.08,2.08,0,0,1,1.22,1.13,2.16,2.16,0,0,1-.16,1.59c-2.12,4-4.26,7.94-6.5,11.86-1,1.68-2.46,1.66-3.4,0a5.31,5.31,0,0,1-.59-2.49c0-2.64.09-5.27.11-7.91,0-.31-.32-.63-.49-.95-.4.3-.93.51-1.16.9-.76,1.31-1.38,2.7-2.12,4s-1.52,2.53-2.3,3.78a2,2,0,0,1-2.49.91c-1.08-.34-1.09-1.18-1.06-2.13.05-2,0-4.07,0-6.11Z"></path></svg>