<svg xmlns="http://www.w3.org/2000/svg" id="Layer_1" data-name="Layer 1" viewBox="0 0 94.11 89.76"><title>AsimovMarketingIcon-bt-omar bahaa</title><path d="M49,.13c10.52,0,21,0,31.55,0,1.49,0,3,.53,4.45.49a6.34,6.34,0,0,1,3.53.88c3.32,1.92,4.73,4.92,4.9,8.63,0,.35-.09.79.07,1.06.89,1.49.57,3.11.57,4.68,0,11.48,0,23,0,34.44a6,6,0,0,1-.59,3.59,1.59,1.59,0,0,0-.15.82c0,2.52.08,5,.12,7.55a12.42,12.42,0,0,1-3,8,15.4,15.4,0,0,1-8,5.39,18.41,18.41,0,0,1-2.68.39c-1.25.17-2.5.32-3.75.47a7.5,7.5,0,0,1-.94.1c-4.92,0-9.84,0-14.76,0a5.11,5.11,0,0,0-1,.06c-1.08.21-1.42.83-.91,1.82a4.53,4.53,0,0,1,.08,3.81,27,27,0,0,1-1.08,3.37c-1.43,2.88-3.93,4-7.07,4q-6.9,0-13.79,0c-2.38,0-4.24-1.7-3.74-4A5.28,5.28,0,0,1,35.07,83a2.32,2.32,0,0,0,1.26-2.66,2.21,2.21,0,0,1,.16-1.16c.81-2-.12-3.25-2.21-3.23-6.32.07-12.64.05-19,.1a14,14,0,0,0-2.07.41,4.83,4.83,0,0,1-1.26.06c-1.05-.12-2.08-.38-3.14-.44a8.91,8.91,0,0,1-7.43-4.3C.05,69.58,0,67,0,64.46c0-7.2,0-14.4,0-21.6,0-8.72.1-17.44,0-26.16A16.67,16.67,0,0,1,3.49,5.55,13.81,13.81,0,0,1,8,2.07C9.51,1.29,11.4,1.2,13.11.69,17.35-.57,21.67.29,26,.2c7.67-.16,15.36,0,23,0ZM4.19,38.78h0c0,7.88.08,15.76,0,23.63a12,12,0,0,0,2.15,6.82,3.05,3.05,0,0,0,1.83,1.36,79.33,79.33,0,0,0,8.3.49c13.12,0,26.23,0,39.35,0a5.52,5.52,0,0,1,1.05.19,14.33,14.33,0,0,0,2.54.47c2.07,0,4.14-.27,6.21-.28s4,.24,6,.26c1.23,0,2.45-.22,3.6.5.27.17.77,0,1.15-.06,2.1-.45,3.57-1.84,5-3.34a11.65,11.65,0,0,0,3.21-8.26c0-4.36-.46-8.72-.48-13.09-.06-11.68,0-23.35,0-35a28.79,28.79,0,0,0-.84-5,2.6,2.6,0,0,0-.33-.64c-1-2-3-2.23-4.81-2.31-3.87-.18-7.75,0-11.63,0H17A14.12,14.12,0,0,0,9.25,6.32a5.44,5.44,0,0,1-.54.27A8.07,8.07,0,0,0,4.3,13.71C4,22.05,4.19,30.42,4.19,38.78Zm42.2,40.64h0c-1.11,0-2.24.07-3.34,0-1.65-.13-2.75.2-3.3,2s-.1,2.81,1.91,2.8h7.18c3.21,0,3.54-.38,3.42-3.6,0-.91-.42-1.28-1.32-1.26C49.42,79.44,47.91,79.42,46.39,79.42Z"></path><path d="M43.48,60.27c-9.88,0-19.76.07-29.64-.05-2.86,0-6.95-2.44-7.19-6-.12-1.74-.41-3.47-.42-5.21,0-10.23,0-20.47-.05-30.71a11.53,11.53,0,0,1,1.66-6.37,5.93,5.93,0,0,1,5.25-2.77c.77,0,1.54-.28,2.32-.34,1.39-.09,2.78-.06,4.17-.17.93-.08,1.85-.33,2.77-.48A9.5,9.5,0,0,1,23.65,8L31,8A7.76,7.76,0,0,1,32,8.05a33.67,33.67,0,0,0,4.21.54c11.24,0,22.48,0,33.71,0a6,6,0,0,1,1.17.22,6.42,6.42,0,0,0,2.07.37c3.53-.5,6.31,2.2,7.21,5.31a14.92,14.92,0,0,1,.53,4.32c0,10.4-.07,20.8,0,31.2a17.77,17.77,0,0,1-.82,5.35,6.31,6.31,0,0,1-4.07,4.13,12,12,0,0,1-4.31.75c-9.44-.08-18.88,0-28.31,0Zm2-47.92v0c-9.35,0-18.71,0-28.07,0a1.89,1.89,0,0,0-1.5.86c-.58,1.62-1,3.31-1.38,5-.09.38,0,.79-.11,1.18a45.3,45.3,0,0,0-1.05,6.48q-.21,10.9,0,21.83c0,1.86.41,3.88,2.41,4.89A10.66,10.66,0,0,0,21.21,54a4.07,4.07,0,0,1,1.14.29,7.52,7.52,0,0,0,1.72.4c3.92,0,7.84,0,11.76,0a2.45,2.45,0,0,0,1.26-.27,3,3,0,0,1,3.27,0,1.78,1.78,0,0,0,2.73-1.68c0-5,0-10-.08-15,0-1,.35-1.39,1.41-1.39q11.38,0,22.78,0c1,0,1.31.36,1.3,1.26q-.06,7.74-.11,15.47c0,1.52.56,2.09,2.1,2.09,1.2,0,2.4-.09,3.6,0,2.49.18,3.68-1,3.71-3.88.11-11.32,0-22.63.06-33.95,0-2.67-2.07-5-4.45-5Z"></path><path d="M41.92,66.33c-.21-2.42.55-2,2.46-2.33.82-.12,2,1.26,2,2.2a2.9,2.9,0,0,1-2.53,2.55C42.29,68.74,41.89,68.25,41.92,66.33Z"></path><path d="M17.74,34.42c.55-2.22,1-4.55,1.71-6.82.87-2.89,1.9-5.73,2.82-8.61a1.74,1.74,0,0,1,1.54-1.43,1.61,1.61,0,0,1,1.72,1.2c.82,1.94,1.7,3.86,2.41,5.84,1.07,3,2,6,3,9a1.63,1.63,0,0,1-1.07,2.1c-1.05.32-1.37-.3-1.66-1.17a17.48,17.48,0,0,0-1.53-3.61,2.65,2.65,0,0,0-1.83-1c-1.95-.17-3.22.9-3.86,2.79a11.5,11.5,0,0,1-1.32,2.62,1.36,1.36,0,0,1-1.23.34C18.19,35.6,18.06,35,17.74,34.42ZM22.5,26c.58.49,1,1.11,1.46,1.18.85.11,1.23-.67,1.05-1.37a10.39,10.39,0,0,0-1.11-2.07Z"></path><path d="M56.83,28.35c-3.36,0-6.72.06-10.08,0a11.82,11.82,0,0,1-3.22-.73,1.2,1.2,0,0,1-.57-1,1.56,1.56,0,0,1,.88-.92c2-.75,4.06-.58,6.12-.59Q58.3,25,66.64,25a1.87,1.87,0,0,1,1.69,2.84,1.47,1.47,0,0,1-1.06.54c-3.48,0-7,0-10.44,0Z"></path><path d="M66.54,22q-10.13,0-20.25,0c-.56,0-1.12.14-1.67.12a1.57,1.57,0,0,1-1.68-1.64c.06-.84.53-1.12,1.37-1.11q10.9.11,21.81.15a2.32,2.32,0,0,0,.59-.07c.86-.19,1.65-.22,1.84.9A1.61,1.61,0,0,1,66.9,22.1h-.36Z"></path><path d="M30.62,22.35c-.61-.79-1.25-1.26-1.26-1.74s.87-1.25,1.07-1.18a2.83,2.83,0,0,1,1.41,1.32C32,21,31.22,21.59,30.62,22.35Z"></path></svg>