<svg xmlns="http://www.w3.org/2000/svg" id="Layer_1" data-name="Layer 1" viewBox="0 0 132.1 130.67"><title>AsimovMarketingIcon-bt-omar bahaa</title><path d="M12.64,82.41c-1.16.1-2.4-.48-3.49.5a.8.8,0,0,1-.56.14c-1.5-.08-2.75.67-4.09,1.15a2.2,2.2,0,0,1-2.56-.31C1.38,83.33.79,82.79,0,82c.84-.59,1.55-1.09,2.28-1.58A17.32,17.32,0,0,1,4.65,79c1.58-.69,3.23-1.22,4.84-1.85.58-.22,1.12-.55,1.71-.75a5.81,5.81,0,0,1,2.21-.53c1.25.14,2.2-.5,3.26-.89,1.66-.61,3.31-1.22,5-1.86.47-.19.89-.48,1.36-.68l4.22-1.87a2.6,2.6,0,0,1,.46-.12c1.72-.27,2.27-.93,2-2.66a21.69,21.69,0,0,0-.82-2.64c-.4-1.31-.77-2.64-1.17-3.95-.27-.93-.56-1.85-.86-2.76-.38-1.16-.77-2.32-1.16-3.48l-1.23-3.7c-.06-.18-.06-.39-.12-.57-.4-1.36-.82-2.71-1.19-4.07-.31-1.16-.55-2.33-.82-3.49a14.29,14.29,0,0,0-.89-3.46,6.11,6.11,0,0,1-.28-4.39c.15-.73,1.53-1.37,2.47-1.73,2-.8,4.19-1.32,6.24-2.1a14.22,14.22,0,0,1,4.65-1.35c.46,0,.89-.49,1.37-.64,1.5-.47,3-.85,4.53-1.33,1-.3,1.85-.74,2.8-1.08s1.9-.62,2.85-.92,1.93-.54,2.89-.85c1.17-.37,2.34-.75,3.49-1.17,1-.35,1.93-.76,2.9-1.13.75-.29,1.51-.59,2.28-.82,1.66-.49,3.35-.93,5-1.43.47-.14.89-.53,1.37-.62a2.86,2.86,0,0,1,3,1.61c.77,1.93,1.43,3.91,2.16,5.85.12.33.41.59.55.91a25.75,25.75,0,0,1,2,4.69c.39,1.75,1.39,3.12,2,4.69s.94,3,1.49,4.49c.37,1,.93,1.89,1.36,2.85s.78,2.1,1.31,3.07a18.17,18.17,0,0,0,1.74,2.22c.43-1.19.75-2.08,1.08-3,.45-1.17,1-1.32,2.09-.75a20.19,20.19,0,0,1,4.78,2.7c.75.68,1.64,0,1.87-1a24.83,24.83,0,0,1,1-2.93c.33-.9.64-1.81,1-2.71A1.56,1.56,0,0,1,94,41.9c1.06.74,2,1.69,3.08,2.34,2.5,1.49,4.24,3.8,6.35,5.71.87.78,2,1.33,2.75,2.17a18.81,18.81,0,0,1,1.89,2.8c.15.22.25.59.43.64,1.16.3,2.34.51,3.51.78.56.13,1.1.32,1.65.48a2.78,2.78,0,0,0,.56.17,24.26,24.26,0,0,1,4,.56,15,15,0,0,1,4.41,1.38,2.44,2.44,0,0,1,1.08,3.46,33.46,33.46,0,0,1-5.17,7.23A10.93,10.93,0,0,0,116.88,72a1.9,1.9,0,0,0,1,2.39,15.27,15.27,0,0,1,1.48.93c.13.08.25.32.35.31,1.43-.18,2.18,1.1,3.32,1.56a10.83,10.83,0,0,1,2.17,1.37c1.8,1.3,3.64,2.56,5.35,4a4.26,4.26,0,0,1,1.51,2.3,3,3,0,0,1-1,2.15,12,12,0,0,1-2.46,1.32c-1.49.82-3,1.68-4.47,2.5-1.88,1-3.82,1.94-5.61,3.1A3.79,3.79,0,0,0,117,96.16a15.93,15.93,0,0,0,.19,3.82c.09,1.17.12,2.35.32,3.51a2.78,2.78,0,0,1-1.53,2.86,29.7,29.7,0,0,1-3,1.54,61.13,61.13,0,0,0-7,3.75,75.53,75.53,0,0,1-6.74,3.7c-1.49.84-2.88,1.84-4.33,2.76-.46.29-1,.51-1.43.78-1.94,1.07-3.91,2.09-5.81,3.22-1.5.9-2.91,2-4.37,2.91-.36.24-.81.31-1.17.54-1.91,1.2-3.78,2.46-5.71,3.63a12.11,12.11,0,0,1-2.94,1.43,5.33,5.33,0,0,1-2.17-.23,9.5,9.5,0,0,1-1-.34c-1-.29-1.94-.53-2.89-.86s-1.84-.76-2.77-1.13-1.92-.79-2.89-1.14-1.84-.6-2.76-.88-1.94-.51-2.9-.82c-.33-.1-.59-.4-.92-.51-2.07-.7-4.18-1.33-6.24-2.08-1.37-.51-2.66-1.23-4-1.77C44,120.48,43,120.28,42,120s-2-.71-3-1.07c-.79-.29-1.57-.63-2.38-.88s-1.95-.44-2.91-.75-1.86-.72-2.8-1.07-1.67-.59-2.5-.91-1.93-.76-2.9-1.14c-.75-.28-1.5-.59-2.28-.81a12.4,12.4,0,0,1-2.89-.79A7.27,7.27,0,0,1,17.65,110c-1.13-2.24-.72-4.77-.73-7.21a4.16,4.16,0,0,0-3.52-3.64,16.3,16.3,0,0,1-3-.79C9,98,7.65,97.61,6.32,97.12a14.29,14.29,0,0,1-2.56-1.36.87.87,0,0,1-.2-.83c.4-.75,1-1.42,1.37-2.17,1.2-2.27,3.32-3.7,4.91-5.61a53.19,53.19,0,0,0,3-4.39ZM76.81,78A4.93,4.93,0,0,1,73.37,75c-.58-1.74.34-3.45.8-5.14.35-1.33.77-2.64,1.16-4s.76-2.48,1.11-3.73,1-2.35.82-3.44a18.75,18.75,0,0,0-1.62-4.55C75.16,53.07,74.46,52,74,50.86c-.6-1.5-1-3.09-1.6-4.57-1-2.24-2.12-4.4-3.07-6.64-.82-1.95-1.43-4-2.2-6-.57-1.48-1.25-2.91-1.89-4.35-.22-.5-.45-1-.66-1.49a14,14,0,0,0-1.11-2.52A1.9,1.9,0,0,0,62,24.67a13.72,13.72,0,0,0-2.75.87c-.94.34-1.83.79-2.78,1.09s-2,.45-2.91.74c-.81.24-1.6.57-2.39.86-1,.37-1.92.78-2.91,1.1s-2,.41-2.89.78A11.27,11.27,0,0,1,41,31.36c-.25,0-.49.23-.74.34-.82.33-1.62.72-2.47,1-1.1.34-2.24.56-3.36.86-.66.18-1.31.43-2,.63-1.35.41-2.73.76-4.06,1.23-1.09.38-2.56.61-2.81,1.85a4.79,4.79,0,0,0,.34,3.81,8.94,8.94,0,0,1,.89,2.61c.49,1.82.92,3.65,1.39,5.47.2.78.4,1.56.62,2.33.08.26.2.5.29.76.36.93.75,1.85,1.05,2.8s.51,2,.8,3c.39,1.36.83,2.7,1.2,4.06.3,1.08.4,2.22.8,3.25a11.43,11.43,0,0,1,1.23,4.3,2,2,0,0,0,.17.56c.39,1.36.78,2.72,1.18,4.08.15.55.32,1.09.47,1.64.29,1,.56,2.09.86,3.12a13.29,13.29,0,0,0,.87,2.51c.14.26.86.2,1.31.31a3.23,3.23,0,0,1,.42.2,21.19,21.19,0,0,0,2.79,1.09c2,.54,4.13.94,6.2,1.42,1,.22,2,.47,2.92.73,1.56.41,3.1.9,4.67,1.24,2.69.57,4.91-.93,7.26-1.81,1.16-.44,2.25-1.06,3.39-1.58,1.4-.65,2.81-1.27,4.22-1.91A11.92,11.92,0,0,1,74,79.9C75.37,79.74,75.84,78.81,76.81,78ZM19.92,80.9A2.47,2.47,0,0,0,17.53,82c-.52.78-1.07,1.53-1.64,2.27-.3.38-.71.66-1,1-1.4,1.82-2.8,3.65-4.17,5.5a12.4,12.4,0,0,0-1.27,2.09.94.94,0,0,0,.3.88c1.9.75,3.83,1.44,5.75,2.13.69.25,1.38.48,2.08.68,1,.29,2,.47,3,.84,1.44.55,2.83,1.22,4.25,1.83a14,14,0,0,0,1.6.68c.95.31,1.94.52,2.88.85s2,.79,3,1.19l2.76,1.14c1.3.52,2.58,1,3.89,1.52,1.52.56,3.05,1.07,4.58,1.62,1,.34,1.94.73,2.91,1.08,1.12.39,2.25.74,3.36,1.15,1.34.49,2.66,1.06,4,1.52,1,.34,2.06.43,3,.86,2,.92,3.42.73,4.7-.88a8.71,8.71,0,0,0,.63-1.26c1-1.83,2.09-3.64,3.08-5.49s2-4,3.09-6c.48-.91.49-1.92-.45-2.38a43.55,43.55,0,0,0-4.76-1.73c-1.06-.35-2.15-.59-3.2-.94S58,91.43,57,91.11s-1.94-.51-2.91-.79q-2.09-.6-4.17-1.23c-.89-.26-1.78-.53-2.64-.85s-1.92-.8-2.89-1.15c-1.18-.44-2.38-.84-3.58-1.21-1-.31-1.93-.57-2.9-.82s-2.25-.54-3.37-.83c-1.48-.39-2.94-.87-4.44-1.18s-3.14-.48-4.71-.72c-.08,0-.14-.07-.22-.09Zm69.72,25.95c.88-.41,1.67-.74,2.41-1.16.91-.52,1.76-1.15,2.66-1.69,1.36-.81,2.77-1.56,4.11-2.41s2.89-2,4.38-2.9,2.9-1.64,4.36-2.45,2.92-1.62,4.38-2.43c1.06-.59,2.12-1.15,3.17-1.75s2.28-1.8,3.52-2c1.6-.24,2.46-1.46,3.78-2,1.49-.63,2.87-1.53,4.3-2.31,1.21-.66,1.3-1.64.2-2.42-1.37-1-2.76-1.9-4.16-2.8-.85-.55-1.75-1-2.61-1.52-1.45-.91-2.93-1.78-4.32-2.78a3,3,0,0,0-3-.29c-.68.39-1.38.73-2.08,1.08-1.54.76-3.1,1.46-4.61,2.28-1.33.73-2.53,1.7-3.9,2.35a58.33,58.33,0,0,0-7.65,4.44,20.79,20.79,0,0,1-3.23,1.63c-1.34.6-2.78,1-4,1.71C85.39,90.51,83.58,91.8,81.7,93c-1,.6-2,1-2.92,1.69a11.69,11.69,0,0,0-1.62,1.86l1.27,1c.07,0,.12.12.18.17l7.71,7a6.7,6.7,0,0,0,.86.83C88,106,88.81,106.41,89.64,106.85ZM70.92,126.53l0,.19a1.43,1.43,0,0,0,.22-.08c1.11-.69.83-1.79.83-2.81,0-5.42-.23-10.85.66-16.23a11.11,11.11,0,0,0,0-2.88,11.39,11.39,0,0,0-.62-2.56c-.12-.37-.68-1-.77-.92a3.23,3.23,0,0,0-1.33,1.05c-.84,1.35-1.35,2.95-2.37,4.12-1.73,2-2.23,4.64-4.21,6.5-1.38,1.28-2.5,2.66-4.53,2.33a11.63,11.63,0,0,1-3-1.06c-.85-.4-3-.44-3.47.24a3.83,3.83,0,0,1-4.1,1.5,22.78,22.78,0,0,1-3.08-1c-1-.34-2-.75-3.06-1s-2.29-.42-3.37-.8c-1.53-.55-3-1.26-4.48-1.9-.46-.2-.9-.48-1.37-.65-1.11-.41-2.22-.81-3.35-1.15s-2.17-.58-3.25-.88-2.14-.64-3.22-.91a9.3,9.3,0,0,0-2.27-.38c-.69,0-.82.64-.47,1.14a3.08,3.08,0,0,0,1.18.93,25,25,0,0,0,3,1.24c1.64.54,3.32,1,5,1.49.92.28,1.83.59,2.73.92s1.85.75,2.79,1.09c1.19.42,2.39.81,3.59,1.2.88.28,1.77.53,2.65.82,1.1.36,2.18.73,3.26,1.11l4.47,1.57c.88.3,1.77.54,2.64.86s2,.8,3,1.18c.79.3,1.6.55,2.39.85l4.86,1.82c.93.36,1.85.74,2.79,1.09,1.4.54,2.8,1.1,4.23,1.58A14.68,14.68,0,0,0,70.92,126.53ZM86.45,82.86c.65-2,1.16-3.54,1.62-5.08.3-1,.5-2,.75-3,.43-1.75.91-3.48,1.27-5.25.3-1.51.46-3.05.69-4.59,0-.11.09-.22.12-.33q.6-2.52,1.21-5a4.81,4.81,0,0,1,.41-1.3A2.63,2.63,0,0,0,91.91,55c-1.24-.8-2.47-1.62-3.72-2.39-1.69-1-3.38-2.07-5.12-3-.66-.36-1,0-1.22.76-.3,1.37-.8,2.7-1.17,4.06a33.22,33.22,0,0,0-.81,3.49c-.29,1.93-.46,3.87-.69,5.8a1,1,0,0,1-.07.23c-.42,1.23-.9,2.44-1.24,3.69s-.44,2.35-.73,3.51a11.06,11.06,0,0,1-.85,2.38c-.55,1.06-.43,1.83.68,2.19a10.35,10.35,0,0,1,3.69,2.46C82.42,79.76,84.33,81.17,86.45,82.86Zm5.81-8.81-.24.14c.42.53.76,1.41,1.27,1.52a7,7,0,0,1,3.39,1.72,5.59,5.59,0,0,0,1.84,1c1.07.4,1.62-.07,1.66-1.24a5.41,5.41,0,0,1,.18-1.27c.37-1.37.86-2.71,1.13-4.1.33-1.63.47-3.3.7-5,0-.11.11-.21.14-.32.4-1.44.9-2.86,1.17-4.32.33-1.79.48-3.62.73-5.43a.89.89,0,0,1,.21-.41,1.58,1.58,0,0,0-.25-2.5c-1.55-1.33-2.73-3-4.61-4.07-1.34-.75-2.26-2.23-3.45-3.3a13.27,13.27,0,0,0-2.4-1.65c-.53-.29-1-.08-1.12.63-.1.51-.35,1-.49,1.51-.3,1.08-.57,2.16-.85,3.24a.39.39,0,0,0,0,.23,14.76,14.76,0,0,0,1.31,2.07c.83,1,1.79,1.82,2.68,2.73a4.25,4.25,0,0,1,.53,3.44A32,32,0,0,0,94.65,63c-.33,1.59-.5,3.22-.74,4.83,0,.11-.13.2-.16.31-.38,1.32-.77,2.64-1.12,4C92.46,72.77,92.38,73.41,92.26,74.05Zm22.07,28.41-.06-.47c-.57-.26-1.24-.85-1.68-.71a13.84,13.84,0,0,0-3.12,1.57c-1.48.93-2.86,2-4.36,2.92-1.81,1.06-3.7,2-5.55,3-.52.28-1,.54-1.53.85-1.46,1-2.88,2-4.37,2.92s-3,1.69-4.45,2.53c-.51.29-1,.54-1.51.87-.94.64-1.81,1.38-2.77,2-1.42.87-2.91,1.63-4.36,2.45-1,.6-2.09,1.2-3.12,1.82-.66.4-1.58.69-1.89,1.29a3.19,3.19,0,0,0-.15,2.44c.3.7,1,.12,1.48-.25.15-.11.39-.07.57-.14a19.41,19.41,0,0,0,2.63-1.16c1-.6,1.85-1.44,2.84-2.06,2.17-1.36,4.4-2.63,6.59-4,.83-.5,1.64-1,2.47-1.55s1.81-1.06,2.69-1.62,1.67-1.15,2.53-1.69,1.94-1.13,2.89-1.72,1.76-1.14,2.66-1.69c1.36-.81,2.77-1.56,4.11-2.41s2.94-1.91,4.38-2.91C112.3,104,113.3,103.22,114.33,102.46ZM109.75,71.3a3.57,3.57,0,0,0,3.46-1.56c.26-.38.36-.88.63-1.25C115.2,66.64,116.6,64.8,118,63c.54-.71.44-1.86-.24-2a28.93,28.93,0,0,0-3-.71c-1.73-.27-3.48-.45-5.22-.68a1.55,1.55,0,0,1-.53-.23,1.39,1.39,0,0,0-2.26,1,14.55,14.55,0,0,1-.73,4,8.46,8.46,0,0,0-.62,3.43,1.2,1.2,0,0,1-.24.53,1.32,1.32,0,0,0,.69,2.13C107.1,70.73,108.43,71,109.75,71.3Z"></path><path d="M80.8,26.63a1.54,1.54,0,0,1-2-1,3.37,3.37,0,0,1,.43-3.17,11.11,11.11,0,0,0,1.46-3,10.18,10.18,0,0,1,.81-2.39c.71-.93.49-1.88.54-2.85,0-.47,0-1,0-1.43.21-2.74.25-5.5.73-8.19A5.92,5.92,0,0,1,85.43.23a2.05,2.05,0,0,1,1.64-.1C88.71,1,89,2.39,88.12,4a10.73,10.73,0,0,0-.65,2,21.17,21.17,0,0,0-.87,3.35,20,20,0,0,0,0,4.31A17.47,17.47,0,0,1,85.82,20a21.37,21.37,0,0,1-2.58,5.55C82.52,26.76,82.32,26.63,80.8,26.63Z"></path><path d="M94.49,26.63c.59.92,1.34,1.6,1.43,2.35a3.87,3.87,0,0,1-.84,2.24,26.11,26.11,0,0,1-2.61,3.32A5.5,5.5,0,0,1,89,36.1a4.44,4.44,0,0,0-3.8,2.77,9.82,9.82,0,0,1-.72,2,2.39,2.39,0,0,1-1.6,1.1,2,2,0,0,1-1.47-1.19,4.6,4.6,0,0,1,1.2-4.26,17.24,17.24,0,0,1,2.48-2.43,10.55,10.55,0,0,1,2.81-1.28,6.76,6.76,0,0,0,4.26-4.2C92.5,27.87,93.58,27.4,94.49,26.63Z"></path><path d="M18.79,61.86c-1.27,1.38-1.86,1.39-3,.34a19.66,19.66,0,0,0-5.15-3.37A6.19,6.19,0,0,1,8.05,57c-.5-.78-.34-2-.42-3a1.21,1.21,0,0,1,.79-.2,5.64,5.64,0,0,1,1.45.73c1.65,1.16,3.28,2.36,4.93,3.53a9.82,9.82,0,0,1,1.57,1C17.23,59.86,18,60.87,18.79,61.86Z"></path><path d="M104.51,6.8,103.22,9a1.63,1.63,0,0,1-2.85.09c-.09-.12-.24-.33-.2-.41.53-.89.9-2,1.68-2.55A1.85,1.85,0,0,1,104.51,6.8Z"></path><path d="M37.06,54.91V52a7.25,7.25,0,0,1,2.43-5.95c.59-.52.8-1.5,1.41-2a41.75,41.75,0,0,1,4.73-3.2c3.81-2.15,8-1.4,12.06-1.24a6.54,6.54,0,0,1,4.67,2.13c1.29,1.54,2.71,3,3.87,4.61a10.42,10.42,0,0,1,2.23,7.53,2.89,2.89,0,0,0,0,.72,9.86,9.86,0,0,1-1.55,6,22.71,22.71,0,0,1-3.8,5.16,17.73,17.73,0,0,1-4.64,3.09,14.49,14.49,0,0,1-8.35,1.3,10.92,10.92,0,0,1-4.22-1.54c-1.92-1.18-3.53-2.86-5.48-4S38,61.5,37.21,59.77c-.6-1.37-.12-3.22-.12-4.86Zm13,3.51-.29-.14a1.09,1.09,0,0,0,0-.36c-.41-1.44.83-1.69,1.64-2.14s1.44-.05,2,.58A10.86,10.86,0,0,0,55.15,58a1.47,1.47,0,0,0,1.25,0c.3-.15.67-.82.56-1A25.72,25.72,0,0,0,55,54.42c-1-1.26-2-2.5-3-3.75s-1.88-2.31-2.83-3.46c-.47-.57-1.06-.63-1.51,0A3,3,0,0,0,47,48.72c-.06,2.68,0,5.36,0,8a6.79,6.79,0,0,0,.67,3.66c.44.76,1,.83,1.37.31A11.73,11.73,0,0,0,50.1,58.42ZM53.4,49c.58-.61,1.55-1,.91-1.84a1.77,1.77,0,0,0-1.74,0C51.86,47.89,52.83,48.32,53.4,49Z"></path><path d="M49.91,53.43,49,52l.47-.32,1,1.37Z"></path></svg>