<svg xmlns="http://www.w3.org/2000/svg" id="Layer_1" data-name="Layer 1" viewBox="0 0 97.93 98.81"><title>AsimovMarketingIcon-bt-omar bahaa</title><path d="M94,67.54a24.23,24.23,0,0,0-2.67,2q-8.51,8.63-16.92,17.3c-2.47,2.55-4.84,5.2-7.26,7.8-.22.23-.44.54-.71.61a3.14,3.14,0,0,1-1.09-.09,4.45,4.45,0,0,1,.13-1c.08-.21.34-.33.51-.51.8-.87.65-1.57-.48-1.8-2-.41-4.06-.64-6.06-1.07s-3.69-1-5.56-1.43c-2.54-.56-5.12-1-7.67-1.52-1.51-.31-3-.66-4.51-1a1.22,1.22,0,0,1-1-1.53c.13-1.18-.54-1.76-1.65-1.38a26.75,26.75,0,0,1-9.73,1.21,15.27,15.27,0,0,0-2.1.33,7.57,7.57,0,0,1-2,0,9.54,9.54,0,0,1-2.3-.62c-.34-.14-.56-.57-.84-.88a9.26,9.26,0,0,1,.92-.62c.16-.1.47,0,.57-.12.28-.37.49-.79.74-1.19-.42-.2-.88-.63-1.23-.55a37,37,0,0,0-4.06,1.21,5.22,5.22,0,0,1-7.2-4.78,47.84,47.84,0,0,0-1-5.07c-.27-1.46-.43-3-.63-4.43a3.69,3.69,0,0,0,0-.47c-.35-1.61-.73-3.21-1.08-4.82C9,62,8.74,60.82,8.5,59.66c-.35-1.71-.73-3.43-1-5.15-.41-2.32-.74-4.66-1.16-7C6,46,5.61,44.4,5.27,42.84c-.09-.42-.13-.86-.19-1.28-.1-.66-.21-1.31-.31-2C4.52,38,4.28,36.43,4,34.85c0-.08,0-.17,0-.24C3.71,33,3.35,31.32,3,29.68c-.05-.23-.19-.45-.22-.68-.16-1.48-.24-3-.48-4.45-.22-1.31-.68-2.58-.94-3.89C1,19,.82,17.4.56,15.77A27.9,27.9,0,0,1,0,12.16,4.33,4.33,0,0,1,3.69,7.88c2.33-.43,4.63-1,7-1.49.23,0,.47-.06.7-.1,2-.32,4-.65,5.94-1l4.55-.7c.24,0,.49,0,.72-.06,2.34-.55,4.67-1.17,7-1.63,1.58-.31,3.21-.36,4.8-.59,1.29-.19,2.56-.51,3.84-.74C40,1.28,41.76,1,43.54.66,44.94.42,46.34.2,47.75,0a4,4,0,0,1,4.32,2.31,14.27,14.27,0,0,0,1.1,2.13c.49.64,1.11,1.45,1.8,1.62a5,5,0,0,1,3.52,3.48c.72,1.86.91,3.92,1.54,5.83.53,1.61.14,3.43,1.3,4.89.82,1,1.51,1.15,2.2,0a4.27,4.27,0,0,1,3.19-2.1,1.24,1.24,0,0,0,.58-.13c.34-.27.64-.6,1-.9-.32-.32-.6-.82-1-.91-.6-.16-1.27,0-1.89-.06a6.8,6.8,0,0,1-2.3-.61c-1-.54-.83-1.3-.4-2.34.9-2.13,2.28-2.91,4.48-2.45.91.19,1.84.32,2.77.48a3.47,3.47,0,0,0,.46.13l6.63.42c.35,0,.71.06,1.06.12,1.16.2,2.31.45,3.47.63s2.26.33,3.4.42a15.76,15.76,0,0,0,2.38,0,3.9,3.9,0,0,1,3.76,4.71,7.6,7.6,0,0,1-4.53,5.51,3.83,3.83,0,0,0-1.07.77c-1.14,1.06-.91,2.11.61,2.55,2,.59,4.08,1.06,6.11,1.62,1.5.41,1.68.77,1.21,2.19-.32.95.14,1.43,1,1.75,2.25.89,2.37,1.3,1.59,3.68a35.58,35.58,0,0,0-.82,3.85c-.78,3.79-1.56,7.59-2.35,11.37-.55,2.6-1.12,5.19-1.67,7.78s-1.12,5.34-1.71,8c-.09.41-.42.77-.53,1.19a4.15,4.15,0,0,0,0,1.11c.4-.05.91,0,1.17-.18.67-.56,1.18-1.32,1.84-1.88a1.82,1.82,0,0,1,1.34-.45C93.66,66.74,93.88,67.35,94,67.54Zm-88.66-50,.33,0c-.81-2.57.71-3.84,2.63-4.75a11.4,11.4,0,0,1,2.33-.31c2.34-.53,4.66-1.13,7-1.69.26-.06.55,0,.83,0,1.63-.21,3.28-.37,4.9-.67,1.4-.25,2.76-.67,4.14-1,.95-.23,1.91-.45,2.87-.62,1.89-.34,3.8-.63,5.7-1,1.19-.21,2.38-.5,3.58-.72a21.89,21.89,0,0,1,2.66-.4c1.07-.06,2.39-.4,3.15.09,1.42.91,2.89,2.05,3,4.08,0,.5.39,1,.4,1.48a23.82,23.82,0,0,1-.08,3.38,7.13,7.13,0,0,1-.6,1.81,4.17,4.17,0,0,1-.49.72c-.24-.24-.65-.46-.69-.73A28.49,28.49,0,0,1,46.6,13c0-3.33-2-4.87-4.86-3.89a31.51,31.51,0,0,1-4.36.91c-1.86.34-3.72.67-5.58,1-1.51.24-3,.42-4.54.64-.43.07-.85.19-1.28.28-1.54.33-3.07.7-4.62,1-1.31.24-2.65.34-4,.56-2,.34-4,.75-6,1.08-1.06.17-1.46.75-1.26,1.71.37,1.72.62,3.47.93,5.21q.08.4.18.81c.33,1.34.7,2.67,1,4,.37,1.73.69,3.48,1,5.23.23,1.16.52,2.31.71,3.48.41,2.53.7,5.08,1.16,7.59.63,3.46,1.39,6.89,2.08,10.33a16.29,16.29,0,0,0,.69,3.47c1.15,2.54,1.24,5.28,1.7,7.95.28,1.68.9,2.42,2.57,2.25,1.37-.14,2.72-.48,4.08-.73.93-.18,1.86-.32,2.79-.51l5-1.07c2.16-.45,4.33-.86,6.49-1.35a1.32,1.32,0,0,0,.84-.74c.33-1.06.52-2.16.77-3.24.29-1.27.59-2.54.85-3.81.08-.41.22-1,0-1.2a1.49,1.49,0,0,0-1.2-.22c-.69.14-1.35.5-2,.64-1.88.36-3.77.72-5.67.94-.51.06-1.08-.41-1.62-.63.23-.46.34-1.15.7-1.33a12,12,0,0,1,2.6-.76c1.38-.31,2.77-.58,4.16-.86,1.16-.24,2.35-.42,3.48-.76a1.68,1.68,0,0,0,.89-1c.51-1.84.92-3.7,1.35-5.56q1-4.14,1.93-8.28a7.81,7.81,0,0,0,.14-.82c.27-1.51.49-3,.83-4.53.42-1.78,1-3.53,1.42-5.3.26-1,.44-2,.67-3a29.17,29.17,0,0,1,.75-3.1.92.92,0,0,1,1.55-.48c1.15.92,2.45.55,3.69.48a1.41,1.41,0,0,0,1.05-.9,1.59,1.59,0,0,0-.71-1.31,15.06,15.06,0,0,0-3.56-.75c-.94-.08-1.55-.39-1.78-1.28s-.39-1.87-.56-2.82c-.25-1.39-.48-2.79-.71-4.18A14.25,14.25,0,0,1,50,5.77c0-1.51-1-3.25-2.28-3.18a60.09,60.09,0,0,0-6.14.71c-1.66.27-3.29.74-5,1-2,.38-4.1.68-6.14,1-1.21.21-2.39.5-3.6.7-1.55.26-3.12.46-4.68.71-1,.17-2,.37-3,.57-1.58.32-3.16.67-4.74,1-1.77.33-3.54.61-5.31.93A40.76,40.76,0,0,1,5.07,10c-1.62.12-2.74,1.12-2.58,2.74.15,1.4.44,2.8.64,4.2s.35,3,.59,4.45c.17,1.1.43,2.18.66,3.26.31,1.5.66,3,1,4.5s.5,3,.76,4.55c.15.89.3,1.78.48,2.67.35,1.65.77,3.28,1,4.94.42,2.43.71,4.88,1.13,7.31.32,1.86.75,3.7,1.17,5.54.31,1.38.7,2.74,1,4.12a11.49,11.49,0,0,1,.1,1.18c.23,1.63.43,3.27.73,4.89.26,1.38.74,2.74,1,4.13.26,1.59.35,3.2.52,4.81,0,.19.09.38.13.58.35,1.5.76,3,1,4.5A2.51,2.51,0,0,0,17.6,80.5c1.95-.52,3.91-1,5.89-1.44,1.62-.33,3.29-.46,4.92-.77,2.6-.49,5.17-1.08,7.77-1.57,1.33-.25,2-.76,2-1.78,0-1.24-.91-1.16-1.76-1.26a2.38,2.38,0,0,1-1.93-1.91,2.6,2.6,0,0,1,1.19-3,2.79,2.79,0,0,1,2.17-.34c1.5.44,2.07.18,2.26-1.45.12-1-.49-1.44-1.47-1.21-2.48.58-5,1.09-7.46,1.63l-5.29,1.1c-.31.07-.63,0-.95.1a21.19,21.19,0,0,0-4.39.72c-1.86.7-3.34,0-4.69-.93-2.15-1.5-1.75-4.11-2.29-6.28-.4-1.64-.43-3.35-.73-5-.25-1.39-.72-2.74-1-4.13-.45-2.37-.8-4.75-1.23-7.12-.18-1-.46-2.09-.67-3.13q-.5-2.49-.93-5c-.28-1.59-.52-3.18-.8-4.77s-.61-3.24-.9-4.86-.52-3.19-.81-4.78C6.16,21.38,5.75,19.45,5.37,17.52ZM72.16,86.78a7.51,7.51,0,0,0,1-.7c1.75-1.7,3.56-3.34,5.17-5.17a8.62,8.62,0,0,0,1.73-3.31c.65-2.37,1-4.81,1.55-7.21.22-1,.58-1.91.76-2.88.26-1.34.3-2.73.61-4.06.64-2.65,1.46-5.27,2.1-7.92.67-2.81.94-5.75,1.91-8.44,1.09-3.07,1.32-6.27,2.17-9.36.51-1.84.92-3.72,1.52-5.54.47-1.43-.08-2.3-1.63-2.32a6.46,6.46,0,0,1-1.52-.19c-2-.5-3.87-1.14-5.85-1.51a4.84,4.84,0,0,0-2.78.36,13.92,13.92,0,0,1-6,1.44,8.33,8.33,0,0,1-7.37-3.83,7.8,7.8,0,0,0-5.13-3c-1.8-.41-3.63-.69-5.41-1.15-.94-.24-1.57-.19-1.87.82-.24.8-.52,1.6-.7,2.41-.26,1.16-.38,2.34-.67,3.49-.48,1.91-1.1,3.79-1.56,5.71s-.84,4.09-1.31,6.12-1.41,4.1-1.45,6.16-1.29,3.76-1.38,5.77a14,14,0,0,1-.49,2.78c-.69,2.65-1.48,5.27-2.14,7.93-.5,2-.85,4.09-1.26,6.15-.19,1-.26,2-.51,2.91-.49,1.84-1.08,3.65-1.61,5.48a1.42,1.42,0,0,0,1.18,1.76c1.89.42,3.79.83,5.67,1.29s3.81,1.05,5.72,1.53c1.72.44,3.45.84,5.19,1.23,1.12.24,2.26.38,3.38.64,1.42.33,2.82.74,4.24,1.08s3.09.65,4.63,1C70.73,86.36,71.38,86.56,72.16,86.78ZM66.71,12.6l-1,.89a3.85,3.85,0,0,0,1,.85c.38.14.86,0,1.3,0a9.14,9.14,0,0,1,1.27.14c1,.15,1.91.36,2.87.48a34.12,34.12,0,0,1,4.78.59,32.33,32.33,0,0,0,6.75,1,9.56,9.56,0,0,1,1.41.19c.6.13,1.27.4,1.48-.43s-.39-1.24-1.15-1.34c-1.52-.2-3-.4-4.57-.55-2.56-.25-5.13-.46-7.69-.7-1.53-.14-3.07-.26-4.6-.47A10.33,10.33,0,0,1,66.71,12.6Zm4.34,7.07v0a11.74,11.74,0,0,0-1.78,0,14.59,14.59,0,0,0-1.71.51c-1.06.29-1.3.82-.64,1.71s1.65,2,2.51,3c.56.64,1.1,1.6,2.13,1.12s.53-1.51.55-2.35a8.87,8.87,0,0,1,.22-2.07A9.38,9.38,0,0,1,73.18,20l-1.89-.32A1.92,1.92,0,0,0,71.05,19.67Zm-33.59,51c-.38-.26-.67-.58-.82-.53a1.08,1.08,0,0,0-.64.67c0,.19.4.6.63.6S37.08,71,37.46,70.65Z"></path><path d="M81.61,95.37c-.24-.08-.79-.28-1.36-.46-1.45-.46-2.81-.5-4,.79-.65.74-1.4,1.42-2.11,2.12a1.61,1.61,0,0,1-2.19.11.92.92,0,0,1-.19-1.59L83.12,83.81c.55-.61,1.16-1.18,1.66-1.82.18-.22.13-.62.19-.93-.28.07-.65.06-.83.23Q78.37,87,72.64,92.77c-1.38,1.39-2.72,2.82-4.12,4.18-.27.27-.77.29-1.17.43.13-.42.13-.95.4-1.24,2.53-2.7,5.08-5.39,7.68-8,2.86-2.9,5.84-5.69,8.68-8.61,3.21-3.28,6.34-6.64,9.47-10,.58-.62.93-1.34,1.9-1.61s.29-1,0-1.49-.67-1.46-.52-1.57a15,15,0,0,1,2.46-1.35c.16.32.53.71.45,1A14.15,14.15,0,0,1,93.83,71a37.78,37.78,0,0,0-3.13,3.43c-.5.57-.46,1,.36,1.18s1,.79.48,1.49c-1.76,2.16-3.48,4.36-5.35,6.43-1,1.16-1,2.58-1.24,3.89-.49,2.23-.74,4.51-1.17,6.74C83.6,95.07,82.88,95.44,81.61,95.37Z"></path><path d="M89.51,25.45c-.2-.12-.85-.29-1-.64a1.5,1.5,0,0,1,.56-1.25,24.93,24.93,0,0,1,3.37-2.19,1.51,1.51,0,0,1,1.36.3A1.27,1.27,0,0,1,94,22.91C92.84,24.15,91.65,25.34,89.51,25.45Z"></path><path d="M66.12,97.87a14.3,14.3,0,0,1-1.14.94A12.3,12.3,0,0,1,63.45,97c-.05-.08.67-.82.7-.79C64.77,96.68,65.34,97.2,66.12,97.87Z"></path><path d="M24.56,43.12c-.83.18-1.95.46-3.07.66a13.22,13.22,0,0,1-3,.35,1.82,1.82,0,0,1-1.32-1.08c-.52-2.24-.91-4.5-1.26-6.77-.29-1.89.93-3,2.84-2.75a1.6,1.6,0,0,0,.47.06c1.57-.34,3.15-.6,4.68-1.07,1-.3,1.6-.18,1.89.76s.46,1.93.67,2.89a36.13,36.13,0,0,0,.88,3.9,2.22,2.22,0,0,1-1.84,3C25.26,43.14,25.05,43.12,24.56,43.12Zm-5.7-5a7.07,7.07,0,0,0,.22,1.39c.23.59.81.84,1.18.25A30,30,0,0,0,22,36.32c.05-.11-.36-.62-.56-.62C19.64,35.72,19,36.33,18.86,38.16Z"></path><path d="M23.53,20.77a1.81,1.81,0,0,0,0,.51c.36,1.4.73,2.81,1.12,4.2.63,2.26-.46,3.58-3.14,3.91a39.91,39.91,0,0,0-4.19.73c-1.91.44-3.25-.48-3.18-2.41a4.32,4.32,0,0,0-.53-2.86c-.14-.2-.06-.54-.11-.81a15.68,15.68,0,0,0-.43-2.27c-.29-.91,0-1.68.9-1.85,2.52-.44,5-.87,7.6-1.19C23.07,18.54,23.55,19.09,23.53,20.77Zm-7.48,3.46a3.64,3.64,0,0,0,.63,1.28,1.25,1.25,0,0,0,1.24-.06A10.37,10.37,0,0,0,19.41,23a1.21,1.21,0,0,0-.3-1.13A2.31,2.31,0,0,0,16.05,24.23Z"></path><path d="M27.58,57.17c-1.25.28-2.76.54-4.22,1-1.71.51-3,.22-3.78-1.09-.12-.2-.29-.46-.25-.65a7.67,7.67,0,0,0-.48-4.21c-.16-.48-.24-1-.44-1.46-.6-1.41-.15-2.23,1.31-2.48,2.45-.42,4.88-.9,7.32-1.38a1.83,1.83,0,0,1,2.07,1.66c.27,1.62.43,3.25.65,4.88a2.62,2.62,0,0,0,.18.68C30.78,56.06,30,57.23,27.58,57.17Zm-4-1.68c1.21-.42,2.3-.76,3.35-1.21a1,1,0,0,0,.41-.89A17.28,17.28,0,0,0,26,50.12c-.15-.27-1-.26-1.47-.22a12.14,12.14,0,0,0-2.06.42c-.4.11-1,.2-1.11.48-.69,1.37.15,2.57.69,3.73C22.25,55,23,55.15,23.57,55.49Z"></path><path d="M38.07,24.22a2.16,2.16,0,0,0-.36,0l-7.62,1.54a5.9,5.9,0,0,1-2,.37c-.55-.1-1-.7-1.51-1.08a10.52,10.52,0,0,1,.87-1.1,1.39,1.39,0,0,1,.76-.34c1.77-.3,3.56-.56,5.33-.87,1.36-.24,2.71-.54,4.06-.84.27,0,.51-.23.78-.26.78-.11,1.81.59,1.79,1.25,0,.87-.65,1.21-1.42,1.34a4.19,4.19,0,0,1-.71,0Z"></path><path d="M32.75,34.23,31,34.79c-.27.09-.56.35-.77.29a18.61,18.61,0,0,1-1.86-.76,10.07,10.07,0,0,1,.9-1.48,1.9,1.9,0,0,1,1-.4c1.5-.32,3-.67,4.51-.9a16.37,16.37,0,0,1,3.2-.18c.35,0,.79.48,1,.84.09.19-.28.81-.55.89-1.81.55-3.65,1-5.48,1.5Z"></path><path d="M32.88,18.3a4.68,4.68,0,0,1,1.42-.15,5.6,5.6,0,0,1,1.34.67c-.33.45-.57,1.15-1,1.29-1.47.48-3,.76-4.51,1.14-.74.18-1.45.44-2.18.63A2.14,2.14,0,0,1,26.8,22c-.48-.18-1.13-.52-1.23-.92a1.54,1.54,0,0,1,.75-1.28A15.89,15.89,0,0,1,29.15,19c1.23-.31,2.47-.58,3.7-.87Z"></path><path d="M33.12,49.92c-.74-.1-1.89,0-1.84-1.08,0-.54.91-1.34,1.53-1.5a51.07,51.07,0,0,1,5.1-.81c.75-.1,1.53-.11,1.68.85s-.48,1.37-1.31,1.53Z"></path><path d="M31.1,40c-.35-.28-1-.54-1.1-.93a1.51,1.51,0,0,1,.61-1.34,12,12,0,0,1,3.28-.87c.38-.05.84.6,1.27.94-.34.41-.6,1-1,1.2A24.47,24.47,0,0,1,31.1,40Z"></path><path d="M63.37,35c-.19.78-.5,2.09-.82,3.4-.09.39-.23.76-.29,1.16-.23,1.52-.62,2-2.08,1.77a55,55,0,0,1-6.46-1.5c-1.18-.34-1.36-1.15-1-2.29.46-1.44.78-2.92,1.24-4.36a6.36,6.36,0,0,1,1-2.11,1.77,1.77,0,0,1,1.46-.42c1.57.31,3.11.84,4.69,1.13C63,32.1,63.4,32.52,63.37,35ZM61,35.35v-.52A7.41,7.41,0,0,0,59.24,34c-.22-.06-.6.52-.9.81a9.19,9.19,0,0,0,1.51,1.42C60,36.29,60.57,35.65,61,35.35Z"></path><path d="M50.73,56.66c.68.18,1.35.37,2,.54,1,.25,2,.53,3,.72a1.9,1.9,0,0,1,1.49,2.83,28.16,28.16,0,0,0-.8,3.58,11.24,11.24,0,0,1-.61,2,2,2,0,0,1-2.43.89c-1.43-.41-2.92-.63-4.36-1a9.43,9.43,0,0,1-2.25-1,1.19,1.19,0,0,1-.34-1c.49-1.82,1-3.64,1.61-5.44S48.75,56.84,50.73,56.66Zm1.52,7.7c1.14,0,2.32-1.39,2.35-2.8,0-.83-2-2.17-3.31-2.25-.65,0-1.8,2-1.77,3.14C49.54,63.31,51,64.34,52.25,64.36Z"></path><path d="M46.46,74.21c1.59.41,2.86.72,4.13,1.06,2.8.74,5.61,1.48,8.41,2.25,3.49,1,7,2,10.44,2.93,1.15.32,2.32.57,3.48.86.73.19,1.51.48,1.23,1.42s-1.12.79-1.83.62c-2.31-.56-4.61-1.17-6.91-1.76-2.69-.7-5.37-1.42-8.06-2.1-2.26-.58-4.53-1.12-6.79-1.69-1.38-.35-2.75-.74-4.12-1.14-.73-.21-1.86-.24-1.6-1.32C45,74.83,46,74.53,46.46,74.21Z"></path><path d="M56.78,53.89c-2-.44-4-.82-5.93-1.33-1-.25-1.26-1.4-.93-2.52.45-1.52.85-3.06,1.17-4.61s1.4-2.12,2.92-1.56a28.45,28.45,0,0,0,3.89,1c1.92.4,3.39,1.31,2.45,3.61-.54,1.32-.79,2.74-1.2,4.11C58.8,53.79,57.92,54.06,56.78,53.89Zm-2.09-7c-1-.21-1.63.21-1.65,1.49a3,3,0,0,1-.37,1c-.38.91-.16,1.22.82,1.26a15.11,15.11,0,0,1,2.33.26c.88.18,1.38-.09,1.59-1C57.87,48,57,46.93,54.69,46.88Z"></path><path d="M81.25,45c-1.81-.43-3.25-.74-4.66-1.12-3.34-.89-6.67-1.79-10-2.76A2.82,2.82,0,0,1,65.22,40c-.13-.2.26-1,.56-1.13a2.92,2.92,0,0,1,1.61.15c1.6.44,3.18,1,4.78,1.4,2,.52,4,1,6,1.46l3,.71c.83.18,1.73.51,1.52,1.46C82.61,44.45,81.65,44.71,81.25,45Z"></path><path d="M60.37,60.1c1.06.26,2.07.49,3.06.76,1.64.46,3.27,1,4.92,1.41,1.3.34,2.63.57,3.94.86a5.67,5.67,0,0,1,.91.29c1,.37,1.36,1.09,1,1.83s-1.09.58-1.84.35c-2-.59-4-1.06-6-1.57L60.8,62.62a6.13,6.13,0,0,1-1.14-.28,9.62,9.62,0,0,1-1.18-.73,6.79,6.79,0,0,1,.91-1.25C59.61,60.15,60.05,60.17,60.37,60.1Z"></path><path d="M62,51c.67.18,1.06.29,1.44.38L74.5,54.05a7.56,7.56,0,0,1,1.25.39c.65.26,1,.75.64,1.43a1.3,1.3,0,0,1-1.67.75c-2.08-.57-4.18-1.11-6.28-1.61s-4.11-.86-6.14-1.34c-.72-.17-1.46-.57-1.25-1.47C61.17,51.73,61.67,51.35,62,51Z"></path><path d="M67.78,70c-.91-.36-1.6-.7-2.32-.9-2.06-.57-4.15-1.08-6.22-1.63a1.9,1.9,0,0,1-1-.51,1.6,1.6,0,0,1-.26-1.27c.14-.35.76-.81,1-.74q4.58,1.28,9.09,2.74c.42.13,1,.92.94,1.1C68.77,69.25,68.19,69.59,67.78,70Z"></path><path d="M73.44,38.55l-2.51-.69c-1.41-.41-2.85-.75-4.22-1.27-.37-.14-.55-.79-.83-1.2.6-.28,1.25-.85,1.8-.77a47.22,47.22,0,0,1,5,1.16,2.61,2.61,0,0,1,1.25.63,1.49,1.49,0,0,1,.41,1.21C74.25,38,73.73,38.29,73.44,38.55Z"></path><path d="M67.28,50.35l-2.85-.15a2,2,0,0,1-.7-.14c-.73-.36-1.75-.64-1.37-1.74s1.33-.78,2.15-.55c1,.3,2.06.57,3,1,.4.16.68.64,1,1l-1.12.93Z"></path></svg>