<svg xmlns="http://www.w3.org/2000/svg" id="Layer_1" data-name="Layer 1" viewBox="0 0 167.95 182.23"><title>AsimovMarketingIcon-bt-omar bahaa</title><path d="M44.43,17.22c.72,0,1.44,0,2.16,0,.35,0,.85,0,1-.24.68-1,1.61-.84,2.58-.81,1.52.06,3,.05,4.56,0,.34,0,.84-.05,1-.26.65-1,1.6-.9,2.57-.88,1.48,0,3,0,4.44.06,1,0,1.91.18,2.6-.76.15-.2.58-.25.89-.25,1.76,0,3.51.06,5.27.05.42,0,1,0,1.22-.27.69-.88,1.56-.74,2.49-.75,1.45,0,3.06.62,4.26-.86.15-.19.68-.11,1-.11,1.44,0,2.88,0,4.32,0,.33,0,.82-.09,1-.31.58-.86,1.37-.81,2.23-.78,1.52.06,3,.08,4.56.07.38,0,1,0,1.12-.25.68-1,1.65-.75,2.59-.75,3.8,0,7.61-.18,11.39,0a6.93,6.93,0,0,1,3.53,1.68,35.9,35.9,0,0,1,3.92,3.88,6.37,6.37,0,0,1,.81,1.53c.07.14.06.33.15.45,1,1.31,2,2.57,2.93,3.93.71,1.06,1.24,2.23,1.89,3.34,1.14,2,1.75,4.22,3.37,6,1.16,1.27,1.79,3,2.78,4.47,1.19,1.77,1.56,4,3.23,5.54a11.11,11.11,0,0,1,1.6,2.88c.32.57.66,1.12,1,1.68.67,1.14,1.37,2.26,2,3.41.77,1.39,1.2,2.93,2.41,4.12a12,12,0,0,1,1.55,2.85c.34.62.77,1.18,1.12,1.79.68,1.18,1.34,2.38,2,3.57a3.33,3.33,0,0,0,.42.82c1.86,1.77,2.56,4.19,3.61,6.4a1.35,1.35,0,0,0,.32.5c1.5,1.13,2,2.89,2.69,4.48a1.76,1.76,0,0,0,.38.6c1.42,1.15,1.89,2.84,2.62,4.41a39.76,39.76,0,0,0,2.12,3.38c.64,1.07,1.21,2.18,1.8,3.29.14.27.14.67.35.86,1.92,1.82,2.73,4.26,3.73,6.59a1.11,1.11,0,0,0,.34.48c1.51,1.08,1.89,2.85,2.66,4.37a2.09,2.09,0,0,0,.46.69c1.4,1.17,1.92,2.84,2.56,4.45a7.44,7.44,0,0,0,1.23,2.25,2.91,2.91,0,0,1,.67,2.42,8.57,8.57,0,0,0,0,1.68c.25,1.83-.85,3.17-1.79,4.46a10.31,10.31,0,0,1-2.56,1.78c-.88.61-1.8,1.16-1.64,2.52A23.34,23.34,0,0,1,162,121c0,.3-.05.74-.25.88-1,.72-.79,1.71-.83,2.71a6.45,6.45,0,0,1-.58,1.68c-.15.46-.52,1.07-.36,1.37.66,1.19,1.52,2.26,2.25,3.4,1,1.52,1.87,3.07,2.8,4.61a4.25,4.25,0,0,0,.27.52c1,1.31,1,1.3-.21,2.47-.89.88-1.64,2-3.22,1.56-.22-.06-.54.28-.82.39-.53.2-1.07.36-1.6.55l-1.47.57c-.42.17-.83.52-1.26.53-1.16.05-2.33-.32-3.3.83-.27.32-1.22,0-1.84.11a13.63,13.63,0,0,0-1.69.6,6.63,6.63,0,0,1-1.64.47,9.57,9.57,0,0,0-2.64.61c-1.3.41-2.55,1-3.86,1.31-1.12.25-2.39-.23-3.28.92-.09.12-.37.1-.57.12s-.25-.06-.35,0a26.88,26.88,0,0,0-4.4,1.41,3.08,3.08,0,0,1-2,.55,2.21,2.21,0,0,0-2.46.78s-.06.07-.1.07c-1.45.39-3,.66-4.36,1.19A36,36,0,0,1,120,152.6c-.1,0-.17.25-.24.25-1.6,0-2.83,1.09-4.33,1.34-.08,0-.17,0-.24,0l-4.31,1.58c-.07,0-.11.14-.18.16-1.41.4-2.83.8-4.25,1.18-.07,0-.18-.05-.23,0a19.25,19.25,0,0,1-4.24,1.56c-.1,0-.16.24-.24.24-1.57,0-2.84,1-4.31,1.36a14.93,14.93,0,0,0-1.59.55c-.07,0-.13.17-.17.16-1.6-.21-2.77,1-4.23,1.27a8.6,8.6,0,0,0-1.59.56c-.07,0-.1.14-.17.16-1.6.43-3.21.85-4.81,1.29-.69.18-1.37.45-2.07.58-1.43.28-2.71,1-4.08,1.39-1.06.32-2.31-.27-3.29.86-.28.33-1.22,0-1.84.12a9.79,9.79,0,0,0-1.7.59c-.11,0-.16.21-.26.23l-4,1.17c-.11,0-.25-.07-.35,0l-4.34,1.61a5.15,5.15,0,0,1-1.29.43,12.27,12.27,0,0,0-2.27,0c-1.57.45-2.63-.73-3.82-1.22-.71-.29-.95-1.7-1.4-2.61-.2-.41-.42-.82-.63-1.22,0-.07-.14-.11-.16-.18-.41-1.45-.78-2.92-1.22-4.36s-1-2.92-1.49-4.37c0-.14-.33-.25-.32-.34.27-1.6-1.11-2.73-1.22-4.22,0-.08.05-.17,0-.23-.53-1.44-1.17-2.85-1.59-4.33-.36-1.29-1.46-2.18-1.46-3.76,0-1.37-.92-2.75-1.46-4.12-.1-.25-.5-.5-.46-.66.36-1.36-.55-2.31-1-3.39-.16-.36-.39-.68-.55-1A17.19,17.19,0,0,1,41.13,131c-.25-1.5-1.27-2.47-1.57-3.82,0-.1-.21-.16-.24-.27-.42-1.45-.83-2.9-1.24-4.36,0-.11.07-.27,0-.35a16,16,0,0,1-1.34-3.75c-.47-1.46-1.91-2.57-1.66-4.34a.72.72,0,0,0-.19-.55c-.78-.66-.58-1.66-.89-2.4-.52-1.24-.79-2.55-1.28-3.76-.67-1.62-2-3-1.64-5a1.22,1.22,0,0,0-.14-.81c-.56-1-1.17-1.92-1.72-2.9a5.62,5.62,0,0,1-.24-1c-.18-.57-.38-1.12-.58-1.68,0-.07-.16-.12-.15-.17.12-1.57-.89-2.8-1.23-4.24s-1-3-1.45-4.51c-.43-1.34-1.4-2.37-1.64-3.93a20.74,20.74,0,0,0-1.29-4c-.53-1.38-1.53-2.49-1.71-4.12a21.47,21.47,0,0,0-1.11-3.57A18.28,18.28,0,0,1,19,69a10.29,10.29,0,0,0-1.47-2.87c-.13-.24-.52-.48-.48-.65.34-1.4-.65-2.36-1.06-3.51-.09-.26-.25-.49-.33-.75a7.77,7.77,0,0,1-.59-2.06c-.05-.85.06-1.65-.73-2.28-.25-.19-.3-.71-.31-1.08,0-2.44,0-4.88,0-7.32,0-.31,0-.78.14-.91,1.39-1.07.77-2.55.88-3.88a7.46,7.46,0,0,1,.54-1.59c.16-.47.53-1,.43-1.4-.45-1.83.87-3,1.47-4.46A29.49,29.49,0,0,1,19,33.32c.34-.61.71-1.21,1.1-1.79.18-.26.55-.44.62-.71.66-2.52,3-3.67,4.46-5.5a23,23,0,0,0,1.73-2.6.65.65,0,0,0-.17-.62c-.94-.52-.89-1.37-.71-2.2.27-1.23-.46-2-1.22-2.68a1,1,0,0,0-.94.25,27.59,27.59,0,0,1-1.13,2.92,18.23,18.23,0,0,1-2.59,4,14.09,14.09,0,0,1-4,2.45c-1.1.54-2.14,1.62-3.61,1.16a.27.27,0,0,0-.22.07c-1.51,1.75-3.55.53-5.3.92-.29.06-.74-.26-1-.52C4.87,27.35,3.72,26.17,2.57,25c-.09-.09-.21-.16-.24-.26a40.71,40.71,0,0,1-1.24-4.67c-.14-.86.1-1.72-.78-2.35a1.36,1.36,0,0,1-.3-1c0-3.16,0-6.32,0-9.47,0-.34.07-.83.29-1A2,2,0,0,0,1,4a2,2,0,0,1,.76-2.12,14,14,0,0,0,1-1,2.16,2.16,0,0,1,3.56.22A32.06,32.06,0,0,1,7.91,4.22,11,11,0,0,0,9,5.89.67.67,0,0,0,9.64,6a31.59,31.59,0,0,0,3.12-2.24c1.15-1,2.21-1.1,3.25-.1,1.21,1.14,1.28,2.25.24,3.4-.06.06-.17.11-.17.17.05,1.5-.8,2.74-1.21,4.11-.15.52-.39,1-.57,1.55-.12.32-.39.83-.27,1a10.2,10.2,0,0,0,1.54,1.22,4.69,4.69,0,0,1,.5-1.06,16.3,16.3,0,0,1,1.68-1.84c.29-.27.9-.26,1.12-.55a9.51,9.51,0,0,1,4.48-3.23c1.25-.42,2.2-1.89,3.79-1.26A.54.54,0,0,0,27.59,7c1.61-1.76,3.7-.69,5.54-.8.93-.06,2,.88,2.9,1.55a13.19,13.19,0,0,1,3.73,4.68c0,.07.12.16.1.21-.54,1.49.83,2.45,1.08,3.72.07.34.69.73,1.1.79A14.64,14.64,0,0,0,44.43,17.22ZM41.75,29c-1.47-.1-3,1-2.91,2.11.09,1.48-.59,3.16.87,4.4.1.08.11.29.15.44.31,1.18,1.43,2.11,1,3.5,0,.11.16.27.24.4l1.65,3c.38.68,1.09,1.4,1,2a4.47,4.47,0,0,0,.93,2.93A9.2,9.2,0,0,1,45.88,50c.36,1.16,1.41,2.11,1.06,3.5,0,.17.33.42.46.66.51,1,1.48,2,1.38,2.88-.18,1.58.95,2.48,1.35,3.71.51,1.54,2,2.72,1.72,4.6a.56.56,0,0,0,.12.33c.88,1.48,2.18,2.8,1.92,4.75a.41.41,0,0,0,.07.23c1,1.45,2.11,2.84,1.9,4.78,0,.1.08.22.14.33,1.14,2.12,2.81,4,2.88,6.61a.78.78,0,0,0,.14.33c.58,1,1.18,1.92,1.71,2.92.15.29.06.7.15,1a9.93,9.93,0,0,0,.51,1.51c.12.29.42.52.47.81.22,1.2,1.47,2.08,1.07,3.49,0,.15.24.39.35.6.54,1,1.1,2.06,1.61,3.1s1.39,2,1,3.4c0,.06,0,.14.09.21.84,1.46,2.14,2.73,1.86,4.65,0,.13.12.29.2.42.87,1.41,2.09,2.68,1.84,4.55a.6.6,0,0,0,.09.34l2.06,4.06c.77,1.5,2.15,2.75,1.82,4.67a.65.65,0,0,0,.13.33c1,1.42,2.13,2.73,1.88,4.65,0,.24.35.51.49.78a21,21,0,0,1,1.52,3,2.45,2.45,0,0,0,2.58,1.94c.76,0,1.52.06,2.27,0,.38,0,.92-.05,1.09-.29.57-.75,1.3-.6,2.06-.62a3.09,3.09,0,0,0,1.88-.4,3.31,3.31,0,0,1,2.16-.72c1.57-.23,3.1-.68,4.64-1,.1,0,.17-.19.27-.23.68-.24,1.34-.52,2-.69,1.55-.37,3.11-.68,4.67-1,.13,0,.22-.25.36-.3.59-.24,1.25-.74,1.77-.63,1.84.41,3.1-1.47,4.88-1.12.1,0,.23-.23.37-.29a14.5,14.5,0,0,1,1.92-.66c1.55-.36,3.12-.66,4.68-1,.13,0,.23-.24.37-.29a16,16,0,0,1,1.91-.66c.67-.16,1.59,0,2-.34a3.45,3.45,0,0,1,2.05-.66c1.64-.3,3.24-.79,4.85-1.21.1,0,.16-.2.26-.24q2.34-.81,4.7-1.58a2.85,2.85,0,0,1,.71,0c.4,0,1,.1,1.15-.11.92-1.12,2.18-.63,3.27-.9a38.81,38.81,0,0,0,4-1.37,6.41,6.41,0,0,1,2.18-.58c.61,0,1.43,0,1.79-.35a2.87,2.87,0,0,1,2.4-.73,4.81,4.81,0,0,0,1.78-.37c1.42-.51,2.77-1.41,4.21-1.57a7.82,7.82,0,0,0,4.43-2.09,1.72,1.72,0,0,0,.53-1.34,13.92,13.92,0,0,0-.92-2.33c-.66-1.6-1.21-3.26-2.64-4.4a1.4,1.4,0,0,1-.38-.59,10,10,0,0,0-2.58-4.42,1.51,1.51,0,0,1-.4-.59c-.69-1.62-1.23-3.32-2.7-4.47a1.36,1.36,0,0,1-.37-.61,9.48,9.48,0,0,0-2.53-4.33,1.61,1.61,0,0,1-.41-.58c-.7-1.61-1.21-3.33-2.68-4.49a1,1,0,0,1-.32-.49A9.62,9.62,0,0,0,139.53,74a1.31,1.31,0,0,1-.34-.49c-.73-1.64-1.24-3.41-2.76-4.58a1.36,1.36,0,0,1-.35-.61,9.49,9.49,0,0,0-2.46-4.23,1.56,1.56,0,0,1-.43-.56c-.69-1.72-1.32-3.46-2.82-4.69-.16-.13-.16-.44-.28-.65q-1.08-1.93-2.18-3.85c-.29-.51-.6-1-.9-1.5-.76-1.21-1.53-2.42-2.29-3.64-.24-.39-.46-.81-.67-1.21-.58-1.08-1.06-2.21-1.73-3.22-.93-1.39-2-2.7-3-4a1.4,1.4,0,0,1-.15-.33,10.07,10.07,0,0,0-2.7-4.5c-.21-.18-.26-.55-.4-.83-.45-1-.68-2.14-1.39-2.8-1.84-1.7-2.24-4.13-3.53-6.09-.94-1.43-1.87-2.88-2.8-4.32A17.81,17.81,0,0,1,107,19.69,2.61,2.61,0,0,0,104.29,18c-1.6,0-3.2,0-4.8,0-.36,0-.88-.09-1,.1-1.16,1.44-2.72.72-4.12.86a5.39,5.39,0,0,0-1.3.44,9.89,9.89,0,0,1-1.79.66c-1.31.2-2.82-.51-3.88.89-.11.16-.53.12-.8.12-1,0-2.08-.09-3.11-.09-.39,0-1,0-1.12.22-.75,1.06-1.79.84-2.82.82s-2.16,0-3.23,0a5.28,5.28,0,0,0-1.22.34,11.3,11.3,0,0,1-1.92.62c-.9.13-2.2-.29-2.66.19-1.29,1.32-2.75.72-4.14.87-.43.05-1,0-1.22.3-.64.77-1.38.71-2.26.69-1.52,0-3.21-.65-4.46.9-.16.19-.68.12-1,.12-1.08,0-2.16-.08-3.23-.05a1.6,1.6,0,0,0-1.07.4A2.12,2.12,0,0,1,51,27c-.61,0-1.46-.07-1.79.28a3.31,3.31,0,0,1-2.51.8c-1.48.13-3.13-.64-4.38.83C42.19,29.09,41.74,29,41.75,29ZM69.94,153.92c0,.79,0,1.23,0,1.66,0,1,1.74,3.62,2.71,3.69a9.32,9.32,0,0,0,3.24-.33c1.43-.44,2.75-1.54,4.17-1.62,1.64-.09,2.71-1,4-1.58a14.28,14.28,0,0,1,1.41-.43l4.24-1.24c.06,0,.1-.14.17-.16.59-.23,1.24-.72,1.78-.62,1.68.3,2.77-.91,4.15-1.35.68-.22,1.36-.46,2-.63s1.38-.18,2-.4c1.49-.52,2.95-1.12,4.43-1.69a.37.37,0,0,1,.23,0c1.73.53,3-.7,4.25-1.38a4.06,4.06,0,0,1,2.2-.6c.57,0,1.37.08,1.69-.25a3.07,3.07,0,0,1,2.4-.72,8.71,8.71,0,0,0,2-.65c1.36-.44,2.73-.86,4.09-1.31.64-.21,1.27-.43,1.9-.67.25-.1.49-.41.71-.38,1.77.24,3-1.07,4.41-1.61,1.21-.45,2.21-1.26,3.66-1.41,1.2-.11,2.41-.93,3.75-1.21,1-.22,1.93-1.13,2.9-1.7a1.39,1.39,0,0,1,.81-.14c2.33.29,4.06-.84,5.62-2.35,1.12-1.09,2.2-2.21,3.29-3.33a4.83,4.83,0,0,0,.65-.84c.89-1.46,1.85-2.89,2.59-4.42a41.39,41.39,0,0,0,1.58-4.24s0-.08,0-.12a1.59,1.59,0,0,1,.59-1.79c.64-.57.67-2.73.07-2.81a7.91,7.91,0,0,0-3.63.22,8.86,8.86,0,0,1-2,.66c-1.6.24-3.17.68-4.75,1.06-.14,0-.22.25-.36.3-1.41.53-2.82,1-4.25,1.55-.13.05-.34-.1-.46,0a17.31,17.31,0,0,1-4.2,1.41c-.62.12-1.19.58-1.79.6-1,0-2-.13-2.71.85-.18.25-.8.16-1.2.27-1.39.37-2.77.77-4.14,1.17-.07,0-.11.13-.18.16-1.52.54-3,1.1-4.57,1.61s-2.95.91-4.43,1.36c-.64.2-1.28.43-1.93.59s-1.37.22-2,.39-1.35.49-2,.67-1.37.24-2,.4-1.21.42-1.83.55-1.51-.05-1.91.31a3.23,3.23,0,0,1-2.62.85c-1.16-.07-2.32-.07-3.48-.06-.34,0-.85,0-1,.22-.61.87-1.41.7-2.26.65a5,5,0,0,0-3.46.81,14.27,14.27,0,0,1-3.62,1.22c-1.13.34-2.54-.28-3.47,1-.13.17-.6.1-.91.12s-.77-.13-.93,0a50.07,50.07,0,0,0-5.48,5.62c-.57.76-1.08,1.67-1.7,2.47a20,20,0,0,0-1.57,2.31c-.43.74-.71,1.56-1.16,2.29C70.63,150.57,69.47,152.15,69.94,153.92ZM43,68.18a7.79,7.79,0,0,0-3.73.65,16,16,0,0,0-5.08,4.75c-.9,1.23-1.92,2.34-2.84,3.53a3.44,3.44,0,0,0-.55,1.49,4,4,0,0,0,0,1.55c.34,1.55.75,3.09,1.15,4.62,0,.14.25.22.31.36.55,1.4,1.09,2.8,1.61,4.22.06.16-.07.39-.07.58a1.46,1.46,0,0,0,.08.7,20.46,20.46,0,0,1,1.6,2.73c.49,1.3.5,2.78,1.38,4,.07.09-.09.33,0,.47.42,1.4,1.24,2.68,1.29,4.2,0,.06.13.1.16.17a4.56,4.56,0,0,1,.58,1.25c.12.78.61,1.12,1.23.9.4-.14.71-.69.91-1.13s-.12-.73,0-1.06c.45-1.62.88-3.26,1.46-4.83a24.48,24.48,0,0,1,1.62-3.24,18.85,18.85,0,0,1,2.06-3.41c.66-.76,1.8-1.07,2.58-1.75a7.6,7.6,0,0,1,3-2,2,2,0,0,0,1.13-1.14c.09-.24-.46-.71-.68-1.1A1,1,0,0,1,52,84c.34-1.65-1.07-2.6-1.55-3.92a27.87,27.87,0,0,1-1.34-4.16c-.29-1.46-1.27-2.46-1.58-3.8-.11-.51-.48-1-.48-1.5a2.38,2.38,0,0,0-2.51-2.5Zm21.37,49.93c-2.2-.1-3.51,1-4.84,2-.63.47-1.06,1.36-1.74,1.61-1.26.45-1.73,1.35-2.42,2.37-1.27,1.86-3.34,3.08-4.27,5.29a6.42,6.42,0,0,0,.09,3.76,46.55,46.55,0,0,1,1.7,4.4c0,.1-.07.25,0,.35a16.33,16.33,0,0,1,1.33,4.22s.07,0,.08.08a6.33,6.33,0,0,1,.59,1.8c0,1-.16,1.92.79,2.6a1,1,0,0,1,.28.75,17.05,17.05,0,0,1,0,2.86c0,.36-.51.94-.78.94-1.16,0-1.21.63-1.3,1.53-.14,1.34.77,1.94,1.6,2.58a1.24,1.24,0,0,0,1.18-.07c.81-.7,1.9-1.32,1.4-2.75-.08-.23.12-.6.25-.87.59-1.17,1.17-2.36,1.83-3.5s1.45-2.31,2.18-3.47l.73-1.19c.84-1.4,1.14-3.1,2.52-4.2.76-.6,1.67-1.18,1.64-2.37,0-.12.18-.34.28-.34,1.39-.06,2-1.26,2.85-2a3.63,3.63,0,0,0,.7-3.71c-.85-1.55-2.12-2.91-2-4.87,0-.1-.08-.22-.13-.33a39.56,39.56,0,0,1-2.7-6C65.79,118,65.14,118,64.39,118.11Zm-18.46,5.43c0,.37-.13.63,0,.76a11.13,11.13,0,0,0,1.42,1.84,3.47,3.47,0,0,0,1.19-.85,17.75,17.75,0,0,0,3-3.9c.59-1.13.8-1.65-.2-2.45a1.13,1.13,0,0,1-.34-1,25.89,25.89,0,0,1,2.08-3.21,17.68,17.68,0,0,1,2-2,5.68,5.68,0,0,1,1.65-1.36,13.74,13.74,0,0,0,4.85-3c.43-.4.49-.65.14-1.19-.65-1-1.1-2.14-1.72-3.16a4.81,4.81,0,0,1-1-3.26c0-.14-.26-.3-.33-.48a5.58,5.58,0,0,1-.54-1.68c0-.88-2.23-3.56-3.1-3.58a.72.72,0,0,0-.36,0,13.8,13.8,0,0,0-3,1.92c-1.48,1.55-3.13,2.88-4.2,4.92-.82,1.58-1.93,3.05-2.72,4.72a17.35,17.35,0,0,1-2.07,3.25c-.6.76-1.14,3.17-.66,4,.85,1.46,2.13,2.74,1.87,4.65,0,.21.32.44.42.69C44.87,120.67,45.42,122.18,45.93,123.54ZM38.54,61a2.49,2.49,0,0,0,3.36-1.25,2.24,2.24,0,0,0-.54-2.93c-.26-.23-.27-.78-.35-1.19s.09-.79-.08-1q-1.43-2.15-3-4.2A1.08,1.08,0,0,0,37,50.3c-.54.87-1.3.81-2.12.65a2.32,2.32,0,0,0-2.32.84,12.16,12.16,0,0,1-2,1.28,2.47,2.47,0,0,0-.63.73,11.88,11.88,0,0,1-.8,1.5c-.88,1.06-2,1.87-2.5,3.28a4.6,4.6,0,0,0-.7,2.61c0,.26-.29.65-.54.87-.82.72-.76,1.35,0,2.12a3.26,3.26,0,0,1,.52,1.35c.44,1.47.84,3,1.3,4.44a6.11,6.11,0,0,0,.75,1.54c.24.34.65.75,1,.76A1.59,1.59,0,0,0,30,71.58a22.31,22.31,0,0,0,1.22-2.06l.86-1.5a32.55,32.55,0,0,1,2-3.43A16.23,16.23,0,0,1,36.71,62,9.07,9.07,0,0,1,38.54,61ZM19.91,52.57c-.11,1.22-.52,2.65,1.49,2.75.12,0,.25.19.34.32.56.82,1,.52,1.47-.11a35.34,35.34,0,0,1,2.71-3.66c1.58-1.69,3-3.62,5.35-4.37,1.23-.4,2.1-1.62,3.69-1.35.56.1,1.34-.82,1.94-1.36.07-.07-.4-.72-.6-1.11-.11-.21-.16-.44-.26-.66-.5-1.07-1.32-2-1.06-3.38,0-.15-.31-.36-.39-.57a3.93,3.93,0,0,1-.48-1.59c.12-1.34-.89-1.9-1.7-2.38a1.93,1.93,0,0,0-2.5.43c-1.12,1.2-2.31,2.33-3.46,3.51a4.49,4.49,0,0,0-.53.76c-.34.56-.54,1.29-1,1.66a8.92,8.92,0,0,0-2.79,4.07c-.45,1.18-1.81,2.15-1.21,3.69a.5.5,0,0,1-.15.43C19.66,50.39,19.76,51.46,19.91,52.57ZM11.12,15.84h0c0-1.28,0-2.56,0-3.84a3.15,3.15,0,0,0-.46-1c-.3.15-.71.22-.88.46-.65.89-1.19.71-1.84,0Q6.5,9.89,5,8.37A1,1,0,0,0,4.17,8c-.19.05-.27.48-.38.75-.18.42-.37.83-.53,1.26a5.57,5.57,0,0,0-.45,1.4,17.69,17.69,0,0,0,0,2.52c.12,1.6-.65,3.37.88,4.71.07.06,0,.26.07.34.88,1.05,1.58,2.45,2.71,3,2.35,1.21,4.66-.54,4.61-3.22C11.11,17.84,11.12,16.84,11.12,15.84Zm16.73-6c-.14.08-.88.25-1,.59A2.22,2.22,0,0,0,27.35,12,19,19,0,0,0,29,13.71a1.14,1.14,0,0,0,1.92,0,3.06,3.06,0,0,1,1.23-.63c1.28-.41,2.49-1.94,1.88-2.56A10.76,10.76,0,0,0,31.31,9c-.06,0-.25.08-.3.16C30.35,10.39,29.26,10,27.85,9.86Z"></path><path d="M95.84,180.37a17.47,17.47,0,0,0-2.39-.12,6.53,6.53,0,0,0-1.6.53,3.41,3.41,0,0,1-1.07.37c-2.76,0-5.52-.06-8.27,0a4.68,4.68,0,0,0-1.67.65c-.17.08-.28.29-.45.39-.63.36-3.4-1.36-3.4-2.09,0-1.19,0-2.39,0-3.59,0-.65.15-1,.89-1.16.43-.07.8-.45,1.24-.6,1.45-.5,2.92-1,4.39-1.43.53-.18,1-.4,1.59-.54a5.23,5.23,0,0,1,1.67-.34,2.58,2.58,0,0,0,2.4-.72,1.73,1.73,0,0,1,1.18-.41c3.43,0,6.89-.23,10.3,0a5.74,5.74,0,0,1,4.16,2.42c.51.73.11,3-.57,3.66-1,.91-1.71,2.23-3.39,1.73a.54.54,0,0,0-.34.08,10.84,10.84,0,0,1-2.15,1,11.66,11.66,0,0,1-2.51,0Z"></path><path d="M116,163.27c1.3,0,2.6-.21,3.56,1.12.48.68.63,1.14,0,1.74s-1,1.32-1.72,1.63c-.85.37-2.09.79-2.76.43a10.32,10.32,0,0,1-3-2.82c-.41-.53,1.24-2.07,2.17-2.09C114.8,163.26,115.4,163.27,116,163.27Z"></path><path d="M84.17,40.49c.66-.33,1.31-.68,2-1a3.37,3.37,0,0,1,1.19-.41c4,0,8.08,0,12.12,0,0,0,.09,0,.12,0a32.81,32.81,0,0,0,4.31,1.61c1.26.53,2.76.85,3.67,1.75s1.18,2.41,1.79,3.63a3.75,3.75,0,0,0,.84.85c.17.17.43.31.49.52a41.31,41.31,0,0,1,1.17,4.5c.15.89,0,1.72.77,2.5a2,2,0,0,1-.08,2.54,2.67,2.67,0,0,0-.62,1.67c.35,1.74-.71,3-1.42,4.27a29,29,0,0,1-6.2,7.29,9.13,9.13,0,0,1-1.49.88,4.18,4.18,0,0,0-1,.63C100.64,73,99,73.41,97.59,74.18c-.93.5-1.73,1.07-2.84.84a.37.37,0,0,0-.32.12c-1.07,1.49-2.66,1-4.09,1-1.59,0-3.19,0-4.79,0-1.08,0-2.2.15-2.91-1a.51.51,0,0,0-.42-.21,3.48,3.48,0,0,1-2.92-.89c-.27-.2-.74-.13-1-.33-1.71-1.31-3.45-2.58-5-4s-2.93-3-4.43-4.39A2.2,2.2,0,0,1,68,63.27a2.31,2.31,0,0,0-.71-2.49c-.27-.21-.3-.79-.33-1.2a19.83,19.83,0,0,1,0-2c0-.35,0-.86.21-1,1.07-.79.85-1.86.84-2.94a3.49,3.49,0,0,1,.45-1.39c.5-1.1,1-2.18,1.56-3.26a4.17,4.17,0,0,1,.62-1,32,32,0,0,1,3.15-3.12,19.24,19.24,0,0,1,3.06-1.68c1.79-.93,3.57-1.89,5.39-2.76A6.31,6.31,0,0,1,84,40.1Zm1,20.76-.28-.11c.17-.3.27-.69.53-.87,1.07-.77,2.17-1.48,3.29-2.17a.71.71,0,0,1,.66.1,18.05,18.05,0,0,1,1.46,1.69c.75,1,1.45,2,2.21,3,.09.12.45.24.51.18a7.24,7.24,0,0,0,1.49-1.65c.16-.29-.2-.91-.42-1.34-.5-1-1.1-2-1.59-3s-.74-1.87-1.18-2.77c-1-1.95-2-3.84-2.91-5.8-.83-1.8-2-1.94-3.48-.71s-1.76,2.86-1.55,4.68a1.68,1.68,0,0,1-.33,1.29c-.75.6-.62,1.34-.74,2.14a43.72,43.72,0,0,1-1.13,4.72c-.06.22-.5.35-.57.58-.13.45-.34,1.06-.15,1.39,1.17,2,2.31,2.11,3.7.29A4.91,4.91,0,0,0,85.18,61.25Zm8-10.79.07-.16c.24,0,.52.05.7-.06a2.75,2.75,0,0,0,1.17-.92,1.25,1.25,0,0,0-.46-1.16,2.92,2.92,0,0,0-1.53.14c-.2,0-.39.27-.53.45-.26.36-.48.75-.71,1.12Z"></path><path d="M88.08,54.62a2.73,2.73,0,0,1-.07.82c-.09.22-.38.55-.5.52a1.16,1.16,0,0,1-.63-.55,1.18,1.18,0,0,1,0-.81,14.77,14.77,0,0,1,.56-1.38l.89,1.25Z"></path></svg>