<svg xmlns="http://www.w3.org/2000/svg" id="Layer_1" data-name="Layer 1" viewBox="0 0 158.08 196.19"><title>AsimovMarketingIcon-bt-omar bahaa</title><path d="M156.15,168c0,1.92,0,3.84,0,5.76,0,.31,0,.76-.14.92-1.63,1.4-.76,3.27-1,4.93a9.36,9.36,0,0,1-.55,1.7c-.13.4-.42.82-.37,1.2.34,2.25-.81,4-1.62,6-.94,2.27-2.8,3.5-4.26,5.18-.11.12-.2.29-.34.33-1.51.44-3,.86-4.55,1.27-.3.08-.78,0-.89.18-.67,1-1.63.76-2.59.75-2.11,0-4.23,0-6.35.05-.31,0-.79,0-.91-.13-.72-1.05-1.72-.73-2.71-.71-2.8,0-5.6,0-8.4,0a1.42,1.42,0,0,1-1-.33c-.68-.92-1.59-.86-2.58-.82-1.87.07-3.75,0-5.63,0-.27,0-.67,0-.78-.2-.75-1.09-1.81-.75-2.83-.75-3.08,0-6.16,0-9.24,0-.31,0-.76,0-.89-.23-.82-1.18-2-.92-3.16-.92l-10.07,0c-.27,0-.68,0-.79-.15-.72-1.05-1.74-.72-2.72-.7-1.48,0-3,0-4.44,0a1.29,1.29,0,0,1-.88-.28c-.7-1-1.68-.82-2.69-.85a5.67,5.67,0,0,1-1.79-.61c-.18-.07-.37-.34-.49-.3-1.46.44-2.4-.76-3.6-1.12a1.87,1.87,0,0,1-.82-.45,10.25,10.25,0,0,0-4.3-2.55,3.93,3.93,0,0,1-1.24-.92c-1.33-1.32-2.63-2.68-3.94-4-.08-.09-.21-.16-.24-.26-.4-1.4-.78-2.81-1.16-4.22,0-.1.08-.26,0-.35a10.6,10.6,0,0,1-1.33-3.87c-.06-.62-1-.48-1.63-.15-1.72.86-2.9,2.48-4.46,3.38s-2.62,2.38-4.1,3.06-2.49,2.3-3.91,3c-1.66.78-2.62,2.4-4.11,3.06S34.36,186,33,186.64c-2.23,1-3.62,2.88-5.4,4.35A10.74,10.74,0,0,1,25,192.18c-.15.06-.37,0-.45.14-.92,1.13-2.18.9-3.41,1a2.47,2.47,0,0,1-2.35-.82,1.13,1.13,0,0,0-1-.32,2.1,2.1,0,0,1-2.19-.85c-1.28-1.33-2.68-2.54-3.87-3.93a32.32,32.32,0,0,1-2.56-3.76c-.15-.23-.06-.61-.09-.93s0-.87-.16-1c-1.07-.81-.78-1.91-.78-3,0-1.72,0-3.44,0-5.16,0-.34,0-.84-.25-1C7,171.85,7,171,7.07,170c.07-2.16,0-4.32,0-6.48,0-.31,0-.78-.19-.9-1.14-.78-.78-1.89-.77-3,0-2,0-4.07,0-6.11,0-.34-.05-.84-.26-1-1-.72-.87-1.67-.8-2.69.09-1.43.06-2.88,0-4.32,0-.34,0-.84-.27-1-1-.68-.78-1.62-.76-2.58,0-2.52,0-5,0-7.56,0-.3,0-.76-.23-.88-1.1-.7-.92-1.74-.9-2.78,0-1.76,0-3.52,0-5.28,0-.34,0-.84-.24-1-.92-.66-.79-1.55-.75-2.48.06-1.52.06-3,.05-4.56,0-.34-.06-.82-.29-1-.9-.66-.8-1.54-.77-2.48.07-1.84,0-3.68,0-5.52,0-.27,0-.68-.14-.8-1.32-.93-.68-2.31-.89-3.51A5.82,5.82,0,0,1,2.85,97.9c.13-.09.22-.28.36-.31C5.79,96.9,6.94,94.48,8.83,93a10.68,10.68,0,0,1,1.41-.79,4.86,4.86,0,0,0,1-.62c1.38-1.34,2.68-2.75,4.1-4a14,14,0,0,1,2.17-1.33,4.23,4.23,0,0,0,.75-.57c1.25-1.24,2.48-2.49,3.73-3.74.19-.19.43-.51.64-.5,1.24,0,1.79-.93,2.51-1.63,1.4-1.37,2.72-2.82,4.16-4.15a17.25,17.25,0,0,1,2.25-1.44,4.59,4.59,0,0,0,.72-.6c1.25-1.24,2.48-2.49,3.72-3.74.11-.12.22-.3.35-.33,2.31-.4,3.2-2.59,4.84-3.82.78-.58,1.64-1,2.45-1.57a4.59,4.59,0,0,0,.72-.6L49,58.8a5.76,5.76,0,0,1,3.46-.62.73.73,0,0,1,.33.32c.43,1,.81,2,1.26,2.91a3,3,0,0,0,.64.84c1.09,1.11,2.24,2.17,3.29,3.33a5.94,5.94,0,0,1,1,1.8c.45,1.17,2.59,3,3.66,2.87a2.13,2.13,0,0,0,1.26-.49c.49-.51.81-.51,1.25,0s.93,1,1.39,1.49c.11.11.33.26.31.35-.45,1.87,1.69,3.09,1.21,5-.12.48.46,1.09.55,1.67.22,1.49,1.06,2.79,1.33,4.21.21,1.06-.22,2.24.88,3a.62.62,0,0,1,.16.55,2.56,2.56,0,0,0,.82,2.47c.27.3.08,1,.2,1.47s.25,1,.56,1.15A1.78,1.78,0,0,0,73.85,91c1.15-.53,2.28-1.14,3.41-1.72a2.52,2.52,0,0,0,.79-.49,9,9,0,0,1,4.41-3.26c1.84-.56,2.64-2.07,4-3.11.59-.47,1.36-.73,2-1.21.92-.75,2.16-1.45,2.54-2.44a12,12,0,0,1,2.29-3.14,14.4,14.4,0,0,0,1-1.79c.1-.17.18-.35.29-.52.82-1.17,1.67-2.33,2.46-3.53a1.3,1.3,0,0,0,.19-.9,2.09,2.09,0,0,1,.67-1.93,2.48,2.48,0,0,0,.33-1.54c0-.92-.21-1.82.73-2.5.23-.17.24-.73.24-1.11,0-1.47,0-2.95-.07-4.43,0-.72.24-1.14,1-1.22a1.87,1.87,0,0,0,.88-.31,3.77,3.77,0,0,1,4.14-.09c1,.6,2.18.92,3.18,1.52a26.6,26.6,0,0,1,2.17,1.83c.55.42,1.18.72,1.77,1.09a5.84,5.84,0,0,1,1.09.71c1.38,1.33,2.74,2.69,4.09,4,.22.23.55.51.54.77,0,1.23,1,1.72,1.61,2.54,1.25,1.74,2.42,3.53,3.61,5.31.74,1.1,1.5,2.19,2.17,3.33s1.13,2.21,1.71,3.31c.2.38.41,1,.73,1a1.65,1.65,0,0,0,1.24-.41,10.23,10.23,0,0,0,3.29-5.08.6.6,0,0,1,.09-.22c1.13-1.5,2.19-3.06,3.41-4.48s2.51-1.09,3.06.65c.38,1.24,1.74,2.18,1.21,3.72-.05.15.18.42.32.61s.37.25.41.42a45.52,45.52,0,0,1,1.16,4.6c.14.85-.07,1.7.75,2.38.29.24.26.95.25,1.45,0,1.46-.35,3,1.23,4,.07,0,.11.14.18.16,1.41.4,2.83.79,4.24,1.2a3.47,3.47,0,0,1,1.46.57c.87.88,2,1.57,2.23,3,.1.55.9,1,1.36,1.46a7.84,7.84,0,0,1,2.51,6.25,5.55,5.55,0,0,0,.59,1.9,3.18,3.18,0,0,1,.25,1c0,2.76-.05,5.52-.06,8.28,0,.38,0,.93.27,1.11,1,.77.85,1.79.85,2.83,0,8.08,0,16.16,0,24.24a1.51,1.51,0,0,1-.32,1.07,2.38,2.38,0,0,0-.82,2.25c0,5.27.07,10.55.1,15.83,0,.24,0,.59-.1.69-1.29,1-.72,2.33-.76,3.54s0,2.48,0,3.72ZM20,172.31a2.34,2.34,0,0,0,2.62-1,5.37,5.37,0,0,1,1.31-1,10.46,10.46,0,0,0,1.38-.82c.89-.81,1.69-1.7,2.56-2.53a5.92,5.92,0,0,1,1-.66,18.4,18.4,0,0,0,1.77-1.06c.74-.57,1.39-1.28,2.14-1.86.51-.39,1.18-.58,1.66-1,1-.9,1.79-2.35,3-2.74,2.08-.71,3-2.49,4.56-3.71.22-.17.43-.5.65-.5,1.12,0,1.65-.85,2.32-1.51,1-1,2-2,3-3a6.06,6.06,0,0,1,1.08-.7,12.3,12.3,0,0,0,1.58-.92c.77-.61,1.44-1.36,2.21-2,.54-.42,1.26-.61,1.77-1.06.85-.72,1.58-1.59,2.39-2.36a5.39,5.39,0,0,1,1-.63,12.48,12.48,0,0,0,1.59-.93c.8-.65,1.5-1.44,2.3-2.08s1.47-.85,2.11-1.39,1.3-1.42,2-2a12.85,12.85,0,0,1,2.61-1.73,2.56,2.56,0,0,0,1-4.2,3.67,3.67,0,0,1-.4-1.3c-.38-1.42-.76-2.84-1.15-4.26a.37.37,0,0,0-.16-.17,2,2,0,0,1-.74-2,3.13,3.13,0,0,0-.29-1.92,3.49,3.49,0,0,1-.67-2c-.27-1.64-.77-3.25-1.19-4.86,0-.11-.18-.17-.22-.28-.55-1.43-1.14-2.86-1.62-4.33a5.36,5.36,0,0,1,0-1.43c0-.27,0-.68-.12-.8-1.15-.9-.57-2.2-.87-3.26-.39-1.36-1.06-2.67-1.38-4.09-.15-.65-.62-1.32-.54-1.93.22-1.87-1.59-3.13-1.33-5,0,0-.12-.1-.15-.17-.56-1.43-1.13-2.86-1.66-4.31-.07-.2.09-.48,0-.71-.34-1.55-.71-3.1-1.09-4.65,0-.1-.14-.19-.24-.26-.71-.51-.62-1.25-.73-2-.22-1.61-.68-3.19-1.06-4.78a.52.52,0,0,0-.23-.26c-.74-.52-.59-1.26-.69-2A46.61,46.61,0,0,0,52,69.42a.35.35,0,0,0-.16-.18,2.07,2.07,0,0,1-.75-2.14c0-.32.17-.7,0-.94-.38-.71-.86-1.37-1.31-2a15.22,15.22,0,0,0-1.33.94c-.69.61-1.24,1.63-2,1.82-1.35.34-2,1.32-2.92,2.15S42,70.63,41.16,71.4a5.22,5.22,0,0,1-1,.58,5.76,5.76,0,0,0-1.29.73C37,74.58,35.08,76.5,33.18,78.4c-.22.22-.48.55-.74.57-1.28.08-1.9,1.06-2.68,1.83-1.2,1.18-2.37,2.38-3.56,3.57-.25.25-.56.64-.83.64-1.15,0-1.66.83-2.33,1.48-1,1-2,2-3,3-.19.2-.42.49-.64.5-1.19.07-1.79,1-2.52,1.69-1.39,1.38-2.55,3.26-4.22,4-2.07,1-3.14,2.73-4.75,4a5.79,5.79,0,0,0-1.19,1.18c-.67,1-1.27,2-1.86,3.08a1.65,1.65,0,0,0,0,.71c0,1.44.06,2.88,0,4.31,0,1-.09,1.82.81,2.47.22.16.28.64.28,1,0,1.88,0,3.76-.06,5.64,0,.94-.1,1.82.8,2.47.22.15.27.65.26,1,0,2.52,0,5-.1,7.55,0,.95-.08,1.82.85,2.45.22.14.29.64.29,1,0,2.52-.05,5,0,7.56a4.05,4.05,0,0,0,.41,1.18,7.79,7.79,0,0,1,.58,1.68,19.45,19.45,0,0,1-.07,2.64c0,1.1-.25,2.24.88,3,.19.14.22.59.22.89,0,2.6,0,5.2-.07,7.8a2.43,2.43,0,0,0,.74,2.26,1.6,1.6,0,0,1,.3,1.1c0,2.07-.09,4.15-.08,6.23a1.7,1.7,0,0,0,.39,1.18,2.15,2.15,0,0,1,.71,2.15,2.26,2.26,0,0,0,.72,2.38c.23.17.17.72.27,1.09.17.55.31,1.54.55,1.57a4.58,4.58,0,0,0,2.44-.33,6.3,6.3,0,0,0,1.66-1.71A2.12,2.12,0,0,1,20,172.31Zm40-.21c.3,1.59-.74,3.37.83,4.74.12.1.1.38.1.58,0,.74.46,1,1.11,1,1,0,2,0,3,0a4.29,4.29,0,0,0,1-.37,14.7,14.7,0,0,1,1.81-.59c.6-.13,1.34.06,1.84-.22,1.45-.8,2.74-2,4.58-1.77a.41.41,0,0,0,.33-.12c1-1.55,3-.69,4.32-1.77.91-.74,2.16-1.64,3.66-1.25.16,0,.4-.35.63-.49s.6-.45.83-.39c1.68.47,2.61-1.08,4-1.46a20.15,20.15,0,0,0,3.12-1.62c1.58-.77,3.36-1.24,4.74-2.27,1.86-1.4,4.18-1.48,6.09-2.61,1-.57,2-1,3-1.48s1.87-1.16,2.87-1.61c2.19-1,4.51-1.75,6.26-3.53a2.25,2.25,0,0,1,.81-.5,10.76,10.76,0,0,0,4-2.28,17.94,17.94,0,0,1,2.31-1.35c1.43-1,2.81-2.1,4.22-3.15.12-.09.31-.09.44-.16a7.57,7.57,0,0,0,1.5-.85c.9-.79,1.7-1.69,2.57-2.52a5.87,5.87,0,0,1,1-.65c.5-.3,1.14-.46,1.48-.88.94-1.14,1.77-2.37,2.61-3.6a1.51,1.51,0,0,0,.12-.81c0-1.36-.12-2.72,0-4.07a9,9,0,0,1,.65-1.76,2,2,0,0,0,0-1.08c-.17-.6-.54-1.15-.66-1.76-.41-1.94.83-4.15-.92-5.91-.11-.11-.07-.38-.06-.58,0-1.12.08-2.24,0-3.36a4.24,4.24,0,0,0-.4-1.3c-.53-1.42-1.07-2.82-1.6-4.23,0,0,0-.08,0-.12a11.87,11.87,0,0,1,.06-2.39c.42-1.89-1.67-3.12-1.23-5,0-.07-.17-.18-.21-.28a18.9,18.9,0,0,1-.6-1.94c-.12-.57.12-1.42-.19-1.72a3.3,3.3,0,0,1-.86-3.06,3.6,3.6,0,0,0-.48-1.4c-.15-.39-.38-.75-.49-1.15a29.34,29.34,0,0,0-1.32-4.54c-.37-.77-.45-1.55-.73-2.24a18.23,18.23,0,0,1-1.29-3.88,4,4,0,0,0-.66-1.33c-.66-1-1.34-2-1.09-3.37,0-.11-.19-.24-.26-.38-.24-.48-.47-1-.7-1.45-.1-.2-.23-.57-.34-.57-1.14,0-2.56-.38-3.36.15a4.49,4.49,0,0,1-2.87.71,24,24,0,0,0-3.6,0,2.48,2.48,0,0,1-2.51-1.24c-.25-.33-.23-.86-.46-1.21a7,7,0,0,0-1.32-1.5c-.07-.07-.64.54-1,.74s-.78.31-1,.18a1.57,1.57,0,0,1-.56-1c-.06-1.6,0-3.2,0-4.8,0-.44-.19-1.08,0-1.28,1.7-1.57,1.22-3.1.16-4.75-.26-.41,0-1.3-.83-1.1-.28.07-.36,1-.5,1.47,0,.14.13.36.07.46a13.66,13.66,0,0,0-1.27,3.74,13.16,13.16,0,0,1-1.67,3.07,26.29,26.29,0,0,1-2.71,4.35C95.77,82,93,84.7,90.2,87.44a4.6,4.6,0,0,1-.76.55c-.72.46-1.47.87-2.15,1.38a24,24,0,0,1-2,1.68c-.93.55-2,.84-3,1.33-1.66.85-3.28,1.79-4.94,2.64a12.4,12.4,0,0,1-2.44,1c-1,.29-1.48,1.19-.68,1.9a2.15,2.15,0,0,1,.7,2.13,2.26,2.26,0,0,0,.68,2.29c.28.24.24.86.36,1.3l1.17,4.16a.4.4,0,0,0,.16.18,2,2,0,0,1,.68,2,3.26,3.26,0,0,0,.39,2A2.24,2.24,0,0,1,79,114a2.23,2.23,0,0,0,.72,2.48c.26.19.21.79.32,1.2.37,1.4.75,2.8,1.14,4.19,0,.1.21.16.25.26a6.43,6.43,0,0,1,.57,1.7c.07,1-.28,2,.75,2.72.23.16.12.74.23,1.11.41,1.46.84,2.91,1.26,4.36,0,0,.07.06.08.09a19.41,19.41,0,0,1,.61,1.92c.12.57-.11,1.43.21,1.71,1.06.93.68,2.1.87,3.2a5,5,0,0,1-2.05,5,5.8,5.8,0,0,0-2.15,2.75c-.28.89-1.06,1.6-.81,2.71,0,.21-.27.56-.48.78-.81.83-1.63,1.66-2.47,2.45a4.78,4.78,0,0,1-.89.56,11.48,11.48,0,0,0-1.48.87c-.79.65-1.49,1.43-2.3,2.06-.63.49-1.43.76-2,1.26-1.87,1.49-3.68,3-5.53,4.56a2.35,2.35,0,0,1-.42.21,16.69,16.69,0,0,0-2,1.18c-.63.49-1.12,1.15-1.72,1.67a1.86,1.86,0,0,0-.77,2c.08.34-.24.78-.39,1.17a7.14,7.14,0,0,0-.52,1.49C59.94,170.42,60,171.27,60,172.1ZM25.37,186.44c.83.32,1.56-.35,2.3-1.17a14,14,0,0,1,2-1.81c.64-.49,1.37-.86,2-1.31.26-.18.47-.6.71-.61,1.45,0,2-1.3,2.94-2.07.36-.31.69-.85,1.08-.91,1.75-.24,2.47-1.77,3.65-2.71a22.87,22.87,0,0,1,4.53-3.28,11.72,11.72,0,0,0,3.05-2.34c.47-.42.88-.93,1.35-1.36a6.26,6.26,0,0,1,.9-.57,13.62,13.62,0,0,0,1.46-.9c.7-.59,1.25-1.64,2-1.81,1.63-.37,2.37-1.66,3.47-2.58a8.41,8.41,0,0,1,1-.68c.55-.34,1.15-.6,1.66-1,.78-.6,1.47-1.32,2.26-1.92.54-.42,1.22-.65,1.76-1.07.81-.63,1.53-1.39,2.33-2,.51-.4,1.15-.63,1.66-1,.78-.6,1.48-1.32,2.27-1.91.54-.41,1.24-.62,1.78-1,1-.79,1.64-2,3.12-2.27.54-.09,1.12-.81,1.4-1.39a1.48,1.48,0,0,0-.39-1.38c-2.57-1.38-2.59-1.35-4.13-3.19,0,0-.07-.06-.08-.09a4.57,4.57,0,0,1-.39-1.31,3.27,3.27,0,0,0-1.79-2.68,1.2,1.2,0,0,0-1,.18,23.32,23.32,0,0,1-4.08,3.31c-1.88,1.06-3.07,3.13-5.23,4.15-1.82.87-2.77,3-4.85,3.88-1.44.62-2.24,2.54-4.05,2.9-2.32,2.9-5.64,4.68-8.21,7.3-.44.46-.88,1.15-1.41,1.25-1.62.31-2.39,1.63-3.48,2.57a5.25,5.25,0,0,1-.77.53,11.86,11.86,0,0,0-1.76,1c-.85.73-1.58,1.59-2.39,2.36a4.22,4.22,0,0,1-1,.6,7.44,7.44,0,0,0-1.42.77c-.92.83-1.74,1.77-2.63,2.62a4.52,4.52,0,0,1-1,.62,8.16,8.16,0,0,0-1.29.74c-1.09.93-1.79,2.39-3.49,2.51-.22,0-.46.32-.62.54-.8,1.06-1.51,2.18-2.37,3.18-.49.57-.38.83.1,1.26.77.68,1.45,1.5,2.26,2.13A7.35,7.35,0,0,0,25.37,186.44Zm110.2-20.32.19.38,1.4-.7a12.8,12.8,0,0,1,2.91-1.46c1.11-.24,1.25-.69,1.11-1.64-.06-.41.25-.87.39-1.3a11.64,11.64,0,0,0,.63-1.92c.18-1.23-.6-2.66.84-3.62.16-.11.14-.52.14-.79,0-2.56,0-5.11.06-7.67a2.22,2.22,0,0,1,.5-1.16,2.38,2.38,0,0,0-.08-3.14,1.18,1.18,0,0,1,0-1.87,2.19,2.19,0,0,0,.52-1.36c0-4.92,0-9.84,0-14.76a2.34,2.34,0,0,0-.79-2.23,1.66,1.66,0,0,1-.35-1.19c0-2.8.06-5.59.08-8.39,0-.27,0-.67-.18-.79-1.1-.76-.87-1.86-.84-2.93s.06-2.07,0-3.11c0-.38,0-.94-.27-1.1-.94-.63-.79-1.52-.86-2.44-.1-1.47.75-3.14-.83-4.34-.13-.1-.11-.45-.1-.69,0-2.56,0-5.12.12-7.67,0-1,.1-1.82-.83-2.45-.22-.15-.27-.65-.28-1,0-1.08.06-2.16.08-3.23,0-.35.05-.87-.14-1a2.73,2.73,0,0,1-.89-2.67c0-.27-.63-.78-1-.84s-.79.34-1,.67c-.44.57-.72,1.25-1.11,1.86-.26.4-.8.72-.85,1.12a3.16,3.16,0,0,1-1.59,2.27c-.69.47-.63.87,0,1.4A8.75,8.75,0,0,1,134,87.92a9.91,9.91,0,0,0,1.18,1.83,2.6,2.6,0,0,1,1,2.52,2.51,2.51,0,0,0,.32,1.77,2.43,2.43,0,0,1,.61,1.94c0,1.26-.54,2.65.85,3.63.22.16.15.74.19,1.13.15,1.35-.61,2.9.88,4,.15.11.11.52.11.8,0,1,0,1.92,0,2.88,0,1.16-.37,2.41.88,3.26.18.12.17.59.18.9,0,.88,0,1.76,0,2.64,0,1.22-.52,2.58.83,3.51.14.09.14.45.13.68,0,2.88,0,5.76-.09,8.64,0,.94-.12,1.82.79,2.47a1.37,1.37,0,0,1,.3,1c0,6.12,0,12.23-.11,18.35,0,1.34-1.27,2.49-1.08,4,0,0,0,.07-.07.09-.86.86-.88,2.56-2.59,2.58,0,0-.05.05-.08.07-2,1.65-3.48,3.79-5.9,5.09-2,1.08-3.75,2.69-5.85,3.76-1.78.91-3.41,2.11-5.15,3.12s-3.27,1.82-5,2.65-3.33,1.54-5,2.28c-2,.91-4.1,1.8-6.16,2.7-.71.32-1.44.63-2.14,1a9.42,9.42,0,0,0-1,.67c.41.23.9.74,1.21.65,1.3-.4,2.54-1,3.8-1.49l4.17-1.62a.17.17,0,0,1,.12,0,1.87,1.87,0,0,0,2.1-.78.78.78,0,0,1,.62-.29c1.82.26,3-1.18,4.43-1.69a15.61,15.61,0,0,1,3.75-1.15c1.62-.09,2.61-1.14,3.92-1.63a35,35,0,0,1,4.23-1.41,34.53,34.53,0,0,0,3.81-1.59A15.12,15.12,0,0,0,135.57,166.12ZM112.49,73l.22.41,1.48-.76a8,8,0,0,1,.82-.44c.37-.16.77-.26,1.16-.39a9.8,9.8,0,0,0-.75-1.11c-.73-.83-1.55-1.6-2.24-2.45A20,20,0,0,0,112,66.45a1.72,1.72,0,0,0-1.45-.39c-.3.1-.55.82-.57,1.27-.08,2-.08,3.91-.08,5.87a3,3,0,0,0,.33,1c.33-.15.66-.29,1-.46S112.07,73.26,112.49,73ZM99.5,179.5v-.05a3.34,3.34,0,0,0,1,0c.26-.09.67-.37.65-.53s-.3-.74-.52-.77a8.93,8.93,0,0,0-2.13,0c-.17,0-.43.38-.43.59a.82.82,0,0,0,.43.61A4,4,0,0,0,99.5,179.5Z"></path><path d="M75.1,6.35l3.73-4.44c.15-.18.33-.48.5-.49,1.54,0,2.77-1.17,4.2-1.3C85.87-.09,88.24,0,90.6.05a2,2,0,0,1,.81.1c1.44.71,2.9,1.37,4.25,2.2A5.43,5.43,0,0,1,97,4c.22.32.27.84.55,1,2.42,1.65,1.29,4.13,1.44,6.27a3.88,3.88,0,0,1-1,2.17c-1.93,2.47-3.33,5.39-6,7.24a14.27,14.27,0,0,1-2.39,1.16,16.11,16.11,0,0,0-2.9,1.27c-1.07.75-2.26,1.51-2.6,3a1.14,1.14,0,0,1-.28.64C82.52,27.66,83,29,83,30.19c0,.36.53.73.73,1.14A1.94,1.94,0,0,1,84,32.51,1.1,1.1,0,0,1,83,33a10,10,0,0,1-2-.55A10.34,10.34,0,0,1,80,32c-.35-.17-.83-.27-1-.56-1.08-1.62-2.26-3.23-1.89-5.36a.92.92,0,0,1,.22-.54,2.24,2.24,0,0,0,.86-2.43c0-.3.27-.73.54-1a48.9,48.9,0,0,1,4.36-4.28,37.51,37.51,0,0,1,4.44-2.7,2.09,2.09,0,0,0,.67-.48c1-1.44,2.19-2.79,2-4.74-.12-1.13.51-2.5-.87-3.23A20.65,20.65,0,0,0,85.57,5c-.45-.13-1.11.38-1.66.62-.18.07-.36.34-.49.3C82,5.56,81,6.74,79.78,7a1.69,1.69,0,0,0-.63.31C77.64,8.51,76.34,8.25,75.1,6.35Z"></path><path d="M81.88,46.27a13.23,13.23,0,0,1-2.76-.76c-1.44-.74-1-2.22-1-3.44,0-1,2.42-2.93,3.42-2.9.4,0,.8,0,1.2,0A2.36,2.36,0,0,1,85,41.35c0,1.15,0,2.31,0,3.47,0,.94-.36,1.32-1.28,1.26-.6,0-1.2,0-1.8,0Z"></path><path d="M91.11,125.21c-2.53.59-4.15-.71-6-2.33-2.39-2.13-3.52-4.42-3.11-7.62a44,44,0,0,0,.06-5.63,1,1,0,0,1,0-.24c.54-1.42,1-2.87,1.64-4.23.74-1.52,1.67-3,2.53-4.42a3.81,3.81,0,0,1,.57-.75c.87-.89,1.71-1.81,2.64-2.63A8.3,8.3,0,0,1,94,95.25c1.45-.19,2.77-1.18,4.22-1.57a6.23,6.23,0,0,1,3.4-.22,9.23,9.23,0,0,1,4.46,3.37c.94,1.29,2.11,2.54,1.91,4.36,0,.19,0,.48.12.57,1.25.86.77,2.13.81,3.28,0,.92,0,1.84.08,2.76,0,0,0,.08,0,.12a41.92,41.92,0,0,1-1.55,4.23,19.38,19.38,0,0,1-2.6,4.43,72.5,72.5,0,0,1-6.5,6.5,15.64,15.64,0,0,1-3.7,1.93,2.32,2.32,0,0,1-.91.19C92.87,125.23,92,125.21,91.11,125.21Zm-1.11-11-.16,0c.13.3.2.77.43.87s.66-.14.88-.35c.39-.39,1-.95,1-1.3-.36-1.67.67-2.16,1.85-2.79.58-.31.92-.46,1.26.1a15.91,15.91,0,0,1,.7,1.57,9,9,0,0,0,.5.82A10.84,10.84,0,0,0,98,111.84c.21-.27.3-1,.12-1.17a2.78,2.78,0,0,1-1-2.75c0-.22-.28-.46-.37-.72-.48-1.39-1.82-2.38-1.68-4.13,0-.6-.89-1.28-1.38-1.93a4.94,4.94,0,0,0-1.21,1,5.53,5.53,0,0,0-.45,1.51c-.14.47-.29.94-.46,1.4a12.24,12.24,0,0,0-.61,1.69c-.3,1.64.81,3.52-.88,4.92-.12.09-.08.38-.09.57C90,112.9,90,113.58,90,114.25Z"></path></svg>