<svg xmlns="http://www.w3.org/2000/svg" id="Layer_1" data-name="Layer 1" viewBox="0 0 112.66 138.62"><title>AsimovMarketingIcon-bt-omar bahaa</title><path d="M66.18,0h4.55c.28,0,.64,0,.81.13,1,1,2.31.71,3.54.71,2.28,0,4.56,0,6.84-.06a1.72,1.72,0,0,1,.94.1c2.36,1.52,5,.58,7.47.79.5,0,1,.13,1.5.22A11.27,11.27,0,0,0,94,2.35c3.23,0,6.47-.08,9.7-.13a1.11,1.11,0,0,1,.69.16c1.47,1.25,3.21.87,4.83.68a2.9,2.9,0,0,1,3.1,1.77A4.36,4.36,0,0,1,112.4,8a6,6,0,0,0-.64,2.83c.08,1.27.08,2.55.1,3.83a1.55,1.55,0,0,1-.16.93c-.86,1-.67,2.14-.63,3.3.07,2.2.07,4.4.09,6.6a1,1,0,0,1,0,.47c-1.44,2.68-.42,5.56-.69,8.33,0,.39,0,.9-.18,1.15a4.44,4.44,0,0,0-.74,3.29c0,2.16,0,4.32.08,6.48,0,.2.06.44,0,.59-1.5,2.63-.37,5.48-.74,8.2a19.9,19.9,0,0,1-.56,2.11,5.81,5.81,0,0,0-.33,1.37c0,2.24.07,4.48.1,6.72a1.76,1.76,0,0,1,0,.83c-1.5,2.8-.33,5.81-.7,8.69-.1.76-.34,1.5-.51,2.24a4.86,4.86,0,0,0-.23,1c0,2.08,0,4.16,0,6.24,0,.35.11.84-.08,1-1.32,1.48-.76,3.26-.84,4.93-.05,1.12,0,2.24.08,3.36,0,.23.08.53,0,.7-1.55,2.49-.44,5.24-.8,7.83-.13.91-.4,1.8-.61,2.71a4.22,4.22,0,0,0-.22,1c.06,2.32.15,4.63.24,7,0,1-.86,1.8-2.19,2.17a42.16,42.16,0,0,1-4.31,1.36c-2,.32-3.58,2.12-5.81,1.89-.48,0-1,.42-1.52.66-.25.12-.48.36-.74.38-2.44.17-3.2,2-3.79,3.9-.06.19-.23.41-.18.56.53,1.69-.67,3.05-.9,4.59-.07.52-1,1-1.59,1.31a13.61,13.61,0,0,1-2.69.77c-1.31.27-2.63.45-3.93.73-1.86.41-3.7.87-5.54,1.32a37.37,37.37,0,0,0-4.07,1,24.19,24.19,0,0,1-4.45.89,41.83,41.83,0,0,0-4.81,1.41l-4.69,1.4a1.13,1.13,0,0,1-.46.1c-2.1-.3-3.81.83-5.67,1.43-1,.33-2.2.11-3.12.88-.11.09-.46-.06-.66-.16-4.92-2.5-9.85-5-14.74-7.51-4.46-2.32-8.88-4.7-13.33-7a2,2,0,0,1-1.23-2.11c.07-.76.09-1.52.11-2.28.05-2,.07-2.17-1.85-2.82-2.65-.9-3.95-2.31-3.54-5.35a52.62,52.62,0,0,0,0-7.43c0-.16-.05-.35,0-.47,1.41-2.31.6-4.83.69-7.25.12-3.51,0-3.49-3.37-4.34a6.25,6.25,0,0,1-2.17-.91A3.24,3.24,0,0,1,2.51,88c0-.63,0-1.28.11-1.91a2.32,2.32,0,0,0-.86-2.24c-.25-.2-.47-.43-.7-.65-1.45-1.4-1.38-1.75,0-3.21a50.12,50.12,0,0,1,7.41-6,15.81,15.81,0,0,0,3.38-3.8c.92-1.29,1.76-2.23,3.59-2a7,7,0,0,0,4.43-.55c1.15-.6,2.59-.62,3.85-1a8.52,8.52,0,0,1,3.8-.67c.35,0,.72-.3,1.09-.42A12.57,12.57,0,0,1,30,65.18c.19,0,.42.08.6,0,1.41-.4,2.81-.83,4.21-1.26.08,0,.14-.1.21-.11,1.57-.3,3.13-.57,4.69-.89a21,21,0,0,0,2-.57c.22-.07.41-.26.64-.31,1.21-.24,2.44-.46,3.66-.68a2.14,2.14,0,0,0,1.78-2.22c0-2-.09-4.08-.12-6.12,0-.35-.07-.81.11-1,1.55-2.05.64-4.4.85-6.61A18.41,18.41,0,0,1,49,43.45a5.39,5.39,0,0,0,.25-1.15c0-2.4-.09-4.8-.12-7.19a1.46,1.46,0,0,1,.18-.92A4.17,4.17,0,0,0,50,31c-.05-2-.05-3.92-.06-5.88a1.37,1.37,0,0,1,.07-.71c1.52-2.29.44-4.83.75-7.23a20.5,20.5,0,0,1,.46-2,7.1,7.1,0,0,0,.31-1.48c0-1.6-.09-3.2-.07-4.8A4,4,0,0,1,56,4.62c.8,0,1.6,0,2.4.08A2.19,2.19,0,0,0,60.8,2.28C60.71.6,61.43-.1,63.06,0A7.93,7.93,0,0,0,63.9.1h2.28Zm40.66,14.15h0a33.47,33.47,0,0,0,0-3.47A2.69,2.69,0,0,0,106,8.94,6.36,6.36,0,0,0,102,7.5c-2.57,0-5.26.8-7.72-.69-.24-.15-.63-.06-1-.06-.84,0-1.68,0-2.52,0-1.87,0-1.86.05-2,1.92s.71,4-.75,5.78c-.15.17-.08.54-.07.81q0,4.08.11,8.16c0,1.34.33,2.73-.71,3.89-.13.15-.11.46-.11.69,0,2.4.1,4.8.12,7.19a1.84,1.84,0,0,1-.23,1.14,3.15,3.15,0,0,0-.65,2.57c.08,1.32.12,2.64.11,4a6.14,6.14,0,0,1-.36,1.35,21.92,21.92,0,0,0-.54,2.23c-.42,2.89,1,6-.81,8.74a1,1,0,0,0,0,.47c0,2.32,0,4.63.1,6.95a3.88,3.88,0,0,1-.61,2.94c-.21.26-.16.77-.16,1.16,0,1.43.08,2.88,0,4.31a2.63,2.63,0,0,0,1.52,2.58,12.16,12.16,0,0,1,2.89,2.61c1.6,1.91,3,4,4.58,5.9.79,1,2,1.63,1.86,3.16,0,.16.16.35.27.52.77,1.25-.17,3.89-1.57,4.38-1.75.61-3.53,1.16-5.25,1.86-.72.3-1.89.95-1.87,1.4a7.11,7.11,0,0,1-.94,4.08c-.09.14,0,.39,0,.59.06,2.27.14,4.55.18,6.83a1.64,1.64,0,0,1-.21,1,4,4,0,0,0-.69,3.16c.06,1.11,0,2.24,0,3.35-.07,1.61.85,2.22,2.34,1.51.4-.18.81-.53,1.19-.5,1.68.14,3-.86,4.51-1.26s2.76-.64,4.08-1.11c.69-.25,1.76-.84,1.76-1.28,0-1.72.82-3.27.92-4.9.16-2.51,0-5-.06-7.56,0-1.31-.16-2.63.82-3.75.22-.24.14-.76.18-1.15.18-2.26-.65-4.62.64-6.79a1.5,1.5,0,0,0,0-.71c0-2.59-.11-5.19-.13-7.79a5.19,5.19,0,0,1,.28-1.13,22.34,22.34,0,0,0,.55-2.25c.34-2.39-.82-4.94.81-7.2.12-.17.07-.47.07-.71,0-2.59-.09-5.19-.11-7.79A1.92,1.92,0,0,1,103.1,57a3.62,3.62,0,0,0,.59-2.59c.07-2.38-.76-4.88.84-7.09.12-.16.08-.46.08-.7,0-1.28-.12-2.56,0-3.83.14-2-.68-4.15.57-6.07.1-.14,0-.39,0-.59,0-2.6-.09-5.2-.1-7.79a5.68,5.68,0,0,1,.27-1.26,14.59,14.59,0,0,0,.57-2.23c.2-2.17-.69-4.47.84-6.49.12-.16.07-.46.08-.7Zm-21.5-2.29h0c0-1.72,0-3.44,0-5.16,0-1-.37-1.54-1.51-1.45a5.69,5.69,0,0,1-1.7-.41,7.54,7.54,0,0,0-1.71-.39c-2.24,0-4.48.06-6.72.07a2,2,0,0,1-1.14-.23,4.12,4.12,0,0,0-3-.65c-1.15.06-2.31,0-3.47,0-1.5,0-1.85.26-1.67,1.72a4,4,0,0,1-.62,3.39,1.81,1.81,0,0,0-.26,1.14c0,2.32.09,4.64.09,7a5.53,5.53,0,0,1-.34,1.36,14.43,14.43,0,0,0-.45,1.92c-.29,2.72.83,5.57-.77,8.18a1,1,0,0,0-.05.59c0,1.56.13,3.11.13,4.67A7.19,7.19,0,0,1,61.8,35a19.5,19.5,0,0,0-.53,2.26c-.36,2.83.77,5.79-.65,8.55a1.71,1.71,0,0,0,0,.72c0,2.64,0,5.27,0,7.91,0,1.2.15,2.39-.75,3.4-.22.25-.19.76-.2,1.15a14,14,0,0,1,0,2.51c-.44,2.15.58,3.33,2.42,4.06.37.14.76.22,1.13.35a28.7,28.7,0,0,1,4,1.46,5.83,5.83,0,0,0,4,.82,1.77,1.77,0,0,1,1,.11c1.94.83,3.87,1.68,5.78,2.57.83.39,1.62.76,2.47.13a2.82,2.82,0,0,0,1-2.51c0-1.9-.76-3.91.65-5.67a1.33,1.33,0,0,0,.11-.81c0-2.4,0-4.8-.14-7.19,0-1.18-.16-2.31.71-3.29a1.48,1.48,0,0,0,.19-.91c0-2.68-.06-5.36-.11-8,0-1.14-.25-2.31.67-3.29.2-.21.15-.69.14-1,0-3.12-.09-6.24-.1-9.35A4.72,4.72,0,0,1,84,27.8a23.7,23.7,0,0,0,.64-2.58c.35-2.56-.72-5.26.7-7.74.11-.18,0-.47,0-.71Zm-3.6,86.69-.26-.07c0-.68,0-1.36,0-2,0-1.31-.43-1.85-1.73-1.62a28.24,28.24,0,0,0-4,1.28,4.45,4.45,0,0,0-1.07.53.77.77,0,0,0,.1,1.42c.35.13.79,0,1.16.08a16.05,16.05,0,0,1,1.63.62c-.24.59-.32,1.38-.75,1.73a19.47,19.47,0,0,1-3.49,2.26,43.77,43.77,0,0,1-4.19,1.71c-2.36.92-4.69,1.94-7.11,2.69a48.72,48.72,0,0,0-8.87,3.43,11.94,11.94,0,0,1-1.22.49,18,18,0,0,0-2.81,1.19,3.46,3.46,0,0,0-1.68,3.3c0,2,.79,4.22-.67,6.13-.16.22-.09.63-.08.94,0,1.2.13,2.4.09,3.6-.06,1.68.4,3.4-.43,5.07-.2.38.29,1.19.63,1.7.09.14.76-.08,1.16-.17,1.3-.29,2.59-.59,3.88-.91.34-.09.65-.29,1-.41a8.75,8.75,0,0,1,1.23-.38c1.56-.36,3.13-.67,4.68-1.06s3.21-.84,4.81-1.29c.3-.08.57-.28.87-.37.48-.14,1-.22,1.46-.35s1.11-.3,1.66-.47c.33-.11.65-.28,1-.36.82-.22,1.64-.41,2.46-.59.34-.07.7-.09,1-.16.49-.09,1-.2,1.46-.33s.74-.29,1.12-.38c1.28-.33,2.59-.57,3.85-1,.28-.09.41-.75.52-1.18s.06-.94.14-1.4c.17-.91.48-1.8.57-2.71.24-2.28-.73-4.71.89-6.83a1.21,1.21,0,0,0,.1-.7c0-2.84-.06-5.68-.08-8.51a5.22,5.22,0,0,1,.08-1.19C81.1,101,81.43,99.78,81.74,98.55ZM45,93.8l-.35-.12c0-.32.05-.64.06-1a5,5,0,0,0,0-1,.87.87,0,0,0-1.49-.62c-1,.73-2,1.47-2.91,2.24-2.92,2.39-5.81,4.8-8.73,7.18a2.32,2.32,0,0,1-3.67-.7c-.89-1.63-1.58-1.73-2.88-.42-1.49,1.5-2.83,3.19-4.94,3.88-.9.29-1,.89-1,1.76,0,2,.67,4-.57,5.81a1.58,1.58,0,0,0-.1.82c0,1.56.09,3.12.09,4.68a2.66,2.66,0,0,1-.28,1.25c-1.55,2.65-.61,4.63,1.54,5.67.88.42,1.87.59,2.76,1q4.53,2,9,4.12c2.91,1.36,5.79,2.79,8.7,4.16a.92.92,0,0,0,1.43-.73,5,5,0,0,0,0-1c0-2-.67-4.14.71-6,.17-.22.11-.62.1-.94,0-1.68-.11-3.36,0-5,.09-1.87-.63-3.84.68-5.58.16-.2,0-.62,0-.94.17-2.21-.71-4.51.65-6.64.22-.34.08-.93.08-1.41,0-2.16-.1-4.32-.13-6.47a2.57,2.57,0,0,1,.18-.81C44.29,96,44.65,94.88,45,93.8Zm6.33-10.15-.1-.33c-1.29.44-2.62.78-3.86,1.34-.91.41-.89,1.14-.32,2,1.87,2.76,3.67,5.58,5.53,8.36a31.33,31.33,0,0,0,2.34,3.15c.94,1.08,1.53,1.08,2.71.34a3.18,3.18,0,0,1,1-.41c1.19-.26,2.41-.37,3.56-.74C65.49,96.27,68.74,95,72.09,94c2.28-.68,4.41-2,6.91-1.93a.93.93,0,0,0,.54-.23c1.65-1.44,3.89-1.21,5.76-2a5,5,0,0,1,2.21-.72c1.82.21,3-1.13,4.58-1.52.61-.15.89-.61.49-1.19a22.18,22.18,0,0,0-1.84-2.46c-2.52-2.81-5.09-5.59-7.62-8.39a1.22,1.22,0,0,0-1.87-.22,4.53,4.53,0,0,1-1.55.47c-.42.09-.87.08-1.27.2-1.52.47-3,1-4.55,1.45-.74.24-1.5.47-2.26.65-1.53.35-3.08.64-4.61,1-1,.21-1.92.41-2.85.69-2.22.68-4.42,1.41-6.64,2.11-.22.07-.48,0-.71,0-.53.12-1.07.23-1.58.4C53.93,82.72,52.64,83.19,51.34,83.65ZM17.51,73.21c-1.07.57-2.21,1.11-3.27,1.78A23.51,23.51,0,0,0,12,76.76c-1.83,1.47-3.7,2.88-5.45,4.43-1,.88-.77,1.64.36,2.33q3.48,2.1,6.88,4.32c2.94,1.91,5.83,3.89,8.75,5.83,1.65,1.1,3.3,2.2,5,3.25a1.32,1.32,0,0,0,1.08.09,7,7,0,0,0,1.82-1.14c3.09-2.82,6.14-5.67,9.2-8.53.67-.62,1.29-1.3,2-1.94,1.22-1.17,1.15-1.79-.44-2.53-1.83-.84-3.7-1.6-5.57-2.37-2.54-1-5.09-2-7.63-3.08-.63-.26-1.21-.61-1.84-.86C24.06,75.74,22,75,19.94,74.15Zm52.74,3.38v.08a6.23,6.23,0,0,0,1.06-.09c1.11-.25,2.22-.51,3.31-.83.25-.08.62-.43.59-.6a1.28,1.28,0,0,0-.55-.9c-1.32-.54-2.68-1-4-1.45-3.42-1.24-6.83-2.5-10.25-3.72a12.34,12.34,0,0,0-3.39-1,8.36,8.36,0,0,1-3.07-.61c-1.81-.79-2.75,0-2.57,1.94a7,7,0,0,1-.45,1.75c-.11.5-.33,1.35-.15,1.47a25.62,25.62,0,0,0,3.44,1.71c.49.21,1.16.08,1.56.36a26.05,26.05,0,0,1,3.88,3.11c.8.85,1.34,1.4,2.43.52.23-.18.68-.09,1-.13A9.05,9.05,0,0,0,64.77,78c1.52-.41,3-.9,4.53-1.33A5.89,5.89,0,0,1,70.25,76.59Z"></path><path d="M12.51,33c.15-1.65-.38-3.39.8-4.86a18.87,18.87,0,0,1,1.82-2.06C17,24.31,18.58,22.34,20.84,21a4.78,4.78,0,0,0,2.35-4.9.88.88,0,0,1,0-.36c.6-2.45-1.07-3.85-2.73-4.81-1-.58-2.65-.37-3.88,0a18.4,18.4,0,0,0-4.09,2,14.48,14.48,0,0,0-2.07,1.6C9.7,15.08,9,15.78,8,15a2.42,2.42,0,0,1-.92-2.85A9.05,9.05,0,0,1,11,7.65a6,6,0,0,0,1-.79,5,5,0,0,1,4.08-1.33,1.88,1.88,0,0,0,1.14-.19,6.31,6.31,0,0,1,6.13-.09c.57.28,1.36,0,2,.28,2.67,1,5.14,2.27,6.39,5.05a4.76,4.76,0,0,1,.47,1.91c0,2.29,0,4.39-1.39,6.64a32,32,0,0,1-6,7.68c-1.48,1.31-3.14,2.43-4.57,3.79a7.74,7.74,0,0,0-1.75,2.67c-.71,1.74.2,3.15,1.25,4.48.27.34.7.92.58,1.14a1.82,1.82,0,0,1-1.19.81,6.89,6.89,0,0,1-6.52-3.18,2.78,2.78,0,0,1-.19-1.16C12.49,34.57,12.51,33.77,12.51,33Z"></path><path d="M20.05,45.72a5.52,5.52,0,0,1,1.57.87,19.61,19.61,0,0,1,2.07,2.9,1.78,1.78,0,0,1,0,1.34,7.34,7.34,0,0,1-1,1.88,3.28,3.28,0,0,1-1.21.85,10.74,10.74,0,0,1-1.76.6,1.17,1.17,0,0,1-.77.07,11.49,11.49,0,0,1-1.95-1.15,3.67,3.67,0,0,1,.69-6.21C18.4,46.48,19.18,46.13,20.05,45.72Z"></path></svg>