<svg xmlns="http://www.w3.org/2000/svg" id="Layer_1" data-name="Layer 1" viewBox="0 0 95.49 89.07"><title>AsimovMarketingIcon-bt-omar bahaa</title><path d="M.11,40.23C.11,31.47-.2,22.69.23,14,.47,9.2,2.44,4.8,7.2,2.39A22,22,0,0,1,14.48.52,72.82,72.82,0,0,1,21.83,0,10.77,10.77,0,0,1,24,.38a7,7,0,0,0,1.27.26q30.06,0,60.11,0c2.15,0,4.17.05,5.88,1.48a8.32,8.32,0,0,1,3,4.51c.37,1.58.79,3.15,1.14,4.74a7.88,7.88,0,0,1,0,1.54q0,21.66,0,43.32a7.85,7.85,0,0,1-.09,1.07,16,16,0,0,0-.46,3.25,13.55,13.55,0,0,1-3.88,10.25,13.29,13.29,0,0,1-7.23,4.15c-7.5,1.6-15.06.8-22.6,1a5.08,5.08,0,0,0-1.3.12c-.73.21-1.14.79-.79,1.47,1.21,2.38.42,4.59-.48,6.76-1.41,3.37-3.87,4.83-7.52,4.8-4.68,0-9.36,0-14,0a4.76,4.76,0,0,1-2.27-.55c-2.12-1.26-2.25-3.25-.43-4.87l.09-.08c2.83-1.22,3-3.59,2.72-6.19-.09-1-.4-1.5-1.52-1.49-8.19.06-16.4.24-24.59,0-3.72-.09-7.44-1.09-9.52-4.67a10.39,10.39,0,0,1-1.4-4.87C0,57.67.11,48.94.11,40.23ZM47.61,4.31v0c-10.48,0-20.95,0-31.43,0a13.21,13.21,0,0,0-6.4,1.43c-3.36,1.84-5.32,4.43-5.27,8.5.11,8.52,0,17,0,25.55,0,7.4.08,14.8.05,22.2a12.51,12.51,0,0,0,.53,4.34c.73,2.09,3.16,4.2,5.07,4.2,7,0,14-.13,21,0s13.93-.27,20.92.31S65.91,71,72.82,71a5.19,5.19,0,0,1,2.35.16c1.71.93,3.2.25,4.51-.57a11.27,11.27,0,0,0,5.76-10.31c-.13-14.44,0-28.87-.1-43.31,0-2.48-.44-5-.37-7.45.11-3.4-2.18-5.19-5.09-5.21C69.13,4.26,58.37,4.31,47.61,4.31Zm-.56,74.47v0a28.67,28.67,0,0,1-3.71,0,2.22,2.22,0,0,0-2.81,1.72c-.66,1.91-.05,3.09,2,3.08q3.6,0,7.2,0c3.26,0,3.58-.32,3.4-3.55-.05-.93-.46-1.26-1.36-1.24C50.17,78.81,48.61,78.78,47.05,78.78Z"></path><path d="M44.64,59.41c-9.76,0-19.51,0-29.27,0-1.88,0-3.77.26-5.42-.92a5.72,5.72,0,0,1-1.72-1.59,12.66,12.66,0,0,1-1.82-6.45c.11-10.79,0-21.59.08-32.38a22.07,22.07,0,0,1,.67-4.91C7.68,11,10.68,9,12.89,9.12a2.51,2.51,0,0,0,1.29-.06c1.36-.77,2.8-.42,4.22-.48a15.45,15.45,0,0,0,2.32-.41A7.41,7.41,0,0,1,22,7.92H38.19A1.89,1.89,0,0,1,39,8c1.81.95,3.76.58,5.65.59,8.48,0,16.95,0,25.43,0,1.3,0,2.58-.22,3.85.46a4.08,4.08,0,0,0,2.12.05,3.56,3.56,0,0,1,3,1,7.84,7.84,0,0,1,2.78,6c-.13,11.83-.15,23.67,0,35.5a8.11,8.11,0,0,1-3.28,6.78,5.73,5.73,0,0,1-3.34,1.1c-6.51.07-13,0-19.54,0h-11Zm-4-47.79v0c-7.4,0-14.79,0-22.19,0a3.12,3.12,0,0,0-1.92,1c-1.62,1.67-1.33,4-1.73,6a52.71,52.71,0,0,1-.8,5.23,8.4,8.4,0,0,0-.4,3.5c0,.39.18.89,0,1.18-1,1.69-.59,3.53-.51,5.28.12,2.84-.66,5.74.54,8.51a1.71,1.71,0,0,1,0,.6,50.53,50.53,0,0,0-.11,5.5c.21,2.51,1.17,4.17,3.18,4.75,1.15.33,2.32.59,3.48.87a11.51,11.51,0,0,0,2.54.58c7.23,0,14.47-.1,21.7.05s14.41-.36,21.63.33c3.49.33,7.15.64,10.7-.45,1.47-.45,1.92-.76,1.92-2.34,0-12.19,0-24.38,0-36.57a2.72,2.72,0,0,0-.41-1.56c-1-1.22-2-2.25-3.84-1.88a8.2,8.2,0,0,1-2.27,0c-3-.23-6,.66-8.86-.63a1.1,1.1,0,0,0-.48,0Z"></path><path d="M44.38,68c-1.68,0-2.25-.46-2.26-1.89s.85-2.64,2.11-2.66c1.41,0,2.89,1.17,2.89,2.31A2.68,2.68,0,0,1,44.38,68Z"></path><path d="M42.1,23.69a31.61,31.61,0,0,0-3.23,0,3.57,3.57,0,0,0-1.83.7,1.59,1.59,0,0,0-.43,1.44,1.66,1.66,0,0,0,1.28.74,2,2,0,0,1,1.88,1.24c.66,1.27,1.44,2.5,2,3.83a3,3,0,0,1,.06,2.15C41,35.62,40,37.34,39,39.08c-.13.23-.54.51-.73.46a1.12,1.12,0,0,1-.67-.69c-.77-2.89-1.47-5.79-2.24-8.68a7,7,0,0,0-.84-1.83,1.41,1.41,0,0,1,.06-1.84c.31-.42.58-1.31.38-1.54a3,3,0,0,0-1.87-1c-1.46,0-2.92.24-4.39.3a3.72,3.72,0,0,1-1.25-.43A3.72,3.72,0,0,1,28,22.8,41.72,41.72,0,0,1,33,18.68c1.46-.93,3.06-1.95,5-1.55a.52.52,0,0,0,.35,0c1.56-.91,3.27-.57,4.92-.56,3,0,5.81.58,7.94,3A13.59,13.59,0,0,0,52.88,21c.75.61.71,1-.19,1.46-.21.1-.46.14-.67.24a1.94,1.94,0,0,0-1.19,2.91c.52,1.21,1,2.42,1.66,3.57a4.26,4.26,0,0,1,.22,3.46c-.62,2-1.08,4.08-1.69,6.09a4.77,4.77,0,0,1-1,1.28,7.72,7.72,0,0,1-.74-1.31c-.49-1.43-.84-2.91-1.37-4.33-.8-2.12-1.67-4.21-2.57-6.29-.31-.74-.18-1.18.57-1.36.91-.22,1.76-.49,1.75-1.62,0-.76-1.17-1.43-2.36-1.45H42.1Z"></path><path d="M25.05,32.29c.25-1.64.47-3.24.78-4.83a1.21,1.21,0,0,1,.76-.75c.22-.05.68.29.79.56,1.11,2.6,2.29,5.17,3.2,7.83.59,1.74.7,3.64,1.18,5.43s1.08,3.32,1.62,5c.11.35.17.72.25,1.08-.39-.07-.9,0-1.16-.22-2.37-2.06-4.87-4-5.66-7.34-.28-1.19-.88-2.29-1.2-3.48S25.23,33.39,25.05,32.29Z"></path><path d="M43.09,48.51a16.71,16.71,0,0,1-2.37.58A2.36,2.36,0,0,1,39,48.74a1.87,1.87,0,0,1-.37-1.66c.86-2,1.89-4,2.83-5.94.41-.87.71-1.78,1.13-2.63.14-.29.49-.47.74-.7.22.26.55.48.63.78.5,2,.91,3.95,1.44,5.9a7.88,7.88,0,0,0,1,2.13c.41.67.34,1.2-.34,1.47a29,29,0,0,1-2.88.88Z"></path><path d="M56.11,28.6a4,4,0,0,1,.14-1.17A1,1,0,0,1,57,27c.16,0,.48.32.5.51a40,40,0,0,1,.33,4.36A20.93,20.93,0,0,1,57.33,35a2.38,2.38,0,0,0-.1.94A5,5,0,0,1,56.34,40c-1.39,2.32-2.79,4.63-5.12,6.15a3.23,3.23,0,0,1-1,.25,4.33,4.33,0,0,1,.2-1.16c.9-1.84,2-3.61,2.74-5.5A57.73,57.73,0,0,0,55,33.93c.52-1.74.94-3.51,1.4-5.26Z"></path><path d="M65.85,37.94c-.54,3.58-.77,7.28-3.54,10.11-.46.47-.9,1-1.6.4s-.28-1.06.06-1.67c1.39-2.49,2.89-4.92,2.54-8a11.35,11.35,0,0,1,.42-3.59c.18-.83.79-.66,1.28-.24A3,3,0,0,1,65.85,37.94Z"></path><path d="M66,48c-.33-.44-.68-.7-.65-.92s.38-.49.59-.73c.23.21.61.41.65.65S66.29,47.55,66,48Z"></path></svg>