<svg xmlns="http://www.w3.org/2000/svg" id="Layer_1" data-name="Layer 1" viewBox="0 0 81.96 130.21"><title>AsimovMarketingIcon-bt-omar bahaa</title><path d="M16.86,86.52c0-6.68-.12-13.36.09-20a37.37,37.37,0,0,1,.82-5.16c.46-2.65,1.7-5.18,2.66-7.75.85-2.25,2.06-4.41,2.54-6.72.4-1.92,1.09-3.69,1.61-5.54.41-1.44.24-3.1.87-4.4a10.38,10.38,0,0,0,.69-5.34.2.2,0,0,1,0-.11c1.54-2.75.51-5.72.71-8.57.13-1.83-.07-3.68-.05-5.52a2,2,0,0,1,.47-1.28C28.6,14.78,30,13.68,32.11,14a11.09,11.09,0,0,0,3,0c2.72-.39,4.27,1.43,5.91,3,.19.19,0,.84-.11,1.26a9.45,9.45,0,0,0-.55,1.87c-.06,3.11-.05,6.23,0,9.35a8.8,8.8,0,0,0,.43,1.93c0,.11.18.21.17.3-.16,1.85.72,3.48,1,5.23A36,36,0,0,0,43.05,42a18.69,18.69,0,0,1,1.32,6.8,1.15,1.15,0,0,1-.44.86,1.2,1.2,0,0,1-1-.21,1.43,1.43,0,0,1-.58-.74c-.61-1.71-1.58-3.42-1.63-5.16s-1.44-3.09-.71-4.83a1,1,0,0,0-.22-.78c-.72-.88-.5-1.93-.68-2.92-.28-1.56-1-3-.78-4.69-1.58-1.87-.55-4.07-.78-6.11,0-.35.06-.72,0-1.08-.05-1.1-.71-1.48-1.58-.84-1.32,1-2.77.72-4.11.33-1.52-.44-2.32,0-2.3,1.61,0,1.28.1,2.55.13,3.83,0,.39.08.92-.13,1.16-1.13,1.24-.71,2.7-.7,4.11,0,.16.08.33,0,.48-.44,1.78-.9,3.56-1.36,5.33-.05.19-.23.36-.24.54-.09,2.72-1.33,5.09-2.24,7.57-.74,2-1.37,4.13-2,6.21-.1.35,0,1.06.21,1.16,1.23.56,2.27,1.58,3.84,1.44a11.48,11.48,0,0,1,2.86.44,10,10,0,0,0,1.4.23c1.2,0,2.41-.1,3.6,0a9.54,9.54,0,0,0,5.78-1.43c.74-.42,1.18-.15,1.22.64a2.94,2.94,0,0,1-.24,1.73c-1.27,1.64-.44,3.48-.61,5.22,0,.24.72.78,1.09.77s1.18-.43,1.24-.76c.24-1.46,1.45-2.73.86-4.37-.1-.25.19-.66.34-1s.31-.39.37-.61c.36-1.35.64-2.74,1.05-4.08.62-2,1.31-4,2-5.93s2-4.16,2.3-6.34c.44-2.66,1.68-5,2.33-7.51.46-1.79.54-3.68.82-5.52A8.45,8.45,0,0,1,54,26.14c.09-.26.37-.47.4-.72.28-2.16.5-4.32.79-6.48.11-.8.39-1.57.57-2.36a9.22,9.22,0,0,0,.3-1.62c0-1.64,0-3.28,0-4.92a2,2,0,0,0-.18-1.15c-1.42-1.76-.55-3.8-.69-5.69C55.12,1.93,57.78,0,59.09,0a43.18,43.18,0,0,0,6.23,0c2.19-.28,4.76,2.16,4.27,4.33-.17.76,0,1.6-.06,2.39S69.15,8.55,69,9.46a7,7,0,0,0-.22,1.28c0,1,0,2,0,3,0,.31,0,.71.11.93,1.16,1.56.45,3.32.65,5a49.81,49.81,0,0,0,1.28,5.76c0,.11.16.2.18.31.32,1.75.61,3.51,1,5.25s.65,3.33,1.08,5c.31,1.19.82,2.32,1.21,3.49.67,2,1.28,4.08,2,6.09,1.1,3,2.31,6.06,3.39,9.12.78,2.24,1.69,4.46,1.4,6.92a1.14,1.14,0,0,0,.16.81c1.09,1.08.79,2.43.79,3.72,0,17.8,0,35.6,0,53.4a8.91,8.91,0,0,1-3.33,7.48A9.84,9.84,0,0,1,75,128.58c-1.39.34-2.7,1.3-4.26.82a.48.48,0,0,0-.35.06c-1.76,1.15-3.72.57-5.6.63-2.79.09-5.6.2-8.39,0A24.17,24.17,0,0,1,51.29,129a24.92,24.92,0,0,1-3.87-1.49c-.84-.4-1.55-1.1-2.36-1.59-.32-.19-.94-.39-1.13-.23a3.72,3.72,0,0,1-2.82.59c-3.68,0-7.36,0-11,0a8.79,8.79,0,0,1-1.94-.39c-.19,0-.39-.25-.55-.22-1.75.31-3-.83-4.45-1.46a5.88,5.88,0,0,1-3-2.46c-1-1.73-2.88-1.91-4.53-2.18-3.16-.51-5.89-1.66-7.87-4.24a1.58,1.58,0,0,1,1.1-2.4c1.72-.39,3.35-1.17,5.23-.9.71.1,1.53-.54,2.27-.9.17-.08.36-.44.31-.56s-.41-.47-.6-.45c-1.92.19-3.93-.45-5.77.59a1.62,1.62,0,0,1-.91.22c-2.37-.16-4.44.88-6.56,1.64-1.06.38-1.16,1-.29,1.77a22.65,22.65,0,0,0,2.13,1.5,5.8,5.8,0,0,1,1.16.83c.52.61.2,1.28-.58,1.37C3.5,118.19,0,115,0,113.26a1.74,1.74,0,0,1,1.17-1.88c1.8-.59,3.6-1.17,5.42-1.7s3.53-1,5.33-1.37a17.77,17.77,0,0,1,3.1-.08c1.77,0,1.95-.27,1.95-2,0-6.55,0-13.11,0-19.67ZM43,92.39h-.07c0-4.2-.13-8.4,0-12.59.12-2.81-.34-2.66-2.89-2.55-.34,0-.65.28-1,.38a6.51,6.51,0,0,1-1.7.42c-2.32,0-4.64,0-7,0a6.28,6.28,0,0,1-1.25-.29,18.11,18.11,0,0,0-2-.48c-1-.13-2.11-.12-3.16-.26s-2.08-.44-3.12-.53c-.81-.07-1.22.45-1.2,1.29,0,1.2,0,2.4,0,3.59a2,2,0,0,0,1.71,2.12,7.77,7.77,0,0,1,6,9.91,8.54,8.54,0,0,1-6.67,6.15,1.19,1.19,0,0,0-1.09,1.28,5.5,5.5,0,0,0,.85,3.41,7.8,7.8,0,0,0,6.42,3.87c2.39.15,4.79,0,7.19,0,1.34,0,2.71.27,3.91-.68.26-.21.77-.13,1.17-.13.79,0,1.59,0,2.39.06,1,0,1.43-.41,1.42-1.44C43,101.42,43,96.9,43,92.39ZM61.73,102a8.49,8.49,0,0,0,7.45-2.94c.24-.27.5-.52.76-.77,1.6-1.51,1.94-3.48,2.22-5.54a9.73,9.73,0,0,0-1-4.82,8.75,8.75,0,0,0-6.94-6,7.83,7.83,0,0,0-7.54,2.53c-.39.45-.85.84-1.26,1.28-1.23,1.3-2.23,2.69-2,4.64a5.77,5.77,0,0,1-.18,1,3.25,3.25,0,0,0,0,1.45c.9,2.17,1.89,4.3,2.85,6.44a1.17,1.17,0,0,0,.42.56C58.27,100.75,59.59,102.89,61.73,102ZM75.78,55.13l.21-.05c-.29-1-.65-2-.87-3a1.08,1.08,0,0,0-1.29-.93c-.72,0-1.4.32-1.24,1.1.43,2.15-.68,4.46.69,6.52a2.22,2.22,0,0,1,.1,1.17c0,1-.1,2-.12,3a2.53,2.53,0,0,0,2,2.44,2.3,2.3,0,0,0,2.16-2.41c-.1-1.26.39-2.66-.75-3.74-.13-.12-.07-.45-.12-.68-.16-.71-.34-1.42-.51-2.12C76,56,75.88,55.55,75.78,55.13ZM33.7,20.08v0a10.48,10.48,0,0,0,2.38,0,4,4,0,0,0,2-1,1.91,1.91,0,0,0,.22-1.73c-.15-.35-1-.45-1.49-.59s-.93-.11-1.38-.21a7.81,7.81,0,0,0-2.22-.54,15,15,0,0,0-3,.9c-1.19.39-1.4,1-.79,2a2.05,2.05,0,0,0,2.13,1.22C32.26,20,33,20.08,33.7,20.08ZM19.42,90h0a8.21,8.21,0,0,0,0,1.79c.08.33.5.59.77.88.26-.26.72-.5.74-.77a30.59,30.59,0,0,0,0-3.83,1,1,0,0,0-.74-.7c-.25,0-.67.43-.73.72A11,11,0,0,0,19.42,90ZM73.59,47.43l.06-.51a8.72,8.72,0,0,0-1.71-1.1c-.2-.07-.92.55-.92.86a1.35,1.35,0,0,0,1.33,1.52C72.77,48.2,73.18,47.71,73.59,47.43Z"></path><path d="M63.1,90.17c.32,1,.66,2,.92,3.08a2.45,2.45,0,0,1-.13,1c-.28-.08-.66-.08-.82-.27a8.32,8.32,0,0,1-.83-1.31c-.45-.77-.94-.78-1.47-.08a3,3,0,0,0-.19.3c-.37.56-.69,1.39-1.49.88-.21-.12,0-1.19.27-1.74.64-1.46,1.36-2.88,2.12-4.28.2-.36.76-.86,1-.78a1.61,1.61,0,0,1,.92,1,10.27,10.27,0,0,1,0,2.15Z"></path></svg>