<svg xmlns="http://www.w3.org/2000/svg" id="Layer_1" data-name="Layer 1" viewBox="0 0 75.73 99.01"><title>AsimovMarketingIcon-bt-omar bahaa</title><path d="M29.7,0c4,0,8.07,0,12.11,0,.69,0,1.35.49,2,.57a27,27,0,0,0,3,.07c1.42,0,2.85-.27,4.21.5a2.62,2.62,0,0,0,1.53.13C56,.81,58.7,3.12,59.87,5.68c1.06,2.32,2,4.69,2.9,7.08A8.73,8.73,0,0,1,63,15.23a11,11,0,0,1-1.05,6.16c-.49.91,0,1.52,1.1,1.52,2,0,3.92,0,5.88-.12a7.93,7.93,0,0,1,4.94,1.56,5.29,5.29,0,0,1,1.51,6.21C73.41,35.8,71.39,41,69.44,46.24,68.61,48.49,67.9,50.77,67,53c-1.31,3.42-2.73,6.8-4.06,10.22-1,2.53-1.87,5.09-2.85,7.63-.68,1.78-1.41,3.55-2.17,5.3-1.14,2.64-2.19,5.32-3.52,7.85a8.31,8.31,0,0,1-2.95,3.31,4.21,4.21,0,0,0-2.11,3.48c-.54,3.5-2.66,5.87-5.41,7.79a2.93,2.93,0,0,1-1.6.42c-7.75,0-15.5,0-23.25,0a1.84,1.84,0,0,1-.82-.14c-1.46-.81-3-.55-4.58-.55A9.5,9.5,0,0,1,12,98a4.83,4.83,0,0,0-1.5-.28c-2.72.38-4.3-1.27-5.71-3.17a17.88,17.88,0,0,1-1.79-3c-.51-1.06-.83-2.22-1.24-3.33S1,86.17.56,85.13c-.1-.26-.35-.5-.36-.75-.05-2.6-.59-5.23.35-7.8A7.76,7.76,0,0,0,.8,75.19c.1-.61.2-1.22.31-1.83l.24-1.27c.11-.58.23-1.15.33-1.72s.15-.85.22-1.27c.11-.69.21-1.39.33-2.08.08-.5.19-1,.25-1.51,0-.23-.07-.49,0-.71.33-1.61.71-3.2,1-4.81s.46-3.08.69-4.62c.06-.39.14-.77.21-1.16.13-.72.25-1.45.36-2.17,0-.23,0-.48.06-.71.36-1.85.71-3.7,1.11-5.55.34-1.6.8-3.18,1.11-4.79.26-1.34.38-2.72.58-4.08.09-.57.24-1.13.36-1.7s.16-.93.24-1.39c.12-.73.24-1.45.37-2.18,0-.15.15-.29.17-.44.2-1.55.34-3.1.6-4.64.23-1.31.59-2.6.88-3.9.11-.5.19-1,.27-1.52.15-.92.3-1.85.43-2.78.06-.43.06-.86.09-1.29a11,11,0,0,1,.13-1.41c.3-1.42.7-2.81,1-4.24a42.63,42.63,0,0,1,1.8-8.07,8.34,8.34,0,0,1,1.1-2,3.18,3.18,0,0,1,3-1.35c3.92.14,7.84.05,11.76.05ZM17.09,18.42l-.05.26h-.48c-.8,0-1.75-.23-2.35.12s-.68,1.29-.87,2c-.39,1.55-.7,3.12-1,4.69,0,.11,0,.24,0,.35-.2,1.52-.37,3-.64,4.54s-.74,3.19-1,4.8-.25,3.34-.57,5C9.63,42.57,9,45,8.39,47.37a7.49,7.49,0,0,0,0,.83c-.1.88-.22,1.77-.33,2.65l-.21,1.4c-.1.62-.18,1.24-.3,1.85-.47,2.23-.95,4.45-1.42,6.67,0,.19.05.41,0,.6-.21,1.6-.38,3.2-.69,4.78-.27,1.42-.7,2.8-1,4.2,0,.19.05.4,0,.6a7.43,7.43,0,0,1-.36,1.91c-.39.82-.3,1.45.51,1.78A8.53,8.53,0,0,0,7,75.22c1.38.13,2.77.09,4.15.21.81.07,1.61.43,2.42.47,1.55.08,3.12-.09,4.66.06,2.35.24,4.67.75,7,1a37.08,37.08,0,0,1,5.88.55c2.41.62,5,.37,7.57.54,1.8.12,3.67-.46,5.42.48.18.1.91-.32,1-.6.46-1.78.8-3.58,1.17-5.38.05-.23,0-.48,0-.72.07-.42.18-.85.25-1.27.11-.61.21-1.23.3-1.84.06-.39,0-.79.13-1.17.33-1.69.68-3.38,1-5.06.29-1.44.56-2.87.83-4.3.3-1.62.61-3.24.88-4.86s.45-3.16.75-4.72.72-3.13,1-4.69a5,5,0,0,0-.06-1.08,4.73,4.73,0,0,1,0-1.19c.55-2.37,1.15-4.73,1.71-7.11a5.63,5.63,0,0,0,0-.83c.13-1.52.26-3,.4-4.56,0-.11.1-.21.13-.33.39-1.51.81-3,1.14-4.55a2.65,2.65,0,0,0,0-1.53c-.2-.46-.71-1.1-1.09-1.11a30.91,30.91,0,0,1-4.7-.55c-2.67-.43-5.39.1-8.15-.64-2.43-.65-5.08-.1-7.68-.5A103.85,103.85,0,0,0,22,19.37a4.66,4.66,0,0,1-.82-.13ZM46.22,87.57c.12.17.39,1,.77,1,1,.12,1-.72,1.08-1.48a11.54,11.54,0,0,1,.16-1.18c.29-1.76.57-3.51.86-5.27l.12-.7c.34-1.85.69-3.7,1-5.54.24-1.36.44-2.72.71-4.06.32-1.53.77-3,1-4.56s.33-3.05.49-4.58c0-.23.15-.45.2-.69.34-1.45.72-2.9,1-4.36s.42-3.12.7-4.66.71-3.08,1-4.63c.42-2.4.73-4.82,1.13-7.23.14-.82.46-1.61.57-2.43.23-1.68.37-3.37.55-5.06,0-.16.1-.3.13-.46.36-1.53.77-3.05,1-4.59s.36-3.22.65-4.81c.37-2.07.86-4.11,1.27-6.16a1.8,1.8,0,0,0,0-1,1.34,1.34,0,0,0-.81-.71c-.23,0-.66.31-.77.58a5.91,5.91,0,0,0-.17,1.29c-.1.69-.23,1.38-.35,2.07L58.32,20c-.08.5-.15,1-.25,1.51l-.93,4.63c-.11.5-.23,1-.35,1.5s-.24.92-.3,1.39c-.2,1.59-.28,3.21-.57,4.78-.48,2.52-1.11,5-1.66,7.51a5.83,5.83,0,0,0,0,.59c-.21,1.49-.4,3-.66,4.45-.31,1.79-.74,3.55-1,5.34-.26,1.55-.35,3.13-.58,4.68-.3,2-.68,3.95-1,5.93,0,.27-.2.52-.25.79-.14.81-.27,1.61-.38,2.43-.06.39,0,.8-.09,1.17-.41,1.77-1.27,3.43-1.06,5.32a2.72,2.72,0,0,1-.19.81c-.32,1.49-.68,3-.94,4.47-.32,1.86-.53,3.73-.84,5.59C46.93,84.29,46.6,85.71,46.22,87.57ZM34.7,97.29v.12c.8,0,1.6,0,2.39,0,.29,0,.74-.14.81-.33a1.25,1.25,0,0,0-.16-1,2.3,2.3,0,0,0-2.19-1.17,17.76,17.76,0,0,1-2.73,0c-1.05-.11-2.09-.34-3.13-.49s-2.33-.31-3.5-.44a13.18,13.18,0,0,0-2.26-.12,1,1,0,0,0-.73.68c-.09.63,1.67,2.36,2.37,2.39C28.62,97,31.66,97.16,34.7,97.29ZM10.61,92.56c-1,.25-2.11-.33-2.28.93S9.08,95,10,95.16c1.56.24,3.13.39,4.7.56.51.06,1.05,0,1.54.11a2.78,2.78,0,0,0,3.42-1.75c.29-.69,0-1-.67-1-.36,0-.72.12-1.07.12-1.74,0-3.48,0-5.22-.16A12,12,0,0,1,10.61,92.56ZM36.37,8.69c-.13-.12-.34-.53-.65-.63-.64-.19-1.82,1-1.83,1.85a1.29,1.29,0,0,0,.65,1C35.2,11.11,36.19,10,36.37,8.69Z"></path><path d="M70.65,67.58c-.33.87-.67,1.73-1,2.6s-.47,1.6-.79,2.37a5,5,0,0,1-1.08,1.94,2.18,2.18,0,0,1-1.88.42,1.78,1.78,0,0,1-1-2.21C65.49,71,66,69.21,66.6,67.49a6.45,6.45,0,0,1,1-2c.36-.42,1.15-.87,1.55-.73s.93.88,1.21,1.45a3.07,3.07,0,0,1,0,1.29Z"></path><path d="M31.41,58.23a14.88,14.88,0,0,1-2-.93,2.58,2.58,0,0,0-2.81-.19c-1.56.76-2.36.75-3.33-.69a25.7,25.7,0,0,1-3-5.92,19.47,19.47,0,0,1-.86-5.23c-.18-3.19,1.65-4.88,3.84-6.4a14.08,14.08,0,0,1,3.61-1.58,2.14,2.14,0,0,1,1.52.29,3.69,3.69,0,0,0,3.37.38,6.45,6.45,0,0,1,5.65.44c1,.66.95,1.25,0,2a12.17,12.17,0,0,0-2.11,2.36,1.52,1.52,0,0,0,0,1.42,12.85,12.85,0,0,0,2.51,2.64c.92.67,1.32,1.27.93,2.38-1,2.72-1.93,5.46-4.21,7.38A16,16,0,0,1,31.41,58.23Z"></path><path d="M35.67,32.36a17.59,17.59,0,0,1-1.34,2.25,12,12,0,0,1-2.09,1.94c-.29.21-.82.11-1.24.15,0-.39-.23-.84-.1-1.15a8.48,8.48,0,0,1,3.15-3.64,1.94,1.94,0,0,1,1.1-.24C35.3,31.67,35.44,32.05,35.67,32.36Z"></path></svg>