<svg xmlns="http://www.w3.org/2000/svg" id="Layer_1" data-name="Layer 1" viewBox="0 0 95.53 78.56"><title>AsimovMarketingIcon-bt-omar bahaa</title><path d="M67.44,4.53c5.81-.3,10.74,2,15,5.62A18.78,18.78,0,0,1,87.93,18c.31.86.9,1.64,1.12,2.51a24.94,24.94,0,0,1,.66,10.33,21.76,21.76,0,0,1-4.27,9.87,35.11,35.11,0,0,1-4.75,4.69c-.6.53-.8.86-.34,1.57.77,1.21,1.47,2.47,2.19,3.71.49.86-.05,1.4-.69,1.77-1.27.74-2.61,1.38-3.92,2.07-4.4,2.34-8.79,4.72-13.22,7-4.64,2.4-9.35,4.67-14,7.07-5.6,2.9-11.14,5.89-16.71,8.83a10.12,10.12,0,0,1-2.37,1.09,1.63,1.63,0,0,1-1.42-.62,2.6,2.6,0,0,0-3.05-1.69c-.37.06-1-.45-1.26-.86-1.18-2-2.26-4.13-3.38-6.2q-3-5.53-6-11.05c-2.7-4.94-5.43-9.86-8.12-14.8-1.6-2.94-3.13-5.93-4.71-8.88-1-1.87-2-3.71-3.06-5.57s-.82-3.13,1.12-4.32C3.14,23.69,4.64,23,6.1,22.26c5-2.55,9.94-5.11,14.93-7.64S31.19,9.56,36.24,7c4.08-2.1,8.11-4.31,12.17-6.45C50-.3,50.22-.23,51,1.32a1.13,1.13,0,0,0,1.85.52c.57-.36,1.14-.73,1.72-1.08,1.18-.72,1.59-.61,2.2.68C57.5,3,58.14,4.58,58.87,6.13s1.58,3.23,2.4,4.83c.39.74.91,1.38,1.9,1a1.68,1.68,0,0,0,.71-2.36c-.49-1-1.05-1.88-1.6-2.81-.66-1.08-.48-1.57.77-1.86a15.22,15.22,0,0,1,2.23-.35C66,4.49,66.72,4.53,67.44,4.53Zm-35,71.11c.62-.29,1.06-.47,1.48-.69,3.78-2,7.53-4,11.32-6,3.52-1.82,7.1-3.5,10.61-5.33,5.77-3,11.49-6.08,17.25-9.1,2-1,4-2,6-3,.73-.36,1.05-.84.6-1.63-.91-1.63-1.85-3.25-2.72-4.9q-3.51-6.6-7-13.23c-1.13-2.16-2.2-4.35-3.34-6.5-2.19-4.17-4.44-8.31-6.62-12.49C58.59,9.91,57.16,7,55.7,4.11a1.15,1.15,0,0,0-1.77-.6C51.19,5,48.46,6.48,45.72,8c-3.59,1.93-7.16,3.89-10.78,5.76-3.26,1.7-6.6,3.24-9.86,4.94-5.7,3-11.37,6-17.06,9-.82.43-.68.89-.32,1.55,1.61,2.94,3.22,5.88,4.77,8.85,1.42,2.73,2.71,5.53,4.14,8.25,2.38,4.52,4.88,9,7.25,13.51,2.56,4.88,5,9.81,7.54,14.71A5.69,5.69,0,0,0,32.47,75.64ZM68.05,19.21a2.66,2.66,0,0,0-1.06,0c-.25.13-.58.7-.5.81,1.12,1.65,1.42,3.87,3.44,4.92a1.65,1.65,0,0,1,.8,1.29c-.48,2.13,1.13,3.49,1.77,5.19.24.65,1,1,1.47.15,1.16-2.25,2.27-4.52.94-7.14C73.46,21.58,71.41,19.56,68.05,19.21Zm16.84,9.67a3.7,3.7,0,0,0,0-1.09c-.25-.54-.58-1.05-.88-1.56a5.51,5.51,0,0,0-1.41.85,5.07,5.07,0,0,0-.61,1.4c-.52,1.19-1.11,2.36-1.53,3.59a2.34,2.34,0,0,0-.06,1.81c.48.7,1.26.35,1.9-.09A5.55,5.55,0,0,0,84.89,28.88Z"></path><path d="M91,41.83a8,8,0,0,1,2.08-5.16,1.29,1.29,0,0,1,1.9-.25,1.15,1.15,0,0,1,.32,1.75A2.49,2.49,0,0,0,95,39.43a4,4,0,0,1-1.55,3.1,2,2,0,0,1-1.68.45C91.31,42.81,91.09,42,91,41.83Z"></path><path d="M48.36,17.67a5,5,0,0,1,1.26,1.1c.9,1.58,1.67,3.23,2.52,4.85q4.14,7.9,8.3,15.79c1.06,2,2.17,4,3.14,6.06a1.59,1.59,0,0,1-.51,1.45c-1.7,1-3.5,1.89-5.26,2.81-4,2.09-8,4.19-12,6.26-2.8,1.46-5.6,2.91-8.44,4.28a1.41,1.41,0,0,1-1.27-.38,13.73,13.73,0,0,1-1-2Q29.78,47.8,24.47,37.74c-.67-1.27-1.44-2.48-2.2-3.7s-.63-1.68.54-2.35q4.85-2.75,9.73-5.42,7.32-4.07,14.67-8.08C47.52,18,47.85,17.89,48.36,17.67Zm7.65,28c0-.56,0-1.12,0-1.68,0-.78.34-1.45,1.16-1.28.33.06.63.85.72,1.35a13.4,13.4,0,0,1-.09,1.66c.07,1.28.73,1.63,1.83,1,1.87-1,1.87-1,.83-2.85-.1-.18-.17-.37-.26-.55-1.44-2.85-2.87-5.71-4.34-8.55-.7-1.35-1.2-1.37-2.2-.22-.29.33-.5.84-.86,1a4.86,4.86,0,0,1-1.58.07,4,4,0,0,1,.2-1.46,4.43,4.43,0,0,1,1.15-1c1.62-1.32,1.62-1.32.66-3.21l-4.34-8.53c-.59-1.15-1.27-1.35-2.42-.71-.56.32-1.12.63-1.66,1-.93.57-1,1-.23,1.79A8.29,8.29,0,0,1,46,25.3c.16.34-.18.92-.29,1.39-.44-.17-1.15-.22-1.27-.51-.52-1.29-1.77-1.56-2.75-2.17a1.32,1.32,0,0,0-1.1,0c-2.11,1.14-4.2,2.3-6.27,3.51C31.92,29,31.93,29,34,30.85c.54.47.76,1,.26,1.55a1,1,0,0,1-1.57,0,20.54,20.54,0,0,0-1.85-1.88,1.8,1.8,0,0,0-1.47-.34A22.81,22.81,0,0,0,26,32.1c-2.09,1.41-2.05,1.45-.6,3.53.4.58.84.84,1.51.5s1.55-.48,1.95.4-.41,1.17-1,1.46-.87.67-.53,1.33c1.26,2.45,2.52,4.9,3.8,7.34a1,1,0,0,0,1.5.5c1.29-.52,2.6-1,3.92-1.43.83-.28,2,.23,2.09.9.1,1.08-.78,1.14-1.51,1.31-1.09.24-2.17.46-3.25.72a1,1,0,0,0-.75,1.66,52.38,52.38,0,0,0,2.78,5.17c1.77,2.78,1.86,2.74,4.64.9,1-.64,1.05-1.24.37-2.18a15.2,15.2,0,0,1-1.6-2.51c-.17-.37.19-1,.32-1.46.44.2,1,.28,1.31.62a31.52,31.52,0,0,1,1.94,2.88c.62,1,1.32,1,2.32.47,2.75-1.47,5.54-2.87,8.33-4.25C56,48.73,56.2,48.37,56,45.64Z"></path><path d="M63.24,35.71a7.27,7.27,0,0,1,.7.82c1.18,1.84,2.3,3.71,3.49,5.53.43.67.45,1.33-.2,1.64a1.6,1.6,0,0,1-1.5-.32,18.12,18.12,0,0,1-1.64-2.63c-.66-1.14-1.31-2.29-1.93-3.45C61.71,36.48,62.17,35.66,63.24,35.71Z"></path><path d="M51.62,41h-.3A16.65,16.65,0,0,0,45,42.59a4.73,4.73,0,0,1-1.29.61,1.45,1.45,0,0,1-1.14-.34,1.08,1.08,0,0,1-.08-1,15.45,15.45,0,0,1,2.13-1.55c.42-.27,1-.3,1.35-.63a2.91,2.91,0,0,1,2.7-.9,22.57,22.57,0,0,0,2.85,0c.28,0,.64-.11.82,0,.55.43,1.43.93,1.45,1.44.05.92-.91.87-1.64.84Z"></path><path d="M38,36.63a4.29,4.29,0,0,1,.21-1.1,2.3,2.3,0,0,0-.39-3.2c-.56-.54.34-3.17,1.07-3.5a.8.8,0,0,1,1.15,1,3.3,3.3,0,0,0,.71,3.32,1.07,1.07,0,0,1,.11.9,21.4,21.4,0,0,1-1.08,3,1.29,1.29,0,0,1-1.12.54C38.34,37.43,38.17,36.85,38,36.63Z"></path><path d="M31.72,36a5.05,5.05,0,0,1,1,.6c.93.95,2,1.8,2,3.36,0,.6.67,1.22,1.13,1.73s.66,1.12.11,1.68-1.16.28-1.5-.27c-.62-1-1.09-2.07-1.7-3.07-.43-.73-1-1.36-1.47-2.08A2.27,2.27,0,0,1,31,36.69C31,36.46,31.42,36.25,31.72,36Z"></path><path d="M45.52,49.64c-.17-.32-.59-.78-.52-1.11a2.64,2.64,0,0,1,.93-1.28,29.64,29.64,0,0,1,3-2.15,4.06,4.06,0,0,1,1.44-.26c0,.47.24,1.19,0,1.38C49,47.39,47.48,48.46,46,49.55,46,49.59,45.88,49.58,45.52,49.64Z"></path><path d="M45.8,33.35c.61-1.13,1.08-2.08,1.66-3,.09-.15.75-.14.94,0a1.47,1.47,0,0,1,.54,1.08,10.76,10.76,0,0,1-.78,2.61c-.15.31-.88.69-1.08.57A6.15,6.15,0,0,1,45.8,33.35Z"></path></svg>