<svg xmlns="http://www.w3.org/2000/svg" id="Layer_1" data-name="Layer 1" viewBox="0 0 83.81 95.79"><title>AsimovMarketingIcon-bt-omar bahaa</title><path d="M51.78,29.53c-.74-.39-1.93-.61-2.13-1.19-.37-1,1-1.09,1.59-1.57.94-.74,1.94-1.4,2.87-2.15a1.23,1.23,0,0,0,.22-2c-.63-.69-1.29-.6-2-.05a43.34,43.34,0,0,1-11,6,1.48,1.48,0,0,1-1.83-.37c-1.64-1.8-3.3-3.58-4.89-5.42a1.69,1.69,0,0,1-.14-1.3c.62-2.48,1.34-4.93,1.94-7.41.51-2.12,1.17-4.08,3.46-5a1.54,1.54,0,0,0,.69-.45,1.41,1.41,0,0,0,.35-.91c0-.21-.43-.4-.7-.52-.94-.41-1.94-.71-2.84-1.2-1.6-.86-2.11-.79-3,.76-1.6,2.86-3.17,5.73-4.75,8.59-1.86,3.35-3.69,6.71-5.59,10a1.88,1.88,0,0,0,0,2.21A13.49,13.49,0,0,1,25,29.47c.56,1.21,1.23,1.36,2.17.43,1.27-1.27,2.53-2.56,3.81-3.83.25-.25.56-.65.82-.63a2.9,2.9,0,0,1,1.69.49c.2.17.09,1.11-.19,1.41-2.06,2.17-4.18,4.3-6.33,6.39-1.19,1.15-2,1-2.91-.38a14.73,14.73,0,0,1-.89-1.83c-.11-.25-.11-.6-.29-.78-1.69-1.67-1.92-4.1-3.15-6s-2.16-4-3.25-6c-.75-1.38-1.43-1.36-2.32,0-1.64,2.47-3.3,4.91-4.94,7.37a.61.61,0,0,0-.07.1c-.67.69-1.29,2-2.3,1.48C6.15,27.32,5.92,26,5.67,25a28.64,28.64,0,0,1-.39-2.93c-.34-2.14-.66-4.29-1-6.42-.22-1.16-.56-2.3-.85-3.46a7.75,7.75,0,0,1-.29-1.15,1.31,1.31,0,0,1,1.35-1.6,1.24,1.24,0,0,1,1.47,1.45c-.17,2.69.87,5.15,1.28,7.73a16.81,16.81,0,0,0,.14,1.89,8.17,8.17,0,0,0,.8,1.59c.45-.26,1-.41,1.33-.8,1.65-2.21,3.32-4.41,4.78-6.74.85-1.36,2.18-1.72,3,.09,1.12,2.59,2.55,5,3.83,7.56.43.85,1.27,1,1.75.14C24,20.28,25.21,18.16,26.41,16c.71-1.24,1.44-2.48,2.13-3.74,1.59-2.86,3.15-5.74,4.75-8.6.56-1,1.5-.82,2.34-.54,1.85.63,3.67,1.34,5.5,2,1,.38,2,.78,3,1.21a1.39,1.39,0,0,0,2.06-1.49C46,2.46,47.45,1.63,49.42,1.08c.85-.24,1.66-.59,2.48-.9,1.24-.47,1.86,0,2.06,1.27a3.39,3.39,0,0,0,.89,1.78C56.19,4.54,57.66,5.71,59,7a2.88,2.88,0,0,1,.86,2.74c-.26,1.85,0,2.16,1.76,2.82,4.14,1.55,8.27,3.15,12.42,4.69,2.21.81,4.44,1.55,6.68,2.29,1.61.54,1.84,1.16,1.06,2.67-.6,1.17-1.09,2.4-1.59,3.61-.08.22,0,.68.07.75a1.8,1.8,0,0,0,.87,0c.07,0,.14-.07.21-.12.53-.38,1-1.06,1.76-.41a2,2,0,0,1,.45,2.41c-.87,2-1.78,3.92-2.59,5.91-1.86,4.59-3.71,9.17-5.48,13.79C74,52,72.73,55.89,71.25,59.73c-1.07,2.79-2.32,5.5-3.42,8.28-2,5.12-4,10.28-6,15.4-1.14,2.9-2.36,5.76-3.54,8.64a18.76,18.76,0,0,1-.94,2.32c-.81,1.4-1.62,1.71-3.11,1.18-2.45-.87-4.85-1.85-7.29-2.75-3.18-1.18-6.37-2.32-9.55-3.51-3.78-1.42-7.53-2.91-11.31-4.32-6-2.22-12-4.4-18-6.62C6.55,77.77,5,77.18,3.45,76.5a9.84,9.84,0,0,1-1.76-1.21,1.09,1.09,0,0,1-.19-1.76,3.57,3.57,0,0,0,.55-.92c.53-1.34.69-1.41,1.93-.69a10.86,10.86,0,0,1,1,.68c.64.46,1.3.74,1.89,0a1.55,1.55,0,0,0,0-2.18,6,6,0,0,0-1.42-1.08c-1.34-.72-2.71-1.38-4.07-2.06S-.29,66,.25,64.67a84,84,0,0,1,3.42-7.92c2.36-4.53,4.93-9,7.41-13.42,1.55-2.79,3.12-5.57,4.65-8.37.95-1.75,1.84-3.53,2.76-5.3.28-.54.6-.95,1.31-.59,1.36.69,1.67,1.23,1.16,2.16-.65,1.19-1.32,2.37-2,3.55Q14.5,42.83,10,50.9c-2,3.59-4,7.2-6,10.79a29.08,29.08,0,0,1-1.6,2.53c-.75,1.08-.69,1.58.55,2.11,2.76,1.17,5.53,2.29,8.32,3.39s5.43,2.1,8.15,3.15c3.46,1.33,6.93,2.65,10.39,4,4.31,1.69,8.6,3.42,12.91,5.11,1.71.68,3.44,1.3,5.16,2a5.2,5.2,0,0,1,.77.32c1.7,1,1.7,1,2.46-.78,2.33-5.34,4.65-10.68,7-16,2.56-5.81,5.17-11.59,7.71-17.41,1.91-4.39,3.7-8.83,5.59-13.23,1.06-2.49,2.2-5,3.31-7.44l3-6.78c.51-1.17.24-1.77-1-2.2C71.82,18.68,66.88,17,62,15.21a7.27,7.27,0,0,1-1.24-.7c-.82-.52-1.34-.28-1.63.61-.58,1.76-.32,2.37,1.36,3a4.23,4.23,0,0,1,3,3.27c.29,1.84-.78,3.05-2.21,4.08A22.33,22.33,0,0,1,54,29a14.45,14.45,0,0,1-2,.29Zm6.35-17.82c.09-.83-.52-1.18-1.27-.79-3.28,1.73-6.56,3.47-9.86,5.16a4,4,0,0,0-2.08,2.34c-.77,2.17-1.63,4.32-2.4,6.5-.11.31.07.72.12,1.09a3.38,3.38,0,0,0,1.21-.2c3.54-2.07,7.07-4.16,10.56-6.3.94-.58,2.2-1.18,2.53-2.06A35.21,35.21,0,0,0,58.13,11.71ZM36.85,21.35a4,4,0,0,0,.48,1c.77.92,1.59,1.8,2.42,2.66.61.64,1,.36,1.32-.36l2.74-6.75a1.39,1.39,0,0,0-.64-1.84c-1-.67-1.91-1.44-2.89-2.12-.4-.28-1.11-.74-1.27-.61a2.7,2.7,0,0,0-.86,1.45c-.45,1.92-.79,3.85-1.18,5.78C36.93,20.78,36.91,21,36.85,21.35Zm8.82-8.11,1.22-.55q4.29-1.89,8.59-3.8a4.44,4.44,0,0,0,.87-.71,8.07,8.07,0,0,0-1.77-1.86c-.69-.37-1,.3-1.24,1a1.93,1.93,0,0,1-1.1,1.17c-.3.09-.77-.57-1.21-.84S50.1,7,49.84,7.13a3.76,3.76,0,0,0-1.62,1.32c-1,1.62-.94,1.57-2.86,1a2.7,2.7,0,0,0-1.86.61c-.27.18-.48,1-.32,1.2A26.79,26.79,0,0,0,45.67,13.24Z"></path><path d="M18.19,55.43A14,14,0,0,0,19,51.79a13.09,13.09,0,0,1,1.17-5.2,16.76,16.76,0,0,1,1.33-2.92,16.39,16.39,0,0,1,10.39-8.05A17.89,17.89,0,0,1,37.81,35c2.48.25,5.14.28,7.33,1.68s4.13,3.21,4.7,5.95A14.32,14.32,0,0,1,50.43,47a25.78,25.78,0,0,1-2.69,8.67,29.21,29.21,0,0,1-5.83,7.22c-.33.33-.8.78-.78,1.14.08,1.39-.88,1.85-1.84,2.36a13.63,13.63,0,0,1-7.43,1.94,14.74,14.74,0,0,1-12.27-7.8C18.74,59,18.62,57.1,18.19,55.43ZM29.08,65.2a5.68,5.68,0,0,0,1-.11c2.08-.5,4.17-1,6.25-1.57A4.23,4.23,0,0,0,37.37,63a25.35,25.35,0,0,0,6.8-6.78,15.94,15.94,0,0,0,2.13-3.16,54.38,54.38,0,0,0,2-6.14,3.79,3.79,0,0,0-.15-1.62c-.09-.43-.4-.83-.4-1.24.05-3-2.93-5.68-5.7-6.06a16.05,16.05,0,0,1-3.72-.54c-2-.81-3.75-.11-5.49.32a14.12,14.12,0,0,0-8.63,6,15.49,15.49,0,0,0-3,9.34,1.42,1.42,0,0,1-.06.71c-1,2.16-.35,4.19.42,6.26A7.79,7.79,0,0,0,29.08,65.2Z"></path><path d="M48.11,78.56a1.26,1.26,0,0,1-1.73,1.22L33,74.9a1.12,1.12,0,0,1-.74-1.62c.33-.81.94-.8,1.68-.49,2.55,1,5.1,2,7.67,3,1.82.69,3.69,1.26,5.51,2A3.59,3.59,0,0,1,48.11,78.56Z"></path><path d="M38.05,70.29c.88.3,1.52.5,2.16.73,2.54.94,5.09,1.85,7.6,2.86.34.13.48.75.72,1.15-.47.25-1,.83-1.39.71-2.67-.9-5.3-1.94-8-2.93a5.84,5.84,0,0,1-1.43-.56,1.49,1.49,0,0,1-.54-1.15C37.28,70.77,37.81,70.51,38.05,70.29Z"></path><path d="M62.27,6.23a24,24,0,0,1-.48-3,2,2,0,0,1,.59-1.5,1.68,1.68,0,0,1,1.5.12C65,2.56,65.59,5,65.16,6.26a10.4,10.4,0,0,1-.31,1.39c-.22.46-.55,1-1,1.19s-.95-.33-1.2-.69a8.63,8.63,0,0,1-.76-1.82Z"></path><path d="M54.29,41.36a11,11,0,0,1-.13-1.94,1.78,1.78,0,0,1,.63-1.23c.25-.14,1,.16,1.19.48a6.29,6.29,0,0,1,.77,5.38c-.18.65-.68,1.39-1.59,1.12a1.51,1.51,0,0,1-1-1.81C54.2,42.73,54.23,42.09,54.29,41.36Z"></path><path d="M33.5,53.2A11.9,11.9,0,0,1,33,51.15a3.71,3.71,0,0,1,.22-2.22c.21-.32,1.29-.17,2-.08,1.91.24,3.81.55,5.72.84a24.55,24.55,0,0,1,2.7.46c.88.24,1,.89.47,1.67-1.14,1.59-2.3,3.15-3.39,4.77a15.1,15.1,0,0,1-5,4.33c-.94.57-1.62.21-1.77-.88-.08-.59.07-1.2,0-1.79-.06-.78-.22-1.55-.33-2.32s-.23-1.78-.34-2.68Z"></path><path d="M31.25,57.21a4.41,4.41,0,0,0,.48,3.68c.14.25.05.94-.08,1a25.47,25.47,0,0,1-3.31.84A2.27,2.27,0,0,1,28,61.44c.53-2.28,1.15-4.54,1.79-6.8.1-.32.44-.58.66-.87a3.74,3.74,0,0,1,.49.95C31.07,55.5,31.13,56.3,31.25,57.21Z"></path></svg>