<svg xmlns="http://www.w3.org/2000/svg" id="Layer_1" data-name="Layer 1" viewBox="0 0 138.53 150.28"><title>AsimovMarketingIcon-bt-omar bahaa</title><path d="M42.88,2.66H53.44a1.45,1.45,0,0,0,.36,0c1.67-.49,3.32-1.11,5-1.45s2.9-1.3,4.66-1.16c2.46.2,5-.22,7.42,0a50.9,50.9,0,0,1,5.15,1c2,.43,3.76,1.76,6,1.44a1,1,0,0,1,.68.17c1.14,1,2.51.83,3.86.73a1.12,1.12,0,0,1,.36,0c1.49.4,3,.82,4.47,1.2.75.19,1.53.28,2.29.45l6.21,1.37c.07,0,.13.11.2.13,1.82.34,3.64.68,5.46,1,.15,0,.33-.08.47,0l4.44,1.31a17,17,0,0,0,1.7.45c.95.19,1.93.25,2.86.51a19,19,0,0,1,3.1,1.16,12.17,12.17,0,0,1,2.82,1.74c1.89,1.67,3.69,3.46,4.49,5.95.53,1.65,1.47,3.14,1.44,5a9.39,9.39,0,0,0,1.1,3.23c.72,1.82,1.46,3.64,2.23,5.44a9,9,0,0,0,2.89,4c1.93,1.38,2.57,3.63,3.59,5.57A33.46,33.46,0,0,1,138.46,47a2.79,2.79,0,0,1,.07.82c0,1.2-.09,2.4-.07,3.6,0,2.31-1,3.5-3.3,4a24.09,24.09,0,0,0-3.44,1.18l-5.4,2c-1.32.5-2.64,1-4,1.49a25.19,25.19,0,0,0-4,1.66,23,23,0,0,0-3.58,2.91,1.87,1.87,0,0,0-.28,1.22c0,1.36.09,2.72.08,4.07a5.39,5.39,0,0,0,.56,3.22c.38.6,0,1.63.14,2.45a14.27,14.27,0,0,0,.56,2.11,5.27,5.27,0,0,1,.38,1.23c0,1.8-.05,3.59-.08,5.39,0,.32-.1.76.07.93,1.2,1.27.64,2.8.71,4.23,0,.72.07,1.43.09,2.15,0,.32.09.74-.07.94-1.41,1.71-.46,3.7-.73,5.53a11.89,11.89,0,0,1-.54,1.89c0,.14-.24.25-.26.39-.28,1.56-.54,3.12-.79,4.68,0,.23.07.56,0,.7-1.37,1.51-.75,3.34-.83,5-.06,1.28-.38,2.66.77,3.72a.58.58,0,0,1,.12.45c-.46,3,1,5.46,2.32,7.89.9,1.57,2.1,3,3.15,4.46.37.52.73,1,1.06,1.57a46,46,0,0,1,2.82,4.7c.86,1.88,1.41,3.91,2.1,5.87,0,.08,0,.17,0,.24.27.58.93,1.38.75,1.71a10,10,0,0,1-2.56,3.36c-1.35,1-3.14,1.28-4.61,2.11-2.3,1.29-4.74.75-7.14.85-.31,0-.74,0-.92.15-1,1-2.15.57-3.28.65a13.68,13.68,0,0,0-2.46.63c-.08,0-.14.13-.21.12-1.71-.13-3.29.73-4.89.85-3.93.3-7.9.1-11.86.08a2.07,2.07,0,0,1-1.13-.28,4.51,4.51,0,0,0-3.45-.61,1.85,1.85,0,0,1-1.15,0,4.59,4.59,0,0,0-3.66-.7.64.64,0,0,1-.46-.07c-1.28-1.07-2.86-.47-4.23-.82a27.53,27.53,0,0,0-5.25-1.1,6.25,6.25,0,0,1-2.47-.57c-1.52-.81-3.22-.64-4.75-1.07a7.89,7.89,0,0,0-3.32-.51,2.5,2.5,0,0,1-.91-.18,14.24,14.24,0,0,0-2.57-.65c-1.14-.07-2.31.21-3.25-.78-.2-.21-.67-.21-1-.21-2.08,0-4.16,0-6.24,0-.31,0-.73.05-.92-.12-1-.88-2.09-.64-3.19-.63-3.56,0-7.12,0-10.68,0a2.48,2.48,0,0,1-1.33-.41,2.71,2.71,0,0,0-3.44,0,1.7,1.7,0,0,1-2.46-.05c-.12-.11-.28-.25-.41-.24-1.8.15-2.62-1.29-3.74-2.26a2.31,2.31,0,0,0-1.31-.41c-.92,0-1.86.15-2.76,0-2.56-.33-4.92-1.12-6.32-3.55-.3-.52-.59-1-.84-1.6a2.51,2.51,0,0,1,.09-2.72.87.87,0,0,0,.24-.41c.13-2.05,2.1-3.18,2.53-5,.34-1.45,1.52-2.72,1.07-4.37a1,1,0,0,1,.21-.79,3.3,3.3,0,0,0,.61-3.15,1.07,1.07,0,0,1,.1-.8c1.34-1.55.56-3.37.73-5.07a15.86,15.86,0,0,1,.52-2.22,6.59,6.59,0,0,0,.39-1.46c0-1.16-.1-2.32-.13-3.48,0-.31,0-.75.13-.92,1.19-1.14.82-2.58.83-3.95,0-.84,0-1.68,0-2.52,0-.35.07-.85-.13-1-1.24-1.24-.67-2.77-.79-4.2-.09-1-.33-2-.5-3,0,0-.05-.08,0-.11a41.52,41.52,0,0,1,.79-4.48c.45-1.62,1.39-3.06,1.41-4.86a9.83,9.83,0,0,1,.85-2.79c.4-1.19.78-2.4,1.25-3.56.63-1.55,1.36-3.07,2-4.62a4.13,4.13,0,0,0,0-1.06c0-.39-.06-.93.16-1.15.94-1,.72-2.1.7-3.26,0-1.88,0-3.76.05-5.63a2.23,2.23,0,0,0-1.53-2.22c-1.59-.7-3.23-1.29-4.82-2-.57-.25-1-.81-1.56-1.07-1.93-.9-3.9-1.7-5.83-2.6S3.25,47,1.36,46.06c-1.55-.79-1.66-1.66-.9-3.2a17.4,17.4,0,0,1,3.39-4.14c.74-.8,1.22-1.85,1.95-2.67A36.35,36.35,0,0,1,9,32.82a33.19,33.19,0,0,0,8.2-11.77c.88-2,1.57-4.08,2.6-6,.9-1.65,2.25-3.06,3.23-4.68a29.61,29.61,0,0,1,5-5.75,6.43,6.43,0,0,1,5-2.08c3.27.15,6.55,0,9.83,0Zm-6.52,5.8-.19-.56c-1.6.48-3.21,1-4.81,1.46-.21.07-.36.31-.53.48-1.16,1.16-2.32,2.31-3.46,3.49a5,5,0,0,0-.95,1.21c-1.85,3.68-3.7,7.36-5.47,11.07-1.54,3.24-3.27,6.44-6.22,8.47-2.65,1.83-4.63,4.25-7,6.35-.44.4-.87.82-1.34,1.19-1,.76-.9,1.39.21,1.92,1.94.93,3.89,1.84,5.81,2.84s1.83,1,2.85-.91c1.69-3.11,3.44-6.19,5.14-9.29,1.08-2,1.61-4.24,3.39-5.86s1.76-1.79,3.51.12a3.08,3.08,0,0,1,.25,3.32,39.67,39.67,0,0,0-1.42,5,.25.25,0,0,0,0,.12,3,3,0,0,1-.57,2.81A2.41,2.41,0,0,0,25.37,43c0,1.56.55,3.19-.66,4.59a1.16,1.16,0,0,0-.14.69c0,4.64,0,9.28.07,13.91A3.49,3.49,0,0,1,24,64.66a2.88,2.88,0,0,0-.29,1.58,9.35,9.35,0,0,1,0,2.37c-.61,1.73-1.44,3.38-2.17,5.07-.11.25-.18.52-.27.78-.65,1.81-1.3,3.61-1.93,5.42a9.29,9.29,0,0,0-.53,2c-.1.86.3,2-.13,2.56-.94,1.18-.71,2.38-.71,3.64q0,10.5,0,21a6.13,6.13,0,0,1-.38,1.47c-.18.66-.37,1.32-.5,2s-.14,1.41-.31,2.08a45.11,45.11,0,0,0-1.36,4.86,21,21,0,0,1-.53,4.13c-.63,1.88-1.81,3.44-2.4,5.28a3.48,3.48,0,0,0-.19,2,1.89,1.89,0,0,0,1.95,1.3q3.18-.09,6.35-.1a4.94,4.94,0,0,1,1.23.31,7.52,7.52,0,0,0,1.89.52c9.48,0,19,0,28.44,0,1.26,0,2.56.25,3.66-.7.2-.18.61-.15.92-.15,6.4,0,12.8.1,19.19.12a3.27,3.27,0,0,0,1.58-.44,4.33,4.33,0,0,1,3.78-.13,10.94,10.94,0,0,0,2.51.55c.91.07,2.06-.39,2.69,0,1.4.91,2.8.74,4.26.69a3.81,3.81,0,0,1,1,.23c.86.24,1.71.49,2.56.75.42.12.82.27,1.23.41a33.11,33.11,0,0,0,3.54,1.25c1.62.38,3.34.42,4.93.89a29.5,29.5,0,0,1,4.92,2.08c2,1,3.86,2.24,5.81,3.31.45.24,1.2.48,1.54.28a31.48,31.48,0,0,0,3.7-2.59,1.57,1.57,0,0,0,.25-2.17c-.57-1-1-2.07-1.59-3.08a11.6,11.6,0,0,0-1.67-2.74c-2.32-2.3-3-5.32-4-8.25-.4-1.21-1.11-2.35-.81-3.71,0-.09-.1-.21-.15-.32-.5-1.19-1-2.36-1.48-3.56-.1-.24,0-.56,0-.83-.12-.59-.28-1.18-.46-1.76-.1-.34-.43-.68-.38-1,.4-2.63-.57-5.3.71-8,.6-1.28.51-3.08.85-4.64.32-1.41.12-2.82.73-4.33s.56-3.23,1-4.85a10,10,0,0,0,0-3.1,5.56,5.56,0,0,0-.36-1.23,10.43,10.43,0,0,1-.47-1.76c-.16-1.9.6-3.92-.89-5.64-.2-.23-.07-.76-.09-1.16-.08-1.78.64-3.66-.64-5.32-.16-.21-.09-.62-.08-.93,0-1.2,0-2.4.1-3.6.09-1.54-.55-3.2.66-4.59a.92.92,0,0,0,.08-.7,4,4,0,0,1,.63-3.27,10.1,10.1,0,0,0,1-2.88c.36-1.42.63-2.87,1-4.3,0-.15.18-.28.22-.43a10.81,10.81,0,0,0,.58-2.44c0-1.13-.19-2.22.68-3.17a1.4,1.4,0,0,0,.19-.91c-.07-3.51-.16-7-.23-10.53,0-1,.82-1.68,1.65-1.26s1.74,1.09,1.59,2.41a4.94,4.94,0,0,0,.41,1.79c.75,2.33.36,4.68.17,7,0,.07-.11.13-.13.2a11.4,11.4,0,0,0-.47,1.78c-.23,2.15.81,4.44-.79,6.45-.19.23-.08.69-.09,1,0,.56-.05,1.12,0,1.68s.1.91.16,1.37c.43-.1.86-.2,1.28-.32.19-.05.37-.14.56-.21,1.74-.64,3.48-1.27,5.21-1.92.38-.14.73-.33,1.1-.48,2.36-.9,4.73-1.78,7.07-2.74a1.28,1.28,0,0,0,.67-1c-.15-1.41.56-3-.7-4.22-.13-.12-.15-.36-.2-.55a17.93,17.93,0,0,0-4.09-7.69c-1.35-1.51-3.12-2.68-3.85-4.69-.3-.84-.52-1.71-.81-2.56-.37-1.08-.85-2.13-1.15-3.23-.36-1.34-.57-2.72-.86-4.08,0-.19-.18-.36-.24-.55a13.14,13.14,0,0,1-.69-2A5.35,5.35,0,0,0,117,16.38a4.49,4.49,0,0,1-.89-.36c-1.06-.44-2.11-.9-3.18-1.31s-2-.7-3-1c-1.59-.49-3.19-1-4.8-1.41-.29-.08-.64.08-1,.05-1.93-.24-3.73-1.16-5.73-1-.12,0-.25-.24-.39-.25a15,15,0,0,0-3.58-.3c-.53.07-1.14,1-1.38,1.61a35.47,35.47,0,0,0-1,3.71,2.48,2.48,0,0,1-.32.5c-2.06,3.25-5.62,3.78-8.85,4.91-.21.07-.48,0-.71,0-2.4.33-5-.79-7.22.75a.38.38,0,0,1-.24,0c-2.54-.49-5.25.72-7.7-.74a.76.76,0,0,0-.47-.07c-1.86.26-3.39-.77-4.94-1.42a10.77,10.77,0,0,1-5.31-5.45,14.73,14.73,0,0,1-1.84-6,2.88,2.88,0,0,0-1.43-1.88c-.47-.26-1.31.07-2,.22s-1,.52-1.52.52c-3.16,0-6.32,0-9.47,0A3.92,3.92,0,0,0,39,7.61C38.09,7.88,37.22,8.18,36.36,8.46ZM75,7.11l-.11.27a5.24,5.24,0,0,0-1.19,0,9.46,9.46,0,0,0-1.34.51A6.82,6.82,0,0,0,73,9.25a2.3,2.3,0,0,0,.9.54c2.57,1.15,5.14,2.28,7.69,3.47.37.17.61.62.91.94a7.18,7.18,0,0,1-1.28.62c-1.2.34-2.46.54-3.63,1-.38.13-.57.78-.85,1.19.3.2.64.6.9.56,2-.29,4.26.67,6.15-.81a.75.75,0,0,1,.57-.11,4.69,4.69,0,0,0,3.26-.89C89,15,89.87,11.56,89,10.27a1,1,0,0,0-.36-.32A8.48,8.48,0,0,0,84.5,9c-2.11,0-4.14-1.18-6.35-.74,0,0-.07,0-.11-.05Z"></path><path d="M71.23,77.63H68.35c-.12,0-.28.05-.35,0-1.35-1-3.08-.76-4.55-1.38a13.15,13.15,0,0,0-1.35-.42c-.31-.09-.73-.06-.9-.25-1.67-1.84-4.22-2.65-5.4-5.12-1.58-3.34-3.54-6.5-5.25-9.78a11,11,0,0,1-1-3.13,5.75,5.75,0,0,1,.3-2.06,12.67,12.67,0,0,0,.55-2.35,5.74,5.74,0,0,1,.52-3.07c1.1-2,1.85-4.2,2.75-6.31a2.4,2.4,0,0,1,.32-.64c2.19-2.57,4-5.53,7.56-6.6,2-.61,3.82-1.72,6-1.77a.54.54,0,0,0,.34-.08c1.17-1.1,2.61-.69,4-.75a3.15,3.15,0,0,1,2.57.6,2.06,2.06,0,0,0,1.49.23A9.21,9.21,0,0,1,82,36.16a34.8,34.8,0,0,1,7.07,4.62,10.26,10.26,0,0,1,3.16,5.47,35.11,35.11,0,0,0,1.52,4.58,19,19,0,0,1,1,8.39,9.63,9.63,0,0,1-.93,2.52c-.92,2.56-1.52,5.27-3.91,7.06-1,.75-1.73,1.91-2.75,2.67-2.46,1.86-4.9,3.77-8.06,4.46a30.44,30.44,0,0,0-3.65,1.36,5,5,0,0,1-1.36.34c-1,.05-1.92,0-2.88,0Zm3-27.3c.4-2.44-.84-4.63-1.76-6.88A1.45,1.45,0,0,0,70.27,43a4.19,4.19,0,0,0-1.07,1.4c-1.21,2.68-2.33,5.39-3.55,8.06C64.81,54.29,63.8,56,63,57.82A5.43,5.43,0,0,0,62.51,60a1.28,1.28,0,0,0,1.94,1.16,3.74,3.74,0,0,0,1.35-1.27c.49-.77.72-1.7,1.22-2.46A3,3,0,0,1,68.5,56.2c2-.52,3.19.13,3.85,2.08a5.78,5.78,0,0,1,.05,2.12,2.33,2.33,0,0,0,2.42,2.49c.37,0,1-.4,1-.61a27.14,27.14,0,0,0-.28-3.6c-.09-.64-.43-1.25-.5-1.88-.1-.91.3-2.1-.14-2.68C74,52.92,74.27,51.72,74.27,50.33Zm3.07-1A10.17,10.17,0,0,0,79,47.49c.25-.53-.78-1.49-1.51-1.29S76,46.94,76,47.37,76.7,48.48,77.34,49.37Z"></path><path d="M104.28,123.24c-.17-2.13-.35-4.26-.47-6.4,0-.32.27-.65.42-1,.29.17.72.27.84.51.61,1.35,1.63,2.6,1.05,4.27a1.47,1.47,0,0,0,.29,1.22,3,3,0,0,1,.59,2.55,7.26,7.26,0,0,0,.48,2,5.75,5.75,0,0,1,.28,2c-.06.37-.67.8-1.1.89-.22.05-.69-.55-.86-.94-.6-1.39-1.13-2.81-1.67-4.23a4.29,4.29,0,0,1-.14-.81Z"></path><path d="M104.83,106.17a9.9,9.9,0,0,1-.65,2.06c-.3.53-.79.55-1.17-.12a2.93,2.93,0,0,1,.27-3.83.79.79,0,0,1,.7-.27,1.22,1.22,0,0,1,.67.69,5.53,5.53,0,0,1,0,1.41Z"></path><path d="M71.48,51.72A6,6,0,0,1,70,52.81c-.2.06-.9-.72-.85-.8a5,5,0,0,1,1.2-1.31A8.66,8.66,0,0,1,71.48,51.72Z"></path></svg>