<svg xmlns="http://www.w3.org/2000/svg" id="Layer_1" data-name="Layer 1" viewBox="0 0 138.53 137.97"><title>AsimovMarketingIcon-bt-omar bahaa</title><path d="M99.33,17.34c2.52-.51,4.34.66,6.36,2,1.39.94,2.19,2.39,3.61,3.19.24.13.48.43.71.42a13.11,13.11,0,0,1,5.24,1c.76.28,1.61.35,2.36.65a49.67,49.67,0,0,1,5.15,2.18,46.37,46.37,0,0,1,4.8,3.06,19.09,19.09,0,0,1,3.79,3c2.05,2.45,4.23,4.89,5.34,8a29.12,29.12,0,0,1,.87,4.09c0,.19,0,.46.13.57,1.1,1.13.78,2.53.79,3.86q0,5.88.05,11.76a1.5,1.5,0,0,1-.17.92c-1,1.08-.69,2.37-.72,3.63a7.35,7.35,0,0,1-.54,2c-.09.26-.39.51-.36.74.25,2.08-.89,3.75-1.48,5.61a36.65,36.65,0,0,1-2.43,6.37c-.72,1.34-.92,3-1.68,4.28-1.28,2.23-2.82,4.3-4.25,6.44l-.47.69c-1.36,2.1-2.57,4.31-4.1,6.28-2,2.57-3.86,5.26-6.42,7.36-.61.5-.9,1.39-1.47,2-1.57,1.62-3.21,3.18-4.84,4.74-.25.24-.67.3-.93.52-2.36,2.07-4.68,4.18-7.06,6.23-.5.44-1.21.62-1.73,1a7.77,7.77,0,0,0-1.11,1.3,5.17,5.17,0,0,0,1,.82,14.2,14.2,0,0,0,2.42.85,3,3,0,0,1,2,4.14,10.81,10.81,0,0,1-5.5,5.42,7,7,0,0,1-1.14.29q-1.22.33-2.43.69c-.07,0-.15.12-.2.11-1.62-.39-2.93,1-4.42.85a30.23,30.23,0,0,1-4.79-1.27c-1.2-.36-2.38-.78-3.57-1.17-.23-.07-.52,0-.69-.17-1.85-1.4-4-.95-6-.8-1.15.09-2.23,1.1-3.35,1.69-1.57.83-3.1,1.78-4.74,2.45a54,54,0,0,1-5.34,1.63,6.57,6.57,0,0,1-1.18.07,3.11,3.11,0,0,0-1.16.16,6.89,6.89,0,0,1-6.89-.07c-1.45-.72-3-1.21-4.46-1.94a14.15,14.15,0,0,1-3.06-2A3.86,3.86,0,0,0,42.56,132a12.88,12.88,0,0,0-6,1.62s-.07.06-.1.05c-1.86-.21-3.53.62-5.3.89a14.07,14.07,0,0,1-2.15,0,8.21,8.21,0,0,1-6.53-2.65,5.45,5.45,0,0,1-.79-5.2c.49-.92.85-2,2.08-2.32a2.2,2.2,0,0,0,1-.85c.35-.49,1-1.29.84-1.51a3.49,3.49,0,0,0-1.83-1.5,3.78,3.78,0,0,0-3.54.57.43.43,0,0,1-.21.11,38.52,38.52,0,0,1-6.79.83,4.23,4.23,0,0,1-3.43-2.45,3.23,3.23,0,0,1,.06-3.81C11,114.1,12,112.53,14.07,112a1.85,1.85,0,0,0,.74-.37,8.87,8.87,0,0,0,.77-1c-.37-.13-.74-.28-1.11-.38s-.84-.17-1.26-.28-.62-.35-.88-.3c-2.28.41-3.79-1.27-5.6-2.06-1.45-.64-2-3.43-1.17-4.79a8.22,8.22,0,0,0,.67-1.28c.59-1.7,2-2.13,3.53-2.63a9.06,9.06,0,0,0,2.47-1.73c.12-.09.1-.47,0-.67-.47-1.39-1-2.76-1.47-4.14a1.87,1.87,0,0,1,0-.94,2.94,2.94,0,0,0-.52-2.72,1.67,1.67,0,0,1-.27-1c0-5.16,0-10.32,0-15.48,0-.27,0-.63.11-.81,1.29-1.66.47-3.55.65-5.32a11.22,11.22,0,0,1,.43-1.8c.06-.22.28-.4.34-.63.32-1.43.54-2.89.94-4.3A22.08,22.08,0,0,1,13.78,56c1.17-2.45,2.42-4.87,3.66-7.29a4.66,4.66,0,0,1,.85-1.29c.7-.66.67-1.46.86-2.32.35-1.71.76-3.37,1-5.12a21,21,0,0,1,1.51-4.58,20.89,20.89,0,0,0,1.44-3.71c.33-2.09,1.46-3.78,2.37-5.57.72-1.41,1.66-2.7,2.48-4.06,1.82-3,4.55-5.21,6.87-7.77,1.41-1.55,3.26-2.28,5-3.22C41.81,10,43.89,9,46,8a43.45,43.45,0,0,1,4.27-1.39c.08,0,.18,0,.24,0,1.62-1.34,3.51-.53,5.29-.7a12.1,12.1,0,0,0,1.92-.51c.11,0,.2-.19.3-.19a67.44,67.44,0,0,1,7.53.17c1,.12,1.44.29,1.84-.66A8.65,8.65,0,0,1,72.25.16,2.46,2.46,0,0,1,73.19,0c4,0,8.08-.08,12.11,0A12.38,12.38,0,0,1,88.57,1a16.19,16.19,0,0,1,5.12,2.64,8.68,8.68,0,0,1,1.76,2.05,24.4,24.4,0,0,1,1.29,2.43,4.13,4.13,0,0,1,0,4.3c-.51.86-.93,1.76-1.4,2.64-.66,1.24-.28,2.09,1.14,2.26A25,25,0,0,0,99.33,17.34ZM49.86,12.21a11.42,11.42,0,0,0-3.28.25,38.34,38.34,0,0,0-4.72,2.34,19.2,19.2,0,0,0-4.14,2.34,59.71,59.71,0,0,0-5.12,5.65,28.86,28.86,0,0,0-1.85,2.76c-1,1.59-2.37,2.92-2.82,4.94a22.91,22.91,0,0,1-2.27,5.31A7.65,7.65,0,0,0,24.49,40c0,.37.05.9.28,1.05a1.34,1.34,0,0,0,1.08-.15C27,40.22,28,39.4,29.5,39.73c.3.06.7-.31,1.05-.51A3,3,0,0,1,33.41,39a19.17,19.17,0,0,0,2.35.69c.42.12.84.25,1.26.35.63.15,1.26.29,1.9.42.3.06.67,0,.92.12a72.35,72.35,0,0,1,6.27,3.67c2.1,1.49,3.46,3.71,4.86,5.85a22.07,22.07,0,0,1,1.59,2.51c1.18,2.42,2.28,4.88,3.4,7.34a4.05,4.05,0,0,1,.17.8,14.26,14.26,0,0,0,.9,3.94,6,6,0,0,1,.58,3.44c0,.5-.11,1.17.16,1.49a4.05,4.05,0,0,1,.69,3.06c-.06,1.4-.1,2.8-.1,4.19a4.32,4.32,0,0,0,.31,1.25c.52,1.61,1.06,3.21,1.59,4.82a1,1,0,0,1,0,.24c0,.76,0,1.52,0,2.28-.12,1.69.54,3.53-.91,5-.17.18-.11.61-.11.93,0,5.28,0,10.55,0,15.83,0,1.34.41,2.73-.75,3.83a.68.68,0,0,0-.13.57c.51,2-.81,4.26.83,6.11a.64.64,0,0,1,.09.46,4.3,4.3,0,0,0,.83,3.81,1,1,0,0,1,.1.81c-.63,2,.56,3.69.89,5.53a1.14,1.14,0,0,0,1.87.84c1-.76,2.18-1.4,3.2-2.19a18.69,18.69,0,0,0,1.69-1.75c.79-.8.51-1.54,0-2.36a2.31,2.31,0,0,1-.18-1.16c0-1.92,0-3.84,0-5.76,0-1.19-.21-2.39.77-3.38.18-.18.18-.6.18-.91,0-1.52-.08-3-.08-4.55a2.07,2.07,0,0,1,.24-1.25,3.24,3.24,0,0,0,.67-2.57,25.27,25.27,0,0,1-.08-4.43,35.66,35.66,0,0,1,1.15-4.72c0-.11.18-.19.2-.29.4-1.56.79-3.12,1.18-4.68,0,0,0-.08,0-.11.31-1.76,1.06-3.44.87-5.27,0-.13.21-.26.24-.4.19-.74.36-1.49.53-2.24s.28-1.36.44-2a8.64,8.64,0,0,0,.44-2c0-1.2-.29-2.38.67-3.4.21-.21.2-.67.19-1,0-3.44,0-6.88-.09-10.32,0-1.31-.2-2.62.81-3.73.22-.24.19-.76.19-1.15,0-1.08,0-2.16-.07-3.23A6.58,6.58,0,0,0,75.74,53a15.71,15.71,0,0,1-.58-2.11c-.28-2.07.79-4.32-.8-6.22a9.8,9.8,0,0,0-.86-4.76c-.26-.75,0-1.7-.7-2.4a.84.84,0,0,1-.21-.66,3.94,3.94,0,0,0-.51-2.61c-1.27-2.93-2.39-5.94-3.65-8.88a16.28,16.28,0,0,0-4.82-6.89c-1.09-.85-2.24-1.63-3.34-2.47C57.19,13.63,53.85,12.05,49.86,12.21ZM32.36,43.68c-3.39-.41-6.25,1.14-8.48,3.76a37.88,37.88,0,0,0-4.07,6.1c-1.07,1.93-1.7,4.11-2.74,6.06a4,4,0,0,0-.66,2.89.51.51,0,0,1-.11.45c-1.09,1-.86,2.36-.84,3.6a3,3,0,0,0,.68,2c1.95,1.79,3.6,3.87,5.87,5.41,1.77,1.2,3.58,2.31,5.39,3.45,2.29,1.44,5,1.65,7.36,2.69a21.12,21.12,0,0,0,2.18.81c1.55.48,3.12.89,4.64,1.42.39.14.66.63,1,1a12.09,12.09,0,0,1-1.36.76,7.16,7.16,0,0,1-2,.57,14.42,14.42,0,0,1-3.6-.09A45.1,45.1,0,0,1,31,83.18s-.08,0-.12,0a12.49,12.49,0,0,1-2-.41c-1-.39-1.95-.91-2.92-1.38-3-1.47-6.09-2.84-8.21-5.61a3.24,3.24,0,0,0-.84-.85c-.5-.31-1.31-.88-1.56-.71a5.41,5.41,0,0,0-1.36,1.83c-.13.23,0,.62,0,.94,0,3.12-.12,6.24,0,9.36a34.48,34.48,0,0,0,1,5s.06.07.07.1c.15.68.3,1.35.46,2a8.48,8.48,0,0,0,.28,1.13c.46,1.33.92,2.66,1.44,4a4.43,4.43,0,0,0,.91,1.72,40.53,40.53,0,0,0,3.61,2.9c2.28,1.65,4.6,3.25,6.88,4.89,1.68,1.2,3.32,2.44,5,3.66l2,1.45c1.33,1,2.67,1.87,4,2.83s2.33,1.78,3.51,2.64c1.77,1.28,3.55,2.53,5.33,3.79.19.14.37.29.57.42,1.32.82,2.64,1.62,3.94,2.46a28.54,28.54,0,0,1,2.7,1.91c.6.5,1.13,1.22,1.93.58a1.4,1.4,0,0,0,0-2.14,3,3,0,0,1-.6-2.45,11.6,11.6,0,0,0-.21-2.56,13.78,13.78,0,0,1-.49-2.12c0-1.24.28-2.47-.76-3.49a1.6,1.6,0,0,1-.23-1c0-2.48,0-5,.05-7.44,0-1.11.2-2.24-.71-3.16-.17-.16-.16-.53-.16-.8,0-5.28,0-10.56.07-15.84,0-1.13.14-2.22-.72-3.16a1.6,1.6,0,0,1-.21-1c0-1.44,0-2.88.08-4.32s.23-2.7-.77-3.88c-.25-.29-.12-.92-.09-1.39.08-1.15.32-2.31-.56-3.31a1,1,0,0,1-.18-.79c.72-1.89-.62-3.39-1.08-5a47.9,47.9,0,0,0-2.95-6.76C46.57,54,45,50.83,42.31,48.46a54.91,54.91,0,0,0-4.64-3.7,4.77,4.77,0,0,0-4.12-1.1A4.87,4.87,0,0,1,32.36,43.68ZM90.49,67.84l.41.12-.41.89c-.28-.18-.7-.3-.82-.56a4.14,4.14,0,0,1-.51-1.68c0-2.8,0-5.6.07-8.39,0-1.23.33-2.48-.75-3.48-.16-.15-.15-.53-.15-.8,0-2.08.13-4.16.12-6.24A6.2,6.2,0,0,0,88,46.15c-.19-.66-.64-1.39-.5-2,.55-2.33-1.06-4.33-.86-6.59,0-.18-.27-.38-.37-.6a8.18,8.18,0,0,1-.36-1,28.62,28.62,0,0,0-1.31-3.92,58.39,58.39,0,0,0-3.23-5.57,37.19,37.19,0,0,0-3-4c-2.4-2.83-5.81-4.27-8.83-6.23-.24-.16-.71.05-1.08.08a3.19,3.19,0,0,0,.28,1.16c.78,1,1.72,1.94,2.48,3,1.77,2.42,3.65,4.77,4.29,7.83.22,1.07.74,2.08,1,3.15.36,1.38.61,2.79.91,4.19,0,.14.19.27.23.41a19.45,19.45,0,0,1,.57,2.34c.1.74-.25,1.74.12,2.21.93,1.16.65,2.4.71,3.65.09,1.75-.56,3.62.9,5.14.11.11.07.38.07.58,0,3.68,0,7.36,0,11,0,1.31.27,2.63-.8,3.73-.21.21-.19.68-.19,1,0,2.32.08,4.64.07,7a5.2,5.2,0,0,1-.37,1.33A10.84,10.84,0,0,0,78.21,76c-.15,1.53.55,3.19-.73,4.56-.11.12-.08.38-.09.58,0,1.2-.12,2.39-.11,3.59a1.34,1.34,0,0,0,.45,1c.17.12.71-.06.93-.27A8.78,8.78,0,0,1,86,82.71c.32,0,.66-.09,1,0,1.41.31,3,.37,4.18,1.07A37.89,37.89,0,0,1,96,87.53c.43.35.71.9,1.17,1.19a2,2,0,0,0,1.47.37c.28-.08.38-.83.5-1.3a18.33,18.33,0,0,1,.51-2.22c.47-1.16,1.43-2.15,1-3.58-.07-.24.19-.57.28-.87a10.39,10.39,0,0,0,.61-2.21c.11-1.52-.45-3.12.81-4.45.15-.16.12-.53.11-.81q0-9.16-.06-18.35c0-1.37.35-2.82-.79-4a.75.75,0,0,1-.11-.46c0-1.64.42-3.36-.89-4.76.5-1.35-.41-2.44-.7-3.64a10.42,10.42,0,0,0-1-3.37c-1.92-2.81-2.61-6.19-4.55-9C92.9,28,91.69,25.8,89.77,24.05c-1.71-1.55-3.22-3.34-5-4.86a35.51,35.51,0,0,0-4.89-3.56c-2.56-1.54-5.22-2.91-7.87-4.32a1.89,1.89,0,0,0-1.23-.18c-.29.08-.48.53-.72.81.28.22.58.65.84.62a2.56,2.56,0,0,1,2.18,1,5,5,0,0,0,1.62,1.21,12.94,12.94,0,0,1,5.2,3.73c1.58,1.77,3.55,3.17,4.65,5.42.86,1.76,2.21,3.28,3.18,5a22.05,22.05,0,0,1,1.54,3.83,20.94,20.94,0,0,1,.5,2.38c.35,1.69.69,3.38,1.06,5.06a10.78,10.78,0,0,1,.51,2c0,1.27-.26,2.54.78,3.61.22.23.19.76.19,1.15q0,7,0,14c0,.39,0,.92-.17,1.15C90.51,63.82,92.17,66.22,90.49,67.84ZM104.6,91.91h0c0,1.92,0,3.84,0,5.76a2.24,2.24,0,0,0,1.5,2.22c.41.16,1.17-.51,1.71-.88a8.18,8.18,0,0,0,1-1c1.24-1.24,2.53-2.44,3.69-3.76.81-.92,1.42-2,2.13-3s1.52-1.93,2.18-3c1.42-2.15,2.82-4.32,4.13-6.53A30.13,30.13,0,0,0,123,77.56c.58-1.46,1-3,1.44-4.51a27.49,27.49,0,0,0,1-3c.27-1.46,1.35-2.73,1-4.33,0-.12.16-.27.2-.42l1.49-5.21a1,1,0,0,0,0-.24c0-3.16-.09-6.32,0-9.47a12.1,12.1,0,0,0-1.44-5.15c-.77-1.81-2.06-3.39-3-5.14a2.2,2.2,0,0,0-2.47-1.42,1.59,1.59,0,0,1-1.15-.16c-1-.84-2.15-.7-3.3-.75s-1.44.4-1.42,1.42c.06,3.2.08,6.4.1,9.59,0,.32,0,.74-.13.93-1.08,1.16-.5,2.57-.71,3.86-.3,1.78-.82,3.51-1,5.34-.12,1.17-.88,2.25-1.26,3.4-.68,2.13-1.17,4.32-2,6.4-1,2.48-2.08,4.89-3.23,7.28-.45.94-1,1.76-.73,2.89.07.25-.2.58-.29.88a19.71,19.71,0,0,0-.6,2.22c-.13.86.17,1.91-.23,2.55a4.88,4.88,0,0,0-.63,3C104.63,89,104.6,90.43,104.6,91.91ZM70.75,119.63c0,.76,0,1.52,0,2.28.1,1.5,1,2,2.29,1.39a7.16,7.16,0,0,1,1.49-.31,4.68,4.68,0,0,0,1.36-.34c1.37-.77,2.65-.51,4.09-.09a6.61,6.61,0,0,0,4,.12c1.41-.56,2.45-2,3.77-2.85a10.69,10.69,0,0,0,3.79-3.77c.76-1.35,2.09-2.39,2.91-3.72,1.52-2.46,3.89-4.52,3.86-7.75a.73.73,0,0,1,.14-.33,4.16,4.16,0,0,0,0-4.79,1,1,0,0,1-.21-.66c.38-1.28-.41-2.2-.88-3.24-.65-1.4-1.06-2.92-1.82-4.25a30.2,30.2,0,0,0-2.38-2.85C91.58,86.34,89,86,86.87,84.83c-.1,0-.28-.09-.34,0a5.66,5.66,0,0,1-3.76,1c-.1,0-.19.14-.3.2-2.12,1.05-3.53,2.94-5.27,4.43-2.27,2-2,4.88-3.09,7.24-.07.16.08.41,0,.59-.34,1.51-.69,3-1,4.51,0,.07-.12.12-.14.2a12,12,0,0,0-.57,2.09c-.13,1.5.54,3.12-.74,4.45-.16.16-.13.53-.12.81,0,1.11,0,2.23.07,3.35,0,.67.27,1.56,0,2C70.57,116.89,70.71,118.24,70.75,119.63ZM105.06,27v0c-2,0-3.92,0-5.88,0-1,0-1.51.59-1.08,1.33a43.16,43.16,0,0,0,3.05,4.83c.8,1.07,1.54.9,2.74.39a14.25,14.25,0,0,1,4.62-1.32c3.55-.19,7.12-.09,10.67,0a9.49,9.49,0,0,1,2,.55,12.52,12.52,0,0,0,1.92.37,2.09,2.09,0,0,0,.26-.93c-1.42-.88-2.87-1.69-4.33-2.51a1.7,1.7,0,0,0-.35-.06c-1.27-.37-2.57-.7-3.82-1.13-2-.7-3.85-1.8-6.11-1.55A32.76,32.76,0,0,1,105.06,27ZM75.56,3.65l-.11.29c-.71,0-1.43,0-2.15,0s-1,.68-1,1.37.15,1.11.94,1.28a20,20,0,0,1,3.85,1.09,24,24,0,0,1,7.72,5.05c.3.3,1.08.57,1.33.4a1.69,1.69,0,0,0,.55-1.38,2.31,2.31,0,0,1,.56-2.07,1.36,1.36,0,0,0,0-1.34,6.75,6.75,0,0,0-2-1.63c-1.94-1-3.86-2-6.13-1.91a1.1,1.1,0,0,1-.34-.1Zm33,40.59-.39-.09a4.37,4.37,0,0,0-.77-3.73,1.57,1.57,0,0,0-2.53-.64c-1.19.74-1.3,1.31-.49,2.42.09.13.25.28.24.41a15.23,15.23,0,0,0,.78,4.77c.25.91.13,1.94.76,2.76a7.14,7.14,0,0,0,.94.88,7.71,7.71,0,0,0,.37-1.28,20.26,20.26,0,0,1,.09-2.35A31.15,31.15,0,0,1,108.52,44.24ZM94.19,10.33l.33-.1A23.45,23.45,0,0,0,93,6.83c-.21-.34-1.14-.4-1.7-.32a1.28,1.28,0,0,0-.79,1c0,1.65.27,3.23-.66,4.85-.41.71-.39,1.68-1.26,2.22-.21.14-.4.78-.29.9a5.15,5.15,0,0,0,1.48,1.1c.17.08.64-.23.84-.46.85-1,1.57-2.17,2.49-3.12C93.89,12.19,94.49,11.48,94.19,10.33Zm39.95,56c-.25-.36-.51-.75-.77-1.14a5.34,5.34,0,0,0-.89,1,11.55,11.55,0,0,0-.56,1.56q-1,2.79-2.08,5.56c-.13.37-.29.74-.45,1.1-.52,1.1-1.07,2.19-1.57,3.31a2.6,2.6,0,0,0-.37,1.3c.06.37.53.67.81,1a8,8,0,0,0,.73-1c.31-.6.54-1.25.84-1.86.18-.38.48-.72.65-1.12.77-1.78,1.55-3.56,2.24-5.37C133.24,69.26,133.63,67.85,134.14,66.29Zm-7.6,17.92a6.25,6.25,0,0,0-.59-.89.61.61,0,0,0-.51.14,15.77,15.77,0,0,0-1.15,2.19c-.09.23.15.64.34.91.06.09.54,0,.62-.07C125.7,85.77,126.1,85,126.54,84.21Zm.63-3.88a12.42,12.42,0,0,0-.93,1.57c0,.12.32.41.5.61a10.69,10.69,0,0,0,1-1.2C127.83,81.22,127.51,80.88,127.17,80.33Z"></path><path d="M5.19,111a3,3,0,0,1-1.71,2.74c-1,.45-1.7-.22-2.36-.93-1.39-1.48-1.53-2.62-.19-3.47a3.47,3.47,0,0,1,2-.17,2,2,0,0,1,1,.57C4.38,110.15,4.77,110.61,5.19,111Z"></path><path d="M22.37,60.94a5,5,0,0,0,0-.95A7.39,7.39,0,0,1,24,53.84c1.09-1.35,2.3-2.85,4.42-2.68a1.62,1.62,0,0,0,1-.22c1.48-1.13,2.89-.58,4.26.14a13.62,13.62,0,0,1,4.52,3.26c1.14,1.39,2.37,2.71,2,4.72a.65.65,0,0,0,.07.47c1.38,1.46.59,3.28.81,4.93a3.5,3.5,0,0,1-.39,1.44c-.09.26-.34.49-.36.74-.3,3-2.8,4.31-4.81,5.85A4.67,4.67,0,0,1,30,72.7c-.67-.41-1.61-.4-2.31-.79a7.26,7.26,0,0,1-2.33-1.79,47.9,47.9,0,0,1-2.81-4.55,2.07,2.07,0,0,1-.19-1c0-1.2,0-2.4,0-3.6Zm9.72-3.52.42-.25c-.33-.44-.57-1.1-1-1.27-.73-.3-.92.41-1.18,1-.43,1-1,1.9-.69,3.06.06.19-.13.45-.2.68-.55,1.89-1.11,3.78-1.66,5.67a.63.63,0,0,0,0,.36c.11.31.19.78.41.88a1,1,0,0,0,.92-.29c.51-.6.91-1.3,1.38-1.93.27-.36.64-1,.88-.93a2,2,0,0,1,1.18.85c.35.51.44,1.21.8,1.72.22.32.74.44,1.13.65a3.49,3.49,0,0,0,.41-1.14c0-1.7-1.45-3.09-1-4.9,0-.16-.28-.38-.37-.59C33,59.79,32.55,58.6,32.09,57.42Zm3.8,1.43a10,10,0,0,0-1.58-1.24c-.09,0-.51.51-.78.8a12.16,12.16,0,0,0,1.36,1.13C35,59.6,35.36,59.22,35.89,58.85Z"></path></svg>