<svg xmlns="http://www.w3.org/2000/svg" id="Layer_1" data-name="Layer 1" viewBox="0 0 95.93 89.22"><title>AsimovMarketingIcon-bt-omar bahaa</title><path d="M.14,72.12c0-1.44,0-2.88,0-4.32A1.68,1.68,0,0,1,.23,67c1-1.63.64-3.42.65-5.15,0-7.76,0-15.52,0-23.28a2.06,2.06,0,0,0-.06-.94c-1.19-2.06-.56-4.3-.67-6.46-.08-1.56,0-3.12,0-4.68a9.67,9.67,0,0,1,.18-1.3A29.82,29.82,0,0,0,.87,21.7C1,18.47,1.16,15.23,3,12.46A8.33,8.33,0,0,1,5.94,9.78,12.6,12.6,0,0,1,11.39,8.3a45.56,45.56,0,0,0,5-.52A4.48,4.48,0,0,0,19.1,5.94c1.63-2.47,4-3.56,6.69-4.3,1.52-.42,3.06-.82,4.59-1.18A7.84,7.84,0,0,1,31.57.41C32.94.28,34.3,0,35.67,0c2.17,0,4.34.12,6.51.23.54,0,1.09.25,1.63.25C45.89.47,48,.4,50.05.38A2.29,2.29,0,0,1,51.1.52c1.86.93,3.82.62,5.77.54.5,0,1,.22,1.51.23,1.44,0,2.89.05,4.33,0,.62,0,1.24-.19,1.86-.2,2.26-.07,4.5.31,6.75-.55a6,6,0,0,1,3.74,0,12,12,0,0,0,4.35.51,10.64,10.64,0,0,1,1.84.28c1.45.22,2.91.37,4.34.66A10.55,10.55,0,0,1,94,9.27,28.14,28.14,0,0,1,95.38,21.4c-.15,1.87.05,3.91-.52,5.61-.85,2.59-.62,5.13-.57,7.67,0,2.37.79,4.71,1,7.08.18,1.7,0,3.43.11,5.14,0,.85.26,1.7.34,2.55a15.77,15.77,0,0,1,.13,2.37c-.12,2-.21,4.11-.36,6.15a85.86,85.86,0,0,1-1.2,9c-.8,4.27-3,7.39-6.86,9.17a17.23,17.23,0,0,1-4.41,1,1.34,1.34,0,0,0-1.29,1.43c-.14,3.11-1.84,5.27-4.31,6.91a22.26,22.26,0,0,1-7.94,2.89c-4.06.86-8.19.64-12.31.65-1.26,0-2.55.19-3.71-.6a2,2,0,0,0-1.05-.15l-32.88,0a2.88,2.88,0,0,0-1.18.11c-2.6,1.23-5.41.77-8,.56a10.14,10.14,0,0,1-7.2-4.09c-1.81-2.31-2.34-5.06-3-7.74-.39-1.58-.07-3.34-.07-5Zm23-58.73,0-.22c-3.32.24-6.67.35-10,.77a7.44,7.44,0,0,0-5.26,2.81,18.41,18.41,0,0,0-3.28,9.91C4.31,30,4.49,33.45,4.5,36.85a8.54,8.54,0,0,0,.24,1.4c.11.66.26,1.32.33,2,.24,2.31-.62,4.71.58,7a1.26,1.26,0,0,1,0,.59c0,3.11-.05,6.23-.07,9.35,0,.72.3,1.58,0,2.12-.82,1.45-.48,2.95-.56,4.45-.13,2.32.2,4.64-.43,7-.37,1.41.39,3.1.43,4.66A8.42,8.42,0,0,0,8,81.29a10.18,10.18,0,0,0,6.7,2.63c3.75.15,7.52-.24,11.29-.4.11,0,.23-.07.34-.09,1.08-.19,2.16-.43,3.24-.54,2.36-.24,4.72-.49,7.08-.55,1.11,0,2.23.46,3.37.54a26.86,26.86,0,0,1,5.88.56c2.19.63,4.63.42,7,.53,1.55.07,3.2-.27,4.63.15A7.72,7.72,0,0,0,63,84.05a1.88,1.88,0,0,1,1-.15c2,.44,3.71-.32,5.48-.86a9.3,9.3,0,0,0,3.19-1.56c3-2.44,3.52-6.07,4.14-9.54a34.45,34.45,0,0,0,.11-6.1,2.45,2.45,0,0,0-.14-1.29c-.87-1.22-.67-2.58-.67-3.93q0-15.52,0-31.06A8.74,8.74,0,0,1,76.42,28,26.09,26.09,0,0,0,77,25.16a25.12,25.12,0,0,0,0-3.47A7.72,7.72,0,0,0,73.22,15a13.33,13.33,0,0,0-6.64-1.57c-4.93,0-9.86.41-14.79.35-7-.1-14,.52-21-.35A61.29,61.29,0,0,0,23.1,13.39ZM88.23,56.27c-.45-2.42.52-5.31-.6-8.06a2.1,2.1,0,0,1,0-.71c0-2.48,0-5,0-7.43a9.41,9.41,0,0,1,.15-1.3c.12-.81.33-1.62.37-2.44.06-1.51-.41-3.22.14-4.5.84-2,.55-3.92.63-5.88a4.45,4.45,0,0,0-.16-2.23,6.24,6.24,0,0,1-.58-3.83c.17-2.05-1-3.55-2.13-5a.9.9,0,0,0-1.54-.06,5.75,5.75,0,0,0-1.62,3.74c0,2.36.57,4.79-.55,7.08a1.89,1.89,0,0,0-.06.83c0,5.6,0,11.19,0,16.79,0,1.7.34,3.44-.54,5.06-.15.28,0,.71,0,1.06-.18,3,.63,6.13-.53,9.11a1.92,1.92,0,0,0,0,.72,32.6,32.6,0,0,1,0,4.31,5.35,5.35,0,0,0,2,5.16c.72.61,1.24.76,2,.22,2.12-1.54,2.8-3.85,3.07-6.24A60.55,60.55,0,0,0,88.23,56.27Z"></path><path d="M42.21,52.37c-.23.06-.39.08-.54.13L37,54.19A4.28,4.28,0,0,0,34,57.8a35.61,35.61,0,0,1-1.12,4.41,2.59,2.59,0,0,1-4.25,1,2.81,2.81,0,0,1-.71-3.4c1-2.37,1.59-4.92,2.35-7.39.93-3.09,1.91-6.15,2.76-9.26.51-1.9.62-3.93,1.24-5.79a52.25,52.25,0,0,1,2.6-5.84,2.79,2.79,0,0,1,.8-.88c2.26-1.78,4.53-1,5.43,1.79,1.51,4.7,3,9.4,4.53,14.09.33,1,.92,1.86,1.28,2.83,1.15,3.1,2.25,6.22,3.37,9.33a4.42,4.42,0,0,1,.49,1.46,4.13,4.13,0,0,1-.48,2.29c-1.91,2.34-3.65,2.09-5-.81a29.4,29.4,0,0,1-1.7-5.34,5.19,5.19,0,0,0-2.54-3.58A5.82,5.82,0,0,0,42.21,52.37Zm-2.5-4.14c2.13,0,2.46-.52,1.61-2.52a4.4,4.4,0,0,1-.23-1c-.19-1-.32-2-.59-3-.09-.35-.55-.59-.84-.88-.21.3-.54.56-.63.89-.38,1.42-.66,2.87-1,4.3C37.51,47.92,37.72,48.23,39.71,48.23Z"></path><path d="M70.09,70.64c0-.2-.1-.45,0-.59.43-.68.92-1.32,1.38-2,.55.45,1.35.8,1.6,1.39.62,1.46,1.38,2.94.35,4.65-.62,1-.68,2.34-1.22,3.42a4.82,4.82,0,0,1-4.29,3c-1,0-1.93.52-2.9.52a2.06,2.06,0,0,1-1.64-.85,2.09,2.09,0,0,1,.47-1.89A10.14,10.14,0,0,1,67.1,76.7c1.68-.44,2.37-1.11,2.4-2.85a5.68,5.68,0,0,1,.27-1.26l.51-1.9Z"></path><path d="M51.81,33.41a2.57,2.57,0,0,1,2.85,2.39,2.69,2.69,0,0,1-2.51,2.68c-1.9,0-2.79-.76-2.85-2.54S50,33.47,51.81,33.41Z"></path></svg>