<svg xmlns="http://www.w3.org/2000/svg" id="Layer_1" data-name="Layer 1" viewBox="0 0 78.92 90.77"><title>AsimovMarketingIcon-bt-omar bahaa</title><path d="M46.45,88.57l-5.12-.92c-.46-.09-.91-.29-1.38-.36-1.17-.17-2.35-.32-3.53-.42-2.08-.19-4.17-.28-6.24-.52-1.72-.2-3.43-.55-5.14-.84a2,2,0,0,0-.23-.06c-2.28-.2-4.57-.38-6.85-.61-1.34-.13-2.67-.31-4-.5-2.19-.32-4.36-.7-6.55-1A2.24,2.24,0,0,1,5.5,80.24a4.67,4.67,0,0,0,.18-2.56A2.46,2.46,0,0,0,4.2,76.43a6.39,6.39,0,0,0-1.9,0c-1.88,0-2.68-1.11-2.13-2.87,1.25-4,2.54-7.91,3.72-11.89,1.37-4.63,2.62-9.29,4-13.93,1.2-4.14,2.49-8.25,3.68-12.4,1.13-3.94,2.16-7.92,3.29-11.87.72-2.54,1.58-5,2.31-7.56,1-3.61,2-7.24,3-10.85.37-1.34.77-2.69,1.26-4C21.77,0,22.49-.19,23.58.15a10.87,10.87,0,0,0,2,.29c.83.1,1.65.18,2.48.26,2.19.22,4.38.4,6.57.67,1.76.22,3.5.54,5.25.82a4.75,4.75,0,0,0,.46.14l6.87.49c.62.05,1.24.17,1.86.28.19,0,.37.17.56.19,1.93.18,3.86.34,5.78.53a12.88,12.88,0,0,1,1.51.26,6.33,6.33,0,0,0,.91.28c2.21.15,4.43.22,6.64.42,1.53.14,3,.47,4.56.69.9.13,1.8.22,2.7.32,1.34.15,2.68.25,4,.49.83.15.85.74.59,1.49a11.05,11.05,0,0,0-.49,2.38c-.21,1.73-.38,3.47-.56,5.2,0,.28-.16.6-.07.83s.41.86.69.91.78-.33.94-.64.16-1,.4-1.49a1.39,1.39,0,0,1,1-.66c.21,0,.53.49.69.81a1.55,1.55,0,0,1,0,.83c-.33,2-.71,4-1,5.93-.24,1.75-.31,3.52-.54,5.27-.18,1.44-.49,2.87-.73,4.31-.11.66-.2,1.32-.3,2s-.19,1.31-.31,2c-.07.36-.22.69-.26,1-.3,2.67-.51,5.34-.87,8-.26,1.87-.78,3.7-1,5.57-.24,1.63-.24,3.3-.45,5s-.57,3.33-.85,5c-.25,1.47-.5,2.95-.74,4.42-.27,1.71-.59,3.41-.8,5.13-.23,1.91-.37,3.84-.54,5.76a7.59,7.59,0,0,1-.07,1.07c-.33,1.49-.73,3-1,4.48-.22,1.16-.31,2.34-.45,3.51-.16,1.37-.3,2.75-.48,4.12a2.4,2.4,0,0,1-3.5,2.1,2.4,2.4,0,0,0-.69-.21c-2.09-.15-4.18-.22-6.27-.45-1.6-.17-3.18-.53-4.77-.82-.24,0-.45-.19-.69-.21-2-.17-4-.31-6-.46ZM25.87,2.35c-1.19.07-2.22.15-2.59,1.54s-.75,2.52-1.11,3.78c-.81,2.8-1.62,5.59-2.4,8.39-.95,3.38-1.85,6.78-2.8,10.16-.84,3-1.74,6-2.57,9-1,3.62-1.94,7.25-3,10.86C10.33,50,9.14,53.86,8,57.76Q6,64.65,3.92,71.53c-.29,1,.08,1.55,1.08,1.65s2,.26,3.05.43,2.26.44,3.4.58c1.8.21,3.62.31,5.43.53,2,.26,4.06.61,6.09.92,1.45.21,2.89.4,4.34.62,1.84.27,3.67.56,5.51.81,1.6.23,3.2.4,4.8.64,1.87.28,3.73.67,5.6.92,2.65.36,5.32.58,8,1,1.87.26,3.72.68,5.58,1,1.61.29,2.28-.26,2.48-1.88.14-1.18.41-2.34.64-3.51.31-1.64.65-3.27,1-4.91.39-2.1.72-4.21,1.13-6.3.55-2.89,1.2-5.76,1.72-8.65.56-3.16,1-6.34,1.55-9.5.41-2.38,1-4.74,1.39-7.12.48-2.57.88-5.15,1.35-7.71.24-1.3.57-2.57.82-3.86q.9-4.61,1.76-9.23c.22-1.2.38-2.43.58-3.64.27-1.63.49-3.27.84-4.88C72.2,8.39,72,8,70.9,8a13.13,13.13,0,0,1-1.54-.08c-1.06-.12-2.1-.29-3.16-.42-.66-.08-1.34-.09-2-.2-1.64-.25-3.26-.61-4.91-.79C57.2,6.27,55.1,6.19,53,6c-.24,0-.46-.14-.7-.18-2-.29-4-.62-6-.85-1.8-.22-3.62-.28-5.42-.5-2.23-.27-4.44-.69-6.66-1-1.85-.22-3.7-.32-5.55-.48a4.2,4.2,0,0,1-.7-.17Z"></path><path d="M50.68,13.65c-.26,1.13-.46,1.9-.62,2.68-.64,3.19-1.29,6.37-1.88,9.57-.26,1.4-.35,2.82-.57,4.23a29.47,29.47,0,0,1-.78,4.31c-.49,1.54-1.44,1.68-3,1.15a25.83,25.83,0,0,0-4.31-.82c-1.59-.24-3.2-.39-4.8-.62-1.84-.27-3.66-.62-5.5-.87-1.49-.2-3-.32-4.48-.47a1.23,1.23,0,0,1-1.23-1.35,7.69,7.69,0,0,1,.2-1.66Q25.84,20.95,28,12.12c.42-1.74,1.28-2.22,2.92-1.59a4.49,4.49,0,0,0,1,.23c1.13.14,2.26.29,3.39.4,2.08.22,4.17.39,6.25.62,2.63.28,5.27.55,7.88.94C50,12.8,50.38,13.41,50.68,13.65ZM42.45,31.08a22.13,22.13,0,0,1-.58-2.59,5,5,0,0,0-2.23-3.4A1.27,1.27,0,0,0,38.53,25a3.84,3.84,0,0,1-4.92-.74,1,1,0,0,0-1.57,0c-1.72,1.77-3.45,3.54-5.11,5.36-.61.66-.3,1.33.57,1.45,1.2.16,2.41.3,3.61.47s2.51.4,3.76.56c1.81.23,3.63.34,5.42.63A1.64,1.64,0,0,0,42.45,31.08ZM41,20c0-1.45-2.69-4.06-4.22-4.09s-4.25,2.58-4.22,4.15c0,1.73,2.42,4.09,4.11,4.06S41,21.52,41,20Z"></path><path d="M26,61.16c-2.27-.31-4.53-.62-6.8-.9-.63-.07-1.28,0-1.92-.07-1.41,0-1.94-.77-1.56-2.11.67-2.38,1.31-4.76,1.94-7.16a1.34,1.34,0,0,1,1.46-1.13c.32,0,.64,0,1,.05l6.8.93c1.29.17,2.58.36,3.87.54,2.37.34,4.75.71,7.13,1,1.61.2,3.23.31,4.84.48a11.1,11.1,0,0,1,1.39.3c.15,0,.29.15.45.16,2,.18,4.08.31,6.11.56a3,3,0,0,1,1.81.77,1.74,1.74,0,0,1-.24,1.68,2.66,2.66,0,0,1-1.83.68,39.31,39.31,0,0,1-4.43-.52c-1.12-.16-2.23-.48-3.35-.57-.38,0-.79.44-1.18.68.33.32.63.87,1,.92,1.9.26,3.81.4,5.72.55a4.86,4.86,0,0,0,1.42-.14,1.39,1.39,0,0,1,1.79.8,2.58,2.58,0,0,1,0,2,1.91,1.91,0,0,1-1.78.35,10.61,10.61,0,0,0-4-.52,28.25,28.25,0,0,1-4.42-.78c-.35-.06-.7-.15-1.05-.2-2.11-.3-4.21-.6-6.32-.87-.59-.08-1.2,0-1.78-.06A13.12,13.12,0,0,1,30,58.16c-.91-.27-1.36,0-1.34.89,0,2.13,0,2.13-2.12,2H26Z"></path><path d="M51.58,48.46c-1.86-.36-3.7-.81-5.56-1.06-2.43-.33-4.88-.51-7.32-.69a1.53,1.53,0,0,0-1,.57,2.54,2.54,0,0,1-3,.92c-1.8-.43-3.65-.67-5.47-1-2.1-.33-4.21-.65-6.31-.92a12.76,12.76,0,0,0-2.14-.06c-1.51.08-1.85-.43-1.39-1.82s.74-2.93,1.19-4.36.66-1.39,1.9-.88a1.64,1.64,0,0,0,.44.18l6.6.62c.31,0,.63,0,.95,0,2.31.26,4.62.51,6.93.83s4.51.72,6.76,1.07c1,.15,2,.24,3.05.35,1.92.21,3.84.51,5.77.58,1.34.06,1.9.54,1.63,1.92A21.47,21.47,0,0,1,54,47.54a1.62,1.62,0,0,1-1,.74,4.13,4.13,0,0,1-1.3-.06Z"></path></svg>