<svg xmlns="http://www.w3.org/2000/svg" id="Layer_1" data-name="Layer 1" viewBox="0 0 127 133.94"><title>AsimovMarketingIcon-bt-omar bahaa</title><path d="M126.88,84.64q0,15.18,0,30.36c0,1.29.14,2.58-.76,3.63a2.69,2.69,0,0,1-1.2.71,19.55,19.55,0,0,1-2,.47l-1.26.3c-.56.13-1.12.26-1.67.41-.15,0-.27.2-.42.22-1.45.29-2.89.56-4.34.83-.16,0-.33,0-.48,0-1.44.47-2.86,1-4.31,1.4-1.25.36-2.52.61-3.79.89s-2.39.42-3.54.77c-1.47.43-2.9,1-4.35,1.52a1.12,1.12,0,0,1-.45.14c-1.77-.16-3.22.78-4.81,1.27a17.33,17.33,0,0,1-3.32.15,19.64,19.64,0,0,0-2.47.58l-1,.26c-.72.18-1.43.38-2.15.54-1.46.32-2.92.61-4.38.94-.52.11-1,.28-1.56.43-.07,0-.13.1-.2.12-1.63.32-3.27.64-4.9.94-.2,0-.42,0-.6,0-1.49.46-3,.94-4.47,1.39a4.41,4.41,0,0,1-1.28.22c-1.77-.05-3.57-.48-5.22.7-.27.19-.94-.14-1.42-.28s-1-.58-1.53-.51c-2.45.34-4.08-.88-5.29-2.76-1.71-2.65-4-3.35-6.78-1.88a2,2,0,0,1-.91.19l-24,0c-1.31,0-4.21-2-4.58-3.15-.2-.63.87-2.52,1.69-3a6.05,6.05,0,0,0,.93-.53c.91-.74.78-1.4-.22-2a5.38,5.38,0,0,0-3.45-.71,4.34,4.34,0,0,1-3.1-.54,2.56,2.56,0,0,0-1.29-.16c-1.75,0-3.61.39-5.25,0-2.45-.64-5.37-.79-6.51-3.86a2.12,2.12,0,0,1,.39-2.48c1.45-1.66,3.43-2.46,5.31-3.39A40.16,40.16,0,0,1,11,106.76c1.52-.49,3.13-.69,4.69-1.08A12.13,12.13,0,0,0,19,104.63a2.67,2.67,0,0,0,1-2c.05-6.48,0-13,0-19.44,0-1.4.64-2,2-2.08.8,0,1.57-.55,2.37-.58,2-.07,3.9-1.43,6-.83a3.08,3.08,0,0,0,1,0c1.37,0,1.7-.37,1.7-1.72Q33,62.86,33,47.69t0-30.48a8.06,8.06,0,0,1,.36-2.78,3.29,3.29,0,0,1,3.51-2.13,5.09,5.09,0,0,0,1.35-.38c.53-.15,1.06-.26,1.59-.4s1-.27,1.44-.43c.26-.08.52-.33.76-.31,2,.15,3.55-1,5.31-1.53,1.37-.41,2.84-.5,4.25-.79s2.6-.64,3.9-1c.82-.21,1.65-.38,2.47-.6.34-.09.65-.27,1-.37.52-.15,1.05-.26,1.57-.39s1.05-.26,1.57-.41.81-.29,1.23-.41l3.83-1c.57-.15,1.13-.33,1.7-.5l1.78-.55c.19-.07.35-.23.54-.26,1.35-.23,2.71-.38,4.05-.68.93-.2,1.8-.61,2.71-.9,1.53-.47,3-1,4.6-1.35a14.44,14.44,0,0,1,2.38,0c3.41-.2,6.5,1,9.62,2.11A29.86,29.86,0,0,0,97.88,3c1.33.31,2.67.56,4,.92A3.34,3.34,0,0,1,104,7.1c0,.4-.05.8-.05,1.2q0,18.54-.06,37.08c0,.95.34,1.42,1.32,1.4a5,5,0,0,0,3.21-.68,1.87,1.87,0,0,1,1.47-.18c1.2.37,2.34,1,3.54,1.34s2.52.6,3.75,1,2.54.88,3.82,1.26c1.44.43,2.88.84,4.35,1.16a1.75,1.75,0,0,1,1.64,2q0,16,0,32ZM102,27.15h-.06c0-6.08,0-12.16,0-18.23,0-1-.4-1.69-1.48-1.52a47.82,47.82,0,0,0-5.17,1c-2.24.63-4.42,1.43-6.63,2.14-.19.06-.41,0-.6.05-.67.16-1.33.36-2,.51-.37.09-.77.12-1.15.2-.57.12-1.13.26-1.7.4s-1,.25-1.58.35a8.84,8.84,0,0,0-1,.16C78.39,13,76.2,13.74,74,14.47c-.18.06-.4,0-.59,0a33.35,33.35,0,0,0-4.14.84c-1.79.58-3.46,1.61-5.46,1.33a1.78,1.78,0,0,0-.81.21c-1.61.58-3.11,1.57-4.94,1.38-.21,0-.43.21-.66.26a8.35,8.35,0,0,1-1.81.38A2.17,2.17,0,0,0,53.33,21c0,.67.06,1.35.06,2V52.92c0,9.43,0,18.87,0,28.31,0,1.66-.25,3.13,2,3.23.11,0,.2.14.32.16.72.13,1.45.21,2.17.38a21.32,21.32,0,0,0,5.78.9c.18,0,.36.33.57.4.4.13.9.36,1.19.22a1.32,1.32,0,0,0,.53-1c0-3.24-.16-6.48,0-9.71a6.25,6.25,0,0,1,1.63-4.33A23.56,23.56,0,0,1,70,69a8.88,8.88,0,0,1,3.16-1.55c1-.22,1.24-.67,1.23-1.52-.06-3.12-.1-6.24-.17-9.35,0-.81.14-1.38,1-1.6q2.57-.63,5.12-1.39c1.52-.45,3-1,4.52-1.46,1.9-.52,3.85-.88,5.75-1.39,3-.79,5.91-1.64,8.86-2.46A3.2,3.2,0,0,0,102,45ZM93.9,93h0v27.82c0,.76-.09,1.53,0,2.28.11,1.47.94,1.9,2.23,1.26a5.12,5.12,0,0,1,1.14-.24l1.69-.44c.49-.13,1-.24,1.46-.35s.92-.19,1.38-.29l1.59-.37c.49-.12,1-.25,1.46-.39s.81-.31,1.24-.39c1.44-.3,2.89-.56,4.34-.86.18,0,.33-.23.52-.28.55-.16,1.11-.3,1.67-.43a11.05,11.05,0,0,0,1.15-.2,56.63,56.63,0,0,1,6.48-2,12.47,12.47,0,0,0,3.25-1,2.22,2.22,0,0,0,1.42-2.38c0-.48-.08-1-.08-1.44q0-16.3,0-32.62,0-12.53,0-25.06c0-1.22-.44-1.66-1.7-1.51a16,16,0,0,0-1.6.45c-.64.14-1.3.21-2,.33a13.87,13.87,0,0,0-1.7.36c-2.17.67-4.32,1.38-6.48,2.06-.21.06-.48-.07-.71,0a5.54,5.54,0,0,0-1.15.2c-1.41.43-2.8.91-4.21,1.34-.22.07-.48,0-.71,0a2.56,2.56,0,0,0-.93.1c-1.62.72-3.19,1.6-5.06,1.52-.25,0-.51.2-.77.28a7.51,7.51,0,0,1-1.71.38,2.1,2.1,0,0,0-2.33,2.27ZM72.09,113.72c.51-4.17-.67-9,.63-13.86a17.09,17.09,0,0,0,.12-4.3,2.72,2.72,0,0,0-2.82-3,4.07,4.07,0,0,1-3.19-.64c-.23-.19-.69-.1-1-.16-1.76-.34-3.52-.68-5.28-1-.19,0-.34-.22-.52-.28s-.65-.3-.91-.22a3.5,3.5,0,0,1-2.94-.55,3,3,0,0,0-1.52-.22c-1.07,0-2.13.25-3.06-.6-.23-.21-.76-.08-1.15-.12s-.78-.1-1.16-.18c-.87-.18-1.74-.39-2.61-.58-.38-.08-.88,0-1.15-.22a4.1,4.1,0,0,0-3-.66,38.54,38.54,0,0,1-4.43.09c-1.55-.12-3.09-.48-4.63-.74-.14,0-.26-.2-.41-.24a17.78,17.78,0,0,0-2.25-.6c-2-.31-3.94-.55-5.91-.85-.22,0-.42-.26-.64-.31a3.94,3.94,0,0,0-1.86-.27c-.32.1-.5,1-.51,1.56,0,5.16,0,10.32,0,15.48,0,1.43.51,3-.65,4.24-.11.12-.08.38-.08.58,0,3.28-.13,6.56.07,9.83a3.85,3.85,0,0,0,1.57,2.8c1.26.63,2.87.58,4.33.83a1.44,1.44,0,0,1,.67.22c.92.79,2,.54,3.07.63,1.81.17,3.6.57,5.4.91a11.57,11.57,0,0,1,1.91.55,11.91,11.91,0,0,0,5.56.94c.13,0,.29.12.43.19,1.64.76,3.62.15,5.18,1.27.08,0,.24-.05.35,0l6.15,1.15a8.29,8.29,0,0,0,1.25.34c1.34,0,2.72-.26,3.9.72.19.17.62,0,.93.08s.77.13,1.15.2c.8.16,1.6.34,2.4.48.42.07,1-.08,1.27.15,1.06.93,2.3.76,3.53.75,1.61,0,1.83-.22,1.83-1.78ZM34.93,47.64h0q0,14.82,0,29.64c0,2.49,1.08,3.7,3.54,3.84a6,6,0,0,1,.81.2l3.2.65c.53.11,1.08.17,1.61.3.71.16,1.41.4,2.13.54.92.18,1.84.32,2.77.42A1.7,1.7,0,0,0,50,83c.21-.16.4-.75.27-.93-1-1.49-.43-3.13-.44-4.68,0-12.11,0-24.23-.08-36.35,0-2.43.69-4.85.08-7.28a1.1,1.1,0,0,1,.07-.47,21.26,21.26,0,0,0,.44-3.16,19.87,19.87,0,0,0-.4-3.51c-.11-.68-.59-1-1.19-.52a1.54,1.54,0,0,0-.32,1.09c0,1.91.15,3.83.1,5.74a3,3,0,0,1-.71,1.79c-.73.83-1.53.33-2.22-.22s-.53-1.12-.08-1.78a2.69,2.69,0,0,0,.51-1.4c0-2.12,0-4.24,0-6.36a2,2,0,0,0-1.62-2.08c-1.48-.45-3-.91-4.41-1.45-1.23-.46-2.06.08-2,1.37,0,1.91,0,3.83.06,5.74a3.14,3.14,0,0,0,.35,1.7,6.22,6.22,0,0,0,3.93,2.46c.28.06.51.35.77.54a4.6,4.6,0,0,1-1,.44c-.19,0-.44-.16-.65-.25-1.1-.46-2.17-1-3.29-1.37A2.07,2.07,0,0,1,37,29c.16-.32.45-.68.4-1-.4-2.11.51-4.32-.59-6.37-.39-.72-.24-1.56.66-1.71a7.79,7.79,0,0,1,3.08,0A40.89,40.89,0,0,1,45,21.43a26.46,26.46,0,0,1,3,1.22c.63.32,1.2.66,1.64-.1s1.19-1.39.24-2.43-2.4-1.25-3.65-1.59c-2.16-.58-4.09-2-6.45-1.84-.11,0-.22-.08-.34-.11a25,25,0,0,0-2.93-.71c-1.35-.16-1.54.08-1.54,1.43Zm56.29,45.7h0q0-14.64,0-29.27a3.62,3.62,0,0,0-3.74-3.65,3.19,3.19,0,0,1-1.16-.11c-1.16-.43-2.28-1-3.44-1.39-1-.35-1.94-.62-2.91-.92a14,14,0,0,1-2.17-.67c-.88-.44-1.51-.17-1.55.84,0,.6.1,1.2.11,1.79q0,11.88,0,23.76a31.63,31.63,0,0,0,0,3.23c0,.42.6,1.14.86,1.11,1.87-.18,3.33,1,5,1.38a1.48,1.48,0,0,1,1,2.17c-.43,1.18-1.2,2.29-.27,3.57,0,.07,0,.23,0,.34-.13,1.14-.37,2.27-.39,3.4-.08,7.36-.11,14.72-.16,22.08a2,2,0,0,0,1.34,2.15c1.57.53,3.16,1,4.7,1.67s2.78,0,2.78-1.48ZM74,114.09h0c0,4.12,0,8.24,0,12.35,0,1.11.41,1.57,1.54,1.64a6.28,6.28,0,0,0,3.6-1,2.28,2.28,0,0,0,1.37-2.27q0-9.66,0-19.31c0-1.49-.33-3,.6-4.42a1.68,1.68,0,0,0,.08-.82c0-2.48,0-5,0-7.43,0-.82-.33-1.27-1.13-1.14-1.58.28-3.15.63-4.72,1a.9.9,0,0,0-.52.7,12.35,12.35,0,0,1-.61,5,16,16,0,0,0-.21,4.17C74,106.42,74,110.25,74,114.09Z"></path><path d="M28.13,70.54a15.37,15.37,0,0,1,0,2.63,2.1,2.1,0,0,1-.89,1.43c-.73.31-.94-.43-1.16-1a26.08,26.08,0,0,1-1.48-3.87,15,15,0,0,1,0-4.13c0-.25.84-.6,1.28-.59a2.23,2.23,0,0,1,1.37.65C28.57,67.06,28,68.86,28.13,70.54Z"></path><path d="M31,63.53a11.43,11.43,0,0,1-1.51,1.13c-.08,0-.7-.6-.64-.73a3.74,3.74,0,0,1,1-1.24C29.87,62.63,30.38,63.1,31,63.53Z"></path><path d="M100.4,72.62c-.39-2.18.48-4.1,1.44-5.9a12,12,0,0,1,2.45-2.49c1.85-1.82,4.51-1.78,6.67-2.93a1.9,1.9,0,0,1,1.39,0c2.49,1,4.93,2.15,6.41,4.42a9,9,0,0,1,1.34,4.45c0,1.21-.89,2.43-1.31,3.66-1,3-3.4,4.65-5.83,6.28a1.1,1.1,0,0,1-.65.26,3.75,3.75,0,0,0-2.82.67c-.28.18-.87-.1-1.31-.2a7.35,7.35,0,0,0-2-.5,3.7,3.7,0,0,1-3.77-1.93c-.32-.55-.93-1-1.14-1.52-.49-1.35-.82-2.75-1.22-4.13Zm13.21,2c-.53-1.59-.94-2.95-1.45-4.27a13.37,13.37,0,0,0-1.45-3.08c-.76-1-1.67-.78-2,.47-.48,1.58-.93,3.18-1.45,4.76-.25.78-.72,1.51-.89,2.3-.11.54-.1,1.4.22,1.69.62.56,1.27.09,1.67-.56a9,9,0,0,1,.66-1.27c.38-.45.89-1.1,1.34-1.08s1,.68,1.22,1.18.56,1.32,1.31,1.06C113.14,75.7,113.36,75,113.61,74.63Z"></path><path d="M67,109.51c.7,2.36-.65,4.16-1.75,5.9a5.7,5.7,0,0,1-5,2.46c-4,.14-6-2.3-7.76-5.2a5.67,5.67,0,0,1-.4-1.93c-.12-.65-.22-1.3-.34-1.95,0-.16-.17-.34-.12-.45.68-1.51.22-3.36,1.42-4.71s2.32-2.75,4.13-3.13a7,7,0,0,1,5.57,1.08c1.74,1.2,3.31,2.48,3.88,4.6.29,1.09.46,2.2.69,3.3Zm-8.12,1.61v-.06c.91,0,1.84.06,2.75,0a1.7,1.7,0,0,0,1.16-.55c.13-.18-.18-.8-.45-1.09-.86-.93-1.77-1.84-2.72-2.69a18.31,18.31,0,0,0-2.31-1.7c-.23-.15-.63,0-1,0a3.75,3.75,0,0,0,0,1c.07.25.34.43.51.65a1.41,1.41,0,0,1-.36,2.26,11.57,11.57,0,0,0-1.05.55,5.09,5.09,0,0,0-.72,1c.37.23.72.63,1.11.67A29.76,29.76,0,0,0,58.92,111.12Z"></path></svg>