<svg xmlns="http://www.w3.org/2000/svg" id="Layer_1" data-name="Layer 1" viewBox="0 0 94.19 87.47"><title>AsimovMarketingIcon-bt-omar bahaa</title><path d="M23.06,75c-4.28,0-8.57.22-12.82-.09a13.8,13.8,0,0,1-6.28-2c-1.46-.93-2.47-2.78-3.3-4.42a9.14,9.14,0,0,1-.66-4C0,53.72.05,43,.08,32.2c0-5.44.05-10.88,0-16.32A17.87,17.87,0,0,1,1,9.71a13.34,13.34,0,0,1,9-8.59,25.12,25.12,0,0,1,3-.44C19.41-.51,25.84.34,32.24.19s12.88,0,19.32,0,12.87,0,19.31,0c4.08,0,8.18-.31,12.23,0,2.58.19,5.39.46,7.45,2.44a8,8,0,0,1,1.93,2.84,30.58,30.58,0,0,1,.94,4.51,5.06,5.06,0,0,0,.22,1,7.15,7.15,0,0,1,0,5.21,10,10,0,0,0,.08,3.6c0,.66.35,1.3.35,1.95q0,12.6,0,25.2a2.36,2.36,0,0,1-.09,1.17c-.85,1.32-.63,2.76-.61,4.19,0,3,.11,6.08.06,9.12a8.65,8.65,0,0,1-.65,2.65,15.25,15.25,0,0,1-8.82,9.39,21.73,21.73,0,0,1-4.53.85c-.43.07-1-.11-1.3.09-1.39.83-2.87.49-4.32.49-4.88,0-9.76-.06-14.64-.09-.93,0-1.23.41-.88,1.29,1.5,3.77-.33,7.81-2.72,9.94a5.42,5.42,0,0,1-4.09,1.42c-5.16-.13-10.32,0-15.48,0a3.17,3.17,0,0,1-3.24-2.33c-.41-1.29.06-2.27,1.51-3.15.41-.25.87-.42,1.26-.69s.65-.46.72-.75A24.57,24.57,0,0,0,37,77.06c.13-1.45-.71-2.23-2.15-2.23-3.92,0-7.84,0-11.76,0ZM46.25,4.34v.11c-9.44,0-18.88,0-28.31,0-2.17,0-4.32-.21-6.51.46-2.72.83-4.81,2.11-6,4.78a15.22,15.22,0,0,0-1.18,6.62q.06,22.37,0,44.74a10.27,10.27,0,0,0,.7,4.44c1.24,2.68,2.47,4,4.44,3.95,10.52-.06,21-.11,31.56,0,2.67,0,5.44-.65,8,.62a1.26,1.26,0,0,0,.48,0C57,70.06,64.64,70,72.24,70a5.2,5.2,0,0,1,1.39.28,5.22,5.22,0,0,0,4.06-.23,12.73,12.73,0,0,0,4.8-4,10.84,10.84,0,0,0,2.1-6.71c-.1-4.08-.3-8.17-.53-12.24-.39-7.06.41-14.12-.6-21.22-.78-5.53-.16-11.26-.07-16.9A4.6,4.6,0,0,0,79,4.34Zm-.72,78.15v0h3.35c2.87,0,3.67-.6,3.44-3.43-.08-1-.45-1.31-1.42-1.28-2.75.07-5.51.22-8.25,0-1.68-.12-2.49.29-3,1.9s.13,2.82,1.84,2.82Z"></path><path d="M43.48,59c-9.2,0-18.4,0-27.59,0a14.68,14.68,0,0,1-5.12-.8,6.54,6.54,0,0,1-4.14-5c-.61-2.75-.32-5.48-.35-8.22-.07-9.59-.21-19.19,0-28.78C6.39,12,8.62,9.5,12.68,8.53a2.41,2.41,0,0,1,.71,0,25.66,25.66,0,0,0,3.71.1c2.38-.27,4.73-.75,7.1-1.09a13.5,13.5,0,0,1,2.38-.07c1.53,0,3.12-.38,4.56.51a.42.42,0,0,0,.12,0c2.36.21,4.71.59,7.07.6,11.27.06,22.55,0,33.82,0A12.91,12.91,0,0,1,75.56,9a6.52,6.52,0,0,1,4.86,5.07,17,17,0,0,1,.55,3.6Q81,33.3,81,49a30.16,30.16,0,0,1-.57,4.91c-.3,1.77-3.42,4.19-5.12,4.58-5.21,1.21-10.48.37-15.71.54s-10.72,0-16.07,0Zm2.1-47.25v0h-28a1.62,1.62,0,0,0-1.08.33,9.08,9.08,0,0,0-2,5.81c0,1.83-.39,3.66-.61,5.48,0,.12-.13.21-.15.33a10.38,10.38,0,0,0-.36,2c0,6.88-.07,13.76,0,20.64,0,3.65,1.65,5.42,4.89,6a35.56,35.56,0,0,0,6.86,1.12c2.95,0,6,.79,8.87-.5a1.66,1.66,0,0,1,.83-.09c5,.56,10.06-.45,15.11.59,3.13.65,6.44.19,9.71.57,4.93.57,10,.17,15,.1a3.18,3.18,0,0,0,1.77-.78c1.39-1.15,1.51-2.7,1.5-4.44-.06-10.68,0-21.36,0-32,0-2.9-2-5.14-4.7-5.13C64,11.78,54.78,11.75,45.58,11.75Z"></path><path d="M43.79,62.42a2.85,2.85,0,0,1,2.66,2.28c0,1-1.71,2.71-2.79,2.74a2.88,2.88,0,0,1-2.32-2.38A3.12,3.12,0,0,1,43.79,62.42Z"></path><path d="M46.61,19.4c2.82-.1,5,.89,6.29,3.38a2.57,2.57,0,0,1,0,2c-1.19,2.54-2.54,5-5.15,6.43a6.64,6.64,0,0,0-1.49,1.37A2.47,2.47,0,0,0,46,35.76a4.88,4.88,0,0,1,.2,1.51,4.38,4.38,0,0,1-1.52-.19c-2.82-1.47-3.18-4.52-.87-6.72,1.36-1.3,2.64-2.67,4-4a2.4,2.4,0,0,0,.44-2.67c-.29-.94-1.12-1.12-2-1.2a5.28,5.28,0,0,0-4.79,1.91c-.42.49-.92.86-1.55.35s-.47-1.1-.11-1.71A7.17,7.17,0,0,1,46.61,19.4Z"></path><path d="M47.05,43.34a2.2,2.2,0,0,1-2,2c-.69,0-1.78-1.14-1.81-2a2.54,2.54,0,0,1,2-2.06A2,2,0,0,1,47.05,43.34Z"></path></svg>