<svg xmlns="http://www.w3.org/2000/svg" id="Layer_1" data-name="Layer 1" viewBox="0 0 93.54 89.26"><title>AsimovMarketingIcon-bt-omar bahaa</title><path d="M0,40.3C0,32.14,0,24,0,15.83,0,11.57,1.07,7.62,4.23,4.55A15.54,15.54,0,0,1,11.44.7a15.25,15.25,0,0,1,1.79,0c1-.11,1.93-.35,2.9-.48A16.79,16.79,0,0,1,18,.09L21.85,0a2.47,2.47,0,0,1,1.06.07c1.7.88,3.52.57,5.3.57C46.57.67,64.92.77,83.28.59c4.27,0,6.82,1.83,8.66,5.3a2.54,2.54,0,0,1,.33.76,45.4,45.4,0,0,1,.55,5c.06,5.28,0,10.56,0,15.84a1.21,1.21,0,0,0,0,.47c1.2,2.56.47,5.27.58,7.91.08,1.72.44,3.5-.52,5.16-.23.39,0,1,0,1.54,0,6,.31,12,0,18-.25,4.93-2,9.47-6.33,12.41a15.43,15.43,0,0,1-6.87,2.58c-6.81.89-13.62.15-20.43.39-1.68.06-1.86.37-1.29,1.92a5.94,5.94,0,0,1,.33,2.8c-.38,2.78-1.24,5.48-3.62,7.17a7.86,7.86,0,0,1-4.09,1.3c-4.88.16-9.76.06-14.64.07a3.88,3.88,0,0,1-3.7-3.16,2,2,0,0,1,.54-1.48,19.74,19.74,0,0,1,2.49-2.06,2.52,2.52,0,0,0,1.16-2.45c-.09-.83,0-1.68,0-2.52,0-1.31-.36-1.6-1.66-1.6q-13.07,0-26.15.08c-3.21,0-7.14-2.9-7.89-6A24.25,24.25,0,0,1,0,64.53C0,56.46,0,48.38,0,40.3Zm46.18-36v0c-9.55,0-19.11.07-28.67,0a24.17,24.17,0,0,0-7.25,1.09,6.64,6.64,0,0,0-3.9,2.81C5.3,9.93,4.26,11.5,4.21,13.77c0,1.5-.47,3.08-.47,4.67,0,10.08-.15,20.16,0,30.23.08,4.92-.71,9.9.51,14.77a44.57,44.57,0,0,0,1.61,5.07,3.4,3.4,0,0,0,3.45,2.11c5.55,0,11.12-.16,16.67,0s11.15-.73,16.67.55c10.36.17,20.74-.33,31.08.58a7,7,0,0,0,4.52-1.22,10.36,10.36,0,0,0,5.18-8.47c.22-6.22,0-12.47,0-18.71,0-.59.19-1.31-.07-1.76-.76-1.36-.54-2.78-.54-4.21,0-9.27-.1-18.55.08-27.83a4.91,4.91,0,0,0-5.16-5.17C67.23,4.27,56.71,4.33,46.19,4.33Zm-.72,79.33h3.84c1.9,0,1.9,0,2.41-1.81a2.37,2.37,0,0,1,.13-.34c.77-1.89.25-2.63-1.84-2.63-2.64,0-5.28,0-7.91,0-1.84,0-2.09.15-2.61,1.92-.09.3-.17.61-.24.92-.33,1.37,0,1.88,1.43,1.93C42.27,83.7,43.87,83.66,45.47,83.66Z"></path><path d="M43.29,60.09c-9.64,0-19.28-.06-28.92,0a7.7,7.7,0,0,1-6-2.49,8.23,8.23,0,0,1-2.17-5.89c-.1-11.6-.08-23.2,0-34.8A8.2,8.2,0,0,1,9.81,9.82a3.13,3.13,0,0,1,1.31-.57c2.1-.25,4.22-.39,6.33-.62.89-.1,1.77-.33,2.66-.49A5.09,5.09,0,0,1,21,8q6.29,0,12.59,0a1.26,1.26,0,0,1,.59,0c1.67,1,3.51.57,5.28.58,9.51,0,19,0,28.55,0,1.34,0,2.68-.2,4,.54a4,4,0,0,0,2,.09A5.77,5.77,0,0,1,79.8,15a1.29,1.29,0,0,0,0,.71c1,1.52.53,3.19.53,4.8,0,9.8,0,19.6,0,29.4a21.38,21.38,0,0,1-.59,5.24c-.52,1.94-2.17,3.09-3.78,4.17-1.35.91-2.86.78-4.39.77C62.16,60.07,52.73,60.09,43.29,60.09ZM40,11.76v0H18.12A2.34,2.34,0,0,0,17,12c-2,1.31-2.28,3.48-2.58,5.6-.23,1.58-.33,3.19-.57,4.77a63.33,63.33,0,0,0-1,6.36c-.16,3.83,0,7.67,0,11.51,0,1.62-.34,3.28.6,4.8.15.23.07.62.06.94,0,1-.11,2-.15,3a4.23,4.23,0,0,0,2.64,3.93c1.24.41,2.51.75,3.79,1a17.78,17.78,0,0,0,3.71.68c4.24.07,8.49.23,12.71-.09a30.54,30.54,0,0,1,6.34,0c2.63.34,5.35,0,8,.08,2,.05,4-.47,5.87.6a2.11,2.11,0,0,0,1,.08H73.74a2.71,2.71,0,0,0,2.91-3,6.53,6.53,0,0,1,.24-1.15,10.09,10.09,0,0,0,.33-1.86c0-5.6.11-11.2-.06-16.79s.65-11.22-.48-16.81a4.1,4.1,0,0,0-1-2.3,3.78,3.78,0,0,0-3-1.16c-3.86,0-7.7-.15-11.55-.4C54.12,11.44,47,11.76,40,11.76Z"></path><path d="M41.3,66.13c0-1.57.9-2.54,2.27-2.54a2.81,2.81,0,0,1,2.35,2.72,3.1,3.1,0,0,1-2.58,2.41C42,68.74,41.26,67.78,41.3,66.13Z"></path><path d="M45.51,16c2.22-.5,4.43.25,6.54,1.39A14,14,0,0,1,56.79,22a12.19,12.19,0,0,1,1.9,6,12,12,0,0,1-2,7.72,13.34,13.34,0,0,1-6.91,5.33c-2.1.72-4.36,1.63-6.72.4-.76-.39-1.86-.11-2.63-.5a15.19,15.19,0,0,1-6.56-6.57,8.77,8.77,0,0,1-1.09-4.91c.1-2,0-4,.78-6,1.58-3.88,4.57-6.07,8.24-7.49C42.85,15.69,44.13,16,45.51,16ZM41.74,35.47a10.93,10.93,0,0,0,7.73-3,8.51,8.51,0,0,0,2.09-3.8,9.87,9.87,0,0,1,1-3.11c.61-.95.39-1.37-.69-1.73a4.45,4.45,0,0,1-1-.46c-2-1.35-3.74-.91-5,1.18-.29.5-.93,1.16-1.37,1.13-1.26-.08-2.69,0-3.53-1.31a1.08,1.08,0,0,0-1.64-.43c-.67.45-.52,1-.22,1.69a1.92,1.92,0,0,1,.17,1.29,6.29,6.29,0,0,0,.7,4.63,6.43,6.43,0,0,1,.66,1.31c-.42.16-.85.31-1.26.5s-.56.31-.85.47c.19.29.31.74.57.84C40.15,35,41.17,35.3,41.74,35.47Z"></path><path d="M46.67,46.52H33.24c-.68,0-1.45-.07-1.43-.87,0-.38.67-1,1.12-1.07a10.45,10.45,0,0,1,2.38-.07H57.74a16.18,16.18,0,0,1,3,.15c.36.06.63.65.94,1-.39.28-.75.72-1.18.81a10.21,10.21,0,0,1-1.91,0c-4,0-7.92,0-11.88,0Z"></path><path d="M43.66,51.08c-3.19,0-6.39,0-9.58,0a3.3,3.3,0,0,1-1.49-.35c-.35-.19-.55-.67-.82-1,.4-.28.76-.72,1.2-.81a10.19,10.19,0,0,1,1.9.07H52.73a8.82,8.82,0,0,1,1.42-.13c.45.08,1.12.32,1.23.64s-.23,1-.55,1.28a1.89,1.89,0,0,1-1.22.33c-3.32,0-6.63,0-10,0Z"></path></svg>