<svg xmlns="http://www.w3.org/2000/svg" id="Layer_1" data-name="Layer 1" viewBox="0 0 112.19 89.36"><title>AsimovMarketingIcon-bt-omar bahaa</title><path d="M40.15,76.19c-4,0-8.08.15-12.11,0-3.43-.17-6.86-.91-8.85-4.09a11.28,11.28,0,0,1-1.76-5.23c-.22-5-.05-10.08,0-15.12,0-.75.08-1.51.08-2.27,0-1.18-.46-1.38-1.51-1a5.72,5.72,0,0,1-2.16.41A8.86,8.86,0,0,1,6.3,45.44c-1.21-1.67-1.8-3.78-2.65-5.7a1.22,1.22,0,0,1,0-.71c1-3.94,2.57-7.38,6.9-8.59a2.3,2.3,0,0,0,1.87-1.91c.52-2.61,2.26-4.45,4.08-6.21a3,3,0,0,0,1-2.64,50,50,0,0,1-.11-5.87C17.6,8.73,21.7,3.2,26.53,1.6A25.56,25.56,0,0,1,31.19.89a5,5,0,0,0,1.3-.11A11,11,0,0,1,39.44.36c3.84.81,7.63.46,11.43.48C67,.94,83.18.89,99.34.88c.62,0,1.24-.3,1.86-.3a12.25,12.25,0,0,1,2.42.23c1.83.34,3.64.84,4.86,2.36a12.12,12.12,0,0,1,1.83,3,17.68,17.68,0,0,1,1.26,7.6,44,44,0,0,0,0,8c.89,6.8.17,13.61.43,20.41.07,1.72.44,3.54,0,5.13-.79,2.91-.26,5.8-.43,8.69-.1,1.67.23,3.39,0,5a33.53,33.53,0,0,1-1.7,6.08c-1.37,3.72-4.3,6-7.75,7.6a11.15,11.15,0,0,1-3.09.79,37.63,37.63,0,0,1-5.27.6c-5.68.06-11.36,0-17,0-.9,0-1.16.35-.86,1.19a10.19,10.19,0,0,1,.09,5.48,7.8,7.8,0,0,1-2.36,4.55,7.15,7.15,0,0,1-4.89,2c-4.92.09-9.84,0-14.76,0a3.49,3.49,0,0,1-3.65-3.89,2.28,2.28,0,0,1,2-2.22A1.92,1.92,0,0,0,53.82,81c0-1.19.08-2.38.19-3.56s-.51-1.34-1.38-1.34c-1.64,0-3.28,0-4.92,0-2.52,0-5,0-7.56,0Zm17.4-64.26v-.08c-7.32,0-14.64,0-21.95,0a2.25,2.25,0,0,0-1.41.52c-1.71,1.55-2,3.73-2.33,5.84-.1.57-.18,1.15-.23,1.73-.19,2-1,4,.71,5.92C34.23,28,34,30.76,33.45,33.3c-.32,1.6-.76,3.06,0,4.62a1.34,1.34,0,0,1,0,1,33.11,33.11,0,0,1-1.8,3.63,4.67,4.67,0,0,0-1,3.34,8.13,8.13,0,0,1,0,2.51A4.05,4.05,0,0,0,33.13,53a19.15,19.15,0,0,0,6.73,1.87c7,.23,13.92,0,20.88.1s13.85-.49,20.79.38c3.26.41,6.63.09,9.94.08,2.63,0,3.87-1.23,3.86-3.69q0-17.34,0-34.68c0-3-1.62-4.52-4.66-4.56-3.6-.06-7.25.66-10.81-.52a1.93,1.93,0,0,0-.59,0Zm3.52,47.73v0H38.39c-2.51,0-5-.06-7.55,0a6,6,0,0,1-5.69-3.06,10.48,10.48,0,0,1-1.59-7c.1-.74.35-1.8-.74-2s-1.26,1-1.6,1.73a.69.69,0,0,0-.08.35c.37,3.18-.66,6.46.55,9.6a1.67,1.67,0,0,1,.07.71,18,18,0,0,0,.33,5.56,7.75,7.75,0,0,0,2.25,3.83,5.12,5.12,0,0,0,3.07,1.31c7,.12,13.92-.05,20.87.09s13.93-.29,20.92.29c6.63.56,13.35.1,20,.14.92,0,1.85.35,2.78.43a5.63,5.63,0,0,0,2.43-.09c2.24-.92,4.34-2.11,5.48-4.41.92-1.82,2.33-3.41,2.14-5.72-.38-4.67,0-9.34-.55-14.05-.63-5.45-.13-11-.11-16.54,0-6.92,0-13.84.09-20.76,0-3-1.93-5.62-5.28-5.61-20.76.06-41.52,0-62.28.09a17.46,17.46,0,0,0-5.5.69c-2.87,1-5.28,2.68-6.12,5.86a29.3,29.3,0,0,0-.73,3.47c-.21,1.56-.33,3.13-.41,4.71a1.23,1.23,0,0,0,.47.92,1.68,1.68,0,0,0,1.24.45,1.31,1.31,0,0,0,.69-1.06A21.15,21.15,0,0,1,24.14,14c.5-2.39,3.44-4.86,5.87-4.65A4.34,4.34,0,0,0,31,9.29l3.37-.46,3.85-.54a7.81,7.81,0,0,1,1.07-.13c4.32,0,8.64,0,13,.06,1.65,0,3.36-.39,4.92.56a1.73,1.73,0,0,0,.83.06H78c3.12,0,6.25-.08,9.36,0,2,.06,4.07.34,6.1.53a1.5,1.5,0,0,1,.34.11c2.27.91,4.62,4.44,4.62,6.85q0,18.54,0,37.07a2.82,2.82,0,0,1-.18,1.17,8.52,8.52,0,0,1-4.38,4.69,9.19,9.19,0,0,1-4.1.4Zm-31-28.57a6.36,6.36,0,0,0-3.83-6.21c-1.25-.6-2.88-1.25-4.07-.92-2.65.73-5.18,2-5.9,5.14a19,19,0,0,1-.7,1.91,2.28,2.28,0,0,1-2,1.54c-1.92.36-3.8.89-5.15,2.52A7.9,7.9,0,0,0,6.9,41.38a5.12,5.12,0,0,0,3.2,4.41c3.11,1.31,5.92.41,8.7-.91a2.18,2.18,0,0,1,2.33-.07,3.9,3.9,0,0,0,4.11.06c1.88-1.13,3.89-2.14,4.81-4.47.49-1.25.72-2.2-.14-3.3a3,3,0,0,1-.56-2.82C29.65,33.23,29.86,32.16,30.11,31.09ZM64,79v0c-1.23,0-2.47,0-3.71,0-2.18,0-2.18,0-3,2-.76,1.88-.16,2.72,1.92,2.73,2.48,0,4.95,0,7.42,0,2.72,0,2.8,0,3.15-2.65,0-.15.06-.31.09-.47C70,79.42,69.69,79,68.38,79Z"></path><path d="M0,36.39a4.93,4.93,0,0,1,2.57-3.65.94.94,0,0,1,1.36,1,20.69,20.69,0,0,1-1.65,4A1.22,1.22,0,0,1,1.16,38,8.8,8.8,0,0,1,0,36.39Z"></path><path d="M62,21.06c-4.79,0-9.59,0-14.39,0-.48,0-1.33.29-1.38.56a3.47,3.47,0,0,0,.19,2.27c1.19,1.8,1.65,3.58.58,5.55-1.38,2.56-.73,5.32-.88,8,0,.65-.29,1.29-.36,2a28.2,28.2,0,0,0-.23,3.78c0,.29.77.82,1.13.78,3.48-.37,6.88.63,10.34.59,1.35,0,2.71,0,4.07,0a2.26,2.26,0,0,0,.83-.07c3-1.24,6.21-.62,9.24-.43,1.94.12,3.92.44,5.9.5,1.44,0,1.77-.28,1.73-1.74,0-.27,0-.55-.05-.83-.16-2,.56-2.9,2.51-3.14.68-.09,1.22.17,1,.9-.8,2.92-.21,5.87-.24,8.8,0,1.22-.35,1.6-1.54,1.53-1-.06-2-.11-3-.11H48.91c-.4,0-.8,0-1.19,0-2.13.13-2.12.09-2.63-2a1.55,1.55,0,0,0-1-.86c-1.6-.33-1.75-.52-1.74-2.12,0-3,0-6.07-.08-9.1,0-.4-.63-1-1.08-1.13a6.54,6.54,0,0,1-3.77-2.61c-1.46-2.29-.81-4.35,1-6.67a12.91,12.91,0,0,1,2.51-2.2,2.93,2.93,0,0,0,1.47-3c-.21-1.46-.36-3,.84-4.19a2.36,2.36,0,0,1,1.4-.71c7.52,0,15,.08,22.55.1,3.66,0,7.32,0,11-.12a1.76,1.76,0,0,1,2,1.44,1.92,1.92,0,0,0,.46,1c1.38,1,1.39,2.32,1.29,3.83-.14,2.23-.09,4.48-.11,6.71,0,1.61.76,2.06,2.27,1.63,2-.57,4.08-1,6.14-1.4a2.07,2.07,0,0,1,1,.08c1.84.46,1.93,1.08.88,2.63s-2.75,1.82-4.3,2.35c-4.84,1.66-9.68,3.3-14.55,4.87-2.35.75-4.8,1.2-7.12,2a7,7,0,0,1-4.24-.12,18,18,0,0,0-5.13,0,2,2,0,0,1-2.31-1.4c-.26-.69-.88-1.25-1.14-1.95a2.83,2.83,0,0,1-.17-2,1.85,1.85,0,0,1,2.38-.87,25.81,25.81,0,0,1,3.22,1.56c.56.3,1,.79,1.6,1a2.31,2.31,0,0,0,1.45.21c1.35-.34,2.66-.81,4-1.25a7.17,7.17,0,0,0,1-.42c1.51-.77,1.59-1.33.31-2.43-1.11-1-2.31-1.84-3.36-2.86a6.94,6.94,0,0,1-1-1.73c.63-.34,1.34-1.05,1.88-.94a47.6,47.6,0,0,1,5.72,1.6c2.19.72,4.34,1.57,6.52,2.31A1.43,1.43,0,0,0,78.71,30c.08-2.32.1-4.64,0-7-.07-1.43-1-2-2.43-2H62ZM45.33,27.54c0-2.12-.84-2.89-2.85-2.59a5,5,0,0,0-3.29,3.3c-.26,1.79,1.16,3.5,2.72,3.28A5,5,0,0,0,45.33,27.54ZM70.72,18c-.68-.56-1.09-1.13-1.44-1.1a1.52,1.52,0,0,0-1,1c-.06.25.53.91.87.94S70,18.38,70.72,18ZM73,19.51c.5-.75,1-1.17,1-1.63,0-.26-.61-.6-1-.89a4.66,4.66,0,0,0-1,1.22C72,18.42,72.54,18.86,73,19.51Zm3.53-.22c.52-.66,1.11-1.12,1-1.36-.15-.45-.68-.79-1-1.17-.32.34-.87.67-.89,1S76.11,18.59,76.56,19.29Z"></path><path d="M61.07,68.27A2.22,2.22,0,0,1,58.84,66a2.75,2.75,0,0,1,2.73-2.32,2.17,2.17,0,0,1,2.24,2A2.73,2.73,0,0,1,61.07,68.27Z"></path></svg>