<svg xmlns="http://www.w3.org/2000/svg" id="Layer_1" data-name="Layer 1" viewBox="0 0 109.57 159.82"><title>AsimovMarketingIcon-bt-omar bahaa</title><path d="M21.14.25C20.59.83,20.05,1.44,19.47,2c-1.94,1.9-4,3.69-5.82,5.71a32.75,32.75,0,0,0-3.35,4.86c-1.49,2.49-2.94,5-4.27,7.6-.82,1.61-1.42,3.34-2.08,5a3.37,3.37,0,0,0,0,1.06c0,.32.09.76-.07.93-1.26,1.23-.72,2.77-.78,4.2C3,33,3,34.59,3,36.18a5.26,5.26,0,0,0,.46,1.56A15.52,15.52,0,0,0,4.75,41c1.59,2.43,3.48,4.53,6.58,5.15a29.85,29.85,0,0,1,3.53,1.27,5.44,5.44,0,0,0,1.72.39c5.84,0,11.67,0,17.51-.08a1,1,0,0,1,.47,0c2.45,1.52,5.15.64,7.72.71a7.72,7.72,0,0,1,3.75.81,29.39,29.39,0,0,0,4.37,1.82,7.62,7.62,0,0,1,4.73,4.77c.5,1.28.87,2.62,1.44,3.87a3.61,3.61,0,0,0,3.16,2c1.47.13,3-.1,4.43-.05a5,5,0,0,1,1.9.54c1.33.65,1.62.54,2.37-.68,1.68-2.72,1.84-5.73,1.74-8.79a4.09,4.09,0,0,0-.29-.9c-.19-.69-.35-1.39-.52-2.08a4.09,4.09,0,0,0-.22-1c-1.38-2.51-2.75-5-4.23-7.47a6.19,6.19,0,0,0-1.78-1.75c-4.73-3.36-10-5.8-15.13-8.38a9.64,9.64,0,0,1-5-5.6A5,5,0,0,1,43.36,22a25.33,25.33,0,0,1,4-6c1.52-1.58,3.66-2.59,5.55-3.82a21.81,21.81,0,0,1,2.49-1.41,3.65,3.65,0,0,1,1.25-.08c-.06.45,0,1.06-.22,1.33-1.92,2-4,3.82-5.87,5.83a20.59,20.59,0,0,0-2.81,3.81c-1,1.68.1,4.25,2.07,5.25,3.6,1.82,7.28,3.48,10.83,5.4a54.32,54.32,0,0,1,5.49,3.75c.41.29.69.78,1.1,1.1,3,2.34,4.49,5.73,6.12,9,.44.9,1,1.72.62,2.8a.68.68,0,0,0,.14.56c1.14,1.14.83,2.59.85,4,0,1.64,0,3.28,0,4.92a2.67,2.67,0,0,1-.38,1.33c-1.34,2.12-.54,3.89,2,4.38a10.77,10.77,0,0,1,1.88.66A5.29,5.29,0,0,0,79,65c1.33.28,2.67.51,4,.82a2.44,2.44,0,0,1,1.13.58c1.17,1.1,2.31,2.23,3.4,3.39a2.14,2.14,0,0,1,.56,1.25c.06,1.4,0,2.8,0,4.2,0,2,1.25,2.89,3,1.92a5.09,5.09,0,0,1,5.59,0,1,1,0,0,0,.68.16c1.83-.36,3.08.72,4.41,1.67a23.5,23.5,0,0,1,2.48,1.62A14,14,0,0,1,108,87.33a8.35,8.35,0,0,1,.55,3.68,1.31,1.31,0,0,0,.27.77,4.49,4.49,0,0,1,.05,4.82c-.36.66-.12,1.62-.22,2.44a13.2,13.2,0,0,1-.43,2.15c-.33,1.14-.75,2.24-1.13,3.36l-.69,2-1.05,3a3.35,3.35,0,0,1-.23.55c-1,1.75-2,3.53-3.09,5.23s-2.13,3.06-3.26,4.54c-1.72,2.27-3.41,4.58-5.28,6.73a41.65,41.65,0,0,1-4.06,3.66,14.92,14.92,0,0,0-1.32,1,21.21,21.21,0,0,1-5.46,4c-1.65.95-2.29,2.57-2.83,4.28a10,10,0,0,1-1,2.53c-1.39,2.11-3,4.12-4.35,6.24-1.09,1.66-2,3.43-3,5.12a6,6,0,0,1-1.28,1.33c-.52.43-1.12.76-1.68,1.14-.16.11-.3.31-.47.35-1.75.35-3.5.67-5.25,1-.64.12-1.28.27-1.92.44-.22.06-.44.34-.63.31-2.52-.39-4.73,1.55-7.31,1-.63-.14-1.39.34-2.08.52a5.29,5.29,0,0,1-1.36.33c-3.92,0-7.84,0-11.76,0-.31,0-.75.06-.92-.12-1-1-2.25-.51-3.37-.76a30.05,30.05,0,0,1-4.78-1.73c-1.14-.48-2.18-1.2-3.33-1.63a8,8,0,0,1-4.6-4.42c-1.5-3.11-3.29-6.08-4.89-9.14-1.41-2.68-2.78-5.4-4.09-8.13-.68-1.42-1.22-2.91-1.78-4.38a6.08,6.08,0,0,1-.08-1.06c-.1-.56-.24-1.12-.39-1.67-.05-.18-.3-.38-.27-.52.58-2.29-1.32-4.16-1-6.44a8.77,8.77,0,0,0-.57-2.44,6,6,0,0,1-.19-1.63c.06-1.2.23-2.38-.67-3.41a1.81,1.81,0,0,1-.26-1.13c0-6.2,0-12.4.1-18.6,0-1.24.16-2.47-.76-3.51a1.51,1.51,0,0,1-.19-.92c0-5.07,0-10.15,0-15.22A3.57,3.57,0,0,1,6,71.72c.13-.33.44-.63.46-1,.13-2.1,1.64-3.25,3.21-4,2.22-1.09,4.72-1.61,6.94-2.7a6.55,6.55,0,0,1,3.63-.59.57.57,0,0,0,.35-.07c1.51-1.36,3.33-.77,5-.82.24,0,.54.07.71,0,2.25-1.48,4.75-.44,7.11-.72a14.2,14.2,0,0,0,1.9-.46A7.68,7.68,0,0,1,37,61c3,0,5.92.08,8.88,0A4,4,0,0,0,48,60.18c.88-.64.82-1.48.42-2.54a8.06,8.06,0,0,0-5.22-5c-1.48-.53-2.88-1.25-4.34-1.85a2.43,2.43,0,0,0-.94-.11l-18.59.11c-.23,0-.56,0-.69-.12-1.26-1.28-2.84-.72-4.31-.83A12.84,12.84,0,0,1,12,49.3a3.11,3.11,0,0,0-.66-.24c-4.28-.21-7-2.67-9.13-6.13-.2-.34-.58-.58-.73-.93a9.42,9.42,0,0,1-.6-1.79c-.1-.41.07-1-.15-1.25a3.82,3.82,0,0,1-.68-3c.09-2.4,0-4.8,0-7.2a3.36,3.36,0,0,1,0-.95c.44-1.47,1.05-2.9,1.36-4.4C2,20.33,4,17.92,5.17,15.17a21,21,0,0,1,5-7,45,45,0,0,1,4.06-3.89c2-1.4,3.59-3.43,6.05-4.15A4.35,4.35,0,0,1,21,0ZM82.52,88.79h0c0-3.16,0-6.32,0-9.47a1.6,1.6,0,0,0-.5-1.21c-.29-.15-.85.14-1.27.28s-.94.37-1.4.56a8.12,8.12,0,0,1-4.47.82c-.2,0-.42.21-.65.27-2,.46-4.06,1-6.13,1.33-1.49.21-3.1-.46-4.47.69-.18.15-.54.12-.81.12l-4.92,0c-1.45,0-3-.35-4.23.77-.2.17-.61.13-.93.13-3.64,0-7.28,0-10.92,0-1.28,0-2.54.13-3.65-.76A2,2,0,0,0,37,82.08c-1.64,0-3.28.1-4.92.08a7.9,7.9,0,0,1-1.6-.38,13.88,13.88,0,0,0-1.91-.43c-1.17-.11-2.37-.06-3.54-.21-1-.13-2-.57-3-.64-1.24-.1-2.55.39-3.63-.65a.61.61,0,0,0-.46-.09c-1.63.35-2.81-.57-4.07-1.36a1.82,1.82,0,0,0-1.39-.29c-.25.1-.4.81-.4,1.24q0,17.88,0,35.76c0,.43,0,1,.2,1.26,1,1,.86,2.17.76,3.38a2.37,2.37,0,0,0,.12.82c.75,2.33,1.49,4.66,2.28,7,.68,2,1.3,4,2.17,5.93,1.68,3.69,3.73,7.19,5.68,10.75a12.23,12.23,0,0,0,6.87,5.56c1.44.55,2.88,1.56,4.66,1.19a8.22,8.22,0,0,1,2.7.13c1,.14,1.89.53,2.85.6,1.19.08,2.39-.08,3.59-.06a2.76,2.76,0,0,1,1.36.33c.62.37.76.94-.07,1.2-1,.31-2,.43-3.08.64a10.72,10.72,0,0,0-2.14.47c-.28.12-.35.73-.51,1.12a3.36,3.36,0,0,0,1.12.43c3,0,6.08,0,9.11,0a5.14,5.14,0,0,0,3.44-.7,2.27,2.27,0,0,1,1.27-.18c1.54.05,3.09.37,4.51-.65.35-.25,1-.11,1.52-.11a9.61,9.61,0,0,0,1.19.07.83.83,0,0,0,.63-.41.85.85,0,0,0-.3-.68,3.29,3.29,0,0,0-2.61-.95c-.32,0-.69-.39-1-.6.19-.26.32-.67.58-.78a35.65,35.65,0,0,1,4.34-1.56,24.77,24.77,0,0,0,6.58-2.58,3.33,3.33,0,0,0,1.28-1.3c1-2.18,1.91-4.42,2.89-6.62,1.1-2.5,2.24-5,3.36-7.48a2.31,2.31,0,0,0,.11-.47c.26-1.64,1.3-3.14.9-4.91,0-.16.16-.36.21-.56.21-.89.45-1.79.61-2.7s.14-1.56.28-2.33.43-1.39.51-2.1c.15-1.22-.07-2.54.34-3.63a5.85,5.85,0,0,0,.58-2.72,7.82,7.82,0,0,1,.09-3.52,9,9,0,0,0,.61-3.08c.17-2.16-.76-4.46.8-6.46.17-.21.1-.62.1-.94Zm12.65-1a7.06,7.06,0,0,0-2.66.37,27.41,27.41,0,0,0-3.94,3A2,2,0,0,0,88,92.61c0,3.19,0,6.39.06,9.59a1.86,1.86,0,0,1-.23,1.13,3.15,3.15,0,0,0-.62,2.58c.07,1.47.48,3.16-.1,4.36a9,9,0,0,0-.74,4.13c0,.56.16,1.41.53,1.63a1.8,1.8,0,0,0,2.28-.44c.76-.81,1.67-1.5,2.39-2.35,2.11-2.46,5.1-4.16,6.3-7.39.89-2.39,2.9-4.34,2.72-7.14,0-.27.31-.54.46-.82a3.69,3.69,0,0,0,.41-.85c.5-2.25-1.27-4.1-1.1-6.29,0,0,0-.07-.06-.09C98.84,89.32,97.8,87.14,95.17,87.84ZM50.35,71.55v.17h3.36a31.05,31.05,0,0,1,3.48,0c2.73.33,5.05-.24,6.7-2.61a2.47,2.47,0,0,1,.45-.4c1-.87.92-1.48-.27-2a4.11,4.11,0,0,0-1.5-.24c-1.6-.08-3.29.48-4.72-.73-.18-.15-.54-.11-.82-.11-6.15,0-12.31,0-18.47,0a7.38,7.38,0,0,0-1.48.35,12.78,12.78,0,0,1-2.17.48c-1,.08-2.2-.3-3.08.07a7.18,7.18,0,0,1-3.59.49c-.35,0-.74.39-1.11.59.36.3.7.8,1.09.85a16.88,16.88,0,0,0,2.75,0c1.91-.1,3.82-.25,5.74-.3a1.75,1.75,0,0,1,1.06.57.94.94,0,0,1-.22.81c-1.59.58-3.18,1.15-4.81,1.58-.57.15-1.41-.27-1.5.67s.69,1,1.34.93c2-.26,4,.13,5.82-1a1.32,1.32,0,0,1,.69-.14Zm20.7,3.78.13-.23a10.29,10.29,0,0,0,2.57-.36,17.76,17.76,0,0,0,3.46-1.86c.53-.35,1.27-1.33,1.14-1.52a4.39,4.39,0,0,0-1.82-1.47,40.45,40.45,0,0,0-4.29-1.52c-.39-.13-1-.21-1.27,0q-2.19,2-4.22,4.23a1.35,1.35,0,0,0,.16,1.23C68.26,74.41,69.66,74.85,71.05,75.33Zm-47.62-6a3.42,3.42,0,0,0,1.1,0c.32-.1.56-.43.84-.65a7.57,7.57,0,0,0-.88-.64c-.16-.08-.39,0-.59,0-2.62-.1-4.76,1.29-7,2.29-.31.14-.37.83-.54,1.27a4.43,4.43,0,0,0,1.3.06,15.72,15.72,0,0,0,2.17-.8,2.33,2.33,0,0,0,1-.6A2.3,2.3,0,0,1,23.43,69.29Zm41.45,84.43a10.14,10.14,0,0,0,1.55-1.24c.19-.22.06-.71.07-1.08a4,4,0,0,0-1.1,0,3.39,3.39,0,0,0-1,.59c-.32.26-.6.59-.9.88ZM24.6,75.11l.17.27,1.45-1c-.54-.22-1.07-.45-1.61-.66a.53.53,0,0,0-.35,0c-.42.19-.84.41-1.25.62.41.26.81.54,1.24.79C24.33,75.16,24.48,75.11,24.6,75.11Zm59.92-4.92a9.93,9.93,0,0,0-1.63-1.27c-.11,0-.75.53-.8.86a1,1,0,0,0,1.14,1.16C83.56,70.91,83.87,70.58,84.52,70.19Z"></path><path d="M79.15,146.56c-.24-2,.73-3.49,2-4.84.67-.74,1.41-1.41,2.15-2.08a1.48,1.48,0,0,1,2.4.1c.81,1,1.77,1.93.91,3.46-1,1.86-1.77,3.9-2.92,5.67a2.47,2.47,0,0,1-3.17.9A2.36,2.36,0,0,1,79.14,147,2.13,2.13,0,0,0,79.15,146.56Z"></path><path d="M48.09,92.13h3a1.47,1.47,0,0,1,.7,0c1.9,1.14,4.11,1.51,6,2.87a36.19,36.19,0,0,1,4.81,4.25c.43.43.49,1.24.7,1.88,0,.1-.07.25,0,.35.46,1.59.92,3.17,1.4,4.75a6.28,6.28,0,0,1,.45,1.44c.06,2.28,0,4.56,0,6.84a1.67,1.67,0,0,1-.13.81,37,37,0,0,1-3.79,5.93c-2.6,2.88-5.86,4.61-9.24,6.23a2.19,2.19,0,0,1-.92.14l-6.58,0a3.26,3.26,0,0,1-.83,0,15.58,15.58,0,0,1-8.58-5.89,22.6,22.6,0,0,1-1.82-3.49c-.18-.36-.27-.83-.55-1-1.37-1.11-1.35-2.9-2.13-4.3a4.68,4.68,0,0,1-.07-2.22c.06-1.48-.36-3,.82-4.33a.48.48,0,0,0,.08-.34c-.17-2.59,1.37-4.47,2.75-6.38a46.21,46.21,0,0,1,3.07-3.79,5.74,5.74,0,0,1,3.74-2,1.59,1.59,0,0,0,.79-.23C43.63,92.13,45.81,92,48.09,92.13Zm1.07,13.45.61-.17c-.42-1.78-.81-3.58-1.31-5.34a1.27,1.27,0,0,0-1-.65,1.46,1.46,0,0,0-1.17.53c-.63,1.42-2.28,2.32-2.11,4.15,0,.2-.23.41-.33.62-1.23,2.66-2.49,5.31-3.62,8-.19.45.21,1.15.34,1.73.52-.16,1.19-.18,1.53-.53a12.85,12.85,0,0,0,1.75-2.37,2.55,2.55,0,0,1,2.94-1.27c.36.12.86.71.8,1-.27,1.23.37,2.15.79,3.17.28.7.56,1.29,1.46.84,1.1-.55,1.73-1.66,1.17-2.24a3,3,0,0,1-.71-2.87,2.54,2.54,0,0,0-.14-1C49.84,107.93,49.5,106.76,49.16,105.58ZM52.63,104c.16-.13.66-.35.76-.69.19-.61-.84-1.58-1.56-1.43a1.3,1.3,0,0,0-.88.84C50.86,103.62,51.52,103.92,52.63,104Z"></path></svg>