<svg xmlns="http://www.w3.org/2000/svg" id="Layer_1" data-name="Layer 1" viewBox="0 0 162.41 159.15"><title>AsimovMarketingIcon-bt-omar bahaa</title><path d="M53.48,152.17c.38-.2.59-.32.8-.42,1.85-.84,3.73-1.63,5.54-2.56.46-.23.69-.91,1-1.38-.54-.1-1.16-.42-1.61-.26-2.11.74-4.17,1.65-6.28,2.4-1.17.43-2.42.67-3.63,1a5.07,5.07,0,0,0-.86.37c-.18.09-.32.3-.49.33l-5.49.93c-.79.14-1.58.33-2.37.49a8.67,8.67,0,0,1-1.51.26c-1.11,0-2.23,0-3.35,0-.36,0-.83-.05-1,.14-1.3,1.19-2.85.78-4.33.8l-5.16,0c-.16,0-.36.08-.47,0-2.49-1.53-5.65-.66-8.11-2.25-1.87-1.21-4.14-2-5-4.32a.23.23,0,0,0-.07-.1c-.8-.9-2-1.62-.91-3.13.7-1,1.11-2,2.31-2.64,1-.54,1.7-1,2.8,0,.51.42,1.61.12,2.44.16a3.18,3.18,0,0,1,1.4.14c2.36,1.42,4.93.68,7.37.58,1,0,2-.72,3.16-.59.75.09,1.07-.68.48-1.21a3.16,3.16,0,0,0-1.84-.85c-2.92,0-5.84.09-8.75.16a1.89,1.89,0,0,1-2.1-1.43,1.3,1.3,0,0,0-1.87-1.05,1.35,1.35,0,0,1-.82,0c-1.32-.52-2.61-1.12-3.94-1.62-1.61-.6-3.29-1.05-4.88-1.72-2-.82-4-1.53-5.5-3.22-.16-.18-.39-.4-.38-.6a23.54,23.54,0,0,1,.31-4.92,5.55,5.55,0,0,1,3.16-3.57c1.65-.78,3.16-1.85,4.73-2.78.23-.14.52-.39.74-.35,2,.41,3.35-1,5-1.64.29-.11.74-.48.7-.64a1.63,1.63,0,0,0-.67-.89c-1.16-.75-2.41-1.37-3.53-2.18A4.06,4.06,0,0,1,9.36,112a5.83,5.83,0,0,1,1-5.69A16.26,16.26,0,0,1,12,104.77a3.36,3.36,0,0,1,1.66-.71c.92,0,1.21-.48,1.2-1.27,0-4.88-.17-9.76,0-14.63,0-1.6.79-3.19,1.22-4.78.13-.48.31-.94.44-1.42A13.25,13.25,0,0,1,17,79.83a3.58,3.58,0,0,1,4-2.16c.16,0,.37,0,.47,0,1.76-1.37,3.78-.55,5.67-.68,1.51-.11,1.83-.34,1.81-1.86,0-4-.09-7.92-.13-11.87a1.32,1.32,0,0,1,.15-.81,3.47,3.47,0,0,0,.65-3.26,1,1,0,0,1,0-.59c1.22-2.48,2.45-5,3.71-7.41,1.71-3.32,4.65-5.35,7.87-6.88A10,10,0,0,1,46.31,43c2.39.18,4.8,0,7.19,0a2.28,2.28,0,0,1,.83.08c2.37.89,4.81,1.66,6.75,3.35.73.63,1.08,1.69,1.8,2.34a20.51,20.51,0,0,1,4.29,6.13,22,22,0,0,1,1,3.6c.38,1.23.83,2.44,1.26,3.65.09.26.39.53.34.74-.33,1.66.64,3.06.83,4.6.1.86.48,1.12,1.3,1.19,2.13.18,4.21.5,5.71,2.31.55.68,1.3,1.19,1.87,1.85.43.5.67,1.15,1.1,1.66.28.34.74.75,1.11.74s.82-.59.83-.93c.06-2.47,0-5,0-7.43,0-.26-.22-.5-.3-.76A8.9,8.9,0,0,1,81.7,64c0-.89.08-1.76-.68-2.43a.39.39,0,0,1-.13-.2,23,23,0,0,1-.81-5c.15-2.7-.92-4.83-3.1-5.84-3.21-1.49-5.23-4.16-7.64-6.44a51.1,51.1,0,0,1-3.68-4.21.45.45,0,0,1-.12-.21c-.32-2.86-.66-5.72.2-8.55.11-.34.18-.68.26-1a4.23,4.23,0,0,1,.25-1c1.41-2.53,2.78-5.1,4.31-7.56A48.74,48.74,0,0,1,74.48,16c1.27-1.53,2.87-2.79,4.2-4.28,1.92-2.15,4.68-2.82,7-4.18a.7.7,0,0,1,.47-.07c2.63.79,4.55-.91,6.72-1.83,2-.86,4.15-1.42,6.14-2.31a7,7,0,0,1,3.58-.63c.32,0,.66-.25,1-.33.79-.19,1.59-.33,2.38-.52a8.72,8.72,0,0,0,2-.59,1.31,1.31,0,0,1,1.62,0,2.62,2.62,0,0,0,1.72.51c2.79-.47,5,.83,7.3,2.05.87.45,2.06.28,3.09.44.63.1,1.25.32,1.88.45s1.52.25,2.27.41,1.26.28,1.89.46c.3.08.61.41.86.35,1.66-.38,3.11.32,4.58.85a35.81,35.81,0,0,1,6.68,2.76c1.48.92,2.53,2.61,3.59,4.08,1.3,1.8,2.48,3.7,3.6,5.63,1.81,3.13,3.6,6.28,5.23,9.51a37.84,37.84,0,0,1,1.79,5.09q.75,2.31,1.43,4.65a3.55,3.55,0,0,1,.11,1.3,3.14,3.14,0,0,0,.68,2.66,1.49,1.49,0,0,1-.35,2.23c-.47.36-1,.59-1.55.91-1.66,1.07-3.28,2.22-5,3.22A24.78,24.78,0,0,1,146,50.34c-1.21.48-2.45.87-3.67,1.3-.26.09-.56.3-.79.24-1.73-.46-2.61.87-3.7,1.74-.57.45-.52.94-.15,1.57a4.86,4.86,0,0,1,.66,2c.1,1.51-.46,3.12.83,4.43.17.17.12.61.11.92,0,2.32-.07,4.64-.08,7,0,.35,0,.84.16,1,1,.92.71,2.06.7,3.15,0,4.4-.08,8.8-.11,13.2,0,.27,0,.64.15.8,1,1.08.72,2.35.71,3.63,0,5.68.06,11.36,0,17a7.81,7.81,0,0,0,.88,4c.48.91,1.16.88,1.92.78s.82-.74.8-1.37c0-1,0-2.08-.08-3.12s.34-1.48,1.42-1.38c.87.07,1.75,0,2.63,0,.16,0,.34-.08.47,0,2.71,1.33,6,.92,8.53,2.9,1.33,1,2.92,1.75,4.29,2.75a3,3,0,0,1,.68,1.67c.52,2.35-.55,4.07-2.33,5.45a14.11,14.11,0,0,1-5.76,2.91,32.48,32.48,0,0,0-3.35,1.17c-1.34.44-2.69.83-4,1.26-1.58.51-3.16,1-4.75,1.55a20.86,20.86,0,0,0-3.82,1.15c-1.29.69-2.65.37-3.87.73a9.8,9.8,0,0,1-4,.63.37.37,0,0,0-.23.05c-2.07,1.6-4.46.71-6.72.9-1.24.1-2.49.2-3.73.33a.65.65,0,0,0-.5.28c-.48,1.22-1.74,2.13-1.43,3.67a1.53,1.53,0,0,1-.11,1c-1,1.63-1.76,3.51-3.11,4.77-2.63,2.47-5.48,4.73-9.13,5.68-1.28.33-2.48,1-3.75,1.37a3.94,3.94,0,0,1-1.64.12,5,5,0,0,0-3.2.64c-1.84,1-4,1.64-5.63,2.89s-3.43,1.55-5.08,2.45c-1.89,1-3.82,2-5.77,2.93a7.53,7.53,0,0,1-2.35.72c-1.76.21-3.22,1.56-5.16,1.17a6.21,6.21,0,0,0-2.26.48,7.42,7.42,0,0,1-1.38.25,25,25,0,0,1-3-.06,13.22,13.22,0,0,1-2.11-.51c-.23-.06-.45-.24-.67-.23-2.23.07-4.14-.94-6.06-1.82A2.18,2.18,0,0,1,56.17,155a2.17,2.17,0,0,0-1.94-2.33C54.09,152.67,54,152.52,53.48,152.17ZM85.56,74.6h0v2.76c0,.92,0,1.83,0,2.75,0,1.51.18,1.86,1.7,1.7a9.31,9.31,0,0,1,6.26,1.4c1.65,1.08,3.53,2,3.72,4.43.11,1.45,1.57,1.93,2.71,1a1.46,1.46,0,0,1,1.95-.08,4.52,4.52,0,0,0,1.63.6,2.14,2.14,0,0,1,1.93,2.19c0,1.4-.06,2.8-.14,4.2-.11,1.71.51,2.48,2.26,2.68a2,2,0,0,1,2,2.23c0,1.23.06,2.47,0,3.71a5.08,5.08,0,0,1-.31,1.25,19.3,19.3,0,0,0-.63,2.31,7.23,7.23,0,0,0,0,2.74,6.48,6.48,0,0,0,1.51,3.22,5.15,5.15,0,0,1,2,3.45c0,.36.53.92.83.93,1.92.09,3.83.06,5.75,0,.25,0,.49-.26.75-.35a8.61,8.61,0,0,1,1.76-.51,20.73,20.73,0,0,0,2.85-.09c1.62-.39,3.18-1,4.77-1.53.78-.26,1.56-.52,2.34-.8,1.88-.7,3.81-1.31,5.62-2.17a2.46,2.46,0,0,0,1-1.84c.05-6.2,0-12.4,0-18.6,0-1.29.32-2.65-.79-3.73-.14-.13-.14-.45-.14-.68,0-2.52,0-5,.1-7.56,0-1.13.2-2.21-.69-3.14a1.47,1.47,0,0,1-.18-.91c0-2.8,0-5.6.12-8.4,0-1.08.15-2.15-.72-3a1.39,1.39,0,0,1-.21-.9c0-2.64.3-5.29.11-7.91-.12-1.52-1.09-3-1.15-4.57,0-.07-.11-.12-.14-.2a47.7,47.7,0,0,1-1.39-5,22.42,22.42,0,0,1,0-4.18,2.33,2.33,0,0,1,.3-1.13,2.4,2.4,0,0,0-.14-3.27c-.14-.17-.42-.37-.57-.33a1.14,1.14,0,0,0-.56.51,20.46,20.46,0,0,0-1.05,1.82,4.57,4.57,0,0,0-.52,1.52,16.29,16.29,0,0,0,0,2.88c.26,2.43-.8,5,.86,7.3,0,.06,0,.16,0,.24.08,1.18.18,2.37.22,3.56a1.25,1.25,0,0,1-.32.69s-.39-.05-.51-.18c-1.49-1.56-1.81-3.69-2.66-5.56,0,0,0-.08,0-.12,0-2.27,0-4.55.13-6.83a4.16,4.16,0,0,0-.75-3.16,1.82,1.82,0,0,1-.18-1.14c0-1,0-1.92.1-2.87.1-1.79-.13-3.51.63-5.36.52-1.28.38-3,.91-4.49s.62-2.91,1.15-4.27A30.57,30.57,0,0,1,132,17.37a21.78,21.78,0,0,1,2.61-3.79c1.65-1.76,1.74-1.69-.48-2.67a18.78,18.78,0,0,0-3-1.12c-1.48-.38-3-.61-4.5-.91a.22.22,0,0,1-.11-.05c-1-1-2.21-.69-3.4-.73A11.45,11.45,0,0,1,121,7.57c-.42-.1-1-.3-1.27-.12-1.17.82-2.27,1.73-3.35,2.66-2.62,2.25-4.69,5.05-7.73,6.91-1.56,1-3,2.25-4.71,2.95a7,7,0,0,1-1.85.66,5.65,5.65,0,0,1-4.89-2.27,4.52,4.52,0,0,1-.71-2c-.14-.61.09-1.4-.22-1.85a4.56,4.56,0,0,1-.61-3.2,6.94,6.94,0,0,0,0-1.44,1,1,0,0,0-1.66-.68c-.24.19-.41.48-.64.7-1.91,1.81-4,3.27-6.8,3.2a1.33,1.33,0,0,0-.86.31,28.13,28.13,0,0,0-5.14,6.4c-.82,1.3-1.77,2.53-2.59,3.84a3.88,3.88,0,0,0-.67,1.8c-.09,1.75-.07,3.51,0,5.27a7,7,0,0,0,.45,1.55c.44,1.56.88,3.12,1.31,4.68a.25.25,0,0,1,0,.12,3.26,3.26,0,0,0,.57,3c.24.32,0,.92.13,1.38.31,1.75.65,3.49,1,5.23,0,.11.17.19.2.29.16.55.32,1.1.44,1.66.37,1.76,1.06,3.47.91,5.33,0,.06.09.13.11.21a11.88,11.88,0,0,0,.76,2.07,4.39,4.39,0,0,1,.66,3.13c0,.16.19.35.24.54a19.58,19.58,0,0,1,.6,2.46c.25,1.95-.81,4.07.78,5.87.14.16.08.54.08.81ZM17.06,102h.1c0,1.67-.08,3.36,0,5a2.54,2.54,0,0,0,.9,1.55c2.38,2,4.8,3.89,7.23,5.8.32.25.87.59,1.1.47a36.48,36.48,0,0,0,4.33-2.52c.78-.55,1.37-1.15,2.44-.79.33.12.84-.15,1.2-.36,1.12-.67,2.21-1.4,3.3-2.11,1.72-1.11,3.68-2,3.69-4.55a1.16,1.16,0,0,1,.29-.65c.87-1.12,1.71-2.27,2.65-3.33a4.51,4.51,0,0,0,1.14-2.13c.29-1.24,1-2.37.78-3.72,0-.07.07-.15.1-.22,1.06-2.15,2.11-4.33,4.08-5.83.86-.65,1.81-1.17,2.65-1.83,1.38-1.08,2.78-1.93,4.67-1.64a16.59,16.59,0,0,0,2.63-.06,1.84,1.84,0,0,1,.92.13c1.06.69,2.06,1.46,3.12,2.15,2,1.32,4,2.83,6.56,2.77.69,0,1.44.17,1.63-.75s-.5-1.07-1.15-1.38c-1.64-.79-3.26-1.65-4.82-2.6-.74-.45-.63-1,.23-1.37,1.39-.61,2.73-1.26,4.13-.06a.92.92,0,0,0,.57.15A3.08,3.08,0,0,1,74,85.43c.51.56,1,1.11,1.6,1.62a2.35,2.35,0,0,0,3.71-.69,4.82,4.82,0,0,1,1-1.19,1.25,1.25,0,0,0,.24-1.79,7,7,0,0,1-.54-2,8.68,8.68,0,0,0-.16-1c-.46-1.29-.94-2.57-1.46-3.83a43,43,0,0,0-1.9-4.21c-.21-.39-.94-.52-1.46-.71s-1.25-.17-1.68-.5a1.36,1.36,0,0,0-2.09.18c-.74.76-.33,1.24.41,1.69.49.3.83.86.14,1.2A7.52,7.52,0,0,1,69.2,75c-2.3.17-4.43,1.42-6.82,1-.24,0-.52.35-.81.46a12.29,12.29,0,0,1-1.36.34l-1.9.41c-.46.1-.91.23-1.37.31a11.06,11.06,0,0,0-1.29.14c-1.6.48-3.2,1-4.79,1.5s-2.9,1-4.36,1.42-2.62.81-4,1.15c-.3.07-.9,0-.95-.2a1.36,1.36,0,0,1,.18-1.07,1.62,1.62,0,0,0-.29-2.34c-.81-.85-3.08-1.06-4.4-.38A11.78,11.78,0,0,1,34.78,79c-1.69.44-3.44.61-5.15,1a3.51,3.51,0,0,0-1.47.86,1,1,0,0,0,.05,1c.78,1.13,1.73,2.16,2.43,3.33a32.36,32.36,0,0,1,2,4.19c.75,1.82,1.4,3.68,2.06,5.53a5.57,5.57,0,0,1,.46,1.88c0,1-.11,1.9.69,2.68.21.21.21.67.22,1,0,1.84,0,3.67.07,5.51,0,1-.88,2.18-1.69,2.13s-1.61-1.22-1.54-2.25c.09-1.27.14-2.55.19-3.83,0-.85-.38-1.2-1.26-1.4-1.63-.39-3.19-1.15-4.94-.89-.09,0-.21-.09-.32-.15-2.48-1.27-4.95-2.58-7.45-3.81-1.29-.64-2.12-.07-2.11,1.35C17.06,98.7,17.06,100.34,17.06,102Zm63.71,27.66v.05H96.36a2,2,0,0,0,1.06-.12,4.72,4.72,0,0,1,3.53-.67c1,.11,1.49-.48,1.36-1.47-.2-1.45.39-3.05-.82-4.34-.18-.18-.11-.61-.11-.93,0-1,0-1.92,0-2.88.07-1.28.25-2.54-.8-3.59-.2-.2-.15-.68-.16-1,0-1,0-2,0-3,0-.47,0-1.1.21-1.37,1-1,.84-2.17.82-3.37a10.6,10.6,0,0,1,.19-2.71c.42-1.68,1-3.31,1.53-5a2.81,2.81,0,0,0,0-.71c0-.8,0-1.6,0-2.4,0-2.19-.14-2.3-2.31-2.2-1.4.06-2.77.34-4.12-.66a2,2,0,0,0-3.07,1c-.51,1.19-.85,2.46-1.43,3.61-1,1.92-1.74,3.76-.1,5.73a1,1,0,0,1-.22,1c-.23.16-.74,0-1.07-.11a13.56,13.56,0,0,0-1.64-.86c-.51-.12-1.08.1-.94.86.21,1.11.48,2.21.65,3.33a6.54,6.54,0,0,1-.14,1.45c-.49-.25-1-.47-1.47-.76-.64-.39-1.22-.89-1.88-1.23-.17-.1-.82.24-.81.32.17,1.26-.5,2.62.57,3.78.26.29.2,1,.1,1.47a3.42,3.42,0,0,1-.64,1.26c-.16.24-.46.53-.69.53a1,1,0,0,1-.66-.56c-.33-.72-.58-1.48-.86-2.23s-1-1.11-1.53-.5c-.8.92-1.93,1.6-2,3.14s-1.29,2-2.58,1.15c-.29-.19-.91-.34-1-.2-.84.89-2.14,1.43-2.11,3,0,1.17-.89,1.6-1.91,1-.47-.28-.77-.87-1.25-1.09A3.76,3.76,0,0,0,68,118c-.31.06-.59,1-.62,1.58-.07,1,.1,2.07.08,3.11a3.56,3.56,0,0,1-.45,1.13,6.09,6.09,0,0,1-1.13-.51,1.63,1.63,0,0,1-.53-.78A3.69,3.69,0,0,0,63,120.08c-.39-.17-.8-.27-1.2-.4a6.4,6.4,0,0,1-.23,1.32,3.64,3.64,0,0,1-.87,1.57c-.29.22-1-.08-1.47-.11a3,3,0,0,0-1.07,0c-1.65.53-2.1,2.22-2.94,3.42-1.44,2-.74,3,1.84,3,1.64,0,3.28,0,4.91,0a5.74,5.74,0,0,1,1.26.29,7.36,7.36,0,0,0,1.81.44C70.29,129.66,75.53,129.64,80.77,129.64Zm18,10.44.14.35c2.54,0,4.5-1,5.49-3.5.27-.7.3-1.5.62-2.16s1-1.09.29-1.88c-.49-.56-.81-1.64-1.33-1.73a7.71,7.71,0,0,0-4,.13,7.24,7.24,0,0,1-2.8.58c-9.92,0-19.84,0-29.76.06a5.22,5.22,0,0,1-1.27-.26,14.12,14.12,0,0,0-2.51-.61c-2.19-.11-4.39-.1-6.59-.1-1.15,0-2.3.26-3.29-.66a1.59,1.59,0,0,0-1.16-.12,6.45,6.45,0,0,1-2.72-.46,29.62,29.62,0,0,0-5.6-1c-1.92,0-3.44-1.17-5.33-1.24-.76,0-1.57-.77-2.55-.54a1.55,1.55,0,0,1-.88-.28c-.71-.36-1.38-.81-2.11-1.12-1.64-.7-3.3-.31-4,1.43a4.9,4.9,0,0,1-.42.86c-.89,1.41-.91,1.75.28,2.87a9,9,0,0,0,2.21,1.58c3.38,1.58,6.53,3.8,10.44,4,.18,0,.35.2.53.26.62.2,1.25.38,1.88.56s1.14.27,1.7.44c.37.11.75.41,1.11.38a9.52,9.52,0,0,1,3.64.71c1.48.45,3.12.52,4.69.92,1.41.36,3,0,4.53-.06a1.87,1.87,0,0,1,1.13.2,3.68,3.68,0,0,0,2.82.72,11.6,11.6,0,0,1,2,0c2.68.34,5.51-.8,8.06.82.14.1.39,0,.59,0,1.8,0,3.59-.05,5.39-.05a5.14,5.14,0,0,1,1.15.25,15.71,15.71,0,0,0,2.47.63c1.39.1,2.8,0,4.2,0a9.73,9.73,0,0,0,1.51-.26,23.53,23.53,0,0,1,2.72-.58c1.26-.13,2.56,0,3.81-.16A16.66,16.66,0,0,0,98.76,140.08ZM57,55.57l.25-.06c-.29-1.33-.26-2.85-.94-3.94a23.58,23.58,0,0,0-3.84-4.35,2,2,0,0,0-1.84-.13,13.13,13.13,0,0,0-6.44,6.77,7.08,7.08,0,0,0-.79,1.94c-.1,1.19.11,2.39.07,3.59A4.22,4.22,0,0,1,43,61.15a2.83,2.83,0,0,0,0,3.14,3.39,3.39,0,0,1,.49,1.77c0,1.84-.12,3.67-.1,5.51,0,.34.48,1,.68,1a16.15,16.15,0,0,0,3.06-.7c1.22-.42,2.39-1,3.59-1.46a1.52,1.52,0,0,1,.93-.11c1.81.65,3.11-1,4.76-1,.22,0,.57-.68.58-1.06a27.86,27.86,0,0,0-.09-4.66c-.22-1.5,1.42-3-.07-4.45,0-.05,0-.23,0-.35C56.88,57.65,56.94,56.61,57,55.57Zm9.86,37.54c-2.12,0-3.72-.24-5.24.77-1,.69-1.3,1-.38,1.91.37.34.92.48,1.3.81.86.75,2.19,1.44,2.38,2.35a25.28,25.28,0,0,1,.12,5.84.81.81,0,0,1-1.46.52c-.42-.42-.94-1.1-.87-1.58a5,5,0,0,0-1.05-3.45,2.72,2.72,0,0,0-3.44-1.37c-.26.08-.66.36-.67.56,0,1.35-.45,3,.16,4,.92,1.52.37,3,.77,4.51a1.06,1.06,0,0,1-.58.86c-.28.07-.71-.2-1-.44s-.19-.51-.3-.77c-.34-.82-.81-1.53-1.85-1.3-.6.13-1.14,2.07-1,2.69a16.6,16.6,0,0,1,.48,3.36c0,.36-.59.74-.91,1.11a8,8,0,0,1-.83-.82c-.38-.51-.67-1.09-1.08-1.57-.52-.64-1-.56-1.34.22a3.65,3.65,0,0,1-1,1.42c-1.82,1.22-1.7,3-1.31,4.71.11.51.78,1.26,1.18,1.25a10.37,10.37,0,0,0,3.19-.66c1.39-.5,2.73-1.15,4.08-1.76a21.87,21.87,0,0,0,7.34-5.21c1.6-1.77,3.47-3.27,4.62-5.45s2.45-4,3.64-6c.76-1.27,1.44-2.58,2.09-3.9.21-.42.45-1.09.26-1.37s-.88-.41-1.36-.45c-.66-.05-1.54.32-2,0A5.73,5.73,0,0,0,66.85,93.11ZM14.73,121.37l-.17-.44c-1,.37-1.9.71-2.82,1.15-.1,0,0,.89.11.93,1.08.36,2.18.64,3.29.9a18.85,18.85,0,0,1,3.74.84,4.59,4.59,0,0,0,2.95.56c.25,0,.75.17.78.34a1.2,1.2,0,0,1-.28.94,1.31,1.31,0,0,1-.95.41c-1.13-.11-2.25-.33-3.38-.51-.74-.12-1.48-.25-2.22-.36A5.9,5.9,0,0,1,14.5,126c-1.73-.69-3.41-1.47-5.15-2.14A2.86,2.86,0,0,0,6,124.5a26.59,26.59,0,0,1-2.34,2.41A2.19,2.19,0,0,0,4,130.43c.89.48,2,.53,2.85,1.08a5.39,5.39,0,0,0,2.69.64,44.47,44.47,0,0,1,4.94,1.09c.6.14,1.19.3,1.78.46s1.07.26,1.59.43a8.23,8.23,0,0,0,1.21.48,35.8,35.8,0,0,1,4.56.71,28.31,28.31,0,0,1,4.76,2.09c.63.33,1.28,1.09,1.85.38s-.38-1.22-.89-1.62c-2-1.59-3.7-3.31-2.91-6.22a1.67,1.67,0,0,0,0-.83,7.42,7.42,0,0,1,1.43-5.73,2.11,2.11,0,0,0,.1-1.57,6.22,6.22,0,0,0-1-1.89c-.2-.26-.92-.5-1-.38a11,11,0,0,0-1.47,1.91c-.29.45-.4,1.34-.7,1.39a3,3,0,0,1-1.69-.54,22.06,22.06,0,0,0-3.16-1.85,5.15,5.15,0,0,0-2.5.28A11.4,11.4,0,0,0,14.73,121.37ZM31.84,70.1h.05c0,1.48-.05,3,0,4.44,0,.47.37,1.3.64,1.33a10.75,10.75,0,0,0,2.76-.18,5.09,5.09,0,0,0,1.31-.49,30.53,30.53,0,0,0,3.23-1.49c.23-.13.18-.88.13-1.32s-.41-.89-.41-1.33c0-3.16-.1-6.32.09-9.47.14-2.36-.43-4.69.62-7.13.75-1.73,1.52-3.44,2.36-5.12A5.2,5.2,0,0,0,42.94,48a4.06,4.06,0,0,0-1.45.34,23.7,23.7,0,0,0-5.08,5.3c-1.7,2.28-2.44,4.9-3.68,7.33a.54.54,0,0,0,0,.35A2.74,2.74,0,0,1,32,64a1.6,1.6,0,0,0-.17.92C31.83,66.67,31.84,68.38,31.84,70.1ZM95.13,89a4.27,4.27,0,0,0-.36-1.1c-1.34-1.68-2.86-3.09-5.21-3.06-.84,0-1.68,0-2.52,0a2.24,2.24,0,0,0-1.14.22c-1.2.84-2.37,1.74-3.5,2.66a5,5,0,0,0-.89,1.1c-1,1.43-2,2.85-2.91,4.3a2.07,2.07,0,0,0-.44,1.34c.07.28.74.57,1.15.58a34.46,34.46,0,0,0,4.19,0,5,5,0,0,1,4.19,1.8c.65.69,1.31.7,1.76-.09A5.73,5.73,0,0,0,89.88,95c.1-.53,0-1.25.31-1.55,1.06-1,2.28-1.83,3.39-2.78A19.1,19.1,0,0,0,95.13,89Zm-72.59.41.3.12c0,.47.1,1,.14,1.43.07,1.11-.58,1.65-1.64,1.39a3.92,3.92,0,0,1-2.34-3c0-.34-.2-.88-.41-1a1.27,1.27,0,0,0-1.05.34,1.93,1.93,0,0,0-.3,2.53,5.59,5.59,0,0,0,1.9,1.79q5.43,2.66,11,5.07A2.07,2.07,0,0,0,32,97.81c.3-.35,0-1.27-.13-1.93a10.16,10.16,0,0,0-.52-1.42c-.48-1.35-.86-2.76-1.46-4.07-1.06-2.32-2.31-4.56-3.38-6.87-.71-1.51-1.35-1.67-2.36-.29a3.93,3.93,0,0,0-.48,1.63c-.09.42,0,.89-.1,1.29C23.29,87.25,22.9,88.33,22.54,89.41Zm19.4,31.68v.09a14.77,14.77,0,0,1-2.4,0c-1.64-.26-2.92.64-4.29,1.23a1.23,1.23,0,0,0-.64.9c0,.24.44.59.76.72.69.28,1.46.38,2.14.68a6.91,6.91,0,0,0,3.62.82c.16,0,.33.22.52.27,1.67.49,3.35,1,5,1.43.15,0,.32,0,.48,0,.35,0,.69.13,1,.21,1.07.24,2.14.53,3.22.69.82.13,1.26-.29,1.26-1.18a2.07,2.07,0,0,1,.29-1.13c.9-1.24,1.84-2.46,2.81-3.64.57-.69.57-1.35-.09-1.71a4.88,4.88,0,0,0-4.26.72,3.8,3.8,0,0,1-4.37.57,5.89,5.89,0,0,0-2.11-.6A30,30,0,0,0,41.94,121.09ZM65.41,67.57l.16.44c.66-.23,1.58-.28,2-.75.59-.76.22-1.66-.45-2.37a1.24,1.24,0,0,1-.25-.53c-.56-2-.82-4.14-1.71-6-1.17-2.41-2.21-4.93-4.13-7a27.47,27.47,0,0,0-4.13-4.15A4.36,4.36,0,0,0,55.27,47a4,4,0,0,0,.49,1.31c.94,1,2.09,1.9,2.92,3a23.81,23.81,0,0,1,2.17,3.85c.11.22-.27.68-.41,1A3.94,3.94,0,0,0,60,57.43c0,2.36.08,4.71.07,7.07a2.54,2.54,0,0,1-.52,1.36,1.29,1.29,0,0,0-.16,1.74,3.21,3.21,0,0,0,3.9.75A14.22,14.22,0,0,1,65.41,67.57ZM65,74.18l.07.22a24.57,24.57,0,0,0,2.64-1c.37-.18.57-.71.84-1.09-.43-.25-.85-.7-1.29-.71-1.83-.05-3.66,0-5.49.07a9.35,9.35,0,0,0-1.69.44c-.71.17-1.49.59-2.11.43-2.31-.63-4.26,1-6.45.9-.2,0-.4.26-.62.35a5.48,5.48,0,0,1-1.12.38c-1.29.21-2.42,1.17-3.85.77-.17,0-.48.25-.69.42-.42.37-.8.78-1.22,1.15S43,77.32,43.48,78s1.06,1.63,2,1.17a5.3,5.3,0,0,1,3.23-.77c.1,0,.21-.09.32-.14a23.79,23.79,0,0,1,5-1.59,19,19,0,0,1,4.68-.86c.19,0,.38-.26.59-.37s.66-.43,1-.41c1.36.09,2.69.23,3.83-.78C64.26,74.08,64.69,74.19,65,74.18Zm-4.92,14L60,87.83l-2.79,1c-.18.07-.39.08-.57.16a13.66,13.66,0,0,0-3.37,1.55c-1.63,1.35-3.2,2.84-3.75,5.07-.21.83,0,1.28.85,1.16a8.89,8.89,0,0,0,1.43-.54,3.91,3.91,0,0,1,1.68-.43,4.36,4.36,0,0,0,4.66-1.65,3.42,3.42,0,0,1,.95-.91c1.53-.81,3.1-1.57,4.67-2.32A10.34,10.34,0,0,1,65,90.53c-.31-.47-.53-1.17-1-1.36C62.79,88.64,61.63,87.62,60.08,88.18Zm42.83-70.7c2.24.63,3.75-.47,5.07-2.1a7.41,7.41,0,0,1,1-.88c.48-.4,1-.81.46-1.49a1.2,1.2,0,0,0-1.69-.32,8.5,8.5,0,0,1-1.77.45,3,3,0,0,0-1.27.44c-.71.7-1.24.51-1.83-.1-.85-.91-.9-1.91-.29-3.33a1.53,1.53,0,0,0,0-1.26,5.72,5.72,0,0,0-1.45-1.41A1.18,1.18,0,0,0,100,7.39a2.58,2.58,0,0,0-1.34,2.48,2.79,2.79,0,0,1-.42,1.75A2.5,2.5,0,0,0,98,14.23c1.56,3.13,1,3.38,4.67,3.25A1.92,1.92,0,0,1,102.91,17.48Zm48.17,24.77a5.69,5.69,0,0,0,1.69,0,1.3,1.3,0,0,0,.76-1c0-.31-.48-.73-.84-.88s-1,0-1.39-.2c-1.29-.83-2.71-.65-4.08-.58a29.63,29.63,0,0,0-4.16,1c-1.84.37-3.5,1.65-5.22,2.57-.35.19-.81.48-.87.79a7.26,7.26,0,0,0-.11,2.74c.06.26,1.31.52,1.88.34a11,11,0,0,0,2.47-1.42c1.92-1.22,3.68-2.8,6.2-2.59a.77.77,0,0,0,.57-.14C148.83,41.93,149.9,42.06,151.08,42.25ZM45.21,107.9V108a9.91,9.91,0,0,0-2.5.05c-.58.16-1,.79-1.55,1.22.44.45.8,1,1.33,1.31A25.65,25.65,0,0,0,46.18,112c.45.14,1.29.13,1.47-.14.57-.85,2-1.06,1.88-2.39,0-.12-.05-.28-.14-.33a11.4,11.4,0,0,0-2.17-1.23A6.73,6.73,0,0,0,45.21,107.9Zm39.15-6.25c1.93.06,2.53-.39,2.27-1.28-.22-.73-2.21-2.41-3-2.34-1.5.14-3.12-.45-4.49.71-.23.2-.76.08-1.15.07a7.56,7.56,0,0,0-1.42,0c-.31.06-.56.41-.84.63.29.22.56.61.86.63,1,.07,1.92-.06,2.87,0a9.49,9.49,0,0,1,2.35.51C82.85,100.91,83.83,101.42,84.36,101.65Zm-15-62.22c-.15.14-.41.28-.4.38a1.8,1.8,0,0,0,.31,1C71.2,42.87,73.1,45,75.09,47c.24.23,1,0,1.48-.05,0-.47.09-1-.14-1.38a9.5,9.5,0,0,0-1.57-1.46L70,39.76A3.07,3.07,0,0,0,69.39,39.43ZM50.14,103.09v0a7.08,7.08,0,0,0-2,0c-.45.13-.8.68-1.12,1.09-.06.07.18.52.37.6,1.27.54,2.55,1.07,3.85,1.51.25.09.68-.14.93-.34a4.3,4.3,0,0,0,1.06-1.11,2,2,0,0,0,.35-1.36c-.09-.28-.75-.5-1.16-.53A21.72,21.72,0,0,0,50.14,103.09ZM139.7,29l-.19-.12a7.5,7.5,0,0,0-.18-1.17c-.39-1.31-1.22-1.4-2.25-.54-1.39,1.15-1.28,2.64-1.2,4.13a1.28,1.28,0,0,0,.76.89c.44.13,1.24.15,1.42-.1A28.45,28.45,0,0,0,139.7,29ZM70.79,106c-.08,1.62.88,2.53,2.24,2.28a2.39,2.39,0,0,1,2.26.74,3.06,3.06,0,0,0,.83.66,1.89,1.89,0,0,0,2.31-.35c.27-.3.53-1.1.42-1.18a4.63,4.63,0,0,0-2-1C74.87,106.89,72.75,107.47,70.79,106Zm-2.3,3.91c-.44.3-1,.58-.94.65.16.39.35.9.69,1.08,1.4.72,2.85,1.35,4.3,2,.93.41,1.32-.35,1.66-.93a.88.88,0,0,0-.55-1.41C71.93,110.84,70.19,110.4,68.49,109.94ZM65,116.46v-.06a13.37,13.37,0,0,0,1.78.1c.82-.07,1.33-1.06.77-1.42a8.23,8.23,0,0,0-3.23-1.35c-.57-.07-1.44.79-1.85,1.43s0,1.22.86,1.29C63.83,116.5,64.39,116.46,65,116.46Zm-26.6-4.55c-.2.2-.69.46-.71.76a1.44,1.44,0,0,0,.53,1.13c.75.51,1.66.77,2.41,1.28,1.06.71,1.82.19,2.53-.48a.93.93,0,0,0-.06-.85C41.57,113.13,40.07,112.57,38.35,111.91Zm5.92,6.3c.3,0,.5,0,.7,0,.67,0,1.22-.19,1.19-1a1.07,1.07,0,0,0-1.24-1.14,3.6,3.6,0,0,0-1.41.16c-.4.19-.67.64-1,1a7.6,7.6,0,0,0,1,.94C43.75,118.28,44.09,118.2,44.27,118.21Zm36.42-14.6a3.56,3.56,0,0,0-1.15.22c-.17.09-.24.77-.19.8a16.79,16.79,0,0,0,3.05,1.2c.76.17,1-.45.65-1.08A2.32,2.32,0,0,0,80.69,103.61Zm-45.09,13c.1-.12.48-.38.53-.7.11-.74-1.14-1.58-2.24-1.47-.34,0-.87.34-.93.61C32.79,115.79,34.05,116.6,35.6,116.59Zm67.71-112a3.56,3.56,0,0,0-1.06,0,6.57,6.57,0,0,0-.94.65c.3.26.57.67.91.74A5,5,0,0,0,104,6a.85.85,0,0,0,.56-.62A1,1,0,0,0,104,4.7,1.62,1.62,0,0,0,103.31,4.61ZM17.16,85.44l1.29,1.13c.28-.39.81-.8.78-1.17s-.53-.88-.82-1.31Zm36.73,15,1.3-1a4.14,4.14,0,0,0-1.37-.75c-.37,0-.78.43-1.17.67Z"></path><path d="M30.35,10.82c-.37,4-1.49,7.68-4.56,10.56-1.89,1.78-3.69,3.65-5.52,5.5a2.8,2.8,0,0,0-.37,3.59,12.65,12.65,0,0,1,1.3,3.22c.1.43-.48,1.13-.91,1.51-.23.2-.83,0-1.24-.07s-.47-.37-.72-.4c-2.76-.3-3.87-2.43-4.9-4.53-.32-.65-.07-1.56-.15-2.35-.29-3.13,1.24-5.44,3.25-7.61,1.64-1.78,3.17-3.67,4.69-5.55a2.25,2.25,0,0,0,.27-1.24c0-.88-.09-1.77,0-2.64a2.18,2.18,0,0,0-1.45-2.46c-1-.41-2.07-1.18-3-1-2.71.48-5.25,1.5-6.59,4.25a6.8,6.8,0,0,1-.84,1.29c-.44.58-.86,1.13-1.78.64s-1.54-.88-1.33-2.07a10.22,10.22,0,0,0,0-2.87A2.7,2.7,0,0,1,7.56,6c1.49-1.36,2.63-3.2,4.68-3.81C13.77,1.77,15.16.78,16.88,1A2.21,2.21,0,0,0,18.17.44,2.72,2.72,0,0,1,20.9.3a21.59,21.59,0,0,0,3.63,1.3,4.73,4.73,0,0,1,2.75,1.51,7.82,7.82,0,0,1,2.37,3.68A13.58,13.58,0,0,1,30.35,10.82Z"></path><path d="M25.39,45.06c0,2.24-1.86,4.1-3.8,3.64A5,5,0,0,1,20,47.6c-.4-.33-.71-.76-1.1-1.1a1.74,1.74,0,0,1-.36-2.71,2.75,2.75,0,0,0,.24-.41c1.08-2,2.29-2.62,4.18-2.13C24.16,41.58,25.37,43.43,25.39,45.06Z"></path><path d="M160.5,38.89c0,.76.1,1.51.09,2.27s-.24,1.43-1.09,1.44-1-.66-1.12-1.4a5.74,5.74,0,0,0-.57-1.86c-.56-1.11-.41-4.21.33-5s1.28-.71,1.59.23c.47,1.39.77,2.83,1.14,4.25Z"></path><path d="M134,131.54a15.17,15.17,0,0,1,2.37-.83,30.66,30.66,0,0,1,3.95-.34c.22,0,.61.46.63.73a1.05,1.05,0,0,1-.56.78c-.87.35-1.78.6-2.68.89-.15,0-.38,0-.47.07-1.07,1.09-2.45.58-3.7.75a1,1,0,0,1-.24,0c-.88,0-1.89-.21-1.95-1.16s1-1.15,1.84-1.22a5.79,5.79,0,0,1,.72,0Z"></path><path d="M71.18,60.88a6.38,6.38,0,0,0-.71-1.54c-.66-.79-.41-1.37.25-1.93a1.15,1.15,0,0,1,1.93.2A5.84,5.84,0,0,1,73.2,59a4.35,4.35,0,0,0,.34,1.09c.4.53.9,1,.27,1.64s-1.18,1.42-2.1.89c-.46-.26-.66-1-1-1.5Z"></path><path d="M113.61,44.49c-1.33.52-2.24-.19-3.07-1.15s-1.82-1.52-1.78-3c0-.69-.54-1.38-.73-2.1-.48-1.8.82-3.24,1.07-4.91.13-.88,3.91-2.79,4.85-2.68a11.8,11.8,0,0,1,3.24.47,6.27,6.27,0,0,1,4,5.8c.19,3-1.35,4.75-3.72,6.09a1.78,1.78,0,0,0-.6.39A2.77,2.77,0,0,1,113.61,44.49ZM111,39.56c.1.16.25.75.58.88s.84-.21,1.28-.29a5.34,5.34,0,0,1,1.37-.16,6.34,6.34,0,0,1,1.25.31,12.8,12.8,0,0,0-.23-1.51,11.59,11.59,0,0,0-.65-1.82,9.75,9.75,0,0,0-1.22-2.19c-.14-.17-1.33.21-1.32.25A6.54,6.54,0,0,1,111,39.14S111,39.22,111,39.56Zm5.55-5.68c-.5.6-1.13,1.12-1.05,1.3.22.46.77,1,1.17,1s.9-.65,1.08-1.11C117.81,34.92,117.12,34.45,116.54,33.88Z"></path><path d="M126.9,75.61V82a1.51,1.51,0,0,1-.05.47c-.58,1.78-1.1,3.6-1.8,5.33a33.34,33.34,0,0,1-2,3.94,22.14,22.14,0,0,1-3.91,5.52,14.37,14.37,0,0,0-1.71,2.55,1.79,1.79,0,0,1-.91.74c-.53.1-1.32.17-1.61-.13a1.73,1.73,0,0,1-.15-1.61c1-1.81,2.35-3.49,3.38-5.31,1.57-2.76,3.38-5.41,4.08-8.59a5.67,5.67,0,0,1,.77-1.61,3.52,3.52,0,0,0,.74-2.8,1.53,1.53,0,0,1,.29-1,7.1,7.1,0,0,0,1.44-3.86c0-.34.68-.7,1-1l.66.95Z"></path><path d="M86.46,48c0-.2-.1-.44,0-.59.23-.45.53-.86.8-1.28a6.9,6.9,0,0,1,.85,1.2c.28.64.34,1.39.65,2C89.85,51.69,91,54,92.21,56.3c1.05,1.91,2.33,3.69,3.48,5.54,1,1.66,2,3.31,3,5,1.06,2,1.77,4.12,3.76,5.44.22.15.13.74.19,1.13-.36-.06-.86,0-1-.19-1.48-1.7-2.91-3.45-4.35-5.19a11.38,11.38,0,0,1-.73-1c-1.3-1.92-2.69-3.79-3.87-5.79s-1.69-4.15-3.05-5.79-1.33-4.12-2.81-5.79c-.34-.38-.24-1.14-.35-1.73Z"></path><path d="M120.49,13.34a7.72,7.72,0,0,1-1,1.78c-1.53,1.63-3.19,3.15-4.72,4.78a2.75,2.75,0,0,1-2.64.73,1.38,1.38,0,0,1-.56-2.31c.44-.51,1-.94,1.42-1.46,1-1.15,1.86-2.35,2.81-3.5.76-.92,1.48-1.92,2.91-1.82S120.32,11.91,120.49,13.34Z"></path><path d="M128.35,97.53A4.82,4.82,0,0,1,126,101c-1.7,1.17-3.52,2.17-5.32,3.19-.3.18-.75.09-1.14.13a7.86,7.86,0,0,1,.38-1.19,1.17,1.17,0,0,1,.55-.45,24,24,0,0,0,7.36-5C127.89,97.61,128.07,97.61,128.35,97.53Z"></path><path d="M87.52,120.62c-.57-2.78,1.39-4.56,3.28-6.34a2.19,2.19,0,0,1,1.21-.36,11.88,11.88,0,0,1,2.15,0,2.55,2.55,0,0,1,1.29.46,19.76,19.76,0,0,1,2,1.89,2.84,2.84,0,0,1,.48.93c.27.69.52,1.38.73,2.08a2.27,2.27,0,0,1,.17,1.13c-.31,1-.7,2.08-1.09,3.11A5.12,5.12,0,0,1,92.64,127c-1.62,0-3-.05-3.92-1.59-.73-1.3-1.66-2.57-1.2-4.23A3.62,3.62,0,0,0,87.52,120.62Zm5.79.54.17-.09c-.47-1.27-.92-2.54-1.44-3.78a.88.88,0,0,0-.77-.38,1.34,1.34,0,0,0-.75.62c-.31.51-.5,1.08-.76,1.61-.79,1.61.76,4,2.55,4a1.26,1.26,0,0,0,.88-.65A3.8,3.8,0,0,0,93.31,121.16Zm.41-3.32c-.06,1.26.4,1.83,1.27,1.86.26,0,.71-.56.77-.91.11-.75-.79-1.8-1.37-1.63C94.05,117.26,93.82,117.73,93.72,117.84Z"></path><path d="M85.72,139.36H76.38a1.32,1.32,0,0,1-.7-.1c-1.77-1.25-3.78-.63-5.69-.79a21.72,21.72,0,0,1-3.55-.73,1.22,1.22,0,0,1-.15-.85,4.16,4.16,0,0,1,1.74-.75c1.79-.08,3.58,0,5.37,0a1.77,1.77,0,0,1,1,.2c1,.92,2.18.81,3.38.8,4.31,0,8.62,0,12.94-.07a1.84,1.84,0,0,1,.82.08c2.12,1.2,4.36.45,6.56.49a3.72,3.72,0,0,1,1.18.42,5.36,5.36,0,0,1-1.19.61c-.94.23-1.9.36-2.85.53a6.76,6.76,0,0,1-1.17.18H85.72Z"></path></svg>