<svg xmlns="http://www.w3.org/2000/svg" id="Layer_1" data-name="Layer 1" viewBox="0 0 641.67 706.77"><defs><style>.cls-1{fill:#30b9ff;}.cls-2{fill:#fff;}.cls-3{fill:#ade5fe;}.cls-4{fill:#011a57;}</style></defs><title>brand-advocate-concept-icon-referral-marketing-vector-29127080-1-1</title><circle class="cls-1" cx="320.59" cy="283.14" r="211.27"></circle><path class="cls-2" d="M456.82,34.63l.44-.57.29.31-.58.44c-9,10.42-19.41,19.52-29.25,29.15-14.63,14.31-29.35,28.53-44.36,43.12-5.56-14.27-15.89-20.1-30.6-18.49-11.24,1.23-17.48,8.45-21.91,18.63L254.38,33.69h24.21q84.95.11,169.89.24C451.27,33.93,454.11,33.62,456.82,34.63Z"></path><path class="cls-2" d="M463.12,39.86V179.18c-9.05-7.48-17.45-14.39-25.81-21.34-15.86-13.19-31.62-26.49-47.59-39.52-3.37-2.75-3.48-4.17-.26-7.27C413.35,88.14,437,65,460.78,41.94,461.35,41.38,462,40.87,463.12,39.86Z"></path><path class="cls-2" d="M325.54,112.13c1.63,1.57,3.2,2.39.31,4.73-25.21,20.36-50.26,40.92-76.12,62.05V39.32c2.1,2,3.72,3.43,5.3,5Q290.28,78.2,325.54,112.13Z"></path><path class="cls-2" d="M456.94,183.52H255.46c25.41-20.72,50.18-40.92,75.2-61.34,5.07,12.89,14,20.47,27.76,19.9,12.38-.5,20.62-7.47,25.06-19.76Z"></path><path class="cls-2" d="M421,423.13c0-2.72-1.91-3.64-4.42-3.53-.83,0-1.66,0-2.5,0H377.71v0H338.79c-2.33,0-4.52.32-4.63,3.25-.12,3.1,2,3.85,4.64,3.85q38.91,0,77.82,0C419.13,426.68,421,425.84,421,423.13Zm88.32-4.87c0,4.3-1.57,4.77-5.15,4.69-18.48-.41-37-.62-55.46-.89-6.88-.1-7.5.52-7.5,7.23,0,21.83-.13,43.66.1,65.48,0,4.11-1.29,4.83-5,4.81q-59.47-.18-119,0c-3.78,0-4.66-1-4.65-4.69.14-43.32.09-86.64.09-130,0-43.16.08-86.31-.11-129.47,0-4.34,1.3-5.05,5.26-5.05q93.23.2,186.45,0c3.85,0,5,.87,5,4.89Q509.14,326.8,509.36,418.26Zm-25.53-95a3.42,3.42,0,0,0,3.27-3.71,3.35,3.35,0,0,0-3-3.42,22,22,0,0,0-4-.16h-139a15.58,15.58,0,0,0-3.49.1c-2,.44-3.92,1-3.81,3.71s2.09,3.16,4.06,3.5a24.22,24.22,0,0,0,4,.06h138A29.47,29.47,0,0,0,483.83,323.25Zm.67,66.41a3.18,3.18,0,0,0,2.58-3.72,3.12,3.12,0,0,0-2.81-3,31.23,31.23,0,0,0-4-.11H341.4c-1.17,0-2.33,0-3.5,0-2.36.07-3.81,1.24-3.76,3.67,0,2.17,1.33,3.31,3.52,3.37,1.16,0,2.33.06,3.49.06H480A21.41,21.41,0,0,0,484.5,389.66Zm-.7-32a3.26,3.26,0,0,0,3.28-3.64A3.21,3.21,0,0,0,484,350.7c-1.32-.13-2.66-.09-4-.09H341.15a21.41,21.41,0,0,0-4.47.26,3.17,3.17,0,0,0-2.54,3.74,3,3,0,0,0,2.82,3c1.32.13,2.65.1,4,.1H480.3C481.47,357.69,482.64,357.75,483.8,357.66Zm-2.51-73.32c2.8,0,5.81,0,5.76-3.77s-3.13-3.62-5.89-3.62q-32.19,0-64.39,0c-2.81,0-5.81,0-5.76,3.75s3.11,3.65,5.89,3.64c10.48,0,21,0,31.44,0Q464.83,284.33,481.29,284.34Zm-65.14,179.1c2.61,0,4.92-.44,4.86-3.55-.06-3.43-2.76-3.64-5.4-3.64H339.75c-2.53,0-5.46-.13-5.58,3.39-.12,3.81,2.81,3.8,5.62,3.8,12.48,0,24.95,0,37.43,0C390.2,463.41,403.17,463.38,416.15,463.44ZM381.22,271.65c.41-13.83-11.11-25-25.07-24.87a24.78,24.78,0,0,0,.39,49.55C369.71,296.11,380.78,286.64,381.22,271.65Z"></path><path class="cls-2" d="M110.18,263.47c0-7.74.19-7.74,7.65-7.94a6.68,6.68,0,0,1,1,0c2.24.29,2.78-.81,2.8-2.89s-.77-2.95-2.91-2.78c-1.82.14-3.66-.09-5.48,0-2.36.18-3.18-.7-3.2-3.11s.7-3.71,3.36-3.45a22.46,22.46,0,0,0,4.49,0c1.87-.18,4.5,1.17,4.63-2.62.14-4.1-2.69-3.06-4.74-3-4.93.21-11.53-2.19-14.29,1-2.38,2.74-.5,9.18-.5,14h-.32v11c0,2.13-.51,4.31,3.09,4.08C108.82,267.6,110.16,266.8,110.18,263.47Zm122.66-46.22c3.84,0,5,.9,4.95,4.87-.15,47-.09,94-.09,141q0,70.23.08,140.47c0,4.1-.57,5.65-5.29,5.63q-70.47-.33-141-.05c-4,0-4.9-1-4.9-4.91q.16-141,0-281.93c0-3.6.5-5.09,4.73-5.07Q162.11,217.49,232.84,217.25Zm-8.77,74.13c0-4.26-1.43-5.86-5.82-5.84q-56,.18-111.92,0c-4.54,0-6.24,1.62-6.23,6.12q.12,67.45,0,134.91c0,4.75,1.74,6.43,6.48,6.41,37-.12,74-.06,110.92-.08,6,0,6.49-.51,6.49-6.62q0-33.48,0-66.95h0C224,336.68,224,314,224.07,291.38ZM224,449.94a3.45,3.45,0,0,0-3.14-3.84,24,24,0,0,0-4-.14H107a17.46,17.46,0,0,0-4,.21,3.43,3.43,0,0,0-2.71,3.7,3.21,3.21,0,0,0,2.68,3.2,24.52,24.52,0,0,0,4.46.24q27.45,0,54.91,0h54.42a33,33,0,0,0,4-.11A3.33,3.33,0,0,0,224,449.94Zm0,29.22c.08-2.17-1.13-3.41-3.29-3.6-1.16-.1-2.33-.06-3.5-.06H106.7a18.41,18.41,0,0,0-3.49.14,3.25,3.25,0,0,0-2.88,3.53,3.38,3.38,0,0,0,3.13,3.34,38.09,38.09,0,0,0,4,.08H216.92c1.17,0,2.34,0,3.5,0C222.58,482.47,223.88,481.35,224,479.16Zm-2.65-11.49a3.16,3.16,0,0,0,2.63-3.67,3.08,3.08,0,0,0-2.76-3.05,23.05,23.05,0,0,0-4-.17H112.73c-2.83,0-5.67,0-8.5,0-2.45,0-3.84,1.4-3.88,3.63,0,2,1.4,3.31,3.53,3.46,1.16.08,2.33.05,3.5.05h109A24.88,24.88,0,0,0,221.3,467.67Zm2.63,26.07c0-2.2-1.29-3.37-3.37-3.61a35.38,35.38,0,0,0-4-.08H104.72c-2.27,0-4.39,1-4.23,3.21a4.65,4.65,0,0,0,4.18,4.09,25,25,0,0,0,3,0H216.52a37.9,37.9,0,0,0,4-.06A3.4,3.4,0,0,0,223.93,493.74ZM220.74,267.6c2.83-.5,2.38-2.79,1.8-4.74-.85-2.83-1.1-6-3.46-8.14-1.6-1.45-.51-1.81.53-2.77,3.49-3.2,4.07-7.37,1.74-10.65s-14.16-5.78-19.78-3.32c-4,1.75-1,5.88-1.69,8.86-.42,1.9-.08,4-.08,6h0c0,3.82,0,7.64,0,11.47,0,1.83-.37,3.73,2.63,3.47,2.4-.21,4.84.06,4.72-3.46a26.79,26.79,0,0,1,0-4.48c.21-1.42-1.17-3.68,1.45-4a4.21,4.21,0,0,1,4.83,2.71,30.29,30.29,0,0,1,1.83,6.19C215.8,268.31,218.37,268,220.74,267.6Zm-25.57-3.33c0-2.37-1-2.8-2.95-2.7s-4-.1-6,.07c-2.7.22-4.32-.13-4.27-3.57s1.83-3.29,4.16-3.15c1.65.1,3.33-.12,5,0,2.29.2,2.78-.86,2.75-2.94s-.46-3.13-2.75-3c-2,.15-4-.06-6,.06s-3-.34-3.07-2.67.86-3.24,3.19-3.07c2.16.15,4.33-.08,6.48.06s2.94-.62,2.91-2.82c0-2-.45-3-2.77-2.94-4.65.16-9.32.22-14,0-2.8-.14-3.34,1-3.24,3.47.16,3.81.05,7.64.05,11.47,0,4,.09,8,0,12-.07,2.18.75,2.91,2.89,2.86,4.82-.11,9.65-.14,14.46,0C194.43,267.49,195.14,266.65,195.17,264.27Zm-28.89-16.55c2-3.07,4.49-6,5.38-9.59-10.62-3.51-9.26,6.81-13.21,11.14-3.54-4.85-2.78-14.66-13.65-11,1.28,2.22,2.56,4.47,3.88,6.71,3.34,5.7,7.19,11.17,6,18.42-.29,1.76-1.18,4.59,2.69,4.34,3.12-.21,5.08-1.23,4.55-4.72C161,257.23,163.17,252.43,166.28,247.72Zm-18.7,16.66c0-2.12-.57-3.07-2.83-2.89-2,.16-4-.17-6,.05-3.06.35-4.09-.71-3.95-3.85.25-5.65-.1-11.33.13-17,.13-3.09-1.54-3.11-3.7-3-2,.06-4.05-.4-3.86,2.86.22,3.82.05,7.66.05,11.49,0,4.16.07,8.33,0,12.49-.05,2.15.77,2.94,2.92,2.89,4.83-.1,9.66-.11,14.49,0C147.13,267.47,147.54,266.38,147.58,264.38Z"></path><path class="cls-3" d="M357.63,95.24a19.8,19.8,0,1,1-20.2,19.57A19.75,19.75,0,0,1,357.63,95.24Z"></path><path class="cls-3" d="M548.83,342.57c0,2.56-.65,3.34-3.3,3.42-11.91.39-11.91.49-11.91-11.29,0-15.79.09-31.57-.07-47.35,0-3.24.87-4.17,4.14-4.16,11.08,0,11.08-.11,11.08,11v20.93C548.78,324.3,548.69,333.44,548.83,342.57Z"></path><path class="cls-3" d="M547.27,268.54a6.4,6.4,0,0,1,1.33,6.09c-.82,2.23-3.14.92-4.77,1.06-2.47.21-5,0-7.45.11-2,.06-3.41-.28-2.79-2.26,0-3.87,1.6-6.27,4.72-7.35C541.71,265,544.93,265.61,547.27,268.54Z"></path><path class="cls-3" d="M503.69,429.53c.1.49.19,1,.28,1.48-18.17,20.46-36.35,40.92-55.32,62.26V475.92c0-14,.09-28-.07-42,0-3.29.53-4.57,4.28-4.52C469.8,429.67,486.75,429.53,503.69,429.53Z"></path><path class="cls-3" d="M356.62,254.09a17.4,17.4,0,1,1-17.73,17.24A17.44,17.44,0,0,1,356.62,254.09Z"></path><path class="cls-3" d="M165.29,339.63A19.6,19.6,0,1,1,145.85,359,19.72,19.72,0,0,1,165.29,339.63Z"></path><path class="cls-3" d="M211.82,292.71c4.33,0,5.09,1.27,5.05,5.28-.21,20.47-.1,40.95-.1,61.43,0,20.65-.07,41.29.09,61.94,0,3.51-.93,4.39-4.42,4.37q-50.19-.19-100.39,0c-4,0-4.53-1.31-4.52-4.8q.18-61.68,0-123.37c0-3.92,1-4.88,4.9-4.86Q162.13,293,211.82,292.71Zm-46.29,93.65c14.65-.06,27.12-12.6,27.05-27.2a27.06,27.06,0,1,0-27.05,27.2Z"></path><path class="cls-4" d="M641.66,702.64c.06,3.07-1.23,4.12-4.18,4.07-6.33-.11-12.67-.13-19,0-3.45.09-4.69-1.22-4.66-4.7,0-6.66-.12-6.66-6.89-6.66q-286.65,0-573.32-.12c-4.77,0-6.71,1-5.86,5.9.8,4.53-1.44,5.8-5.69,5.6-5.82-.29-11.66-.21-17.49,0C1,706.85-.2,705.44,0,702c.21-3.15.05-6.32.05-9.49,0-13.66,0-13.66,13.44-13.64h4c9.25,0,9.34,0,10.25,8.86.2,2,.92,2.61,2.73,2.51,1.17-.06,2.34,0,3.5,0q286.92,0,573.82.13c5.12,0,6.93-1.31,6.1-6.25-.71-4.27,1.3-5.5,5.39-5.31,6.15.29,12.32.13,18.49,0,2.74,0,3.91,1,3.87,3.81Q641.49,692.64,641.66,702.64Zm-5.09-9.58c0-9,0-9-9.15-9-8.52,0-8.52,0-8.54,8.58,0,9,0,9,9.11,9C636.57,701.59,636.57,701.59,636.57,693.06ZM14.23,701.61c8.6,0,8.6,0,8.58-8.5,0-9,0-9-9.07-9.05-8.63,0-8.63,0-8.63,8.53C5.12,701.59,5.12,701.59,14.23,701.61Z"></path><path class="cls-4" d="M600.85,265.62A258.49,258.49,0,0,1,601,292c-.14,2.48-1,4.39-3.7,4.3s-3.46-2-3.42-4.54c.08-4.48,0-9,0-13.45h-.16c0-4.15,0-8.31,0-12.46-.05-2.5.77-4.44,3.44-4.53S600.74,263.09,600.85,265.62Z"></path><path class="cls-4" d="M595.17,317.16a3.4,3.4,0,0,1,3.23,3.56,274.69,274.69,0,0,1-5.52,28c-.61,2.37-2.14,3.35-4.42,2.86-2.5-.53-3-2.49-2.48-4.63,2-8.89,3.91-17.8,5.25-26.82A3.31,3.31,0,0,1,595.17,317.16Z"></path><path class="cls-4" d="M597.59,234.94c.4,3.53-.54,5.18-2.93,5.49S591,239.29,590.6,237c-1.43-8.7-3.17-17.34-5.45-25.86-.66-2.44.08-4.46,2.67-5,2.38-.54,3.69,1,4.28,3.19A260,260,0,0,1,597.59,234.94Z"></path><path class="cls-4" d="M583.57,182.3c-.07,2.32-1.05,3.46-2.55,4a3.19,3.19,0,0,1-4.2-1.75q-5.76-13-11.39-26c-.81-1.87.09-3.27,1.62-4.24s3.2-.92,4.06.49C576.52,163.54,580,173.23,583.57,182.3Z"></path><path class="cls-4" d="M568.79,356.87c0,.34,0,.67,0,1,.14,2.56-.35,5-3.39,5.08-3.38.08-3.74-2.49-3.73-5.26.05-22.32-.06-44.65.11-67,0-4.58-1.78-6.73-5.8-7.23,0,20,.8,39.8-.18,59.52-1.57,31.45-.48,62.88-.85,94.32,0,3.4-1.87,6-2.63,9-1.71,6.77-3.62,13.5-5.38,20.26-.74,2.88-2.26,4.88-5.4,5s-4.85-1.62-5.64-4.59c-4.14-15.66-9.23-30.94-8.26-47.73a432.91,432.91,0,0,0,0-56.95c-2.21-29.54-1.34-59.06-1.82-88.59-.11-6.6,2.63-11.23,8.6-13.79,5.57-2.38,11.05-2.11,16.08,1.58a13.12,13.12,0,0,1,5.43,11.24c0,2.46.84,3.37,3.16,4.12,7.71,2.48,9.69,5.44,9.7,13.57Q568.8,323.63,568.79,356.87ZM545.53,346c2.65-.08,3.34-.86,3.3-3.42-.14-9.13-.05-18.27-.06-27.41V294.23c0-11.15,0-11-11.08-11-3.27,0-4.17.92-4.14,4.16.16,15.78.07,31.56.07,47.35C533.62,346.48,533.62,346.38,545.53,346Zm3.07-71.36a6.4,6.4,0,0,0-1.33-6.09c-2.34-2.93-5.56-3.53-9-2.35-3.12,1.08-4.71,3.48-4.72,7.35-.62,2,.82,2.32,2.79,2.26,2.48-.08,5,.1,7.45-.11C545.46,275.55,547.78,276.86,548.6,274.63Zm-5.36,165.14c3.91.17,4.69-1.32,4.64-4.89-.19-12.8-.08-25.61-.08-38.42V362c0-8.38,0-8.17-8.24-8.43-3.74-.11-4.7.89-4.67,4.66.19,24.45.05,48.91.12,73.36C535,441,533.54,439.37,543.24,439.77Zm.57,10.41c.24-1,1.23-2.58-.11-3.06a7.33,7.33,0,0,0-4.74,0c-1.23.46-.31,2-.06,3,.6,2.49,1.4,4.94,2.47,8.64C542.43,455.14,543.22,452.68,543.81,450.18Z"></path><path class="cls-4" d="M557.31,129.72c1.42,2.25,2.1,4.34-.42,6s-4.2,0-5.65-2.06c-4.81-6.93-9.68-13.8-14.53-20.7-1-1.37-2-2.69-1-4.52a3.56,3.56,0,0,1,3.14-2c1.67,0,2.69,1,3.64,2.24C547.67,115.5,552.69,122.46,557.31,129.72Z"></path><path class="cls-4" d="M530.62,615c1.3-5.2,4-6.16,9.08-4.92-6.09,14.35-10.06,29.46-18,43A18.75,18.75,0,0,1,513,661c-1.26.55-3,2.49-4-.25-.64-1.78-2.44-3.91,1-5.23a14.49,14.49,0,0,0,4.8-3.47c3.6-3.64,5.31-7.4,2.79-12.86-4.34-9.45-7.86-19.28-11.7-28.89,5.4-1.89,7.87,0,9.38,5,2.21,7.26,5.15,14.29,8,22C525.9,629.44,528.77,622.37,530.62,615Z"></path><path class="cls-4" d="M524.1,88.55c-.23,1.55-.37,2.87-2.06,3.22-1.3.26-2.29,1.43-3.86-.15-5.84-5.88-11.93-11.53-17.93-17.25-1.55-1.48-1.89-3.13-.58-4.87,1.11-1.48,2.79-2.26,4.34-1A171.49,171.49,0,0,1,523.5,86.89,4.29,4.29,0,0,1,524.1,88.55Z"></path><path class="cls-4" d="M517.08,231.4c0,38.66.38,77.33-.13,116-.33,25.66-.18,51.31-.35,77a8.21,8.21,0,0,1-2.09,5.88q-32.61,36.51-65.07,73.19a8.69,8.69,0,0,1-7.29,3.22q-65-.13-130,0c-4.61,0-6.43-1.08-6.56-6.1-1.21-47.47,0-94.95-.51-133,0-51.39,0-93.39,0-135.39,0-9.1.27-9.36,9.12-9.36h194C516.69,222.8,517.08,223.18,517.08,231.4ZM504.21,423c3.58.08,5.16-.39,5.15-4.69q-.24-91.47,0-182.95c0-4-1.11-4.9-5-4.89q-93.22.18-186.45,0c-4,0-5.28.71-5.26,5.05.19,43.16.11,86.31.11,129.47,0,43.32.05,86.64-.09,130,0,3.72.87,4.71,4.65,4.69q59.49-.21,119,0c3.73,0,5.06-.7,5-4.81-.23-21.82-.1-43.65-.1-65.48,0-6.71.62-7.33,7.5-7.23C467.24,422.33,485.73,422.54,504.21,423ZM504,431c-.09-.49-.18-1-.28-1.48-16.94,0-33.89.14-50.83-.11-3.75-.05-4.31,1.23-4.28,4.52.16,14,.07,28,.07,42v17.35C467.62,471.93,485.8,451.47,504,431Z"></path><path class="cls-4" d="M500.22,609.65c1.92.13,2.54.69,2.52,2.67s-.91,2.38-2.69,2.52c-6.63.51-6.62.58-6.61,7.49q0,6.24,0,12.48c0,3.92,1.44,6.54,5.89,6,1.83-.2,2.72.13,2.89,2.18s-.44,3-2.53,3.38c-7.54,1.49-12.51-2.07-12.87-9.78-.28-6-.2-12-.12-18,0-2.46-.12-4.39-3.35-3.87-1.9.3-2.7-.41-2.65-2.44.05-1.78.32-3,2.44-2.67,2.89.45,4.05-.84,3.5-3.6-1-4.76,1.68-6.14,6.07-6.38.07.82.13,1.31.14,1.79.05,2.49-.77,5.49.35,7.33C494.56,611,497.82,609.48,500.22,609.65Z"></path><path class="cls-4" d="M487.1,319.54a3.42,3.42,0,0,1-3.27,3.71,29.47,29.47,0,0,1-4,.08h-138a24.22,24.22,0,0,1-4-.06c-2-.34-3.94-.87-4.06-3.5s1.86-3.27,3.81-3.71a15.58,15.58,0,0,1,3.49-.1h139a22,22,0,0,1,4,.16A3.35,3.35,0,0,1,487.1,319.54Z"></path><path class="cls-4" d="M487.08,385.94a3.18,3.18,0,0,1-2.58,3.72,21.41,21.41,0,0,1-4.47.24H341.15c-1.16,0-2.33,0-3.49-.06-2.19-.06-3.48-1.2-3.52-3.37-.05-2.43,1.4-3.6,3.76-3.67,1.17,0,2.33,0,3.5,0H480.28a31.23,31.23,0,0,1,4,.11A3.12,3.12,0,0,1,487.08,385.94Z"></path><path class="cls-4" d="M487.08,354a3.26,3.26,0,0,1-3.28,3.64c-1.16.09-2.33,0-3.5,0H341c-1.34,0-2.67,0-4-.1a3,3,0,0,1-2.82-3,3.17,3.17,0,0,1,2.54-3.74,21.41,21.41,0,0,1,4.47-.26H480c1.33,0,2.67,0,4,.09A3.21,3.21,0,0,1,487.08,354Z"></path><path class="cls-4" d="M487.05,280.57c.05,3.72-3,3.78-5.76,3.77q-16.47,0-33,0c-10.48,0-21,0-31.44,0-2.78,0-5.83.05-5.89-3.64s2.95-3.76,5.76-3.75q32.19,0,64.39,0C483.92,277,487,276.84,487.05,280.57Z"></path><path class="cls-4" d="M471.35,609.61c2.7-.08,3.4.85,3.3,3.42-.18,5,0,10,0,14.93,0,4.81-.12,9.63,0,14.43.08,2.48-.5,3.61-3.26,3.47-2.25-.12-3.63-.15-3.56-3.15.2-10,.18-19.91,0-29.86C467.79,610,469,609.68,471.35,609.61Z"></path><path class="cls-4" d="M471.57,595.58c2.64.1,3.57,2,3.92,4.24-.5,2.44-1.82,4-4.36,3.91s-4.08-1.4-4-4C467.19,596.89,468.83,595.48,471.57,595.58Z"></path><path class="cls-4" d="M471.08,174.05c.08,12.19-5.49,17.74-17.58,17.74q-73,0-146,0c-16.66,0-33.32-.19-50-.31-10-.08-15.84-6-15.85-15.85,0-28.66-.43-57.33.13-86,.3-15.48.17-30.95.4-46.43C242.4,32.4,247.82,27,258.61,27q49,0,98,0v.25h98.47c9.94,0,15.55,5.54,15.55,15.4,0,26.49-.08,53,0,79.48C470.65,139.42,471,156.73,471.08,174.05Zm-8,5.13V39.86c-1.14,1-1.77,1.52-2.34,2.08C437,65,413.35,88.14,389.46,111.05c-3.22,3.1-3.11,4.52.26,7.27,16,13,31.73,26.33,47.59,39.52C445.67,164.79,454.07,171.7,463.12,179.18ZM457.55,34.37l-.29-.31-.44.57c-2.71-1-5.55-.7-8.34-.7q-84.94-.15-169.89-.24H254.38l76.47,73.53c4.43-10.18,10.67-17.4,21.91-18.63,14.71-1.61,25,4.22,30.6,18.49,15-14.59,29.73-28.81,44.36-43.12,9.84-9.63,20.21-18.73,29.25-29.15ZM255.46,183.52H456.94l-73.46-61.2c-4.44,12.29-12.68,19.26-25.06,19.76-13.8.57-22.69-7-27.76-19.9C305.64,142.6,280.87,162.8,255.46,183.52ZM377,115.18a19.8,19.8,0,1,0-20.24,19.65A19.75,19.75,0,0,0,377,115.18Zm-51.17,1.68c2.89-2.34,1.32-3.16-.31-4.73Q290.26,78.23,255,44.27c-1.58-1.52-3.2-3-5.3-5V178.91C275.59,157.78,300.64,137.22,325.85,116.86Z"></path><path class="cls-4" d="M458.09,609.65c1.82.14,2.69.5,2.66,2.55s-.58,2.79-2.56,2.6c-1-.09-2,.1-3,0-2.68-.34-3.85.47-3.73,3.46.24,5.49.1,11,.07,16.49,0,3.94,1.36,6.63,5.82,6.12,2.25-.26,2.84.54,3,2.61.2,2.41-1.14,2.71-3,3-7.86,1.09-12.23-2.33-12.51-10.23-.22-6-.16-12,0-18,.05-2.48-.5-3.9-3.28-3.43-2.2.36-2.86-.57-2.82-2.77s1-2.61,2.75-2.32c3.17.52,3.69-1.26,3.28-3.78-.74-4.62,1.51-6.31,5.94-6,.06.64.15,1.29.17,1.94C451,609,451,609.09,458.09,609.65Z"></path><path class="cls-4" d="M440.29,530a3,3,0,0,1-.92,4.4c-8.82,4.73-18.2,8.09-27.22,11.26-2.31.11-3.76-.59-4.25-2.46s0-3.49,1.77-4.22c8.77-3.59,17.58-7.06,26.38-10.58C438,527.67,439.36,528.55,440.29,530Z"></path><path class="cls-4" d="M433.34,643c.13,3.3-1.84,2.69-3.81,2.85-2.36.2-3.21-.52-3.17-3,.12-6.33.14-12.67-.15-19s-3.23-9.45-8.07-9.34-8.76,4.06-9,9.57c-.24,6.15-.19,12.33,0,18.49.08,2.67-.82,3.33-3.39,3.28s-3.61-.39-3.57-3.23c.14-9.32-.09-18.65.08-28,0-1.66-1.87-4.44,2-5,3.4-.53,4.39,1.25,4.51,5.22,5.33-6.84,11.67-6.3,17.27-4.5s7.08,7.52,7.18,13.15C433.28,630,433.09,636.5,433.34,643Z"></path><path class="cls-4" d="M421,459.89c.06,3.11-2.25,3.56-4.86,3.55-13-.06-25.95,0-38.93,0-12.48,0-25,0-37.43,0-2.81,0-5.74,0-5.62-3.8.12-3.52,3.05-3.39,5.58-3.39h75.86C418.25,456.25,421,456.46,421,459.89Z"></path><path class="cls-4" d="M421,423.13c0,2.71-1.91,3.55-4.42,3.55q-38.91,0-77.82,0c-2.62,0-4.76-.75-4.64-3.85.11-2.93,2.3-3.26,4.63-3.25h38.92v0h36.41c.84,0,1.67.05,2.5,0C419.13,419.49,421,420.41,421,423.13Z"></path><path class="cls-4" d="M386.49,610.49c5.19,1.79,9.06,10.87,8.12,16.5-.38,2.21-1.71,2.09-3.22,2.09h-9.5c-3.33,0-6.67.09-10,0-2.42-.09-2.75,1-2.4,3.08a10.31,10.31,0,0,0,9,8.78,21.27,21.27,0,0,0,10.36-.72c1.91-.66,2.61-.31,3.14,1.64s.14,2.66-1.63,3.39C382,648.7,371,646.41,366,640s-4.33-18.33.82-25.37C371.39,608.4,380.85,608.55,386.49,610.49ZM384.15,624c3.81.46,4.17-1.17,3.09-4.29-1.23-3.55-3.62-5.58-7.25-5.9-4-.35-7,1.5-9.05,5-2.37,4.1-1.83,5.12,2.75,5.17,1.66,0,3.32,0,5,0A45.5,45.5,0,0,1,384.15,624Z"></path><path class="cls-4" d="M387.75,549.17c.49,2.31-.61,3.85-2.95,4.41a268.24,268.24,0,0,1-27,4.91c-2.39.39-4.06-.68-4.5-2.91s1-3.69,3.28-4.11c8.83-1.61,17.65-3.25,26.48-4.85C385.29,546.23,387.23,546.71,387.75,549.17Z"></path><path class="cls-4" d="M356.15,246.78c14-.13,25.48,11,25.07,24.87-.44,15-11.51,24.46-24.68,24.68a24.78,24.78,0,0,1-.39-49.55ZM374,271.68a17.54,17.54,0,1,0-17.71,17.2A17.44,17.44,0,0,0,374,271.68Z"></path><path class="cls-4" d="M377.07,5.72c2.6.44,4.57,1.6,3.85,4.62-.64,2.61-2.59,2.93-5.09,2.49Q363.56,10.72,351.22,9c-2.73-.4-5.23-1.1-4.74-4.35.43-2.9,2.94-3.23,5.53-3.09Z"></path><path class="cls-4" d="M354.75,643c0,1.65.05,3-2.23,2.8-1.66-.18-3.94.75-3.85-2.33,0-.75-.08-1.49-.14-2.51-9.94,7.83-19.09,7.25-24.74-1.23-6.15-9.26-3.09-24.25,6-29.08,6.22-3.31,12.09-2.11,18,2.46,0-6.15.14-11.59-.07-17-.1-2.77,1-3.3,3.48-3.3s3.48.47,3.46,3.26C354.58,611.7,354.67,627.35,354.75,643Zm-6.94-15.39c0-1,0-2,0-3-.23-5.61-3.07-9.35-7.68-10.18-5.21-.93-9.54,1.76-11.48,7.22a17.68,17.68,0,0,0,.26,13.09c1.87,4.48,5.3,6.61,10.22,6.18C345,640.42,347.82,636.13,347.81,627.61Z"></path><path class="cls-4" d="M332.42,556.92c.2,2.67-1.7,3.85-4.15,3.86-8.79,0-17.57,0-26.36-.1-2.72,0-4.53-1.59-4.51-4.2,0-3,2.33-3.66,5-3.48,4.3.3,8.6.57,12.9.86a1.28,1.28,0,0,1,0-.19c4.31,0,8.62,0,12.93,0C330.5,553.64,332.25,554.62,332.42,556.92Z"></path><path class="cls-4" d="M321.62.05c2.24.09,3.92,1.22,3.87,3.64a3.5,3.5,0,0,1-3.88,3.65c-9.12-.19-18.2.52-27.29,1.14-2.5.16-3.81-1.24-3.8-3.53A3.08,3.08,0,0,1,294,1.6c6.3.32,12.39-1.9,18.69-1.57C315.66,0,318.64-.06,321.62.05Z"></path><path class="cls-4" d="M312.62,642.49c0,2.66-.83,3.4-3.41,3.37s-3.55-.42-3.48-3.23c.2-7.16.07-14.32.07-21.49,0-7.33.12-14.66-.06-22-.08-2.84.8-3.66,3.61-3.66s3.28,1,3.26,3.52Q312.47,620.76,312.62,642.49Z"></path><path class="cls-4" d="M279.5,642.77c0,1.51.24,2.77-2.05,3.09-3.5.49-4.56-1.29-4.57-4.46-7.72,6.07-14.82,6.79-20.77,2.37-6.17-4.58-8.56-15.09-5.41-23.78,2.74-7.57,8.84-11.62,16.44-11.12,3.47.24,6.18,1.93,9.29,4.61,0-6.14.12-11.56-.05-17-.09-2.78.79-3.72,3.63-3.74s3.28,1.13,3.28,3.54C279.3,611.81,279.41,627.29,279.5,642.77Zm-7.08-15c0-8.22-2.33-12.3-7.67-13.26-6.57-1.17-11.46,3.29-12.29,11.19-.92,8.86,2.91,15,9.56,15.3C268.94,641.26,272.39,636.87,272.42,627.72Z"></path><path class="cls-4" d="M273.07,549.6c2.43.55,4.05,1.8,3.44,4.49-.55,2.42-2.46,2.89-4.69,2.54a247.89,247.89,0,0,1-26.22-6c-2.35-.68-3.95-2-3.14-4.7.72-2.37,2.72-2.73,4.87-2.25C255.91,545.66,264.48,547.65,273.07,549.6Z"></path><path class="cls-4" d="M245.28,216.4c0,85.3.13,170.61-.11,255.92,0,12.8-.34,25.61-.3,38.42,0,4.46-1.84,5.7-6,5.69q-76.49-.13-153,0c-4.74,0-6.37-1.47-6.36-6.34.15-48.82.09-97.64.09-146.46h0V217.2c0-6.86.35-7.22,6.91-7.24l151.91-.45C244.51,209.49,245.28,210.23,245.28,216.4Zm-7.49,5.72c0-4-1.11-4.88-4.95-4.87q-70.74.19-141.47,0c-4.23,0-4.73,1.47-4.73,5.07q.14,141,0,281.93c0,3.89.93,4.92,4.9,4.91q70.49-.22,141,.05c4.72,0,5.31-1.53,5.29-5.63q-.19-70.24-.08-140.47C237.7,316.1,237.64,269.11,237.79,222.12Z"></path><path class="cls-4" d="M237.56,643.89c.06,2.81-2.25,1.66-3.68,1.88-1.95.29-3.11-.17-3-2.57.15-4.82.05-9.65,0-14.47,0-1.5,0-3-.08-4.49-.45-6.5-3.36-9.85-8.35-9.69-5.14.16-8.73,4.13-8.86,10.06s-.13,11.64,0,17.46c.06,2.58-.32,3.87-3.45,3.86s-3.43-1.24-3.4-3.81c.1-9.15-.1-18.3.09-27.44,0-1.63-2.09-4.41,1.81-5s4.35,1.62,4.18,5.68c4.15-6.45,9.77-6.11,15.23-5.65s8,4.51,8.88,9.33C238.44,627.24,237.37,635.59,237.56,643.89Z"></path><path class="cls-4" d="M218.25,285.54c4.39,0,5.84,1.58,5.82,5.84C224,314,224,336.68,224,359.33h0q0,33.48,0,66.95c0,6.11-.48,6.62-6.49,6.62-37,0-73.94,0-110.92.08-4.74,0-6.49-1.66-6.48-6.41q.15-67.45,0-134.91c0-4.5,1.69-6.13,6.23-6.12Q162.29,285.72,218.25,285.54ZM216.87,298c0-4-.72-5.31-5.05-5.28q-49.69.3-99.4,0c-3.88,0-4.91.94-4.9,4.86q.23,61.68,0,123.37c0,3.49.53,4.83,4.52,4.8q50.19-.28,100.39,0c3.49,0,4.45-.86,4.42-4.37-.16-20.65-.08-41.29-.09-61.94C216.77,338.94,216.66,318.46,216.87,298Z"></path><path class="cls-4" d="M220.81,446.1a3.45,3.45,0,0,1,3.14,3.84,3.33,3.33,0,0,1-3.18,3.28,33,33,0,0,1-4,.11H162.37q-27.45,0-54.91,0a24.52,24.52,0,0,1-4.46-.24,3.21,3.21,0,0,1-2.68-3.2,3.43,3.43,0,0,1,2.71-3.7,17.46,17.46,0,0,1,4-.21H216.83A24,24,0,0,1,220.81,446.1Z"></path><path class="cls-4" d="M220.66,475.56c2.16.19,3.37,1.43,3.29,3.6s-1.37,3.31-3.53,3.39c-1.16.05-2.33,0-3.5,0H107.46a38.09,38.09,0,0,1-4-.08,3.38,3.38,0,0,1-3.13-3.34,3.25,3.25,0,0,1,2.88-3.53,18.41,18.41,0,0,1,3.49-.14H217.16C218.33,475.5,219.5,475.46,220.66,475.56Z"></path><path class="cls-4" d="M223.93,464a3.16,3.16,0,0,1-2.63,3.67,24.88,24.88,0,0,1-5,.24h-109c-1.17,0-2.34,0-3.5-.05-2.13-.15-3.58-1.41-3.53-3.46,0-2.23,1.43-3.65,3.88-3.63,2.83,0,5.67,0,8.5,0H217.18a23.05,23.05,0,0,1,4,.17A3.08,3.08,0,0,1,223.93,464Z"></path><path class="cls-4" d="M220.56,490.13c2.08.24,3.39,1.41,3.37,3.61a3.4,3.4,0,0,1-3.42,3.57,37.9,37.9,0,0,1-4,.06H107.67a25,25,0,0,1-3,0,4.65,4.65,0,0,1-4.18-4.09c-.16-2.21,2-3.22,4.23-3.21H216.57A35.38,35.38,0,0,1,220.56,490.13Z"></path><path class="cls-4" d="M222.54,262.86c.58,1.95,1,4.24-1.8,4.74-2.37.43-4.94.71-5.47-2.94a30.29,30.29,0,0,0-1.83-6.19,4.21,4.21,0,0,0-4.83-2.71c-2.62.36-1.24,2.62-1.45,4a26.79,26.79,0,0,0,0,4.48c.12,3.52-2.32,3.25-4.72,3.46-3,.26-2.63-1.64-2.63-3.47,0-3.83,0-7.65,0-11.47h0c0-2-.34-4.06.08-6,.67-3-2.31-7.11,1.69-8.86,5.62-2.46,17.36-.09,19.78,3.32s1.75,7.45-1.74,10.65c-1,1-2.13,1.32-.53,2.77C221.44,256.86,221.69,260,222.54,262.86ZM210,250.7c2.61-.32,5.17-.84,5.13-4.18s-2.66-3.69-5.27-3.93c-3.25-.3-2.83,1.91-2.78,3.39C207.17,248.53,206.36,251.15,210,250.7Z"></path><path class="cls-4" d="M203.05,26c3.23-1.42,5.78.07,5.7,3-.11,1.91-1.31,2.87-2.92,3.63-7.79,3.65-15.44,7.56-22.83,12-2.1,1.24-4.18,1.52-5.57-.87s-.32-4.08,1.86-5.34A236.67,236.67,0,0,1,203.05,26Z"></path><path class="cls-4" d="M196.69,632.71c0,3.33,0,6.66,0,10,0,1.16.89,3.08-1.25,3-1.55,0-4.09,1.31-4.59-1.4-.55-3-1.57-1.73-2.8-.67a12.38,12.38,0,0,1-5.81,2.69c-6.33,1.22-11.65-1.42-13.47-6.64-2-5.72.64-11.6,6.58-14.4a23.88,23.88,0,0,1,11.11-2.45c3.69.16,3.73-1.59,2.77-4.23-1.58-4.37-6.49-5.76-12.87-3.92-1.54.45-3.72,3.57-4.91-.56-1.11-3.84,2.27-3.76,4.08-4.14a29.36,29.36,0,0,1,13.35,0c5.58,1.47,7.19,6.53,7.6,11.74.28,3.63,0,7.31,0,11Zm-6.7-1.78c1.13-3.35-1.11-3.79-4.35-3.34-2.65.37-5.32.69-7.55,2.25-2.93,2-4,4.89-2.51,8.25s4.26,3.91,7.48,3.19C187.59,640.26,189.87,637.06,190,630.93Z"></path><path class="cls-4" d="M192.22,261.57c2-.1,3,.33,2.95,2.7s-.74,3.22-3.15,3.15c-4.81-.15-9.64-.12-14.46,0-2.14,0-3-.68-2.89-2.86.13-4,0-8,0-12,0-3.83.11-7.66-.05-11.47-.1-2.45.44-3.61,3.24-3.47,4.64.23,9.31.17,14,0,2.32-.08,2.73.91,2.77,2.94,0,2.2-.76,3-2.91,2.82s-4.32.09-6.48-.06c-2.33-.17-3.24.62-3.19,3.07s1.07,2.8,3.07,2.67,4,.09,6-.06c2.29-.17,2.72.94,2.75,3s-.46,3.14-2.75,2.94c-1.65-.13-3.33.09-5,0-2.33-.14-4.1-.21-4.16,3.15s1.57,3.79,4.27,3.57C188.22,261.47,190.23,261.68,192.22,261.57Z"></path><path class="cls-4" d="M192.58,359.16c.07,14.6-12.4,27.14-27.05,27.2a27.06,27.06,0,1,1,27.05-27.2Zm-7.55,0a19.59,19.59,0,1,0-19.66,19.65A19.72,19.72,0,0,0,185,359.18Z"></path><path class="cls-4" d="M171.66,238.13c-.89,3.55-3.34,6.52-5.38,9.59-3.11,4.71-5.27,9.51-4.39,15.3.53,3.49-1.43,4.51-4.55,4.72-3.87.25-3-2.58-2.69-4.34,1.22-7.25-2.63-12.72-6-18.42-1.32-2.24-2.6-4.49-3.88-6.71,10.87-3.66,10.11,6.15,13.65,11C162.4,244.94,161,234.62,171.66,238.13Z"></path><path class="cls-4" d="M165.11,610.93c0,2,.27,4-2.3,4.76-7.37,2.24-8.89,4.21-9,11.77-.07,4.82-.1,9.66,0,14.48.06,2.43-.06,3.94-3.31,4s-3.48-1.25-3.47-3.81c.06-9.66,0-19.31-.12-29,0-2-.18-3.61,2.69-3.5,2.23.08,3.55.5,3.22,3a22,22,0,0,0,.17,3.13c2.57-3.67,4.8-6.41,8.56-6.8C163,608.84,165.1,608,165.11,610.93Z"></path><path class="cls-4" d="M159.94,55.41a3.1,3.1,0,0,1-.49,4.5c-7.5,5.8-14.92,11.69-22,18a5.3,5.3,0,0,1-2,.68,3.37,3.37,0,0,1-3.16-1.78c-.72-1.46-.8-3,.43-4.17a216.57,216.57,0,0,1,22.4-18.26C156.81,53.18,158.65,53.67,159.94,55.41Z"></path><path class="cls-4" d="M144.75,261.49c2.26-.18,2.87.77,2.83,2.89s-.45,3.09-2.77,3c-4.83-.12-9.66-.11-14.49,0-2.15.05-3-.74-2.92-2.89.1-4.16,0-8.33,0-12.49,0-3.83.17-7.67-.05-11.49-.19-3.26,1.88-2.8,3.86-2.86,2.16-.07,3.83,0,3.7,3-.23,5.65.12,11.33-.13,17-.14,3.14.89,4.2,3.95,3.85C140.74,261.32,142.77,261.65,144.75,261.49Z"></path><path class="cls-4" d="M129.29,618.79c7.78,4,10.28,8.11,9.41,14.86-.78,6-5.39,10.41-12.48,11.82a56.56,56.56,0,0,1-16.38.55c-2.08-.2-2.81-.92-2.8-3.06q.12-21.94,0-43.91c0-2.37.8-3.17,3.09-3.35,4.47-.35,8.91-1,13.42-.3,5.9.85,11.26,2.58,13,9S135.45,615.38,129.29,618.79Zm-5.57,21.68c5.87-1.42,8.87-5.47,7.93-10.7-1-5.54-7-9-15.18-7.87-5.76.77-1.25,5.68-2.66,8.33-.14.26,0,.65,0,1C113.78,641.57,114.9,642.61,123.72,640.47Zm1.34-24.82c3.36-1.46,5.21-3.94,5.07-7.72s-2.4-6-5.93-7c-8.32-2.38-10.41-.83-10.4,7.66,0,2,0,4,0,6,0,1.39.5,2.13,2,2.12C118.92,616.68,122.09,617,125.06,615.65Z"></path><path class="cls-4" d="M121.63,252.64c0,2.08-.56,3.18-2.8,2.89a6.68,6.68,0,0,0-1,0c-7.46.2-7.61.2-7.65,7.94,0,3.33-1.36,4.13-4.42,4.31-3.6.23-3.09-1.95-3.09-4.08v-11H103c0-4.81-1.88-11.25.5-14,2.76-3.18,9.36-.78,14.29-1,2-.08,4.88-1.12,4.74,3-.13,3.79-2.76,2.44-4.63,2.62a22.46,22.46,0,0,1-4.49,0c-2.66-.26-3.38.91-3.36,3.45s.84,3.29,3.2,3.11c1.82-.14,3.66.09,5.48,0C120.86,249.69,121.67,250.41,121.63,252.64Z"></path><path class="cls-4" d="M119.05,94.74c0,1.64-1,2.71-2,3.88-5.1,6.14-10.21,12.28-15.18,18.52-1.68,2.12-3.3,4.16-6.1,2.18s-1.38-4.4.25-6.42c5.33-6.6,10.72-13.15,16.11-19.71,1.24-1.51,2.77-2.45,4.8-1.58A3.39,3.39,0,0,1,119.05,94.74Z"></path><path class="cls-4" d="M82.19,136.34a3.49,3.49,0,0,1,3.28,5.2c-4.18,8.3-8.58,16.49-13,24.68-1,1.81-2.58,2.65-4.6,1.6a3.34,3.34,0,0,1-1.74-4.62A222.4,222.4,0,0,1,79.3,138.06,3.55,3.55,0,0,1,82.19,136.34Z"></path><path class="cls-4" d="M60,187.19c2,.65,3.11,2.26,2.44,4.29-2.92,8.85-5.45,17.8-7.71,26.84a3.27,3.27,0,0,1-4.16,2.61c-2.1-.47-2.91-2-2.74-4.56a225.36,225.36,0,0,1,8-27.33A3.13,3.13,0,0,1,60,187.19Z"></path><path class="cls-4" d="M51.66,327.2c.53,2.93-.89,4.74-3.27,5.19-2.64.5-3.56-1.88-3.88-4.07-1.24-8.69-2.38-17.4-3.56-26.11.09-2.45.79-4.48,3.51-4.69s3.88,1.58,4,4A216.48,216.48,0,0,0,51.66,327.2Z"></path><path class="cls-4" d="M47,241.65c2.83.45,2.93,2.67,2.74,5q-1,12.91-1.95,25.85c-.16,2.33-1.2,3.9-3.57,3.94-2.78.06-3.63-1.81-3.58-4.32s0-5,0-6.68c.72-7.1,1.37-13.38,2-19.66C42.85,243.11,43.92,241.17,47,241.65Z"></path></svg>