<svg xmlns="http://www.w3.org/2000/svg" xmlns:xlink="http://www.w3.org/1999/xlink" id="Illustration" viewBox="0 0 442.46 433.91"><defs><style>.cls-1{fill:#f2f0fc;}.cls-2{fill:#00b6ff;}.cls-3,.cls-8{fill:#fff;}.cls-4{fill:#92d0f7;}.cls-5{fill:url(#linear-gradient);}.cls-6{fill:url(#linear-gradient-2);}.cls-7{fill:#150d43;}.cls-8{opacity:0.34;}.cls-9{fill:#00a4e8;}.cls-10{fill:#75b6ea;}.cls-11{fill:#7d96f3;}.cls-12{fill:url(#linear-gradient-3);}.cls-13{fill:url(#linear-gradient-4);}.cls-14{fill:#656083;}.cls-15{fill:url(#linear-gradient-5);}.cls-16{fill:url(#linear-gradient-6);}.cls-17{fill:url(#linear-gradient-7);}.cls-18{fill:url(#linear-gradient-8);}.cls-19{fill:url(#linear-gradient-9);}</style><linearGradient id="linear-gradient" x1="-5341.68" y1="139.19" x2="-5294.07" y2="246.68" gradientTransform="matrix(-1, 0, 0, 1, -5214.17, 0)" gradientUnits="userSpaceOnUse"><stop offset="0" stop-color="#fdbab9"></stop><stop offset="1" stop-color="#ff918d"></stop></linearGradient><linearGradient id="linear-gradient-2" x1="-5340.83" y1="138.81" x2="-5293.23" y2="246.31" xlink:href="#linear-gradient"></linearGradient><linearGradient id="linear-gradient-3" x1="-5289.95" y1="476.85" x2="-5269.09" y2="233.06" xlink:href="#linear-gradient"></linearGradient><linearGradient id="linear-gradient-4" x1="-5247.99" y1="480.48" x2="-5227.13" y2="236.62" xlink:href="#linear-gradient"></linearGradient><linearGradient id="linear-gradient-5" x1="-5292.24" y1="236.54" x2="-5288.32" y2="207.88" xlink:href="#linear-gradient"></linearGradient><linearGradient id="linear-gradient-6" x1="-5227.58" y1="-131.38" x2="-5205.15" y2="-217.88" xlink:href="#linear-gradient"></linearGradient><linearGradient id="linear-gradient-7" x1="-5273.63" y1="-143.32" x2="-5251.21" y2="-229.82" xlink:href="#linear-gradient"></linearGradient><linearGradient id="linear-gradient-8" x1="-13331.21" y1="2090.61" x2="-13304.97" y2="2120.78" gradientTransform="matrix(-0.97, 0.26, 0.26, 0.97, -13331.71, 1636.6)" xlink:href="#linear-gradient"></linearGradient><linearGradient id="linear-gradient-9" x1="-13324.65" y1="2084.91" x2="-13298.41" y2="2115.08" gradientTransform="matrix(-0.97, 0.26, 0.26, 0.97, -13331.71, 1636.6)" xlink:href="#linear-gradient"></linearGradient></defs><title>20943496 [Converted]</title><path class="cls-1" d="M392.4,372.88c-8.87,9.33-17.26,15.36-23.89,20.11-77.93,55.92-170.15,39.62-189.74,35.64-29-5.88-84.89-17.24-125.33-64.8-61.19-72-51.66-185.33-4.2-260.16C57.92,90,103.78,14,197,1.82c56.41-7.37,122.16,7.5,169.78,47.39C466.72,133,459.61,302.13,392.4,372.88Z"></path><path class="cls-2" d="M124.77,382.59h0c52.28-1.53,94.06-43.07,94.06-92.8V206.92a7.29,7.29,0,0,0-7.41-7.17l-86.65.16C71.66,200,28,241.57,28,292.75h0C28,343.93,71.66,384.14,124.77,382.59Z"></path><path class="cls-3" d="M64.83,342.62a72.71,72.71,0,0,1-20.07-50.14c0-42.26,35.89-76.79,80-77h.36c24.41,0,46.87,10.55,61.69,29l-1.24,1c-14.52-18.06-36.53-28.39-60.45-28.39h-.35c-43.24.18-78.42,34-78.42,75.38a71.1,71.1,0,0,0,19.63,49Z"></path><path class="cls-4" d="M50.29,292.4c0,39.39,33.55,70.44,74.48,69.37,40.44-1.06,72.85-33.13,72.85-71.65s-32.41-69.59-72.85-69.4C83.84,220.93,50.29,253,50.29,292.4Z"></path><path class="cls-3" d="M125.2,300.05V288.66l29.83-.47V318a28,28,0,0,1-11.89,8,51.3,51.3,0,0,1-17.1,3.12,34,34,0,0,1-17.38-3.89,27.85,27.85,0,0,1-11.58-12.15A42.47,42.47,0,0,1,92.88,294V288.9a46.08,46.08,0,0,1,3.88-19.61,28.82,28.82,0,0,1,11.17-12.76,32.6,32.6,0,0,1,17-4.53q13.53-.13,21.11,6.14t9,18.35l-15.16.21q-1.05-6.42-4.61-9.36t-9.85-2.87c-5.33.06-9.41,2.09-12.2,6.09S109,280.47,109,288.29v4.81q0,11.83,4.57,17.8t13.36,5.78q8.82-.18,12.57-4V299.81Z"></path><path class="cls-5" d="M124.54,158.57l.16-5.16-5.39-10.7a7,7,0,0,1,0-6.23l6.1-12.33s3.53,26.76,4.46,29-2.52,6.22-2.52,6.22Z"></path><path class="cls-6" d="M124.7,153.41s-16.39,44.7-44.33,58.66c0,0,9.3,15.17,14.15,16.09,0,0,29.84-38.19,32.88-69.48Z"></path><path class="cls-7" d="M319,376.9h0c-50,1.47-91.18-37.59-91.18-87.25V206.9a7.29,7.29,0,0,1,7.37-7.19l83.81-.15c49.27-.09,88.67,39,88.67,87.3h0C407.64,335.15,368.24,375.46,319,376.9Z"></path><path class="cls-3" d="M336.08,359.38l-.4-1.55c32.63-8.46,55.42-37.55,55.42-70.73a69.93,69.93,0,0,0-20.74-49.9A71.7,71.7,0,0,0,319,216.28a74.16,74.16,0,0,0-52.13,21.55l-1.12-1.14a75.74,75.74,0,0,1,53.24-22h.33a73.39,73.39,0,0,1,52.2,21.38,71.54,71.54,0,0,1,21.21,51A73.17,73.17,0,0,1,376.61,333,76.57,76.57,0,0,1,336.08,359.38Z"></path><path class="cls-8" d="M387.64,287.17c0,37.4-30.56,68.53-68.67,69.52-38.57,1-70.17-29.15-70.17-67.37S280.4,220,319,219.77C357.08,219.58,387.64,249.76,387.64,287.17Z"></path><path class="cls-3" d="M352.61,285.93a45.37,45.37,0,0,1-4.18,20,31.53,31.53,0,0,1-12,13.46,35,35,0,0,1-17.95,5.05,34.34,34.34,0,0,1-18-4.25,30.32,30.32,0,0,1-12.29-13,43.18,43.18,0,0,1-4.43-19.75V283.6a45.2,45.2,0,0,1,4.34-20.26,31.78,31.78,0,0,1,12.24-13.52,35,35,0,0,1,18-4.83,34.2,34.2,0,0,1,17.89,4.47,30.41,30.41,0,0,1,12.06,13.14,44.26,44.26,0,0,1,4.26,19.9Zm-16.73-3.23q0-12.13-4.53-18.38t-13-6.16q-8.38.1-12.95,6.4T300.82,283v3.78q0,11.87,4.57,18.34t13.12,6.28q8.37-.15,12.84-6.53t4.53-18.38Z"></path><path class="cls-2" d="M319,12.2h0c-50-1.36-91.18,37.77-91.18,87.44v82.75a7.28,7.28,0,0,0,7.37,7.17l83.81,0c49.28,0,88.67-39.17,88.67-87.47h0C407.64,53.77,368.25,13.55,319,12.2Z"></path><path class="cls-3" d="M260.64,147a74,74,0,0,1-17.09-47.12A71.56,71.56,0,0,1,265.3,48.21,73.55,73.55,0,0,1,319,27.32a75.71,75.71,0,0,1,65.77,41.39l-1.43.72A74.12,74.12,0,0,0,319,28.92a72,72,0,0,0-52.53,20.43,70,70,0,0,0-21.27,50.51A72.38,72.38,0,0,0,261.87,146Z"></path><path class="cls-9" d="M276.49,161.35A75.79,75.79,0,0,1,260.64,147l1.23-1A74.74,74.74,0,0,0,277.39,160Z"></path><path class="cls-4" d="M387.65,101.8c0-37.41-30.57-68.47-68.68-69.39-38.56-.93-70.17,29.29-70.17,67.51s31.61,69.3,70.17,69.41C357.08,169.44,387.65,139.21,387.65,101.8Z"></path><path class="cls-3" d="M351.22,106.41a44.4,44.4,0,0,1-3.94,19.3A29.14,29.14,0,0,1,336,138.46a31.47,31.47,0,0,1-16.92,4.4,32.3,32.3,0,0,1-16.93-4.61,30.45,30.45,0,0,1-11.58-13A44,44,0,0,1,286.39,106v-3.74a44.11,44.11,0,0,1,4.09-19.54A29.27,29.27,0,0,1,302,69.93a31.55,31.55,0,0,1,17-4.2,32.2,32.2,0,0,1,16.87,4.82A30.4,30.4,0,0,1,347.2,83.64a44.74,44.74,0,0,1,4,19.43Zm-15.77-3.6q0-11.78-4.27-18A14.28,14.28,0,0,0,319,78.51q-7.91-.14-12.21,5.87t-4.36,17.73v3.67q0,11.53,4.31,17.93a14.16,14.16,0,0,0,12.36,6.47q7.89.07,12.11-6t4.27-17.73Z"></path><path class="cls-7" d="M124.77,6.9h0C177,8.33,218.82,49.78,218.82,99.52v82.86a7.29,7.29,0,0,1-7.4,7.18l-86.65,0C71.66,189.6,28,148.11,28,96.93h0C28,45.75,71.66,5.45,124.77,6.9Z"></path><path class="cls-3" d="M78.88,160c-21.37-14.44-34.13-37.91-34.13-62.8A72.71,72.71,0,0,1,67,44.77c15.28-14.91,35.81-22.83,57.79-22.27a82.38,82.38,0,0,1,24.81,4.44l-.52,1.51a80.81,80.81,0,0,0-24.33-4.35c-21.55-.53-41.66,7.21-56.63,21.82A71.09,71.09,0,0,0,46.36,97.17c0,24.35,12.49,47.34,33.42,61.47Z"></path><path class="cls-3" d="M99.79,170.1A81.71,81.71,0,0,1,78.88,160l.9-1.33a79.67,79.67,0,0,0,20.5,9.93Z"></path><path class="cls-3" d="M125,174h-.19a82.94,82.94,0,0,1-25-3.89l.49-1.53a81,81,0,0,0,24.49,3.82H125a78.29,78.29,0,0,0,44.7-13.74l.91,1.32A79.92,79.92,0,0,1,125,174Z"></path><path class="cls-8" d="M50.28,97.23c0-39.38,33.56-70.5,74.49-69.51,40.43,1,72.85,33,72.85,71.51s-32.42,69.65-72.85,69.54C83.84,168.65,50.28,136.62,50.28,97.23Z"></path><path class="cls-3" d="M119.43,127.64l35.21.32v12.75l-51.92-.38V62.74l16.71.32Z"></path><polygon class="cls-10" points="321.52 381.11 327.6 402.2 339.27 389.02 321.52 381.11"></polygon><path class="cls-4" d="M412.88,341.68l-42.57,66.37a5.55,5.55,0,0,1-7.85,1.56l-65-45.25a2.22,2.22,0,0,1,.91-4Z"></path><polygon class="cls-10" points="321.53 381.11 412.88 341.68 332 388.44 333.44 394.36 321.53 381.11"></polygon><polygon class="cls-11" points="338.24 392.75 327.6 402.2 332 388.44 338.24 392.75"></polygon><path class="cls-3" d="M83,180.39,82.18,184a.52.52,0,0,1-.62.39.51.51,0,0,1-.38-.62v0l1-3.61a.45.45,0,0,1,.55-.32A.46.46,0,0,1,83,180.39Z"></path><path class="cls-3" d="M80,193.25l-1.79,7.14a.77.77,0,1,1-1.5-.37v0l2-7.1a.68.68,0,0,1,.83-.46A.66.66,0,0,1,80,193.25Z"></path><path class="cls-3" d="M76,209.58l-1.58,7.19a1,1,0,1,1-2-.43v0l1.78-7.15a.9.9,0,0,1,1.75.41Z"></path><path class="cls-3" d="M72.56,226l-1.22,7.27a1.15,1.15,0,0,1-2.27-.38v0l1.34-7.25a1.09,1.09,0,0,1,2.15.38Z"></path><path class="cls-3" d="M70.09,242.59s0,.46-.12,1.14-.15,1.59-.23,2.51c-.16,1.82-.27,3.64-.27,3.64a1.28,1.28,0,0,1-2.55-.16h0s.15-1.85.33-3.7l.28-2.53c.08-.69.13-1.15.13-1.15a1.22,1.22,0,0,1,2.43.27Z"></path><path class="cls-3" d="M69.13,259.27s0,.46,0,1.15,0,1.6,0,2.51c0,1.83.09,3.65.09,3.65a1.4,1.4,0,1,1-2.8.1h0s0-1.86,0-3.71c0-.93,0-1.86,0-2.56l0-1.16a1.35,1.35,0,0,1,2.69,0Z"></path><path class="cls-3" d="M69.79,276l.1,1.14c.07.68.17,1.59.26,2.5.19,1.81.44,3.62.44,3.62a1.46,1.46,0,1,1-2.89.39h0s-.23-1.84-.43-3.69c-.08-.93-.17-1.85-.24-2.55l-.1-1.15a1.44,1.44,0,0,1,2.86-.25Z"></path><path class="cls-3" d="M72.08,292.48l.22,1.12c.14.67.33,1.56.52,2.45.38,1.79.81,3.56.81,3.56a1.51,1.51,0,0,1-1.1,1.81,1.49,1.49,0,0,1-1.8-1.1h0s-.43-1.8-.81-3.62c-.18-.92-.37-1.83-.51-2.51s-.21-1.14-.21-1.14a1.47,1.47,0,1,1,2.89-.55Z"></path><path class="cls-3" d="M76.1,308.66l.34,1.09.77,2.39c.57,1.73,1.18,3.45,1.18,3.45a1.53,1.53,0,1,1-2.89,1h0s-.62-1.75-1.19-3.52l-.77-2.44c-.21-.66-.34-1.11-.34-1.11a1.52,1.52,0,0,1,2.9-.88Z"></path><path class="cls-3" d="M81.8,324.32l.45,1.05,1,2.29c.75,1.67,1.54,3.31,1.54,3.31A1.57,1.57,0,0,1,82,332.34h0s-.8-1.68-1.56-3.38l-1-2.34-.45-1.07a1.55,1.55,0,1,1,2.86-1.22Z"></path><path class="cls-3" d="M89.13,339.28l.57,1L91,342.45c.91,1.58,1.87,3.13,1.87,3.13a1.59,1.59,0,1,1-2.7,1.67h0s-1-1.57-1.93-3.18c-.47-.8-.94-1.61-1.28-2.22s-.56-1-.56-1a1.59,1.59,0,0,1,2.78-1.56Z"></path><path class="cls-3" d="M98,353.39l.67.93,1.48,2c1.08,1.46,2.21,2.9,2.21,2.9a1.56,1.56,0,0,1-2.46,1.93h0s-1.15-1.46-2.27-2.95l-1.52-2.06-.68-.94A1.58,1.58,0,0,1,98,353.38h0Z"></path><path class="cls-3" d="M108.36,366.42l.76.85,1.7,1.84c1.24,1.34,2.53,2.63,2.53,2.63a1.51,1.51,0,0,1-2.13,2.13h0s-1.32-1.31-2.6-2.66l-1.76-1.87-.78-.85a1.55,1.55,0,0,1,2.28-2.09h0Z"></path><path class="cls-3" d="M120.15,378.18l.86.75c.51.45,1.2,1,1.9,1.63,1.4,1.17,2.83,2.3,2.83,2.3A1.42,1.42,0,0,1,124,385.1h0s-1.47-1.14-2.91-2.32l-2-1.64-.88-.76a1.46,1.46,0,1,1,1.9-2.21h0Z"></path><path class="cls-3" d="M133.27,388.43l.94.65c.57.38,1.33.88,2.1,1.37,1.53,1,3.09,1.93,3.09,1.93a1.26,1.26,0,0,1-1.27,2.17h0s-1.62-.93-3.2-1.91l-2.16-1.36-1-.64a1.33,1.33,0,1,1,1.45-2.22h0Z"></path><path class="cls-3" d="M147.61,396.92l1,.51,2.26,1.08c1.66.77,3.34,1.49,3.34,1.49a1.08,1.08,0,0,1,.57,1.43,1.09,1.09,0,0,1-1.41.58h0s-1.73-.7-3.43-1.45c-.85-.38-1.69-.76-2.32-1.06l-1-.49a1.17,1.17,0,1,1,1-2.11h0Z"></path><path class="cls-3" d="M163,403.33l1.08.37,2.4.77c1.74.55,3.5,1.06,3.5,1.06a1,1,0,0,1,.7,1.27,1,1,0,0,1-1.26.7s-1.79-.5-3.56-1.05l-2.43-.78-1.1-.36a1,1,0,1,1,.66-2h0Z"></path><path class="cls-3" d="M179.1,407.89s1.79.41,3.58.78,3.6.71,3.6.71a1,1,0,0,1-.35,1.9s-1.82-.32-3.64-.69-3.62-.76-3.62-.76h0a1,1,0,0,1,.44-1.94Z"></path><path class="cls-3" d="M195.58,410.85s1.82.24,3.64.44,3.65.38,3.65.38a.9.9,0,0,1-.16,1.8s-1.85-.15-3.69-.35-3.67-.42-3.67-.42h0a.93.93,0,1,1,.24-1.85Z"></path><path class="cls-3" d="M212.28,412.34s1.83.1,3.66.16,3.67.09,3.67.09a.85.85,0,0,1,0,1.69s-1.85,0-3.7-.07-3.69-.13-3.69-.13h0a.86.86,0,0,1-.84-.9.87.87,0,0,1,.91-.84Z"></path><path class="cls-3" d="M229,412.58l7.37-.23a.78.78,0,0,1,.81.76.8.8,0,0,1-.76.81l-7.36.28a.81.81,0,0,1-.84-.77.82.82,0,0,1,.78-.85Z"></path><path class="cls-3" d="M245.82,411.78l7.34-.62a.72.72,0,0,1,.78.66.71.71,0,0,1-.65.78l-7.34.68a.75.75,0,0,1-.13-1.5Z"></path><path class="cls-3" d="M262.55,410.15l7.31-.92a.66.66,0,1,1,.17,1.31l-7.3,1a.68.68,0,0,1-.77-.59.7.7,0,0,1,.59-.78Z"></path><path class="cls-3" d="M279.22,407.89l7.28-1.13a.59.59,0,0,1,.19,1.17l-7.27,1.2a.63.63,0,0,1-.21-1.24Z"></path><path class="cls-3" d="M295.83,405.2l7.26-1.27a.51.51,0,0,1,.59.42.52.52,0,0,1-.41.59L296,406.28a.55.55,0,0,1-.19-1.08Z"></path><path class="cls-3" d="M312.41,402.25l3.67-.67a.45.45,0,0,1,.17.88l-3.67.7a.47.47,0,0,1-.55-.36.48.48,0,0,1,.37-.55Z"></path><path class="cls-7" d="M21.79,212.52c4-14.93,16.51-27.19,30.41-30.29a4.69,4.69,0,0,0,3.43-5.72v0c-2-8.69,3.55-15.61,11.95-17.55S84,160.72,86,169.4a19.24,19.24,0,0,1-4.24,16.73,4.67,4.67,0,0,0-.18,6.18c8.47,9.93,11.92,25.07,8.26,38.62-5.4,19.95-24.16,28.86-43,23.78S16.4,232.48,21.79,212.52Z"></path><path class="cls-3" d="M27.64,231.56l.36-.25c-3.36-4.78-3.8-11.67-1.13-18,2.12-5,5.92-9.61,11.94-14.45,2.25-1.8,4.63-3.51,6.93-5.17,2.78-2,5.64-4,8.3-6.28,2.39-2,4.9-4.52,5.43-7.79a17.15,17.15,0,0,0-.22-5c-.37-2.63-.73-5.11.81-7l-.34-.28c-1.66,2-1.28,4.75-.91,7.35a17,17,0,0,1,.22,4.91c-.51,3.13-3,5.55-5.28,7.51-2.64,2.23-5.5,4.28-8.27,6.27-2.3,1.66-4.69,3.37-6.94,5.18-6.09,4.89-9.93,9.53-12.08,14.62C23.73,219.61,24.18,226.66,27.64,231.56Z"></path><path class="cls-3" d="M36.57,234.45l.42-.16c-2.29-6.33-1.62-14.11,1.84-21.35s9-13,13.53-17.31l-.3-.32c-4.53,4.32-10.17,10.2-13.63,17.44S34.24,228,36.57,234.45Z"></path><path class="cls-2" d="M14.52,416.21,13.7,423c-.86,3.22-5,11.34-10.33,10.81C.09,433.48-.3,423.91.16,422.47c.83-2.61,2.35-6.54,4.54-8.85h7.52A2.31,2.31,0,0,1,14.52,416.21Z"></path><path class="cls-12" d="M73.41,336.82l1.27,7.46s-4.25,43.05-5,60.27a13.43,13.43,0,0,0,2,7.66l7.39,12L60.28,413.13l-.38-2.29L63,406.61l-4-48.22a14.81,14.81,0,0,1,1.69-8.18l3.88-7.3Z"></path><path class="cls-2" d="M80.3,426h-6a3.59,3.59,0,0,1-2.86-1.4c-1.87-2.43-5.74-7.17-7.59-7.29-2.49-.17-2.18,8.69-2.18,8.69H60.28l-1.77-11a6.52,6.52,0,0,1,3.42-6.82h0s.57,4.22,3.66,6.08,12.56,8.54,12.56,8.54a8.51,8.51,0,0,1,2.44.06A1.58,1.58,0,0,1,80.3,426Z"></path><path class="cls-13" d="M47.69,340.36s-24.9,47.23-28.86,58A102.84,102.84,0,0,0,13.44,419c-.09,1.33-1.74,2.61-6.31,2.61-2.35,0-3.5-.95-4.07-1.86a2.66,2.66,0,0,1-.1-2.58c1.44-2.91,6-12.23,7.7-16.45,2-5,6.37-27.9,8.75-35.85s5.08-16.57,15.47-24.51C34.88,340.36,42,333.38,47.69,340.36Z"></path><path class="cls-14" d="M63.41,263c3.65-15.45,0-27.09-3.87-34.26a11.58,11.58,0,0,1,4.85-15.8A89.66,89.66,0,0,1,82.54,206s17.84,13.05,15.73,23.26c-1.25,6-12.55,35.85-12.55,35.85S75.27,270.1,63.41,263Z"></path><path class="cls-7" d="M49.17,276.45C51.79,268.58,63.41,263,63.41,263c11.86,7.12,22.31,2.17,22.31,2.17s2.34,9,.73,17.29-11.77,61.84-11.77,61.84c-16,3.24-40.6-3.26-40.6-3.26C44.27,322.93,46.56,284.33,49.17,276.45Z"></path><path class="cls-15" d="M70.87,188.06l-5.22,23.45c-.5,2.07,1.38,1.73,3.47,1.33,3.42-.64,7.83-2,9.3-4.63a2.5,2.5,0,0,0,.27-.88l2.24-16.27A2.92,2.92,0,0,0,79.22,188l-4.33-1.92A2.92,2.92,0,0,0,70.87,188.06Z"></path><path class="cls-16" d="M136.13,172.57S122.39,220.31,67,215.82A6.41,6.41,0,0,0,60,221.71l-.15,1.91a8.54,8.54,0,0,0,8.94,9.21c18.43-.93,58-8.17,71.57-52Z"></path><path class="cls-17" d="M140.4,180.86a88.49,88.49,0,0,0,3.31-12.62c.66-4.86-1.78-15.76-3.88-18.83s-2.45,4.45-3.39,8,.65,8.57.65,8.57l-1,6.61Z"></path><path class="cls-18" d="M81.57,168.71s13.21,19.23,5,24.59S69,185,69,185s-2.95-10.44.4-13.91S81.57,168.71,81.57,168.71Z"></path><path class="cls-7" d="M76,164s5.75,1.48,6.51,4.1-8.28,4.88-10.8,5l-2.23,10.5s-5.81-10-3.33-15.7S76,164,76,164Z"></path><path class="cls-19" d="M71.61,183.64s-5.16-6.21-7.33-2.26,4.61,7.06,7,5.15Z"></path></svg>