<svg xmlns="http://www.w3.org/2000/svg" id="Layer_1" data-name="Layer 1" viewBox="0 0 641.66 707.26"><defs><style>.cls-1{fill:#30b9ff;}.cls-2{fill:#fff;}.cls-3{fill:#011a57;}.cls-4{fill:#ade5fe;}</style></defs><title>brand-advocate-concept-icon-referral-marketing-vector-29127080-1-1</title><circle class="cls-1" cx="320.08" cy="283.15" r="211.27"></circle><path class="cls-2" d="M327.16,550.39c.11,3.19-1,3.81-3.94,3.81-9.54,0-9.55.11-9.55-9.58,0-13.48.12-27-.08-40.45,0-3.38,1-4.09,4.19-4.06,9.31.09,9.31-.05,9.31,9.33v18C327.08,535.08,326.92,542.74,327.16,550.39Z"></path><path class="cls-2" d="M132.52,301.61c0,4-.83,5.68-5.15,5.23a90.35,90.35,0,0,0-12,0c-2.13.06-3.11-.68-2.89-2.87.08-.82,0-1.66,0-2.49q0-108.15-.1-216.3c0-4.29.87-6.07,5.39-5.47,4.72.63,11.09-2,13.81,1.11,2.35,2.72.81,8.88.82,13.52q0,49.7,0,99.41C132.44,229.67,132.38,265.64,132.52,301.61Z"></path><path class="cls-2" d="M293,225.61c.43,12.84.51,12.84-12.27,12.84h-6c-5,0-10-.08-15,0-2.1,0-3.16-.59-2.86-2.8a4.17,4.17,0,0,0,0-.5c-.61-12.89-.61-12.89,12.25-12.89,6.82,0,13.64.12,20.46-.06C292.23,222.17,292.88,223,293,225.61Z"></path><path class="cls-2" d="M289.78,196.82c2.29,0,3.5.52,3.13,3a4,4,0,0,0,0,.49c-.26,4.77,2,10.88-.84,13.93-2.61,2.84-8.78.62-13.37.86-1.32.07-2.66,0-4,0-4.82,0-9.63-.11-14.44.06-2.52.09-3.61-.56-3.45-3.29.27-4.78-1.47-10.82.83-14s8.64-.82,13.21-1C277.16,196.72,283.47,197,289.78,196.82Z"></path><path class="cls-2" d="M293,151.71c.06,12.41.17,12.4-12.2,12.41h-6c-4.81,0-9.64-.17-14.44.07-2.95.15-3.51-.95-3.56-3.68-.23-12.65-.32-12.65,12.46-12.65,6.64,0,13.29.19,19.92-.07C292.38,147.66,293,148.75,293,151.71Z"></path><path class="cls-2" d="M289,171.23c2.89-.1,4.28.44,4,3.75-.37,4.62,1.44,10.64-.86,13.52-2.43,3-8.7.65-13.28,1-1.33.1-2.67,0-4,0-4.83,0-9.66-.17-14.48.06-3,.14-3.69-1-3.53-3.72.27-4.62-1.46-10.65.85-13.52,2.43-3,8.71-.85,13.31-1C277,171.16,283,171.43,289,171.23Z"></path><path class="cls-3" d="M637,679.34c3.37-.1,4.82.91,4.68,4.54-.24,6.32-.18,12.66,0,19,.09,3.29-1.2,4.44-4.41,4.36-6.16-.15-12.33-.17-18.49,0-3.68.12-5-1.24-4.92-5,.14-6.41-.05-6.42-6.62-6.42H320.81q-143.46,0-286.9-.11c-4.83,0-7.13.87-6.17,6.09.76,4.21-1.28,5.59-5.37,5.41-6-.26-12-.19-18,0C1.1,707.32-.06,706,0,702.81c.16-6.32.24-12.66,0-19-.14-3.67,1.38-4.59,4.73-4.48,6,.19,12,.28,18,0,4-.21,5.66,1.29,5,5.16-.89,5.32,1.41,6.4,6.47,6.39q286.65-.2,573.29,0c5.15,0,7.28-1.22,6.42-6.44-.65-3.94,1.08-5.31,5.06-5.12C625,679.62,631,679.52,637,679.34Zm-.4,14.64c0-9.44,0-9.44-9.25-9.42-8.44,0-8.44,0-8.46,8.68,0,8.9,0,8.9,8.71,8.89C636.57,702.11,636.57,702.11,636.57,694ZM14.39,702.13c8.44,0,8.44,0,8.42-8.68,0-8.87,0-8.87-8.75-8.89h-.5c-8.47,0-8.47,0-8.47,8.21C5.09,702.11,5.09,702.11,14.39,702.13Z"></path><path class="cls-3" d="M579.59,85.49c23.93,0,39,15.13,39,39q0,46.49,0,93c0,21.81-15.65,37.31-37.57,37.37-44,.12-87.95.33-131.93.35a15.28,15.28,0,0,0-8.72,3q-23,15-45.94,29.95c-1.93,1.25-3.81,3-6.34,1.56s-2.15-3.92-2.15-6.24c0-8.33-.11-16.66.05-25,0-2.48-.66-3.35-3.13-3.91-19.24-4.35-30.15-18.07-30.17-37.83,0-30.66,0-61.32,0-92,0-24.46,15.59-40.3,40-39.66,31,.81,62,0,86.91.4Zm31.55,134.34q.36-49.23,0-98.45c-.1-16.21-12.53-28.44-28.69-28.47q-96.47-.16-192.92,0c-16.66,0-29,12.48-29,29.18q-.13,48.24,0,96.46c0,15.77,11.66,28,27.33,28.8,4.31.21,5.88,1.77,5.77,6-.21,8.42-.06,16.85-.06,26,15.27-9.91,29.92-19.31,44.43-28.92a17.48,17.48,0,0,1,10.18-3.09q66.72.17,133.44.06C598.07,247.42,611,235.57,611.14,219.83Z"></path><path class="cls-2" d="M611.18,121.38q.33,49.22,0,98.45c-.12,15.74-13.07,27.59-29.51,27.61q-66.72.06-133.44-.06A17.48,17.48,0,0,0,438,250.47c-14.51,9.61-29.16,19-44.43,28.92,0-9.16-.15-17.59.06-26,.11-4.27-1.46-5.83-5.77-6-15.67-.78-27.28-13-27.33-28.8q-.15-48.22,0-96.46c.05-16.7,12.38-29.15,29-29.18q96.46-.14,192.92,0C598.65,92.94,611.08,105.17,611.18,121.38Zm-11.79,61c.16-2.91-1.92-3.92-4.64-3.92q-46.14,0-92.3,0c-2.47,0-4.46.77-4.57,3.44-.13,3,1.91,4,4.61,4,1,0,2,0,3,0h43.41q22.7,0,45.4,0C596.85,185.85,599.23,185.31,599.39,182.36Zm0-45.61c.09-3.7-3-3.73-5.79-3.73h-90c-2.71,0-5.8-.2-5.68,3.76s3.35,3.38,6,3.38q22,0,44,0h45.5C596,140.18,599.27,140.52,599.36,136.75Zm0,22.78c.16-3.71-2.89-3.77-5.71-3.77q-45,0-90,0c-2.77,0-5.83,0-5.76,3.75s3.26,3.51,5.94,3.51h44.5q22.5,0,45,0C596.08,163,599.2,163.19,599.35,159.53Zm-49.68,48.88c2.71,0,5.32-.31,5.22-3.74s-2.91-3.46-5.5-3.46H527c-8,0-15.93,0-23.9,0-2.68,0-5.28.29-5.21,3.75.06,3.16,2.49,3.45,5,3.45Q526.26,208.39,549.67,208.41ZM430.46,228.56c32.59-.93,58.56-27.86,57.78-59.92-.82-33.53-27.63-58.92-61.45-58.2-32.12.69-57.45,28.11-56.68,61.38C370.84,203.43,398.53,229.47,430.46,228.56Z"></path><path class="cls-3" d="M599.35,298.39c2.82-.14,3.6,1.79,3.55,7.48-1,7.73-2.08,15.45-3.08,23.19-.36,2.78-1.33,5.05-4.63,4.35-3-.62-2.9-2.94-2.55-5.51,1-7.56,1.75-15.17,2.75-22.74C595.75,302.44,594.77,298.62,599.35,298.39Z"></path><path class="cls-3" d="M594.75,178.44c2.72,0,4.8,1,4.64,3.92s-2.54,3.49-5.1,3.48q-22.69,0-45.4,0H505.48c-1,0-2,0-3,0-2.7,0-4.74-1-4.61-4,.11-2.67,2.1-3.45,4.57-3.44Q548.61,178.47,594.75,178.44Z"></path><path class="cls-3" d="M593.57,133c2.77,0,5.88,0,5.79,3.73s-3.33,3.43-6,3.43h-45.5q-22,0-44,0c-2.6,0-5.83.65-6-3.38s3-3.76,5.68-3.76Z"></path><path class="cls-3" d="M593.64,155.76c2.82,0,5.87.06,5.71,3.77s-3.27,3.49-6,3.48q-22.49,0-45,0h-44.5c-2.68,0-5.88.34-5.94-3.51s3-3.75,5.76-3.75Q548.65,155.78,593.64,155.76Z"></path><path class="cls-3" d="M590.7,354.29c2.52.73,3.16,2.59,2.45,5.09-2.47,8.61-5.24,17.12-8.49,25.47-.72,1.87-1.8,3.14-4.12,3.26-2.35-.75-4-2.1-2.95-5,3.12-8.57,6.18-17.16,8.61-26C586.79,355,588.34,353.6,590.7,354.29Z"></path><path class="cls-3" d="M570.87,407.16a3.31,3.31,0,0,1,1.62,4.65,233.84,233.84,0,0,1-14.35,25,3.48,3.48,0,0,1-3,1.55A3.54,3.54,0,0,1,552,433.1c4.6-8.25,9.4-16.39,14.2-24.53C567.24,406.79,568.9,406.1,570.87,407.16Z"></path><path class="cls-3" d="M554.89,204.67c.1,3.43-2.51,3.74-5.22,3.74q-23.4,0-46.81,0c-2.5,0-4.93-.29-5-3.45-.07-3.46,2.53-3.76,5.21-3.75,8,0,15.94,0,23.9,0h22.41C552,201.21,554.78,201.2,554.89,204.67Z"></path><path class="cls-3" d="M539.8,454.4a3.36,3.36,0,0,1,2.27,3.5,5.46,5.46,0,0,1-1.79,3.47c-5.59,6.36-11.24,12.67-16.86,19-1.71,1.92-3.77,3.23-6,1.27-2.55-2.23-1-4.37.79-6.39q8.49-9.45,16.84-19C536.37,454.71,537.83,453.78,539.8,454.4Z"></path><path class="cls-3" d="M495.82,625.39c5.26,2.82,9,11,8.07,17.15-.32,2.17-1.48,2.21-3.07,2.19-3.49,0-7,0-10.47,0v0c-3,0-6,.22-9-.06-4-.37-4,1.56-3,4.46,1.71,5,5.35,7.43,10.39,8a21.79,21.79,0,0,0,9.35-1.06c1.8-.59,2.71-.52,3.15,1.56.36,1.67.37,2.65-1.49,3.51-8.24,3.81-20.7,1.16-25.51-5.59-5.31-7.47-4.07-20.76,2.56-27.27C481.56,623.63,490.09,622.33,495.82,625.39Zm-2.59,14.09c3.66.35,4.38-1.23,3.22-4.35s-3.09-5.48-6.56-6.1a9.21,9.21,0,0,0-9.58,3.86c-1.31,1.74-2.81,3.93-2,5.83.7,1.68,3.27.5,5,.69a35,35,0,0,0,4,0C489.26,639.44,491.26,639.29,493.23,639.48Z"></path><path class="cls-3" d="M501.53,495.76c1.26,1.41,1.56,3.26.15,4.51a172.18,172.18,0,0,1-24.31,18.16,3.93,3.93,0,0,1-.95.32,3.65,3.65,0,0,1-3.49-2.35,3.27,3.27,0,0,1,.95-4.06q11.55-8.69,23.18-17.26C498.62,493.93,500.28,494.36,501.53,495.76Z"></path><path class="cls-3" d="M493.8,389.33c2.66,0,4.7,1.15,4.66,4s-1.81,4.15-4.6,4.13c-.5,0-1,0-1.5.06-3.63.21-8.38-1.54-10.61.7s-1.79,6.87-2.57,10.44c-1.72,7.8-3.48,15.59-5.18,23.4-.67,3.09-.84,6.79-5.11,6.82-4.72,0-5.12-3.81-5.69-7.34q-4.72-29.08-9.5-58.13l-.45-.16c.09.1.27.21.25.29q-4.42,23.78-8.88,47.56c-.59,3.12-1,6.67-5.19,6.83-4.43.17-5.19-3.31-5.94-6.69-2.17-9.87-4.4-19.74-6.74-30.2-1.38,4.16-2.72,7.69-3.7,11.33-1.29,4.8-4.25,6.74-9.15,6.52-5.65-.26-11.33-.05-17-.28-2.79-.1-3.79.74-3.71,3.65.19,7.66.1,15.33.07,23-.14,32.24-22.58,58.62-54.42,63.69-3.63.58-4.58,1.84-4.53,5.37q.29,23,0,46c0,3.28.9,4.21,4.17,4.15,11.16-.19,22.32,0,33.49-.09,2.89,0,5.76.17,5.57,3.89-.16,3.3-2.95,3.46-5.6,3.46q-49.49,0-99,0c-2.73,0-5.86.1-5.76-3.74s3.12-3.61,5.89-3.6c9.83,0,19.66-.11,29.49.1,3.17.07,3.92-1,3.89-4-.13-15.67-.16-31.33,0-47,0-3-.92-3.92-3.79-4.41-33.74-5.78-55.19-31.28-55.26-65.5,0-6.83-.33-13.68.1-20.49.26-4.11-1.38-4.62-4.79-4.47-5.65.26-11.33,0-17,.22-4.14.13-6.56-1.75-7.77-5.58s-2.5-7.59-4-12.1c-2,9-3.92,17.34-5.82,25.73-.44,1.95-.9,3.89-1.32,5.85-.65,3.06-2.12,5.42-5.6,5.22-3.21-.19-4.36-2.57-4.88-5.43-1.7-9.34-3.48-18.66-5.19-28-1.34-7.31-2.64-14.63-4-22l-6.53,39.56c-1.2,7.22-2.47,14.44-3.54,21.69-.45,3.1-2,5-5,5.14-3.37.19-4.45-2.29-5.05-5.1-2.33-10.9-4.8-21.78-6.92-32.73-.57-2.9-1.6-3.89-4.52-3.61a71,71,0,0,1-9,0c-2.74-.1-4.44-1.58-4.33-4.39.1-2.65,2-3.73,4.43-3.78,5.16-.09,10.33-.06,15.49,0a4.3,4.3,0,0,1,4.62,3.71c1.55,7.75,3.09,15.5,4.74,23.76,2.16-13.08,4.27-25.82,6.36-38.56q2-12.33,4-24.66c.51-3.11,1.27-6.23,5.21-6.09,3.57.14,4.33,3.12,4.86,6L202,407.42c2.13-9.67,4.06-18.48,6.05-27.29.68-3,.92-6.67,5.2-6.84,4-.16,4.58,3.21,5.53,6,2,6,4.13,12,5.93,18,.74,2.53,2,3.4,4.54,3.33,6.66-.19,13.34,0,20-.23,4.66-.16,6.67,1.62,6.56,6.43-.21,9.49-.12,19-.05,28.49a56.76,56.76,0,0,0,56.9,56.84c11.62.05,23.28.84,34.61-3.25a56.84,56.84,0,0,0,37.78-53c0-9.66.12-19.33,0-29-.08-4.74,2-6.64,6.6-6.5,6.49.2,13,0,19.49.28,3.1.14,4.42-1,5.27-3.86,1.85-6.22,4-12.36,6-18.52.86-2.61,1.82-5.19,5.25-5s4.22,2.67,4.82,5.42c2.05,9.26,4.15,18.52,6.43,28.66,3.41-18.65,6.66-36.33,9.89-54,.54-2.93,1.41-5.84,5-5.88,3.91,0,4.59,3.1,5.1,6.22q4.88,29.83,9.8,59.66c.18,1.12.44,2.23.64,3.25,1.5-7.62,3-15.24,4.5-22.86.55-2.82,2-4.46,5.07-4.44C483.8,389.34,488.8,389.29,493.8,389.33ZM323.22,554.2c3,0,4-.62,3.94-3.81-.24-7.65-.08-15.31-.07-23v-18c0-9.38,0-9.24-9.31-9.33-3.16,0-4.24.68-4.19,4.06.2,13.48.08,27,.08,40.45C313.67,554.31,313.68,554.18,323.22,554.2Z"></path><path class="cls-3" d="M488.24,168.64c.78,32.06-25.19,59-57.78,59.92-31.93.91-59.62-25.13-60.35-56.74-.77-33.27,24.56-60.69,56.68-61.38C460.61,109.72,487.42,135.11,488.24,168.64Zm-15.83,29.11a51.69,51.69,0,0,0-59.78-77.28c-21.19,7.21-35.12,26.67-35.1,46-.08,13.63,3,23.33,9,32.09.73,1.08,1,2.75,3.29,1.62,5.59-2.73,11.87-3.16,17.81-4.76s6.39-4,3-9.23c-3.74-5.74-7.35-11.53-9.17-18.46-1.67-6.3.71-11.82,1.38-17.62,1.67-14.45,15.16-23.87,29.59-21.45,7.27,1.22,13.42,4.4,17.45,10.54,5.22,7.94,5.41,17.3,5.32,26.3-.07,8.28-5.64,14.6-10.24,21-3.33,4.63-2.44,7.59,3,8.79,6.17,1.35,12.75,1.35,18.43,4.19C469.61,201.17,470.72,200.37,472.41,197.75Zm-10.24,11.43c.69-.64,1.94-1.06,1.7-2.23-.29-1.41-1.81-1.36-2.81-1.57-5.69-1.21-11.46-2.06-17.11-3.42-7.25-1.74-11.76-11.43-7.1-17,3.89-4.65,6-10.15,9.41-15,1.61-2.26,3.31-5.89.56-9.17-1.18-1.41-.55-3.14-.34-4.8.93-7.45-1.48-13.68-8-17.48-6.82-4-14.15-4-20.85.31-6.33,4-8.64,10.32-7.63,17.73.19,1.32.94,2.87-.13,3.79-2.5,2.14-1.89,5-.67,6.72,3.33,4.9,3.78,11.15,8,15.61A11.61,11.61,0,0,1,411.53,202c-5.77,1.56-11.62,2.81-18,4.33a12.52,12.52,0,0,0,1.09,1.62C412.14,225.15,444.08,225.72,462.17,209.18Z"></path><path class="cls-4" d="M469.74,137.44a51.85,51.85,0,0,1,2.67,60.31c-1.69,2.62-2.8,3.42-6.06,1.78-5.68-2.84-12.26-2.84-18.43-4.19-5.44-1.2-6.33-4.16-3-8.79,4.6-6.41,10.17-12.73,10.24-21,.09-9-.1-18.36-5.32-26.3-4-6.14-10.18-9.32-17.45-10.54-14.43-2.42-27.92,7-29.59,21.45-.67,5.8-3.05,11.32-1.38,17.62,1.82,6.93,5.43,12.72,9.17,18.46,3.4,5.21,2.84,7.65-3,9.23s-12.22,2-17.81,4.76c-2.3,1.13-2.56-.54-3.29-1.62-6-8.76-9.05-18.46-9-32.09,0-19.37,13.91-38.83,35.1-46A52,52,0,0,1,469.74,137.44Z"></path><path class="cls-3" d="M464.1,39c2.46,1.3,4.32,3,2.51,5.9-1.62,2.58-3.81,1.67-6.07.43q-11.16-6.09-22.47-11.88c-2-1-3.34-2.3-2.87-4.61.37-1.83,1.69-2.79,4.16-2.67a18.24,18.24,0,0,1,2.3.91Q452.9,33,464.1,39Z"></path><path class="cls-3" d="M463.55,624.67c1.82.41,3.44.81,2.5,3.62-.79,2.38-1.55,2.42-3.8,1.91-11.52-2.6-19,3.86-17.86,15.06.93,8.76,7.73,13.23,16.92,11.27,1.62-.34,3.88-2.72,4.71,1.46.72,3.64-1.76,3.41-3.61,3.87-14.81,3.68-26.57-5.06-25.46-19.65C437.84,630.4,446,623.64,459,624,459.62,624,461.61,624.24,463.55,624.67Z"></path><path class="cls-2" d="M463.87,207c.24,1.17-1,1.59-1.7,2.23-18.09,16.54-50,16-67.52-1.2a12.52,12.52,0,0,1-1.09-1.62c6.35-1.52,12.2-2.77,18-4.33a11.61,11.61,0,0,0,5.67-19.31c-4.23-4.46-4.68-10.71-8-15.61-1.22-1.77-1.83-4.58.67-6.72,1.07-.92.32-2.47.13-3.79-1-7.41,1.3-13.68,7.63-17.73,6.7-4.3,14-4.27,20.85-.31,6.53,3.8,8.94,10,8,17.48-.21,1.66-.84,3.39.34,4.8,2.75,3.28,1.05,6.91-.56,9.17-3.43,4.8-5.52,10.3-9.41,15-4.66,5.57-.15,15.26,7.1,17,5.65,1.36,11.42,2.21,17.11,3.42C462.06,205.59,463.58,205.54,463.87,207Z"></path><path class="cls-3" d="M454.92,530.15c.38,1.85-1,2.59-2.31,3.32-7.78,4.16-15.8,7.8-23.92,11.23-2.23.94-4.43,1.09-5.56-1.4-1.23-2.7.27-4.3,2.8-5.36,8-3.33,15.81-7,23.5-11C453,525.05,455.2,526.47,454.92,530.15Z"></path><path class="cls-3" d="M429.58,614c.15,2.9-1.45,4.24-4.24,4.61-2.37-.42-4.44-1.37-4.5-4.26s2.09-4.09,4.48-4.24A3.76,3.76,0,0,1,429.58,614Z"></path><path class="cls-3" d="M425.28,625c2.75,0,3.78.63,3.64,3.55-.24,5-.06,10-.06,15,0,4.82-.14,9.64.05,14.46.14,3.43-1.82,4-4.54,4.23-3.64.29-2.43-2.39-2.44-4-.08-9.81.06-19.62-.09-29.43C421.81,626.1,422.28,625,425.28,625Z"></path><path class="cls-3" d="M413.53,15.52a3.28,3.28,0,0,1,2.25,4.36,3.33,3.33,0,0,1-4.67,2.4q-13.22-4.39-26.73-7.81a3.35,3.35,0,0,1-2.57-4.22c.52-2.4,2.32-3,4.12-2.84A275.87,275.87,0,0,1,413.53,15.52Z"></path><path class="cls-3" d="M412.86,643c0,12.53-6.61,19.91-17.8,19.86-10.25,0-18.27-8.4-18.27-19,0-11.53,8.13-20.12,18.94-20C406.75,623.8,412.86,630.66,412.86,643Zm-9.23,10a17.48,17.48,0,0,0,2.85-10.41,17.29,17.29,0,0,0-2.7-9,10.07,10.07,0,0,0-16.26-.76,16.61,16.61,0,0,0-.12,20.65A10,10,0,0,0,403.63,653Z"></path><path class="cls-3" d="M378.19,337.66c.14,15.84,0,31.67,0,47.5h0c0,15.5,0,31,0,46.49-.11,31-23.49,54.05-54.55,54.4-13.63.15-26.61-1.45-38-9.63-14.59-10.5-22.8-24.74-23-42.74-.36-32.16-.53-64.33,0-96.49.39-23.26,11.49-40.85,32.37-51.2,20.53-10.18,40.88-8.35,59.48,5C370.24,302.3,378,318.24,378.19,337.66ZM360.94,460.23c8.37-10.81,10.21-23.21,9.37-36.36,0-4.16-.12-8.32,0-12.48.11-2.77-.36-4.06-3.74-4q-46.19.21-92.39,0c-2.75,0-3.8.63-3.73,3.56.2,8.15,0,16.32.14,24.47.16,7.48,2.65,14.31,6.37,20.76,14.9,25.82,50.42,26,68.74,16.76A44.45,44.45,0,0,0,360.94,460.23ZM365.77,400c2.23,0,4.63.7,4.57-3.21-.07-3.64-2.33-2.93-4.34-2.93q-45.64,0-91.29,0c-2.09,0-4.18-.58-4.29,3-.11,4.05,2.44,3.11,4.56,3.11q22.69,0,45.39,0Zm1.05-13.66c2.49,0,3.5-.53,3.47-3.29-.16-16.49.3-33-.29-49.48-.78-21.89-17.76-40.51-40.09-45-21.35-4.29-44,6.76-53.83,26.79h10.47c3.34,0,6.67.07,10,0,2.7-.07,4.82.81,4.87,3.72s-2.14,3.85-4.78,3.85h-15c-10.25,0-10.29,0-11,10.31,0,.5,0,1-.06,1.49-.38,2.49.37,3.52,3.17,3.44,7.16-.2,14.33,0,21.5-.06,2.65,0,4.88.71,4.84,3.69s-2.19,3.8-4.87,3.78c-5.5-.05-11,0-16.5,0-9.08,0-8.94,0-8.87,9.19,0,3,1,3.57,3.72,3.5,7-.16,14,0,21-.06,2.65,0,5.44.07,5.53,3.46.1,3.56-2.69,4.13-5.59,4.13-6.67,0-13.34.12-20-.05-2.85-.08-4.25.46-4,3.76a121.41,121.41,0,0,1,0,13.49c-.12,2.63.74,3.39,3.35,3.39Q320.33,386.23,366.82,386.34Z"></path><path class="cls-3" d="M367.89,615.55c1.59-5.31,4.32-6.29,9.32-5-5.87,16.39-11.73,32.63-17.51,48.9-1.14,3.21-3.75,2.47-6.14,2.82-2.83.41-2.74-1.67-3.27-3.28q-7.87-24.15-15.73-48.33c5.23-1.75,7.75-.26,9.24,5.2,3.4,12.44,7.59,24.66,11.55,37.23C359.63,640.41,364.15,628.1,367.89,615.55Z"></path><path class="cls-4" d="M370.31,423.87c.84,13.15-1,25.55-9.37,36.36a44.45,44.45,0,0,1-15.2,12.68C327.42,482.12,291.9,482,277,456.15c-3.72-6.45-6.21-13.28-6.37-20.76-.18-8.15.06-16.32-.14-24.47-.07-2.93,1-3.57,3.73-3.56q46.2.13,92.39,0c3.38,0,3.85,1.27,3.74,4C370.19,415.55,370.31,419.71,370.31,423.87ZM358.69,458c9.63-12.41,7.85-27,7.7-41.2a3.43,3.43,0,0,0-4.06-3.47c-2.3.25-3.39,1.83-3.36,4.18,0,3.33,0,6.65,0,10,0,25.08-7.83,34.69-32.06,39.15-2.53.46-4.11,1.63-3.74,4.25s2.37,3.33,4.81,3.22C340.75,473.57,350.9,468.07,358.69,458Z"></path><path class="cls-4" d="M370.29,383.05c0,2.76-1,3.3-3.47,3.29q-46.49-.1-93,0c-2.61,0-3.47-.76-3.35-3.39a121.41,121.41,0,0,0,0-13.49c-.21-3.3,1.19-3.84,4-3.76,6.66.17,13.33,0,20,.05,2.9,0,5.69-.57,5.59-4.13-.09-3.39-2.88-3.48-5.53-3.46-7,.05-14-.1-21,.06-2.7.07-3.7-.53-3.72-3.5-.07-9.18-.21-9.18,8.87-9.19,5.5,0,11,0,16.5,0,2.68,0,4.82-.89,4.87-3.78s-2.19-3.71-4.84-3.69c-7.17,0-14.34-.14-21.5.06-2.8.08-3.55-.95-3.17-3.44.07-.49,0-1,.06-1.49.7-10.27.74-10.31,11-10.31h15c2.64,0,4.83-.91,4.78-3.85s-2.17-3.79-4.87-3.72c-3.33.09-6.66,0-10,0H276.08c9.8-20,32.48-31.08,53.83-26.79,22.33,4.49,39.31,23.11,40.09,45C370.59,350,370.13,366.56,370.29,383.05Z"></path><path class="cls-3" d="M366.39,416.82c.15,14.22,1.93,28.79-7.7,41.2-7.79,10.05-17.94,15.55-30.7,16.11-2.44.11-4.44-.6-4.81-3.22s1.21-3.79,3.74-4.25C351.15,462.2,359,452.59,359,427.51c0-3.33,0-6.65,0-10,0-2.35,1.06-3.93,3.36-4.18A3.43,3.43,0,0,1,366.39,416.82Z"></path><path class="cls-3" d="M356.8,2.14c2.37.25,4.37,1.1,4.08,3.93-.3,3.06-2.47,3.47-5.1,3.23-8.55-.76-17.11-1.47-25.67-2.08-2.44-.17-4.45-.78-4.44-3.55,0-3,2.15-3.76,4.8-3.66,2,.07,4,0,5.88,0C343.25.74,350,1.43,356.8,2.14Z"></path><path class="cls-3" d="M315.49,658.11c0,1.91.7,4-2.69,3.9-2.7-.08-4.09-.67-3.74-3.58,0-.38-.27-.8-.44-1.26-8.69,7.11-16.36,7.49-22.71,1.25-7.1-7-7.55-21-.94-28.88,5.69-6.83,14.15-7.56,23.18-1.59,0-5.58,0-10.82,0-16.05,0-2.46-.65-4.78,3.54-4.78,3.94,0,3.75,1.91,3.74,4.58C315.41,627.17,315.46,642.64,315.49,658.11Zm-7.66-18c1.2-5.34-3.21-9.78-7.55-10.66-4.81-1-9.49,1.61-11.46,6.71-2.14,5.55-2,11.1,1.05,16.34,2.07,3.55,5.48,4.82,9.36,4.41a9.1,9.1,0,0,0,8.32-6.87c.6-2.16.11-4.62.11-6.94h.14A13.56,13.56,0,0,1,307.83,640.15Z"></path><path class="cls-3" d="M304.4,3.81c.28,3.25-2.21,3.84-5,4.12-7.92.81-15.83,1.82-23.73,2.85-2.94.38-6.23.72-6.71-3-.45-3.49,2.89-4,5.53-4.32,8.06-1.09,16.14-2.08,24.21-3.11C301.38.32,304.13.54,304.4,3.81Z"></path><path class="cls-3" d="M300.7,239.81c0,4.75-1.82,6.46-6.57,6.37-11.82-.23-23.65,0-35.48-.1a13.27,13.27,0,0,0-7.09,1.8q-54.23,31.69-108.5,63.32c-3.82,2.23-7.64,3.67-12.22,3.4-6-.34-12,0-18-.12-6.83-.15-7.73-1.14-7.73-7.85V193.18q0-57,0-114c0-6.43.43-6.18,6.78-6.92,17.69-2,32.62,3.5,47.65,12.81,30.07,18.63,61.18,35.57,91.82,53.28a13.32,13.32,0,0,0,7.07,1.85c12-.07,24,.08,36-.09,4.52-.07,6.26,1.74,6.25,6.2Q300.57,193.09,300.7,239.81Zm-19.92-75.69c12.37,0,12.26,0,12.2-12.41,0-3-.6-4.05-3.79-3.92-6.63.26-13.28.07-19.92.07-12.78,0-12.69,0-12.46,12.65.05,2.73.61,3.83,3.56,3.68,4.8-.24,9.63-.06,14.44-.07ZM293,175c.27-3.31-1.12-3.85-4-3.75-6,.2-12-.07-18,.1-4.6.13-10.88-2.06-13.31,1-2.31,2.87-.58,8.9-.85,13.52-.16,2.72.58,3.86,3.53,3.72,4.82-.23,9.65-.07,14.48-.06,1.33,0,2.67.08,4,0,4.58-.32,10.85,2.07,13.28-1C294.41,185.62,292.6,179.6,293,175Zm-12.28,63.47c12.78,0,12.7,0,12.27-12.84-.08-2.59-.73-3.44-3.38-3.38-6.82.18-13.64.06-20.46.06-12.86,0-12.86,0-12.25,12.89a4.17,4.17,0,0,1,0,.5c-.3,2.21.76,2.84,2.86,2.8,5-.11,10,0,15,0Zm12.22-38.62c.37-2.49-.84-3.06-3.13-3-6.31.13-12.62-.1-18.92.09-4.57.15-11-2.14-13.21,1s-.56,9.23-.83,14c-.16,2.73.93,3.38,3.45,3.29,4.81-.17,9.62-.05,14.44-.06,1.32,0,2.66.06,4,0,4.59-.24,10.76,2,13.37-.86,2.8-3.05.58-9.16.84-13.93A4,4,0,0,1,292.91,199.83ZM249.69,152c0-4.31-1.42-6.49-4.95-8.52-26.08-15-52.06-30.19-78.08-45.32L140,82.7V303.25a13,13,0,0,0,2-.73q52.38-30.47,104.79-60.89c2.54-1.48,2.74-3.28,2.73-5.7C249.55,208,249.44,180,249.69,152ZM127.37,306.84c4.32.45,5.17-1.23,5.15-5.23-.14-36-.08-71.94-.09-107.9q0-49.71,0-99.41c0-4.64,1.53-10.8-.82-13.52-2.72-3.15-9.09-.48-13.81-1.11-4.52-.6-5.39,1.18-5.39,5.47q.21,108.15.1,216.3c0,.83.08,1.67,0,2.49-.22,2.19.76,2.93,2.89,2.87A90.35,90.35,0,0,1,127.37,306.84Z"></path><path class="cls-3" d="M272.38,659.75c.09,3.12-2.39,2-4,2.15-1.9.24-3.21-.11-3.16-2.54.11-5.16,0-10.32,0-15.48,0-1.66,0-3.33-.08-5-.37-6.12-3.17-9.19-8.27-9.15a9.26,9.26,0,0,0-9.24,9.2c-.26,5.65.1,11.32-.2,17-.12,2.34,2.21,6.24-3.51,6.13-5.3-.11-3.22-3.67-3.28-5.91-.25-9.31-.18-18.63-.28-28,0-1.79-.74-3.7,2.34-3.74,2.53,0,4.3.23,4,3.36,0,.4.25.83.5,1.57,1.15-1,2.06-1.94,3.09-2.71,8.43-6.35,19.72-2.18,21.54,8.18C273.26,643.07,272.16,651.44,272.38,659.75Z"></path><path class="cls-4" d="M244.74,143.46c3.53,2,5,4.21,4.95,8.52-.25,28-.14,56-.1,84,0,2.42-.19,4.22-2.73,5.7Q194.39,272,142.07,302.52a13,13,0,0,1-2,.73V82.7l26.62,15.44C192.68,113.27,218.66,128.45,244.74,143.46Z"></path><path class="cls-3" d="M248.52,12.79a3.31,3.31,0,0,1-2.31,4.34q-13.44,4.53-26.92,8.92a3.21,3.21,0,0,1-4.36-2.2c-.61-1.77-.19-3.55,1.55-4.27a222.73,222.73,0,0,1,27.78-9.39C246.7,10.1,248,11,248.52,12.79Z"></path><path class="cls-3" d="M231,544.17c1.88.77,2.93,2.3,2.16,4.39s-2.26,2.77-4.48,2.42a230.25,230.25,0,0,1-27.07-11,3.08,3.08,0,0,1-1.4-4.28c.86-1.95,2.47-2.82,4.47-2Q217.9,538.8,231,544.17Z"></path><path class="cls-3" d="M229.86,639.54c.06,6,.21,12,.12,18,0,1.53,2.27,4.18-1.62,4.43-2.64.16-5.09.18-4.52-4.35-3.06,2.63-5.4,4.1-8.23,4.77-6.23,1.48-12.14-1.14-14.12-6.35-2.14-5.65.24-11.77,5.85-14.84a25.8,25.8,0,0,1,13-2.95c2.81,0,2.95-1.22,2.46-3.34-1-4.2-4.37-6.36-9.64-5.78a21,21,0,0,0-5.74,1.55c-1.69.71-2.7.83-3.32-1.23-.51-1.67-.33-2.54,1.41-3.5C217.81,619.09,229.73,625.7,229.86,639.54Zm-14.54,17.84c5-.57,7.48-3.88,7.47-10.27-1.37-.73,2-3.9-1.76-4s-7.34.36-10.39,2.56a6.49,6.49,0,0,0-2.3,8.36C209.62,657.05,212.28,657.72,215.32,657.38Z"></path><path class="cls-3" d="M194.76,623.8c1.73-.13,3.24.19,2.76,2.3-.33,1.44,1.6,3.6-1.57,4.33-7.86,1.81-9.81,4.26-10,12.21-.14,5-.06,10,0,15,0,2.32.56,4.44-3.31,4.44-3.6,0-3.54-1.64-3.52-4.23.07-9.32-.11-18.64,0-28,0-1.79-1.89-4.65,2.53-4.9s3.14,2.59,3.59,5.86C187.94,626.74,190.56,624.09,194.76,623.8Z"></path><path class="cls-3" d="M195.7,33A3.34,3.34,0,0,1,194,37.64c-8.06,4.26-16,8.77-23.65,13.73a8.6,8.6,0,0,1-2,.78,3.64,3.64,0,0,1-3.76-2.44c-.83-2.15.44-3.55,2-4.56,4.63-2.91,9.3-5.76,14-8.51,3.3-1.92,6.68-3.69,10.09-5.41A3.35,3.35,0,0,1,195.7,33Z"></path><path class="cls-3" d="M179.38,520.11c2.15,1.37,3.33,3,2.15,5.32s-3.32,2.44-5.52,1.15a264.4,264.4,0,0,1-22.86-15.07c-1.39-1-2.39-2.32-1.8-4.26.5-1.64,1.69-2.38,3.62-2.8a28.88,28.88,0,0,1,2.76,1.44C165,510.62,172.11,515.45,179.38,520.11Z"></path><path class="cls-3" d="M161,634.11c5.72,2.65,9.72,6.49,9.58,13.25-.15,6.46-4,11.52-10.57,13.53s-13.15,1.44-19.79,1.13c-2-.1-2.42-1.08-2.41-2.88.05-15.28.07-30.57,0-45.86,0-2.18.81-2.87,2.85-3,4.63-.38,9.24-1,13.91-.37,5.7.74,11,2.33,13.17,8.23C169.88,624.19,167.51,629.24,161,634.11Zm-5.1,22.06c5.48-1.58,8.28-6,7.13-11.37s-7.17-8.51-15.53-7.63c-6.06.64-1.28,5.61-2.78,8.18-.14.24,0,.65,0,1C144.67,657.49,146.3,658.92,155.87,656.17Zm-.18-25.12c3.88-1.36,6.09-4.18,5.9-8.27-.18-3.92-2.56-6.2-6.43-7.19-8.72-2.23-10.48-1-10.49,7.81C144.67,632.35,147.11,634.06,155.69,631.05Z"></path><path class="cls-3" d="M134.81,487.07c1.88,1.67,2.51,3.63.62,5.63s-3.79,1.31-5.65-.35a230,230,0,0,1-19-19.07c-1.16-1.31-2-2.62-1.18-4.48a4.14,4.14,0,0,1,3.15-2.22,4.93,4.93,0,0,1,3.41,1.78A230.74,230.74,0,0,0,134.81,487.07Z"></path><path class="cls-3" d="M98.56,447.93a3.65,3.65,0,0,1-2.11,3.62,3.13,3.13,0,0,1-4.08-.78,199.08,199.08,0,0,1-16.19-24.49,3.26,3.26,0,0,1,1.46-4.72,3.46,3.46,0,0,1,4.83,1.23c4.74,8,9.91,15.73,15.33,23.3A7,7,0,0,1,98.56,447.93Z"></path><path class="cls-3" d="M88.74,246.93c0,2-1.37,2.88-2.85,3.74l-56.37,32.9c-2.29,1.34-4.5,1.7-6-1-1.37-2.49.22-4.15,2.2-5.31q28.39-16.61,56.85-33.09C85.85,242.32,88.76,243.79,88.74,246.93Z"></path><path class="cls-3" d="M88.74,139.41c.06,3.32-3,4.6-6.56,2.57-7.35-4.21-14.62-8.56-21.94-12.83l-32.3-18.8c-.86-.5-1.74-1-2.58-1.52-2.08-1.35-3.13-3.15-1.61-5.45,1.34-2,3.37-2,5.3-.84q28.84,16.8,57.68,33.66A3.7,3.7,0,0,1,88.74,139.41Z"></path><path class="cls-3" d="M88.65,193.15c0,3.34-2.59,3.74-5.32,3.73-9.33,0-18.67,0-28,0-8.83,0-17.66,0-26.5,0-2.87,0-5.76-.25-5.62-3.93.13-3.34,2.92-3.48,5.57-3.48q27.26,0,54.5,0C86,189.47,88.63,189.8,88.65,193.15Z"></path><path class="cls-3" d="M69.66,398.51a4.65,4.65,0,0,1,.16,1,3.39,3.39,0,0,1-2.4,3.42c-1.8.57-3.49.16-4.3-1.54a217.8,217.8,0,0,1-10.85-27.32c-.63-2,.42-3.58,2.52-4.21a3.16,3.16,0,0,1,4.15,1.82C62.59,380.59,66.11,389.56,69.66,398.51Z"></path><path class="cls-3" d="M51.52,345.25a3.3,3.3,0,0,1-2.62,4.18c-2.41.62-3.9-.58-4.45-2.81a234.22,234.22,0,0,1-5-28c-.15-2.14.79-3.65,2.87-4a3.39,3.39,0,0,1,4.25,3.15Q48.54,331.62,51.52,345.25Z"></path></svg>