<svg xmlns="http://www.w3.org/2000/svg" id="Layer_1" data-name="Layer 1" viewBox="0 0 658.26 719.47"><defs><style>.cls-1{fill:#30b9ff;}.cls-2{fill:#fff;}.cls-3{fill:#ade5fe;}.cls-4{fill:#011a57;}</style></defs><title>brand-advocate-concept-icon-referral-marketing-vector-29127080-1-1</title><circle class="cls-1" cx="333.54" cy="298.44" r="224.87"></circle><path class="cls-1" d="M523.64,389.53V423l-5.22.27V389.53Z"></path><path class="cls-2" d="M579,98c1.07.12,2.85,2.35,2.73,3.43-2.06,17.82-4.25,35.63-6.7,53.4-.73,5.3-5.19,1.39-8.12,3.5V97.84A117.68,117.68,0,0,1,579,98Z"></path><path class="cls-2" d="M478.91,169C491,169,503.09,169,516,169c-1.85,5.16-3.25,9.55-5.05,13.77a4.65,4.65,0,0,1-3.31,2.42c-5,.29-7.69,3.19-9.93,7.23-8.49,15.27-17.14,30.45-25.67,45.7-2,3.58-4.31,8.09-8.81,6.37-4.68-1.79-8.9-5.37-12.54-9-1-1,.06-5.15,1.24-7.27q7.51-13.52,15.75-26.63c3.45-5.47,3.81-10.57-.36-15.61-2.89-3.49-1.86-5.62,1.56-8,3-2.14,5.44-5.14,8.16-7.71C477.56,169.73,478.28,169,478.91,169Z"></path><path class="cls-2" d="M600,386.63c.15.69-1.78,1.82-2.75,2.77-1.46,1.43-2.9,2.88-4.35,4.32,1.64,1,3.34,1.95,4.91,3.06s2.78,2.23,4.17,3.36a28.42,28.42,0,0,1-4.26,3.32c-.92.49-2.53-.25-3.4.28-1.36.83-3,2.13-3.29,3.5-.21.92,1.56,2.4,2.6,3.48,1.4,1.47,3,2.81,4.44,4.2-2,1.14-3.92,2.25-5.84,3.44-1.65,1-3.23,2.13-4.84,3.2l4.05,4c1.13,1.14,2.25,2.29,3.37,3.43-1.27,1.11-2.58,3.23-3.8,3.18-16.43-.67-33.41,3.49-48.91-5.77-3-1.81-6.9-2.22-10.83-3.41,0-10.53-.06-21.17.11-31.8,0-1.05,1.37-2.26,2.37-3.06,2.78-2.24,6.15-3.91,8.47-6.53,6.17-7,12.1-14.18,17.72-21.6,2.48-3.27,3.83-7.37,6-10.92.79-1.32,2.39-2.15,3.62-3.2.88,1.61,2.76,3.43,2.47,4.8a81,81,0,0,1-4.24,13.76c-1.5,3.68-3.89,7-5.62,10.57-2.24,4.65-.43,7.45,4.72,7.47,8.82,0,17.65,0,26.47,0,1.32,0,2.9-.1,3.9.55A6.51,6.51,0,0,1,600,386.63Z"></path><path class="cls-2" d="M650.86,362.22c.06,19.65.44,39.31,0,58.95a51.88,51.88,0,0,1-4.11,18.24c-2.77,6.68-8.71,10.5-16.13,10.89-4.37.23-5.71,2.16-5.63,6.29.18,9.32.07,18.65,0,28,0,1.58-.18,3.16-.35,5.94-6.74-5.76-12.63-10.77-18.48-15.83-8.3-7.19-16.47-14.55-25-21.54a12.15,12.15,0,0,0-7.15-2.52c-23.81-.19-47.63-.11-71.45-.13-19.88,0-31.53-11.77-31.53-31.78V362.25c0-18.52,12-30.64,30.64-30.67q59.22-.06,118.43,0C638.86,331.61,650.81,343.64,650.86,362.22Zm-44,44.66A10.75,10.75,0,0,0,608,394.73c-.56-1.12-1.43-2.38-1.34-3.5,1-12.24-2-15.73-14.45-16-6.92-.16-13.85,0-21.58,0,1.28-2.54,2.42-4.17,3-6,2.06-6.78,4.58-13.51,5.63-20.46.73-4.87-3.5-9.09-8.09-10s-8.88.3-10.59,4.61c-4.15,10.48-11.8,18.35-18.27,27.19-6.06,8.27-12.86,12.64-23.31,11.78-6-.49-8,2-8,8.1-.06,10.16,0,20.32,0,30.48,0,8.25,1.58,9.8,10.06,9.59,8.1-.2,15.71,1,23.18,4.72a43.7,43.7,0,0,0,16.28,4.15,239.83,239.83,0,0,0,30.45,0c3.32-.21,8.49-2.57,9.31-5.09,2.26-6.9,3.62-14.18,5.18-21.35.07-.3-.18-.68-.1-1C605.71,410.25,605.82,408.23,606.83,406.88Z"></path><path class="cls-2" d="M214.84,418.61c-.48,4.93-2.63,7.2-7.59,7.4-7.81.32-15.62,1.14-23.38,2.18-2.1.29-5.27,1.83-5.64,3.36-.42,1.72,1.35,4.48,2.91,6.07,3.79,3.86,8,7.31,13.11,11.88-10.35-1-19.26-1.76-28.1-2.9-1.31-.17-2.83-2.08-3.47-3.53-4.85-11-9.35-22.08-14.33-33-.93-2-3.52-4.64-5.3-4.6s-4.27,2.67-5.23,4.73c-5,10.72-9.68,21.58-14.27,32.48-1.11,2.61-2.48,3.91-5.43,4.1-7.8.5-15.58,1.32-23.93,1.15,4.48-4,9.15-7.82,13.37-12.1,1.64-1.66,3.24-4.47,3-6.51-.16-1.29-3.72-2.79-5.9-3.07-9.08-1.17-18.24-1.77-27.33-2.93-2.12-.27-4.08-1.9-6.12-2.9.27-.69.53-1.37.8-2.05,8.71-2.09,17.46-4.05,26.14-6.29,12.92-3.34,16.87-8.55,17.09-22,0-1.27.18-2.54.27-3.85,25.4,6.52,25.4,6.52,48.64-.1,0,1.91,0,3.63,0,5.34.06,11.45,4.73,17.64,16,20.22,9.9,2.25,19.93,3.92,29.89,5.86C211.66,417.9,213.26,418.27,214.84,418.61Z"></path><path class="cls-2" d="M195.36,318.09c-1.26,6.08-2.34,11.9-3.67,17.65-.95,4.07,0,9.33-6.44,10.31-.93.15-1.61,3-2.12,4.73-11.39,37.75-51.37,40-71.76,23.65-7.58-6.05-11.26-14.22-13.42-23.29-.71-3-1.1-5.94-5.1-6.28a3,3,0,0,1-2-1.91c-1.83-8.74-3.51-17.51-5.24-26.27l1.76,0c1.68-1.54,4-2.76,4.93-4.66,4.79-10,8.71-20.44,17.59-28,2.54-2.16,3.93-5.67,5.39-7.87,10.56,2.3,20.65,5,30.93,6.55,7,1,14.27.61,21.39.29,3.08-.13,4.29.54,5.28,3.49a203.61,203.61,0,0,0,7.93,20.41C183.42,312.63,187.66,317.07,195.36,318.09Z"></path><path class="cls-2" d="M242.59,248c51.74,58.33,38.18,136.4,1.75,175-3.39-7.9-6.56-15.78-10.2-23.43-1-2.09-3.24-4.49-5.25-4.86-1.32-.24-3.69,2.66-4.84,4.6-2.26,3.82-3,9.64-6.22,11.47-2.93,1.68-8.26-.71-12.5-1.5-8-1.5-16.06-2.93-24-4.8-7.24-1.7-9.65-5.49-10.06-12.84-.34-6.24.78-11.13,5.71-15.89,4.52-4.37,7.32-10.61,10.52-16.22,2.07-3.64,2.44-8.2,7.17-10.21,1.4-.6,2.28-3.22,2.72-5.07,1.6-6.64,3.48-13.29,4.13-20,.44-4.58-1.08-9.33-1.56-14a57.68,57.68,0,0,1-.29-8.31c.29-7.14,1.66-14.37,1-21.4-2.27-23.67-17.89-40.37-43.52-45.62-10.48-2.15-21.49-2.25-32.25-2.23-9.19,0-16.29,4.9-21.71,12.45a18.36,18.36,0,0,1-7.08,5.6,25.32,25.32,0,0,0-15.18,25.76c.7,9.46,1.62,18.91,2.36,28.37.09,1.22.14,2.94-.57,3.63-4.89,4.8-4.13,10.67-3.18,16.42,1.07,6.4,2.51,12.75,4.07,19,.49,2,1.4,4.74,2.93,5.5,4.23,2.1,4.85,5.92,6.12,9.63a50,50,0,0,0,12.89,20.52c6,5.74,2.71,21.4-5.16,24.28a75.46,75.46,0,0,1-8.67,2.36c-7.6,1.79-15.22,3.52-23.33,5.39-2.79-6.53-5.17-12.58-8-18.4-.81-1.67-3-3.84-4.43-3.74-1.76.12-4.07,2-4.91,3.77-3.57,7.33-6.68,14.89-10,22.36-.65,1.48-1.36,2.93-2.12,4.57C.44,375.27-5.24,294.81,49.7,241.5,104.84,188,192,191,242.59,248Z"></path><path class="cls-3" d="M558.77,91v70.51H545.45V91Z"></path><path class="cls-3" d="M537.44,91v70.56H464.27V91Z"></path><path class="cls-3" d="M302,210.46c0,7.14,0,7.14-7.84,8.56V32.28C302,33.71,302,33.71,302,41Z"></path><path class="cls-3" d="M451.52,87.71c3.7,1.3,5.16,2.9,5.11,7-.24,21.15-.14,42.3-.06,63.46,0,2.92-.38,4.82-3.68,6Q382.38,188.65,312,213.38a20.28,20.28,0,0,1-2.23.48V37.31c8.48,3,16.59,5.79,24.68,8.67Q393,66.88,451.52,87.71Z"></path><path class="cls-3" d="M164.75,244.64c19.93,7.47,31.05,25.75,28.57,46.86-.63,5.41-1.06,10.84-1.72,17.78-2.11-2.82-3.84-4.39-4.64-6.33-2.73-6.6-5.35-13.26-7.59-20-1.94-5.87-4.13-7.91-10-7.29-18.3,1.93-35.88-.49-52.61-8.32-3.2-1.5-5-.55-6.95,2.36-4.07,6-8.78,11.55-13.05,17.42-2.1,2.89-3.81,6.07-6.28,10.06-.83-7.8-1.71-14.56-2.23-21.36-.71-9.14,4.29-16,12.91-19.09a12.82,12.82,0,0,0,6.35-4.83c5.29-8.74,12.83-12.4,22.89-12.43C142.15,239.41,153.66,240.48,164.75,244.64Z"></path><path class="cls-3" d="M99.05,432.91a30.3,30.3,0,0,1-2.65,3.2c-5.5,4.84-10.94,9.77-16.64,14.36-2.88,2.31-3.7,4.76-2.84,8.25,1.63,6.63,3,13.32,4.48,20,.38,1.73.63,3.49,1.09,6.1-7.88-4.7-15.1-8.79-22.06-13.27-3.56-2.29-6.48-2.28-10.06,0C43.36,475.93,36.1,480,28,484.7c2-9.05,3.64-17.15,5.76-25.12,1.15-4.32.17-7.13-3.29-9.95-6.27-5.1-12.15-10.7-19.16-17,8.9-.78,16.58-1.73,24.28-2.06,5.35-.22,8.49-2.26,10.4-7.4,2.7-7.3,6.13-14.34,9.66-22.46,3.61,8.38,7.09,15.73,9.93,23.32,1.73,4.63,4.62,6.31,9.31,6.59C82.67,431.12,90.44,432.08,99.05,432.91Z"></path><path class="cls-3" d="M268.79,435.22c-6.6,5.75-12,10.66-17.65,15.31-2.95,2.44-3.73,5.07-2.79,8.78,1.8,7.07,3.21,14.24,5.05,22.59-7-4.13-13.17-7.47-19-11.36-4.06-2.72-7.36-2.65-11.4,0-5.78,3.83-11.95,7.1-18.92,11.17,1.86-8.12,3.29-15.25,5.16-22.26,1.09-4.09.17-6.89-3.12-9.57-5.53-4.5-10.74-9.4-17-15,8.23-.79,15.38-1.78,22.56-2,4.58-.17,6.89-2.2,8.48-6.21,2.61-6.57,5.58-13,8.87-20.6,3.39,7.92,6.42,14.7,9.17,21.6,1.33,3.33,3.28,5,7,5.2C252.61,433.37,260,434.32,268.79,435.22Z"></path><path class="cls-3" d="M193.29,456.73c1.61.16,3.23.38,5.93.7-9.1,8-17.29,15.44-25.83,22.48-3.47,2.86-4.4,5.73-3.34,10,2.28,9.21,4.21,18.51,6.26,27.77.35,1.58.58,3.19,1,5.65-9.91-5.88-19.24-11-28.11-16.83-4.76-3.13-8.44-3-13.12,0-8.81,5.65-18,10.69-28.25,16.69C110.6,511,112.93,500,115.67,489c1-3.8.08-6.29-2.77-8.76C104.37,472.89,96,465.32,86.63,457c8.29-.8,15.51-2.34,22.65-2,13,.62,21.15-3.95,24.59-17.15,1.86-7.11,5.75-13.68,9.2-21.59,4.41,10.24,8.75,19.35,12.23,28.78,2.23,6,5.28,9.2,12.12,9.34C176.06,454.56,184.67,455.88,193.29,456.73Z"></path><path class="cls-3" d="M499.7,457.76c6.63.15,13.26,0,19.88,0-.12,14.66-13.76,27.36-29.79,27.73-14,.32-28,.09-42,.1-8.66,0-17.35.43-26-.15-6.39-.42-10.95,1.86-15.52,6-11.61,10.5-23.59,20.59-35.43,30.82-1.07.92-2.25,1.7-4.4,3.32V508.19c0-5.67-.1-11.33,0-17,.08-3.69-1.36-5.32-5.19-5.7-12.79-1.27-20.52-9.74-20.6-22.6-.12-21.33-.21-42.66,0-64,.2-18.73,13.68-32,32.44-32.08,28.65-.12,57.31,0,86,0,1.3,0,2.61.14,4.29.24v28H386.48c-1.34,0-2.87-.38-4,.14-1.41.68-2.47,2.1-3.67,3.19,1.21,1.3,2.24,2.92,3.71,3.79,1,.59,2.6.15,3.94.15l70.47,0h6.4v10H386c-1.49,0-3.25-.33-4.41.33s-2.58,2.4-2.53,3.62,1.66,2.63,2.93,3.21,2.95.2,4.45.2h77c.31,3.51.58,6.46.9,10.14H387c-1.67,0-3.49-.31-5,.27-1.27.5-3.09,2.19-3,3.1a6.08,6.08,0,0,0,3,3.72c1.17.64,2.92.22,4.42.22,25.16,0,50.32.05,75.48-.07,3.46,0,5.57.81,7.58,4C476.47,452.11,486.79,457.49,499.7,457.76Zm-58.17-6.54c.56-3.18-2.17-3.88-5-3.88q-26.21,0-52.43,0c-2.66,0-5.29.22-5.26,3.73s2.72,3.64,5.34,3.64q13,0,26,0c8.82,0,17.65.19,26.45-.15C438.39,454.5,441.28,452.63,441.53,451.22Z"></path><path class="cls-4" d="M658.09,360.24c.13,20.66.27,41.32.07,62a52.75,52.75,0,0,1-2.27,14.72c-3.52,11.45-11.42,18.49-23.62,20.83,0,9.81-.08,19.46,0,29.1.05,4-.76,7.45-4.55,9.24s-7.32.63-10.52-2.17c-10.38-9.12-20.83-18.17-31.41-27.05a8.19,8.19,0,0,0-5.42-1.31c-3.72.25-4.84-1.35-4-7.39-1.58-.15-3.13-.41-4.69-.41-13.16,0-26.32.05-39.48-.08-3.06,0-4.58.48-5.33,4-4.06,19.14-18.95,31.05-38.51,31.16-23,.12-46,.12-68.95.37a10.55,10.55,0,0,0-6.1,2.46Q394,511.94,375,528.53c-3.21,2.79-6.42,4.82-10.79,3s-5.19-5.78-5.24-9.91c-.09-8.17-.12-16.33,0-24.49,0-2.7-.58-4-3.48-4.84-14.92-4.48-22.38-14.74-22.4-30.34q-.06-31.23,0-62.47c.07-23.26,16.7-40.05,40-40.17,28.15-.15,56.31-.05,84.46-.05h5.62C467,339,476.59,328,493.14,324.77a44.1,44.1,0,0,1,8.45-.58q57.72,0,115.44.15H623c-.24-.43-.48-.85-.71-1.28l5.89-5,4,6.42-1,.79,3.66,1.42A35.67,35.67,0,0,1,658.09,360.24Zm-7.24,60.93c.45-19.64.07-39.3,0-58.95-.05-18.58-12-30.61-30.68-30.63q-59.2-.09-118.43,0c-18.6,0-30.64,12.15-30.64,30.67v56.46c0,20,11.65,31.76,31.53,31.78,23.82,0,47.64-.06,71.45.13a12.15,12.15,0,0,1,7.15,2.52c8.48,7,16.65,14.35,25,21.54,5.85,5.06,11.74,10.07,18.48,15.83.17-2.78.34-4.36.35-5.94,0-9.33.14-18.66,0-28-.08-4.13,1.26-6.06,5.63-6.29,7.42-.39,13.36-4.21,16.13-10.89A51.88,51.88,0,0,0,650.85,421.17ZM519.58,457.79c-6.62,0-13.25.12-19.88,0-12.91-.27-23.23-5.65-30.15-16.59-2-3.18-4.12-4-7.58-4-25.16.12-50.32.07-75.48.07-1.5,0-3.25.42-4.42-.22a6.08,6.08,0,0,1-3-3.72c-.13-.91,1.69-2.6,3-3.1,1.46-.58,3.28-.27,5-.27h77.4c-.32-3.68-.59-6.63-.9-10.14h-77c-1.5,0-3.19.37-4.45-.2s-2.88-2.07-2.93-3.21,1.32-2.94,2.53-3.62,2.92-.33,4.41-.33h77.39v-10H457l-70.47,0c-1.34,0-2.95.44-3.94-.15-1.47-.87-2.5-2.49-3.71-3.79,1.2-1.09,2.26-2.51,3.67-3.19,1.08-.52,2.61-.14,4-.14h76.94v-28c-1.68-.1-3-.24-4.29-.24-28.66,0-57.32-.1-86,0-18.76.08-32.24,13.35-32.44,32.08-.22,21.32-.13,42.65,0,64,.08,12.86,7.81,21.33,20.6,22.6,3.83.38,5.27,2,5.19,5.7-.13,5.67,0,11.33,0,17V525.6c2.15-1.62,3.33-2.4,4.4-3.32,11.84-10.23,23.82-20.32,35.43-30.82,4.57-4.13,9.13-6.41,15.52-6,8.63.58,17.32.15,26,.15,14,0,28,.22,42-.1C505.82,485.15,519.46,472.45,519.58,457.79Z"></path><path class="cls-4" d="M645.44,692c2.79-.07,4.31.65,4.2,3.93-.22,6.49-.17,13,0,19.49.08,3.13-1.25,4.09-4.18,4-6-.12-12-.18-18,0-3.92.14-5.55-1.35-5.15-5.27.18-1.8,0-3.63,0-5.88H36.52a3.66,3.66,0,0,0-.49,1c-1,10.09-1,10.09-11.38,10.09-4,0-8-.13-12,0-3.06.11-4.13-1.15-4.06-4.15q.22-9.75,0-19.5C8.54,692.9,9.77,692,12.47,692c6,.09,12,.22,18,0,4-.15,6,1,5.49,5.33a46.68,46.68,0,0,0,0,5.71H621.48c.26-.4.57-.66.59-.93.86-10.05.85-10.05,11.37-10.06C637.44,692,641.44,692.09,645.44,692Zm-.73,22.36V697H627.32v17.3Zm-613.86-.17V696.93H13.56v17.24Z"></path><path class="cls-4" d="M631.75,297.78c0,1.63-2,4.41-3.48,4.73-3.1.67-3.53-2.13-3.53-4.63V283.93h-.41c-.36-4.3-1.06-8.62-.9-12.91.06-1.77,2-3.47,3-5.21,1.34,1.54,3.69,3,3.84,4.62C631.13,279.51,631.62,288.65,631.75,297.78Z"></path><path class="cls-4" d="M626.42,239.6c-1.2,1.2-2.3,3.19-3.55,3.28s-3.6-1.38-4-2.61c-2.78-9.59-5.28-19.26-7.57-29-.26-1.11,1.11-3.6,2-3.77,1.39-.27,4.14.63,4.44,1.6C620.85,219,623.49,229,626.42,239.6Z"></path><path class="cls-4" d="M608,394.73a10.75,10.75,0,0,1-1.13,12.15c-1,1.35-1.12,3.37-1.6,5.1-.08.3.17.68.1,1-1.56,7.17-2.92,14.45-5.18,21.35-.82,2.52-6,4.88-9.31,5.09a239.83,239.83,0,0,1-30.45,0,43.7,43.7,0,0,1-16.28-4.15c-7.47-3.72-15.08-4.92-23.18-4.72-8.48.21-10-1.34-10.06-9.59,0-10.16-.05-20.32,0-30.48,0-6.06,2-8.59,8-8.1,10.45.86,17.25-3.51,23.31-11.78,6.47-8.84,14.12-16.71,18.27-27.19,1.71-4.31,6.06-5.48,10.59-4.61s8.82,5.11,8.09,10c-1.05,6.95-3.57,13.68-5.63,20.46-.55,1.82-1.69,3.45-3,6,7.73,0,14.66-.13,21.58,0,12.46.29,15.48,3.78,14.45,16C606.53,392.35,607.4,393.61,608,394.73Zm-10.71-5.33c1-.95,2.9-2.08,2.75-2.77a6.51,6.51,0,0,0-2.76-3.6c-1-.65-2.58-.54-3.9-.55-8.82,0-17.65.07-26.47,0-5.15,0-7-2.82-4.72-7.47,1.73-3.59,4.12-6.89,5.62-10.57A81,81,0,0,0,572,350.72c.29-1.37-1.59-3.19-2.47-4.8-1.23,1.05-2.83,1.88-3.62,3.2-2.15,3.55-3.5,7.65-6,10.92-5.62,7.42-11.55,14.63-17.72,21.6-2.32,2.62-5.69,4.29-8.47,6.53-1,.8-2.35,2-2.37,3.06-.17,10.63-.11,21.27-.11,31.8,3.93,1.19,7.8,1.6,10.83,3.41,15.5,9.26,32.48,5.1,48.91,5.77,1.22.05,2.53-2.07,3.8-3.18-1.12-1.14-2.24-2.29-3.37-3.43l-4.05-4c1.61-1.07,3.19-2.18,4.84-3.2,1.92-1.19,3.89-2.3,5.84-3.44-1.49-1.39-3-2.73-4.44-4.2-1-1.08-2.81-2.56-2.6-3.48.31-1.37,1.93-2.67,3.29-3.5.87-.53,2.48.21,3.4-.28a28.42,28.42,0,0,0,4.26-3.32c-1.39-1.13-2.72-2.33-4.17-3.36s-3.27-2-4.91-3.06C594.35,392.28,595.79,390.83,597.25,389.4ZM523.64,423V389.53h-5.22v33.72Z"></path><path class="cls-4" d="M606.94,179.92c.63,1.41-.68,3.69-1.09,5.57-1.82-.93-4.49-1.38-5.3-2.86-4.37-8-8.31-16.27-12.32-24.49-1.66-3.4-.31-6.25,2.77-6.18l1.82-1.82c.64,1.56,1.21,3.16,1.95,4.67C598.85,163.17,603.13,171.44,606.94,179.92Z"></path><path class="cls-4" d="M584.94,636.08c9.4.37,14.5,7.61,13.13,19.71H573.6c0,10.72,4.69,13.12,23,11.56-.75,1.86-.9,3.93-1.92,4.53-10,5.9-24.66-.48-27.21-11.64C564.38,646.75,572.45,635.6,584.94,636.08Zm-11,14.89h18.14c0-6.7-2.81-10.18-8.11-10.41C578.21,640.32,574.27,644.34,573.91,651Z"></path><path class="cls-4" d="M593.4,223.33c.67.6-.11,4.1-1.24,5.14-2,1.81-4.77,2.76-7.22,4.06l.15-.13c-2.81.58-6.07,1.33-6.67-2.55-.2-1.27,2-3.89,3.5-4.28C585.73,224.58,589,219.36,593.4,223.33Z"></path><path class="cls-4" d="M579.37,90.61c6.85.2,10.55,4.14,9.74,11-2.16,18.36-4.43,36.72-7.07,55a10.94,10.94,0,0,1-4.75,7c-2.91,1.65-3.25,3.4-2.56,6,2.79,10.45,5.76,20.85,8.45,31.32a108.71,108.71,0,0,1,3.1,15.62c.16,1.56-2.08,3.38-3.21,5.07-1.26-1.6-3.14-3-3.66-4.83-3-10.38-5.73-20.84-8.43-31.3-1.53-6-2.84-12-4.2-17.8-2.13.4-4.52,1.2-6.92,1.23-10.66.14-21.33.18-32,0-3.27-.06-4.85,1.09-5.63,4.17s-2.11,6.3-3,9.49c-1.68,5.75-4.79,9.74-11.27,10.4-1.18.11-2.6,1.44-3.26,2.58-3.64,6.33-7.09,12.78-10.6,19.19l0,0h0c-5.6,9.76-11.17,19.56-16.82,29.29-5,8.63-13.55,10.41-22.19,5.54-13.22-7.46-16.45-15.79-7.12-29.8,4.89-7.34,9.22-15.06,13.47-22.78a7,7,0,0,0,.16-5.78c-5.63-10-5.27-12.7,3.5-19.67.47-.37.83-.9.84-2.56-3.42.71-7,1-10.25,2.18q-80.15,27.92-160.22,56c-8.07,2.83-9.19,2-9.19-6.72q0-67.48,0-135c0-18.82.25-37.64.39-56.47.05-6.46,1.29-7.29,7.59-5Q375.67,53,457.06,82a15.36,15.36,0,0,0,4.79,1.25c21.8.08,43.59,0,67.08,0C523.4,78.59,519,74.8,514.55,71c-.63-.54-1.37-1-2-1.48-2.06-1.71-4.75-3.47-2.47-6.51s4.8-1.09,6.85.64c6.77,5.67,13.36,11.54,20.21,17.09a11.44,11.44,0,0,0,6,2.44,123.16,123.16,0,0,0,15.49,0c5.06-.29,8.77.53,8,7.32C571.14,90.59,575.25,90.49,579.37,90.61Zm2.36,10.82c.12-1.08-1.66-3.31-2.73-3.43a117.68,117.68,0,0,0-12.09-.16v60.49c2.93-2.11,7.39,1.8,8.12-3.5C577.48,137.06,579.67,119.25,581.73,101.43Zm-23,60V91H545.45v70.51Zm-21.33,0V91H464.27v70.56ZM516,169c-12.89,0-25,0-37.07.06-.63,0-1.35.69-1.89,1.21-2.72,2.57-5.14,5.57-8.16,7.71-3.42,2.42-4.45,4.55-1.56,8,4.17,5,3.81,10.14.36,15.61q-8.25,13.08-15.75,26.63c-1.18,2.12-2.27,6.25-1.24,7.27,3.64,3.59,7.86,7.17,12.54,9,4.5,1.72,6.8-2.79,8.81-6.37,8.53-15.25,17.18-30.43,25.67-45.7,2.24-4,4.94-6.94,9.93-7.23a4.65,4.65,0,0,0,3.31-2.42C512.73,178.53,514.13,174.14,516,169ZM456.63,94.73c.05-4.12-1.41-5.72-5.11-7Q392.92,67,334.41,46c-8.09-2.88-16.2-5.69-24.68-8.67V213.86a20.28,20.28,0,0,0,2.23-.48q70.46-24.65,140.93-49.23c3.3-1.14,3.69-3,3.68-6C456.49,137,456.39,115.88,456.63,94.73ZM294.19,219c7.85-1.42,7.84-1.42,7.84-8.56V41c0-7.29,0-7.29-7.84-8.72Z"></path><path class="cls-4" d="M578.05,234.59c2.31-.85,4.69-1.47,7-2.19l-.15.13,4.28,3.9c-1.44,1.33-2.7,3-4.37,3.89s-3.78,1.05-5.31,1.44c.69,1.93,2.56,5,1.9,5.69-1.4,1.53-4.09,2.41-6.31,2.55-3.18.2-6.42-.47-9.61-.78-1.2-6.3-.6-6.71,8.64-6.38-.41-1.92-1.62-4.19-1-5.74C573.67,235.81,576.28,235.24,578.05,234.59Z"></path><path class="cls-4" d="M566.68,249.76c2.87.79,6.49,1.44,5.19,5.48s-4.75,2.29-7.55,1.6c-1.74-.42-3.46-.89-5.2-1.34l-2.91-1.8c-.72-6.13.83-7.34,6.53-5.11a19.14,19.14,0,0,0,2.78.69h0A7.59,7.59,0,0,0,566.68,249.76Z"></path><path class="cls-4" d="M566.67,484.42c-.41.59-.81,1.19-1.21,1.78a23.33,23.33,0,0,1-2.25,3.74c-5.86,6.59-11.65,13.25-17.85,19.51-1.33,1.34-5,2.26-6.24,1.41-2.75-1.83-.91-4.22.91-6.21,6.07-6.62,12-13.4,18.16-19.92,1-1.09,3.07-1.54,4.68-1.65C564.1,483,565.4,483.94,566.67,484.42Z"></path><path class="cls-4" d="M565.54,249.29h0Z"></path><path class="cls-4" d="M565.52,249.22s0,0,0,.06h0l-.06,0-.1,0Z"></path><path class="cls-4" d="M565.52,249.28h0Z"></path><path class="cls-4" d="M560.52,666.83c1.6,3.85.51,5.27-3,6-11.24,2.4-20.64-2.17-23.24-11.65-2.93-10.67,1.75-21.43,11.42-23.87,5-1.27,10.63-.23,16.38-.23-.69,2.25-1.11,3.65-1.6,5.26-6.89-1.94-13.59-2.66-18,4.11-3.45,5.28-3.56,11.17,0,16.47C547.05,669.64,553.64,669.18,560.52,666.83Z"></path><path class="cls-4" d="M559.12,255.5c0,1.95.06,3.89.08,5.84-2-.07-4.1.26-5.92-.33S550,258.9,549,258.2c-1.25,1.67-3,4.68-3.45,4.5a80.11,80.11,0,0,1-9.23-5.1c-.91.63-3.55,3-4,2.65-2.67-2.13-4.85-4.9-7.15-7.41-1.22.44-4.45,2.21-4.89,1.68-2.17-2.64-3.59-5.89-5.18-8.74-1,.38-4.38,1.95-4.6,1.59A76.35,76.35,0,0,1,506,238c-5.82,2.23-6.68,1.09-6.51-9.16-2.12-.14-4.86.46-6-.63s-.94-3.86-.79-5.85a65.79,65.79,0,0,1,1.43-7.69l5.88-2c.51,3.05,1,6.1,1.54,9.18,5.64-.78,6-.27,5.87,8.53,2.26.45,5.28.17,6.33,1.47,1.36,1.69,1.16,4.65,1.62,7,6-2.17,6.39-1.82,8.73,7.11,5.1-4,6.14-3.44,9.83,4.91,4.07-4.84,4.85-4.69,10.51,2.14,2.9-5,4.46-5.24,8.9-1.28a22.59,22.59,0,0,0,2.86,1.91Z"></path><path class="cls-4" d="M525.31,650.54c.08,7.13,0,14.25,0,21.88l-6.46.34V661.25c0-3.16,0-6.32,0-9.48-.14-6.82-2.88-10.27-8.14-10.34-5.68-.06-9.45,4-9.53,10.38-.09,6.78,0,13.56,0,20.61H495V636.79h4.8c.23,1.4.46,2.82.71,4.39.54-.19,1.12-.21,1.39-.51,4.45-5,10.07-5.88,15.9-3.62S525.24,644.74,525.31,650.54Z"></path><path class="cls-4" d="M521.44,526.37c.77.84.86,3.75.14,4.3-8.39,6.47-17,12.67-25.56,18.92-.24.17-.64.13-1.73.32-.68-.56-2.3-1.25-2.67-2.36s0-3.28.9-3.93q12.11-9.17,24.58-17.83A4.49,4.49,0,0,1,521.44,526.37Z"></path><path class="cls-4" d="M494.16,214.57a.5.5,0,0,0,0,.12l-.06,0Z"></path><path class="cls-4" d="M494.07,214.69l.09-.12-.08.14h0Z"></path><path class="cls-4" d="M489.71,44.93c1.09.64,1,3.33,1.41,5.07-1.76.3-3.93,1.43-5.2.78-8.57-4.41-17-9.12-25.35-14a5.47,5.47,0,0,1-2.09-4c-.06-1.57.95-3.18,1.49-4.77l2.11,2a8.89,8.89,0,0,1,1.9.55C472.6,35.33,481.27,39.93,489.71,44.93Z"></path><path class="cls-4" d="M473,636.09c9.21.51,14.74,8.78,12.62,19.63H461.52c-.53,7,3.27,12,9.64,12.55,2.93.26,5.94-.62,8.9-.53,1.5,0,3,1.06,4.48,1.63-.21,1-.41,1.9-.61,2.85-4.89.38-9.87,1.5-14.65,1-10.61-1.2-15.73-9.43-14.31-21.76C456.1,641.57,463.17,635.55,473,636.09Zm-11.28,15h18.05c-.09-7.1-3.18-10.57-8.86-10.5S461.56,644.9,461.71,651.06Z"></path><path class="cls-4" d="M472,559.84c-.62,1.68-.77,4.31-1.94,4.89-8.79,4.34-17.77,8.29-26.7,12.35-.45.2-.95.29-2.12.65-.88-.8-2.87-1.78-2.93-2.86a5.41,5.41,0,0,1,2.23-4.28c4.1-2.16,8.54-3.68,12.77-5.62,4.53-2.07,8.88-4.57,13.52-6.36C468.22,558.09,470.28,559.38,472,559.84Z"></path><path class="cls-4" d="M446.74,626.35c.22,1.36-1.79,3.09-3.75,6.08-1.91-3-3.72-4.56-3.66-6.07.06-1.34,2.42-3.79,3.37-3.62C444.3,623,446.5,624.88,446.74,626.35Z"></path><path class="cls-4" d="M445.83,636.9v35.62h-5.59V636.9Z"></path><path class="cls-4" d="M436.56,447.34c2.8,0,5.53.7,5,3.88-.25,1.41-3.14,3.28-4.9,3.35-8.8.34-17.63.15-26.45.15q-13,0-26,0c-2.62,0-5.32-.11-5.34-3.64s2.6-3.73,5.26-3.73Q410.35,447.37,436.56,447.34Z"></path><path class="cls-4" d="M435.45,18.66c1.06.37,2.18,3.17,1.78,4.33s-3,2.49-4.13,2.16q-14.4-4-28.59-8.86c-1.15-.39-2.41-2.9-2.19-4.18s2.29-2.16,3.5-3.18C416.19,12.28,425.89,15.28,435.45,18.66Z"></path><path class="cls-4" d="M432.9,636.45c.08,1.5.17,3.07.26,4.57-9.7,3-11.57,5.58-11.62,15.8,0,5.11,0,10.22,0,15.6h-6.13V636.78h4.66c.43,1.75.85,3.51,1.4,5.75C424.14,638.35,427.19,635.25,432.9,636.45Z"></path><path class="cls-4" d="M416.41,582.64c-.8,1.45-1.32,3.89-2.43,4.19-9.78,2.65-19.66,4.92-30.18,7.45-1.21-1.17-3.41-2.4-3.33-3.46.12-1.5,1.68-3.79,3-4.14q14-3.58,28.21-6.32C413.09,580.1,414.84,581.83,416.41,582.64Z"></path><path class="cls-4" d="M394.07,636.11c8.68.6,14.05,8.67,12.54,19.51H382.1c-1.16,11.65,10,15.43,21.72,11.18l1.35,5.24c-4.95.48-9.7,1.58-14.35,1.26-10.14-.71-16.48-9-15.61-19.39C376.21,641.92,383.17,635.35,394.07,636.11Zm-11.76,14.8h18.11c-.06-6.65-3.06-10.21-8.41-10.35C386.42,640.42,382.59,644.4,382.31,650.91Z"></path><path class="cls-4" d="M379.13,7.71c.06,1.17-2.46,2.48-2.82,2.8-11-.95-20.24-1.61-29.46-2.72-1.51-.18-2.77-2.4-4.15-3.67C344.25,3,345.85.9,347.33,1c9.43.56,18.86,1.43,28.23,2.65C377,3.81,379.05,6.23,379.13,7.71Z"></path><path class="cls-4" d="M367.26,644c5.94,11.21.73,26.14-10.07,29-5.43,1.44-10.13,0-15.21-4.42v18.65h-6.19V636.81h5c.19,1.44.39,3,.47,3.55,4.28-1.44,8.41-3.5,12.74-4.13C360.09,635.35,364.44,638.7,367.26,644ZM363,656.63c.79-8.56-3.61-15.31-10.2-15.66s-10.74,5-11.38,14.42c.81,3,1,6.28,2.57,8.8,2.37,3.92,6.47,5,10.93,3.89S362.45,662.51,363,656.63Z"></path><path class="cls-4" d="M353,590.39c1.52.13,2.9,1.9,4.34,2.92-1.31,1.38-2.57,3.89-3.94,4-9.61.48-19.25.59-28.88.44-1.4,0-2.78-2.07-4.17-3.18,1.43-1.26,2.76-3.47,4.3-3.62,4.76-.48,9.61-.17,14.43-.17v-.49C343.76,590.25,348.43,590,353,590.39Z"></path><path class="cls-4" d="M312.78,649.44c5.34-3.51,4.55-14.56,15.59-12.57-4.12,5.93-8,11.48-11.95,17.23l12,17.89c-4.79,1.78-7.64.49-9.75-3.56-1.68-3.22-3.91-6.15-5.89-9.2-6.13,3.36-5,15.16-16.41,13.13,2.87-4.19,5-8.41,8.11-11.6,4.7-4.78,3.65-8.62-.17-13.11-2.66-3.12-4.72-6.76-7.44-10.74C308.08,634.66,307.26,645.82,312.78,649.44Z"></path><path class="cls-4" d="M319.11,4.16c.66,5.47-4.42,3.91-7.5,4.31-7.4,1-14.84,1.62-22.25,2.48-2.65.31-5.7,1.29-6.42-2.47-.82-4.24,2.72-4.28,5.44-4.65,7.56-1,15.14-1.86,22.71-2.77.23-.36.47-.71.7-1.06C314.35,1.37,318.91,2.5,319.11,4.16Z"></path><path class="cls-4" d="M294,588.47c1.34.29,3.34,2.84,3.09,3.9-.34,1.5-2.49,2.57-3.57,3.55-10.37-2-19.71-3.68-28.93-5.82-1.46-.34-2.41-2.84-3.6-4.34,1.7-.85,3.54-2.64,5.07-2.41Q280.16,585.45,294,588.47Z"></path><path class="cls-4" d="M292.27,672.38H264.46V622.73H291v4.91H271v16.43c5.09,0,10.19-.16,15.27.12,1.33.07,2.57,1.53,3.85,2.36-1.31.79-2.59,2.19-3.95,2.26-4.94.28-9.91.11-15.24.11v18.33H292C292.1,669.22,292.17,670.61,292.27,672.38Z"></path><path class="cls-4" d="M284,331.52c1.38,34.89-9.26,66.16-31.22,94.45,8.17.82,15.14,1.34,22.05,2.33,1.87.26,4.65,1.63,5,3,.45,1.74-.57,4.63-2,6A236.88,236.88,0,0,1,259.77,453c-3.5,2.7-4.09,5.32-3,9.37,2,7.55,3.65,15.21,5,22.89.36,2-.19,5.08-1.51,6.07s-4.51.64-6.23-.31c-7.59-4.16-14.86-8.89-22.43-13.06a7,7,0,0,0-5.73-.05c-7.35,3.9-14.41,8.35-21.76,12.24-1.94,1-5.26,1.8-6.68.83s-1.68-4.35-1.38-6.53c.72-5.36,2.06-10.63,3.37-17-7.41,6.35-14.06,11.84-20.4,17.67-1.09,1-1.5,3.55-1.17,5.17,2.43,11.91,5.28,23.74,7.63,35.66.41,2.08-.17,5.5-1.57,6.47s-4.79.4-6.65-.66c-10.29-5.82-20.37-12-30.52-18-4.95-3-7.72-1.83-10.08,3.5-.59,1.34-2.78,2.22-4.41,2.78-1.82.62-4.11.12-5.73,1-6.15,3.32-12,7.2-18.21,10.39-2,1-5.33,1.55-7.11.58-1.27-.7-1.68-4.42-1.24-6.53,2.39-11.58,5.06-23.11,7.86-34.59.77-3.14.44-5.4-2.38-7.26-4.39-2.9-7-8.38-13.29-8.7-1.53-.07-2.92-2.85-5.27-5.34,1.54,6.93,3,12.55,3.92,18.26.34,2.05,0,5.47-1.19,6.19-1.63.94-4.83.55-6.69-.47-7.88-4.32-15.67-8.85-23.16-13.8-3.38-2.23-5.79-1.89-9,.08C43.31,484.44,35.72,489,28,493.16c-1.91,1-5.3,1.63-6.72.63s-1.69-4.43-1.27-6.56C21.77,478.09,23.9,469,26.16,460c.66-2.66.12-4.23-2-6q-9.54-8.06-18.72-16.54c-2.43-2.24-6.58-3.94-5.21-8.26s5.7-3.31,9-3.67c7.1-.78,14.23-1.31,21.92-2-3.38-5.19-6.63-9.77-9.46-14.6-31.17-53.33-25-118.08,15.45-165.25a20,20,0,0,0,3.64-7.38c1.89-6.56,3.31-13.25,5.1-19.84.74-2.73,1-6.72,5.42-5.37,4,1.23,2.27,4.51,1.58,7.16-1,3.84-2.07,7.66-2.75,11.89,29.32-23.93,62.65-35.67,100.27-33.87s69.6,16.89,95.4,44.24C269.87,266,282.59,296.57,284,331.52Zm-32.82,119c5.63-4.65,11.05-9.56,17.65-15.31-8.79-.9-16.18-1.85-23.61-2.33-3.72-.24-5.67-1.87-7-5.2-2.75-6.9-5.78-13.68-9.17-21.6-3.29,7.59-6.26,14-8.87,20.6-1.59,4-3.9,6-8.48,6.21-7.18.26-14.33,1.25-22.56,2,6.29,5.57,11.5,10.47,17,15,3.29,2.68,4.21,5.48,3.12,9.57-1.87,7-3.3,14.14-5.16,22.26,7-4.07,13.14-7.34,18.92-11.17,4-2.68,7.34-2.75,11.4,0,5.82,3.89,12,7.23,19,11.36-1.84-8.35-3.25-15.52-5.05-22.59C247.41,455.6,248.19,453,251.14,450.53Zm-6.8-27.48c36.43-38.63,50-116.7-1.75-175C192,191,104.84,188,49.7,241.5-5.24,294.81.44,375.27,39,420.2c.76-1.64,1.47-3.09,2.12-4.57,3.29-7.47,6.4-15,10-22.36.84-1.74,3.15-3.65,4.91-3.77,1.42-.1,3.62,2.07,4.43,3.74,2.83,5.82,5.21,11.87,8,18.4,8.11-1.87,15.73-3.6,23.33-5.39a75.46,75.46,0,0,0,8.67-2.36c7.87-2.88,11.19-18.54,5.16-24.28a50,50,0,0,1-12.89-20.52c-1.27-3.71-1.89-7.53-6.12-9.63C85,348.7,84.09,346,83.6,344c-1.56-6.3-3-12.65-4.07-19-1-5.75-1.71-11.62,3.18-16.42.71-.69.66-2.41.57-3.63-.74-9.46-1.66-18.91-2.36-28.37A25.32,25.32,0,0,1,96.1,250.73a18.36,18.36,0,0,0,7.08-5.6c5.42-7.55,12.52-12.43,21.71-12.45,10.76,0,21.77.08,32.25,2.23,25.63,5.25,41.25,22,43.52,45.62.67,7-.7,14.26-1,21.4a57.68,57.68,0,0,0,.29,8.31c.48,4.69,2,9.44,1.56,14-.65,6.75-2.53,13.4-4.13,20-.44,1.85-1.32,4.47-2.72,5.07-4.73,2-5.1,6.57-7.17,10.21-3.2,5.61-6,11.85-10.52,16.22-4.93,4.76-6,9.65-5.71,15.89.41,7.35,2.82,11.14,10.06,12.84,7.94,1.87,16,3.3,24,4.8,4.24.79,9.57,3.18,12.5,1.5,3.19-1.83,4-7.65,6.22-11.47,1.15-1.94,3.52-4.84,4.84-4.6,2,.37,4.25,2.77,5.25,4.86C237.78,407.27,241,415.15,244.34,423.05Zm-37.09,3c5-.2,7.11-2.47,7.59-7.4-1.58-.34-3.18-.71-4.79-1-10-1.94-20-3.61-29.89-5.86-11.3-2.58-16-8.77-16-20.22,0-1.71,0-3.43,0-5.34-23.24,6.62-23.24,6.62-48.64.1-.09,1.31-.25,2.58-.27,3.85-.22,13.43-4.17,18.64-17.09,22-8.68,2.24-17.43,4.2-26.14,6.29-.27.68-.53,1.36-.8,2.05,2,1,4,2.63,6.12,2.9,9.09,1.16,18.25,1.76,27.33,2.93,2.18.28,5.74,1.78,5.9,3.07.27,2-1.33,4.85-3,6.51-4.22,4.28-8.89,8.1-13.37,12.1,8.35.17,16.13-.65,23.93-1.15,2.95-.19,4.32-1.49,5.43-4.1,4.59-10.9,9.28-21.76,14.27-32.48,1-2.06,3.42-4.7,5.23-4.73s4.37,2.56,5.3,4.6c5,10.91,9.48,22,14.33,33,.64,1.45,2.16,3.36,3.47,3.53,8.84,1.14,17.75,1.88,28.1,2.9-5.11-4.57-9.32-8-13.11-11.88-1.56-1.59-3.33-4.35-2.91-6.07.37-1.53,3.54-3.07,5.64-3.36C191.63,427.15,199.44,426.33,207.25,426Zm-8,31.42c-2.7-.32-4.32-.54-5.93-.7-8.62-.85-17.23-2.17-25.87-2.35-6.84-.14-9.89-3.32-12.12-9.34-3.48-9.43-7.82-18.54-12.23-28.78-3.45,7.91-7.34,14.48-9.2,21.59-3.44,13.2-11.58,17.77-24.59,17.15-7.14-.34-14.36,1.2-22.65,2,9.37,8.32,17.74,15.89,26.27,23.27,2.85,2.47,3.72,5,2.77,8.76-2.74,10.94-5.07,22-7.83,34.18,10.25-6,19.44-11,28.25-16.69,4.68-3,8.36-3.17,13.12,0,8.87,5.82,18.2,10.95,28.11,16.83-.43-2.46-.66-4.07-1-5.65-2.05-9.26-4-18.56-6.26-27.77-1.06-4.25-.13-7.12,3.34-10C181.93,472.87,190.12,465.4,199.22,457.43Zm-5.9-165.93c2.48-21.11-8.64-39.39-28.57-46.86-11.09-4.16-22.6-5.23-34.37-5.2-10.06,0-17.6,3.69-22.89,12.43a12.82,12.82,0,0,1-6.35,4.83c-8.62,3.08-13.62,9.95-12.91,19.09.52,6.8,1.4,13.56,2.23,21.36,2.47-4,4.18-7.17,6.28-10.06,4.27-5.87,9-11.42,13.05-17.42,2-2.91,3.75-3.86,6.95-2.36,16.73,7.83,34.31,10.25,52.61,8.32,5.89-.62,8.08,1.42,10,7.29,2.24,6.77,4.86,13.43,7.59,20,.8,1.94,2.53,3.51,4.64,6.33C192.26,302.34,192.69,296.91,193.32,291.5Zm-1.63,44.24c1.33-5.75,2.41-11.57,3.67-17.65-7.7-1-11.94-5.46-14.6-11.2a203.61,203.61,0,0,1-7.93-20.41c-1-3-2.2-3.62-5.28-3.49-7.12.32-14.39.74-21.39-.29-10.28-1.51-20.37-4.25-30.93-6.55-1.46,2.2-2.85,5.71-5.39,7.87C101,291.56,97,302,92.25,312c-.91,1.9-3.25,3.12-4.93,4.66l-1.76,0C87.29,325.44,89,334.21,90.8,343a3,3,0,0,0,2,1.91c4,.34,4.39,3.27,5.1,6.28,2.16,9.07,5.84,17.24,13.42,23.29,20.39,16.3,60.37,14.1,71.76-23.65.51-1.7,1.19-4.58,2.12-4.73C191.67,345.07,190.74,339.81,191.69,335.74ZM96.4,436.11a30.3,30.3,0,0,0,2.65-3.2c-8.61-.83-16.38-1.79-24.17-2.26-4.69-.28-7.58-2-9.31-6.59-2.84-7.59-6.32-14.94-9.93-23.32-3.53,8.12-7,15.16-9.66,22.46-1.91,5.14-5,7.18-10.4,7.4-7.7.33-15.38,1.28-24.28,2.06,7,6.27,12.89,11.87,19.16,17,3.46,2.82,4.44,5.63,3.29,9.95-2.12,8-3.72,16.07-5.76,25.12,8.11-4.74,15.37-8.77,22.38-13.19,3.58-2.25,6.5-2.26,10.06,0,7,4.48,14.18,8.57,22.06,13.27-.46-2.61-.71-4.37-1.09-6.1-1.46-6.67-2.85-13.36-4.48-20-.86-3.49,0-5.94,2.84-8.25C85.46,445.88,90.9,441,96.4,436.11Z"></path><path class="cls-4" d="M260,12.92c.4,1.1-.52,3.77-1.43,4.08-9.9,3.39-19.91,6.46-30.71,9.88-.71-.67-2.5-1.56-2.71-2.73s.74-3.68,1.73-4q14.6-5.09,29.41-9.46C257.25,10.37,259.56,11.82,260,12.92Z"></path><path class="cls-4" d="M237.18,575c1,.44,2,3,1.62,4.06-.48,1.3-2.41,2.08-3.78,3.14-10.1-4.33-19.61-8.29-29-12.57-1-.43-1.85-3.3-1.33-4.06.79-1.17,3.19-2.43,4.29-2C218.5,567.1,227.89,570.94,237.18,575Z"></path><path class="cls-4" d="M236.92,619.89v52.48l-4.51.38c-.45-1.72-.85-3.21-1.29-4.84-9.51,7.63-18.33,7.36-24-.52-6.16-8.53-4.25-23.49,4-28.8,6.42-4.16,12.88-3.48,19.83,1.89V619.89Zm-5.87,36.35c-.22-3.2-.11-5.24-.54-7.16-1-4.46-3.8-7.5-8.36-8.09s-8.09,1.44-10.12,5.64c-2.71,5.57-3.15,11.5.34,16.59,1.69,2.48,5.61,4.93,8.38,4.78,3-.16,6.36-2.91,8.58-5.4C230.85,660.88,230.71,657.67,231.05,656.24Z"></path><path class="cls-4" d="M203.78,33.9c.5,1.08-.07,3.7-1,4.26-8.69,5.22-17.57,10.14-26.4,15.13a13.1,13.1,0,0,1-2.1.6c-.79-.67-2.77-1.62-2.72-2.44.11-1.7.85-4.08,2.14-4.86,7.95-4.84,16.13-9.32,24.24-13.89.57-.33,1.34-.82,1.84-.67C201.22,32.47,203.29,32.86,203.78,33.9Z"></path><path class="cls-4" d="M195.3,650.47c.09,7.13,0,14.26,0,21.81h-6.46c0-7,.1-14,0-20.92-.12-6.48-2.94-9.83-8-9.92-5.54-.11-9.49,3.78-9.6,9.78-.14,6.95,0,13.9,0,21.17h-6.11V636.68h4.72c.25,1.47.5,2.87.76,4.43.49-.13,1.08-.11,1.32-.39,4.43-5,10-5.93,15.89-3.7S195.23,644.65,195.3,650.47Z"></path><path class="cls-4" d="M182.57,549.15a14.07,14.07,0,0,1,2.57,3c-1,3.57-3,5.06-5.73,3.34q-12.6-8.06-24.76-16.77c-1.05-.75-.73-3.39-1.05-5.16,1.8-.1,4.07-1,5.32-.17C166.94,538.43,174.76,543.79,182.57,549.15Z"></path><path class="cls-4" d="M131.56,637.47c11.5-3.42,22.83-2,22.51,14.59-.13,6.77,0,13.55,0,21.73L146.78,670a39.67,39.67,0,0,1-6.85,3.2,10.86,10.86,0,0,1-13.29-5.95c-2.21-5.43-.12-11.92,5.53-14.29,4.63-1.94,9.79-2.61,14.88-3.88.73-8-3.84-9.93-16.94-6.53C128.23,640.19,128.49,638.38,131.56,637.47Zm8.24,31.07c6.31-.54,9.47-6.6,6.88-14.73-3.56.87-7.38,1.31-10.76,2.77-3.19,1.38-4.38,4.53-3.27,8S136.49,668.83,139.8,668.54Z"></path><path class="cls-4" d="M152.06,64.76c.72.08,1.27,1.7,2.13,3a28.45,28.45,0,0,1-2.81,3.46c-6.69,6-13.33,12-20.27,17.68-1.38,1.12-4,.69-6.07,1,.32-2-.1-4.82,1.08-5.93,6.76-6.39,13.82-12.46,21-18.39C148.23,64.6,150.42,64.59,152.06,64.76Z"></path><path class="cls-4" d="M121.74,634.58v6.67c-9.15,2.47-11.13,5-11.2,14.62,0,4.82,0,9.65-.07,14.47,0,.49-.16,1-.34,2.1h-5.76V636.79h4.76c.27,1.75.54,3.46.68,4.39Z"></path><path class="cls-4" d="M108.49,106.28c.81,0,1.61,1.69,2.61,2.82a46.91,46.91,0,0,1-2.47,4.1c-5.28,7-10.47,14.16-16,21-1.08,1.31-3.76,1.31-5.71,1.91-.11-1.91-1.08-4.43-.21-5.65,5.47-7.72,11.25-15.22,17.17-22.6C104.72,106.72,106.91,106.27,108.49,106.28Z"></path><path class="cls-4" d="M93.14,630.61c1.72,5.93-.15,10.2-6.82,15,9.75,6,12.35,14.53,6.09,21.42a18.57,18.57,0,0,1-10.22,5.3c-5.66.87-11.56.23-17.71.23a37.88,37.88,0,0,1-.41-3.92c0-13.64.14-27.29-.11-40.93-.08-4,1.37-5.38,5.12-5.28s7.32-.2,11,0C86.66,622.75,91.84,626.12,93.14,630.61Zm-4.3,28c.06-4.37-2.19-7.53-6.18-8.7-3.7-1.08-7.7-1.17-12.31-1.8v12.32c0,8.32,1.31,9.33,9.65,7.39a17.83,17.83,0,0,0,2.41-.65C86.34,665.65,88.78,663,88.84,658.59Zm-2.91-19.54c1.18-2.24,1-6.75-.52-8.58-3.74-4.51-9.29-4-14.76-2.84v15.75C76.43,643.41,82.65,645.23,85.93,639.05Z"></path><path class="cls-4" d="M72.66,155.25c3.5.49,5.14,2.24,3.82,5.18Q70.36,174,63.64,187.31c-.58,1.13-2.92,1.37-4.45,2-.68-1.64-2.39-3.73-1.89-4.85,4.06-9.23,8.5-18.3,13-27.36C70.68,156.24,72,155.77,72.66,155.25Z"></path></svg>