<svg xmlns="http://www.w3.org/2000/svg" id="Layer_1" data-name="Layer 1" viewBox="0 0 185.91 185.91"><defs><style>.cls-1,.cls-3{fill:#171143;}.cls-2{fill:#44aee3;}.cls-3{font-size:18px;font-family:Aller-Bold, Aller;font-weight:700;}</style></defs><title>color-vision-adv.icons</title><path class="cls-1" d="M94.44,117.19a1.92,1.92,0,0,1-.81-1.86c.05-.71,0-1.43,0-2.29h-.91c-2.1,0-4.21-.09-6.31,0a5.92,5.92,0,0,1-6.22-6.26c.06-4.12,0-8.25,0-12.37v-1.1l-3,2.29L74.2,98a1.31,1.31,0,0,1-1.52.28,1.37,1.37,0,0,1-.75-1.37V92.56H71c-3.35,0-6.7,0-10.05,0a7.66,7.66,0,0,1-7.71-6.14,8.26,8.26,0,0,1-.14-1.49q0-6.18,0-12.37c0-1,.57-1.54,1.49-1.38s1,.73,1,1.47q0,6.09,0,12.2a5,5,0,0,0,3.91,5,7.63,7.63,0,0,0,1.73.14c3.79,0,7.58,0,11.37,0,1.53,0,1.9.39,1.9,1.94v2.58l.74-.53c1.57-1.22,3.16-2.43,4.72-3.66a1.62,1.62,0,0,0,.5-.71,5.83,5.83,0,0,1,5.76-4.26c.77,0,1.54,0,2.42,0V62.62a5.19,5.19,0,0,0-5.56-5.55h-22a5.14,5.14,0,0,0-5.49,5.5c0,.75,0,1.5,0,2.25a1.19,1.19,0,0,1-1.25,1.25,1.11,1.11,0,0,1-1.25-1.23,25.35,25.35,0,0,1,.25-4.54,7.41,7.41,0,0,1,7.16-5.71c7.75,0,15.5,0,23.25,0,.47,0,.93.08,1.52.13v-1c0-4.37-.06-8.75.09-13.12A9.14,9.14,0,0,1,94,32.18c5.95-.06,11.91,0,17.86,0,.88,0,1.33.43,1.34,1.22s-.45,1.26-1.38,1.26c-5.67,0-11.35,0-17,0a6.84,6.84,0,0,0-7,5.66,7.26,7.26,0,0,0-.09,1.32q0,6.76,0,13.54a1.3,1.3,0,0,0,.51,1.12,7.4,7.4,0,0,1,2.83,6c0,4.38,0,8.75,0,13.12,0,.59.15,1,.73,1.1a17.11,17.11,0,0,0,3.15.58c4.7.06,9.41,0,14.11,0,1.61,0,1.94.34,1.94,2,0,1.24,0,2.49,0,3.74a1.43,1.43,0,0,0,.07.28l.73-.54c2.13-1.63,4.24-3.28,6.41-4.87a3.14,3.14,0,0,1,1.58-.53c1.52-.1,3,0,4.56-.13a6.65,6.65,0,0,0,5.93-6.43q0-14.69,0-29.39a6.8,6.8,0,0,0-6.74-6.54c-1.17,0-2.33,0-3.49,0-1,0-1.42-.4-1.43-1.22s.45-1.29,1.39-1.25a35.39,35.39,0,0,1,5.93.37,8.94,8.94,0,0,1,6.83,8.3c.09,1.88,0,3.77,0,5.65q0,11.74,0,23.5a9.16,9.16,0,0,1-7.33,9.37,36.87,36.87,0,0,1-5,.29,2.81,2.81,0,0,0-1.41.49c-2.77,2.07-5.51,4.18-8.25,6.29-.5.38-1,.72-1.66.4s-.76-.94-.75-1.61c0-1.82,0-3.64,0-5.5-5.81-.41-11.6.46-17.35-.57v6.16c.31,0,.61,0,.9,0,3.26,0,6.53,0,9.8,0a5.76,5.76,0,0,1,5.93,4.34,12.09,12.09,0,0,1,.23,2.63c0,1.52,0,3,0,4.57,0,1-.44,1.57-1.29,1.56s-1.26-.51-1.26-1.58c0-1.86,0-3.71,0-5.57a3.16,3.16,0,0,0-3.36-3.39c-5.31,0-10.63,0-15.94,0a3.15,3.15,0,0,0-3.37,3.38q0,7.94,0,15.86a3.22,3.22,0,0,0,3.39,3.38c2.75,0,5.49,0,8.23,0,1.39,0,1.76.36,1.77,1.76v1.06c1-.75,1.85-1.34,2.63-2a3.06,3.06,0,0,1,2.42-.82,6,6,0,0,0,1.8-.13,3.07,3.07,0,0,0,2.42-3c0-.71,0-1.44,0-2.15,0-.94.48-1.39,1.3-1.38a1.17,1.17,0,0,1,1.24,1.34,17.41,17.41,0,0,1-.21,3.47,5.51,5.51,0,0,1-5.48,4.32,4.1,4.1,0,0,0-2.91,1c-1.28,1.09-2.64,2.09-4,3.13Z"></path><path class="cls-2" d="M103.92,52.34c1.16-1.34,2.46-2.77,3.66-4.29a6.64,6.64,0,0,0,1.36-4,2.6,2.6,0,0,1,2.76-2.75,2.48,2.48,0,0,1,2.16,1.45,9.63,9.63,0,0,1,.59,7.94c-.1.31-.22.62-.39,1.07H120a3.16,3.16,0,0,1,3.39,3.36c0,2.6,0,5.2,0,7.8,0,1.28,0,2.55,0,3.82A3.26,3.26,0,0,1,120,70.15q-5.85,0-11.7,0a8.44,8.44,0,0,1-4.13-1.06,12.7,12.7,0,0,1-2.08.47c-1.93,0-3.87,0-5.81,0-1.15,0-1.57-.4-1.57-1.55q0-7.21,0-14.44c0-1.18.44-1.6,1.61-1.6,2,0,3.93,0,5.9,0A10.72,10.72,0,0,1,103.92,52.34Zm7.66-8.48a4.69,4.69,0,0,0-.13.63,10.39,10.39,0,0,1-2.93,6.43c-1.44,1.56-2.84,3.17-4.22,4.79a1.66,1.66,0,0,0-.38.94c0,2.88,0,5.76,0,8.63a1.34,1.34,0,0,0,.44.88,6.25,6.25,0,0,0,4.22,1.45c3.7,0,7.41,0,11.12,0,1,0,1.15-.15,1.16-1.15v-11c0-1-.16-1.17-1.15-1.17h-7.31c-1.28,0-1.81-.79-1.34-2,.35-.87.75-1.72,1.05-2.61A7,7,0,0,0,111.58,43.86ZM97.3,54.58V67h4.06V54.54H97.73A3.82,3.82,0,0,0,97.3,54.58Z"></path><path class="cls-1" d="M71.27,69.87c.93,0,1.73,0,2.53,0,.2,0,.48-.38.53-.63.22-1.11.37-2.23.55-3.35,0-.16.07-.32.11-.49a1.22,1.22,0,0,1,1.5-1,1.28,1.28,0,0,1,1,1.59c-.21,1.28-.43,2.56-.67,4,1.23,0,2.38,0,3.54,0a1.26,1.26,0,0,1,1.3,1.66,1.28,1.28,0,0,1-1.37.85H76.38l-.5,3h3.38c.36,0,.72,0,1.08,0,.86.06,1.34.54,1.33,1.28a1.24,1.24,0,0,1-1.36,1.26c-1.32,0-2.65,0-4,0-.69,0-1,.16-1,.9-.11,1.17-.36,2.34-.59,3.51a1.23,1.23,0,0,1-1.51,1.14,1.32,1.32,0,0,1-1-1.68c.21-1.24.43-2.49.65-3.8h-3c-.24,1.45-.48,2.86-.72,4.27-.16.89-.7,1.32-1.47,1.21s-1.12-.64-1-1.53c.17-1.31.41-2.6.63-4-1.19,0-2.32,0-3.45,0a1.28,1.28,0,1,1,0-2.54q1.57,0,3.15,0c.53,0,.81-.1.85-.71s.22-1.46.36-2.3H65.61c-.53,0-1.06,0-1.58,0-1,0-1.61-.52-1.58-1.3s.63-1.21,1.58-1.22h4.66c.23-1.4.44-2.78.7-4.15.07-.37.18-.87.44-1a2.1,2.1,0,0,1,1.42-.24,1.11,1.11,0,0,1,.67,1.36ZM73.8,72.4c-.93,0-1.73,0-2.52,0a.69.69,0,0,0-.49.4c-.17.82-.29,1.65-.43,2.53h3Z"></path><path class="cls-2" d="M94.12,94.25a4.48,4.48,0,0,1,5.44.15,5.08,5.08,0,0,1,1.42,5.66,6.89,6.89,0,0,1-2.57,3.38,35.64,35.64,0,0,1-3.56,2.26,1.58,1.58,0,0,1-1.25.11,15.5,15.5,0,0,1-5.33-3.87A5.84,5.84,0,0,1,87,97.11,4.45,4.45,0,0,1,94.12,94.25Zm-4.66,4.23a3.24,3.24,0,0,0,1.15,2.3c1,.83,2.13,1.55,3.22,2.3a.58.58,0,0,0,.51,0A35.6,35.6,0,0,0,98,100.31a2.8,2.8,0,0,0,.58-3.16,1.88,1.88,0,0,0-1.63-1.23,1.64,1.64,0,0,0-1.66.85,1.24,1.24,0,0,1-2.3,0,1.76,1.76,0,0,0-1.56-.9C90.25,95.91,89.45,96.86,89.46,98.48Z"></path><circle class="cls-2" cx="36.26" cy="97.82" r="2.41"></circle><circle class="cls-1" cx="141.4" cy="51.73" r="1.94"></circle><polygon class="cls-2" points="146.24 94.34 140.67 94.34 140.67 88.28 138.25 88.28 138.25 94.34 132.69 94.34 132.69 96.77 138.25 96.77 138.25 102.83 140.67 102.83 140.67 96.77 146.24 96.77 146.24 94.34"></polygon><path class="cls-1" d="M44.29,52.31H41.4V49.1a.7.7,0,0,0-.69-.7h-.17a.7.7,0,0,0-.7.7v3.21H37a.69.69,0,0,0-.7.69v.17a.7.7,0,0,0,.7.7h2.88v3.2a.7.7,0,0,0,.7.7h.17a.69.69,0,0,0,.69-.7v-3.2h2.89a.69.69,0,0,0,.69-.7V53A.69.69,0,0,0,44.29,52.31Z"></path><text class="cls-3" transform="translate(39.96 158.34)">Social Media</text></svg>