<svg xmlns="http://www.w3.org/2000/svg" id="Layer_1" data-name="Layer 1" viewBox="0 0 185.91 185.91"><defs><style>.cls-1,.cls-3{fill:#171143;}.cls-2{fill:#44aee3;}.cls-3{font-size:18px;font-family:Aller-Bold, Aller;font-weight:700;}.cls-4{letter-spacing:-0.01em;}.cls-5{letter-spacing:0em;}</style></defs><title>color-vision-adv.icons</title><path class="cls-1" d="M142.56,78.17c-.25,1.72-.45,3.45-.76,5.15a49,49,0,0,1-20.27,31.91A46.53,46.53,0,0,1,98.19,124c-17.09,1.52-31.47-4.14-42.86-17A46.29,46.29,0,0,1,43.8,81.58C41.64,63.92,47.21,49,60.51,37.15a48.11,48.11,0,0,1,25.6-11.66c1.11-.16,2.22-.29,3.34-.43h7c1.59.22,3.18.39,4.76.67a49.06,49.06,0,0,1,28.26,15.39A48.47,48.47,0,0,1,141.78,66c.31,1.74.52,3.49.78,5.23ZM92.93,28.36A46.32,46.32,0,1,0,139.26,74.7,46.41,46.41,0,0,0,92.93,28.36Z"></path><path class="cls-1" d="M122.71,74.66A29.79,29.79,0,1,1,93.27,44.85,29.91,29.91,0,0,1,122.71,74.66ZM90.43,83.12c2.25-2.25,4.38-4.41,6.53-6.55a3.33,3.33,0,0,1,5.18,0c1,1.05,2.07,2.12,3.13,3.22.34-.31.58-.52.8-.75l5.69-5.68c1.78-1.78,3.58-1.78,5.38,0,.67.66,1.31,1.37,2.09,2.19.7-8.58-4.36-21.09-17.5-25.83A26.49,26.49,0,0,0,70,61.45c-6,10.28-3.59,22.48,1.74,28.75Q76.93,85,82.1,79.85a3.33,3.33,0,0,1,5.12,0C88.28,80.88,89.3,82,90.43,83.12Zm23.93-7.85a10.3,10.3,0,0,1-.74,1l-14.06,14a6.22,6.22,0,0,1-.7.66,1.65,1.65,0,0,1-2.28-2.34,6.31,6.31,0,0,1,.66-.71l5.63-5.62-3.4-3.43-.7.66q-7,7-14,14a6,6,0,0,1-.79.72,1.59,1.59,0,0,1-2.11-.19,1.57,1.57,0,0,1-.18-2.12,4.92,4.92,0,0,1,.66-.71L88,85.52l-3.25-3.28L74,93.06a25.5,25.5,0,0,0,16.62,8,26.49,26.49,0,0,0,28.07-20.25,1.63,1.63,0,0,0-.12-1.23C117.26,78.13,115.89,76.81,114.36,75.27Z"></path><path class="cls-1" d="M94.09,114.43a41.42,41.42,0,0,1-20.42-5c-.8-.44-1.39-1-1.19-2,.25-1.22,1.41-1.58,2.68-1a65.78,65.78,0,0,0,7.75,3.19,36.28,36.28,0,0,0,45.34-26.22c.05-.19.11-.37.16-.56a1.68,1.68,0,1,1,3.24.77,38.63,38.63,0,0,1-1.26,4.26C125,102,114.81,110.67,100,113.75A51.35,51.35,0,0,1,94.09,114.43Z"></path><path class="cls-1" d="M91.86,34.93c7.93.09,14.36,1.7,20.35,5,.8.45,1.39,1,1.18,2-.26,1.22-1.41,1.57-2.68,1A65.86,65.86,0,0,0,103,39.77,36.29,36.29,0,0,0,57.62,66c0,.19-.1.37-.15.56a1.69,1.69,0,1,1-3.24-.8,43.49,43.49,0,0,1,1.58-5.17c5.7-13.88,15.91-22.3,30.69-25.07C88.61,35.14,90.79,35.05,91.86,34.93Z"></path><path class="cls-2" d="M55.78,81.28c.87,0,1.44.48,1.69,1.54a35.59,35.59,0,0,0,7.26,14.8c1.11,1.34,2.37,2.56,3.57,3.82a1.71,1.71,0,0,1,.07,2.63,1.67,1.67,0,0,1-2.42-.26A38.18,38.18,0,0,1,56.33,90c-.84-2.08-1.46-4.26-2.09-6.42A1.66,1.66,0,0,1,55.78,81.28Z"></path><path class="cls-2" d="M131.72,66.41a1.64,1.64,0,0,1-1.45,1.66,1.73,1.73,0,0,1-1.84-1.38c-.63-2-1.16-4-1.93-6a34.76,34.76,0,0,0-8.59-12.5c-.16-.15-.34-.3-.49-.46a1.67,1.67,0,0,1,0-2.35,1.56,1.56,0,0,1,2.33-.05,60.19,60.19,0,0,1,4.18,4.43,38.55,38.55,0,0,1,7.71,15.76,3.56,3.56,0,0,1,.1.47C131.71,66.15,131.71,66.28,131.72,66.41Z"></path><path class="cls-2" d="M53.22,74.64a1.66,1.66,0,0,1-1.6,1.72A1.68,1.68,0,0,1,51.54,73,1.68,1.68,0,0,1,53.22,74.64Z"></path><path class="cls-1" d="M136,74.67a1.7,1.7,0,0,1-1.64,1.69,1.68,1.68,0,0,1,0-3.36A1.71,1.71,0,0,1,136,74.67Z"></path><path class="cls-1" d="M59.84,74.69a1.66,1.66,0,0,1-1.65,1.67,1.68,1.68,0,1,1,0-3.35A1.66,1.66,0,0,1,59.84,74.69Z"></path><path class="cls-2" d="M127.68,73a1.68,1.68,0,0,1,0,3.36,1.68,1.68,0,0,1,0-3.36Z"></path><path class="cls-2" d="M79,61.25c-.44-.38-.94-.75-1.36-1.19a1.63,1.63,0,0,1,0-2.34,1.65,1.65,0,0,1,2.35,0c.17.14.32.31.48.47.85.84,1.31.9,2.29.2a.79.79,0,0,0,.25-.54c0-.48,0-1,0-1.45a1.65,1.65,0,0,1,3.29,0c.05.61,0,1.23,0,1.9.17.08.35.14.5.23A1.41,1.41,0,0,0,89,58.08a2.27,2.27,0,0,1,.81-.66,1.52,1.52,0,0,1,1.87.29A1.55,1.55,0,0,1,92,59.58a1.39,1.39,0,0,1-.44.62c-1.11.78-1.36,1.68-.35,2.88.46,0,1.07,0,1.68,0a1.71,1.71,0,0,1,1.7,1.65A1.69,1.69,0,0,1,93,66.41c-.22,0-.45,0-.67,0-1.12,0-1.64.42-1.79,1.47a.89.89,0,0,0,.25.56c.3.34.65.63,1,1a1.67,1.67,0,0,1,0,2.35,1.63,1.63,0,0,1-2.42,0A2.19,2.19,0,0,1,89,71.4,1.38,1.38,0,0,0,86.78,71a1,1,0,0,0-.42.63c-.07.48,0,1,0,1.45a1.66,1.66,0,0,1-1.65,1.58A1.6,1.6,0,0,1,83,73.13c0-.26,0-.52,0-.77,0-1.11-.45-1.66-1.5-1.77a.88.88,0,0,0-.56.26c-.37.32-.68.7-1,1a1.62,1.62,0,0,1-2.27-.06,1.65,1.65,0,0,1-.08-2.28A2.17,2.17,0,0,1,78.1,69c1.05-.62.69-1.43.26-2.2a1.13,1.13,0,0,0-.71-.33c-.48-.06-1,0-1.45-.06a1.55,1.55,0,0,1-1.46-1.53,1.68,1.68,0,0,1,1.38-1.74,3.73,3.73,0,0,1,.48,0C78.24,63,78.24,63,79,61.25Zm8.94,3.48a3.23,3.23,0,0,0-3.24-3.25,3.29,3.29,0,0,0-3.31,3.31,3.32,3.32,0,0,0,3.26,3.27A3.28,3.28,0,0,0,87.93,64.73Z"></path><circle class="cls-2" cx="31.13" cy="106.82" r="2.41"></circle><circle class="cls-1" cx="144.5" cy="39.53" r="1.94"></circle><polygon class="cls-2" points="154.14 110.44 148.57 110.44 148.57 104.38 146.15 104.38 146.15 110.44 140.59 110.44 140.59 112.86 146.15 112.86 146.15 118.93 148.57 118.93 148.57 112.86 154.14 112.86 154.14 110.44"></polygon><path class="cls-1" d="M39.16,41.86H36.28V38.65a.7.7,0,0,0-.7-.69h-.17a.7.7,0,0,0-.7.69v3.21H31.83a.7.7,0,0,0-.7.7v.16a.7.7,0,0,0,.7.7h2.88v3.21a.7.7,0,0,0,.7.69h.17a.7.7,0,0,0,.7-.69V43.42h2.88a.7.7,0,0,0,.7-.7v-.16A.7.7,0,0,0,39.16,41.86Z"></path><text class="cls-3" transform="translate(69.98 158.34)">Lo<tspan class="cls-4" x="19.31" y="0">g</tspan><tspan class="cls-5" x="29.32" y="0">o</tspan></text></svg>