<svg xmlns="http://www.w3.org/2000/svg" id="Layer_1" data-name="Layer 1" viewBox="0 0 185.91 185.91"><defs><style>.cls-1,.cls-3{fill:#171143;}.cls-2{fill:#44aee3;}.cls-3{font-size:18px;font-family:Aller-Bold, Aller;font-weight:700;}.cls-4{letter-spacing:-0.02em;}.cls-5{letter-spacing:0em;}.cls-6{letter-spacing:-0.01em;}</style></defs><title>color-vision-adv.icons</title><path class="cls-1" d="M136.82,102.43a16.54,16.54,0,0,1-1.66,1.11c-9.35,4.81-18.71,9.59-28,14.42a2.84,2.84,0,0,1-3,0c-8.73-4.73-17.5-9.39-26.25-14.09a1.57,1.57,0,0,0-1.69,0L49.05,117.93a8.25,8.25,0,0,1-.95.45,1.41,1.41,0,0,1-2-1.23c0-.24,0-.48,0-.71q0-34.14,0-68.28a2.21,2.21,0,0,1,1.41-2.26q14.2-7.17,28.37-14.42a2.35,2.35,0,0,1,2.4,0c8.85,4.69,17.72,9.34,26.57,14a1.53,1.53,0,0,0,1.62,0q13.88-7.14,27.76-14.25c1.26-.64,1.72-.55,2.58.52ZM134,34.55c-.35.16-.62.28-.87.41q-12.66,6.48-25.33,12.95a1.41,1.41,0,0,0-.91,1.47q0,32.24,0,64.46v1c.42-.19.71-.3,1-.45q12.7-6.51,25.41-13a1.19,1.19,0,0,0,.75-1.22q0-32.37,0-64.73C134,35.21,134,34.93,134,34.55ZM48.9,114.81l.94-.45q12.48-6.45,25-12.88a1.3,1.3,0,0,0,.8-1.36q0-32.16,0-64.3v-1c-.4.18-.66.29-.92.42q-12.4,6.3-24.82,12.6a1.52,1.52,0,0,0-1,1.59q0,32.15,0,64.3Zm29.47-80.1v.86q0,32.32,0,64.65a1.16,1.16,0,0,0,.75,1.2q12.06,6.39,24.11,12.83c.27.14.56.26,1,.44v-1q0-32.28,0-64.56a1.31,1.31,0,0,0-.84-1.35q-7.6-3.95-15.2-8Z"></path><path class="cls-1" d="M130.37,61.9a1.79,1.79,0,0,1-1.22,1.67L117,69.82c-1.24.63-2.46,1.27-3.7,1.89-1,.48-1.73.28-2.12-.5s-.08-1.46.84-1.94L128.09,61C129.24,60.41,130.37,61,130.37,61.9Z"></path><path class="cls-2" d="M130.37,52.36a1.7,1.7,0,0,1-1.18,1.54q-4.68,2.39-9.34,4.79c-2.15,1.1-4.29,2.22-6.44,3.29-.38.19-.93.45-1.23.31-.47-.22-1.05-.71-1.11-1.15a1.76,1.76,0,0,1,.76-1.4c1.84-1.05,3.75-2,5.63-2.94l10.44-5.36a4.26,4.26,0,0,1,.73-.32A1.4,1.4,0,0,1,130.37,52.36Z"></path><path class="cls-1" d="M130.36,71.61a1.72,1.72,0,0,1-1.18,1.59c-3.59,1.83-7.18,3.68-10.77,5.52-1.7.87-3.39,1.79-5.12,2.6a2.17,2.17,0,0,1-1.56.09,1.45,1.45,0,0,1-.69-1.19A2,2,0,0,1,112,79c1.74-1,3.55-1.85,5.33-2.77l10.85-5.57C129.23,70.06,130.33,70.61,130.36,71.61Z"></path><path class="cls-2" d="M71.77,54.62c0,1.79,0,3.59,0,5.39a1.76,1.76,0,0,1-1.06,1.76C65.39,64.49,60.09,67.24,54.77,70c-1.28.66-2.22.07-2.23-1.39,0-3.66,0-7.31,0-11a1.74,1.74,0,0,1,1-1.7c5.32-2.72,10.62-5.47,15.94-8.19,1.32-.68,2.25-.09,2.26,1.42C71.78,51,71.77,52.79,71.77,54.62ZM69,51.16a1.81,1.81,0,0,0-.36.08c-4.28,2.23-8.57,4.45-12.83,6.7a1.18,1.18,0,0,0-.44.91c0,2.33,0,4.66,0,7a6.5,6.5,0,0,0,.09.73c4.45-2.32,8.82-4.58,13.16-6.87A.88.88,0,0,0,69,59C69,56.43,69,53.84,69,51.16Z"></path><path class="cls-1" d="M71.81,85.39c0,.78-.47,1.15-1.08,1.46L59.64,92.53c-1.62.84-3.24,1.68-4.87,2.5-1,.49-1.74.31-2.14-.44s-.09-1.51.86-2q8-4.12,16-8.23C70.72,83.75,71.78,84.25,71.81,85.39Z"></path><path class="cls-1" d="M53.67,85.81c-.36-.32-.86-.59-1.07-1A1.19,1.19,0,0,1,53,83.24a12.57,12.57,0,0,1,1.39-.77l14.85-7.62a6.11,6.11,0,0,1,.63-.31,1.36,1.36,0,0,1,1.8.66A1.32,1.32,0,0,1,71.14,77c-.3.19-.62.34-.93.5L55,85.28C54.61,85.47,54.21,85.59,53.67,85.81Z"></path><path class="cls-2" d="M100.49,91.26c0,2.12,0,4.25,0,6.37,0,1.56-.93,2.14-2.31,1.41-4.9-2.57-9.79-5.17-14.7-7.74a1.71,1.71,0,0,1-1-1.68c0-4.31,0-8.62,0-12.93,0-1.43,1-2,2.23-1.35,4.93,2.58,9.85,5.19,14.78,7.76a1.81,1.81,0,0,1,1,1.79C100.47,87,100.49,89.13,100.49,91.26ZM85.25,78.71c0,3.3,0,6.42,0,9.54A1.19,1.19,0,0,0,86,89.48c3,1.58,6.09,3.21,9.13,4.82l2.5,1.33a1.71,1.71,0,0,0,.1-.32c0-3.18,0-6.36,0-9.55a1,1,0,0,0-.49-.7c-1-.57-2-1.08-3-1.62Z"></path><path class="cls-1" d="M84,50a4.63,4.63,0,0,1,.74.28Q92.11,54.14,99.48,58c1,.51,1.28,1.24.91,2s-1.2,1-2.2.44L83.43,52.71a1.44,1.44,0,0,1-.94-1.77A1.32,1.32,0,0,1,84,50Z"></path><path class="cls-1" d="M83.58,61.39c.53.21.84.3,1.12.45q7.39,3.87,14.79,7.77c1,.52,1.28,1.24.89,2s-1.2,1-2.14.47c-5-2.61-9.9-5.22-14.86-7.82-.72-.38-1.16-.94-.87-1.71C82.7,62.08,83.24,61.75,83.58,61.39Z"></path><circle class="cls-2" cx="28.34" cy="102.57" r="2.41"></circle><circle class="cls-1" cx="152.21" cy="53.4" r="2.33"></circle><polygon class="cls-2" points="155.04 101.15 155.04 94.06 152.21 94.06 152.21 101.15 145.71 101.15 145.71 103.99 152.21 103.99 152.21 111.07 155.04 111.07 155.04 103.99 161.54 103.99 161.54 101.15 155.04 101.15"></polygon><path class="cls-1" d="M37.49,53.4H34.61V50.19a.7.7,0,0,0-.7-.7h-.16a.7.7,0,0,0-.7.7V53.4H30.17a.69.69,0,0,0-.7.69v.17a.7.7,0,0,0,.7.7h2.88v3.2a.7.7,0,0,0,.7.7h.16a.7.7,0,0,0,.7-.7V55h2.88a.7.7,0,0,0,.7-.7v-.17A.69.69,0,0,0,37.49,53.4Z"></path><text class="cls-3" transform="translate(31.77 159.47)">B<tspan class="cls-4" x="10.89" y="0">r</tspan><tspan class="cls-5" x="17.86" y="0">ochu</tspan><tspan class="cls-6" x="57.69" y="0">r</tspan><tspan x="64.66" y="0">e/Fl</tspan><tspan class="cls-6" x="97.09" y="0">y</tspan><tspan x="106.58" y="0">er</tspan></text></svg>