<svg xmlns="http://www.w3.org/2000/svg" id="Layer_1" data-name="Layer 1" viewBox="0 0 185.91 185.91"><defs><style>.cls-1,.cls-3{fill:#171143;}.cls-2{fill:#44aee3;}.cls-3{font-size:18px;font-family:Aller-Bold, Aller;font-weight:700;}</style></defs><title>color-vision-adv.icons</title><path class="cls-1" d="M122.78,25.06c.19.1.38.21.58.3a4.35,4.35,0,0,1-.46,8.22l-.71.24V95.3a5.12,5.12,0,0,1,0,1,1.45,1.45,0,0,1-2.86,0,6.13,6.13,0,0,1,0-1V33.76H80.15c-.29,0-.58,0-.87,0a1.51,1.51,0,0,1-1.54-1.53,1.45,1.45,0,0,1,1.55-1.39c.32,0,.64,0,1,0h40.58a6.35,6.35,0,0,0,1.15-.07,1.31,1.31,0,0,0,1.16-1.34A1.37,1.37,0,0,0,121.94,28a4.2,4.2,0,0,0-.87,0H64.8a5.61,5.61,0,0,0-.58,0,1.49,1.49,0,0,0-1.49,1.37,1.45,1.45,0,0,0,1.47,1.48c.65,0,1.29,0,1.94,0,2,0,4,0,6,0,1.07,0,1.7.54,1.73,1.41s-.67,1.5-1.75,1.51c-1.81,0-3.61,0-5.47,0v79.4h52.63v-9.68c0-1.41.46-2.08,1.43-2.09s1.47.67,1.47,2.14v9.81c.34.11.65.2,1,.31a7.21,7.21,0,0,1,4.64,7.76,3.35,3.35,0,0,1-3.31,2.82h-13c-16.4,0-32.8,0-49.2,0-3,0-4.68-1.73-4.14-5a6.88,6.88,0,0,1,4.89-5.7l.46-.16.18-.12V33.84a5.33,5.33,0,0,0-.6-.23,4.37,4.37,0,0,1-.46-8.3c.17-.07.33-.17.5-.25ZM92.9,121.33h24c2.35,0,4.71,0,7.07,0,.67,0,.94-.24.91-.91a4.47,4.47,0,0,0-1.24-3.06,4.57,4.57,0,0,0-3.46-1.17H71.4c-2.1,0-4.2,0-6.3,0A4,4,0,0,0,61,119.87c-.19,1.27,0,1.46,1.27,1.46Z"></path><path class="cls-1" d="M92.94,64.76H73.68a3.24,3.24,0,0,1-3.59-3.59V43.36c0-2.63,1.19-3.83,3.84-3.83h36.88c.67,0,1.35,0,2,0a3.12,3.12,0,0,1,3,3.12q0,9.44,0,18.88a3.18,3.18,0,0,1-3.39,3.19Zm20-4.53v-1.1c0-5.2,0-10.4,0-15.59,0-.86-.25-1.09-1.09-1.09q-18.89,0-37.77,0c-.85,0-1.09.24-1.09,1.09,0,5.23,0,10.46,0,15.69,0,.27,0,.53.07.93.27-.3.45-.49.61-.68l9.77-11.77c2-2.38,4.73-2.39,6.69,0s3.79,4.56,5.69,6.84c.22.26.45.5.69.77,1.09-1.3,2.07-2.54,3.12-3.71a4,4,0,0,1,6.12.06c.68.78,1.33,1.59,2,2.38ZM94.57,57.62,88,49.7c-.93-1.12-1.46-1.13-2.38,0Q81,55.22,76.43,60.76c-.26.31-.51.63-.78,1,.15.07.2.12.25.12,4.9,0,9.8,0,14.7,0a1,1,0,0,0,.66-.26C92.37,60.29,93.45,59,94.57,57.62ZM95,61.78h15.42c-2.36-2.84-4.61-5.57-6.9-8.27a1,1,0,0,0-1.75.11C99.49,56.29,97.28,59,95,61.78Z"></path><path class="cls-2" d="M80.27,105.63c-2.35,0-4.71,0-7.06,0a2.94,2.94,0,0,1-3.12-3.08q0-3.43,0-6.87a2.9,2.9,0,0,1,3-3.05q7.17,0,14.33,0a2.93,2.93,0,0,1,3.09,3c.06,2.32.06,4.65,0,7a3,3,0,0,1-3.2,3C85,105.64,82.63,105.63,80.27,105.63Zm-7.2-10v7.08H87.49V95.58Z"></path><path class="cls-2" d="M93,75.34H72.51c-.32,0-.64,0-1,0a1.45,1.45,0,0,1-1.46-1.49,1.48,1.48,0,0,1,1.5-1.46c.26,0,.52,0,.78,0h41.15c.45,0,1-.06,1.31.17a2.09,2.09,0,0,1,.89,1.39c0,.46-.57,1-1,1.3-.26.19-.75.11-1.14.11Z"></path><path class="cls-1" d="M92.89,85.46H72.27a4.4,4.4,0,0,1-1.15-.11,1.44,1.44,0,0,1,.14-2.79,6.29,6.29,0,0,1,1.06-.07h41.26a6.66,6.66,0,0,1,.77,0A1.44,1.44,0,0,1,115.8,84a1.48,1.48,0,0,1-1.5,1.46c-.29,0-.58,0-.87,0Z"></path><path class="cls-2" d="M105.21,102.73c2.94,0,5.87,0,8.81,0,1.15,0,1.77.51,1.78,1.44s-.63,1.46-1.76,1.46q-8.85,0-17.71,0c-1.1,0-1.78-.59-1.76-1.49s.67-1.41,1.73-1.41C99.27,102.72,102.24,102.73,105.21,102.73Z"></path><path class="cls-1" d="M105.2,92.63H114c1.17,0,1.78.5,1.79,1.42s-.64,1.5-1.84,1.5H96.44c-.9,0-1.6-.27-1.82-1.23s.47-1.69,1.58-1.7C99.2,92.61,102.2,92.63,105.2,92.63Z"></path><circle class="cls-2" cx="154.21" cy="109.23" r="2.41"></circle><circle class="cls-1" cx="30.23" cy="57.44" r="1.94"></circle><polygon class="cls-2" points="40.16 109.23 34.6 109.23 34.6 103.16 32.17 103.16 32.17 109.23 26.61 109.23 26.61 111.65 32.17 111.65 32.17 117.71 34.6 117.71 34.6 111.65 40.16 111.65 40.16 109.23"></polygon><path class="cls-1" d="M155.47,32.26h-2.88v-3.2a.7.7,0,0,0-.7-.7h-.17a.7.7,0,0,0-.7.7v3.2h-2.88a.71.71,0,0,0-.7.7v.17a.71.71,0,0,0,.7.7H151V37a.7.7,0,0,0,.7.7h.17a.7.7,0,0,0,.7-.7v-3.2h2.88a.71.71,0,0,0,.7-.7V33A.71.71,0,0,0,155.47,32.26Z"></path><text class="cls-3" transform="translate(64.35 158.34)">Banner</text></svg>