<svg xmlns="http://www.w3.org/2000/svg" id="Layer_1" data-name="Layer 1" viewBox="0 0 185.91 185.91"><defs><style>.cls-1{fill:#171143;}.cls-2{fill:#44aee3;}.cls-3{font-size:18px;fill:#231f20;font-family:Aller-Bold, Aller;font-weight:700;}.cls-4{letter-spacing:-0.02em;}</style></defs><title>color-vision-adv.icons</title><path class="cls-1" d="M90.12,117.19c-1.23-.17-2.46-.3-3.68-.5A42,42,0,0,1,58.62,99.78a41.18,41.18,0,0,1-7.8-19.23,54.74,54.74,0,0,1-.38-5.87,3.31,3.31,0,1,1,6.61-.05A35.23,35.23,0,0,0,63,94.35c6,8.9,14.35,14.3,25,15.81a34.33,34.33,0,0,0,24.53-5.48c9-6,14.44-14.34,15.9-25A35.92,35.92,0,0,0,98,39.15a48,48,0,0,0-5-.36,3.32,3.32,0,0,1-3.37-3.35A3.23,3.23,0,0,1,93,32.15c16.76.47,29.27,8.06,37.49,22.63a40.34,40.34,0,0,1,4.74,15.42c.06.55.13,1.09.2,1.64v5.64c-.13,1-.24,2.08-.39,3.12a42.61,42.61,0,0,1-35.72,36.1c-1.19.19-2.39.32-3.59.49Z"></path><path class="cls-2" d="M96.26,71.34c3.29,0,6.46,0,9.64,0a4.68,4.68,0,0,1,1.3.15,3.3,3.3,0,0,1-.87,6.47c-3,0-6,0-9,0h-1v.92c0,3,0,5.92,0,8.88a3.32,3.32,0,1,1-6.63,0c0-3.24,0-6.47,0-9.82H79.82a3.32,3.32,0,1,1,0-6.64c3.23,0,6.46,0,9.82,0v-.92c0-3,0-5.92,0-8.88a3.32,3.32,0,1,1,6.63,0C96.27,64.76,96.26,68,96.26,71.34Z"></path><path class="cls-1" d="M70.19,45.26a3.21,3.21,0,0,1-1,2.39c-1.08,1.11-2.16,2.21-3.28,3.28A3.29,3.29,0,0,1,61.3,51a3.21,3.21,0,0,1-.19-4.61,47.26,47.26,0,0,1,3.77-3.72,2.94,2.94,0,0,1,3.41-.37A3.23,3.23,0,0,1,70.19,45.26Z"></path><path class="cls-2" d="M76,42.64a3.38,3.38,0,0,1-3.4-2.47,3.2,3.2,0,0,1,1.62-3.72,49.83,49.83,0,0,1,5-2.06,3.29,3.29,0,0,1,2.51,6.06c-1.59.76-3.24,1.38-4.88,2A3.44,3.44,0,0,1,76,42.64Z"></path><path class="cls-2" d="M57.39,54.2a3.3,3.3,0,0,1,3.39,4.25,42.46,42.46,0,0,1-2,4.88,3.3,3.3,0,0,1-6.08-2.5c.59-1.66,1.29-3.29,2-4.88A3,3,0,0,1,57.39,54.2Z"></path><circle class="cls-2" cx="151.94" cy="109.23" r="2.41"></circle><circle class="cls-1" cx="35.83" cy="51.51" r="1.94"></circle><rect class="cls-2" x="24.84" y="79.78" width="2.75" height="16.48"></rect><rect class="cls-2" x="24.84" y="80.34" width="2.75" height="15.35" transform="translate(114.23 61.81) rotate(90)"></rect><rect class="cls-1" x="150.57" y="56.9" width="2.75" height="16.48" rx="1"></rect><rect class="cls-1" x="150.57" y="57.47" width="2.75" height="15.35" rx="1" transform="translate(217.08 -86.8) rotate(90)"></rect><text class="cls-3" transform="translate(25.56 158.34)">And many mo<tspan class="cls-4" x="112.32" y="0">r</tspan><tspan x="119.28" y="0">e!</tspan></text></svg>