<svg xmlns="http://www.w3.org/2000/svg" id="Layer_1" data-name="Layer 1" viewBox="0 0 185.91 185.91"><defs><style>.cls-1,.cls-3{fill:#171143;}.cls-2{fill:#44aee3;}.cls-3{font-size:18px;font-family:Aller-Bold, Aller;font-weight:700;}.cls-4{letter-spacing:-0.02em;}.cls-5{letter-spacing:-0.01em;}.cls-6{letter-spacing:-0.02em;}</style></defs><title>color-vision-adv.icons</title><path class="cls-1" d="M133.72,43.66H50a7.77,7.77,0,0,0-7.76,7.75V97.92A7.77,7.77,0,0,0,50,105.67h83.71a7.76,7.76,0,0,0,7.75-7.75V51.41A7.76,7.76,0,0,0,133.72,43.66Zm4.65,54.26a4.66,4.66,0,0,1-4.65,4.65H50a4.66,4.66,0,0,1-4.66-4.65V51.41A4.66,4.66,0,0,1,50,46.76h83.71a4.66,4.66,0,0,1,4.65,4.65Z"></path><path class="cls-2" d="M57.76,66.91a7.76,7.76,0,0,0,7.75-7.75,7.41,7.41,0,0,0-.25-1.93,1.55,1.55,0,1,0-3,.77,4.56,4.56,0,0,1,.15,1.16,4.65,4.65,0,1,1-4.65-4.65,4.56,4.56,0,0,1,1.16.15,1.55,1.55,0,1,0,.78-3,7.94,7.94,0,0,0-1.94-.25,7.75,7.75,0,1,0,0,15.5Z"></path><path class="cls-2" d="M70.16,60.71h4.65a1.55,1.55,0,1,0,0-3.1H70.16a1.55,1.55,0,1,0,0,3.1Z"></path><path class="cls-1" d="M81,60.71h20.15a1.55,1.55,0,1,0,0-3.1H81a1.55,1.55,0,0,0,0,3.1Z"></path><path class="cls-1" d="M130.62,71.57h-31a1.55,1.55,0,0,0,0,3.1h31a1.55,1.55,0,1,0,0-3.1Z"></path><path class="cls-1" d="M130.62,77.77h-45a1.55,1.55,0,1,0,0,3.1h45a1.55,1.55,0,0,0,0-3.1Z"></path><path class="cls-1" d="M57.76,85.52a1.55,1.55,0,0,0,1.55,1.55H79.46a1.55,1.55,0,1,0,0-3.1H59.31A1.54,1.54,0,0,0,57.76,85.52Z"></path><path class="cls-2" d="M53.11,84a1.54,1.54,0,0,0-1.55,1.55A1.54,1.54,0,0,0,52,86.61a1.53,1.53,0,0,0,2.19,0,1.55,1.55,0,0,0,.46-1.09A1.55,1.55,0,0,0,53.11,84Z"></path><path class="cls-2" d="M53.11,90.17a1.54,1.54,0,0,0-1.55,1.55A1.52,1.52,0,0,0,52,92.81a1.53,1.53,0,0,0,2.19,0,1.55,1.55,0,0,0,.46-1.09,1.55,1.55,0,0,0-1.55-1.55Z"></path><path class="cls-1" d="M90.31,90.17h-31a1.55,1.55,0,0,0,0,3.1h31a1.55,1.55,0,0,0,0-3.1Z"></path><circle class="cls-2" cx="146" cy="110.38" r="2.41"></circle><circle class="cls-1" cx="24.11" cy="42.95" r="2.33"></circle><polygon class="cls-2" points="34.78 96.5 28.28 96.5 28.28 89.42 25.45 89.42 25.45 96.5 18.95 96.5 18.95 99.34 25.45 99.34 25.45 106.42 28.28 106.42 28.28 99.34 34.78 99.34 34.78 96.5"></polygon><path class="cls-1" d="M164.2,56.83h-2.88v-3.2a.7.7,0,0,0-.7-.7h-.17a.69.69,0,0,0-.69.7v3.2h-2.89a.69.69,0,0,0-.69.7v.17a.69.69,0,0,0,.69.69h2.89V61.6a.7.7,0,0,0,.69.7h.17a.71.71,0,0,0,.7-.7V58.39h2.88a.69.69,0,0,0,.7-.69v-.17A.7.7,0,0,0,164.2,56.83Z"></path><text class="cls-3" transform="translate(35.08 159.47)">Busine<tspan class="cls-4" x="55.67" y="0">s</tspan><tspan x="63.56" y="0">s </tspan><tspan class="cls-5" x="75.8" y="0">C</tspan><tspan x="86.74" y="0">a</tspan><tspan class="cls-6" x="96.14" y="0">r</tspan><tspan x="103.1" y="0">d</tspan></text></svg>