<svg xmlns="http://www.w3.org/2000/svg" viewBox="0 0 438.82 433.91"><defs><style>.cls-1{fill:#f2f0fc;}.cls-2{fill:#ffaba1;}.cls-3{fill:#a8a8a8;}.cls-11,.cls-4{opacity:0.1;}.cls-5{fill:#262551;}.cls-6{fill:#656083;}.cls-12,.cls-7{fill:#fff;}.cls-8{fill:#00b4ff;}.cls-9{fill:#150d43;}.cls-10{fill:#ff9bbe;}.cls-12{opacity:0.3;}.cls-13{fill:#75b6ea;}.cls-14{fill:#92d0f7;}.cls-15{fill:#7d96f3;}.cls-16{fill:#dcdcdc;}.cls-17{fill:#2b454e;}</style></defs><title>color-vision-adv-design-process</title><g id="Illustration"><path class="cls-1" d="M50.06,372.88C58.93,382.21,67.32,388.24,74,393c77.93,55.92,170.15,39.62,189.75,35.64,28.94-5.88,84.88-17.24,125.33-64.8,61.18-72,51.66-185.33,4.19-260.16C384.54,90,338.68,14,245.47,1.82c-56.4-7.37-122.16,7.5-169.78,47.39C-24.26,133-17.14,302.13,50.06,372.88Z"></path><path class="cls-2" d="M340.84,119.26c-6,2.85-26.91,8.25-35.61,2.44-7.8-5.21-8.46-42.59-5.21-54.57,1.14-4.21,17.75,3.86,19.51,7.39,1.51,3-.95,31.25.25,31.87,2,1,8.62,1.83,19.12,3.29C348.77,111.06,345.05,117.26,340.84,119.26Z"></path><path class="cls-3" d="M320,86.88,297.75,76.37s-3.83,38.05,7,46.07c2.49,1.85,19.14,4.92,34.82-1.79,4.85-2.08,12.39-9.25-2-11.52s-17.05-3.09-17.31-3.45S320,86.88,320,86.88Z"></path><g class="cls-4"><path d="M309.26,95.15a1.92,1.92,0,0,0,2.64-.23c1.27-1.44.65-3.89,0-5.51s-1.82-3.4-3.72-3.69a1.51,1.51,0,0,0-1.67,2c.26,1.25.92,2.41,1.24,3.66S308,94.25,309.26,95.15Z"></path><path d="M311.45,102.81c1.12-.61,1.31-2.23,1.3-3.35a3.2,3.2,0,0,0-.5-1.73,1.6,1.6,0,0,0-2.19-.57,2.09,2.09,0,0,0-.8,1.35,4.49,4.49,0,0,0-.09.83.28.28,0,0,0,0,.08v.07A5.39,5.39,0,0,0,309,102,1.64,1.64,0,0,0,311.45,102.81Z"></path><path d="M317.45,100.21A10.14,10.14,0,0,0,318,94c-.32-1.65-.95-4.37-2.86-4.8a1,1,0,0,0-1,.53c-.77,1.25,0,3.4.13,4.76.15,1.72,0,3.45.16,5.17A1.65,1.65,0,0,0,317.45,100.21Z"></path><path d="M306.91,108.78a2.18,2.18,0,0,0,.87.41,1.94,1.94,0,0,0,1.42-.3,3.1,3.1,0,0,0,1-1.18,2.86,2.86,0,0,0,.28-1.41l-.09-.45-.21-.42a1.78,1.78,0,0,0-2.77-.13,9.54,9.54,0,0,0-1,1.23l-.14.46a1.39,1.39,0,0,0,0,.73A1.78,1.78,0,0,0,306.91,108.78Z"></path><path d="M312.76,108.23a1.61,1.61,0,0,0,1.84-.4,3.93,3.93,0,0,0,.79-1.85,3.34,3.34,0,0,0-.06-1.88,1.23,1.23,0,0,0-2.07-.38,6,6,0,0,0-.7,1.35c-.1.2-.2.38-.31.57a4.26,4.26,0,0,0-.35.92A1.54,1.54,0,0,0,312.76,108.23Z"></path></g><path class="cls-5" d="M298.36,82.07a57.1,57.1,0,0,1,5.4,2.2q2.63,1.13,5.23,2.29c3.52,1.57,7.09,3.06,10.5,4.85a.07.07,0,0,1-.06.13c-3.68-1.22-7.25-2.83-10.8-4.39-1.78-.78-3.55-1.59-5.31-2.41a51.48,51.48,0,0,1-5-2.54C298.21,82.15,298.28,82.05,298.36,82.07Z"></path><path class="cls-6" d="M339.59,120.65c-15.68,6.71-32.33,3.64-34.82,1.79-5-3.72-6.9-13.9-7.47-23.75l22.83,5.15a12.48,12.48,0,0,0,.12,1.84c.27.36,2.89,1.17,17.31,3.45S344.45,118.57,339.59,120.65Z"></path><path class="cls-2" d="M286.24,374.85c1.89.63,55.64.47,57.69-.83.77-.49,1.21-8.32,1.46-17.8.06-2,.1-4.15.13-6.3,0-2.55.08-5.12.09-7.62.07-11.23-.09-21.11-.09-21.11h-35l0,21.11v7.62l.18,6.3s-20.55,9.27-22.64,10.94S284.37,374.23,286.24,374.85Z"></path><path class="cls-7" d="M286.24,374.85c1.89.63,55.64.47,57.69-.83.77-.49,1.21-8.32,1.46-17.8.06-2,.1-4.15.13-6.3,0-2.55.08-5.12.09-7.62H310.55v7.62l.18,6.3s-20.55,9.27-22.64,10.94S284.37,374.23,286.24,374.85Z"></path><path class="cls-8" d="M286.08,374.93c1.23.4,24.12.49,40.79.14,3.86-.08,7.39-.19,10.23-.31,3.93-.18,6.56-.4,7-.67.94-.61,1.39-12.1,1.61-24.23H310.53l.18,6.34s-20.66,9.32-22.77,11S284.2,374.3,286.08,374.93Z"></path><path class="cls-5" d="M286.85,372.77c9.06-.25,45.63-.4,54.6,0,.07,0,.07.06,0,.06-9,.44-45.54.29-54.6.05C286.66,372.91,286.66,372.77,286.85,372.77Z"></path><path class="cls-5" d="M309.43,354.19c3.56-.68,7.92-.14,10.65,2.39.11.1,0,.25-.15.21a49.86,49.86,0,0,0-10.49-2.15A.23.23,0,0,1,309.43,354.19Z"></path><path class="cls-5" d="M306.86,355.75c3.56-.68,7.92-.14,10.66,2.39.1.1,0,.25-.16.21a49.86,49.86,0,0,0-10.49-2.15A.23.23,0,0,1,306.86,355.75Z"></path><path class="cls-5" d="M304.29,357.31c3.56-.68,7.92-.14,10.66,2.39.1.1,0,.24-.15.21a50.08,50.08,0,0,0-10.5-2.15A.23.23,0,0,1,304.29,357.31Z"></path><path class="cls-5" d="M301.72,358.86c3.56-.67,7.93-.14,10.66,2.4.1.09,0,.24-.15.21a50,50,0,0,0-10.49-2.15A.23.23,0,0,1,301.72,358.86Z"></path><path class="cls-5" d="M304.43,351c2.53,1.95,5.81,2.74,8.76,3.82a.44.44,0,0,0,.56-.44.09.09,0,0,0,.08-.13,19,19,0,0,0-5.51-8.15c-1.5-1.25-4.11-2.11-5.5-.18S303,349.9,304.43,351Zm-.92-2.87c-.64-3.91,3.57-1.87,4.63-.91a20.31,20.31,0,0,1,1.9,2,56.73,56.73,0,0,1,3.32,4.69c-1.41-.62-2.87-1.11-4.3-1.68C307.34,351.63,303.87,350.33,303.51,348.17Z"></path><path class="cls-5" d="M325.72,348.82c-.87-2.22-3.61-2-5.37-1.2a19.06,19.06,0,0,0-7.37,6.51c-.05.07,0,.12,0,.15,0,.26.11.6.43.57,3.13-.31,6.51-.26,9.44-1.52C324.6,352.59,326.54,350.92,325.72,348.82Zm-7.63,4.59c-1.53.19-3.06.3-4.59.55a55.52,55.52,0,0,1,4.39-3.71,19.9,19.9,0,0,1,2.35-1.5c1.27-.67,5.85-1.59,4.25,2C323.61,352.78,319.92,353.18,318.09,353.41Z"></path><path class="cls-9" d="M357.19,172.07s-9.45,93.54-9.68,94.72c0,.16-.09,2-.19,4.89-.51,16.11-1.76,66.31-1.76,66.31H307s2.52-59.46,4-73.34c1.85-17.7,13.46-92.58,13.46-92.58Z"></path><path class="cls-5" d="M342.91,270.09q1.79-30.4,5.37-60.66c1.35-11.36,3-22.69,4.61-34,0-.1.17-.09.15,0-3,20.16-5.1,40.48-6.92,60.78s-3.09,40.59-3.92,60.93c-.48,11.52-.83,23.05-1.2,34.58a.22.22,0,0,1-.43,0C341.12,311.15,341.71,290.61,342.91,270.09Z"></path><path class="cls-5" d="M309.41,331.77c1-.13,2.1-.09,3.13-.12s2.32,0,3.48-.09q3.35-.13,6.7-.18,6.76-.12,13.52.09l3.72.13c1.32,0,2.64.17,4,.17.1,0,.1.12,0,.11-2.27,0-4.56.2-6.83.28s-4.47.12-6.71.16c-4.5.06-9,0-13.52-.15l-3.71-.1-2-.08c-.59,0-1.17,0-1.76-.06C309.3,331.92,309.31,331.79,309.41,331.77Z"></path><path class="cls-5" d="M357.19,172.07s-9.45,93.54-9.68,94.72c0,.16-.09,2-.19,4.89l-18.19-99.61Z"></path><path class="cls-2" d="M386.4,373.19c2-.21,50.86-22.53,52.19-24.56.51-.77-2.33-8.08-6-16.82-.78-1.89-1.53-3.87-2.48-5.8-1.18-2.42-2.39-4.83-3.58-7.14-5.17-10.05-9.9-18.29-9.9-18.29l-31,14,8.95,18.31,3.66,7.52,2.76,5.67S386.12,363,384.9,365.41,384.43,373.39,386.4,373.19Z"></path><path class="cls-7" d="M386.4,373.19c2-.21,50.86-22.53,52.19-24.56.51-.77-2.33-8.08-6-16.82-.78-1.89-1.53-3.87-2.48-5.8-1.18-2.42-2.39-4.83-3.58-7.14-9.57,4.27-23.35,10.31-31.93,14.05l3.66,7.52,2.76,5.67S386.12,363,384.9,365.41,384.43,373.39,386.4,373.19Z"></path><path class="cls-8" d="M386.28,373.32c2-.21,51.15-22.65,52.49-24.69.61-.94-3.72-11.6-8.54-22.74l-32,14.5L401,346.1s-15,17-16.2,19.4S384.3,373.53,386.28,373.32Z"></path><path class="cls-5" d="M386.09,371c8.15-4,41.39-19.18,49.75-22.48.07,0,.09,0,0,.05-8,4.1-41.36,19.06-49.71,22.57C386,371.24,385.91,371.12,386.09,371Z"></path><path class="cls-5" d="M399,344.79c3-2.08,7.16-3.39,10.69-2.21.14,0,.07.24-.05.25a50,50,0,0,0-10.44,2.37A.23.23,0,0,1,399,344.79Z"></path><path class="cls-5" d="M397.29,347.27c3-2.08,7.16-3.39,10.69-2.21.14,0,.07.24-.05.25a50,50,0,0,0-10.44,2.37A.23.23,0,0,1,397.29,347.27Z"></path><path class="cls-5" d="M395.59,349.75c3-2.08,7.16-3.39,10.7-2.21.13,0,.07.23-.05.25a49.91,49.91,0,0,0-10.45,2.37A.23.23,0,0,1,395.59,349.75Z"></path><path class="cls-5" d="M393.89,352.23c3-2.08,7.17-3.39,10.7-2.22.14.05.07.24,0,.26a50.06,50.06,0,0,0-10.45,2.37A.23.23,0,0,1,393.89,352.23Z"></path><path class="cls-5" d="M393.13,344c3.11.74,6.43.11,9.56-.12a.45.45,0,0,0,.33-.64s.07-.1,0-.15a19,19,0,0,0-8.39-5.15c-1.87-.52-4.61-.23-5.08,2.11S391.32,343.55,393.13,344Zm-2-2.23c-2.2-3.3,2.47-3.17,3.84-2.73a19.9,19.9,0,0,1,2.57,1.07,57.29,57.29,0,0,1,5,2.9c-1.54,0-3.07.17-4.62.25C396,343.33,392.33,343.57,391.12,341.75Z"></path><path class="cls-5" d="M411.61,333.18c-1.71-1.66-4.13-.37-5.39,1.12a19.11,19.11,0,0,0-4,9,.1.1,0,0,0,.11.11.45.45,0,0,0,.63.35c2.71-1.58,5.81-2.92,8-5.28C412.15,337.08,413.23,334.76,411.61,333.18Zm-5.05,7.33c-1.32.8-2.67,1.54-4,2.4.79-1.75,1.51-3.53,2.47-5.2a20.68,20.68,0,0,1,1.52-2.33c.88-1.13,4.67-3.87,4.71.1C411.33,337.66,408.13,339.55,406.56,340.51Z"></path><path class="cls-9" d="M324.39,172.07s2.54,13.51,12,20.38c0,0,20.78,69.56,23.48,77.53,4.66,13.75,29.67,60.3,29.67,60.3l38.61-16.57s-29.45-51.87-32.63-55.86c-2.11-2.66-17.74-59-17.77-60.49-.33-16.57-5.88-25.38-5.88-25.38Z"></path><path class="cls-5" d="M355.63,177a12.91,12.91,0,0,0,4.72,6.79,16,16,0,0,0,8.57,2.93c.52,0,.57.83,0,.83-6.29,0-12.65-4-13.57-10.51C355.35,176.86,355.59,176.82,355.63,177Z"></path><path class="cls-5" d="M330.32,188.17a35.2,35.2,0,0,1,6.5,3.45c2.16,1.34,4.16,2.9,6.24,4.35a.08.08,0,0,1-.08.13c-2.18-1.26-4.46-2.35-6.62-3.65a40.24,40.24,0,0,1-6.13-4.11A.1.1,0,0,1,330.32,188.17Z"></path><path class="cls-5" d="M329.44,175.06c.33,1.44.75,2.86,1.13,4.29s.64,2.72,1.06,4a6.9,6.9,0,0,0,2.05,3.33c.55.47,1.16.88,1.75,1.31.31.23.66.45,1,.68-.05-.19-.09-.38-.13-.58l-.36-1.64c-.26-1.22-.51-2.43-.76-3.65-.47-2.4-.93-4.82-1.54-7.18a.08.08,0,0,1,.15,0c.71,2.34,1.48,4.65,2.11,7,.31,1.16,1.49,6.9,1.55,7.31s.12.84.15,1.26a5.16,5.16,0,0,1,.06,1.3c0,.11-.15.09-.19,0h0a5.36,5.36,0,0,1-.43-1.24c-.12-.41-.23-.82-.33-1.24l-.09-.45c-.58-.32-1.13-.76-1.68-1.12s-1.2-.77-1.76-1.2a6.45,6.45,0,0,1-2.22-3.14,24.07,24.07,0,0,1-.87-4.13c-.26-1.63-.47-3.27-.77-4.9A.08.08,0,0,1,329.44,175.06Z"></path><path class="cls-5" d="M389.41,322.49c.87-.53,10-4.78,12-5.71,4.1-1.88,18.24-7.68,19.58-8.16.44-.16.47.08.13.24-2.09,1-10.28,4.77-12.31,5.7-4.1,1.86-18.81,7.91-19.38,8.07A.07.07,0,0,1,389.41,322.49Z"></path><path class="cls-5" d="M369.33,173.66a30.62,30.62,0,0,1,3.91,8.2,31.13,31.13,0,0,1,1.44,9,29.19,29.19,0,0,1-.33,4.57c-.07.37-.12.75-.2,1.13l-.12.56a1.62,1.62,0,0,0-.06.48,22.15,22.15,0,0,0,.44,2.18c.69,2.95,1.47,5.88,2.25,8.81,3.14,11.71,6.33,23.41,9.68,35.06l2.52,8.73c.43,1.46.86,2.91,1.32,4.34.23.72.47,1.45.74,2.11s.63,1.33,1,2c2.86,5.32,5.95,10.55,8.93,15.83,0,0,15.22,25.56,18.35,31.45.15.28.08.45-.21.09-2.72-3.55-12.63-20.71-18.81-31.15-3.09-5.22-6.14-10.46-9.06-15.8-.37-.65-.71-1.36-1.05-2.05s-.54-1.46-.78-2.19c-.47-1.45-.91-2.9-1.35-4.35q-1.32-4.36-2.56-8.74c-3.26-11.68-6.49-23.38-9.44-35.15-.73-2.94-1.46-5.88-2.12-8.85a23,23,0,0,1-.42-2.28,2.08,2.08,0,0,1,.09-.64l.12-.55c.09-.37.14-.74.21-1.11a30.58,30.58,0,0,0,.41-4.48A32.12,32.12,0,0,0,369.33,173.66Z"></path><path class="cls-8" d="M319.53,140.43q-2.32,7-5,12.95L297,149.75a8.56,8.56,0,0,1-6.65-10.12,8.4,8.4,0,0,1,1.64-3.49,9.18,9.18,0,0,1,3-2.46,17.86,17.86,0,1,0-22.17-4.6,8.74,8.74,0,0,1,1.88,7.3A8.58,8.58,0,0,1,264.6,143l-43.88-9.11L229.83,90a8.58,8.58,0,0,0-6.65-10.13,8.47,8.47,0,0,0-3.85.12,9.2,9.2,0,0,0-3.45,1.76,17.86,17.86,0,1,1,4.6-22.17,8.79,8.79,0,0,0,6,4.63,8.58,8.58,0,0,0,10.13-6.64l9.1-43.88h.05C265.53,17.86,281.14,26.61,293,38a96.21,96.21,0,0,1,20.33,28.46C325.16,91.47,326.3,120,319.53,140.43Z"></path><path class="cls-6" d="M375,177.35l-53.71.37c0,1.05,2.72-42.09,16.49-67.55.94-1.74,9.37-3.65,13.11-.25C367.27,124.85,375,178,375,177.35Z"></path><g class="cls-4"><path d="M337.17,165a2.43,2.43,0,0,0-4,1c-.69,2.12.69,4.19,2.53,5.19a7,7,0,0,0,6.27.26c1.89-.86,1.38-3.81-.49-4.31a14.28,14.28,0,0,1-2.67-.66C338.12,166.19,337.74,165.51,337.17,165Z"></path><path d="M334.82,158c-1.11,3.2,3.59,6.64,6.4,5.23a1.75,1.75,0,0,0,.41-2.72c-.67-.71-1.3-.89-1.9-1.53a2.74,2.74,0,0,1-.53-.72,4.86,4.86,0,0,0-1.28-1.47A2.11,2.11,0,0,0,334.82,158Z"></path><path d="M326.71,157.18c-1.21,1.22-.68,3.36.08,4.71a4.2,4.2,0,0,0,3.55,2.32,1.42,1.42,0,0,0,1-2.37,4.47,4.47,0,0,1-1.13-1.86c-.33-1.07-.47-2.43-1.55-3A1.66,1.66,0,0,0,326.71,157.18Z"></path><path d="M346.91,163.25a1.61,1.61,0,0,0-1.6,1.57,1.9,1.9,0,0,0,1.57,1.82,2.89,2.89,0,0,0,1.79-.2,1.31,1.31,0,0,0,.62-.71,1.33,1.33,0,0,0,.09-.94,1.49,1.49,0,0,0-1.31-1.1,1.28,1.28,0,0,0-.22-.17A1.83,1.83,0,0,0,346.91,163.25Z"></path><path d="M330.51,149.61c-1.25,1.64-.25,4.92,1.49,5.85a1.54,1.54,0,0,0,2.32-1.28,6.65,6.65,0,0,0-.1-1c-.05-.37-.12-.6-.13-.82a8.2,8.2,0,0,0-.18-2.22A1.9,1.9,0,0,0,330.51,149.61Z"></path><path d="M325.91,166.75c-1.71,2.58,2,6.22,4.6,6,.86-.07,1.81-1.07,1.16-2-.51-.71-1.16-1.3-1.63-2-.58-.9-.82-2-1.84-2.55A1.71,1.71,0,0,0,325.91,166.75Z"></path></g><g class="cls-4"><path d="M365.44,161.86a5.21,5.21,0,0,1-.73,2.66,12.76,12.76,0,0,0-1.84,2.37,1.27,1.27,0,0,0,1.37,1.7,6.06,6.06,0,0,0,4.52-6.8A1.68,1.68,0,0,0,365.44,161.86Z"></path><path d="M361.51,153.92c-.35,1.22-.1,2.53-.36,3.79a30.62,30.62,0,0,1-.88,3.42c-.27.81.6,1.94,1.48,1.42a6.5,6.5,0,0,0,3.11-3.59c.49-1.42.94-3.76.15-5.12S362,152.15,361.51,153.92Z"></path><path d="M358,166.16a8,8,0,0,1-2.41,2.5,1.85,1.85,0,1,0,1.9,3.13,6.62,6.62,0,0,0,3.22-4.59A1.51,1.51,0,0,0,358,166.16Z"></path></g><g class="cls-4"><path d="M344.23,127.67A1.91,1.91,0,0,0,346.3,126c.26-1.9-1.61-3.6-3.05-4.6s-3.39-1.82-5.14-1a1.51,1.51,0,0,0-.31,2.55c.91.9,2.1,1.5,3.06,2.36S342.71,127.6,344.23,127.67Z"></path><path d="M350.29,132.84c.6-1.12-.14-2.58-.77-3.51a3.15,3.15,0,0,0-1.37-1.16,1.6,1.6,0,0,0-2.14.73,2,2,0,0,0,.08,1.57,4.31,4.31,0,0,0,.38.74l0,.08,0,.06a5.33,5.33,0,0,0,1.27,2.17A1.64,1.64,0,0,0,350.29,132.84Z"></path><path d="M353.85,127.36a10.09,10.09,0,0,0-3-5.47c-1.18-1.2-3.21-3.12-5-2.42a1,1,0,0,0-.57,1c.05,1.46,1.89,2.82,2.74,3.89,1.08,1.35,1.9,2.89,3,4.22A1.65,1.65,0,0,0,353.85,127.36Z"></path><path d="M349.81,140.33a2.41,2.41,0,0,0,1-.14,2,2,0,0,0,1-1,3,3,0,0,0,.15-1.52,2.83,2.83,0,0,0-.54-1.33l-.33-.32-.4-.23a1.72,1.72,0,0,0-1.12-.05,1.77,1.77,0,0,0-1.27,1.47,9,9,0,0,0-.12,1.56l.14.46a1.33,1.33,0,0,0,.42.59A1.79,1.79,0,0,0,349.81,140.33Z"></path><path d="M354.38,136.63a1.59,1.59,0,0,0,1.31-1.35,3.88,3.88,0,0,0-.37-2,3.35,3.35,0,0,0-1.08-1.53,1.23,1.23,0,0,0-1.94.83,6,6,0,0,0,.16,1.51c0,.22.05.43.06.65a4.37,4.37,0,0,0,.22,1A1.53,1.53,0,0,0,354.38,136.63Z"></path></g><path class="cls-2" d="M349.07,123.47c-3.34,7.18-18.72,34.49-29.13,35.58-12.61,1.33-28.65-1.49-35.65-4.89-3.92-1.91,6.27-21.09,10-19.82,5.89,2,17.36,3,19.64,3.18S332.15,125.6,341,119C349,113,351,119.24,349.07,123.47Z"></path><path class="cls-2" d="M281.78,134c1.39-.05,1.37-.78-.63-2.23s-11.16-5.49-9.48-8.57,14.52,2.81,17.67,5.49a66,66,0,0,1,7.31,8.09C293.92,136.12,287.15,135.19,281.78,134Z"></path><path class="cls-2" d="M290.09,156.19c-7.83-1.95-17.6-4.22-23.8-10.62A4.38,4.38,0,0,1,265,143c-2.83-2.82-2.35-5-2.35-5-1.84-3.43-1-5.6-1-5.6s-3.29-3.34-1.6-5.67c1.89-2.61,6.14,2.6,10.23,4,9.37,3.29,23.61,5.34,26.41,6Z"></path><path class="cls-5" d="M277.64,141.09a62.76,62.76,0,0,1-8-3.34,64.07,64.07,0,0,1-7.88-5.38.08.08,0,0,0-.1.12,33.74,33.74,0,0,0,16,8.73C277.73,141.25,277.78,141.15,277.64,141.09Z"></path><path class="cls-5" d="M276.47,147a47.2,47.2,0,0,1-13.76-9.13s-.06,0,0,0a30.26,30.26,0,0,0,13.75,9.21C276.59,147.22,276.65,147.11,276.47,147Z"></path><path class="cls-5" d="M275.79,150.22A47.38,47.38,0,0,1,265,143s-.06,0,0,0c4.06,4.15,6,5.2,10.75,7.36C275.9,150.45,276,150.3,275.79,150.22Z"></path><path class="cls-6" d="M299.08,134.43l-8.57,23.75s22.4,4.71,31.38,1.35,20.85-21,26.47-31.35,2.67-19-11.79-7.49-21.45,15.92-22.46,16.13S299.08,134.43,299.08,134.43Z"></path><g class="cls-4"><path d="M319.91,154a5.23,5.23,0,0,1-2.62.86,12.62,12.62,0,0,0-3-.23,1.27,1.27,0,0,0-.66,2.08,6.05,6.05,0,0,0,8.16,0A1.68,1.68,0,0,0,319.91,154Z"></path><path d="M324.37,146.36c-1.21.39-2.17,1.31-3.36,1.8a31.31,31.31,0,0,1-3.34,1.14c-.82.23-1.29,1.57-.37,2a6.52,6.52,0,0,0,4.7.62c1.46-.37,3.66-1.29,4.36-2.7S326.12,145.81,324.37,146.36Z"></path><path d="M312.22,150.18a7.81,7.81,0,0,1-3.41-.63,1.85,1.85,0,1,0-1.57,3.31,6.67,6.67,0,0,0,5.61.16A1.52,1.52,0,0,0,312.22,150.18Z"></path></g><g class="cls-4"><path d="M344.23,127.67A1.91,1.91,0,0,0,346.3,126c.26-1.9-1.61-3.6-3.05-4.6s-3.39-1.82-5.14-1a1.51,1.51,0,0,0-.31,2.55c.91.9,2.1,1.5,3.06,2.36S342.71,127.6,344.23,127.67Z"></path><path d="M348.31,128.26c-.53,1-1.12,2-1.76,3.11,0,0,0,0,0,0a.36.36,0,0,1,0-.07l-.05-.07c-.14-.26-.27-.48-.38-.74a2.13,2.13,0,0,1-.08-1.57,1.6,1.6,0,0,1,2.14-.73A.7.7,0,0,1,348.31,128.26Z"></path><path d="M350.78,121.85a20.62,20.62,0,0,1-1.48,4.44c-.43-.65-.87-1.3-1.35-1.91-.85-1.07-2.69-2.43-2.74-3.89a1,1,0,0,1,.57-1C347.59,118.78,349.59,120.65,350.78,121.85Z"></path></g><path class="cls-5" d="M323.4,158.83c.74-1,5.47-2.36,18.11-19.21,2.58-3.44,4.6-6.88,7.15-10.13,0,0,.09,0,.06,0-1.22,2.35-2.61,4.62-4.06,6.85l.33-.29a35.64,35.64,0,0,0,2.81-2.53c.07-.07.16,0,.1.11-.9.87-1.7,1.83-2.57,2.73-.42.43-.84.86-1.29,1.26l-.55.47c-13.54,18.89-19.33,20-20,20.8C323.44,159,323.34,158.92,323.4,158.83Z"></path><path class="cls-5" d="M295.59,158.2c.45-1.89,1.16-3.72,1.79-5.55s1.25-3.6,1.9-5.39c1.3-3.62,2.52-7.3,4.05-10.83a.07.07,0,0,1,.14,0c-1,3.77-2.29,7.45-3.58,11.1-.64,1.84-1.31,3.66-2,5.48a50.47,50.47,0,0,1-2.15,5.21C295.68,158.34,295.57,158.27,295.59,158.2Z"></path><path class="cls-5" d="M299,134.19c2.22.23,11.08,2,13.31,2.19a4.67,4.67,0,0,0,2.86-.59c1-.55,17-11.68,18.76-13,.07,0,.17.06.09.11-1.86,1.33-14.29,10.76-16.21,12.09a19.7,19.7,0,0,1-2.66,1.71,4.17,4.17,0,0,1-2.8.32c-2.1-.41-10.32-2-13.2-2.5-.06,0-.48,1.05-.53,1l-.11,0A4.56,4.56,0,0,1,299,134.19Z"></path><path class="cls-2" d="M321.29,84.3c.64-3.64,3.38-8.69,3-11.4a3.15,3.15,0,0,0-2.56-2.75s2.26-2,1.48-4.43c-.4-1.23-2.72-1.68-2.72-1.68a3.77,3.77,0,0,0,.92-3.8c-.66-1.67-2.89-1.87-2.89-1.87s.91-2.41-.31-3.9c-2.45-3-17.29,1.07-18.07,7.17-.37,2.84,3.2,1.64,3.2,1.64s-4.72,3-3.95,6,5.3,1.25,5.3,1.25-4.54,2.9-3.43,6,5.39.63,5.39.63-2.68,3.14-1.28,5.33c2.3,3.61,7.18-3.08,10.65-3.2l3.28,4.88Z"></path><path class="cls-2" d="M323,78.81c-.3,3.5,4.7,6.33,4.89,9.72.25,4.58-5.78,1.68-8.59-4.3l-1.36-5Z"></path><path class="cls-5" d="M318.16,58.2a0,0,0,1,0,0-.08,26.69,26.69,0,0,0-15,5.11c-.14.11,0,.38.14.29A54.39,54.39,0,0,1,318.16,58.2Z"></path><path class="cls-5" d="M320.52,64c.06,0,0-.11,0-.11a25,25,0,0,0-16.05,6.6c-.15.15-.14.43.05.27C307.6,68.15,315.63,64.9,320.52,64Z"></path><path class="cls-5" d="M306.4,77.62c4.33-3.91,9.47-6,15.08-7.47.07,0,0-.12,0-.12-2.93,0-6.41,1.24-9,2.46a15.44,15.44,0,0,0-6.16,5C306.2,77.56,306.31,77.71,306.4,77.62Z"></path><path class="cls-2" d="M339.08,117.41c2.56.59,7.87-2.46,9.67-6.13.12-.25-.37-2.82-.82-6-.27-1.91-.52-4-.61-6,0-.4-12.19,3.55-12.19,3.55a31.81,31.81,0,0,1,1.53,7.5,5.26,5.26,0,0,1-.05.81.57.57,0,0,0,0,.14C336.41,112.83,336.34,116.79,339.08,117.41Z"></path><path class="cls-5" d="M336.6,111.15v.13a7.49,7.49,0,0,0,1.26,0c7.25-.48,8.76-9.65,9-12-2.18.41-11.77,3.52-11.77,3.52a31.59,31.59,0,0,1,1.54,7.5A4.17,4.17,0,0,1,336.6,111.15Z"></path><path class="cls-2" d="M348.92,83.88c1.4,4.36-.75,17-3.82,19.9-4.46,4.14-11.85,4.63-15.39-.75-3.44-5.21-.35-21.68,3.1-24.29C337.88,74.9,346.87,77.44,348.92,83.88Z"></path><path class="cls-5" d="M336.69,91.61s.06.06.05.09c-.16.85-.21,1.85.51,2.26,0,0,0,.06,0,.05C336.32,93.72,336.39,92.39,336.69,91.61Z"></path><path class="cls-5" d="M337.6,90.85c1.39.12,1,2.89-.24,2.78S336.43,90.75,337.6,90.85Z"></path><path class="cls-5" d="M331.7,91.14s-.07,0-.08.06c-.08.87-.31,1.84-1.13,2,0,0,0,0,0,0C331.46,93.26,331.76,92,331.7,91.14Z"></path><path class="cls-5" d="M331,90.14c-1.37-.27-1.82,2.48-.55,2.74S332.19,90.37,331,90.14Z"></path><path class="cls-5" d="M338.85,89.71a10.94,10.94,0,0,1-1-.51,1.83,1.83,0,0,1-.94-.72.59.59,0,0,1,.18-.7,1.46,1.46,0,0,1,1.48,0,2.13,2.13,0,0,1,1.12,1.07A.63.63,0,0,1,338.85,89.71Z"></path><path class="cls-5" d="M330.14,88.61a8.45,8.45,0,0,0,1.14-.15,1.8,1.8,0,0,0,1.13-.37.59.59,0,0,0,.06-.72,1.46,1.46,0,0,0-1.42-.45,2.16,2.16,0,0,0-1.4.65A.63.63,0,0,0,330.14,88.61Z"></path><path class="cls-5" d="M336.49,99.69c-.23.17-.47.42-.78.41a2.23,2.23,0,0,1-.9-.33s-.06,0,0,0a1.15,1.15,0,0,0,1,.6.92.92,0,0,0,.77-.67S336.53,99.66,336.49,99.69Z"></path><path class="cls-5" d="M335.91,97a2.92,2.92,0,0,1-2.12,1.06,3.7,3.7,0,0,1-1.05-.08l-.2,0-.19-.05a.23.23,0,0,1-.15-.22h0a.28.28,0,0,1,0-.09h0v-.07c.06-.66.25-1.66.25-1.66-.26.09-1.56.49-1.5.15a45,45,0,0,1,2.24-8.72.08.08,0,0,1,.15,0c-.39,2.74-1.27,5.41-1.72,8.16a5.26,5.26,0,0,1,1.44-.25c.09,0-.4,1.93-.41,2.23v0a4.1,4.1,0,0,0,3.15-.56C335.91,96.87,336,96.94,335.91,97Z"></path><path class="cls-5" d="M333.17,97.69a3.49,3.49,0,0,0,1.25,1.25,1.59,1.59,0,0,0,.94.18c.71-.1.81-.72.75-1.28a3.86,3.86,0,0,0-.21-.86A4.5,4.5,0,0,1,333.17,97.69Z"></path><path class="cls-10" d="M334.42,98.94a1.59,1.59,0,0,0,.94.18c.71-.1.81-.72.75-1.28A1.63,1.63,0,0,0,334.42,98.94Z"></path><path class="cls-5" d="M330.45,82.73c.61-1,1.28-2.07,2-2.2s.92,1.51,2.4,1.8c2,.38,3.2-1.35,6-1.2,4.09.22,5.45,3.82,4.85,9.58-.55,5.14,2.49,6,2.49,6s3.27-11.08.54-15.22-9.84-6.69-15.19-3.72C331.59,78.85,330.45,82.73,330.45,82.73Z"></path><path class="cls-2" d="M345.86,94.37s2.89-4.07,4.74-3-.34,6.94-2.53,7.74a2.22,2.22,0,0,1-3-1.22Z"></path><path class="cls-5" d="M349.93,93s0,0,0,0A5.6,5.6,0,0,0,347,96.56a1.21,1.21,0,0,1,1.83-.32s0,.09,0,.08a1.35,1.35,0,0,0-1.5.46,6.71,6.71,0,0,0-.73,1.21c-.07.14-.32.06-.26-.1v0C346.3,95.91,347.84,93.2,349.93,93Z"></path><path class="cls-8" d="M337.12,76.27a18,18,0,0,1,5.18-1.18c2-.12,8.17.77,9.58,2.11s1.42,7.22,1.4,8.08-.74,6-2.7,7.14-1.55-7.68-4.32-10.79S337.12,76.27,337.12,76.27Z"></path><path class="cls-11" d="M337.12,76.27s6.37,2.25,9.14,5.36,2.36,11.92,4.32,10.79a4.08,4.08,0,0,0,1.75-2.64c-.22-2.59-1-6.65-3-9.55-1.83-2.72-5.2-4.26-8.87-4.92A20.28,20.28,0,0,0,337.12,76.27Z"></path><path class="cls-8" d="M349.73,97.61c0-2.36-2-8.79-4.25-12.55S336,78.71,335,78.71c-2.51,0-3.13,1.13-3.51.88s2.3-2.92,3-3.29a8.26,8.26,0,0,1,3.5-.64c1.09.1,7.73,1.21,10,4.22s5.15,11.23,4.39,13.23c-.18.48-.86.76-1.11,1.44-.34.89-.6,1.94-.91,2.56S349.73,97.81,349.73,97.61Z"></path><path class="cls-5" d="M345,83.41a12.52,12.52,0,0,0,1.7-1.08,8.93,8.93,0,0,0,1.49-1.39s.09,0,.06,0a6.66,6.66,0,0,1-1.37,1.58,5.66,5.66,0,0,1-1.83,1A.07.07,0,0,1,345,83.41Z"></path><path class="cls-5" d="M349.9,95.27c.08-.17.2-.31.29-.47a2.61,2.61,0,0,0,.26-.56,5.37,5.37,0,0,1,.34-1.12,3.89,3.89,0,0,1,.6-.74,1.53,1.53,0,0,0,.52-.93s.09,0,.08,0c0,.71-.55,1.18-.9,1.76a6.41,6.41,0,0,0-.4,1.19,1.87,1.87,0,0,1-.69.94A.07.07,0,0,1,349.9,95.27Z"></path><path class="cls-5" d="M349.26,92.68a8.39,8.39,0,0,0,.71-.75,7.66,7.66,0,0,0,.56-.84c.17-.29.31-.59.48-.88s.42-.67.6-1c0,0,.08,0,.06,0-.18.37-.3.76-.47,1.13a6.45,6.45,0,0,1-.51.93,4.72,4.72,0,0,1-.6.81,2.69,2.69,0,0,1-.8.62S349.24,92.7,349.26,92.68Z"></path><path class="cls-5" d="M348.56,90.34A6.79,6.79,0,0,0,349.93,89c.38-.51.72-1,1.06-1.57,0,0,.09,0,.07,0a7.9,7.9,0,0,1-.92,1.72,3.6,3.6,0,0,1-.65.7,4,4,0,0,1-.88.53S348.52,90.36,348.56,90.34Z"></path><path class="cls-5" d="M347.78,88.08a2.32,2.32,0,0,0,.66-.59c.22-.25.43-.5.64-.76l.6-.75a2.23,2.23,0,0,0,.48-.83s.08,0,.07,0a2.23,2.23,0,0,1-.33.9,5.2,5.2,0,0,1-.59.88,8.53,8.53,0,0,1-.7.77,1.57,1.57,0,0,1-.8.47A.05.05,0,0,1,347.78,88.08Z"></path><path class="cls-5" d="M347.29,85.25c.23-.19.46-.39.68-.61s.42-.44.61-.67.43-.48.62-.73c0,0,.09,0,.07,0a6.24,6.24,0,0,1-.49.83,5.86,5.86,0,0,1-.61.71,8.3,8.3,0,0,1-.69.64,2.62,2.62,0,0,1-.8.48s-.09,0-.06-.08A4.85,4.85,0,0,1,347.29,85.25Z"></path><path class="cls-5" d="M343.3,82c.25-.27.5-.54.77-.79s.58-.48.88-.7a10.36,10.36,0,0,1,1.9-1.11s.09,0,0,.06c-1.17.88-2.38,1.71-3.54,2.6A0,0,0,0,1,343.3,82Z"></path><path class="cls-5" d="M342,79.86a4.34,4.34,0,0,1,.84-.7,10.72,10.72,0,0,1,2.08-1c.05,0,.09,0,0,.07-.63.37-1.27.72-1.89,1.12-.3.2-.6.4-.88.63s-.5.51-.77.76c0,0-.06,0-.05,0A2.73,2.73,0,0,1,342,79.86Z"></path><path class="cls-5" d="M340.13,78.81a5.2,5.2,0,0,1,.78-.7,6,6,0,0,1,1.78-.9s.07.06,0,.08a11.5,11.5,0,0,0-1.7,1.06c-.26.2-.52.42-.78.63a8.09,8.09,0,0,1-.76.67s0,0,0,0A5.14,5.14,0,0,1,340.13,78.81Z"></path><path class="cls-5" d="M338.79,77.55c.26-.18.53-.35.8-.52a3,3,0,0,1,.85-.41s.06,0,0,.08L339,77.77A8,8,0,0,0,337.78,79s0,0,0,0A3,3,0,0,1,338.79,77.55Z"></path><path class="cls-5" d="M337.06,77.06a4.67,4.67,0,0,1,1.63-.87s.07,0,0,.07a6.12,6.12,0,0,0-1.5,1A8.39,8.39,0,0,0,336,78.55s-.06,0-.05,0A4,4,0,0,1,337.06,77.06Z"></path><path class="cls-5" d="M334.69,78a2.46,2.46,0,0,1,.22-.34,3.59,3.59,0,0,1,.57-.6,8.08,8.08,0,0,1,1.39-.94c.05,0,.08.05,0,.07a6.94,6.94,0,0,0-1.31,1,5.12,5.12,0,0,0-.55.59,3.71,3.71,0,0,0-.23.32,3.53,3.53,0,0,1-.21.32,0,0,0,0,1-.07,0A1,1,0,0,1,334.69,78Z"></path><path class="cls-5" d="M333.27,78c.15-.18.3-.34.46-.5s.34-.3.52-.44.38-.26.56-.41a0,0,0,1,1,.05.06,4.73,4.73,0,0,0-.53.46l-.47.46-.47.47c-.16.15-.3.34-.48.48,0,0-.06,0,0,0A2.36,2.36,0,0,1,333.27,78Z"></path><path class="cls-8" d="M270.14,202.15C258.84,254.63,223,266,216.62,281.83c-3.69,9.29-8.59,32.92-8.59,32.92l-67.25,0s-4.87-23.62-8.61-32.91c-6.89-17.17-48.29-29-55.79-93.35-5-42.29,26.8-109.07,98-109.1v44.81a8.57,8.57,0,0,1-8.57,8.56,8.78,8.78,0,0,1-6.76-3.32,17.86,17.86,0,1,0,0,22.64,9.29,9.29,0,0,1,3-2.43,8.41,8.41,0,0,1,3.74-.89,8.57,8.57,0,0,1,8.57,8.56v44.81h44.81a8.57,8.57,0,0,0,8.56-8.56,8.75,8.75,0,0,0-3.32-6.76,17.86,17.86,0,1,1,22.64,0,9.15,9.15,0,0,0-2.43,3,8.42,8.42,0,0,0-.89,3.75,8.56,8.56,0,0,0,8.56,8.56Z"></path><path class="cls-12" d="M270.14,202.15C258.84,254.63,223,266,216.62,281.83c-3.69,9.29-8.59,32.92-8.59,32.92H174.52V283.67c.09-2.28-.29-4.63.61-6.7a8.39,8.39,0,0,1,4.61-4.62,8.25,8.25,0,0,1,6.5.13,8.82,8.82,0,0,1,2.71,1.93c.38.4.74.85,1.13,1.29s.8.83,1.23,1.22a18.07,18.07,0,1,0,0-26.8c-.43.38-.83.8-1.23,1.22s-.74.89-1.12,1.29a8.82,8.82,0,0,1-2.72,1.93,8.21,8.21,0,0,1-6.5.13,8.36,8.36,0,0,1-4.61-4.62c-.9-2.07-.53-4.42-.61-6.7V202.15h44.62a8.57,8.57,0,0,0,8.56-8.56,8.75,8.75,0,0,0-3.32-6.76,17.86,17.86,0,1,1,22.64,0,9.15,9.15,0,0,0-2.43,3,8.42,8.42,0,0,0-.89,3.75,8.56,8.56,0,0,0,8.56,8.56Z"></path><path class="cls-11" d="M127.3,140.78A17.88,17.88,0,0,0,159,152.1a9.29,9.29,0,0,1,3-2.43,8.41,8.41,0,0,1,3.74-.89,8.57,8.57,0,0,1,8.57,8.56V202h-.19l-27.29,0H129.68a8.68,8.68,0,0,0-8.1,12.24,9.3,9.3,0,0,0,2,2.83c.43.4.88.76,1.3,1.13s.82.79,1.2,1.21a17.7,17.7,0,1,1-26.29,0,26.46,26.46,0,0,1,2.49-2.35,8.85,8.85,0,0,0,2-2.81,8.61,8.61,0,0,0-4.66-11.52,9,9,0,0,0-3.39-.63H78.61q-1.38-6.36-2.23-13.56c-5-42.29,26.8-109.07,98-109.1v44.81a8.57,8.57,0,0,1-8.57,8.56,8.78,8.78,0,0,1-6.76-3.32,17.88,17.88,0,0,0-31.7,11.32Z"></path><rect class="cls-7" x="146.9" y="211.01" width="2" height="106.94" transform="translate(-46.83 32.31) rotate(-10.77)"></rect><rect class="cls-7" x="147.44" y="263.46" width="106.94" height="2" transform="translate(-96.39 412.51) rotate(-79.25)"></rect><path class="cls-7" d="M174.4,246.31c-6.07,0-11.65-5.35-15.61-12.23C157,236,155,237,153.06,237h0c-10.15,0-15.15-20-15.36-20.83l1.94-.48c.05.2,4.83,19.31,13.42,19.31h0c1.6,0,3.22-1.08,4.72-2.8-3.08-6-5-12.81-5-18.23,0-5.71,2.24-9,6.15-9h0c4.52,0,7.11,3.47,7.12,9.53a33.53,33.53,0,0,1-3.83,14.54,27.41,27.41,0,0,1-2.09,3.36c.19.34.38.69.58,1,4,6.9,9,10.86,13.64,10.86h0c4.26,0,8.53-3.32,12-9.35.16-.27.31-.54.46-.81a19.21,19.21,0,0,1-2.5-3.42c-4-6.86-4.78-17-1.78-22.24a6.33,6.33,0,0,1,5.64-3.51h0a4.94,4.94,0,0,1,4.42,2.69c2.92,5,1.33,16.75-3.33,26.09a9.76,9.76,0,0,0,6.56,2.56h0c6.08,0,11.47-14,13-19.47l1.93.56a70.17,70.17,0,0,1-4,10.26c-3.47,7.07-7.16,10.65-11,10.65h0a11.73,11.73,0,0,1-7.51-2.76l-.22.4c-3.85,6.67-8.73,10.35-13.74,10.35ZM188.22,207h0a4.39,4.39,0,0,0-3.9,2.51c-2.69,4.65-1.88,13.92,1.77,20.24a17.14,17.14,0,0,0,1.74,2.5c4-8.5,5.55-19.29,3.08-23.56A3,3,0,0,0,188.22,207ZM159,207h0c-3.43,0-4.15,3.8-4.15,7,0,4.76,1.65,10.92,4.32,16.43a31.55,31.55,0,0,0,5-15.88C164.09,211.09,163.2,207,159,207Z"></path><rect class="cls-9" x="132.94" y="314.77" width="82.97" height="16.22"></rect><rect class="cls-9" x="132.94" y="333.61" width="82.97" height="16.21"></rect><g class="cls-4"><path d="M269.59,202H255.85c-2.28-.09-4.63.29-6.7-.61a8.39,8.39,0,0,1-4.62-4.61,8.25,8.25,0,0,1,.13-6.5,8.82,8.82,0,0,1,1.93-2.71c.4-.38.85-.74,1.29-1.13s.83-.8,1.22-1.23a18.07,18.07,0,1,0-26.8,0c.38.43.8.83,1.22,1.23s.89.74,1.29,1.12a8.82,8.82,0,0,1,1.93,2.72,8.21,8.21,0,0,1,.13,6.5,8.36,8.36,0,0,1-4.62,4.61c-2.07.9-4.42.53-6.7.61H174.14v.38l0,27.29V246.8a8.68,8.68,0,0,0,12.24,8.1,9.3,9.3,0,0,0,2.83-2c.4-.43.76-.88,1.13-1.3s.79-.82,1.21-1.2a17.7,17.7,0,1,1,0,26.29,26.46,26.46,0,0,1-2.35-2.49,8.85,8.85,0,0,0-2.81-2,8.61,8.61,0,0,0-11.52,4.66,9,9,0,0,0-.63,3.39v34.52h.14V283.67c.08-2.27-.29-4.63.62-6.75a8.44,8.44,0,0,1,11.27-4.56,9,9,0,0,1,2.75,2,25.4,25.4,0,0,0,2.36,2.51,17.94,17.94,0,1,0,0-26.66c-.43.39-.83.8-1.23,1.22s-.74.88-1.13,1.29a8.89,8.89,0,0,1-2.73,1.94,8.31,8.31,0,0,1-6.56.13,8.45,8.45,0,0,1-4.63-4.65c-.91-2.1-.52-4.46-.61-6.73V229.63l0-27.29h-.19l.19-.19v.19H219a9,9,0,0,0,3.43-.63,8.76,8.76,0,0,0,4.74-11.7,9.39,9.39,0,0,0-2-2.85c-.43-.41-.87-.76-1.29-1.14s-.82-.78-1.2-1.2a17.62,17.62,0,1,1,26.13,0,16.84,16.84,0,0,1-1.19,1.2c-.42.38-.86.73-1.29,1.14a9.32,9.32,0,0,0-2,2.86,8.63,8.63,0,0,0-.12,6.85,8.75,8.75,0,0,0,8.29,5.47H270.1l.09-.4Z"></path><path d="M216.49,250.93a18.16,18.16,0,0,0-25.16-.81c-.43.38-.83.8-1.23,1.22s-.74.89-1.12,1.29a8.82,8.82,0,0,1-2.72,1.93,8.21,8.21,0,0,1-6.5.13,8.36,8.36,0,0,1-4.61-4.62c-.9-2.07-.53-4.42-.61-6.7V202h-.38l-27.29,0H129.68a8.68,8.68,0,0,0-8.1,12.24,9.3,9.3,0,0,0,2,2.83c.43.4.88.76,1.3,1.13s.82.79,1.2,1.21a17.7,17.7,0,1,1-26.29,0,26.46,26.46,0,0,1,2.49-2.35,8.85,8.85,0,0,0,2-2.81,8.61,8.61,0,0,0-4.66-11.52,9,9,0,0,0-3.39-.63H78.61a.45.45,0,0,0,0,.16H92.81c2.27.08,4.63-.29,6.75.62a8.44,8.44,0,0,1,4.56,11.27,9,9,0,0,1-2,2.75,25.4,25.4,0,0,0-2.51,2.36,17.94,17.94,0,1,0,26.66,0c-.39-.43-.8-.83-1.22-1.23s-.88-.74-1.29-1.13a8.89,8.89,0,0,1-1.94-2.73,8.31,8.31,0,0,1-.13-6.56,8.45,8.45,0,0,1,4.65-4.63c2.1-.91,4.46-.52,6.73-.61h13.74l27.29,0v-.19l.19.19h-.19V246.8a9,9,0,0,0,.63,3.43,8.76,8.76,0,0,0,11.7,4.74,9.39,9.39,0,0,0,2.85-2c.41-.43.76-.87,1.14-1.29s.78-.82,1.2-1.2a17.62,17.62,0,1,1,0,26.13,16.84,16.84,0,0,1-1.2-1.19c-.38-.42-.73-.86-1.14-1.29a9.32,9.32,0,0,0-2.86-2,8.63,8.63,0,0,0-6.85-.12,8.75,8.75,0,0,0-5.47,8.29v34.52h.38V283.67c.09-2.28-.29-4.63.61-6.7a8.39,8.39,0,0,1,4.61-4.62,8.25,8.25,0,0,1,6.5.13,8.82,8.82,0,0,1,2.71,1.93c.38.4.74.85,1.13,1.29s.8.83,1.23,1.22a18.09,18.09,0,0,0,25.16-26Zm-.27.27a17.78,17.78,0,0,0-24.64-.81c-.42.38-.82.79-1.21,1.2s-.73.87-1.13,1.3a9.3,9.3,0,0,1-2.83,2,8.64,8.64,0,0,1-6.8.14,8.72,8.72,0,0,1-5.44-8.24V229.63l0-27.29V246.8a9,9,0,0,0,.63,3.43,8.76,8.76,0,0,0,11.7,4.74,9.39,9.39,0,0,0,2.85-2c.41-.43.76-.87,1.14-1.29s.78-.82,1.2-1.2a17.62,17.62,0,1,1,0,26.13,16.84,16.84,0,0,1-1.2-1.19c-.38-.42-.73-.86-1.14-1.29a9.32,9.32,0,0,0-2.86-2,8.63,8.63,0,0,0-6.85-.12,8.75,8.75,0,0,0-5.47,8.29v34.52h.12V280.24a9,9,0,0,1,.63-3.39,8.61,8.61,0,0,1,11.52-4.66,8.85,8.85,0,0,1,2.81,2,26.46,26.46,0,0,0,2.35,2.49,17.74,17.74,0,0,0,24.67-25.48Z"></path><path d="M170.79,79.47h3.48v-.06Q172.52,79.41,170.79,79.47Zm3.71,95.2V157.5a8.68,8.68,0,0,0-12.24-8.1,9.3,9.3,0,0,0-2.83,2c-.4.43-.76.88-1.13,1.3s-.79.82-1.21,1.2a17.7,17.7,0,1,1,0-26.29,26.46,26.46,0,0,1,2.35,2.49,8.85,8.85,0,0,0,2.81,2,8.61,8.61,0,0,0,11.52-4.66,9,9,0,0,0,.63-3.39V106.89l0-27.48h-.12l.06.06h-.06l0,27.42v13.74c-.08,2.27.29,4.63-.62,6.75a8.44,8.44,0,0,1-11.27,4.56,9,9,0,0,1-2.75-2,25.4,25.4,0,0,0-2.36-2.51,17.94,17.94,0,1,0,0,26.66c.43-.39.83-.8,1.23-1.22s.74-.88,1.13-1.29a8.89,8.89,0,0,1,2.73-1.94,8.31,8.31,0,0,1,6.56-.13,8.45,8.45,0,0,1,4.63,4.65c.91,2.1.52,4.46.61,6.73v13.74l0,27.29h.19l-.19.19V202H129.68a9,9,0,0,0-3.43.63,8.76,8.76,0,0,0-4.74,11.7,9.39,9.39,0,0,0,2,2.85c.43.41.87.76,1.29,1.14s.82.78,1.2,1.2a17.62,17.62,0,1,1-26.13,0,16.84,16.84,0,0,1,1.19-1.2c.42-.38.86-.73,1.29-1.14a9.32,9.32,0,0,0,2-2.86,8.63,8.63,0,0,0,.12-6.85,8.75,8.75,0,0,0-8.29-5.47H78.58a.27.27,0,0,0,0,.12.45.45,0,0,0,0,.16.27.27,0,0,0,0,.12H92.81c2.28.09,4.63-.29,6.7.61a8.39,8.39,0,0,1,4.62,4.61,8.25,8.25,0,0,1-.13,6.5,8.82,8.82,0,0,1-1.93,2.71c-.4.38-.85.74-1.29,1.13s-.83.8-1.22,1.23a18.07,18.07,0,1,0,26.8,0c-.38-.43-.8-.83-1.22-1.23s-.89-.74-1.29-1.12a8.82,8.82,0,0,1-1.93-2.72,8.21,8.21,0,0,1-.13-6.5,8.36,8.36,0,0,1,4.62-4.61c2.07-.9,4.42-.53,6.7-.61h41.41V202ZM146.85,202H129.68a9,9,0,0,0-3.43.63,8.76,8.76,0,0,0-4.74,11.7,9.39,9.39,0,0,0,2,2.85c.43.41.87.76,1.29,1.14s.82.78,1.2,1.2a17.62,17.62,0,1,1-26.13,0,16.84,16.84,0,0,1,1.19-1.2c.42-.38.86-.73,1.29-1.14a9.32,9.32,0,0,0,2-2.86,8.63,8.63,0,0,0,.12-6.85,8.75,8.75,0,0,0-8.29-5.47H78.58a.27.27,0,0,0,0,.12H96.24a9,9,0,0,1,3.39.63,8.61,8.61,0,0,1,4.66,11.52,8.85,8.85,0,0,1-2,2.81,26.46,26.46,0,0,0-2.49,2.35,17.73,17.73,0,1,0,26.29,0c-.38-.42-.79-.82-1.2-1.21s-.87-.73-1.3-1.13a9.3,9.3,0,0,1-2-2.83,8.64,8.64,0,0,1-.14-6.8,8.72,8.72,0,0,1,8.24-5.44h17.17l27.29,0Z"></path></g><path class="cls-9" d="M101.26,108.05a7,7,0,1,0-6.4-7.63A7.06,7.06,0,0,0,101.26,108.05Zm-5.54-7.55a6.22,6.22,0,1,1,5.62,6.7A6.21,6.21,0,0,1,95.72,100.5Zm5.54,7.55a7,7,0,1,0-6.4-7.63A7.06,7.06,0,0,0,101.26,108.05Zm-5.54-7.55a6.22,6.22,0,1,1,5.62,6.7A6.21,6.21,0,0,1,95.72,100.5Zm5.54,7.55a7,7,0,1,0-6.4-7.63A7.06,7.06,0,0,0,101.26,108.05Zm-5.54-7.55a6.22,6.22,0,1,1,5.62,6.7A6.21,6.21,0,0,1,95.72,100.5Zm4.81,15.29A14.79,14.79,0,1,0,87,99.7,14.9,14.9,0,0,0,100.53,115.79Zm-6.77-15.47a8.19,8.19,0,1,1,7.4,8.82A8.18,8.18,0,0,1,93.76,100.32Zm1.1.1a7.09,7.09,0,1,0,7.71-6.34A7,7,0,0,0,94.86,100.42Zm.86.08a6.22,6.22,0,1,1,5.62,6.7A6.21,6.21,0,0,1,95.72,100.5Zm5.54,7.55a7,7,0,1,0-6.4-7.63A7.06,7.06,0,0,0,101.26,108.05Zm-5.54-7.55a6.22,6.22,0,1,1,5.62,6.7A6.21,6.21,0,0,1,95.72,100.5Zm5.54,7.55a7,7,0,1,0-6.4-7.63A7.06,7.06,0,0,0,101.26,108.05Zm-5.54-7.55a6.22,6.22,0,1,1,5.62,6.7A6.21,6.21,0,0,1,95.72,100.5Z"></path><polygon class="cls-9" points="100.38 86.69 106.1 87.22 106.16 83.18 101.07 82.71 100.38 86.69"></polygon><polygon class="cls-9" points="111.09 89.6 114.76 93.97 117.69 91.16 114.42 87.27 111.09 89.6"></polygon><polygon class="cls-9" points="116.58 99.15 116.05 104.81 120.13 104.87 120.6 99.83 116.58 99.15"></polygon><polygon class="cls-9" points="113.64 109.75 109.22 113.38 112.07 116.28 116 113.05 113.64 109.75"></polygon><polygon class="cls-9" points="104 115.19 98.27 114.66 98.21 118.69 103.3 119.16 104 115.19"></polygon><polygon class="cls-9" points="93.29 112.28 89.62 107.9 86.69 110.71 89.95 114.61 93.29 112.28"></polygon><polygon class="cls-9" points="87.79 102.73 88.32 97.06 84.25 97.01 83.77 102.04 87.79 102.73"></polygon><polygon class="cls-9" points="90.73 92.13 95.15 88.5 92.31 85.6 88.38 88.83 90.73 92.13"></polygon><path class="cls-9" d="M215.87,369.8s-18.83,9.77-41.67,9.77a93.16,93.16,0,0,1-41.31-9.74V353.61l83,0Z"></path><polygon class="cls-13" points="120.94 381.11 114.87 402.2 103.19 389.02 120.94 381.11"></polygon><path class="cls-14" d="M29.59,341.68l42.56,66.37A5.56,5.56,0,0,0,80,409.61l65-45.25a2.22,2.22,0,0,0-.92-4Z"></path><polygon class="cls-13" points="120.94 381.11 29.59 341.68 110.46 388.44 109.03 394.36 120.94 381.11"></polygon><polygon class="cls-15" points="104.22 392.75 114.87 402.2 110.46 388.44 104.22 392.75"></polygon><path class="cls-7" d="M359.45,180.39l.83,3.64a.52.52,0,1,0,1-.23v0l-1-3.61a.44.44,0,1,0-.86.22Z"></path><path class="cls-7" d="M362.5,193.25l1.79,7.14a.77.77,0,1,0,1.5-.37v0l-2-7.1a.66.66,0,0,0-.82-.46A.68.68,0,0,0,362.5,193.25Z"></path><path class="cls-7" d="M366.51,209.58l1.58,7.19a1,1,0,1,0,2-.43v0l-1.78-7.15a.9.9,0,0,0-1.76.41Z"></path><path class="cls-7" d="M369.9,226l1.22,7.27a1.15,1.15,0,0,0,1.33.94,1.13,1.13,0,0,0,.94-1.32v0l-1.34-7.25a1.09,1.09,0,0,0-2.15.38Z"></path><path class="cls-7" d="M372.37,242.59s.05.46.12,1.14.15,1.59.23,2.51c.16,1.82.28,3.64.28,3.64a1.27,1.27,0,0,0,2.54-.16h0s-.14-1.85-.33-3.7l-.27-2.53c-.08-.69-.14-1.15-.14-1.15a1.22,1.22,0,0,0-1.35-1.07,1.23,1.23,0,0,0-1.08,1.34Z"></path><path class="cls-7" d="M373.33,259.27s0,.46,0,1.15,0,1.6,0,2.51c0,1.83-.09,3.65-.09,3.65a1.4,1.4,0,1,0,2.79.1h0s0-1.86,0-3.71c0-.93,0-1.86,0-2.56l0-1.16a1.35,1.35,0,0,0-2.69,0Z"></path><path class="cls-7" d="M372.67,276l-.1,1.14c-.07.68-.16,1.59-.25,2.5-.2,1.81-.44,3.62-.44,3.62a1.45,1.45,0,1,0,2.88.39h0s.24-1.84.43-3.69c.09-.93.18-1.85.24-2.55l.1-1.15a1.42,1.42,0,0,0-1.3-1.55,1.44,1.44,0,0,0-1.56,1.3Z"></path><path class="cls-7" d="M370.38,292.48l-.22,1.12c-.14.67-.33,1.56-.51,2.45-.39,1.79-.82,3.56-.82,3.56a1.5,1.5,0,0,0,2.91.71h0s.43-1.8.81-3.62c.19-.92.37-1.83.51-2.51l.22-1.14a1.48,1.48,0,1,0-2.9-.55Z"></path><path class="cls-7" d="M366.36,308.66l-.33,1.09-.77,2.39c-.57,1.73-1.19,3.45-1.19,3.45a1.53,1.53,0,0,0,2.89,1h0s.61-1.75,1.19-3.52l.77-2.44.34-1.11a1.52,1.52,0,0,0-2.91-.88Z"></path><path class="cls-7" d="M360.66,324.32l-.45,1.05-1,2.29c-.75,1.67-1.54,3.31-1.54,3.31a1.58,1.58,0,0,0,2.84,1.37h0s.8-1.68,1.56-3.38l1-2.34.45-1.07a1.56,1.56,0,0,0-2.87-1.22Z"></path><path class="cls-7" d="M353.33,339.28s-.23.4-.56,1l-1.25,2.17c-.92,1.58-1.88,3.13-1.88,3.13a1.59,1.59,0,1,0,2.71,1.67h0s1-1.57,1.93-3.18c.47-.8.93-1.61,1.27-2.22l.57-1a1.6,1.6,0,0,0-2.79-1.56Z"></path><path class="cls-7" d="M344.47,353.39l-.66.93-1.48,2c-1.09,1.46-2.22,2.9-2.22,2.9a1.56,1.56,0,0,0,2.46,1.93h0s1.16-1.46,2.27-2.95l1.52-2.06.68-.94a1.58,1.58,0,1,0-2.56-1.84h0Z"></path><path class="cls-7" d="M334.1,366.42l-.76.85-1.7,1.84c-1.24,1.34-2.52,2.63-2.52,2.63a1.51,1.51,0,0,0,2.13,2.13h0s1.32-1.31,2.61-2.66l1.75-1.87.78-.85a1.54,1.54,0,0,0-2.27-2.09h0Z"></path><path class="cls-7" d="M322.32,378.18l-.86.75-1.91,1.63c-1.4,1.17-2.83,2.3-2.83,2.3a1.42,1.42,0,0,0,1.75,2.24h0s1.48-1.14,2.92-2.32c.72-.59,1.43-1.19,2-1.64l.88-.76a1.46,1.46,0,1,0-1.9-2.21Z"></path><path class="cls-7" d="M309.19,388.43l-.94.65-2.09,1.37c-1.54,1-3.1,1.93-3.1,1.93a1.26,1.26,0,0,0,1.27,2.17h0s1.61-.93,3.19-1.91c.8-.49,1.58-1,2.17-1.36l1-.64a1.33,1.33,0,1,0-1.45-2.22h0Z"></path><path class="cls-7" d="M294.86,396.92l-1,.51-2.26,1.08c-1.65.77-3.33,1.49-3.33,1.49a1.08,1.08,0,0,0-.58,1.43,1.09,1.09,0,0,0,1.41.58h0s1.72-.7,3.42-1.45c.85-.38,1.7-.76,2.33-1.06l1.05-.49a1.17,1.17,0,0,0-1-2.11h0Z"></path><path class="cls-7" d="M279.45,403.33l-1.08.37-2.39.77c-1.75.55-3.51,1.06-3.51,1.06a1,1,0,0,0-.7,1.27,1,1,0,0,0,1.27.7s1.78-.5,3.55-1.05l2.43-.78,1.1-.36a1,1,0,0,0-.66-2h0Z"></path><path class="cls-7" d="M263.36,407.89s-1.78.41-3.58.78-3.59.71-3.59.71a1,1,0,0,0-.78,1.12,1,1,0,0,0,1.12.78s1.82-.32,3.64-.69,3.63-.76,3.63-.76h0a1,1,0,0,0-.43-1.94Z"></path><path class="cls-7" d="M246.88,410.85s-1.82.24-3.64.44-3.65.38-3.65.38a.9.9,0,0,0-.81,1,.89.89,0,0,0,1,.82s1.84-.15,3.68-.35,3.68-.42,3.68-.42h0a.94.94,0,0,0,.81-1.05.92.92,0,0,0-1-.8Z"></path><path class="cls-7" d="M230.19,412.34s-1.84.1-3.67.16-3.67.09-3.67.09a.84.84,0,0,0-.83.86.85.85,0,0,0,.85.83s1.85,0,3.7-.07,3.7-.13,3.7-.13h0a.86.86,0,0,0,.83-.9.87.87,0,0,0-.91-.84Z"></path><path class="cls-7" d="M213.42,412.58l-7.36-.23a.77.77,0,0,0-.81.76.78.78,0,0,0,.75.81l7.36.28a.8.8,0,0,0,.84-.77.81.81,0,0,0-.77-.85Z"></path><path class="cls-7" d="M196.64,411.78l-7.34-.62a.72.72,0,0,0-.13,1.44l7.34.68a.75.75,0,0,0,.14-1.5Z"></path><path class="cls-7" d="M179.91,410.15l-7.31-.92a.66.66,0,0,0-.74.57.67.67,0,0,0,.57.74l7.3,1a.69.69,0,0,0,.78-.59.7.7,0,0,0-.59-.78Z"></path><path class="cls-7" d="M163.24,407.89,156,406.76a.59.59,0,0,0-.68.49.6.6,0,0,0,.49.68l7.27,1.2a.62.62,0,0,0,.72-.52.64.64,0,0,0-.52-.72Z"></path><path class="cls-7" d="M146.63,405.2l-7.25-1.27a.51.51,0,0,0-.19,1l7.25,1.34a.55.55,0,0,0,.64-.44.56.56,0,0,0-.44-.64Z"></path><path class="cls-7" d="M130.06,402.25l-3.68-.67a.44.44,0,0,0-.52.36.45.45,0,0,0,.36.52l3.67.7a.46.46,0,0,0,.54-.36.47.47,0,0,0-.37-.55Z"></path></g><g id="Layer_2" data-name="Layer 2"><path class="cls-8" d="M243.8,328.32s3.68,12.25,8,24.77,8.24,41.26,7.43,42-10.5-27.21-13.3-40-4.8-25.87-4.8-25.87Z"></path><polygon class="cls-16" points="243.87 328.01 246.78 336.33 242.14 337.46 240.75 328.88 243.87 328.01"></polygon><path class="cls-9" d="M243.86,328a6.89,6.89,0,0,0-1.1-6.25c-2-2.9-1.43-5.15-1.43-5.15s-5.21,6.69-.58,12.28Z"></path><path class="cls-8" d="M241.38,316.28c.26.42-.28,2.52.7,4.17s-3.81,4.1-3.42,1.63C239.11,319.27,240.89,315.5,241.38,316.28Z"></path><path class="cls-3" d="M266.66,335.49s-3.55,9.92-7.68,20-8.56,33.58-7.92,34.23,9.81-21.92,12.66-32.3,5.07-21.07,5.07-21.07Z"></path><polygon class="cls-16" points="266.63 335.24 263.87 341.95 267.63 343.08 269.15 336.09 266.63 335.24"></polygon><path class="cls-9" d="M266.63,335.23c.4-5.53,4.79-10,4.79-10s1.78,6.49-2.27,10.89Z"></path><path class="cls-17" d="M255.74,322.48s1.4,10.45,3.33,21.19,1.36,34.63.6,35.13-5-23.49-5.64-34.24-.55-21.66-.55-21.66Z"></path><polygon class="cls-16" points="255.83 322.24 257.12 329.39 253.21 329.7 253.18 322.55 255.83 322.24"></polygon><path class="cls-9" d="M253.18,322.55s2.51-.25,2.65-.31a62.4,62.4,0,0,0,1.86-7.45c-.16-.2-8.45,1-8.4,1.74S253.18,322.55,253.18,322.55Z"></path><rect class="cls-9" x="239.33" y="362.03" width="29.22" height="36.79" rx="4.38"></rect><rect class="cls-9" x="243.02" y="356.22" width="21.85" height="5.81"></rect><path class="cls-5" d="M244.36,361.9c5.08-.24,17.51-.26,19.19,0a0,0,0,0,1,0,.08,135.5,135.5,0,0,1-19.19,0A.06.06,0,0,1,244.36,361.9Z"></path></g></svg>