<svg xmlns="http://www.w3.org/2000/svg" id="Layer_1" data-name="Layer 1" viewBox="0 0 185.91 185.91"><defs><style>.cls-1,.cls-3{fill:#171143;}.cls-2{fill:#44aee3;}.cls-3{font-size:18px;font-family:Aller-Bold, Aller;font-weight:700;}.cls-4{letter-spacing:-0.02em;}.cls-5{letter-spacing:0em;}</style></defs><title>color-vision-adv.icons</title><path class="cls-1" d="M133.72,74.72c0,5.39,0,10.78,0,16.16a13.63,13.63,0,0,1-7.24,12.56q-14,8.13-28,16.19a13.67,13.67,0,0,1-14.57,0L56,103.49A13.7,13.7,0,0,1,48.69,90.8c0-10.84,0-21.68,0-32.52A13.42,13.42,0,0,1,55.82,46Q69.89,37.78,84,29.67a13.64,13.64,0,0,1,14.24-.1c.51.29,1,.58,1.52.89.89.54,1.17,1.29.76,2s-1.21.9-2.13.4a30,30,0,0,0-3-1.61,10.73,10.73,0,0,0-9.86.74L60.13,46.69c-1.07.62-2.16,1.21-3.22,1.86a10.58,10.58,0,0,0-5.44,9.37q-.12,16.76,0,33.5a10.35,10.35,0,0,0,5.38,9.3q14.48,8.48,29,16.78a10.2,10.2,0,0,0,10.56,0q14.67-8.34,29.22-16.89a10.28,10.28,0,0,0,5.27-9.26q.1-16.71,0-33.41a10.54,10.54,0,0,0-5.56-9.5c-7-4.09-14-8.13-21.08-12.19l-.42-.24a1.4,1.4,0,1,1,1.37-2.43c1.5.85,3,1.72,4.49,2.59l16.6,9.58a13.81,13.81,0,0,1,7.39,12.87C133.68,64,133.72,69.37,133.72,74.72Z"></path><path class="cls-1" d="M128.22,74.61V91.17a7.89,7.89,0,0,1-4.06,7.23q-14.44,8.41-29,16.73a7.74,7.74,0,0,1-8.11-.06q-14.37-8.28-28.71-16.6a8,8,0,0,1-4.19-7.35q0-10.83,0-21.65a3.59,3.59,0,0,1,0-.87,1.32,1.32,0,0,1,1.41-1.11,1.25,1.25,0,0,1,1.29,1.21,7.61,7.61,0,0,1,0,1.07c0,6.92,0,13.84,0,20.77a6.19,6.19,0,0,0,3.41,5.89q13.87,7.93,27.69,16a5.81,5.81,0,0,0,6.28,0q14-8.11,28-16.2a5.74,5.74,0,0,0,3.11-5.37V58.46a5.76,5.76,0,0,0-3.09-5.37Q108.29,45,94.25,36.84a5.66,5.66,0,0,0-6.1,0Q74.11,45,60,53.09A5.75,5.75,0,0,0,57,58.46c0,1.44,0,2.88,0,4.31,0,1-.49,1.56-1.35,1.57s-1.42-.58-1.41-1.62a59.15,59.15,0,0,1,.2-6.25A7.19,7.19,0,0,1,58.13,51q14.53-8.46,29.13-16.83a7.61,7.61,0,0,1,7.94,0q14.55,8.34,29,16.79a7.74,7.74,0,0,1,4,7.07C128.23,63.58,128.22,69.1,128.22,74.61Z"></path><path class="cls-1" d="M95.78,78.53c1-1.44,2-2.79,3-4.13,1.46-2,3.51-2,5,0,2.6,3.6,5.21,7.19,7.78,10.8a1.37,1.37,0,0,0,1.36.69c.81-.05,1.63,0,2.45,0a4.11,4.11,0,0,1,4.08,3.93,4,4,0,0,1-3.76,4.3c-2.21.12-4.44.07-6.65,0a1.4,1.4,0,0,1-1.52-1.44,1.46,1.46,0,0,1,1.63-1.34c1.95,0,3.91,0,5.87,0,1,0,1.69-.54,1.68-1.36s-.63-1.31-1.61-1.36H68a2.36,2.36,0,0,0-1.24.14c-.42.31-1,.9-.9,1.29s.66.92,1.11,1.25c.21.16.63,0,1,0h34.27a4.84,4.84,0,0,1,1.08,0,1.31,1.31,0,0,1,1.12,1.39,1.25,1.25,0,0,1-1.19,1.32,6.4,6.4,0,0,1-.88,0H67.73c-2.43,0-4-1-4.57-2.92a4.16,4.16,0,0,1,3.71-5.38,2.91,2.91,0,0,1,.59,0c2.2.43,3.49-.57,4.74-2.38,3.56-5.18,7.37-10.2,11.06-15.3a2.67,2.67,0,0,1,3-1.28,4.09,4.09,0,0,1,2,1.41c2.33,3.06,4.57,6.2,6.84,9.31C95.3,77.91,95.5,78.16,95.78,78.53Zm1.85,7.32L85.75,69.55c-4,5.45-7.89,10.83-11.88,16.3Zm-.13-4.93c.52.72,1,1.38,1.47,2,.72,1,1.26,2.3,2.22,2.79s2.36.14,3.56.15,2.43,0,3.84,0l-7.33-10.17Z"></path><path class="cls-1" d="M91,47.35h11.24a2.2,2.2,0,0,1,1.14.13c.4.29.91.78.91,1.19s-.47,1-.83,1.35c-.15.17-.55.15-.84.15H79.45c-.82,0-1.52-.2-1.74-1.09s.43-1.73,1.65-1.74c2.84,0,5.67,0,8.51,0Z"></path><path class="cls-2" d="M91,97.44h11.75c1.16,0,1.81.7,1.57,1.69s-.84,1.05-1.64,1.05c-5,0-10,0-15,0H79.37c-1.16,0-1.72-.47-1.7-1.4s.57-1.33,1.68-1.33Z"></path><path class="cls-2" d="M97.25,54.93a5.21,5.21,0,0,1,5.29,5.25,5.26,5.26,0,1,1-5.29-5.25Zm2.48,5.19a2.44,2.44,0,1,0-4.87.06,2.39,2.39,0,0,0,2.51,2.41A2.43,2.43,0,0,0,99.73,60.12Z"></path><path class="cls-1" d="M91,106.83c-1.76,0-3.52,0-5.28,0-1,0-1.67-.51-1.7-1.34s.62-1.41,1.72-1.41c3.52,0,7,0,10.55,0,1,0,1.68.52,1.71,1.33s-.65,1.42-1.72,1.42C94.53,106.84,92.77,106.83,91,106.83Z"></path><circle class="cls-1" cx="155.95" cy="97.08" r="2.41"></circle><circle class="cls-2" cx="30.86" cy="42.66" r="2.33"></circle><polygon class="cls-1" points="33.52 97.08 28.52 97.08 28.52 91.64 26.35 91.64 26.35 97.08 21.36 97.08 21.36 99.25 26.35 99.25 26.35 104.7 28.52 104.7 28.52 99.25 33.52 99.25 33.52 97.08"></polygon><path class="cls-2" d="M150,46.57H147.1V43.36a.7.7,0,0,0-.69-.7h-.17a.7.7,0,0,0-.7.7v3.21h-2.88a.69.69,0,0,0-.7.69v.17a.7.7,0,0,0,.7.7h2.88v3.2a.7.7,0,0,0,.7.7h.17a.69.69,0,0,0,.69-.7v-3.2H150a.69.69,0,0,0,.69-.7v-.17A.69.69,0,0,0,150,46.57Z"></path><text class="cls-3" transform="translate(57.2 159.47)">I<tspan class="cls-4" x="5.17" y="0">c</tspan><tspan class="cls-5" x="13.45" y="0">on Set</tspan></text></svg>