<svg xmlns="http://www.w3.org/2000/svg" id="Layer_1" data-name="Layer 1" viewBox="0 0 185.91 185.91"><defs><style>.cls-1{font-size:18px;font-family:Aller-Bold, Aller;font-weight:700;}.cls-1,.cls-3{fill:#171143;}.cls-2{letter-spacing:-0.01em;}.cls-4{fill:#44aee3;}</style></defs><title>color-vision-adv.icons</title><text class="cls-1" transform="translate(46.87 159.47)">Illust<tspan class="cls-2" x="42.3" y="0">r</tspan><tspan x="49.35" y="0">ation</tspan></text><path class="cls-3" d="M51.24,120a25,25,0,0,1-3.66-1.83,6.88,6.88,0,0,1-2.7-5.26c0-.3,0-.59,0-.89V46.31c0-3.84,2.08-6.77,5.7-7.64a21.44,21.44,0,0,1,5-.27c.9,0,1.36.69,1.38,1.74,0,2.09,0,4.19,0,6.29,0,.29,0,.57,0,1h51.3v3.13H57V92.35c.27-.19.48-.32.66-.47L76.6,75.46c1.26-1.09,1.74-1.1,3,0l19,16.24.73.6,9.2-8.17,2,2.28-4,3.62-5.7,5.06c-1.15,1-1.76,1-2.91,0l-19-16.32c-.22-.19-.46-.36-.71-.56L67.5,87.38c-3.32,2.88-6.65,5.76-9.94,8.67A1.92,1.92,0,0,0,57,97.3c0,2.87,0,5.73,0,8.59,0,1.55-.52,2-2.08,2.06-.74,0-1.48,0-2.22,0a4.56,4.56,0,0,0-4.76,4.44,4.61,4.61,0,0,0,4.55,4.6c.27,0,.53,0,.8,0h64.15v-1.1c0-3.92,0-7.85,0-11.78,0-1.76.5-2.27,2.26-2.27h12.89c0-1.2.05-2.29,0-3.37,0-.28-.35-.59-.6-.77-2.32-1.68-4.66-3.34-7-5l-.83-.63,1.75-2.46,6.62,4.71V50.52h-2.9V47.45c1.56,0,3.09-.07,4.61,0,.48,0,.93.61,1.39.94v55.45c-.41.46-.81.93-1.24,1.37l-13.46,13.45c-.45.45-1,.87-1.42,1.3Zm2.61-15.11V41.34a18.35,18.35,0,0,0-2.66.29c-2.15.56-3.31,2.34-3.31,4.93v59.83A8.89,8.89,0,0,1,53.85,104.9Zm66.68,9.41,9.31-9.32h-9.31Z"></path><path class="cls-3" d="M120.48,95.86c-1,0-1.77,0-2.59,0-.18,0-.36-.32-.49-.53a.7.7,0,0,1,0-.43,7.39,7.39,0,0,0-1.73-5.8,63.9,63.9,0,0,1-3.73-5.59,3.73,3.73,0,0,1-.57-1.89q0-22.1,0-44.2c0-4.17,2.54-7.33,6.35-8a7.56,7.56,0,0,1,8.82,7.76c0,7.73,0,15.47,0,23.21,0,7,0,13.93,0,20.9a4.28,4.28,0,0,1-.79,2.55Q123.32,87.39,121,91a3.53,3.53,0,0,0-.49,1.63C120.43,93.64,120.48,94.68,120.48,95.86Zm.06-48.32V80.63h2.87V47.54Zm-6,0V80.61h2.82V47.54Zm8.86-9.21c.38-2.44-.41-4.34-2.16-5.35a4.51,4.51,0,0,0-5,.29,4.73,4.73,0,0,0-1.63,5.06Zm-8.87,6h9c0-.74,0-1.41,0-2.08s-.17-.88-.84-.86c-1.83,0-3.65,0-5.48,0h-2.67Zm7.59,39.48h-6.3l3.15,4.72Z"></path><path class="cls-4" d="M105.33,67.13A9.07,9.07,0,1,1,96.4,58,9.17,9.17,0,0,1,105.33,67.13Zm-9,6a6,6,0,0,0,6-6,6,6,0,1,0-6,6Z"></path><path class="cls-4" d="M66.55,93.15l9.09-7.58,2,2.35-9.08,7.57Z"></path><polygon class="cls-3" points="115.91 93.49 111.82 93.49 111.82 89.04 110.04 89.04 110.04 93.49 105.95 93.49 105.95 95.28 110.04 95.28 110.04 99.73 111.82 99.73 111.82 95.28 115.91 95.28 115.91 93.49"></polygon><circle class="cls-4" cx="64.14" cy="40.25" r="2.41"></circle><circle class="cls-3" cx="34.91" cy="111.07" r="2.33"></circle><path class="cls-4" d="M152.63,96.3h-2.88V93.09a.69.69,0,0,0-.7-.69h-.16a.69.69,0,0,0-.7.69V96.3h-2.88a.7.7,0,0,0-.7.7v.16a.7.7,0,0,0,.7.7h2.88v3.21a.69.69,0,0,0,.7.69h.16a.69.69,0,0,0,.7-.69V97.86h2.88a.7.7,0,0,0,.7-.7V97A.7.7,0,0,0,152.63,96.3Z"></path><path class="cls-4" d="M117.49,47.54V80.63h2.87V47.54Z"></path></svg>