<svg xmlns:xodm="http://www.corel.com/coreldraw/odm/2003" xmlns="http://www.w3.org/2000/svg" xmlns:xlink="http://www.w3.org/1999/xlink" id="Layer_1" x="0px" y="0px" viewBox="0 0 341.6 341.6" style="enable-background:new 0 0 341.6 341.6;" xml:space="preserve"><style type="text/css">	.st0{fill-rule:evenodd;clip-rule:evenodd;fill:url(#SVGID_1_);}	.st1{fill-rule:evenodd;clip-rule:evenodd;fill:#FFFFFF;}</style><g>			<linearGradient id="SVGID_1_" gradientUnits="userSpaceOnUse" x1="6571.23" y1="-7381.2891" x2="15249.5488" y2="-20081.2891" gradientTransform="matrix(2.834646e-02 0 0 -2.834646e-02 -131.2753 -207.9147)">		<stop offset="0" style="stop-color:#284323"></stop>		<stop offset="1" style="stop-color:#284323"></stop>	</linearGradient>	<circle class="st0" cx="170.8" cy="170.8" r="170.8"></circle>	<g>		<defs>			<polygon id="SVGID_2_" points="10.4,23.7 258.7,23.7 258.7,274.9 10.4,274.9 10.4,23.7    "></polygon>		</defs>		<clipPath id="SVGID_3_">			<use xlink:href="#SVGID_2_" style="overflow:visible;"></use>		</clipPath>	</g>	<path class="st1" d="M45.9,133.4c1,1.2,1.9,1.8,2.8,3l34.8,42.7c9.7,12,19.3,28.1,33.3,34c1.6-1.5,25.1-32.8,34.9-42.2  c1.5-1.2,12-11.9,12.8-13.2L71.4,64.9c-0.6-1-0.2-0.5-0.9-1.4L55.9,48.7c-1.1,0.5-2.1,1.1-3.1,1.9l-4.4,4.8  c-1.4,1.6-2.7,3.3-4.2,4.7c-6.4,6.2-26.2,35.7-26.5,42.4c1.4,1.3,2.4,2.6,3.7,4.1C30.8,115.9,37.4,123.3,45.9,133.4z M70.8,36.2  l16.1,15.7l92.4,92.6c2.1-1.2,4.7-3.5,6.6-5.2c2-1.7,4.2-3.3,6.6-5.2c4.1-3.2,9.7-7.2,14.3-10c-0.5-1.5-1.2-3-2-4.4  c-7.8-13-21.2-20.9-32.9-30.2c-12.2-9.7-24.6-19.7-26.8-21.3c-18-14.8-34-29.7-51.8-46.8L87.2,25C81,28.4,72.7,33.6,70.8,36.2  L70.8,36.2z M223.2,247.9c1.3,2.1,8.6,9.3,11,10.8c11.2,7.2,25.3-5.2,17.9-17.9c-0.9-1.5-9.4-9.6-11-11  C235.5,233.2,226.3,242.3,223.2,247.9L223.2,247.9z M136.7,219.6c1.4,1.1,60.6,20.1,65,20.8l7.6-8c5.1-4.3,14.4-15.7,24.7-23.8  l-19.9-63.3c-0.8-2.1-1.4-2-1.4-2l-10.7,8.1c-1.6,1.2-3.9,2.8-5.2,4c-8,7-17.9,15.2-25.2,22.8c-7.9,8.2-20,21.4-26.7,30.5  C142.5,211.9,138.2,216.5,136.7,219.6z"></path></g></svg>