<svg xmlns="http://www.w3.org/2000/svg" xmlns:xlink="http://www.w3.org/1999/xlink" viewBox="0 0 49 55"><defs><path id="8as0a" d="M313.34 53.82l-18.3 10.62a6.13 6.13 0 0 0-3.04 5.3v21.22a6.13 6.13 0 0 0 3.05 5.3l18.29 10.62a6.08 6.08 0 0 0 6.1 0l18.3-10.61a6.13 6.13 0 0 0 3.03-5.3V69.73c0-2.19-1.16-4.2-3.04-5.3l-18.3-10.62a6.08 6.08 0 0 0-6.1 0z"></path><path id="8as0b" d="M302.68 93.3l-2.76-1.6c-1.3-.77-1.3-2-.01-2.75l14.07-8.22a5.14 5.14 0 0 1 4.71 0l14.17 8.22c1.3.77 1.3 1.99.01 2.74l-14.07 8.22c-1.3.76-3.4.76-4.7 0l-11.42-6.62"></path><path id="8as0d" d="M332.86 82.45c1.3.77 1.31 1.99.02 2.74l-14.08 8.22c-1.29.77-3.4.77-4.7 0l-14.18-8.22c-1.3-.76-1.3-1.98-.01-2.74l14.07-8.22a5.13 5.13 0 0 1 4.71 0z"></path><path id="8as0f" d="M332.86 75.95c1.3.76 1.3 1.98.01 2.74l-14.08 8.22c-1.28.76-3.4.76-4.7 0l-14.17-8.22c-1.3-.76-1.3-1.98-.01-2.74l14.07-8.23c1.3-.76 3.4-.76 4.7 0z"></path><path id="8as0h" d="M332.86 69.44c1.3.77 1.3 1.98.01 2.74L318.8 80.4c-1.3.76-3.4.76-4.7 0l-14.17-8.22c-1.3-.76-1.3-1.98-.01-2.75l14.07-8.22c1.3-.76 3.4-.76 4.71 0z"></path><linearGradient id="8as0c" x1="316.39" x2="316.39" y1="100.48" y2="80.16" gradientUnits="userSpaceOnUse"><stop offset="0" stop-color="#fff" stop-opacity=".2"></stop><stop offset="1" stop-color="#7d02ff" stop-opacity=".16"></stop></linearGradient><linearGradient id="8as0e" x1="311.68" x2="321.1" y1="92.01" y2="75.63" gradientUnits="userSpaceOnUse"><stop offset="0" stop-color="#64c5ff" stop-opacity=".47"></stop><stop offset=".98" stop-color="#7e4cff" stop-opacity=".44"></stop><stop offset="1" stop-color="#7d4aff" stop-opacity=".44"></stop></linearGradient><linearGradient id="8as0g" x1="303.16" x2="329.61" y1="84.99" y2="69.65" gradientUnits="userSpaceOnUse"><stop offset="0" stop-color="#00a9ff" stop-opacity=".73"></stop><stop offset=".98" stop-color="#6c92f8" stop-opacity=".72"></stop><stop offset="1" stop-color="#6c91f8" stop-opacity=".72"></stop></linearGradient><linearGradient id="8as0i" x1="298.94" x2="333.84" y1="70.81" y2="70.81" gradientUnits="userSpaceOnUse"><stop offset="0" stop-color="#008dff"></stop><stop offset=".98" stop-color="#47ffe2"></stop></linearGradient></defs><g><g transform="translate(-292 -53)"><use fill="#172533" xlink:href="#8as0a"></use></g><g opacity=".8" transform="translate(-292 -53)"><use fill="url(#8as0c)" xlink:href="#8as0b"></use></g><g opacity=".5" transform="translate(-292 -53)"><use fill="url(#8as0e)" xlink:href="#8as0d"></use></g><g opacity=".7" transform="translate(-292 -53)"><use fill="url(#8as0g)" xlink:href="#8as0f"></use></g><g opacity=".9" transform="translate(-292 -53)"><use fill="url(#8as0i)" xlink:href="#8as0h"></use></g></g></svg>