<svg xmlns="http://www.w3.org/2000/svg" xmlns:xlink="http://www.w3.org/1999/xlink" id="Layer_1" x="0px" y="0px" viewBox="0 0 56 54" style="enable-background:new 0 0 56 54;" xml:space="preserve"><style type="text/css">	.st0{fill:#1E3101;}	.st1{fill:#99E83F;}</style><g id="Layer_2_1_">	<g id="Surfaces">		<g id="_3D_Substance_Surface">			<g id="Outline_no_shadow">				<path class="st0" d="M9.914,0h36.172C51.561,0,56,4.439,56,9.914v34.172C56,49.561,51.561,54,46.086,54H9.914     C4.439,54,0,49.561,0,44.086V9.914C0,4.439,4.439,0,9.914,0z"></path>			</g>		</g>	</g>	<g id="Live_Text">		<g id="Sg_copy">			<g>				<path class="st1" d="M17.611,38.372c-1.261,0.012-2.519-0.106-3.755-0.352c-0.977-0.187-1.927-0.491-2.831-0.906     c-0.216-0.132-0.332-0.379-0.296-0.629v-4.403c-0.009-0.08,0.027-0.158,0.093-0.204c0.078-0.036,0.169-0.029,0.24,0.019     c1.023,0.636,2.132,1.122,3.293,1.443c1.108,0.314,2.253,0.476,3.404,0.481c1.047,0.086,2.096-0.14,3.016-0.648     c0.557-0.347,0.899-0.953,0.906-1.609c0.006-0.396-0.096-0.786-0.296-1.128c-0.267-0.401-0.622-0.736-1.036-0.981     c-0.646-0.396-1.327-0.73-2.035-0.999l-1.85-0.777c-1.274-0.505-2.464-1.197-3.533-2.053c-0.774-0.623-1.379-1.431-1.758-2.35     c-0.325-0.863-0.488-1.779-0.481-2.701c-0.049-2.675,1.512-5.117,3.959-6.198c1.537-0.676,3.206-0.998,4.884-0.944     c1.108-0.005,2.214,0.069,3.312,0.222c0.853,0.098,1.684,0.335,2.46,0.703c0.172,0.097,0.273,0.284,0.259,0.481     c0,0.117,0,0.234,0,0.351c0,0.288,0,0.576,0,0.864c0,0.364,0,0.728,0,1.092c0,0.346,0,0.691,0,1.037c0,0.233,0,0.466,0,0.698     c0,0.113,0.011,0.243-0.1,0.311c-0.079,0.048-0.159,0.013-0.233-0.025c-0.818-0.423-1.689-0.734-2.59-0.925     c-1.008-0.224-2.038-0.336-3.071-0.333c-0.61-0.011-1.218,0.051-1.813,0.185c-0.421,0.095-0.826,0.251-1.202,0.462     c-0.29,0.165-0.527,0.409-0.685,0.703c-0.144,0.267-0.22,0.566-0.222,0.869c-0.005,0.378,0.111,0.748,0.333,1.055     c0.305,0.379,0.682,0.693,1.11,0.925c0.696,0.4,1.413,0.764,2.146,1.092l1.369,0.518c1.368,0.518,2.652,1.235,3.811,2.127     c0.83,0.646,1.49,1.484,1.924,2.442c0.374,0.896,0.563,1.859,0.555,2.83c0.027,1.368-0.381,2.709-1.166,3.83     c-0.82,1.132-1.942,2.01-3.237,2.534C20.944,38.108,19.282,38.41,17.611,38.372z"></path>				<path class="st1" d="M33.994,33.451l5.254,0.259c1.458,0.009,2.902,0.291,4.255,0.833c0.939,0.38,1.74,1.039,2.294,1.887     c0.474,0.8,0.718,1.716,0.703,2.646c-0.001,1.261-0.424,2.486-1.203,3.478c-0.881,1.121-2.042,1.988-3.367,2.516     c-1.641,0.653-3.396,0.968-5.162,0.925c-1.731,0.057-3.456-0.239-5.069-0.869c-1.16-0.448-2.172-1.21-2.923-2.202     c-0.572-0.759-0.895-1.677-0.925-2.627c0.013-0.445,0.127-0.882,0.333-1.276c0.285-0.549,0.639-1.059,1.055-1.517     c0.586-0.659,1.217-1.277,1.887-1.85C32.042,34.868,32.999,34.133,33.994,33.451z M36.362,31.675     c-0.928,0.001-1.853-0.104-2.756-0.315c-0.88-0.201-1.718-0.551-2.479-1.036c-0.748-0.476-1.365-1.131-1.794-1.906     c-0.465-0.876-0.694-1.858-0.666-2.849c-0.01-1.123,0.298-2.226,0.888-3.182c0.624-0.991,1.516-1.786,2.571-2.294     c1.277-0.601,2.678-0.892,4.089-0.851c0.666,0,1.313,0.031,1.942,0.093s1.153,0.13,1.572,0.204     c0.172,0.025,0.333,0.043,0.481,0.055c0.148,0.013,0.284,0.019,0.407,0.019h5.069c0.148,0,0.222,0.087,0.222,0.259v3.441     c0.029,0.114-0.039,0.229-0.152,0.259c-0.035,0.009-0.072,0.009-0.107,0c-0.247,0-0.635-0.019-1.165-0.056     c-0.531-0.037-0.994-0.08-1.388-0.129c0.164,0.312,0.294,0.641,0.389,0.98c0.119,0.453,0.175,0.92,0.166,1.387     c0.046,1.176-0.285,2.336-0.943,3.312c-0.657,0.897-1.564,1.579-2.608,1.961C38.904,31.474,37.637,31.694,36.362,31.675z      M35.844,33.932l-3.922,2.442c-0.472-0.484-0.843-1.056-1.092-1.684c-0.235-0.607-0.342-1.255-0.314-1.906     c0.022-0.53,0.122-1.053,0.296-1.554c0.167-0.484,0.418-0.935,0.74-1.332l3.663,1.48c-0.082,0.175-0.132,0.363-0.148,0.555     c-0.024,0.221-0.024,0.445,0,0.666c-0.001,0.243,0.07,0.481,0.204,0.685C35.432,33.525,35.625,33.742,35.844,33.932z      M41.801,39.852c0.032-0.422-0.148-0.831-0.481-1.092c-0.401-0.267-0.856-0.444-1.332-0.518     c-0.623-0.117-1.253-0.185-1.887-0.203l-4.07-0.185c-0.413,0.264-0.76,0.618-1.017,1.036c-0.208,0.283-0.342,0.614-0.389,0.962     c0.021,0.42,0.2,0.816,0.5,1.11c0.427,0.427,0.955,0.739,1.536,0.906c0.789,0.249,1.614,0.368,2.442,0.352     c0.912,0.026,1.823-0.086,2.701-0.333c0.573-0.153,1.096-0.452,1.517-0.87C41.622,40.704,41.794,40.288,41.801,39.852z      M38.841,25.57c0.007-0.459-0.088-0.914-0.278-1.332c-0.183-0.392-0.48-0.721-0.851-0.944c-0.445-0.25-0.951-0.372-1.461-0.352     c-0.699-0.042-1.385,0.198-1.906,0.666c-0.485,0.519-0.732,1.216-0.684,1.924c-0.008,0.646,0.223,1.271,0.647,1.758     c0.499,0.534,1.213,0.813,1.942,0.759c0.692,0.035,1.37-0.204,1.887-0.666C38.62,26.907,38.875,26.247,38.841,25.57     L38.841,25.57z"></path>			</g>		</g>	</g></g></svg>