<svg xmlns="http://www.w3.org/2000/svg" xmlns:xlink="http://www.w3.org/1999/xlink" x="0px" y="0px" width="64px" height="64px" viewBox="0 0 64 64" stroke-width="2"><g stroke-width="2" transform="translate(0.5, 0.5)"><polyline data-cap="butt" fill="none" stroke="#000000" stroke-width="2" stroke-miterlimit="10" points="44,2 44,14 56,14 " stroke-linejoin="miter" stroke-linecap="butt"></polyline> <polygon fill="none" stroke="#000000" stroke-width="2" stroke-linecap="square" stroke-miterlimit="10" points="44,2 8,2 8,62 56,62 56,14 " stroke-linejoin="miter"></polygon> <path data-color="color-2" fill="none" stroke="#000000" stroke-width="2" stroke-linecap="square" stroke-miterlimit="10" d=" M30.586,24.101l2.121-2.121c3.124-3.124,8.19-3.124,11.314,0l0,0c3.124,3.124,3.124,8.19,0,11.314l-2.828,2.828 c-3.124,3.124-8.19,3.124-11.314,0" stroke-linejoin="miter"></path> <path data-color="color-2" fill="none" stroke="#000000" stroke-width="2" stroke-linecap="square" stroke-miterlimit="10" d=" M33.414,43.899l-2.121,2.121c-3.124,3.124-8.19,3.124-11.314,0l0,0c-3.124-3.124-3.124-8.19,0-11.314l2.828-2.828 c3.124-3.124,8.19-3.124,11.314,0" stroke-linejoin="miter"></path></g></svg>